<?xml version="1.0" encoding="UTF-8" standalone="no"?>
<!-- Generator: Adobe Illustrator 22.1.0, SVG Export Plug-In . SVG Version: 6.00 Build 0)  -->

<svg
   version="1.1"
   x="0px"
   y="0px"
   viewBox="0 0 4354.1187 4390.5933"
   enable-background="new 0 0 1995.865 2834.646"
   xml:space="preserve"
   id="svg1596"
   width="4354.1187"
   height="4390.5933"
   xmlns="http://www.w3.org/2000/svg"
   xmlns:svg="http://www.w3.org/2000/svg"><defs
   id="defs1596" />


<g
   id="Northern_Ireland_county_boundaries"
   transform="translate(1093.6405,660.66109)">
				<path
   style="fill:#dde7c1"
   d="m 698.20508,1460.4668 -0.35352,0.3535 c 0,0 2.66555,2.6745 4.09766,3.7246 0.64834,0.4759 1.74365,1.6307 2.88867,3 1.14502,1.3693 2.35408,2.9607 3.29688,4.3399 1.84853,2.7045 1.75976,5.4873 1.75976,6.6113 0,1.0534 -0.36939,3.7547 -0.91406,5.5703 -0.26027,0.8681 -0.80688,1.5513 -1.3418,2.0547 -0.53492,0.5033 -1.03012,0.8041 -1.25586,0.9824 -0.1267,0.1001 -0.27964,0.2618 -0.46875,0.4707 -0.1891,0.2089 -0.4046,0.4585 -0.60742,0.6973 -0.40564,0.4775 -0.76367,0.916 -0.76367,0.916 l -0.11133,0.1387 0.72461,1.1797 0.006,0.01 c 0.33659,0.4708 0.92722,1.0246 1.44141,1.4766 0.4877,0.4287 0.85864,0.721 0.90039,0.7539 0.0186,0.037 0.20352,0.4074 0.40625,0.8711 0.10634,0.2432 0.21158,0.5011 0.28906,0.7226 0.0775,0.2216 0.12109,0.422 0.12109,0.4727 0,0.1424 -0.14289,0.473 -0.22656,0.9336 -0.0837,0.4606 -0.0784,1.0649 0.24805,1.8164 0.62646,1.4397 1.20523,2.2142 0.96679,4 -0.24398,1.8348 -0.61808,3.3171 -0.8457,3.8848 h -0.002 c -0.29183,0.7289 -0.13593,1.7455 0.23828,3.2382 0.37157,1.4853 0.83701,3.258 1.9414,4.086 0.55081,0.4129 1.13856,0.4792 1.52344,0.5254 0.18734,0.023 0.32305,0.05 0.35938,0.066 8e-5,0 0.002,-0.01 -0.004,0.022 -0.12141,0.608 -0.23368,1.0576 0.008,2.4355 0.11575,0.6622 0.11097,1.0188 0.17578,1.416 0.0648,0.3972 0.2049,0.807 0.58204,1.4981 0.77503,1.4212 1.88492,2.0393 2.58984,3.33 0.75932,1.3914 1.98139,2.8825 2.32227,4.0215 0.1718,0.5726 0.17377,1.1562 0.1289,1.6797 -0.0449,0.5235 -0.13867,0.974 -0.13867,1.3321 0,0.4251 0.23962,0.8478 0.45312,1.3203 0.21351,0.4724 0.41016,0.972 0.41016,1.3925 0,0.5347 0.1267,1.3073 0.2832,2.0118 0.0783,0.3522 0.16445,0.6843 0.24805,0.957 0.0836,0.2727 0.15098,0.4718 0.25195,0.623 0.008,0.013 0.0704,0.1928 0.11329,0.4239 0.0429,0.231 0.0859,0.525 0.14062,0.8379 0.10947,0.6257 0.25621,1.3278 0.61328,1.8281 0.26696,0.374 0.641,1.273 0.92383,2.0527 0.28169,0.7766 0.48467,1.4419 0.48633,1.4473 0,0 0.002,0.01 0.002,0.01 0.005,0.024 0.15923,0.7902 0.33399,1.6407 0.17747,0.8637 0.36632,1.7747 0.43359,2.0449 0.071,0.2847 0.2563,0.7677 0.45703,1.293 0.20073,0.5253 0.41614,1.0814 0.53516,1.4394 v 0 c 0.22472,0.6723 0.76432,2.663 0.82617,2.8906 l -0.96485,0.7012 h -0.002 c 0,0 -1.43044,1.0791 -1.6289,2.8652 -0.0927,0.8346 -0.18793,1.7675 -0.16407,2.584 0.0239,0.8165 0.13882,1.5421 0.625,1.9336 0.68873,0.5538 2.00239,1.7302 2.14258,1.8555 l -0.46484,1.8086 -0.66992,1.6953 -0.72071,2.5684 -3.21289,16.4257 -3.86328,1.045 0.0801,0.25 c 0.0875,0.2735 0.13253,0.5087 -0.004,0.8027 -0.13643,0.2939 -0.49104,0.6738 -1.29883,1.123 -0.44509,0.2471 -0.66591,0.474 -0.69921,0.75 -0.0123,0.1019 0.0525,0.1186 0.084,0.1934 -0.17857,-0.01 -0.37063,-0.013 -0.91016,-0.049 -0.70589,-0.047 -1.14037,-0.026 -1.43164,0.025 -0.29032,0.052 -0.4556,0.1547 -0.52539,0.2011 -0.003,-10e-4 0.0131,0 0,0 -0.0807,-0.031 -0.29859,-0.1457 -0.71484,-0.3769 -0.85657,-0.4759 -1.41039,-0.581 -1.91797,-0.4473 -0.50758,0.1337 -0.91281,0.4456 -1.62891,0.7442 -0.32532,0.1354 -0.4957,0.1098 -0.6289,0.051 -0.1332,-0.059 -0.24278,-0.1797 -0.36719,-0.3125 -0.0622,-0.066 -0.12612,-0.1366 -0.22266,-0.1953 -0.0965,-0.059 -0.24546,-0.095 -0.38086,-0.057 -0.27078,0.077 -0.43403,0.3042 -0.6875,0.7246 -0.24478,0.4057 -0.35923,0.6053 -0.41601,0.7148 -0.0284,0.055 -0.0442,0.065 -0.0605,0.1485 -0.006,0.01 -0.003,0 -0.0117,0.018 -0.0653,0.1002 -0.20297,0.3083 -0.48047,0.7246 -0.28283,0.4242 -0.39832,0.6264 -0.44336,0.8066 -0.0113,0.045 -0.0188,0.093 -0.0117,0.1523 9.9e-4,0.01 0.0117,0.017 0.0137,0.025 -0.10065,0.1063 -0.26615,0.2701 -0.63867,0.6426 -0.40479,0.4048 -0.66467,0.5849 -0.8125,0.6543 -0.14783,0.069 -0.14743,0.051 -0.2168,0.039 -0.0347,-0.01 -0.12267,-0.03 -0.23242,0.022 -0.10975,0.052 -0.15781,0.1397 -0.19336,0.2168 -0.0711,0.1541 -0.13274,0.377 -0.27149,0.8398 -0.15819,0.5273 -0.0342,0.9672 0.18555,1.2637 0.13105,0.1768 0.26741,0.2399 0.41016,0.3398 -0.22015,0.02 -0.36368,0.037 -0.92578,0.068 -1.65167,0.092 -2.36245,0 -3.06055,-0.068 -0.6981,-0.07 -1.38293,-0.1164 -2.87695,0.07 -0.73714,0.092 -1.11633,0.1248 -1.30079,0.1328 -0.0856,0 -0.12196,4e-4 -0.12695,0 -0.0101,-0.01 -0.0108,-0.01 -0.0215,-0.014 -0.0528,-0.018 -0.0877,-0.017 -0.11524,-0.016 -0.0551,0 -0.10019,0.011 -0.1914,0.027 -0.15211,0.027 -0.5336,0.104 -1.01954,0.2012 l -0.58007,-1.4043 -0.0137,-0.022 c -0.24116,-0.3609 -0.25051,-0.653 -0.15429,-0.9512 0.0962,-0.2982 0.32314,-0.5966 0.58594,-0.8594 0.31663,-0.3172 0.46857,-0.7041 0.45507,-1.1113 -0.0135,-0.4072 -0.16922,-0.8292 -0.4082,-1.3066 -0.50971,-1.0206 -1.63436,-1.7447 -3.09961,-3.211 -1.50946,-1.5084 -2.73264,-1.9836 -3.90039,-2.9726 -1.16688,-0.9873 -1.21295,-1.549 -1.60156,-2.3262 -0.16814,-0.3358 -0.40682,-1.0163 -0.70117,-1.6875 -0.29435,-0.6712 -0.63649,-1.3452 -1.12696,-1.7266 -0.44571,-0.3462 -1.02678,-0.646 -1.5332,-0.9726 -0.50642,-0.3267 -0.92156,-0.6789 -1.07031,-1.0508 -0.20638,-0.5159 -0.67249,-1.2039 -1.14844,-1.8887 -0.47595,-0.6847 -0.96222,-1.3626 -1.17578,-1.748 h -0.002 c -0.19512,-0.3506 -0.319,-0.9875 -0.43555,-1.5586 -0.0583,-0.2856 -0.11647,-0.5551 -0.19727,-0.7832 -0.0808,-0.2281 -0.17366,-0.4459 -0.41601,-0.543 -0.24373,-0.098 -0.47048,-0.039 -0.76367,0.029 -0.2932,0.069 -0.63329,0.1779 -0.98438,0.3008 -0.70217,0.2458 -1.44994,0.5487 -1.84766,0.6816 -0.37729,0.125 -0.53334,0.097 -0.66992,0.02 -0.13697,-0.078 -0.28256,-0.2615 -0.50195,-0.5039 -0.0398,-0.044 -0.10471,-0.2038 -0.13281,-0.4356 -0.0281,-0.2317 -0.0303,-0.5292 -0.0156,-0.8476 0.0294,-0.6363 0.12206,-1.3585 0.16992,-1.8965 v 0 c 0.0479,-0.5354 0.0508,-0.8319 0.0371,-1.0078 -0.007,-0.088 -0.0175,-0.1466 -0.0332,-0.1973 -0.008,-0.025 -0.0173,-0.048 -0.0312,-0.072 -0.007,-0.012 -0.0154,-0.025 -0.0254,-0.037 -0.01,-0.013 -0.0352,-0.037 -0.0352,-0.037 l -0.0664,-0.055 h -0.0879 c 0,0 -0.78336,-0.024 -1.31836,-0.1329 -0.52255,-0.1067 -2.59571,-0.7148 -2.59571,-0.7148 l -0.0351,-0.01 h -1.05274 c -0.0379,-0.017 -0.44462,-0.1968 -0.98828,-0.4804 -0.56829,-0.2965 -1.24049,-0.6889 -1.62109,-1.0274 h -0.002 c -0.18438,-0.1638 -0.2722,-0.3045 -0.31054,-0.4297 -0.0383,-0.1251 -0.0333,-0.2463 0.0137,-0.3964 0.094,-0.3004 0.37998,-0.6892 0.70703,-1.1563 0.28679,-0.4094 0.70442,-0.6637 1.11133,-0.8457 0.40691,-0.1821 0.77512,-0.2638 1.03906,-0.4336 0.22366,-0.1433 0.24825,-0.3869 0.24414,-0.625 -0.004,-0.2381 -0.0567,-0.5119 -0.14453,-0.8066 -0.17571,-0.5896 -0.49261,-1.2564 -0.91211,-1.7559 -0.37437,-0.4462 -0.58746,-0.8196 -0.64062,-1.2031 -0.0532,-0.3835 0.0428,-0.8058 0.36914,-1.3789 v 0 c 0.37703,-0.6625 0.36714,-1.3161 0.27148,-1.8437 -0.0957,-0.5277 -0.24887,-0.97 -0.23828,-1.1289 0.0159,-0.2386 -0.0947,-0.4435 -0.24219,-0.6426 -0.14752,-0.1991 -0.34774,-0.3974 -0.57617,-0.5996 -0.45686,-0.4044 -1.03386,-0.8187 -1.54297,-1.1817 -0.56422,-0.4018 -1.162,-0.461 -1.80273,-0.3925 -0.64073,0.068 -1.34721,0.2491 -2.25391,0.3476 -0.90002,0.098 -1.49581,0.027 -2.11133,-0.035 -0.61552,-0.062 -1.25182,-0.114 -2.1582,0.037 -0.93015,0.155 -1.38269,0.5556 -1.68359,0.8906 -0.30091,0.335 -0.42126,0.5502 -0.89453,0.6035 -0.61664,0.069 -1.35897,0.3703 -2.20313,0.7051 -0.84416,0.3348 -1.78137,0.7058 -2.72852,0.9316 -1.91477,0.4563 -2.95826,0.3662 -4.89062,0 -0.9626,-0.1834 -1.51731,-0.3498 -1.80078,-0.5449 -0.28347,-0.1952 -0.3566,-0.401 -0.40039,-0.8653 -0.0304,-0.3248 -0.21136,-0.6001 -0.44727,-0.8359 -0.2359,-0.2359 -0.53533,-0.4439 -0.85937,-0.6504 -0.64808,-0.413 -1.39984,-0.8199 -1.91992,-1.2969 -1.08875,-0.9985 -2.014,-2.2061 -3.16407,-3.0683 -0.49276,-0.3694 -0.59708,-0.781 -0.6289,-1.1954 -0.0159,-0.2071 -0.007,-0.4108 -0.0117,-0.6015 -0.005,-0.1908 -0.009,-0.3819 -0.14063,-0.5586 h -0.002 c -0.0702,-0.093 -0.17878,-0.1577 -0.2832,-0.1777 -0.10442,-0.02 -0.20096,-0.01 -0.28907,0.017 -0.17621,0.048 -0.33359,0.1433 -0.48046,0.2442 -0.24817,0.1704 -0.39498,0.3171 -0.45508,0.375 -0.0565,0.01 -1.60527,0.2581 -2.80274,0 -0.54088,-0.1157 -0.90489,-0.5648 -1.19531,-1.1699 -0.29042,-0.6051 -0.4828,-1.3345 -0.69336,-1.9082 -0.18951,-0.5156 -0.22556,-1.0156 -0.23437,-1.4688 -0.009,-0.4531 0.0231,-0.8524 -0.0957,-1.207 -0.0173,-0.052 -0.0114,-0.173 0.0391,-0.334 0.0504,-0.161 0.1347,-0.3507 0.20312,-0.5527 0.0684,-0.202 0.12708,-0.4194 0.0918,-0.6523 -0.0353,-0.233 -0.19802,-0.4628 -0.46094,-0.5938 -0.47577,-0.237 -1.287,-0.4267 -2.17188,-0.5391 -0.88487,-0.1123 -1.82251,-0.1407 -2.52343,0.01 -1.28086,0.274 -3.1652,0.5445 -3.81836,0.5039 -0.0973,-0.01 -0.16531,-0.051 -0.25391,-0.1797 -0.0886,-0.129 -0.17078,-0.3352 -0.23633,-0.5781 -0.13108,-0.4858 -0.20061,-1.1046 -0.29687,-1.5859 -0.0331,-0.1656 3.1e-4,-0.3295 0.0957,-0.5215 0.0954,-0.192 0.25362,-0.4017 0.43945,-0.6211 0.37168,-0.4389 0.8519,-0.9086 1.11133,-1.4785 0.13757,-0.3019 0.14991,-0.5988 0.0781,-0.8477 -0.0718,-0.2489 -0.21773,-0.4459 -0.3711,-0.5996 -0.30673,-0.3075 -0.66796,-0.459 -0.66796,-0.459 l -0.0176,-0.01 -0.0195,-0.01 c 0,0 -0.83696,-0.2083 -1.80274,-0.4062 -0.96577,-0.1979 -2.02835,-0.3948 -2.6289,-0.3398 -1.13342,0.1035 -2.43468,0.9625 -3.2168,1.8418 -0.26763,0.3009 -1.04101,0.493 -1.95703,0.4707 -0.91602,-0.022 -1.9611,-0.2286 -2.75977,-0.5391 -0.4034,-0.1571 -0.65048,-0.2932 -0.79687,-0.418 -0.14639,-0.1247 -0.20368,-0.2301 -0.25,-0.3984 -0.0926,-0.3367 -0.0719,-0.9296 -0.33985,-1.8848 -0.52939,-1.887 -1.2832,-2.8613 -1.2832,-2.8613 l -0.0254,-0.033 -4.41602,-2.7871 -0.26562,0.4219 4.32422,2.7304 c 0.0117,0.015 0.68133,0.8668 1.18554,2.6641 0.25105,0.8948 0.20779,1.41 0.33789,1.8828 0.0651,0.2364 0.1915,0.4618 0.40821,0.6465 0.2167,0.1847 0.51086,0.337 0.93945,0.5039 0.86533,0.3364 1.94971,0.5483 2.92969,0.5723 0.97998,0.024 1.86942,-0.1076 2.3418,-0.6387 0.69988,-0.7868 1.98803,-1.5933 2.89062,-1.6758 0.41645,-0.038 1.527,0.1347 2.48047,0.3301 0.93987,0.1926 1.73271,0.3926 1.75586,0.3984 0.0125,0.01 0.28008,0.1253 0.5,0.3457 0.11251,0.1128 0.20333,0.2433 0.24414,0.3848 0.0408,0.1415 0.0412,0.2958 -0.0527,0.5019 -0.20256,0.4451 -0.64749,0.9009 -1.03906,1.3633 -0.19578,0.2312 -0.37859,0.4646 -0.50586,0.7207 -0.12726,0.2562 -0.19614,0.5444 -0.13672,0.8418 0.0887,0.4437 0.15803,1.0737 0.30469,1.6172 0.0733,0.2717 0.1639,0.5246 0.30664,0.7324 0.14275,0.2078 0.36203,0.3776 0.63477,0.3946 0.82884,0.051 2.64398,-0.2337 3.95312,-0.5137 0.59408,-0.1275 1.50585,-0.1099 2.35547,0 0.84962,0.1079 1.65644,0.3123 2.01367,0.4903 0.15358,0.077 0.17555,0.1289 0.18946,0.2207 0.0139,0.092 -0.0134,0.2423 -0.0723,0.416 -0.0588,0.1737 -0.14271,0.3674 -0.20508,0.5664 -0.0624,0.199 -0.11225,0.4148 -0.0371,0.6406 0.0672,0.2004 0.0611,0.5865 0.0703,1.0586 0.009,0.4721 0.0471,1.0364 0.26562,1.6309 0.19644,0.5352 0.39086,1.2862 0.71094,1.9531 0.32008,0.6669 0.78885,1.2821 1.54297,1.4434 1.37083,0.2932 3.03906,0 3.03906,0 l 0.0781,-0.014 0.0566,-0.055 c 0,0 0.22544,-0.2202 0.4707,-0.3887 0.12263,-0.084 0.25204,-0.1525 0.33008,-0.1738 0.0277,-0.01 0.0338,-0.01 0.043,-0.01 0.009,0.019 0.0353,0.1014 0.0391,0.2559 0.004,0.1649 -0.005,0.3832 0.0137,0.6269 0.0374,0.4874 0.20894,1.094 0.82617,1.5566 1.07194,0.8038 1.9957,1.9997 3.12695,3.0372 0.58992,0.541 1.36632,0.952 1.99024,1.3496 0.31196,0.1987 0.58447,0.3931 0.77344,0.582 0.18897,0.1889 0.2871,0.3621 0.30273,0.5293 0.0492,0.5217 0.20496,0.9481 0.61524,1.2305 0.41027,0.2823 1.01083,0.4384 1.99023,0.625 1.95164,0.3718 3.13033,0.4658 5.10156,0 0.99486,-0.2372 1.95304,-0.6185 2.79688,-0.9532 0.84384,-0.3347 1.58085,-0.6182 2.07422,-0.6738 0.63672,-0.072 0.93384,-0.4571 1.21093,-0.7656 0.2771,-0.3085 0.56473,-0.5945 1.39258,-0.7324 0.85162,-0.142 1.41737,-0.093 2.02735,-0.031 0.60998,0.062 1.26291,0.1364 2.21289,0.033 0.9433,-0.1025 1.66913,-0.2851 2.2539,-0.3476 0.58477,-0.063 1.00521,-0.021 1.45899,0.3027 0.50789,0.3621 1.07726,0.7727 1.5039,1.1504 0.21332,0.1888 0.39062,0.3686 0.50391,0.5215 0.11329,0.1529 0.14713,0.2735 0.14453,0.3125 -0.0264,0.396 0.1615,0.7853 0.24609,1.2519 0.0846,0.4666 0.0941,0.9684 -0.21289,1.5078 -0.35867,0.6299 -0.50348,1.1771 -0.43164,1.6953 0.0718,0.5183 0.35128,0.9772 0.75391,1.4571 0.3565,0.4245 0.65716,1.0484 0.81445,1.5761 0.0787,0.2639 0.12211,0.5044 0.125,0.6719 0.003,0.1675 -0.0543,0.2201 -0.0156,0.1953 -0.10606,0.068 -0.52407,0.1978 -0.97266,0.3985 -0.44859,0.2007 -0.9552,0.5 -1.31641,1.0156 -0.31995,0.4569 -0.6359,0.8553 -0.77343,1.2949 -0.0688,0.2198 -0.0871,0.4561 -0.0156,0.6895 0.0715,0.2333 0.22492,0.452 0.45703,0.6582 0.45141,0.4015 1.13895,0.7931 1.72266,1.0976 0.58371,0.3045 1.0625,0.5157 1.0625,0.5157 l 0.0488,0.021 h 1.08984 c 0.0524,0.016 1.98837,0.5893 2.60352,0.7149 0.52006,0.1062 1.01276,0.1146 1.19531,0.1211 0.009,0.1343 0.0117,0.388 -0.0332,0.8886 -0.0462,0.5198 -0.14104,1.2502 -0.17188,1.918 -0.0154,0.3339 -0.0142,0.6534 0.0195,0.9317 0.0337,0.2782 0.0881,0.5214 0.25782,0.7089 0.19961,0.2206 0.35647,0.4525 0.625,0.6055 0.26852,0.153 0.62287,0.1703 1.07617,0.02 h 0.002 c 0.43429,-0.1451 1.16623,-0.4436 1.85156,-0.6836 0.34267,-0.1199 0.6738,-0.2238 0.93555,-0.2851 0.26175,-0.061 0.47367,-0.05 0.46094,-0.055 -0.0114,0 0.0692,0.066 0.13281,0.2461 0.0636,0.1796 0.12038,0.4357 0.17773,0.7168 0.1147,0.5621 0.22236,1.2217 0.49024,1.7031 0.2476,0.4466 0.73118,1.1101 1.20312,1.7891 0.4723,0.6795 0.93208,1.38 1.09571,1.789 0.22124,0.5532 0.72984,0.9409 1.26367,1.2852 0.53383,0.3443 1.1088,0.6465 1.49609,0.9473 0.34153,0.2656 0.69291,0.8864 0.97656,1.5332 0.28366,0.6468 0.50908,1.3058 0.71094,1.709 0.35139,0.7027 0.48944,1.4376 1.72656,2.4843 1.23625,1.047 2.41861,1.4958 3.86915,2.9453 1.49474,1.4958 2.59156,2.2526 3.00585,3.0821 0.22403,0.4475 0.34597,0.813 0.35547,1.0996 0.01,0.2865 -0.0702,0.5014 -0.30859,0.7402 -0.2922,0.2922 -0.57395,0.6401 -0.70898,1.0586 -0.13504,0.4185 -0.1,0.9117 0.21484,1.3828 l -0.0234,-0.043 0.72656,1.7617 0.20313,-0.039 c 0.6935,-0.1387 1.04081,-0.2095 1.21094,-0.2402 0.0624,-0.011 0.0764,-0.012 0.0918,-0.014 0.0218,0.01 0.045,0.015 0.0645,0.018 0.0628,0.01 0.12511,0.011 0.23242,0.01 0.21461,-0.01 0.59893,-0.044 1.3418,-0.1367 1.46597,-0.1832 2.07622,-0.1374 2.76562,-0.068 0.6894,0.069 1.45839,0.1621 3.13672,0.068 0.8325,-0.046 1.22299,-0.058 1.45508,-0.1113 0.058,-0.013 0.11318,-0.015 0.19726,-0.096 0.042,-0.04 0.087,-0.123 0.0859,-0.2031 -10e-4,-0.08 -0.0341,-0.133 -0.0586,-0.1661 -0.0981,-0.1323 -0.15938,-0.1354 -0.2461,-0.1875 -0.17343,-0.104 -0.39852,-0.2445 -0.54297,-0.4394 -0.14444,-0.1949 -0.22868,-0.4265 -0.10937,-0.8242 0.13347,-0.4452 0.2034,-0.6631 0.23828,-0.7442 0.0966,0.01 0.22182,0.023 0.4082,-0.064 0.23374,-0.1097 0.52737,-0.3243 0.95508,-0.752 0.41625,-0.4162 0.62293,-0.6192 0.72852,-0.7343 0.0264,-0.029 0.0453,-0.053 0.0644,-0.078 0.0191,-0.025 0.0438,-0.04 0.0644,-0.123 0.005,-0.021 0.006,-0.079 0.006,-0.08 -8e-5,0 -0.0307,-0.1085 -0.0312,-0.1094 -8e-5,-10e-5 -0.009,-0.01 -0.0117,-0.014 0.0278,-0.068 0.0869,-0.2114 0.32227,-0.5645 0.2775,-0.4162 0.41512,-0.6222 0.48437,-0.7285 0.0346,-0.053 0.0493,-0.074 0.0684,-0.1113 0.005,-0.01 0.01,-0.019 0.0176,-0.043 0.004,-0.012 0.0117,-0.056 0.0117,-0.057 0,-10e-5 10e-6,0 0,0 0.0445,-0.086 0.15705,-0.2815 0.39844,-0.6816 0.22944,-0.3805 0.38571,-0.4867 0.38867,-0.4902 0.0197,0.014 0.0595,0.046 0.11133,0.1015 0.11133,0.1189 0.26931,0.3125 0.5293,0.4278 0.25998,0.1152 0.60925,0.1256 1.02343,-0.047 0.76391,-0.3185 1.19133,-0.6249 1.5625,-0.7227 0.37117,-0.098 0.7404,-0.049 1.54883,0.4004 0.41625,0.2313 0.61718,0.3465 0.7793,0.4082 0.0811,0.031 0.16894,0.054 0.26367,0.037 0.0947,-0.017 0.15477,-0.061 0.18945,-0.084 0.0694,-0.046 0.10884,-0.084 0.33789,-0.125 0.22905,-0.041 0.62894,-0.065 1.31055,-0.02 0.6935,0.046 1.02635,0.072 1.2207,0.064 0.0486,0 0.0879,0 0.14453,-0.02 0.0283,-0.01 0.0644,-0.02 0.10743,-0.055 0.043,-0.035 0.0892,-0.1075 0.0976,-0.1778 0.017,-0.1406 -0.0436,-0.1881 -0.0684,-0.2187 -0.0247,-0.031 -0.0432,-0.049 -0.0605,-0.066 -0.0693,-0.069 -0.0855,-0.099 -0.084,-0.1114 0.002,-0.013 0.0579,-0.1561 0.44531,-0.3711 0.85722,-0.4767 1.3045,-0.9115 1.50782,-1.3496 0.15564,-0.3353 0.0793,-0.6196 0.0215,-0.8925 l 3.74414,-1.0137 3.26758,-16.7129 0.70898,-2.5234 0.67188,-1.6993 0.54883,-2.1386 -0.11328,-0.1 c 0,0 -1.52047,-1.3637 -2.27539,-1.9707 -0.25382,-0.2045 -0.41707,-0.7944 -0.43946,-1.5606 -0.0224,-0.7662 0.0679,-1.6832 0.16016,-2.5137 0.17154,-1.5438 1.43555,-2.5214 1.43555,-2.5214 l 1.23828,-0.9004 -0.0449,-0.168 c 0,0 -0.62406,-2.3132 -0.88086,-3.082 v 0 c -0.12705,-0.3819 -0.34319,-0.9361 -0.54297,-1.459 -0.19974,-0.5227 -0.38523,-1.0255 -0.4375,-1.2344 v 0 c -0.0559,-0.225 -0.25258,-1.1615 -0.42969,-2.0234 -0.17727,-0.8628 -0.33984,-1.6641 -0.33984,-1.6641 l -0.002,-0.012 -0.004,-0.014 c 0,0 -0.21038,-0.6835 -0.49805,-1.4766 -0.28767,-0.793 -0.63729,-1.6828 -0.98633,-2.1718 -0.25892,-0.3628 -0.42106,-1.0156 -0.52734,-1.6231 -0.0531,-0.3037 -0.0948,-0.5968 -0.14063,-0.8437 -0.0458,-0.2469 -0.0762,-0.4369 -0.1914,-0.6094 -0.0225,-0.034 -0.1092,-0.2368 -0.1875,-0.4922 -0.0783,-0.2554 -0.16241,-0.5764 -0.23828,-0.918 -0.15175,-0.683 -0.27149,-1.4529 -0.27149,-1.9043 0,-0.5664 -0.23463,-1.1141 -0.45312,-1.5976 -0.2185,-0.4835 -0.41016,-0.9234 -0.41016,-1.1152 0,-0.258 0.0891,-0.7333 0.13672,-1.2891 0.0476,-0.5558 0.0498,-1.2067 -0.14844,-1.8672 -0.39713,-1.327 -1.6426,-2.7966 -2.36328,-4.1172 -0.77508,-1.4192 -1.88488,-2.0373 -2.58984,-3.3301 -0.36287,-0.6649 -0.46946,-0.9951 -0.52539,-1.3379 -0.0559,-0.3427 -0.0565,-0.728 -0.17774,-1.4218 -0.23451,-1.3381 -0.13435,-1.628 -0.01,-2.252 0.022,-0.1092 0.0214,-0.2243 -0.0254,-0.332 -0.0468,-0.1077 -0.13822,-0.1865 -0.2246,-0.2305 -0.17277,-0.088 -0.34223,-0.096 -0.53516,-0.1191 -0.38587,-0.046 -0.84701,-0.1027 -1.2832,-0.4297 -0.86961,-0.652 -1.38939,-2.3339 -1.75782,-3.8067 -0.36779,-1.4672 -0.45998,-2.4246 -0.25781,-2.9296 0.26626,-0.6641 0.63089,-2.1419 0.87891,-4.0059 v 0 c 0.2547,-1.9125 -0.39663,-2.868 -1.00391,-4.2636 -0.28953,-0.6665 -0.28518,-1.1402 -0.21484,-1.5274 0.0703,-0.3871 0.23437,-0.6728 0.23437,-1.0234 0,-0.1963 -0.0641,-0.3975 -0.14844,-0.6387 -0.0843,-0.2412 -0.19332,-0.5075 -0.30273,-0.7578 -0.21882,-0.5005 -0.4375,-0.9375 -0.4375,-0.9375 l -0.0254,-0.049 -0.043,-0.035 c 0,0 -0.42662,-0.3351 -0.92969,-0.7773 -0.50306,-0.4423 -1.08482,-1.0004 -1.36523,-1.3926 l -0.52539,-0.8516 c 0.0839,-0.1025 0.30226,-0.3724 0.64453,-0.7753 0.20081,-0.2364 0.41448,-0.4813 0.59766,-0.6836 0.18317,-0.2024 0.34745,-0.3677 0.40625,-0.4141 0.14526,-0.1147 0.71398,-0.4706 1.28906,-1.0117 0.57508,-0.5412 1.18379,-1.2925 1.47851,-2.2754 0.56533,-1.8844 0.93555,-4.5483 0.93555,-5.7129 0,-1.096 0.0978,-4.0511 -1.8457,-6.8945 -0.95421,-1.3959 -2.17214,-2.9946 -3.32813,-4.377 -1.15598,-1.3824 -2.23595,-2.5418 -2.97461,-3.084 -1.34189,-0.9839 -4.04101,-3.6738 -4.04101,-3.6738 z m 5.08984,130.5312 c 0.0445,0.01 0.10986,0.043 0.11914,0.043 0.009,0 0.009,0.01 -0.0566,-0.012 -0.0164,-0.01 -0.0634,-0.032 -0.0625,-0.031 z m -10.22656,4.0352 c 0.006,0 0.005,0 0.0137,0.01 0.025,0.012 0.0576,0.04 0.0547,0.037 -0.002,0 -0.0394,-0.025 -0.0684,-0.043 z"
   id="path1284" />
				<path
   style="fill:#dde7c1"
   d="m 725.22656,1608.4531 -15.52344,13.8262 c -0.31299,-0.056 -0.58494,-0.088 -0.77343,0 -0.22753,0.1086 -0.32492,0.2927 -0.42774,0.4335 -0.10282,0.1409 -0.21297,0.2742 -0.46875,0.4082 -0.25578,0.1341 -0.66318,0.2615 -1.33593,0.3321 -1.32771,0.1392 -1.81409,-0.2508 -2.2754,-0.5215 -0.23065,-0.1354 -0.50265,-0.2634 -0.81054,-0.1777 -0.3079,0.086 -0.58283,0.3297 -0.96485,0.7871 -0.7524,0.9008 -1.02632,1.4542 -1.24023,2.0859 -0.21391,0.6317 -0.37548,1.3311 -0.95508,2.6426 -0.57337,1.2974 -0.9498,1.5643 -1.38476,1.8418 -0.43497,0.2774 -0.96456,0.5764 -1.56836,1.7207 -0.57956,1.0973 -0.84454,1.3932 -1.12891,1.7109 -0.28437,0.3178 -0.5906,0.6612 -1.15234,1.7285 -0.51357,0.9763 -1.26593,1.1809 -1.94922,1.5313 -0.34165,0.1752 -0.67328,0.3977 -0.86914,0.7832 -0.19586,0.3855 -0.24147,0.8974 -0.11133,1.6211 0.25185,1.4006 0.54711,2.4167 0.59766,3.2988 0.0505,0.8822 -0.11828,1.6334 -0.82032,2.6152 -0.73302,1.0258 -1.26743,1.8746 -1.70117,2.2403 -0.21687,0.1828 -0.37647,0.2417 -0.54883,0.2148 -0.15318,-0.024 -0.37115,-0.1832 -0.62109,-0.4414 0.0363,-0.1069 0.0819,-0.1733 0.0703,-0.3945 -0.0179,-0.3429 -0.21266,-0.7828 -0.74414,-1.0488 v 0 c -0.92247,-0.4607 -2.09995,-1.0832 -3.38086,-0.916 -0.46435,0.061 -1.01855,-0.2608 -1.52734,-0.6582 -0.2544,-0.1987 -0.49549,-0.4089 -0.71485,-0.582 -0.21935,-0.1731 -0.40065,-0.3225 -0.64453,-0.3633 -0.3613,-0.061 -0.94323,0 -1.50781,0.1308 -0.28229,0.067 -0.55285,0.1529 -0.77734,0.2715 -0.2245,0.1186 -0.43112,0.273 -0.48243,0.5371 -0.0492,0.2526 -0.17064,0.6506 -0.26757,1.0782 -0.0969,0.4275 -0.17448,0.8877 -0.1211,1.3125 0.0501,0.4075 0.16195,0.6103 0.19532,0.8281 0.0334,0.2178 0.0186,0.515 -0.19922,1.1914 -0.46003,1.4211 -0.45573,2.4087 -1.17188,3.7519 -0.35771,0.6719 -0.73597,1.1411 -1.05859,1.5332 -0.32262,0.3922 -0.60415,0.7073 -0.71875,1.1075 -0.17578,0.6147 -1.09715,3.3793 -1.10352,3.3984 -0.0143,0.027 -0.73372,1.372 -1.375,2.5625 -0.31262,0.5808 -0.69506,1.0974 -1.04297,1.4453 -0.17395,0.174 -0.33907,0.3045 -0.47265,0.3809 -0.13358,0.076 -0.22841,0.086 -0.25,0.082 h -0.002 c -0.28297,-0.055 -0.66294,-0.047 -0.99414,-0.033 -0.33119,0.014 -0.60351,0.041 -0.60351,0.041 l -0.0703,0.01 -1.05079,0.7812 0.29883,0.4024 0.9375,-0.6973 c 0.0519,0 0.22997,-0.021 0.50977,-0.033 0.3173,-0.013 0.69988,-0.01 0.8789,0.025 h -0.002 c 0.2099,0.042 0.40541,-0.028 0.5957,-0.1367 0.1903,-0.1088 0.38208,-0.2668 0.57813,-0.4629 0.3921,-0.3921 0.79648,-0.9393 1.13086,-1.5605 0.64836,-1.2037 1.38867,-2.5918 1.38867,-2.5918 l 0.01,-0.018 0.006,-0.021 c 0,0 0.91967,-2.7545 1.11328,-3.4316 0.0704,-0.2458 0.29816,-0.5329 0.62304,-0.9278 0.32489,-0.3948 0.73395,-0.899 1.11524,-1.6152 0.76385,-1.4327 0.7671,-2.4791 1.20508,-3.832 0.22918,-0.7117 0.26688,-1.1077 0.21875,-1.4219 -0.0481,-0.3142 -0.15248,-0.48 -0.19336,-0.8125 v 0 c -0.0396,-0.3153 0.0215,-0.7338 0.11328,-1.1387 0.0918,-0.405 0.21077,-0.7924 0.26953,-1.0938 0.003,-0.014 0.0623,-0.1026 0.22656,-0.1894 0.16429,-0.087 0.40287,-0.1682 0.6582,-0.2285 0.51068,-0.1208 1.11686,-0.1555 1.31055,-0.1231 0.0336,0.01 0.21272,0.1013 0.41602,0.2617 0.2033,0.1605 0.44807,0.3722 0.71679,0.5821 0.53746,0.4198 1.18474,0.8551 1.90039,0.7617 1.0791,-0.1408 2.16622,0.4059 3.09375,0.8691 0.39143,0.1967 0.45796,0.4205 0.46875,0.627 0.0108,0.2069 -0.0644,0.373 -0.0644,0.373 l -0.0684,0.1485 0.10742,0.123 c 0.33496,0.3783 0.65337,0.6064 0.99805,0.6602 0.34468,0.054 0.66851,-0.091 0.94727,-0.3262 0.55751,-0.4701 1.06317,-1.3218 1.78515,-2.332 0.75297,-1.0532 0.96757,-1.9658 0.91211,-2.9336 -0.0554,-0.9679 -0.35637,-1.9869 -0.60351,-3.3614 -0.11936,-0.6637 -0.064,-1.0538 0.0644,-1.3066 0.12842,-0.2528 0.34437,-0.4046 0.65234,-0.5625 0.61596,-0.3159 1.56763,-0.6104 2.16407,-1.7441 0.54825,-1.0417 0.7959,-1.3092 1.08203,-1.6289 0.28613,-0.3198 0.60678,-0.6889 1.19922,-1.8106 0.56819,-1.0768 0.93354,-1.2404 1.39257,-1.5332 0.45904,-0.2928 0.97559,-0.704 1.57422,-2.0586 0.5924,-1.3405 0.77057,-2.0888 0.97266,-2.6855 0.20209,-0.5968 0.42084,-1.0527 1.14844,-1.9239 0.35798,-0.4286 0.5911,-0.5919 0.71679,-0.6269 0.1257,-0.035 0.21316,0 0.42188,0.125 0.41745,0.245 1.13473,0.7416 2.58203,0.5898 0.71424,-0.075 1.1839,-0.2148 1.51562,-0.3886 0.33173,-0.1738 0.518,-0.3894 0.63868,-0.5547 0.12068,-0.1654 0.17276,-0.2452 0.24023,-0.2774 0.0675,-0.032 0.22561,-0.056 0.60352,0.033 l 0.12695,0.029 15.68359,-13.9687 z"
   id="path1285" />
				<path
   style="fill:#dde7c1"
   d="m 720.09766,1583.8945 -0.48829,0.1094 5.55274,24.7695 14.17969,13.8575 2.12304,2.5117 0.0469,0.023 c 0,0 1.42392,0.7039 2.9043,1.4844 0.74018,0.3902 1.49583,0.7986 2.08984,1.1465 0.29701,0.1739 0.55367,0.3339 0.74609,0.4648 0.19242,0.1309 0.32673,0.2527 0.33789,0.2676 0.17846,0.2387 0.1786,0.484 0.12696,0.7598 -0.0516,0.2757 -0.17774,0.529 -0.17774,0.8183 0,-0.037 -1.7e-4,0 -0.0312,0.061 -0.0311,0.056 -0.0837,0.1318 -0.14844,0.2168 -0.12949,0.1698 -0.31053,0.3753 -0.49218,0.5683 -0.36331,0.386 -0.72852,0.7285 -0.72852,0.7285 l -0.043,0.041 -0.68554,1.8632 0.18554,2.8086 c -2.3e-4,0.01 -0.009,0.2834 -0.125,0.5821 -0.11738,0.3017 -0.31067,0.5803 -0.70703,0.6543 -0.45169,0.084 -0.84906,0.019 -1.35937,0.031 -0.51032,0.012 -1.11389,0.1177 -1.90039,0.5508 -1.51019,0.8331 -2.36131,1.3022 -3.12696,1.9726 -0.31219,0.2726 -1.04857,0.6219 -1.67773,1.0704 -0.31458,0.2242 -0.60858,0.4772 -0.81445,0.791 -0.20588,0.3137 -0.31514,0.6973 -0.24219,1.1152 v 0 c 0.12928,0.7352 0.37911,1.4811 0.46679,2.1191 0.0877,0.638 0.0323,1.1143 -0.39843,1.4629 -0.56916,0.4616 -1.16582,1.324 -1.64649,2.084 -0.48066,0.76 -0.83008,1.414 -0.83008,1.414 l -0.0488,0.09 1.13867,4.0156 0.52539,1.7129 0.50391,1.0293 c 0.30037,0.782 0.38663,1.1345 0.47851,1.502 0.0925,0.3698 0.19217,0.7598 0.50391,1.5703 0.32003,0.8323 0.5544,0.9252 0.61133,1.039 0.0569,0.1139 0.11132,0.5393 0.11132,2.2012 0,1.6614 -0.0294,2.143 -0.0449,2.5176 -0.0156,0.3746 -0.0167,0.6391 0.0449,1.8125 0.0614,1.1694 0.0615,1.4311 0.0469,1.666 -0.0146,0.2349 -0.0469,0.4739 -0.0469,1.5273 0,1.0142 -0.20443,1.5154 -0.31445,1.9942 -0.055,0.2394 -0.0848,0.4851 -0.0254,0.75 0.0594,0.2649 0.19973,0.5345 0.44531,0.8594 0.41344,0.5469 0.39896,1.0927 0.2793,1.6972 -0.11966,0.6045 -0.36766,1.2312 -0.32813,1.8672 0.0398,0.6483 0.41506,1.061 0.60352,1.4629 0.18846,0.4019 0.2713,0.7921 -0.17578,1.6074 -0.46151,0.8417 -0.86547,1.2791 -1.12891,1.6992 -0.13172,0.2101 -0.22914,0.4281 -0.24804,0.6758 -0.0189,0.2478 0.0404,0.5066 0.17382,0.8067 0.26433,0.5951 0.62499,0.9871 0.91602,1.375 0.29103,0.3878 0.52203,0.7652 0.60742,1.3945 0.0951,0.6972 0.21867,0.9636 0.33008,1.2461 0.1114,0.2825 0.22574,0.6136 0.34766,1.5879 0.0599,0.4783 0.0498,0.7548 0.0195,0.9258 -0.0303,0.1709 -0.0761,0.2411 -0.13672,0.371 -0.0606,0.13 -0.1205,0.3169 -0.10938,0.5743 0.0111,0.2573 0.0776,0.5952 0.23438,1.1289 0.31037,1.0548 0.47413,1.4515 0.66015,1.7558 0.18603,0.3044 0.35443,0.4664 0.7168,1.1309 0.19506,0.3574 0.33144,0.5362 0.52149,0.6289 0.0451,0.022 0.0927,0.01 0.14257,0.014 0.0117,0.1173 0.0228,0.2466 0.0469,0.6093 0.059,0.8876 -0.0613,2.1821 -0.13867,3.3125 -0.0387,0.5653 -0.0668,1.0913 -0.0527,1.5196 0.007,0.2141 0.0249,0.4029 0.0606,0.5683 0.0357,0.1654 0.0825,0.313 0.20312,0.4336 0.083,0.083 0.35192,0.4325 0.66211,0.8692 0.3102,0.4366 0.6812,0.9767 1.03516,1.5 0.70257,1.0385 1.3341,2.0009 1.34375,2.0156 0.009,0.021 0.33242,0.7656 0.66602,1.5664 0.16911,0.406 0.33927,0.8217 0.46484,1.1504 0.0628,0.1644 0.11352,0.3075 0.14844,0.4141 0.0349,0.1066 0.0469,0.2113 0.0469,0.1523 0,0.1328 0.0327,0.1909 0.0742,0.3086 0.0415,0.1177 0.0988,0.2615 0.16992,0.4258 0.14228,0.3286 0.33849,0.7351 0.5586,1.1386 0.2201,0.4036 0.46233,0.8025 0.70703,1.1192 0.2447,0.3167 0.46417,0.5774 0.79687,0.6328 0.0263,0 0.14884,0.051 0.29492,0.1367 0.14609,0.086 0.32475,0.2072 0.52149,0.3516 0.39347,0.2888 0.8577,0.6691 1.29883,1.0449 0.88226,0.7517 1.67383,1.4883 1.67382,1.4883 l 0.3418,-0.3653 c 0,0 -0.79867,-0.7433 -1.6914,-1.5039 -0.44637,-0.3803 -0.91565,-0.765 -1.32618,-1.0664 -0.20526,-0.1506 -0.39531,-0.2812 -0.56445,-0.3808 -0.16914,-0.1 -0.30863,-0.1729 -0.4668,-0.1992 -0.0368,-0.01 -0.26446,-0.1613 -0.48242,-0.4434 -0.21795,-0.2821 -0.45399,-0.664 -0.66601,-1.0527 -0.21203,-0.3888 -0.40148,-0.7864 -0.53711,-1.0996 -0.0678,-0.1567 -0.12252,-0.2915 -0.15821,-0.3926 -0.0357,-0.1012 -0.0449,-0.2017 -0.0449,-0.1426 0,-0.1327 -0.031,-0.1887 -0.0703,-0.3086 -0.0393,-0.1199 -0.0938,-0.2688 -0.1582,-0.4375 -0.12887,-0.3374 -0.29861,-0.7537 -0.46875,-1.1621 -0.34028,-0.8169 -0.68164,-1.5957 -0.68164,-1.5957 l -0.008,-0.019 -0.0117,-0.018 c 0,0 -0.64708,-0.989 -1.35742,-2.0391 -0.35517,-0.525 -0.72693,-1.0657 -1.04101,-1.5078 -0.31409,-0.4421 -0.55331,-0.7698 -0.7168,-0.9336 -0.003,0 -0.0429,-0.067 -0.0684,-0.1855 -0.0255,-0.1183 -0.0424,-0.2842 -0.0488,-0.4805 -0.0129,-0.3926 0.0125,-0.9086 0.0508,-1.4688 0.0767,-1.1202 0.20267,-2.4164 0.13868,-3.3789 -0.0308,-0.4627 -0.0419,-0.6839 -0.0645,-0.8242 -0.006,-0.035 -0.0126,-0.065 -0.0273,-0.1054 -0.0147,-0.04 -0.0391,-0.1126 -0.14063,-0.1622 -0.1015,-0.05 -0.21043,-0.014 -0.25,0.01 -0.007,0 -0.006,0 -0.0117,0.01 -0.0187,-0.016 -0.11567,-0.09 -0.27539,-0.3828 -0.37762,-0.6925 -0.57724,-0.8998 -0.73046,-1.1504 -0.15323,-0.2507 -0.29885,-0.5946 -0.60547,-1.6368 -0.15124,-0.5148 -0.20681,-0.8237 -0.21485,-1.0097 -0.008,-0.186 0.0152,-0.2385 0.0625,-0.3399 0.0473,-0.1013 0.13299,-0.2547 0.17578,-0.4961 0.0428,-0.2414 0.048,-0.566 -0.0156,-1.0742 -0.12509,-0.9997 -0.25736,-1.4077 -0.37695,-1.7109 -0.1196,-0.3033 -0.21084,-0.4691 -0.30079,-1.1289 -0.0986,-0.7267 -0.3924,-1.2128 -0.70312,-1.627 -0.31072,-0.4141 -0.6307,-0.7624 -0.85938,-1.2773 v 0 c -0.11311,-0.2544 -0.14359,-0.425 -0.13281,-0.5664 0.0108,-0.1413 0.0638,-0.2718 0.17383,-0.4472 0.22006,-0.351 0.65905,-0.8393 1.14453,-1.7246 0.49992,-0.9117 0.41829,-1.5685 0.1875,-2.0606 -0.23079,-0.4921 -0.52839,-0.8186 -0.55664,-1.2793 -0.0295,-0.474 0.18972,-1.0805 0.32031,-1.7402 0.13059,-0.6598 0.14747,-1.4097 -0.37109,-2.0957 -0.22042,-0.2916 -0.31721,-0.4994 -0.35547,-0.67 -0.0383,-0.1705 -0.0243,-0.3176 0.0234,-0.5253 0.0955,-0.4155 0.32812,-1.0236 0.32812,-2.1075 0,-1.0436 0.0308,-1.2379 0.0469,-1.4961 0.0161,-0.2581 0.0147,-0.551 -0.0469,-1.7246 -0.0614,-1.1696 -0.062,-1.3982 -0.0469,-1.7636 0.0152,-0.3654 0.0469,-0.8715 0.0469,-2.5391 0,-1.6681 -0.005,-2.1057 -0.16406,-2.4238 -0.15907,-0.3182 -0.29583,-0.2264 -0.5918,-0.9961 -0.30526,-0.7936 -0.39187,-1.1419 -0.48437,-1.5117 -0.0925,-0.3699 -0.19217,-0.7604 -0.50391,-1.5704 l -0.004,-0.01 -0.49414,-1.0156 -0.51172,-1.668 -1.08008,-3.8125 c 0.0386,-0.072 0.32234,-0.601 0.76367,-1.2988 0.47008,-0.7433 1.08122,-1.5916 1.53906,-1.9629 h -0.002 c 0.59727,-0.4834 0.67765,-1.21 0.58008,-1.92 -0.0976,-0.7099 -0.35099,-1.4578 -0.4707,-2.1386 -0.0506,-0.2896 0.0152,-0.5211 0.16796,-0.7539 0.15279,-0.2329 0.40046,-0.4556 0.6875,-0.6602 0.5741,-0.4092 1.28704,-0.7261 1.71485,-1.0996 0.71435,-0.6255 1.52924,-1.0792 3.03906,-1.9121 0.7245,-0.3989 1.21619,-0.4774 1.67188,-0.4883 0.45568,-0.011 0.89414,0.061 1.43945,-0.041 0.60064,-0.1121 0.92771,-0.5731 1.08008,-0.9648 0.15236,-0.3918 0.16211,-0.752 0.16211,-0.752 v -0.012 l -0.18164,-2.7344 0.61132,-1.6582 c 0.0424,-0.04 0.35187,-0.3298 0.70508,-0.7051 0.18835,-0.2001 0.37738,-0.4113 0.52539,-0.6054 0.074,-0.097 0.13764,-0.1891 0.1875,-0.2793 0.0499,-0.09 0.0937,-0.1731 0.0937,-0.3028 0,-0.082 0.10607,-0.3856 0.16992,-0.7265 0.0639,-0.341 0.0648,-0.7731 -0.21875,-1.1524 -0.10433,-0.1393 -0.24902,-0.2394 -0.45703,-0.3808 -0.208,-0.1415 -0.47258,-0.3052 -0.77539,-0.4825 -0.60561,-0.3546 -1.3636,-0.766 -2.10742,-1.1582 -1.46263,-0.7711 -2.82036,-1.4416 -2.86719,-1.4648 l -2.07422,-2.4531 -14.09179,-13.7696 z"
   id="path1286" />
				<path
   style="fill:#dde7c1"
   d="m 797.4668,1601.2813 -0.17969,0.4667 c 0,0 0.28552,0.1119 0.5293,0.2833 0.12189,0.086 0.22927,0.1871 0.28125,0.2714 0.052,0.084 0.0603,0.1278 0.0293,0.2051 -0.0844,0.2108 -0.27383,0.2978 -0.51562,0.4277 -0.1209,0.065 -0.2533,0.1371 -0.36133,0.2735 -0.10803,0.1363 -0.1595,0.3417 -0.11914,0.5488 0.0715,0.37 0.25794,0.6823 0.31836,0.9219 0.0302,0.1198 0.0312,0.2096 0.006,0.2871 -0.0254,0.078 -0.08,0.1622 -0.23047,0.2637 -0.1339,0.09 -0.12211,0.06 -0.13672,0.051 -0.0146,-0.01 -0.0596,-0.065 -0.0977,-0.1348 -0.01,-0.017 -0.0189,-0.034 -0.0332,-0.057 -0.0143,-0.023 -0.0189,-0.055 -0.10351,-0.1054 -0.0106,-0.01 -0.0227,-0.012 -0.0371,-0.018 -0.0144,-0.01 -0.0481,-0.015 -0.0488,-0.016 -10e-4,-3e-4 -0.12174,0.01 -0.12305,0.01 -6.6e-4,2e-4 -0.0386,0.014 -0.0547,0.023 -0.0161,0.01 -0.0295,0.019 -0.041,0.029 -0.023,0.02 -0.0381,0.038 -0.0488,0.055 -0.0429,0.065 -0.0419,0.096 -0.0488,0.1289 -0.0276,0.1324 -0.0374,0.3141 -0.0684,0.7149 -0.0625,0.8151 -0.0316,1.2711 0,1.5722 0.0316,0.3012 0.0568,0.4031 0.006,0.6074 -0.0389,0.1557 -0.0331,0.313 0.043,0.4258 0.0761,0.1128 0.13755,0.1351 0.12305,0.1192 -0.0145,-0.016 -0.0161,-0.073 -0.0254,-0.01 -0.009,0.067 -0.052,0.22 -0.16211,0.4727 -0.10521,0.24 -0.17417,0.3397 -0.19532,0.3652 -0.0496,0.013 -0.10822,0.035 -0.14062,0.07 -0.0817,0.09 -0.0712,0.133 -0.0801,0.1797 -0.0177,0.093 -0.0315,0.2247 -0.0625,0.502 -0.0302,0.2724 0.004,0.4391 0.0527,0.5761 -0.15271,0.078 -0.39906,0.2095 -0.79883,0.459 h -0.002 c -0.3966,0.2479 -0.60737,0.3639 -0.70507,0.4082 -0.0361,0.016 -0.0379,0.015 -0.0391,0.016 -0.008,0 -0.007,0 -0.0156,0 -0.0553,0 -0.10365,0.012 -0.13281,0.025 -0.0583,0.026 -0.0822,0.049 -0.13086,0.086 -0.0974,0.074 -0.26427,0.2127 -0.60352,0.4902 -0.62506,0.5112 -1.11343,0.5118 -1.50976,0.5391 -0.19817,0.014 -0.41336,0.011 -0.58204,0.1992 -0.0843,0.094 -0.12436,0.2209 -0.13281,0.3457 -0.008,0.1248 0.008,0.2589 0.041,0.4219 0.12774,0.624 0.2745,0.8972 0.28906,0.9726 0.007,0.038 0.0129,0.029 -0.0234,0.1055 -0.0364,0.077 -0.12197,0.2132 -0.26562,0.4277 -0.32766,0.4889 -0.33701,0.9448 -0.38477,1.0977 -0.0239,0.076 -1.7e-4,0.054 -0.0488,0.068 -0.0486,0.014 -0.21331,0.021 -0.50586,-0.037 -0.29174,-0.058 -0.44788,-0.1224 -0.5332,-0.1758 -0.0853,-0.053 -0.11367,-0.094 -0.17187,-0.1816 -0.1164,-0.1744 -0.32601,-0.4793 -0.97852,-0.7402 -0.58977,-0.2359 -0.8636,-0.4726 -1.21484,-0.5899 -0.17562,-0.059 -0.37895,-0.07 -0.58203,-0.01 -0.20309,0.064 -0.40859,0.1878 -0.66602,0.3808 -0.20519,0.154 -0.2838,0.1978 -0.32422,0.2207 -0.0256,4e-4 -0.0717,0 -0.0723,0 -7.4e-4,10e-5 -0.0417,0.01 -0.0547,0.016 -0.10351,0.045 -0.0882,0.059 -0.12305,0.092 -0.0697,0.065 -0.191,0.1871 -0.4375,0.4336 -0.52302,0.5225 -0.70491,0.9832 -0.8164,1.334 -0.1115,0.3507 -0.14734,0.5447 -0.39649,0.7441 -0.30162,0.2414 -0.80549,0.6137 -1.13281,1.0274 -0.16366,0.2068 -0.29799,0.4308 -0.29492,0.6972 0.003,0.2664 0.18928,0.5193 0.48632,0.668 0.23907,0.1195 0.39728,0.2171 0.46875,0.2793 0.0715,0.062 0.0422,0.039 0.0449,0.023 0.003,-0.015 -0.0244,0.049 -0.12305,0.1426 -0.0987,0.093 -0.25236,0.2154 -0.43945,0.3711 -0.29416,0.2453 -0.50959,0.1587 -0.89258,0.1895 -0.1915,0.015 -0.41912,0.076 -0.61914,0.248 -0.20003,0.1721 -0.37017,0.4362 -0.53321,0.8418 -0.31088,0.7729 -0.49969,1.3155 -0.70703,1.6582 -0.20734,0.3427 -0.40026,0.4988 -0.8457,0.6035 -0.16287,0.038 -0.26156,-0.01 -0.41406,-0.1328 -0.1525,-0.1272 -0.32095,-0.3389 -0.51367,-0.5566 -0.19273,-0.2178 -0.41603,-0.445 -0.72071,-0.5762 -0.30468,-0.1312 -0.68458,-0.143 -1.10351,0.031 -1.47607,0.6158 -2.22045,0.8906 -2.97266,1.252 -0.4154,0.1993 -0.57407,0.4305 -0.76953,0.582 -0.19546,0.1516 -0.47399,0.2936 -1.25195,0.3985 -0.75221,0.1013 -1.17616,-0.059 -1.55469,-0.1797 -0.18927,-0.061 -0.37442,-0.1202 -0.58789,-0.098 -0.21347,0.023 -0.4233,0.1445 -0.60352,0.3516 v 0 c -0.23527,0.2731 -1.07693,0.7881 -1.9414,1.2989 -0.8285,0.4895 -1.65677,0.9935 -2.15235,1.4941 h -0.002 l -1.67383,0.6563 -2.03125,-1.0684 -4.60547,-2.4785 -2.46875,0.3886 c -0.0267,0 -0.54255,-0.024 -1.15039,-0.037 -0.62333,-0.014 -1.28051,-0.025 -1.61328,0.031 v 0 h -0.002 c -3.5e-4,10e-5 -0.24198,-0.033 -0.51367,-0.1386 -0.2717,-0.106 -0.60305,-0.2629 -0.92969,-0.4278 -0.65329,-0.3298 -1.26282,-0.6819 -1.4961,-0.789 -0.19502,-0.09 -1.22823,-0.5513 -2.25781,-1.0078 -0.51479,-0.2283 -1.02648,-0.4541 -1.42773,-0.6289 -0.20063,-0.087 -0.37348,-0.1627 -0.50586,-0.2188 -0.13238,-0.056 -0.21156,-0.091 -0.27344,-0.1113 -0.0997,-0.033 -0.25604,-0.07 -0.46484,-0.1172 -0.20881,-0.047 -0.45766,-0.1011 -0.69922,-0.1524 -0.48313,-0.1024 -0.93164,-0.1933 -0.93164,-0.1933 l -2.89453,-0.7363 -0.12305,0.4843 2.91211,0.7422 h 0.006 c 0,0 0.44541,0.091 0.92578,0.1934 0.24019,0.051 0.49068,0.1038 0.69531,0.1504 0.20463,0.047 0.3767,0.09 0.41602,0.1035 0.008,0 0.10667,0.043 0.23633,0.098 0.12965,0.055 0.3022,0.1278 0.50195,0.2149 0.3995,0.1741 0.90962,0.4009 1.42383,0.6289 1.02842,0.456 2.07698,0.925 2.25195,1.0059 0.13673,0.063 0.81201,0.4437 1.48047,0.7812 0.33423,0.1687 0.67451,0.3291 0.97266,0.4453 0.29814,0.1162 0.52405,0.2125 0.7832,0.166 0.18835,-0.032 0.89975,-0.039 1.51562,-0.025 0.61667,0.014 1.16993,0.039 1.16993,0.039 h 0.0254 l 2.3457,-0.3711 4.46094,2.4004 2.23632,1.1758 1.93946,-0.7598 0.0391,-0.041 c 0.37959,-0.4099 1.27053,-0.9593 2.13281,-1.4688 0.86228,-0.5094 1.68569,-0.9604 2.06641,-1.4023 0.12829,-0.1474 0.19602,-0.1733 0.27539,-0.1816 0.0794,-0.01 0.20416,0.019 0.38477,0.076 0.36121,0.1154 0.92164,0.314 1.77343,0.1993 0.82504,-0.1112 1.2249,-0.2928 1.49219,-0.5 0.26729,-0.2073 0.35509,-0.3697 0.67969,-0.5254 0.72579,-0.3487 1.46533,-0.624 2.94726,-1.2422 0.32157,-0.1338 0.52603,-0.1145 0.71485,-0.033 0.18882,0.081 0.36764,0.247 0.54492,0.4472 0.17728,0.2003 0.34891,0.43 0.56641,0.6114 0.2175,0.1813 0.51898,0.3121 0.8496,0.2343 0.54157,-0.1273 0.90305,-0.4083 1.15821,-0.83 0.25516,-0.4218 0.43607,-0.9694 0.74219,-1.7305 0.14546,-0.3619 0.28416,-0.5538 0.39648,-0.6504 0.11232,-0.097 0.2016,-0.1183 0.33398,-0.1289 0.26477,-0.021 0.72604,0.069 1.17188,-0.3027 0.18291,-0.1523 0.33813,-0.2764 0.46289,-0.3946 0.12476,-0.1182 0.23799,-0.2295 0.27148,-0.414 0.0335,-0.1845 -0.0724,-0.3715 -0.20898,-0.4903 -0.13658,-0.1188 -0.31833,-0.2226 -0.57227,-0.3496 -0.19645,-0.098 -0.21009,-0.1535 -0.21093,-0.2265 -8.4e-4,-0.073 0.0563,-0.2176 0.18554,-0.3809 0.25843,-0.3266 0.74031,-0.6957 1.05469,-0.9473 0.36685,-0.2936 0.45629,-0.6544 0.56055,-0.9824 0.10425,-0.328 0.22938,-0.6693 0.69336,-1.1328 0.23287,-0.2329 0.34409,-0.343 0.40234,-0.3984 0.0192,-0.01 0.0611,0.01 0.0762,0 0.10953,-0.048 0.22865,-0.1294 0.48047,-0.3184 0.23607,-0.177 0.40259,-0.2689 0.51563,-0.3047 0.11304,-0.036 0.17156,-0.03 0.27343,0 0.20376,0.068 0.54428,0.3229 1.1875,0.5801 0.5805,0.2321 0.6194,0.3591 0.75,0.5547 0.0653,0.098 0.16083,0.2252 0.32227,0.3262 0.16144,0.1009 0.37447,0.1771 0.69922,0.2422 0.32396,0.065 0.54361,0.086 0.74414,0.027 0.20053,-0.059 0.33834,-0.2436 0.38672,-0.3984 0.0967,-0.3097 0.069,-0.5937 0.32031,-0.9688 0.14534,-0.217 0.23937,-0.3583 0.30273,-0.4922 0.0634,-0.1339 0.0892,-0.2861 0.0645,-0.414 -0.0494,-0.256 -0.17293,-0.4021 -0.29102,-0.9805 -0.0283,-0.1378 -0.0367,-0.2348 -0.0332,-0.2871 0.004,-0.052 0.0112,-0.051 0.006,-0.045 -0.0107,0.012 0.0589,-0.022 0.24609,-0.035 0.37441,-0.026 1.06008,-0.053 1.79102,-0.6504 0.33925,-0.2775 0.50991,-0.4175 0.58984,-0.4785 0.0133,-0.01 0.003,0 0.0117,-0.01 0.0104,0 0.0164,0.01 0.0254,0 0.063,-0.01 0.11304,-0.028 0.18359,-0.061 0.14111,-0.064 0.36073,-0.1864 0.76563,-0.4395 0.39539,-0.2467 0.63406,-0.3735 0.77539,-0.4453 0.0707,-0.036 0.1145,-0.058 0.15625,-0.08 0.0209,-0.011 0.0425,-0.02 0.0762,-0.049 0.0337,-0.029 0.0974,-0.1056 0.0977,-0.2051 3e-4,-0.099 -0.0422,-0.1483 -0.0586,-0.1699 -0.0164,-0.022 -0.0228,-0.028 -0.0273,-0.033 -0.009,-0.011 -0.0116,-0.013 -0.0195,-0.031 -0.0158,-0.036 -0.0472,-0.1394 -0.0195,-0.3887 0.0258,-0.2308 0.0374,-0.3236 0.0469,-0.3887 0.0343,-0.022 0.0732,-0.039 0.0996,-0.068 0.0922,-0.1016 0.17166,-0.2433 0.29102,-0.5157 0.1189,-0.2728 0.18003,-0.4537 0.20117,-0.6054 0.0211,-0.1518 -0.0234,-0.3127 -0.10156,-0.3985 -0.0781,-0.086 -0.10096,-0.098 -0.0781,-0.064 0.0228,0.034 0.007,0.067 0.0293,-0.024 0.0721,-0.2896 0.0358,-0.4964 0.006,-0.7812 -0.0299,-0.2849 -0.0605,-0.6916 0,-1.4805 0.0117,-0.1512 0.0148,-0.147 0.0234,-0.2461 0.17083,0.069 0.39264,0.081 0.59961,-0.059 0.21658,-0.146 0.36343,-0.325 0.42773,-0.5215 0.0643,-0.1964 0.0456,-0.3913 0.002,-0.5644 -0.0873,-0.3462 -0.26302,-0.6505 -0.31054,-0.8965 -0.0197,-0.1008 -0.009,-0.1094 0.0176,-0.1426 0.0263,-0.033 0.10026,-0.086 0.20899,-0.1445 0.21746,-0.1168 0.57957,-0.2754 0.74219,-0.6816 0.0925,-0.2307 0.0406,-0.4775 -0.0684,-0.6543 -0.109,-0.1769 -0.26544,-0.3094 -0.41992,-0.418 -0.30897,-0.2172 -0.63672,-0.3398 -0.63672,-0.3398 z m -1.21094,8.6621 c -0.003,4e-4 -0.007,0 -0.01,0 -0.0451,0 -0.056,0 -0.0508,0 0.004,8e-4 0.0415,0 0.0606,0 z m -1.97656,2.2129 c 0.004,0 0.0582,0.01 0.0996,0.012 -0.009,8e-4 -0.0112,0 -0.0215,0 -0.0468,0 -0.082,-0.017 -0.0781,-0.016 z m -8.62696,3.4257 c 0,0 0.002,0.027 0.004,0.043 -0.003,-0.014 -0.003,-0.023 -0.004,-0.029 -9.9e-4,-0.013 0,-0.016 0,-0.014 z m 0.0195,0.088 c 0.01,0.03 0.0431,0.063 0.0742,0.098 -2.5e-4,-10e-5 -0.004,0 -0.004,0 3.7e-4,3e-4 -0.0667,-0.084 -0.0664,-0.084 5e-5,10e-5 -0.003,-0.01 -0.004,-0.012 z"
   id="path1287" />
				<path
   style="fill:#dde7c1"
   d="m 557.00195,1599.1152 -0.21875,0.4512 c 0,0 0.45162,0.2196 0.98047,0.5098 0.52886,0.2902 1.14054,0.6616 1.40625,0.9062 0.0997,0.092 0.25687,0.3438 0.41211,0.6719 0.15524,0.3281 0.32001,0.7334 0.49805,1.1562 0.35607,0.8458 0.75028,1.7581 1.30273,2.3106 0.56529,0.5647 1.54051,0.9039 2.41016,1.1211 0.43482,0.1086 0.84249,0.1815 1.1582,0.2207 0.15786,0.02 0.29147,0.031 0.40039,0.033 0.0545,0 0.10358,9e-4 0.15039,0 0.0468,0 0.0856,0 0.17578,-0.059 -0.0644,0.043 -0.0709,0.03 -0.0625,0.029 0.008,-6e-4 0.0337,0 0.0684,0 0.0694,0 0.176,0.02 0.30469,0.045 0.25738,0.049 0.60593,0.1363 0.98633,0.2578 0.7608,0.2431 1.65189,0.629 2.21484,1.086 1.25101,1.0135 2.40921,1.3992 3.64649,1.7714 0.68767,0.207 1.59303,0.1658 2.46289,0.1036 0.86986,-0.062 1.71198,-0.1472 2.14062,-0.094 0.86736,0.1081 1.83276,0.9099 2.42188,1.6836 0.32542,0.4272 0.61671,0.7193 0.65429,0.8438 0.0188,0.062 0.0244,0.076 -0.0469,0.1699 -0.0713,0.094 -0.24175,0.2391 -0.53711,0.416 -0.54764,0.3289 -0.89547,0.2125 -1.32617,0.1953 -0.21535,-0.01 -0.46602,0.018 -0.6875,0.1816 -0.22148,0.1642 -0.39377,0.4336 -0.55664,0.8575 -0.61301,1.5936 -1.35701,3.2028 -1.98047,5.1953 -0.3206,1.0252 -0.41216,2.1743 -0.60156,3.1562 -0.1894,0.9819 -0.47179,1.76 -1.08008,2.1309 -1.42114,0.8655 -3.36002,2.1033 -4.49805,2.9101 -1.15177,0.8184 -2.26758,1.9375 -2.26758,1.9375 l -0.10937,0.1094 0.0488,0.1446 c 0,0 0.24541,0.7459 0.58593,1.6015 0.34053,0.8557 0.75422,1.8087 1.1836,2.3067 0.18162,0.2103 0.29546,0.3628 0.35156,0.4707 0.0561,0.1079 0.0631,0.1612 0.0527,0.2461 -0.0207,0.1697 -0.19726,0.4941 -0.44726,1.125 -0.22263,0.5625 -0.49534,0.6269 -0.64649,1 -0.0756,0.1865 -0.0505,0.4144 0.0586,0.666 0.10912,0.2515 0.30086,0.5663 0.61328,1.0332 1.27508,1.9054 2.99524,2.8297 4.33594,3.1347 0.65065,0.1481 1.30672,0.2528 1.85351,0.2657 0.2734,0.01 0.51911,-0.01 0.73242,-0.061 0.21332,-0.052 0.41165,-0.142 0.53125,-0.3281 0.23989,-0.3733 0.50192,-0.5731 1.07032,-0.6875 0.17824,-0.035 0.33386,-0.092 0.45703,-0.1289 0.12317,-0.037 0.20934,-0.045 0.22851,-0.041 0.0192,0 0.0174,-0.017 0.0547,0.084 0.0373,0.1014 0.0723,0.3144 0.0723,0.6523 0,0.6748 -0.14521,0.8626 -0.0723,1.2031 0.0365,0.1703 0.13692,0.3157 0.29297,0.4864 0.15605,0.1706 0.37994,0.3825 0.71875,0.705 1.35475,1.2899 2.34006,2.3115 3.44141,2.586 0.56002,0.1401 1.32031,0.1006 2.13867,-0.074 0.81836,-0.1748 1.68939,-0.4895 2.42969,-0.9394 0.67992,-0.4132 2.08789,-1.0653 3.31054,-1.6035 1.22265,-0.5383 2.26758,-0.9688 2.26758,-0.9688 l 0.0391,-0.017 0.0312,-0.027 c 0,0 0.52883,-0.4663 1.15039,-1.0723 0.62157,-0.6059 1.33362,-1.3432 1.72852,-1.9355 0.12159,-0.1824 0.44854,-0.355 0.92383,-0.4434 0.47528,-0.088 1.07974,-0.1014 1.70703,-0.049 1.25458,0.1051 2.61312,0.4872 3.24609,0.9277 1.38171,0.9608 1.95895,1.9032 2.1875,2.5879 0.10371,0.3107 0.0758,0.6705 0.17969,1.1035 0.1039,0.4331 0.3718,0.9073 1.02539,1.3653 1.20706,0.8458 2.11328,1.8435 2.11328,2.8437 0,0.5031 -0.22125,1.0785 -0.42578,1.6602 -0.20453,0.5817 -0.4016,1.1837 -0.22656,1.7754 0.13957,0.4717 0.33938,1.3944 0.6289,2.25 0.14477,0.4277 0.31165,0.8408 0.51563,1.1855 0.20398,0.3447 0.44425,0.6322 0.77344,0.7657 0.54694,0.2216 1.07225,0.2119 1.55078,0.1562 0.47853,-0.056 0.9179,-0.1523 1.32812,-0.1387 0.40544,0.014 1.3735,0.1726 2.24805,0.461 0.43727,0.1442 0.85623,0.3213 1.17383,0.5195 0.3176,0.1982 0.52282,0.416 0.58594,0.6055 0.31993,0.9598 -0.15462,3.0976 1.94531,5.6308 1.02924,1.2417 1.79762,2.0169 2.53711,2.4356 0.73949,0.4186 1.45996,0.4473 2.24219,0.2031 1.52872,-0.4769 2.55164,-1.3037 3.30468,-2.0293 0.32653,-0.3142 0.4875,-0.3073 0.78321,-0.2617 0.2957,0.046 0.70648,0.1839 1.27343,0.125 l -0.0508,-0.4981 c -0.46204,0.048 -0.78244,-0.065 -1.14648,-0.1211 -0.36404,-0.056 -0.79161,0 -1.20508,0.3965 -0.72696,0.7005 -1.67609,1.465 -3.10938,1.9121 -0.69777,0.2179 -1.21044,0.1995 -1.8457,-0.1601 -0.63526,-0.3596 -1.38268,-1.095 -2.39844,-2.3203 -1.99007,-2.4008 -1.43735,-4.2105 -1.85742,-5.4707 -0.12188,-0.366 -0.42515,-0.6404 -0.79492,-0.8711 -0.36977,-0.2308 -0.81707,-0.4179 -1.2793,-0.5703 -0.92445,-0.3049 -1.89006,-0.4698 -2.39062,-0.4864 -0.49478,-0.016 -0.95738,0.089 -1.40235,0.1407 -0.44496,0.052 -0.86462,0.057 -1.30468,-0.1211 -0.16431,-0.067 -0.35607,-0.2606 -0.53125,-0.5567 -0.17518,-0.296 -0.3343,-0.6829 -0.47266,-1.0918 -0.27672,-0.8177 -0.46866,-1.7152 -0.62109,-2.2304 -0.11696,-0.3954 0.0173,-0.9034 0.21679,-1.4707 0.19947,-0.5674 0.45508,-1.1823 0.45508,-1.8243 0,-1.2878 -1.06723,-2.3697 -2.32617,-3.2519 -0.5794,-0.406 -0.74507,-0.7343 -0.82617,-1.0723 -0.0811,-0.338 -0.0481,-0.7172 -0.19141,-1.1465 -0.26545,-0.7952 -0.9207,-1.8286 -2.375,-2.8398 -0.78503,-0.5464 -2.17031,-0.905 -3.49023,-1.0156 -0.65996,-0.055 -1.30152,-0.044 -1.8418,0.057 -0.54028,0.1005 -0.99964,0.2836 -1.24805,0.6563 -0.3451,0.5176 -1.05017,1.2589 -1.66211,1.8554 -0.59716,0.5822 -1.07927,1.0079 -1.10351,1.0293 -0.0369,0.015 -1.03156,0.4238 -2.23828,0.9551 -1.22885,0.541 -2.62711,1.185 -3.36719,1.6348 -0.6797,0.413 -1.50505,0.7147 -2.27344,0.8789 -0.76838,0.1641 -1.48708,0.1849 -1.91406,0.078 -0.87265,-0.2175 -1.85755,-1.1688 -3.2168,-2.4629 -0.33919,-0.3229 -0.56242,-0.5344 -0.69531,-0.6797 -0.13289,-0.1453 -0.16405,-0.2083 -0.17383,-0.2539 -0.0195,-0.091 0.084,-0.3664 0.084,-1.0996 0,-0.3671 -0.0291,-0.622 -0.10352,-0.8242 -0.0744,-0.2022 -0.23872,-0.3623 -0.41992,-0.4004 -0.1812,-0.038 -0.33181,0.01 -0.47461,0.051 -0.1428,0.043 -0.28185,0.091 -0.41211,0.1172 -0.6636,0.1335 -1.09842,0.4474 -1.39453,0.9082 -0.0144,0.022 -0.08,0.076 -0.22656,0.1113 -0.14653,0.036 -0.35754,0.053 -0.60352,0.047 -0.49195,-0.012 -1.12556,-0.109 -1.7539,-0.252 -1.2173,-0.277 -2.83229,-1.1331 -4.03321,-2.9277 -0.30658,-0.4582 -0.48517,-0.7614 -0.56836,-0.9531 -0.0832,-0.1918 -0.0729,-0.2325 -0.0547,-0.2774 0.0363,-0.09 0.38321,-0.3355 0.64843,-1.0039 v 0 c 0.23856,-0.6014 0.4353,-0.894 0.47852,-1.248 0.0216,-0.1773 -0.0153,-0.3637 -0.10547,-0.5371 -0.0901,-0.1734 -0.22514,-0.3453 -0.41602,-0.5664 -0.31562,-0.3661 -0.76342,-1.3242 -1.09765,-2.1641 -0.30109,-0.7566 -0.47759,-1.2925 -0.51953,-1.4179 0.10798,-0.1069 1.04409,-1.043 2.08593,-1.7832 1.11597,-0.7912 3.05785,-2.0302 4.47071,-2.8907 0.80871,-0.4931 1.11149,-1.441 1.30859,-2.4629 0.1971,-1.0218 0.29344,-2.1537 0.58984,-3.1015 0.61255,-1.9576 1.34777,-3.5517 1.96875,-5.166 0.14513,-0.3777 0.28058,-0.5562 0.38672,-0.6348 0.10615,-0.079 0.20095,-0.091 0.3711,-0.084 0.33989,0.014 0.91827,0.1417 1.60156,-0.2676 0.32164,-0.1926 0.5389,-0.3555 0.67969,-0.541 0.14079,-0.1855 0.18529,-0.424 0.12695,-0.6172 -0.11667,-0.3863 -0.44279,-0.6211 -0.73437,-1.0039 -0.64289,-0.8443 -1.65117,-1.7371 -2.75782,-1.875 -0.55835,-0.07 -1.38114,0.031 -2.23828,0.092 -0.85714,0.061 -1.73983,0.08 -2.28515,-0.084 -1.22873,-0.3697 -2.29162,-0.7232 -3.47461,-1.6816 -0.65305,-0.5301 -1.58051,-0.9194 -2.37696,-1.1738 -0.39822,-0.1273 -0.76189,-0.2176 -1.04492,-0.2715 -0.14151,-0.027 -0.26248,-0.046 -0.36328,-0.053 -0.0504,0 -0.0959,-0.01 -0.14258,0 -0.0466,0 -0.0917,0 -0.17773,0.057 0.0686,-0.046 0.0647,-0.027 0.0508,-0.025 -0.014,0 -0.0449,0 -0.0859,0 -0.0822,0 -0.20353,-0.011 -0.34961,-0.029 -0.29216,-0.036 -0.68493,-0.1074 -1.09961,-0.2109 -0.82935,-0.2071 -1.75602,-0.567 -2.17773,-0.9883 -0.43455,-0.4346 -0.84239,-1.3122 -1.19531,-2.1504 -0.17647,-0.4191 -0.34123,-0.8298 -0.50586,-1.1777 -0.16464,-0.348 -0.31656,-0.6324 -0.52539,-0.8243 -0.3513,-0.3234 -0.96301,-0.6797 -1.50391,-0.9765 -0.5409,-0.2968 -1.00391,-0.5235 -1.00391,-0.5235 z"
   id="path1288" />
			</g><rect
   style="fill:none;stroke:#000000;stroke-width:0.29998;stroke-linejoin:bevel;stroke-dasharray:none;paint-order:stroke fill markers"
   id="rect2"
   height="4390.293"
   x="0.19998971"
   y="0.19998971"
   ry="0.69917101"
   width="4353.8188" /></svg>
