<?xml version="1.0" encoding="UTF-8" standalone="no"?>
<!-- Generator: Adobe Illustrator 22.1.0, SVG Export Plug-In . SVG Version: 6.00 Build 0)  -->

<svg
   version="1.1"
   x="0px"
   y="0px"
   viewBox="0 0 4354.1187 4390.5933"
   enable-background="new 0 0 1995.865 2834.646"
   xml:space="preserve"
   id="svg1596"
   width="4354.1187"
   height="4390.5933"
   xmlns="http://www.w3.org/2000/svg"
   xmlns:svg="http://www.w3.org/2000/svg"><defs
   id="defs1596" />


<path
   id="Bedfordshire_1_"
   fill="#4B5A26"
   d="m 2667.1475,2831.0241 c -0.206,-0.103 -0.368,-0.184 -0.368,-0.184 l -0.739,0.494 v 1.603 c 0,0 -0.37,1.233 -0.617,1.604 -0.246,0.37 -1.727,0.74 -2.467,0.863 -0.74,0.124 -1.85,1.233 -1.85,1.604 0,0.371 -1.85,3.453 -1.85,3.453 l 2.713,5.797 -1.604,0.863 c 0,0 -3.083,0.863 -3.7,1.233 -0.616,0.37 -1.973,1.604 -1.973,2.097 0,0.493 -1.974,2.343 -1.974,2.343 l -1.85,0.124 v -3.083 c 0,0 0,0 -0.617,-1.48 -0.617,-1.48 -1.109,-0.247 -2.59,0.74 -1.48,0.986 -0.37,1.85 -1.11,3.206 -0.739,1.356 -1.973,0 -3.729,-0.493 -1.756,-0.493 -1.943,0.123 -3.67,0.493 -1.727,0.37 0.369,1.48 2.699,2.714 2.33,1.234 -0.109,1.727 -1.343,2.96 -1.234,1.233 -2.22,1.603 -3.083,1.356 -0.864,-0.247 -0.617,-2.097 -0.247,-3.083 0.37,-0.987 0.247,-2.22 -0.247,-2.96 -0.492,-0.74 -0.986,0.369 -1.425,2.097 -0.438,1.727 -1.288,3.823 -0.918,5.92 0.37,2.097 0.493,2.836 1.726,3.823 1.233,0.986 1.357,3.33 1.357,4.316 0,0.987 1.604,1.727 2.097,2.59 0.494,0.864 1.48,2.467 0.863,4.07 -0.616,1.604 0.37,2.467 0.74,3.7 0.37,1.233 0.863,1.974 0,2.466 -0.863,0.494 -1.604,1.357 -2.097,1.975 -0.494,0.616 -0.986,1.232 -1.974,1.109 -0.986,-0.123 -1.973,-1.356 -3.7,-2.96 -1.727,-1.604 -1.727,-0.987 -1.727,-0.987 h -1.356 -1.356 l -1.233,-0.123 c -1.604,-0.123 -1.604,-1.109 -2.344,-1.109 -0.739,0 -1.603,1.85 -1.603,1.85 0,0 0,0 -0.864,0.493 -0.863,0.493 -1.356,1.11 -1.726,1.356 -0.371,0.247 -0.987,1.851 -0.695,2.467 0.291,0.617 0,1.974 0,1.974 l -1.649,1.851 -2.344,0.616 -1.232,-1.727 c 0,0 0.173,-0.695 0.229,-0.919 l -0.535,-0.664 0.43,-0.268 v -0.272 -0.59 -2.098 l -2.713,-2.821 -1.11,-1.742 -1.356,-2.467 -4.07,-1.99 c 0,0 -4.687,-2.079 -4.695,-1.472 -0.01,0.607 -2.828,-2.211 -2.828,-2.211 0,0 -2.22,-0.247 -2.96,-0.37 -0.74,-0.124 -2.22,-2.96 -2.22,-2.96 l 1.604,-1.727 2.136,-5.797 c 0,0 2.674,-2.467 3.199,-4.317 0.526,-1.85 0,-4.869 0,-4.869 l -1.185,-3.146 c 0,0 0.906,-1.727 1.185,-1.963 0.279,-0.235 1.571,-2.23 1.571,-2.23 l 0.392,-3.896 -3.723,-2.271 c 0,0 1.11,-2.22 1.233,-2.96 0.123,-0.74 3.823,-3.823 5.057,-5.262 1.233,-1.438 2.714,-2.632 3.33,-4.852 0.617,-2.221 0.37,-2.344 0,-4.193 -0.37,-1.849 -2.22,-1.233 -3.577,-1.786 -1.356,-0.552 -1.85,-2.407 -1.85,-2.407 0,0 0.321,-2.482 0.268,-3.051 -0.054,-0.569 -0.566,-2.037 -0.157,-2.879 0.408,-0.842 0.507,-0.73 0.723,-1.441 0.216,-0.711 -0.216,-1.262 -0.216,-1.262 0,0 -2.344,-1.728 -3.577,-2.714 -0.533,-0.427 -1.044,-0.507 -1.601,-0.452 l 0.367,-0.016 c 0,0 -0.332,-0.643 0.574,-1.752 0.906,-1.11 2.756,-2.837 2.756,-3.947 0,-1.109 -0.74,-4.069 -0.986,-5.673 -0.247,-1.604 -1.604,-3.33 -0.123,-4.317 1.479,-0.986 5.443,-0.946 6.545,-0.967 1.102,-0.02 2.334,0 2.334,0 l 2.961,3.989 c 0,0 1.849,-0.658 2.713,-0.915 0.863,-0.257 1.108,-1.863 1.109,-3.083 0,-1.22 -2.59,-1.737 -1.109,-3.711 1.481,-1.974 1.343,-3.329 2.336,-4.069 0.994,-0.74 0.131,-2.59 2.104,-2.344 1.974,0.247 5.611,-0.208 5.611,-0.208 v -0.039 c 0,0.025 0,0.039 0,0.039 l 1.085,0.609 c 0,0 1.968,0.555 2.245,0.739 0.278,0.186 0.926,1.755 0.926,1.755 l 0.74,3.133 1.852,1.681 2.125,0.956 c 0,0 1.295,-0.062 1.48,0 0.185,0.062 1.606,0 1.606,0 0,0 0.911,2.255 0.728,1.846 -0.185,-0.408 -0.823,1.915 -0.823,1.915 v 3.885 l 1.079,3.053 h 1.665 1.713 l 2.542,-1.479 5.185,0.277 -2.278,2.96 c 0,0 -0.7,2.127 0,2.867 0.7,0.74 2.278,0.555 2.278,0.555 l 4.342,0.021 c 0,0 0.37,1.829 0.833,2.291 0.462,0.463 1.55,2.221 1.55,2.221 l -1.121,1.479 -1.262,1.388 c 0,0 1.621,1.019 2.383,1.48 0.763,0.462 1.965,0.342 1.965,1.42 0,1.077 -0.092,2.558 -0.647,3.112 -0.555,0.555 -0.555,1.11 0.74,0.925 1.295,-0.185 5.087,0.679 5.92,0.709 0.833,0.031 2.96,-0.4 3.792,0 0.833,0.401 0.938,4.057 0.84,4.311 -0.1,0.253 -2.038,9.166 -2.038,9.166 z"
   style="fill:#677821" /><rect
   style="fill:none;stroke:#000000;stroke-width:0.29998;stroke-linejoin:bevel;stroke-dasharray:none;paint-order:stroke fill markers"
   id="rect2"
   height="4390.293"
   x="0.19998971"
   y="0.19998971"
   ry="0.69917101"
   width="4353.8188" /></svg>
