<?xml version="1.0" encoding="UTF-8" standalone="no"?>
<!-- Generator: Adobe Illustrator 22.1.0, SVG Export Plug-In . SVG Version: 6.00 Build 0)  -->

<svg
   version="1.1"
   x="0px"
   y="0px"
   viewBox="0 0 4354.1187 4390.5933"
   enable-background="new 0 0 1995.865 2834.646"
   xml:space="preserve"
   id="svg1596"
   width="4354.1187"
   height="4390.5933"
   xmlns="http://www.w3.org/2000/svg"
   xmlns:svg="http://www.w3.org/2000/svg"><defs
   id="defs1596" />


<path
   id="Berkshire_1_"
   fill="#606F38"
   d="m 2583.2315,2993.8401 2.518,-2.556 2.824,-4.494 1.698,-0.549 2.514,-1.29 4.537,-2.406 5.693,-0.991 h 2.96 l 0.863,-3.02 v -4.564 -1.419 l 0.749,-1.479 c 0,0 1.841,-1.234 2.396,-2.098 0.555,-0.863 1.418,-2.22 1.418,-2.22 l 2.159,2.603 c 0,0 2.859,0.811 3.144,0.951 0.285,0.14 0,-1.826 0,-1.826 l 1.227,-0.886 0.038,0.222 c 0.052,-0.194 0.157,-0.421 0.339,-0.693 0.987,-1.479 1.974,-2.959 1.974,-3.576 0,-0.617 1.11,-2.221 1.357,-2.96 0.103,-0.308 0.312,-0.721 0.521,-1.161 l 0.138,-0.297 -4.365,-0.445 v -4.642 l -5.543,-0.211 0.493,-4.057 c 0,0 -0.944,-0.945 -1.706,0 -0.761,0.945 -1.254,-0.205 -2.98,0 -1.726,0.205 -3.812,-0.658 -3.88,-1.028 -0.067,-0.369 -2.533,1.028 -2.533,1.028 l -0.493,1.562 -0.708,2.495 v 2.068 l 2.064,1.064 c -0.281,0.722 -0.562,1.444 -0.843,2.165 0.113,-0.046 -1.145,0.607 -1.871,0.409 -1.018,-0.277 -3.237,-1.388 -3.515,-2.128 -0.277,-0.739 -0.093,-1.664 -0.925,-2.312 -0.832,-0.646 -2.035,-0.259 -2.312,-0.453 -0.277,-0.193 0,-0.656 0,-0.656 0,0 -0.802,0.185 -0.123,-2.22 0.678,-2.405 1.325,-4.903 1.604,-5.272 0.277,-0.37 0.277,-2.035 -0.186,-2.683 -0.463,-0.648 -2.127,-0.463 -2.405,-0.925 -0.277,-0.463 -0.185,-2.128 -0.832,-2.591 -0.647,-0.462 -0.833,-0.37 -1.758,0 -0.925,0.37 -2.035,2.128 -2.774,2.035 -0.74,-0.093 -2.961,-0.555 -3.33,-0.185 -0.37,0.37 -0.37,1.018 -0.648,1.942 -0.277,0.925 -1.664,1.665 -3.052,1.572 -1.388,-0.093 -2.591,0.277 -3.515,0.925 -0.926,0.647 -1.018,0.277 -1.758,0.277 -0.74,0 -0.555,-0.646 -1.48,-0.646 -0.925,0 -1.479,0.555 -1.572,-0.371 -0.093,-0.925 -0.093,-1.664 -1.11,-2.127 -1.017,-0.463 -1.757,-0.925 -2.22,0.186 -0.463,1.109 -1.202,2.959 -0.925,4.625 0.277,1.664 1.48,1.479 2.035,2.867 0,0 0.647,1.665 0.462,3.145 -0.185,1.48 0.093,2.128 -1.665,3.516 -1.757,1.387 -2.683,2.22 -2.867,2.774 -0.394,1.178 -3.12,3.599 -4.424,3.686 -0.558,-1.462 0.652,-2.413 0.448,-3.778 -0.24,-1.609 -1.68,-1.803 -3.052,-1.385 -1.138,0.348 -2.547,0.77 -3.534,1.45 -1.077,0.741 -0.699,1.669 -1.387,2.602 -0.123,0.067 -0.31,0.151 -0.447,0.21 -0.06,0.025 -1.646,0 -1.788,-0.032 -0.548,-0.13 -0.815,-0.586 -1.267,-0.904 -0.852,-0.6 -1.385,-0.545 -1.385,-1.755 0,-1.572 -1.85,-3.607 -3.053,-2.867 -1.202,0.739 -3.053,1.757 -4.255,1.109 -1.202,-0.648 -2.128,-2.867 -2.683,-3.699 -0.555,-0.833 -0.925,-1.573 -3.33,-1.296 0,0 -0.832,-1.295 -0.832,-2.497 l 0.555,-2.96 -0.217,-0.853 c 0,0 -2.373,0.575 -2.743,1.037 -0.37,0.463 -3.146,1.295 -3.885,1.295 -0.74,0 -1.85,-0.925 -1.85,-0.925 0,0 -3.145,0.463 -4.902,-0.185 -1.757,-0.648 -7.215,-4.348 -8.603,-4.625 -1.388,-0.277 -2.034,-1.48 -2.867,-0.926 -0.833,0.556 -0.185,2.775 -1.479,3.33 -1.295,0.556 -2.128,-0.925 -3.33,-0.832 -1.203,0.093 -1.666,1.758 -3.423,1.665 -1.758,-0.093 -5.458,0 -6.383,0.37 -0.925,0.37 -3.7,2.683 -4.718,2.404 -1.018,-0.277 -2.22,-2.682 -3.145,-3.237 -0.925,-0.555 -2.312,-0.462 -3.885,-0.647 -1.572,-0.185 -3.33,-1.018 -3.33,-1.018 0,0 -2.498,1.11 -2.683,1.388 -0.185,0.278 -1.479,2.128 -1.758,3.146 -0.277,1.018 -0.309,5.057 -0.309,5.057 0,0 -0.123,3.207 0.493,4.07 0.617,0.863 2.837,2.713 2.837,2.713 l 0.616,1.974 1.233,1.974 2.344,1.356 -0.124,1.974 -0.123,1.356 0.247,1.233 -3.577,0.74 -1.727,-0.74 -0.37,0.986 0.247,2.097 1.727,2.467 0.617,1.479 1.604,2.098 1.973,1.603 1.85,1.48 1.974,1.85 -0.246,1.851 0.986,1.85 v 1.85 l -0.986,1.851 c 0,0 -0.166,-0.096 -0.422,-0.243 l 0.422,0.243 c 0,0 -0.616,-0.126 1.849,0 2.467,0.126 5.427,-0.056 5.427,-0.056 l 1.85,-1.154 c 0,0 -0.616,-1.131 -0.863,-1.501 -0.246,-0.37 -0.123,-2.097 -0.123,-2.097 0,0 1.726,-0.617 1.974,-1.11 0.247,-0.493 0.739,-2.097 0.739,-2.097 h 2.344 1.109 7.771 c 0,0 2.837,0.617 3.577,0.617 0.74,0 6.043,-0.74 6.906,-0.617 0.863,0.123 4.688,-0.273 5.18,-0.014 0.494,0.26 2.344,1.124 2.961,1.247 0.616,0.123 4.317,1.109 4.255,1.233 -0.062,0.123 4.378,0 4.378,0 0,0 1.604,-2.551 1.974,-2.57 0.37,-0.019 2.466,-2.352 2.466,-2.352 l 1.851,-0.505 c 0,0 1.356,1.356 1.726,1.851 0.37,0.493 3.33,3.741 4.441,3.658 1.109,-0.082 5.18,-0.698 5.18,-0.698 h 2.22 l 4.193,-0.247 4.811,0.247 2.837,1.356 2.59,0.369 1.85,-0.246 2.097,0.246 1.356,0.124 1.85,0.37 1.357,1.233 2.097,1.356 1.479,0.616 c 0,0 0.328,0.528 0.835,1.343"
   style="fill:#677821" /><rect
   style="fill:none;stroke:#000000;stroke-width:0.29998;stroke-linejoin:bevel;stroke-dasharray:none;paint-order:stroke fill markers"
   id="rect2"
   height="4390.293"
   x="0.19998971"
   y="0.19998971"
   ry="0.69917101"
   width="4353.8188" /></svg>
