<?xml version="1.0" encoding="UTF-8" standalone="no"?>
<!-- Generator: Adobe Illustrator 22.1.0, SVG Export Plug-In . SVG Version: 6.00 Build 0)  -->

<svg
   version="1.1"
   x="0px"
   y="0px"
   viewBox="0 0 4354.1187 4390.5933"
   enable-background="new 0 0 1995.865 2834.646"
   xml:space="preserve"
   id="svg1596"
   width="4354.1187"
   height="4390.5933"
   xmlns="http://www.w3.org/2000/svg"
   xmlns:svg="http://www.w3.org/2000/svg"><defs
   id="defs1596" />


<path
   id="Bristol_1_"
   fill="#4B5A26"
   d="m 2322.5565,2956.4111 c 0.318,-0.401 0.67,-0.928 1.172,-1.682 1.11,-1.665 4.256,-7.771 4.811,-8.51 0.016,-0.021 0.029,-0.043 0.044,-0.068 l -0.044,0.068 1.631,1.402 -0.513,2.051 1.179,2.711 v 1.174 h 4.795 l 4.724,-0.295 v 1.685 c 0,0 2.635,1.905 2.929,2.271 0.293,0.367 1.978,0.587 1.978,0.587 l 4.762,1.025 -1.001,1.099 0.635,2.637 0.952,2.465 -1.318,2.135 -1.854,1.413 c 0,0 0.182,0.888 0.255,1.163 0.073,0.276 0.521,0.96 0.521,0.96 l 0.071,0.044 c -0.046,-0.028 -0.071,-0.044 -0.071,-0.044 l -0.124,3.206 c 0,0 -0.493,1.48 -0.862,1.851 -0.371,0.37 -1.357,0.616 -1.851,0.616 -0.494,0 -1.851,0.235 -2.097,0.92 -0.246,0.684 -0.511,0.809 -1.921,1.178 -1.409,0.369 -1.286,0.124 -4.122,0 -2.837,-0.124 -3.576,0.48 -3.453,-1.178 0.123,-1.659 -0.014,-2.77 -0.014,-2.77 l 0.63,-4.687 -0.124,-2.097 -0.818,-1.482 -1.049,-2.156 -1.57,-1.574 c 0,0 0.3,-0.24 0,-1.219 -0.301,-0.978 -0.659,-1.871 -1.372,-1.708 -0.713,0.163 -1.199,1.305 -1.974,1.233 -0.773,-0.072 -1.973,-1.728 -1.973,-1.728 l -2.861,-2.825"
   style="fill:#677821" /><rect
   style="fill:none;stroke:#000000;stroke-width:0.29998;stroke-linejoin:bevel;stroke-dasharray:none;paint-order:stroke fill markers"
   id="rect2"
   height="4390.293"
   x="0.19998971"
   y="0.19998971"
   ry="0.69917101"
   width="4353.8188" /></svg>
