<?xml version="1.0" encoding="UTF-8" standalone="no"?>
<!-- Generator: Adobe Illustrator 22.1.0, SVG Export Plug-In . SVG Version: 6.00 Build 0)  -->

<svg
   version="1.1"
   x="0px"
   y="0px"
   viewBox="0 0 4354.1187 4390.5933"
   enable-background="new 0 0 1995.865 2834.646"
   xml:space="preserve"
   id="svg1596"
   width="4354.1187"
   height="4390.5933"
   xmlns="http://www.w3.org/2000/svg"
   xmlns:svg="http://www.w3.org/2000/svg"><defs
   id="defs1596" />


<path
   id="Buckinghamshire_1_"
   fill="#8D9764"
   d="m 2615.8215,2889.5421 c -0.197,-0.275 -0.348,-0.487 -0.348,-0.487 l 0.246,-0.987 -1.604,-1.727 c 0,0 -0.74,-0.246 -1.109,-0.246 -0.371,0 -0.863,0.74 -1.48,1.232 -0.617,0.494 -1.11,1.975 -1.604,2.467 -0.493,0.494 -1.233,-0.492 -1.604,-0.739 -0.371,-0.247 -1.85,-0.247 -2.59,-0.617 -0.74,-0.37 -1.973,-0.246 -1.973,-0.246 l -2.838,1.356 c 0,0 -0.863,-0.74 -1.355,-0.863 -0.494,-0.123 -1.604,-1.604 -1.851,-2.467 -0.246,-0.863 -1.48,-2.22 -1.974,-2.836 -0.493,-0.617 0.124,-1.851 0.247,-2.591 0.123,-0.739 -0.617,-1.604 -1.356,-1.716 -0.74,-0.113 -1.233,0.482 -1.974,0.112 -0.741,-0.37 -1.11,0.247 -1.233,0.74 -0.123,0.493 -1.357,1.479 -1.85,1.851 -0.494,0.369 -0.863,0.246 -0.987,1.356 -0.123,1.11 0.74,1.973 0.987,2.467 0.246,0.493 1.232,2.343 1.604,2.22 0.369,-0.123 1.356,0 1.727,0 0.369,0 0.986,0.863 0.986,0.863 l 2.097,3.207 1.479,2.466 c 0,0 -0.246,1.11 0,2.467 0.247,1.357 1.48,2.344 2.714,3.454 1.233,1.109 2.097,1.356 4.137,1.973 2.041,0.617 2.77,0.37 4.497,0.74 1.727,0.37 1.727,1.48 1.727,1.48 0,0 1.356,0.986 3.206,1.85 1.851,0.863 0.123,0.863 -0.493,2.344 -0.616,1.479 -0.246,1.232 0.863,4.192 1.11,2.96 1.233,1.604 0.863,3.207 -0.37,1.604 0.247,1.479 1.974,1.851 1.727,0.369 1.727,0.246 3.083,0.863 1.357,0.616 0.247,1.356 0,1.85 -0.246,0.493 -2.101,1.109 -2.101,1.109 l -0.982,0.987 0.979,2.097 c 0,0 0.01,2.344 0,2.641 0,0 1.733,0.566 2.227,0.812 0.494,0.247 2.131,0.877 1.842,1.1 -0.289,0.223 -1.102,3.834 -0.854,4.82 0.247,0.987 1.233,2.713 1.603,3.823 0.37,1.11 0.493,4.81 0.247,5.673 -0.247,0.863 -0.863,3.577 -1.11,5.058 -0.247,1.479 0.123,5.427 0.616,5.897 0.494,0.472 0.247,2.119 0.247,2.982 0,0.488 -0.276,1.135 -0.561,1.738 l 0.109,-0.236 -4.365,-0.445 v -4.642 l -5.543,-0.211 0.493,-4.057 c 0,0 -0.944,-0.945 -1.706,0 -0.761,0.945 -1.254,-0.205 -2.98,0 -1.726,0.205 -3.812,-0.658 -3.88,-1.028 -0.067,-0.369 -2.533,1.028 -2.533,1.028 l -0.493,1.562 -0.708,2.495 v 2.068 l 2.064,1.064 c -0.281,0.722 -0.562,1.444 -0.843,2.165 0.113,-0.046 -1.145,0.607 -1.871,0.409 -1.018,-0.277 -3.237,-1.388 -3.515,-2.128 -0.277,-0.739 -0.093,-1.664 -0.925,-2.312 -0.832,-0.646 -2.035,-0.259 -2.312,-0.453 -0.277,-0.193 0,-0.656 0,-0.656 0,0 -0.802,0.185 -0.123,-2.22 0.678,-2.405 1.325,-4.903 1.604,-5.272 0.277,-0.37 0.277,-2.035 -0.186,-2.683 -0.463,-0.648 -2.127,-0.463 -2.405,-0.925 -0.277,-0.463 -0.185,-2.128 -0.832,-2.591 -0.647,-0.462 -0.833,-0.37 -1.758,0 -0.925,0.37 -2.035,2.128 -2.774,2.035 -0.74,-0.093 -2.961,-0.555 -3.33,-0.185 -0.37,0.37 -0.37,1.018 -0.648,1.942 -0.277,0.925 -1.664,1.665 -3.052,1.572 -1.388,-0.093 -2.591,0.277 -3.515,0.925 -0.926,0.647 -1.018,0.277 -1.758,0.277 -0.74,0 -0.555,-0.646 -1.48,-0.646 -0.925,0 -1.479,0.555 -1.572,-0.371 -0.093,-0.925 -0.093,-1.664 -1.11,-2.127 -1.017,-0.463 -1.757,-0.925 -2.22,0.186 -0.215,0.516 -0.49,1.191 -0.695,1.936 l 0.418,-0.117 c -0.616,-0.555 -2.097,-1.97 -2.467,-2.002 -0.369,-0.033 -1.232,-2.129 -2.096,-2.5 -0.864,-0.369 -1.891,-0.616 -1.192,-1.973 0.699,-1.357 1.192,-1.356 1.192,-1.356 0,0 1.855,-0.863 0.804,-1.974 -1.051,-1.109 -1.337,0.493 -1.996,-1.356 -0.658,-1.851 0.715,-1.19 -0.28,-2.877 -0.994,-1.687 -0.732,-2.057 0,-3.167 0.732,-1.109 1.473,-0.739 0.855,-1.973 -0.618,-1.234 -1.273,-1.727 -0.575,-2.344 0.698,-0.617 1.938,0.576 1.996,-0.514 0.06,-1.09 -0.215,-2.816 0.416,-3.434 0.63,-0.616 1,-0.493 1.863,0 0.863,0.494 -0.248,0.124 1.479,0.371 1.727,0.246 2.344,1.604 1.727,0.246 -0.616,-1.356 1.084,0.371 0.234,-0.493 -0.85,-0.863 -1.838,-0.863 -1.468,-1.604 0.37,-0.741 2.526,-0.74 1.448,-1.479 -1.078,-0.74 -2.188,-0.246 -1.448,-1.604 0.74,-1.358 0.617,-1.357 0.617,-2.097 0,-0.74 -0.494,-2.714 -0.617,-3.823 -0.123,-1.11 -0.504,-1.974 -1.547,-2.96 -1.043,-0.987 -1.031,-1.11 -2.455,-2.22 -1.424,-1.11 -2.657,-2.845 -3.645,-3.08 -0.987,-0.234 -2.717,-0.991 -3.864,-0.867 l -0.916,0.867 c 0,0 0.916,0.219 -0.528,0.293 -1.444,0.073 -4.056,-0.293 -4.056,-0.293 h -1.943 c 0,0 -0.207,1.779 -1.12,1.866 -0.913,0.088 -2.095,-0.317 -2.614,-0.643 -0.521,-0.326 -2.646,-1.224 -2.646,-1.224 0,0 -0.936,-1.854 -0.565,-2.348 0.369,-0.493 0.616,-2.466 0.616,-2.466 0,0 -3.083,-0.481 -3.823,-1.289 -0.74,-0.808 -1.119,-2.027 -1.119,-2.027 0,0 -0.854,-2.11 -0.607,-3.221 0.247,-1.11 0.475,-1.901 0.607,-2.122 0.132,-0.221 -3.074,-3.428 -3.074,-3.428 l 1.727,-2.344 2.714,1.11 c 0,0 1.974,2.126 3.206,1.741 1.233,-0.385 2.714,-0.139 3.33,-0.755 0.617,-0.616 -0.246,-2.312 -0.493,-2.944 -0.247,-0.632 -1.479,-3.839 -1.479,-3.839 l 0.74,-3.82 c 0,0 -0.987,-1.729 -1.728,-2.223 -0.739,-0.493 -1.233,-0.617 -0.863,-1.604 0.37,-0.987 -0.123,-2.097 0,-3.083 0.124,-0.987 -0.246,-0.52 0.493,-1.986 0.74,-1.467 0.123,-1.591 1.233,-2.084 1.11,-0.493 1.587,-1.346 1.587,-1.346 l 0.318,-0.939 0.319,-0.688 h -2.101 l -1.111,0.63 c 0,0 0.124,-1.48 -0.246,-1.851 -0.369,-0.37 -1.952,-1.356 -1.952,-1.356 l 4.419,-7.894 c 0,0 0.881,-1.688 0.731,-1.965 -0.151,-0.275 -1.594,-0.995 -1.594,-0.995 0,0 -1.344,0.78 -1.85,0.74 -0.506,-0.04 -1.604,-0.74 -1.604,-0.74 0,0 -0.246,-0.986 -0.123,-0.493 0.123,0.493 0.043,0.209 -0.596,0.043 -0.638,-0.166 -1.906,-1.177 -1.906,-1.177 l -2.267,-0.375 -0.904,-3.302 3.074,-1.973 c 0,0 1.859,-1.153 3.586,-2.242 1.727,-1.088 3.576,-2.444 4.811,-2.691 1.232,-0.247 1.139,-0.123 2.296,-0.74 1.157,-0.616 0.664,-1.974 2.267,-1.604 1.604,0.37 2.949,0.74 4.312,0.74 1.363,0 1.855,-1.784 3.459,-1.57 1.604,0.214 0.123,-1.143 1.604,0.214 1.479,1.356 0.946,1.727 1.645,3.7 0.698,1.973 0.698,4.055 1.315,4.679 0.616,0.624 3.386,3.482 3.386,3.482 l 1.054,-1.177 c 0,0 0.984,1.402 1.851,0.292 0.865,-1.11 0.986,-2.343 0.986,-2.343 0,0 -0.87,-2.678 0,-2.326 0.87,0.353 2.406,1.248 2.097,0.353 -0.31,-0.896 -1.715,-2.583 -1.025,-2.815 0.689,-0.233 1.299,0.562 2.382,-0.515 1.083,-1.076 1.233,-1.974 1.233,-1.974 v -1.727 c 0,0 -1.2,-1.12 -1.031,-1.979 0,0 -1.838,-0.647 -2.422,-1.342 -0.584,-0.695 -1.344,-2.658 -1.344,-2.658 l -1.452,-2.9 0.667,-2.076 4.551,-0.944 h 3.868 v -2.53 c 0,0 0.583,-0.863 1.093,-1.233 0.51,-0.37 1.127,-1.728 1.99,-1.48 0.863,0.247 1.623,-0.74 2.045,-1.479 0.422,-0.74 0.545,-1.033 2.025,-0.948 1.479,0.085 1.948,0.577 3.317,-0.779 1.369,-1.356 2.76,-2.343 3.606,-3.206 0.846,-0.863 1.832,-1.974 3.683,-2.097 1.851,-0.123 2.96,-0.987 4.193,0 1.233,0.986 3.577,2.714 3.577,2.714 0,0 0.432,0.551 0.216,1.262 -0.216,0.711 -0.314,0.6 -0.723,1.441 -0.409,0.842 0.104,2.31 0.157,2.879 0.054,0.568 -0.268,3.051 -0.268,3.051 0,0 0.493,1.855 1.85,2.407 1.357,0.553 3.207,-0.063 3.577,1.786 0.37,1.849 0.617,1.973 0,4.193 -0.616,2.22 -2.097,3.414 -3.33,4.852 -1.233,1.438 -4.934,4.521 -5.057,5.262 -0.123,0.741 -1.233,2.96 -1.233,2.96 l 3.723,2.271 -0.392,3.896 c 0,0 -1.292,1.995 -1.571,2.23 -0.278,0.236 -1.185,1.963 -1.185,1.963 l 1.185,3.146 c 0,0 0.526,3.02 0,4.869 -0.525,1.851 -3.199,4.317 -3.199,4.317 l -2.136,5.797 -1.604,1.727 c 0,0 1.479,2.836 2.22,2.96 0.74,0.123 2.96,0.37 2.96,0.37 0,0 2.818,2.818 2.828,2.211 0.01,-0.607 4.695,1.472 4.695,1.472 l 4.07,1.99 1.356,2.467 1.11,1.742 2.713,2.821 v 2.098 0.59 0.272 l -0.43,0.268 z"
   style="fill:#677821" /><rect
   style="fill:none;stroke:#000000;stroke-width:0.29998;stroke-linejoin:bevel;stroke-dasharray:none;paint-order:stroke fill markers"
   id="rect2"
   height="4390.293"
   x="0.19998971"
   y="0.19998971"
   ry="0.69917101"
   width="4353.8188" /></svg>
