<?xml version="1.0" encoding="UTF-8" standalone="no"?>
<!-- Generator: Adobe Illustrator 22.1.0, SVG Export Plug-In . SVG Version: 6.00 Build 0)  -->

<svg
   version="1.1"
   x="0px"
   y="0px"
   viewBox="0 0 4354.1187 4390.5933"
   enable-background="new 0 0 1995.865 2834.646"
   xml:space="preserve"
   id="svg1596"
   width="4354.1187"
   height="4390.5933"
   xmlns="http://www.w3.org/2000/svg"
   xmlns:svg="http://www.w3.org/2000/svg"><defs
   id="defs1596" />


<path
   id="Cambridgeshire_1_"
   fill="#6C833C"
   d="m 2746.8905,2753.0971 c 0,0 -0.967,-1.21 -0.812,-2.793 0.153,-1.582 0.153,-1.582 0.153,-1.582 l -1.768,-1.018 c 0,0 -2.758,-2.639 -3.06,-2.992 -0.303,-0.353 -1.929,-2.16 -1.929,-2.16 l -1.315,-2.75 -2.067,-1.8 -4.07,-1.942 c 0,0 -1.047,-0.37 -1.726,-0.648 -0.679,-0.277 -4.934,0.926 -4.934,0.926 l -1.458,0.192 c 0,0 -1.779,0.64 -2.149,0.732 -0.37,0.092 -1.573,-1.018 -1.665,-1.388 -0.093,-0.37 -1.572,-0.647 -2.035,-1.018 -0.463,-0.371 -1.098,-1.39 -0.733,-1.435 0.363,-0.045 2.214,-1.243 2.028,-1.338 -0.186,-0.095 -0.74,-0.026 -1.572,-0.431 -0.833,-0.404 -2.035,-0.845 -1.388,-1.411 0.647,-0.565 1.4,-1.213 0.932,-1.583 -0.47,-0.37 -1.024,-0.925 -0.654,-1.11 0.37,-0.185 -0.093,-0.486 -0.093,-0.486 l 0.093,-1.354 0.654,-0.018 v -1.102 c 0,0 -1.209,-0.092 -0.562,-0.555 0.647,-0.463 0.846,-1.295 0.562,-1.572 -0.284,-0.277 0,-0.833 0,-0.833 0,0 0,-1.245 0,-0.622 0,0.622 -1.579,-1.783 -1.579,-1.783 0,0 0.555,-0.449 0,-0.733 -0.555,-0.283 -1.295,-1.856 -1.295,-1.856 0,0 0,-1.109 0.555,-1.664 0.555,-0.556 1.203,-1.388 1.572,-1.851 0.37,-0.462 0.747,-1.388 0.747,-1.388 l -0.932,-1.295 -3.053,-3.422 c 0,0 -0.647,-3.516 -0.462,-3.793 0.185,-0.277 0.462,-3.33 0.462,-3.33 l -2.061,-2.94 -1.963,-0.577 0.255,-1.75 -0.115,-2.78 c 0,0 -0.038,-0.899 0.4,-1.836 0.438,-0.936 1.194,-3.153 1.194,-3.153 0,0 0.129,-0.875 0.193,-1.313 l -1.141,-0.577 c -0.554,0.041 -3.145,0 -3.145,0 0,0 -1.666,1.146 -2.405,1.516 -0.74,0.369 -2.405,1.202 -3.423,1.479 -1.018,0.277 -2.96,-0.832 -3.978,0 -1.018,0.833 -2.128,-0.465 -2.128,2.358 0,2.822 -0.277,4.765 0,5.412 0.278,0.647 0.237,2.363 0.237,2.363 l -3.645,3.483 -5.936,1.383 -0.598,-0.848 c 0,0 -1.344,-1.403 -1.899,-1.581 -0.555,-0.176 -0.739,-0.916 -1.757,-0.823 -1.018,0.092 -2.22,0.697 -3.146,0.765 -0.925,0.067 -2.774,0.025 -3.607,0 -0.832,-0.025 -3.445,1.403 -3.792,2.487 -0.347,1.084 -0.864,2.39 -0.864,2.39 l -4.964,-2.22 -0.931,-0.647 -1.752,1.658 -1.825,-2.723 -1.905,0.91 -4.502,1.744 c 0,0 -0.931,0.42 -1.778,-0.244 -0.847,-0.662 -2.353,-1.993 -2.353,-1.993 0,0 -0.771,-1.312 -1.234,-1.304 -0.462,0.01 -2.62,-0.269 -2.882,-0.546 -0.263,-0.277 -3.905,1.388 -3.905,1.388 l -5.029,2.758 -2.428,1.219 -5.259,-0.35 -1.698,-0.859 -1.861,-0.086 c 0,0 -4.002,1.727 -3.836,2.344 l 0.906,2.189 1.665,2.312 -0.647,2.867 -1.924,4.724 0.444,2.029 c 0,0 1.388,0.729 1.942,0.642 0.555,-0.087 3.311,0.01 3.311,0.01 l 2.424,-0.01 2.1,-1.1 -0.458,1.667 c 0,0 0.222,1.982 0.247,2.237 0.025,0.256 -0.258,0.842 -0.477,1.742 -0.219,0.9 -0.552,1.162 0.203,1.286 0.755,0.123 0.958,-0.347 1.376,0.616 0.417,0.963 1.078,2.22 1.078,2.22 0,0 -0.215,0.894 -0.709,1.11 -0.493,0.217 -0.853,0.166 -0.98,0.946 -0.129,0.78 1.689,2.785 3.447,3.247 1.758,0.463 4.348,1.511 4.348,1.511 l -0.093,2.375 0.185,1.788 1.723,3.904 v 1.02 l -2.092,2.723 -0.926,3.237 -0.184,1.927 c 0,0 -0.094,0.756 -0.371,0.571 -0.277,-0.186 -2.59,1.886 -2.96,2.053 -0.37,0.167 -2.958,1.832 -2.958,1.832 l -1.02,1.665 c 0,0 -0.647,1.963 -0.925,2.045 -0.278,0.082 -0.925,1.008 -1.295,1.47 -0.37,0.463 -2.868,1.11 -3.146,1.11 -0.278,0 -4.236,1.85 -4.236,1.85 0,0 0.01,1.841 -0.01,2.539 -0.014,0.699 1.004,1.994 1.744,3.012 0.739,1.018 1.665,2.034 1.85,2.774 0.185,0.74 0.185,3.184 0.185,3.184 l 1.085,0.609 c 0,0 1.968,0.555 2.245,0.739 0.278,0.186 0.926,1.755 0.926,1.755 l 0.74,3.133 1.852,1.681 2.125,0.956 c 0,0 1.295,-0.062 1.48,0 0.185,0.062 1.606,0 1.606,0 0,0 0.911,2.255 0.728,1.846 -0.185,-0.408 -0.823,1.915 -0.823,1.915 v 3.885 l 1.079,3.053 h 1.665 1.713 l 2.542,-1.479 5.185,0.277 -2.278,2.96 c 0,0 -0.7,2.127 0,2.867 0.7,0.74 2.278,0.555 2.278,0.555 l 4.342,0.021 c 0,0 0.37,1.829 0.833,2.291 0.462,0.463 1.55,2.221 1.55,2.221 l -1.121,1.479 -1.262,1.388 c 0,0 1.621,1.019 2.383,1.48 0.763,0.462 1.965,0.342 1.965,1.42 0,1.077 -0.092,2.558 -0.647,3.112 -0.555,0.555 -0.555,1.11 0.74,0.925 1.295,-0.185 5.087,0.679 5.92,0.709 0.833,0.031 2.96,-0.4 3.792,0 0.833,0.401 0.938,4.057 0.84,4.311 -0.1,0.253 -2.038,9.166 -2.038,9.166 l -0.405,-0.094 c 0.057,-0.038 0.093,-0.062 0.093,-0.062 l 1.233,0.617 c 0,0 -0.123,1.479 0,1.85 0.123,0.371 0,1.357 0,2.221 0,0.862 0.247,1.356 0.617,1.85 0.369,0.493 0.739,1.356 1.356,1.604 0.616,0.246 1.356,1.109 1.356,1.109 v 2.837 l 0.863,0.74 c 0,0 3.33,-2.837 3.947,-3.083 0.616,-0.247 2.713,-0.494 3.823,-1.48 1.109,-0.986 2.96,-2.714 2.96,-2.714 0,0 0.616,-1.356 1.356,-1.603 0.74,-0.247 1.727,-0.617 2.097,-0.123 0.37,0.492 1.11,0.863 1.604,1.603 0.493,0.74 1.109,1.11 2.22,1.11 1.111,0 3.453,-0.123 3.453,-0.123 0,0 0.617,1.109 1.11,2.836 0.493,1.727 1.356,3.946 1.973,5.18 0.541,1.082 1.651,1.5 1.667,2.336 l -0.063,-0.238 c -0.481,0.104 0.637,-0.868 0.895,-1.23 0.42,-0.592 0.606,-1.391 0.952,-1.98 0.862,-1.467 1.321,-2.454 1.731,-4.066 0.262,-1.029 0.355,-4.204 1.381,-4.785 1.198,-0.68 2.895,1.684 2.59,2.554 1.115,-0.499 3.703,-0.888 4.761,-0.124 0.277,-1.444 0.64,-1.194 1.758,-1.721 0.546,-0.258 0.472,0.146 0.826,-0.641 0.215,-0.477 0.108,-0.924 0.153,-1.45 0.166,-1.907 0.71,-3.431 1.998,-4.881 1.32,-0.124 2.709,0.173 4.021,0.325 0.179,0.021 3.683,0.931 2.885,1.584 1.107,-0.906 1.571,-1.879 3.06,-1.868 1.5,0.011 2.851,0.268 4.042,1.171 1.203,0.912 1.976,1.805 2.587,3.203 1.103,2.525 2.976,3.314 4.939,5.033 0.809,0.707 1.038,1.354 1.998,1.724 1.098,0.423 2.261,0.485 2,-0.747 -0.104,-0.486 -0.572,-0.829 -0.644,-1.351 -0.068,-0.51 0.179,-1.101 0.23,-1.585 -0.119,-0.031 -0.22,0 -0.338,-0.039 0.439,-1.541 1.67,-2.27 3.093,-2.689 l -0.272,0.244 c 0.412,-1.598 0.203,-4.157 -0.894,-5.52 -0.513,-0.636 -1.27,-0.731 -1.665,-1.538 -0.468,-0.954 -0.283,-2.143 0.12,-3.056 0.917,-2.075 2.607,-3.19 3.799,-5.054 0.422,-0.661 0.777,-1.582 0.854,-2.353 0.084,-0.855 -0.286,-1.751 -0.09,-2.707 0.069,-0.338 0.312,-1.141 0.616,-1.329 0.53,-0.329 0.7,0.202 1.209,0.099 1.205,-0.248 1.056,-1.241 1.816,-1.859 1.565,-1.27 3.167,2.116 4.845,1.489 2.443,-0.913 0.847,-3.22 0.859,-4.84 0.016,-2.051 2.038,-3.516 2.812,-5.273 0.465,-1.055 0.413,-3.603 -0.31,-4.601 -1.367,-1.889 -2.492,-0.333 -4.106,-0.576 -1.559,-0.234 -1.977,-2.541 -3.699,-2.473 -0.771,0.031 -0.947,0.589 -1.824,0.339 -1.227,-0.352 -1.305,-1.214 -2.557,-0.692 -1.031,0.429 -2.057,1.6 -2.924,2.299 -1.077,0.868 -2.17,2.086 -3.312,2.817 -0.558,-2.183 -3.21,-2.931 -4.411,-4.609 0.791,-0.56 2.716,-1.397 2.357,-2.53 -0.44,-1.397 -2.39,-1.507 -1.76,-3.423 0.216,-0.655 0.857,-1.03 1.137,-1.601 0.302,-0.616 0.423,-1.327 0.593,-1.971 0.161,-0.606 0.132,-1.616 0.71,-1.883 1.495,-0.688 4.185,3.427 5.177,4.254 1.354,1.13 2.17,3.399 3.661,4.258 1.596,0.919 3.33,-0.898 4.756,-1.451 1.258,-0.488 2.84,-0.407 3.968,-1.216 0.797,-0.572 0.588,-0.876 0.766,-1.535 0.09,-0.334 0.594,-1.398 0.576,-1.806 -0.048,-1.064 -1.166,-1.085 -1.732,-1.61 -0.577,-0.534 -0.782,-1.336 -1.481,-1.851 -0.585,-0.431 -1.312,-0.75 -1.854,-1.227 -0.593,-0.521 -0.906,-1.48 -1.623,-1.838 -0.689,-0.344 -2.129,-0.121 -2.917,-0.16 0.081,-1.803 -1.295,-2.615 -0.043,-3.952 0.654,-0.699 0.742,-0.542 0.888,-1.579 0.068,-0.483 0.347,-1.724 0.076,-2.135 -0.271,-0.414 -1.784,-0.826 -2.259,-1.162 -1.367,-0.967 -2.561,-2.336 -3.213,-3.888 -0.559,-1.324 -1.099,-2.538 -1.726,-3.823 -0.387,-0.79 -1.322,-2.375 -1.226,-3.299 0.108,-1.033 1.179,-1.543 1.914,-2.181 1.867,-1.615 3.475,-3.465 6.013,-3.908 -0.192,-0.562 -0.457,-0.856 -0.34,-1.32"
   style="fill:#677821" /><rect
   style="fill:none;stroke:#000000;stroke-width:0.29998;stroke-linejoin:bevel;stroke-dasharray:none;paint-order:stroke fill markers"
   id="rect2"
   height="4390.293"
   x="0.19998971"
   y="0.19998971"
   ry="0.69917101"
   width="4353.8188" /></svg>
