<?xml version="1.0" encoding="UTF-8" standalone="no"?>
<!-- Generator: Adobe Illustrator 22.1.0, SVG Export Plug-In . SVG Version: 6.00 Build 0)  -->

<svg
   version="1.1"
   x="0px"
   y="0px"
   viewBox="0 0 4354.1187 4390.5933"
   enable-background="new 0 0 1995.865 2834.646"
   xml:space="preserve"
   id="svg1596"
   width="4354.1187"
   height="4390.5933"
   xmlns="http://www.w3.org/2000/svg"
   xmlns:svg="http://www.w3.org/2000/svg"><defs
   id="defs1596" />


<path
   id="Cheshire_1_"
   fill="#606F38"
   d="m 2320.1085,2630.6761 2.996,-1.484 c 0,0 2.712,-3.075 3.61,-2.771 0.898,0.304 0.655,0.601 1.702,2.117 1.046,1.517 3.003,2.943 3.689,1.953 0.687,-0.991 3.794,-1.501 4.414,-1.299 0.62,0.202 1.685,0.321 2.216,2.997 0.532,2.676 1.271,4.711 2.382,4.525 1.109,-0.185 2.226,-0.925 2.226,-0.925 0,0 2.77,1.686 3.694,1.86 0.924,0.174 2.246,-2.415 2.246,-2.415 l 2.268,-1.295 1.345,1.295 c 0,0 1.898,0.925 2.553,0.739 0.653,-0.185 1.948,0 3.244,-0.739 1.295,-0.74 2.867,-3.046 2.867,-3.046 l 1.263,-2.997 3.056,-1.483 h 2.457 l 0.052,0.467 c -0.154,-1.425 -0.321,-2.683 -0.321,-2.683 l -0.247,-2.344 -0.123,-4.81 1.11,-2.96 2.851,-1.356 1.442,-0.617 2.49,-3.33 0.124,-1.973 c 0,0 1.602,-0.124 1.973,0 0.37,0.123 1.974,-0.056 1.974,-0.056 h 4.439 l 2.288,-2.049 5.112,-7.6 c 0,0 2.028,-2.03 2.062,-1.837 0.034,0.193 4.105,-1.465 4.105,-1.465 l 1.603,-2.228 0.74,-1.171 c 0,0 0.466,-2.592 0.788,-2.344 0.322,0.248 1.26,-0.884 1.26,-0.884 0,0 -0.074,-0.104 1.529,0.39 1.604,0.494 4.864,0.494 4.864,0.494 1.179,-0.494 2.048,-1.468 2.274,-2.039 0.225,-0.57 0.564,-1.523 1.494,-2.201 0.93,-0.678 1.452,-1.298 1.452,-1.298 0,0 0.702,0.886 1.345,0.858 0.644,-0.027 0.457,-0.274 1.358,-0.362 0.901,-0.089 2.516,0.626 2.516,0.626 l 3.812,-6.191 1.416,-1.603 c 0,0 0.128,0.203 0.322,0.511 l -0.322,-0.511 c 0,0 -3.513,-5.304 -3.759,-6.468 -0.247,-1.165 -1.357,-4.386 -1.48,-6.469 -0.123,-2.083 -0.986,-5.07 -1.152,-6.921 -0.166,-1.85 1.029,-2.343 0,-3.083 -1.028,-0.74 -0.205,-1.85 -0.807,-2.75 -0.603,-0.9 1.096,-2.06 0.807,-3.17 -0.289,-1.11 -0.755,-1.878 -1.353,-2.493 -0.494,-0.508 -1.66,-2.178 -1.704,-2.883 l 0.139,-0.298 c 0,0 -0.591,0.834 -1.59,1.096 -1,0.262 -0.902,3.345 -2.185,3.345 -1.283,0 -1.079,0.507 -2.599,-0.302 -1.521,-0.809 -3.418,-0.685 -3.518,-1.178 -0.1,-0.494 -4.566,-1.111 -4.121,-1.11 0.445,0 0.049,1.109 0,1.356 -0.049,0.247 -1.527,0.986 -1.527,0.986 -10e-4,0 0.246,2.961 -10e-4,3.7 -0.247,0.74 -2.271,2.904 -2.271,2.904 0,0 0.123,-0.139 -0.705,-0.324 -0.828,-0.185 -2.265,-0.904 -2.265,-0.904 0,0 -1.941,-0.111 -1.434,-0.894 0.507,-0.783 1.496,-0.779 1.434,-1.396 -0.062,-0.619 -0.802,-2.592 -2.405,-3.086 -1.604,-0.492 -3.699,-0.863 -4.871,-0.739 -1.173,0.123 -0.925,-0.247 -2.528,1.109 -1.604,1.357 -3.514,2.87 -4.07,2.716 -0.558,-0.155 -5.229,-3.704 -5.229,-3.704 0,0 -1.505,-1.15 -2.083,-1.202 -0.577,-0.053 -2.295,0.398 -3.542,0.341 -1.247,-0.058 -2.267,-0.585 -4.02,-2.362 -1.753,-1.777 -3.315,-2.413 -3.813,-2.675 -0.498,-0.262 -3.991,-1.331 -3.991,-1.331 l -1.401,-0.415 -1.204,-0.319 c 0,0 -0.19,0.319 -1.081,0.319 -0.892,0 -1.766,-0.319 -1.766,-0.319 0,0 2.285,-0.525 2.725,-1.002 0.438,-0.477 1.188,-1.086 1.85,-2.132 0.662,-1.047 1.727,-2.343 1.727,-2.343 0,0 -0.494,-1.234 -0.617,-1.604 -0.123,-0.37 -0.545,-1.038 -1.109,-2.097 -0.565,-1.059 -1.234,-0.968 -1.728,-2.087 -0.493,-1.12 -1.973,-3.073 -1.973,-3.073 l 0.892,-2.996 -1.766,-1.877 -6.691,2.88 v 1.356 h -3.1 l -0.195,2.467 -1.741,2.307 c 0,0 -0.824,-0.981 -1.67,-1.988 l 0.111,0.133 -0.641,2.263 c 0,0 0,0 -1.575,0.493 -1.575,0.493 -1.521,0.973 -2.247,0.123 -0.727,-0.849 -4.468,-2.861 -4.468,-2.861 l -2.625,-0.959 0.555,1.23 c 0,0 1.357,2.097 1.791,3.908 0.433,1.812 0.307,2.875 0,3.985 -0.307,1.109 -1.051,2.097 -1.109,2.827 -0.06,0.729 -0.188,2.229 -0.682,2.846 -0.492,0.616 -2.096,-0.74 -2.096,-0.74 l -3.689,-0.904 c 0,0 -3.465,1.521 -3.587,2.015 -0.123,0.493 -0.864,-0.123 -1.48,0 -0.616,0.123 -1.851,0.493 -2.22,1.851 -0.37,1.356 -0.617,1.973 -1.232,2.33 -0.616,0.358 -0.618,1.123 -1.111,1.616 -0.494,0.493 -3.274,3.762 -3.274,3.762 l -1.597,2.867 -0.254,0.12 c 0.093,-0.041 0.178,-0.082 0.254,-0.12 1.109,-0.555 1.665,0.278 2.127,0.463 0.463,0.185 1.018,0.832 1.758,1.202 0.74,0.37 1.48,0 2.22,-0.74 0.74,-0.739 0.647,-1.295 0.556,-2.312 -0.093,-1.018 0.462,-0.925 0.648,-1.757 0.185,-0.833 0.462,-0.74 1.109,-1.295 0.647,-0.556 1.758,0.093 3.146,0.185 1.387,0.093 1.109,-0.463 1.202,-1.295 0.093,-0.832 0.556,-0.463 1.202,-0.647 0.648,-0.185 0.926,-0.093 1.48,-0.555 0.555,-0.463 0.555,-0.37 1.388,-0.74 0.832,-0.37 0.925,0.833 1.757,0.74 0.476,-0.053 1.56,0.268 1.937,-0.01 0.122,-0.088 0.503,-1.483 0.499,-1.488 0.4,0.4 0.305,1.732 -0.084,2.191 -0.572,0.676 -2.843,0.556 -3.556,0.133 -0.462,-0.274 -1.108,0.371 -1.386,0.741 -0.278,0.37 -0.925,0.833 -1.295,1.202 -0.369,0.37 -0.925,0.833 -2.127,0.926 -1.203,0.092 -0.926,0.555 -1.665,0.185 -0.74,-0.37 -1.11,-0.093 -1.851,0.277 -0.741,0.37 -0.369,1.202 -0.369,1.851 0,0.646 -0.186,0.832 -0.093,1.942 0.093,1.109 0.37,0.739 1.202,1.109 0.832,0.37 0.925,1.573 0.555,1.665 -0.369,0.093 -1.295,0.463 -1.85,0.833 -0.555,0.37 -1.109,0.647 -1.388,1.295 -0.277,0.647 -0.277,1.11 -1.572,1.388 -1.295,0.278 -1.202,-0.37 -1.758,-0.556 -0.555,-0.185 -1.109,-0.462 -1.295,-0.832 -0.185,-0.37 -1.202,-0.556 -1.85,-0.833 -0.647,-0.277 -1.573,0.093 -2.868,-0.185 -1.295,-0.278 -1.109,0.647 -1.018,1.202 0.093,0.555 0.186,0.833 0.278,1.295 0.093,0.463 -0.74,0.37 -1.573,0.833 -0.832,0.462 -1.664,-0.093 -2.867,-0.463 -1.202,-0.37 -1.572,-0.647 -2.775,-1.202 -1.202,-0.555 -1.295,-0.555 -2.682,-1.295 -0.201,-0.107 -0.367,-0.197 -0.509,-0.275 l -1.372,0.252 -0.74,1.503 c 0,0 -0.885,-0.608 -1.406,-0.823 -0.521,-0.216 -1.182,-0.11 -2.17,-0.04 -0.988,0.071 -2.069,-0.22 -2.069,-0.22 0,0 -1.509,0.713 -2.001,0.898 -0.494,0.185 -4.07,0.185 -5.057,0 -0.986,-0.186 -1.48,-1.912 -1.85,-2.994 -0.37,-1.083 -1.604,-0.305 -1.604,-0.305 0,0 -2.96,1.017 -3.402,1.51 -0.442,0.494 -2.579,2.133 -2.264,2.723 l -0.182,-0.334 c 0.111,0.21 0.236,0.438 0.391,0.695 0.555,0.925 0.093,0.647 0,1.018 -0.093,0.371 0.647,0.463 1.48,0.647 0.833,0.184 0.278,0.555 0.771,0.986 0.493,0.433 0,0 0.926,0.37 0.924,0.37 0.246,0.493 0,0.679 -0.247,0.185 -1.049,-0.062 -1.358,0.247 -0.308,0.309 -0.184,0.862 -0.493,1.232 -0.309,0.37 -0.802,0.37 -1.604,0.555 -0.801,0.186 -0.802,0.433 -0.74,1.049 0.062,0.616 0.37,0.617 1.233,0.74 0.863,0.123 0.925,0.309 1.419,0.678 0.493,0.371 0.863,0.247 0.986,0.74 0.08,0.32 -0.151,0.354 -0.491,0.34 l 0.491,-0.34 3.946,0.062 c 0,0 4.07,0.986 4.688,1.356 0.616,0.37 3.206,2.312 3.206,2.312 l 1.974,1.389 c 0,0 2.467,2.22 2.96,3.083 0.493,0.863 2.343,2.097 2.96,2.96 0.617,0.863 0.493,2.344 0.986,2.467 0.493,0.123 0.74,0.986 1.13,2.041 0.39,1.056 -0.76,2.77 -0.76,2.77 0,0 -2.714,1.85 -3.207,1.85 -0.493,0 -2.837,1.604 -3.33,1.85 -0.493,0.247 -1.974,0.617 -1.974,0.617 0,0 0,0 0.617,0.369 0.617,0.37 0.986,0.617 1.604,0.863 0.617,0.247 0.863,1.48 1.233,1.727 0.37,0.247 0.616,1.357 1.604,1.975 0.986,0.616 2.466,1.355 2.836,2.337 0.37,0.981 0.74,-0.364 1.356,0 0.617,0.365 0.494,0.499 1.48,1.239 0.986,0.74 0.617,0.246 1.85,-0.74 1.233,-0.986 0.74,-0.246 1.728,0 0.986,0.246 0,0 0,1.356 0,1.356 -0.534,0.556 -1.062,1.222 -0.527,0.667 -0.172,0.998 0.031,2.107 0.203,1.109 -0.08,0.618 -0.562,1.162 -0.481,0.545 -0.259,0.566 -0.259,0.566 0,0 1.355,1.111 1.851,1.355 0.495,0.244 0.753,0.333 0.986,0.987 0.233,0.653 0,0 -0.341,0.993 -0.34,0.992 0,0 0.094,0.856 0,0 0.867,0.479 1.851,0.863 0,0 0.043,0.727 0.151,1.224 0.107,0.496 -0.128,0.38 -0.128,0.38 0,0 -0.249,0.661 0.128,1.233 0.377,0.572 0,0 0.351,0.429 0.351,0.429 -0.626,0.682 -0.872,1.421 -0.246,0.74 0,0 0.476,0.647 0.476,0.646 1.128,0.956 0.921,1.696 -0.207,0.74 -0.286,1.356 0,2.96 0.286,1.604 0.7,0.247 1.07,1.11 0.37,0.863 0.863,0.246 1.727,0.739 0.864,0.493 0.246,1.974 0.863,3.694 0.616,1.721 1.479,0.623 2.96,0.992 1.479,0.371 1.974,0 3.453,-0.616 1.48,-0.616 1.233,-0.37 2.467,0 1.234,0.37 0.74,0.863 2.599,1.604 1.859,0.741 0.608,0 1.102,0.74 0.2,0.301 0.381,0.602 0.549,0.895 z"
   style="fill:#677821" /><rect
   style="fill:none;stroke:#000000;stroke-width:0.29998;stroke-linejoin:bevel;stroke-dasharray:none;paint-order:stroke fill markers"
   id="rect2"
   height="4390.293"
   x="0.19998971"
   y="0.19998971"
   ry="0.69917101"
   width="4353.8188" /></svg>
