<?xml version="1.0" encoding="UTF-8" standalone="no"?>
<!-- Generator: Adobe Illustrator 22.1.0, SVG Export Plug-In . SVG Version: 6.00 Build 0)  -->

<svg
   version="1.1"
   x="0px"
   y="0px"
   viewBox="0 0 4354.1187 4390.5933"
   enable-background="new 0 0 1995.865 2834.646"
   xml:space="preserve"
   id="svg1596"
   width="4354.1187"
   height="4390.5933"
   xmlns="http://www.w3.org/2000/svg"
   xmlns:svg="http://www.w3.org/2000/svg"><defs
   id="defs1596" />


<path
   id="Cornwall_1_"
   fill="#303B09"
   d="m 2120.0435,3178.3931 c 0,0 -0.74,0 -0.986,0.617 -0.247,0.617 0.246,1.727 -0.863,1.356 -1.11,-0.37 -1.234,-1.85 0,-2.713 1.233,-0.863 2.22,-1.356 1.85,-1.851 -0.37,-0.492 0.774,-1.356 0.079,-2.22 -0.695,-0.862 -0.327,-2.097 0.229,-1.603 0.556,0.492 2.036,1.356 2.529,0.74 0.493,-0.617 0.493,-1.357 1.233,-1.357 0.74,0 1.11,-0.494 0.74,-0.986 -0.37,-0.494 -0.863,-0.863 -1.357,-0.617 -0.493,0.246 -0.37,0.74 -0.863,0.74 -0.493,0 -0.493,-2.097 -0.493,-2.097 0,0 -0.98,-0.37 -0.983,-0.987 0,-0.616 -0.121,-1.233 0,-1.85 0.12,-0.616 0,-0.986 0,-1.233 0,-0.247 -0.866,0 -1.36,0 -0.494,0 -2.252,0.274 -2.483,-0.109 -0.23,-0.384 -0.477,-1.001 -0.601,-1.617 -0.123,-0.616 -0.863,-1.233 -1.233,-0.74 -0.37,0.493 -1.233,1.604 -1.973,1.479 -0.74,-0.123 -0.617,-1.099 0,-1.658 0.617,-0.561 1.357,-1.301 0.617,-2.164 -0.74,-0.863 -1.85,-2.221 -1.973,-2.59 -0.123,-0.371 0,-1.48 0,-1.48 0,0 0.987,-1.357 0.617,-1.727 -0.37,-0.37 -1.48,0 -1.48,0 0,0 -1.233,-0.576 -1.479,-0.164 -0.247,0.41 -0.494,0.904 -1.11,0.904 -0.616,0 -0.986,-0.749 -1.11,-1.053 -0.123,-0.305 -0.493,-0.551 0,-1.537 0.494,-0.986 0.617,-1.604 0.494,-2.098 -0.123,-0.492 0.616,-1.109 0.493,-1.85 -0.123,-0.74 -0.247,-0.493 -0.37,-1.604 -0.123,-1.109 0.37,-0.617 0.617,-1.48 0.247,-0.862 0.124,-1.479 0.124,-1.479 0,0 -0.617,-0.863 -1.11,-1.11 -0.493,-0.246 -1.11,-0.492 -1.727,-0.616 -0.616,-0.123 -1.357,0.247 -1.481,-0.493 -0.123,-0.74 0,-1.85 0,-1.85 0,0 -0.74,-1.233 -0.863,-1.604 -0.123,-0.37 -0.616,-0.494 -0.986,-0.987 -0.37,-0.493 0,-4.687 0,-4.687 0,0 -0.37,-1.356 -0.986,-1.727 -0.617,-0.37 -1.357,-0.493 -1.727,-1.232 -0.37,-0.74 -0.247,-2.221 0,-2.838 0.247,-0.616 -0.343,-1.85 -0.233,-2.343 0.511,-2.29 -2.43,-4.19 -2.097,-6.456 0.193,-1.309 0.875,-3.062 -0.282,-4.131 -0.306,-0.283 -3,-1.065 -3.163,-0.491 -0.171,0.6 -0.558,1.241 -1.022,1.609 -0.746,-0.706 -1.961,-0.77 -2.822,-1.385 -1.34,-0.957 -1.569,-1.964 -3.167,-2.284 -0.847,-0.17 -2.762,-0.382 -2.829,-1.558 -0.075,-1.314 2.413,-2.214 3.264,-2.796 0.898,-0.614 2.443,-2.37 2.239,-3.599 -0.124,-0.74 -0.247,-1.974 -0.247,-2.837 0,-0.951 -0.405,-2.258 0.062,-3.143 0.22,-0.415 0.61,-0.383 0.853,-0.719 0.374,-0.521 0.44,-1.223 0.815,-1.753 0.796,-1.125 0.942,-1.978 0.242,-3.144 -0.023,-0.039 -1.109,-1.849 -1.109,-1.849 0,0 -1.233,-1.851 -1.356,-2.22 -0.123,-0.37 -0.759,-1.599 -0.812,-1.849 -0.099,-0.463 -1.249,-0.921 -1.491,-1.62 -0.5,-1.449 0.778,-2.118 0.804,-3.543 -2.097,0.068 -4.346,0.363 -6.461,0.17 -1.105,-0.102 -4.526,-0.29 -5.113,-1.299 l 0.043,0.076 c -0.214,0.707 -1.385,1.204 -2.017,1.836 -0.74,0.74 -0.555,2.035 -0.925,3.145 -0.37,1.11 0.185,2.035 0.555,2.775 0.37,0.74 -0.185,1.109 -0.37,2.22 -0.185,1.11 0.925,1.665 0.925,1.665 0,0 0.37,7.215 0.555,8.695 0.185,1.479 -0.555,9.25 -0.555,9.805 0,0.555 -1.11,2.22 -1.85,2.775 -0.74,0.555 -1.481,1.479 -2.22,1.85 -0.74,0.37 -1.851,0.555 -2.59,1.11 -0.74,0.555 -1.11,1.479 -1.85,2.22 -0.74,0.74 -1.85,0.74 -2.405,1.85 -0.555,1.11 -1.85,1.665 -1.85,1.665 0,0 -0.185,3.886 -0.74,4.44 -0.555,0.555 -1.85,2.035 -1.85,2.035 l -1.665,1.479 -1.48,1.48 c 0,0 -1.11,0.925 -1.665,1.295 -0.555,0.37 -1.295,0.925 -1.85,0.925 -0.555,0 -0.925,1.295 -0.925,1.295 l -1.851,0.555 c 0,0 -1.109,0.186 -2.22,0.37 -1.11,0.186 -0.74,1.296 -0.74,1.851 0,0.555 0.37,1.665 0.74,2.22 0.37,0.555 -0.555,2.035 -0.925,2.96 -0.37,0.925 -0.555,2.775 -0.74,3.885 -0.185,1.11 -1.295,3.146 -2.59,4.625 -1.295,1.48 -3.885,0.74 -6.475,1.295 -2.591,0.555 -2.591,0 -3.7,-0.185 -1.11,-0.185 -1.11,1.479 -2.035,1.851 -0.925,0.369 -2.035,-0.186 -2.96,-0.186 -0.925,0 -1.11,-0.926 -2.775,-1.109 -1.664,-0.186 0,0 -0.74,0.924 -0.74,0.926 0.555,0.926 1.295,1.851 0.74,0.925 0,0.925 -0.74,1.851 -0.74,0.924 -0.186,1.479 -0.186,2.404 0,0.925 0.556,1.85 1.11,2.59 0.555,0.74 0.74,1.295 1.665,2.035 0.925,0.74 1.85,0.74 3.145,0 1.295,-0.74 1.665,0 3.145,0.186 1.48,0.185 1.295,0.369 1.48,1.295 0.185,0.924 -1.48,0 -2.22,0.185 -0.74,0.185 -1.295,0 -2.59,0 -1.295,0 -1.295,0.37 -1.85,0.925 -0.555,0.555 -1.295,-0.369 -2.22,-1.665 -0.925,-1.295 0,0 -1.295,0 -1.295,0 0,0 -0.37,0.74 -0.37,0.739 -1.109,0.37 -1.109,-0.37 0,-0.74 -0.185,-0.925 0,-2.59 0.185,-1.665 -0.555,-1.48 -0.37,-2.221 0.185,-0.739 -1.295,-1.85 -1.295,-1.85 0,0 0,0 0.185,-0.555 0.185,-0.555 0,-1.109 -0.74,-1.109 -0.74,0 -1.11,1.295 -1.665,1.479 -0.555,0.185 -0.925,0.925 -1.48,1.479 -0.555,0.555 -0.925,2.221 -1.48,2.775 -0.555,0.555 -1.48,0.37 -2.22,0 -0.74,-0.37 -0.74,-0.926 -1.295,-1.109 -0.555,-0.186 -0.925,-0.556 -1.665,-1.111 -0.74,-0.555 -1.479,0.186 -0.74,2.221 0.739,2.035 0,0 0.925,0.925 0.925,0.925 -0.186,1.479 -0.925,2.591 -0.74,1.109 -0.185,2.034 -1.11,3.885 -0.925,1.85 0,0 -0.37,1.109 -0.37,1.11 -0.185,1.11 0.37,2.035 0.555,0.925 0.37,1.85 0.37,2.404 0,0.556 0,2.406 0,2.406 l -0.37,1.109 c 0,0 -0.74,1.109 -0.37,1.665 0.37,0.556 -0.555,4.069 -0.555,4.069 0,0 -2.035,2.035 -2.591,2.406 -0.555,0.369 -1.109,1.479 -1.85,1.85 -0.74,0.369 -1.48,0 -2.035,-0.926 -0.555,-0.924 0,0 -0.555,-0.185 -0.555,-0.185 -0.555,1.11 -0.555,1.665 0,0.555 -0.925,0.186 -1.665,0.37 -0.74,0.185 -0.37,1.295 -0.37,1.295 0,0 -1.11,0 -1.851,-0.185 -0.74,-0.186 -1.109,-0.37 -1.109,0.185 0,0.556 -0.925,0.37 -1.295,0.925 -0.37,0.555 0,1.295 -0.185,2.59 -0.185,1.295 0,0 -0.555,1.11 -0.555,1.11 0,0 0.37,1.295 0.37,1.296 0,0 0.555,1.11 0.555,1.109 -0.37,2.22 -0.37,2.22 0,0 -0.555,2.035 -1.295,3.515 -0.74,1.48 0,0 -0.555,0.186 -0.555,0.186 -1.11,1.295 -1.665,1.48 -0.556,0.185 -1.11,0.924 -1.295,1.479 -0.185,0.556 -1.295,1.295 -2.221,2.035 -0.925,0.739 -1.479,0.185 -2.404,0 -0.925,-0.185 -1.851,1.11 -1.851,1.11 0,0 -0.185,2.59 0.186,3.885 0.371,1.295 -0.74,2.035 -1.665,3.145 -0.925,1.11 -1.85,1.295 -2.96,1.85 -1.11,0.556 -2.22,1.295 -2.775,2.035 -0.555,0.74 -0.925,0.926 -1.665,0.926 -0.74,0 -1.11,1.479 -1.665,2.22 -0.555,0.739 -2.22,1.851 -3.515,2.22 -1.295,0.37 -2.22,0.74 -3.515,0.74 -1.295,0 -1.48,-0.74 -1.48,-0.74 0,0 -1.295,0 -2.405,0 -1.109,0 -0.74,1.295 0,2.59 0.74,1.295 -0.37,1.11 -1.109,2.59 -0.74,1.48 -1.481,2.035 -2.59,2.59 -1.11,0.556 -1.48,4.07 -1.85,4.811 -0.37,0.741 -1.665,-2.22 -2.405,-2.404 -0.74,-0.186 -0.925,-0.926 -1.665,-1.295 -0.74,-0.371 -1.295,-1.48 -1.295,-1.48 0,0 -0.925,-1.48 -2.22,-2.405 -1.295,-0.925 -2.405,0.185 -4.07,0.556 -1.665,0.369 -2.22,-0.556 -3.331,0.369 -1.109,0.926 -1.85,1.85 -2.774,2.59 -0.925,0.74 -2.22,1.295 -3.33,2.035 -1.11,0.74 -1.85,0.74 -2.22,1.665 -0.37,0.925 -2.035,1.851 -2.22,2.96 -0.185,1.11 -2.035,0.186 -3.33,0.37 -1.295,0.185 -1.85,0.185 -2.775,0.37 -0.925,0.186 -1.481,1.85 -2.22,2.59 -0.74,0.74 -0.925,2.035 -1.11,3.145 -0.185,1.111 -1.11,0.371 -1.85,2.035 -0.74,1.666 0,0 -0.185,0.556 -0.185,0.555 0.37,1.479 0.74,2.034 0.37,0.556 0.555,1.111 0.925,2.221 0.37,1.109 0.37,1.295 0.925,3.145 0.555,1.851 0,0 -0.555,1.295 -0.555,1.295 -1.48,0.556 -2.035,1.295 -0.555,0.74 -0.925,1.666 -0.925,2.59 0,0.926 0.74,1.296 2.22,2.221 1.48,0.925 1.11,0.555 1.295,1.85 0.186,1.295 0.555,1.48 1.11,2.221 0.555,0.74 1.48,-0.555 2.96,-1.11 1.48,-0.556 1.295,-0.37 2.22,-0.556 0.925,-0.184 1.295,0.371 2.59,-0.924 1.294,-1.295 1.11,-0.74 2.96,-1.11 1.85,-0.37 2.035,-0.37 3.515,-0.37 1.479,0 0.925,-0.74 2.405,-1.109 1.48,-0.371 0,0 0.555,-0.371 0.555,-0.369 0.74,-1.295 1.109,-2.035 0.37,-0.739 0.926,-2.034 1.11,-2.959 0.185,-0.926 0.185,-1.48 -0.555,-1.666 -0.74,-0.185 -0.74,-1.295 -1.295,-1.85 -0.555,-0.555 0.739,-1.85 1.665,-2.22 0.925,-0.37 0.74,-1.851 1.479,-2.59 0.74,-0.74 1.665,-0.556 2.96,-0.556 1.295,0 2.22,0.186 3.885,0.556 1.666,0.37 1.851,0.739 2.96,1.479 1.11,0.74 1.295,1.11 2.221,1.48 0.925,0.369 0.74,1.665 1.295,2.404 0.555,0.74 1.11,-0.185 2.035,-0.555 0.925,-0.369 1.295,-0.185 2.96,0.37 1.665,0.556 1.479,0.37 2.035,0.74 0.555,0.37 1.295,0.925 2.405,1.295 1.11,0.37 2.22,-0.185 3.146,0 0.925,0.185 1.665,1.665 1.665,1.665 0,0 1.295,0.37 2.22,1.109 0.925,0.74 1.48,2.035 2.59,3.886 1.11,1.85 0.925,1.665 1.11,2.774 0.185,1.11 0.74,0.926 1.109,1.851 0.37,0.925 0.74,1.11 1.11,2.034 0.37,0.926 0.37,0.926 0.185,2.221 -0.185,1.295 -0.555,1.109 -0.925,2.59 -0.37,1.48 0.37,1.109 0.925,1.48 0.555,0.369 0.74,1.109 1.295,2.404 0.555,1.295 0,0 0.555,1.11 0.555,1.11 1.11,0.556 2.775,0.556 1.665,0 1.11,1.109 1.295,1.85 0.185,0.74 0.37,1.479 1.85,1.85 1.48,0.37 1.48,-0.37 2.405,-1.295 0.925,-0.925 0.185,-2.221 0.739,-3.516 0.556,-1.295 0.926,-1.109 1.295,-2.774 0.37,-1.665 0.37,-1.665 2.035,-1.665 1.666,0 1.48,-0.925 3.33,-1.109 1.851,-0.186 1.481,1.109 2.775,1.109 1.295,0 1.48,-0.74 1.665,-1.665 0.185,-0.925 0.74,-1.851 0.74,-2.96 0,-1.109 1.109,-1.665 2.22,-1.85 1.11,-0.186 0.925,-0.74 0.925,-1.666 0,-0.924 0.555,-0.924 0.74,-2.034 0.185,-1.11 0,-1.295 -0.37,-2.96 -0.37,-1.665 -0.925,-0.555 -1.48,-1.85 -0.555,-1.295 0,0 -0.74,-1.295 -0.74,-1.295 0,0 -0.925,-0.666 -0.925,-0.666 -0.925,-1 -1.48,-1.185 -0.555,-0.185 -1.665,-0.37 -3.145,-0.925 -1.48,-0.555 -3.33,0.555 -4.07,0.74 -0.74,0.185 -3.145,0.185 -4.81,1.109 -1.666,0.926 -0.925,-0.925 0.37,-0.925 1.295,0 3.516,-0.74 4.255,-1.479 0.74,-0.74 1.666,-0.74 2.775,-0.887 1.11,-0.146 2.22,0.331 3.145,-0.039 0.926,-0.369 2.035,0.186 2.775,0 0.74,-0.185 0.74,-1.664 0.37,-2.404 -0.37,-0.74 0,-1.48 1.11,-3.146 1.109,-1.665 0,0 1.479,-2.405 1.481,-2.404 0,0 0.74,-0.74 0.74,-0.739 1.295,-0.185 2.59,-0.739 1.295,-0.556 0,0 -0.185,-0.37 -0.185,-0.37 -2.221,-1.109 -3.516,-1.48 -1.295,-0.369 -1.85,-1.85 -1.85,-1.85 0,0 2.22,0.186 3.7,0.74 0.74,0.277 0.74,0.277 0.647,0.115 -0.093,-0.162 -0.278,-0.485 0.092,-0.855 0.74,-0.74 0.74,-1.109 0.555,-2.035 -0.185,-0.925 -2.035,-1.109 -2.035,-1.109 0,0 -1.48,-0.556 -0.925,-0.74 0.555,-0.186 0.925,0.74 2.22,0 1.295,-0.74 0,0 -0.925,-1.48 -0.925,-1.48 -1.295,-0.925 -2.96,-2.22 -1.665,-1.295 -0.74,-1.11 0,-1.295 0.74,-0.185 1.479,0.555 2.774,0.925 1.295,0.37 0.37,1.295 1.295,1.48 0.925,0.185 0.37,-0.926 0.555,-1.851 0.185,-0.925 0.925,-0.185 1.665,-1.11 0.74,-0.924 1.109,0.556 0.925,0.926 -0.185,0.369 0,1.295 0,2.22 0,0.925 0.37,1.479 1.479,3.146 1.11,1.664 0,0 -0.37,1.109 -0.37,1.11 -0.185,1.11 -0.555,2.221 -0.37,1.109 0,1.85 0.925,1.479 0.926,-0.37 1.851,-0.556 1.851,-0.556 0,0 0,1.111 -0.74,1.666 -0.74,0.555 -0.74,1.109 -0.925,2.22 -0.186,1.11 1.48,0.555 2.22,0 0.74,-0.556 0.74,-1.479 1.85,-2.035 1.11,-0.556 0.74,-1.11 0.925,-1.851 0.185,-0.739 0.739,-1.295 1.11,-2.59 0.37,-1.295 0.37,-2.035 0.555,-2.59 0.185,-0.555 0.555,-2.22 1.109,-3.33 0.556,-1.109 1.295,-0.925 3.516,-1.479 2.22,-0.556 0,0 1.109,0.37 1.11,0.369 0.556,1.664 1.295,2.035 0.74,0.369 0.925,-1.666 1.48,-1.989 0.555,-0.323 0.925,-1.526 0.925,-1.526 0,0 1.665,-1.48 2.405,-2.22 0.74,-0.74 1.665,-2.405 2.59,-2.774 0.925,-0.371 2.405,0.185 3.145,0.369 0.74,0.186 1.851,0.74 2.591,0.926 0.739,0.185 1.109,1.664 2.035,2.035 0.925,0.369 0.925,-1.666 1.11,-2.221 0.185,-0.555 1.11,-0.74 1.665,-1.48 0.555,-0.74 -0.925,-1.295 0,-2.22 0.925,-0.925 1.295,-0.37 1.48,-1.295 0.185,-0.925 -1.295,-1.851 -1.295,-1.851 0,0 -0.37,-2.959 -0.185,-4.254 0.185,-1.295 1.11,-2.221 1.85,-2.961 0.74,-0.739 1.666,-0.739 1.666,-1.479 0,-0.739 -0.74,-1.295 -1.11,-1.851 -0.37,-0.555 -0.925,-1.664 -0.37,-2.59 0.555,-0.924 2.59,-1.295 3.515,-1.664 0.925,-0.371 2.775,-0.74 3.885,-1.295 1.11,-0.556 1.295,-1.48 2.405,-1.295 1.11,0.185 0.74,1.295 1.295,1.85 0.556,0.555 0,3.33 -0.185,4.07 -0.185,0.739 1.11,0.555 1.85,0.739 0.74,0.185 1.11,-1.85 2.035,-2.405 0.925,-0.555 0.925,-0.74 2.035,-0.924 1.11,-0.186 0.555,1.109 1.295,1.479 0.74,0.37 1.85,-0.925 3.515,-0.925 1.666,0 0.926,-0.74 2.59,-0.74 1.665,0 1.665,0.74 2.96,0.555 1.295,-0.186 2.96,0.74 4.81,0.555 1.85,-0.185 2.96,-1.664 3.885,-2.035 0.925,-0.369 1.48,0.371 2.59,0.556 1.11,0.185 1.295,-1.665 2.035,-2.22 0.74,-0.555 1.665,-1.295 1.851,-2.035 0.185,-0.74 1.295,-1.85 3.145,-2.035 1.85,-0.186 4.625,0 7.771,0.186 3.144,0.185 8.324,0.185 8.324,0.185 0,0 3.331,0.739 3.886,0.925 0.555,0.186 2.404,1.295 3.33,2.59 0.925,1.295 2.774,2.035 3.884,3.33 0.795,0.927 0.178,1.763 0.184,2.803 0.999,-0.078 4.902,0.791 4.676,-1.082 -0.102,-0.85 -1.453,-1.027 -1.469,-1.998 -0.052,-3.01 3.623,-1.348 4.258,-3.253 0.288,-0.864 -0.881,-2.487 -1.739,-2.65 -1.859,-0.354 -2.246,3.765 -4.594,1.759 1.308,-0.134 2.351,0.039 2.179,-1.723 -1.161,-0.175 -2.738,0.527 -3.729,-0.313 -1.395,-1.185 0.236,-1.826 1.364,-1.981 1.15,-0.158 2.752,0.26 2.691,-1.281 -0.056,-1.388 -1.491,-3.229 -2.894,-3.229 -1.11,0 -1.85,0.185 -2.405,0.924 -0.555,0.74 -1.85,1.851 -2.406,1.851 -0.961,0 -1.709,0.882 -2.814,0.691 -0.951,-0.164 -1.725,-0.867 -2.372,-1.536 -1.32,-1.365 -2.338,-3.279 -2.064,-5.25 0.511,0.584 0.559,1.516 0.97,2.201 0.684,1.141 0.762,0.387 1.623,0.945 0.67,0.436 0.517,1.762 1.118,2.248 1.244,1.006 1.293,-1.016 1.876,-1.89 0.37,-0.556 1.109,0.185 2.035,0 0.926,-0.185 1.295,-1.296 1.85,-1.296 0.555,0 2.774,-1.295 2.774,-1.295 0,0 0,0 0.925,-0.924 1.668,-1.668 -0.892,-4.068 -2.57,-3.966 0.038,-0.426 -0.4,-1.29 -0.33,-1.563 0.258,-1.006 0.282,-0.125 0.666,0.123 0.465,0.299 0.266,0.775 1.093,0.683 0.531,-0.062 2.067,-1.392 2.067,-1.937 0,-0.74 -0.925,-1.666 -1.295,-3.146 -0.374,-1.478 -1.299,-2.958 -0.744,-3.144 0.025,-0.01 0.05,-0.014 0.074,-0.018 z"
   style="fill:#677821" /><rect
   style="fill:none;stroke:#000000;stroke-width:0.29998;stroke-linejoin:bevel;stroke-dasharray:none;paint-order:stroke fill markers"
   id="rect2"
   height="4390.293"
   x="0.19998971"
   y="0.19998971"
   ry="0.69917101"
   width="4353.8188" /></svg>
