<?xml version="1.0" encoding="UTF-8" standalone="no"?>
<!-- Generator: Adobe Illustrator 22.1.0, SVG Export Plug-In . SVG Version: 6.00 Build 0)  -->

<svg
   version="1.1"
   x="0px"
   y="0px"
   viewBox="0 0 4354.1187 4390.5933"
   enable-background="new 0 0 1995.865 2834.646"
   xml:space="preserve"
   id="svg1596"
   width="4354.1187"
   height="4390.5933"
   xmlns="http://www.w3.org/2000/svg"
   xmlns:svg="http://www.w3.org/2000/svg"><defs
   id="defs1596" />


<path
   id="Cumbria_1_"
   fill="#303B09"
   d="m 2277.2005,2172.6411 c 0.556,0.37 0.833,1.11 0.833,1.758 0,0.648 -0.556,-0.463 -0.833,-0.833 -0.277,-0.37 -0.74,-0.185 -1.387,0.278 -0.647,0.462 -0.37,0.462 -0.74,1.295 -0.37,0.832 -0.093,0.739 -0.74,1.572 -0.647,0.832 -0.185,0.925 -1.11,1.109 -0.925,0.186 -1.018,0.093 -1.48,0.463 -0.463,0.37 -0.186,1.295 -0.37,2.498 -0.185,1.202 0.462,1.017 1.572,0.739 1.11,-0.277 0.555,-0.925 1.203,-1.11 0.648,-0.185 1.295,-0.092 2.775,-0.277 1.48,-0.185 0.647,0.093 0.74,0.463 0.093,0.37 0.555,0.832 0.093,0.925 -0.463,0.093 -1.11,-0.093 -1.851,0.093 -0.74,0.185 -0.462,0.463 -0.462,0.74 0,0.277 -0.556,0.74 -0.833,1.018 -0.277,0.278 -0.925,0.462 -2.035,1.018 0,0 -1.572,0.739 -1.942,0.925 -0.37,0.185 -3.792,0.462 -5.18,0.37 -1.388,-0.093 -1.572,-0.556 -1.665,-1.018 -0.093,-0.463 -0.647,-1.018 -0.925,-1.295 -0.278,-0.277 -1.665,-0.556 -2.498,-1.203 -0.832,-0.647 -0.277,-0.925 -0.832,-1.295 -0.556,-0.37 -0.37,-0.832 -1.573,-0.832 -1.202,0 -2.127,0 -3.237,0.092 -1.11,0.093 -1.757,0.926 -2.22,1.295 -0.462,0.37 -1.942,1.018 -2.867,1.203 -0.926,0.185 -3.146,-0.093 -4.163,0.092 -1.018,0.186 -0.462,1.295 -1.203,2.035 0,0 -0.833,1.295 -1.202,1.572 -0.37,0.278 -0.925,1.11 -0.925,2.498 0,1.388 0.555,1.018 1.203,1.665 0.648,0.647 1.85,1.11 2.775,1.018 0.925,-0.093 1.943,0.093 2.589,-0.647 0.648,-0.74 0.463,-0.925 0.926,-1.388 0.462,-0.462 0.647,0.185 0.647,1.018 0,0.833 0.185,0.647 0,1.758 -0.185,1.109 -0.647,0.37 -0.925,1.202 -0.278,0.832 -0.463,0.925 -0.925,1.11 -0.462,0.185 -1.48,0.185 -2.127,-0.093 -0.648,-0.277 -0.648,0 -0.833,0.555 -0.185,0.555 0.185,1.203 0.555,2.035 0.37,0.832 0.277,1.572 0.277,2.221 0,0.646 0.092,1.387 -0.37,1.387 -0.462,0 -0.462,-1.479 -0.555,-2.127 -0.093,-0.648 -0.833,-0.648 -1.48,-1.018 -0.647,-0.37 -0.277,-1.018 -0.37,-1.48 -0.092,-0.463 -0.555,-0.277 -1.018,-0.74 -0.462,-0.462 -1.109,-0.462 -1.757,-0.462 -0.648,0 -1.48,-0.093 -1.943,-0.185 -0.462,-0.093 -0.185,-0.556 -0.37,-1.389 -0.186,-0.832 0,0 0.185,-0.555 0.185,-0.555 -0.462,-0.277 -1.11,-0.185 -0.647,0.093 -1.202,0.739 -1.479,1.018 -0.277,0.277 -0.925,0.647 -1.48,1.018 -0.555,0.37 -1.109,1.202 -1.202,1.757 -0.093,0.556 -0.74,1.572 -1.85,2.683 -1.11,1.11 -1.388,1.942 -1.388,1.942 0,0 -0.185,2.128 -0.463,3.423 -0.277,1.295 -0.555,1.851 -1.109,2.497 -0.556,0.648 -0.833,1.11 -1.017,1.943 -0.186,0.832 -0.647,1.942 -0.925,2.497 -0.278,0.555 -1.018,2.405 -1.11,2.96 -0.093,0.555 -0.277,3.237 0,4.07 0.277,0.832 0.37,5.272 0,6.012 -0.37,0.74 -0.37,1.11 -0.833,1.48 -0.463,0.37 -0.833,1.295 -1.295,1.758 -0.462,0.462 -1.017,1.572 -1.479,1.758 -0.463,0.185 -1.295,1.664 -2.683,2.59 -1.388,0.925 -1.758,0.925 -1.85,1.479 -0.092,0.556 -0.647,1.11 -1.203,1.018 -0.555,-0.093 -0.74,1.018 -0.74,1.018 l -0.462,3.423 c 0,0 -0.37,1.018 -0.647,1.295 -0.278,0.277 -0.555,1.664 -0.925,2.22 -0.37,0.555 -1.203,1.665 -1.943,2.035 -0.74,0.37 -1.295,1.295 -1.757,2.034 -0.463,0.74 -1.203,1.573 -1.295,2.128 -0.093,0.556 0.185,2.035 0,2.405 -0.186,0.37 -1.203,0 -1.573,0 -0.37,0 0,0.925 -0.092,1.388 -0.093,0.462 0.185,1.665 0.37,2.497 0.185,0.832 0.555,1.388 0.648,2.312 0.092,0.925 -0.278,1.942 -0.37,2.498 -0.093,0.555 -0.093,1.85 -0.37,2.682 -0.277,0.833 -0.555,0.926 -0.74,1.758 -0.185,0.832 -0.37,1.295 -0.37,2.405 0,1.11 0.37,1.018 0.37,1.85 0,0.833 -0.185,0.74 -0.555,1.295 -0.37,0.556 -0.186,1.018 -0.463,1.296 -0.277,0.277 -0.092,0.924 -0.092,1.479 0,0.555 -0.833,0.74 -1.203,0.925 -0.37,0.186 -0.463,1.018 -0.277,1.758 0.185,0.74 -0.463,2.127 -1.11,2.775 -0.647,0.646 -1.109,1.757 -1.85,2.127 -0.741,0.37 -2.035,0.74 -2.59,1.295 -0.556,0.555 0,1.85 0.647,2.775 0.647,0.925 0.739,0.925 1.202,1.942 0.463,1.018 0.647,1.202 1.48,1.388 0.832,0.185 1.479,1.109 1.757,1.572 0.278,0.463 1.758,1.479 2.312,2.127 0.556,0.648 0.556,1.11 0.74,2.128 0.185,1.018 0.647,1.295 1.018,1.665 0.371,0.37 1.388,1.758 2.127,2.404 0.74,0.648 1.018,0.926 1.387,1.758 0.37,0.833 1.018,0.833 1.295,1.665 0.278,0.833 1.295,1.573 1.757,2.035 0.463,0.463 1.203,1.388 1.942,2.312 0.74,0.925 0.37,1.388 0.74,2.035 0.37,0.647 1.572,1.85 2.035,2.59 0.462,0.74 1.388,1.758 1.572,2.312 0.185,0.556 0.555,1.758 0.832,2.035 0.278,0.277 1.388,1.757 2.405,3.515 1.018,1.758 2.035,3.793 2.683,4.163 0.648,0.37 0.833,-0.186 1.665,-1.11 0.833,-0.925 0,0 0.185,-0.647 0.185,-0.647 -0.555,-0.555 -1.295,-0.555 -0.74,0 -0.74,-0.925 -0.185,-1.11 0.555,-0.186 0.647,-0.186 1.572,0 0.925,0.186 0.74,-0.37 1.295,-1.388 0.556,-1.018 0.74,-0.647 1.018,0.093 0.278,0.74 -0.277,0.832 -0.74,1.572 -0.463,0.74 -0.278,0.74 0.185,1.295 0.462,0.555 0.462,2.498 0.925,2.683 0.463,0.185 0.647,-0.37 0.925,-0.925 0.277,-0.555 0.647,-0.37 0.74,0.186 0.093,0.555 -0.277,1.017 -0.555,1.387 -0.277,0.37 -0.74,0.37 -1.295,0.186 -0.555,-0.186 -1.203,-0.833 -1.11,-1.295 0.03,-0.148 0.031,-0.307 0,-0.455 -0.063,-0.316 -0.271,-0.593 -0.647,-0.655 -0.555,-0.093 -0.277,0.555 -0.555,0.833 -0.278,0.277 -0.37,0.739 -0.926,1.109 -0.555,0.37 -0.277,0.832 -0.277,1.665 0,0.833 0.647,1.202 0.925,2.128 0.278,0.925 0.462,1.85 0.648,3.052 0.185,1.203 0.092,2.035 -0.37,2.498 -0.463,0.462 -0.74,0.555 -0.647,2.034 0.092,1.48 0.277,1.018 0.555,1.666 0.277,0.646 0.647,1.109 1.202,2.035 0.556,0.924 1.018,1.85 1.573,2.774 0.555,0.925 0.832,1.479 1.202,2.312 0.37,0.833 1.018,1.202 1.85,2.22 0.832,1.018 1.665,2.035 1.665,2.035 0,0 1.203,2.312 1.942,3.793 0.74,1.479 3.053,5.643 3.423,6.012 0.37,0.37 1.48,0.186 2.498,0 1.018,-0.185 0.74,-0.369 1.573,-0.739 0.832,-0.37 0.925,-0.463 1.757,-0.37 0.833,0.092 0.463,0.647 1.203,1.018 0.739,0.369 0.832,-0.186 1.48,-0.277 0.648,-0.093 0.648,0 1.388,-0.74 0.74,-0.74 0.833,-0.647 1.11,-1.572 0.277,-0.926 -0.186,-1.48 -0.647,-2.035 -0.463,-0.555 -0.833,-1.203 -0.74,-2.221 0.093,-1.018 0.74,-0.462 1.202,-1.109 0.463,-0.647 0.37,-0.833 0.556,-1.665 0.185,-0.833 0.37,-0.463 1.202,-1.388 0.832,-0.925 0.093,-0.74 0.277,-2.035 0.185,-1.295 0.093,-0.555 1.11,-0.832 1.018,-0.277 0,0 -0.093,-0.74 -0.092,-0.74 -0.647,-0.74 -0.37,-1.203 0.278,-0.462 0.555,0.186 1.11,0.74 0.555,0.556 0.277,1.11 0.647,2.221 0.37,1.109 0.555,0.647 1.295,1.387 0.74,0.74 0.093,1.388 0.185,2.035 0.092,0.647 0.185,0.926 0,2.312 -0.185,1.388 0,0 -0.185,0.74 -0.185,0.74 -0.463,1.572 -0.74,2.312 -0.277,0.74 -0.37,0.74 -0.37,1.388 0,0.648 -0.37,1.757 -0.555,2.59 -0.185,0.833 -0.74,0.185 -1.202,0.277 -0.463,0.093 -0.278,0.647 0.092,1.018 0.37,0.37 0.647,0.647 0.555,1.388 -0.093,0.74 -0.278,0.832 -0.833,1.295 -0.555,0.463 -1.479,0.463 -2.312,0.463 -0.832,0 -1.665,0.277 -2.497,0.369 -0.833,0.093 -0.74,0.648 -0.463,1.573 0.277,0.925 0.463,0.462 1.203,0.739 0.74,0.277 0.555,0.556 1.018,0.833 0.463,0.277 0.555,0 0.833,0.185 0.277,0.186 -0.093,0.648 -0.185,1.295 -0.092,0.648 0,1.943 0,2.59 0,0.648 0,2.405 -0.278,3.238 -0.277,0.832 -0.555,0.277 -0.832,-0.555 -0.277,-0.833 -0.37,-0.74 -0.833,-1.295 -0.462,-0.556 -0.462,-0.648 -0.74,-1.296 -0.278,-0.647 -0.093,-0.832 -0.185,-1.85 -0.092,-1.018 0.555,-0.277 1.11,-0.74 0.555,-0.462 0.185,-0.462 -0.093,-0.739 -0.277,-0.278 -1.11,0.277 -1.48,0.277 -0.369,0 -0.925,0.739 -1.017,1.018 -0.093,0.277 0.092,1.572 0.092,2.497 0,0.925 -0.092,2.59 0.278,3.978 0.37,1.388 0.278,2.867 0.462,3.237 0.184,0.37 0.555,1.11 1.202,2.035 0.648,0.925 0.926,1.757 1.295,2.312 0.37,0.555 1.203,2.035 1.757,2.774 0.555,0.74 0.647,1.666 1.295,2.221 0.648,0.555 1.203,2.127 1.665,2.775 0.463,0.646 0.833,1.202 1.943,1.572 1.11,0.369 1.48,0 2.59,-0.463 1.11,-0.463 1.295,-0.186 1.295,-0.555 0,-0.37 -0.093,-0.555 -0.648,-1.203 -0.556,-0.647 0,0 -0.74,-0.092 -0.74,-0.093 -0.74,0 -1.203,0.277 -0.462,0.277 -0.462,0.463 -1.202,0.463 -0.74,0 -0.555,-0.463 -0.74,-0.74 -0.185,-0.277 -0.092,-0.833 -0.37,-1.388 -0.278,-0.556 -0.185,-0.925 -0.648,-1.388 -0.462,-0.463 -0.832,-0.186 -1.202,-0.463 -0.37,-0.277 -0.277,-0.925 -0.185,-1.664 0.092,-0.74 0.369,-0.556 0.277,-0.926 -0.093,-0.369 -0.833,-1.018 -0.833,-1.018 0,0 0,0 -0.37,-0.462 -0.37,-0.463 -0.648,-0.278 -1.018,-0.37 -0.37,-0.093 -0.647,-0.37 -1.11,-1.018 -0.463,-0.647 0,-0.555 0.185,-1.295 0.186,-0.74 0.093,-0.832 0.556,-1.203 0.462,-0.369 0.37,0.463 0.739,0.926 0.37,0.462 0.926,0.832 1.295,0.555 0.37,-0.277 0.647,-0.555 1.48,-1.018 0.833,-0.463 0.555,-0.555 0.833,-1.109 0.278,-0.556 0.74,-0.556 1.11,0.185 0.37,0.741 0.74,0.555 1.295,0.925 0.555,0.37 0.555,0.832 0.555,1.572 0,0.74 0.092,1.203 1.018,1.758 0.926,0.555 0.37,0.555 0.462,1.018 0.092,0.463 -0.185,1.018 0.093,2.127 0.277,1.11 0,0 0.832,-0.277 0.833,-0.277 0,0 0.37,0.463 0.37,0.463 0.185,1.018 0.647,1.572 0.463,0.555 0.833,0.74 1.295,0.186 0.463,-0.556 0.093,-1.203 -0.185,-1.48 -0.277,-0.277 -0.925,-0.74 -1.573,-1.572 -0.647,-0.832 -0.092,-1.48 0.555,-2.035 0.647,-0.555 1.295,-1.202 1.85,-2.035 0.556,-0.832 1.48,-0.925 2.128,-1.387 0.647,-0.463 0.832,-1.48 1.85,-2.684 1.018,-1.202 1.11,-0.555 1.388,-1.295 0.277,-0.739 0.647,-1.387 1.48,-2.312 0,0 1.48,-2.682 1.943,-3.885 0.462,-1.202 0.647,-1.202 0.832,-2.312 0.185,-1.109 0.463,-1.202 1.203,-1.479 0.74,-0.278 0.555,-0.37 0.647,-1.203 0.093,-0.832 -0.092,-1.572 -0.185,-2.774 -0.092,-1.203 0.185,-1.203 0.37,-1.665 0.185,-0.463 0.185,-0.74 0.463,-2.128 0.277,-1.387 0.462,-0.832 1.109,-1.479 0.647,-0.647 0.463,-0.833 0.74,-1.573 0.277,-0.739 0.647,-0.646 0.186,-1.757 -0.463,-1.11 -0.74,-0.37 -1.388,-0.647 -0.648,-0.277 -0.556,-0.833 -0.37,-1.48 0.185,-0.647 0.74,-0.555 1.387,-0.555 0.648,0 0.556,-0.093 1.296,0.463 0.739,0.555 0.37,0.832 0.832,1.387 0.463,0.555 0.37,0.926 0.556,1.48 0.185,0.555 0.369,1.018 0.646,1.85 0.278,0.833 -0.277,1.203 -0.277,1.203 0,0 -1.018,0.092 -1.109,0.646 -0.093,0.556 -0.647,0.833 -0.186,1.758 0.463,0.926 0.463,0.555 0.926,1.11 0.462,0.555 0.555,0.833 1.295,1.295 0.739,0.462 0.646,0.277 1.109,0.555 0.463,0.278 0.647,0.278 1.11,0.925 0.462,0.648 -0.37,0.926 -0.556,1.573 -0.185,0.647 -0.369,1.202 -0.092,1.942 0.277,0.74 0.647,1.018 1.665,1.48 1.018,0.462 1.942,0.185 2.96,0.185 1.018,0 1.942,-0.74 3.145,-1.202 1.203,-0.463 0.555,-0.278 0.74,0.277 0.186,0.555 0.555,1.109 0.832,0.74 0.278,-0.371 0.093,-1.48 0.093,-2.498 0,-1.018 0.37,-1.018 0.647,-2.22 0.277,-1.203 0.926,-0.74 1.11,-1.48 0.185,-0.739 0.37,-1.295 0.925,-2.035 0.555,-0.739 0.832,-0.739 1.572,-1.572 0.74,-0.833 0.74,-0.74 1.665,-0.74 0.925,0 1.296,-0.647 2.035,-0.925 0.74,-0.277 0.74,-0.832 1.295,-0.925 0.556,-0.093 0.833,0.37 1.202,0.462 0.371,0.093 1.203,-0.646 1.389,-1.109 0.184,-0.463 0.462,-0.925 0.832,-1.942 0.37,-1.017 0.832,-0.74 1.295,-0.833 0.463,-0.092 1.018,-0.185 1.572,-0.555 0.554,-0.37 0.555,-1.11 0.833,-1.572 0.277,-0.463 0.185,-1.388 0.093,-2.035 -0.093,-0.647 -0.371,-1.018 -0.74,-1.48 -0.37,-0.462 0.462,-0.369 1.018,-0.277 0.555,0.093 0.646,0.74 0.646,1.295 0,0.555 0.278,1.203 0.926,1.758 0.647,0.555 0.463,0.555 0.277,0.832 -0.186,0.277 -0.463,0.833 -0.463,0.833 0,0 -0.74,0.74 -1.109,0.74 -0.37,0 -0.833,0.925 -1.11,1.388 -0.277,0.462 -0.833,1.018 -1.295,1.295 -0.462,0.277 -0.555,0.462 -0.74,0.925 -0.185,0.462 -0.277,0.832 -0.555,1.018 -0.277,0.185 -0.74,0.647 -1.202,0.832 -0.463,0.185 -0.926,0.277 -1.203,0.277 -0.277,0 -0.832,0.925 -0.832,0.925 0,0 -1.018,0.186 -1.48,0.278 -0.462,0.092 -0.092,1.572 0.277,2.312 0.37,0.739 0.74,1.017 0.926,1.295 0.115,0.173 0.409,0.489 0.615,0.792 l 0.371,-0.33 c 0,0 2.899,-1.479 4.495,-1.295 1.597,0.186 1.363,-2.774 1.835,-3.608 0.472,-0.834 3.598,0.278 4.618,1.389 1.02,1.11 2.865,0 4.636,1.11 1.771,1.109 0.449,2.96 0.896,3.885 0.447,0.925 2.698,0.185 5.043,0.74 2.345,0.555 1.541,0.185 2.345,-1.48 0.803,-1.665 1.046,-1.48 2.156,-2.035 1.109,-0.555 1.85,-3.515 2.96,-4.798 1.11,-1.283 2.96,0.173 5.203,0.165 2.243,-0.01 2.566,0.193 3.633,-0.165 1.065,-0.358 4.299,-1.677 5.341,-2.787 1.041,-1.11 3.028,-1.479 4.911,-2.867 1.884,-1.388 3.112,-2.497 4.407,-3.114 1.295,-0.616 0.369,2.097 0,3.114 l 0.301,-0.884 c 1.57,1.477 4.509,1.161 6.821,0.606 2.312,-0.556 0.833,-1.665 1.758,-2.927 0.925,-1.262 1.202,-0.219 2.312,-0.773 1.11,-0.555 0.093,-1.388 1.565,-1.572 1.473,-0.186 1.487,1.295 2.413,2.346 0.925,1.051 1.479,-0.033 2.191,-0.403 0.711,-0.37 1.23,-3.515 1.323,-3.816 0.093,-0.301 0.463,-3.954 0.185,-6.081 -0.277,-2.128 0,-3.053 -0.369,-4.271 -0.37,-1.219 0.647,-1.926 1.109,-3.272 0.463,-1.347 0.833,-1.243 0.37,-2.354 -0.462,-1.11 -1.572,-1.202 -2.618,-1.758 -1.047,-0.555 -1.082,-1.388 -2.007,-2.128 -0.925,-0.739 -1.295,-0.925 -1.757,-1.479 -0.463,-0.555 -0.74,-1.202 0,-1.295 0.739,-0.093 1.942,-0.647 2.251,-0.925 0.309,-0.278 1.818,-1.388 2.097,-1.295 0.277,0.092 0.646,-1.943 1.941,-2.498 1.295,-0.555 1.851,-0.185 2.498,-0.925 0.648,-0.74 -0.093,-2.774 0,-3.237 0.094,-0.463 -1.665,-0.926 -1.911,-1.388 -0.246,-0.462 0.431,-1.665 0,-3.978 -0.431,-2.313 1.171,-1.665 1.911,-3.524 0.74,-1.859 0.647,-1.471 2.59,-1.841 1.942,-0.369 1.018,-0.555 1.572,-1.572 0.556,-1.018 2.035,-0.555 4.348,-0.463 2.312,0.093 3.516,0 4.718,0 1.202,0 0.925,-0.646 2.128,-1.85 0.729,-0.729 0.777,-1.049 0.909,-1.251 l 0.57,-0.321 c 0,0 1.018,-2.59 0.833,-3.793 -0.186,-1.202 -0.648,-6.845 -0.833,-8.14 -0.185,-1.295 0.376,-3.237 -0.876,-3.515 -1.252,-0.278 -2.361,0.832 -3.194,-0.556 -0.832,-1.388 -0.277,-3.515 -1.202,-4.162 -0.925,-0.647 -4.995,-2.96 -6.383,-4.532 -1.387,-1.573 -2.361,-2.775 -3.771,-4.07 -1.41,-1.295 -2.179,-1.85 -3.32,-4.07 -1.142,-2.22 -1.882,-5.272 -1.512,-6.383 0.37,-1.109 2.916,-2.753 3.423,-3.699 0.508,-0.946 0.832,-1.267 0.647,-2.252 -0.185,-0.986 -0.462,-1.042 -1.295,-1.522 -0.833,-0.481 -1.388,-0.296 -2.405,-0.666 -1.017,-0.37 -1.353,-0.122 -1.971,-1.078 -0.619,-0.957 0,-0.217 -1.513,-1.974 -1.512,-1.758 -2.621,-2.775 -1.512,-3.979 1.11,-1.202 1.48,-3.699 2.22,-4.81 0.74,-1.11 1.666,-1.295 1.48,-3.146 -0.185,-1.85 0.277,-4.162 0.37,-5.271 0.093,-1.11 1.018,-3.33 1.388,-3.979 0.37,-0.646 0.988,-1.85 0.679,-2.959 -0.261,-0.936 -0.082,-1.5 -0.019,-1.654 l 0.019,-0.044 c 0,0 0.63,0 -0.518,-0.738 -1.148,-0.739 -0.532,-0.863 -1.888,-1.479 -1.357,-0.617 -1.974,-1.11 -2.59,-1.48 -0.617,-0.369 -0.864,-2.22 -2.221,-3.33 -1.356,-1.109 -1.85,-0.74 -3.083,-2.22 -1.233,-1.48 -1.275,-2.097 -1.687,-3.453 -0.41,-1.356 -0.78,-3.823 -1.891,-2.22 -1.109,1.604 -0.862,2.22 -2.466,3.083 -1.604,0.863 -1.62,1.521 -2.96,1.727 -1.341,0.206 -1.48,0.016 -2.714,1.796 -1.233,1.781 -1.604,4.124 -4.441,4.248 -2.836,0.123 -3.576,1.355 -5.426,-0.617 -1.851,-1.974 -3.084,-3.823 -3.577,-4.81 -0.493,-0.987 -0.863,-4.417 -0.863,-4.613 0,-0.197 0.987,-1.135 0,-2.27 -0.986,-1.134 -2.22,-2.524 -2.714,-4.234 -0.492,-1.71 0.947,-1.064 1.584,-2.065 0.637,-1.001 1.87,-3.212 1.87,-3.212 0,0 0.493,-3.162 0.986,-3.497 0.493,-0.336 2.152,-0.828 2.062,-2.309 -0.089,-1.48 -0.742,-1.11 -1.402,-1.727 -0.66,-0.617 -1.03,-1.457 -1.153,-3.072 -0.123,-1.615 0.616,-2.849 -0.617,-3.095 -1.232,-0.247 -2.344,-0.311 -2.59,-1.08 -0.246,-0.771 0.084,-1.88 0.844,-2.866 0.76,-0.987 1.377,-1.04 1.746,-2.74 0.37,-1.7 -0.586,-0.775 -0.586,-0.775 0,0 0.184,-0.774 0.099,-1.163 -0.085,-0.39 -0.268,-0.705 -0.26,-1.181 0.01,-0.477 0.066,-1.363 0.491,-2.138 0.426,-0.774 0.191,-0.948 1.125,-1.171 0.935,-0.223 2.353,-0.804 3.388,-1.684 1.036,-0.88 1.382,-1.312 2.182,-1.477 0.8,-0.165 1.494,0.141 1.831,-0.398 0.338,-0.539 0.268,-1.049 0.775,-1.1 0.508,-0.05 1.315,0.2 1.686,0.291 0.37,0.092 0.699,0.227 0.617,-0.34 -0.083,-0.568 -0.505,-1.248 -0.617,-1.541 -0.112,-0.294 -0.206,-1.034 -0.392,-1.197 -0.187,-0.164 -0.325,0.294 -0.491,-0.334 -0.166,-0.629 -0.27,-2.657 -0.27,-2.657 0,0 0.322,-0.688 0.34,-0.934 0.018,-0.245 -0.285,-1.331 0.054,-1.83 0.339,-0.499 0.7,-0.777 1.042,-1.04 0.342,-0.264 0.441,-0.365 0.175,-0.845 -0.266,-0.48 -0.63,-1.466 -1.135,-1.649 -0.505,-0.183 -0.887,-0.396 -2.455,0.279 -1.568,0.677 -1.806,0.892 -2.404,0.955 -0.6,0.062 -0.732,-0.037 -1.038,0.124 -0.307,0.161 -0.463,0.821 -1.02,0.725 -0.558,-0.097 -0.945,-0.142 -1.054,-0.921 -0.109,-0.778 0.049,-0.983 -0.341,-1.345 -0.391,-0.361 -0.2,-0.932 -0.2,-0.932 0,0 -0.309,-0.857 -0.616,-0.98 -0.309,-0.123 -0.432,-0.308 -1.049,-0.555 -0.617,-0.247 -0.185,-0.013 -0.986,-0.592 -0.802,-0.58 -1.11,-0.396 -1.295,-1.505 -0.185,-1.11 -0.925,-0.617 -0.679,-2.097 0.247,-1.479 1.401,-2.035 -0.348,-2.22 -1.749,-0.186 -5.821,-1.308 -7.238,-2.412 -1.417,-1.104 -1.911,-2.83 -2.527,-3.939 -0.616,-1.11 -1.356,-2.714 -0.986,-3.701 0.37,-0.986 -0.099,-2.836 -0.099,-2.836 l -0.945,-1.751 -0.248,0.585 c -0.152,0.352 -0.249,0.562 -0.249,0.562 l -1.665,2.083 c 0,0 -0.987,0.493 -2.344,0.986 -1.357,0.494 -2.098,1.357 -3.084,2.097 -0.986,0.74 -2.467,1.727 -3.33,2.344 -0.863,0.617 -1.233,0.74 -2.22,1.727 -0.987,0.987 -1.109,1.604 -2.836,1.604 -1.728,0 -1.851,-0.74 -2.467,0 -0.617,0.74 -0.37,1.85 -1.357,2.96 -0.986,1.11 -0.863,1.974 -2.22,2.837 -1.356,0.863 -0.863,-0 -2.097,1.604 -1.233,1.604 -2.467,3.083 -2.837,3.946 -0.369,0.863 -0.739,1.727 -1.85,2.467 -1.109,0.74 -1.726,0.37 -2.96,1.11 -1.233,0.739 -1.727,0.246 -2.097,1.232 -0.37,0.987 -0.123,1.727 -0.616,2.59 -0.494,0.863 -2.467,0.864 -3.577,0.987 -1.109,0.123 -5.427,-0.493 -7.153,0 -1.726,0.493 -2.714,-0.46 -3.083,0.017 -0.37,0.477 0.246,1.463 0.739,1.957 0.494,0.493 1.48,1.85 1.48,1.85 l -0.493,1.109 c 0,0 0.246,0.863 0.123,1.234 -0.123,0.369 -1.357,0.616 -1.11,0.986 0.247,0.37 0.247,0.617 0,0.986 -0.246,0.37 0.247,0.617 0,1.11 -0.246,0.493 -0.853,1.233 -0.853,1.233 v 1.109 l -0.503,2.346 -1.759,2.095 z"
   style="fill:#677821" /><rect
   style="fill:none;stroke:#000000;stroke-width:0.29998;stroke-linejoin:bevel;stroke-dasharray:none;paint-order:stroke fill markers"
   id="rect2"
   height="4390.293"
   x="0.19998971"
   y="0.19998971"
   ry="0.69917101"
   width="4353.8188" /></svg>
