<?xml version="1.0" encoding="UTF-8" standalone="no"?>
<!-- Generator: Adobe Illustrator 22.1.0, SVG Export Plug-In . SVG Version: 6.00 Build 0)  -->

<svg
   version="1.1"
   x="0px"
   y="0px"
   viewBox="0 0 4354.1187 4390.5933"
   enable-background="new 0 0 1995.865 2834.646"
   xml:space="preserve"
   id="svg1596"
   width="4354.1187"
   height="4390.5933"
   xmlns="http://www.w3.org/2000/svg"
   xmlns:svg="http://www.w3.org/2000/svg"><defs
   id="defs1596" />


<path
   id="Derbyshire_1_"
   fill="#8D9764"
   d="m 2517.8755,2655.1421 c 0.026,-0.11 0.041,-0.175 0.041,-0.175 0,0 -1.206,0.389 -1.479,0 -0.273,-0.389 -2.381,-0.455 -3.207,-0.617 -0.826,-0.161 -1.237,0.191 -2.097,0.494 -0.858,0.303 -0.863,1.479 -0.863,1.479 0,0 -2.097,0.74 -2.534,1.01 -0.438,0.27 -0.796,0.964 -0.796,0.964 l -0.37,0.74 -2.22,0.986 -2.479,2.332 c 0,0 -1.099,1.861 -0.551,2.355 0.547,0.493 -2.644,4.562 -2.985,5.331 -0.341,0.769 -2.248,1.452 -2.33,1.558 -0.082,0.106 -2.363,0.473 -2.363,0.473 l 0.794,1.899 -0.794,0.976 c 0,0 -1.625,-0.246 -1.893,0.821 -0.269,1.068 -0.34,3.002 -0.34,3.002 l -3.092,0.37 -2.97,1.182 -1.594,-1.059 -2.343,1.059 -1.85,-0.688 -0.987,1.604 c 0,0 0.123,3.206 0.987,4.069 0.863,0.863 0.986,1.48 0.862,1.695 -0.123,0.216 -0.862,2.992 -0.862,2.992 l -1.232,2.225 c 0,0 -1.604,0.118 -2.574,0.241 -0.803,0.103 -1.463,0.55 -2.024,1.256 -0.116,0.146 -0.229,0.304 -0.336,0.471 -0.632,0.978 -1.36,0.765 -2.327,0.649 -0.967,-0.115 -2.235,-0.118 -3.347,-0.156 -1.11,-0.037 -1.48,0 -1.48,0 0,0 -0.492,-0.986 -0.862,-2.589 -0.37,-1.604 0,-1.974 -0.247,-3.05 -0.247,-1.076 -1.48,-0.65 -2.33,-0.773 -0.849,-0.124 -2.807,-0.247 -2.807,-0.247 l -0.75,-1.019 c 0,0 0.915,-0.745 0.809,-1.426 -0.106,-0.681 -0.348,-0.763 -0.348,-0.763 0,0 0.579,-1.116 0.616,-1.604 0.037,-0.488 0.142,-1.226 0.166,-1.281 0.024,-0.057 0.944,-0.815 1.348,-1.36 0.404,-0.546 -0.403,-1.059 -0.403,-1.059 0,0 0.355,-0.631 1.479,-1.356 1.124,-0.726 0.815,-1.104 0.815,-1.104 0,0 0.165,-1.473 0.326,-2.213 0.161,-0.74 0.339,-0.507 0.907,-0.486 0.568,0.021 1.405,1.336 1.922,1.269 0.516,-0.067 1.584,-1.269 1.584,-1.269 l 0.613,0.72 0.592,0.698 c 0,0 1.874,-1.191 2.445,-1.797 0.57,-0.604 1.032,-0.751 1.648,-1.899 0.617,-1.148 0.864,-1.195 1.041,-2.03 0.176,-0.835 -1.287,-0.521 -1.41,-1.015 -0.124,-0.492 -1.728,-0.247 -1.48,-0.801 0.247,-0.553 0.493,-1.79 0.873,-2.396 0.381,-0.605 2.018,-0.696 2.018,-0.696 l -1.164,-1.288 h -1.727 c 0,0 0,0 -0.74,-1.11 -0.74,-1.109 -0.172,-1.727 -1.504,-2.22 -1.333,-0.493 -0.223,-1.398 -1.949,-1.255 -1.727,0.145 -2.96,-0.089 -3.7,-0.65 -0.739,-0.562 -0.616,0.067 -1.85,0 -1.233,-0.068 -2.104,1.324 -2.471,-0.235 -0.367,-1.559 -0.243,-2.177 -0.983,-1.437 -0.739,0.74 0,2.356 -1.85,1.672 -1.85,-0.685 -1.727,-0.562 -2.96,-0.932 -1.233,-0.37 1.357,-0.246 -0.616,-1.356 -1.974,-1.11 -2.824,-1.233 -3.57,-1.851 -0.746,-0.616 -0.746,-1.232 -1.609,-0.739 -0.864,0.493 -0,1.11 -0.864,0.493 -0.863,-0.617 -0.123,-1.469 -1.356,-0.673 -1.233,0.796 -1.479,1.166 -2.097,0.673 -0.616,-0.493 -1.479,0.847 -1.85,-0.995 -0.371,-1.842 -0.284,-1.102 -0.389,-2.458 -0.104,-1.357 0.019,-1.431 -0.845,-2.257 -0.863,-0.827 -0.617,0.406 -0.863,-0.827 -0.247,-1.233 -0.37,-1.479 -0.863,-2.22 -0.494,-0.74 -0.37,-0.247 0,-1.727 0.369,-1.479 -0.123,-1.357 0.616,-1.974 0.74,-0.616 -0.123,-0.246 0.74,-0.616 0.863,-0.37 1.073,0.246 1.215,-1.604 0.142,-1.851 -0.882,-1.48 0,-2.344 0.882,-0.862 1.005,-0.739 0.882,-1.603 -0.123,-0.864 -1.233,-1.11 -0.246,-2.344 0.986,-1.233 0.986,-1.158 1.726,-1.072 0.74,0.086 0.617,0.209 1.233,-0.654 0.617,-0.863 0.123,1.48 1.357,0 1.232,-1.48 0.493,-2.836 1.604,-2.59 1.109,0.246 1.603,-0.494 2.466,-0.987 0.864,-0.493 0.493,-0.731 0.617,-1.537 0.123,-0.806 -0.124,-0.56 0.247,-1.669 0.369,-1.11 0.491,-0.986 0.615,-2.344 0.124,-1.356 0.123,-0.863 0,-1.973 -0.123,-1.11 -0.246,-1.604 -1.603,-2.221 -1.356,-0.616 -1.288,-0.863 -1.445,-2.097 -0.158,-1.233 0.034,-1.233 0,-1.973 -0.034,-0.74 0.404,0.246 0,-1.233 -0.405,-1.48 -0.035,-1.357 -0.651,-2.221 -0.617,-0.863 -0.617,-0.74 -0.74,-1.85 -0.123,-1.11 -1.356,-1.109 -0.246,-1.85 1.109,-0.74 2.289,-0.494 1.638,-1.604 -0.651,-1.11 -0.281,-1.548 -0.775,-2.068 -0.494,-0.521 -1.233,-0.987 -1.974,-1.988 -0.74,-1 -0.616,-1.112 -1.11,-2.104 -0.493,-0.992 -0.123,-1.116 -0.863,-1.609 -0.74,-0.493 -0.492,-0.247 -0.246,-1.727 0.246,-1.48 0,-1.109 0.37,-2.467 0.37,-1.356 0.616,-1.233 -0.37,-2.22 -0.987,-0.986 -0.863,-0.246 -1.85,-1.85 -0.987,-1.604 -2.131,-2.837 -3.532,-3.7 -1.401,-0.864 -1.648,-1.851 -3.252,-2.467 -1.604,-0.617 -1.233,-0.493 -2.713,-0.74 -1.48,-0.247 -1.233,-1.479 -2.591,-1.603 -1.356,-0.124 -2.096,0.616 -2.59,0 -0.493,-0.617 -1.232,-0.015 -1.232,-0.015 v -0.264 l -2.161,-3.422 c 0,0 -0.089,0.101 -0.223,0.253 l 0.223,-0.253 c 0,0 -3.513,-5.304 -3.759,-6.468 -0.247,-1.165 -1.357,-4.386 -1.48,-6.469 -0.123,-2.083 -0.986,-5.07 -1.152,-6.921 -0.166,-1.85 1.029,-2.343 0,-3.083 -1.028,-0.74 -0.205,-1.85 -0.807,-2.75 -0.603,-0.9 1.096,-2.06 0.807,-3.17 -0.289,-1.11 -0.755,-1.878 -1.353,-2.493 -0.598,-0.615 -2.182,-2.934 -1.565,-3.181 0.617,-0.246 0,0 1.304,-0.123 1.304,-0.123 0.917,-0.74 1.614,-2.465 0.697,-1.726 0.782,-1.605 1.646,-3.277 0.863,-1.673 0.74,-1.781 0.493,-3.015 -0.247,-1.234 -1.973,-0.123 -2.945,-1.449 -0.973,-1.327 -0.755,-2.127 -0.755,-2.127 0,0 1.495,-1.356 1.949,-1.871 0.454,-0.515 1.077,-1.412 1.381,-1.829 0.305,-0.417 1.233,-2.22 1.233,-2.22 l 1.296,-1.759 c 0,0 -1.049,-2.064 -1.173,-3.465 -0.123,-1.399 1.11,-2.054 2.221,-2.578 1.109,-0.523 0.617,-2.929 1.726,-3.196 1.11,-0.269 2.96,-0.472 5.027,-1.335 2.066,-0.863 0.152,-1.234 0.029,-3.709 -0.124,-2.475 0.123,-1.102 1.109,-2.211 0.986,-1.11 1.604,0.123 3.454,0.492 1.85,0.371 0.74,-1.109 2.22,-1.109 1.48,0 0.986,1.109 1.727,2.588 0.74,1.477 1.357,1.112 3.188,1.235 1.831,0.123 1.526,0 1.526,0 l 0.048,-0.089 c -0.075,0.442 -0.093,1.041 0.171,1.568 0.494,0.986 1.604,1.234 2.409,2.569 0.805,1.335 0.427,3.968 0.057,5.633 -0.37,1.665 1.109,0.555 2.713,1.172 1.604,0.616 1.233,1.604 2.344,2.343 1.109,0.74 1.479,0.247 2.263,0.688 0.782,0.442 0.327,2.889 0.11,3.629 -0.216,0.739 0,3.191 0,3.191 l 0.771,1.464 c 0,0 0.926,0.524 0.857,0.925 -0.068,0.399 1.425,0.34 1.714,0.287 0.289,-0.053 1.808,0.916 2.301,1.902 0.493,0.986 0.37,1.48 1.152,2.274 0.782,0.793 2.178,0.686 3.411,1.672 1.232,0.986 1.232,0.247 1.85,1.605 0.617,1.357 -0.74,1.725 -0.74,2.939 0,1.214 0.617,1.609 0.617,1.609 0,0 3.206,2.232 3.435,2.438 0.228,0.206 4.705,1.892 4.705,1.892 0,0 -0.863,0.739 -1.803,1.109 -0.94,0.37 -1.28,1.356 -1.897,2.59 -0.616,1.234 -1.109,2.344 -0.986,2.514 0.123,0.171 0.863,0.939 1.357,0.693 0.493,-0.247 1.973,-0.693 1.973,-0.693 l 1.861,0.939 c 0,0 1.346,0.124 2.086,0.658 0.739,0.533 1.85,0.329 2.959,0.822 1.109,0.493 3.152,0.617 3.152,0.617 l 2.274,-1.439 2.695,-0.904 c 0,0 7.788,-0.74 7.995,-0.693 0.207,0.048 2.014,-0.54 2.381,-0.54 0.367,0 3.702,-0.74 4.003,-0.479 0.3,0.26 2.536,1.959 2.736,2.645 0.2,0.686 2.637,0 2.637,0 h 1.696 l 0.893,-2.535 c 0,0 2.097,-0.247 2.713,0 0.616,0.247 3.22,3.577 3.22,3.577 h 1.221 l 0.863,1.603 1.591,-1.089 h 2.232 c 0,0 2.713,0.35 4.44,0.501 1.727,0.152 1.479,-1.015 1.479,-1.015 l 0.059,-0.156 c -0.038,0.099 -0.059,0.156 -0.059,0.156 h 1.974 c 0,0 1.85,0.55 1.973,1.015 0.124,0.465 -2.343,2.066 -2.343,2.066 v 1.482 l 1.356,0.616 c 0,0 1.233,1.233 1.11,1.727 -0.124,0.493 -1.11,1.727 -1.11,1.727 v 1.19 l -2.343,0.672 -1.851,2.084 c 0,0 -0.616,2.467 0,2.714 0.617,0.247 0.125,1.336 0.617,1.654 0.493,0.319 0,2.909 0,2.909 0,0 0.863,2.59 0.986,4.069 0.123,1.48 0.435,3.85 0.073,4.044 -0.362,0.194 -1.06,0.551 -1.06,0.551 0,0 -0.355,0.188 -0.891,0.4 -0.535,0.211 -1.337,0.629 -2.316,0.679 -0.98,0.049 -0.863,-0.132 -1.604,0.612 -0.741,0.744 -1.98,1.439 -2.298,2.025 -0.317,0.587 -1.218,0.295 -1.927,0 -0.709,-0.295 -0.408,-1.034 -1.73,-1.22 -1.321,-0.185 -1.445,-1.418 -2.309,0 -0.863,1.419 -1.479,1.7 -1.85,1.56 -0.371,-0.14 -0.74,4.251 -0.74,4.251 0,0 -0.673,2.021 0.033,3.008 0.707,0.987 1.447,3.454 1.447,3.454 l 0.863,2.713 -0.123,0.74 0.246,1.624 c 0,0 0.93,1.146 -0.398,1.55 -1.328,0.402 -2.438,0.402 -3.178,0.649 -0.74,0.247 -1.48,0.987 -1.604,1.974 -0.123,0.986 -0.444,3.404 0,3.972 0.444,0.566 0.74,1.948 0.74,1.948 l 0.443,2.714 c 0,0 -0.19,1.149 0.423,2.636 0.612,1.486 2.583,6.021 2.823,6.947 0.24,0.926 -0.311,3.297 0.014,3.982 0.325,0.685 1.437,0.868 1.791,1.233 0.354,0.366 0.508,0.663 0.281,1.873 -0.227,1.21 -0.581,2.013 -0.033,2.968 0.548,0.956 1.398,2.3 1.129,3.479 -0.269,1.178 -0.252,2.638 0,3.758 0.254,1.12 1.376,0.626 1.376,0.626 l 1.854,1.11 1.862,0.74 0.493,2.467 c 0,0 -1.143,-0.271 -1.126,0.234 0.016,0.506 0.435,0.824 0.78,1.467 0.345,0.643 1.53,-0.221 0.346,0.643 -1.184,0.864 -3.33,1.85 -3.33,1.85 z"
   style="fill:#677821" /><rect
   style="fill:none;stroke:#000000;stroke-width:0.29998;stroke-linejoin:bevel;stroke-dasharray:none;paint-order:stroke fill markers"
   id="rect2"
   height="4390.293"
   x="0.19998971"
   y="0.19998971"
   ry="0.69917101"
   width="4353.8188" /></svg>
