<?xml version="1.0" encoding="UTF-8" standalone="no"?>
<!-- Generator: Adobe Illustrator 22.1.0, SVG Export Plug-In . SVG Version: 6.00 Build 0)  -->

<svg
   version="1.1"
   x="0px"
   y="0px"
   viewBox="0 0 4354.1187 4390.5933"
   enable-background="new 0 0 1995.865 2834.646"
   xml:space="preserve"
   id="svg1596"
   width="4354.1187"
   height="4390.5933"
   xmlns="http://www.w3.org/2000/svg"
   xmlns:svg="http://www.w3.org/2000/svg"><defs
   id="defs1596" />


<g
   id="Devon__x3C_Group_x3E__1_"
   style="fill:#677821"
   transform="translate(1093.6405,660.66109)">
					<path
   id="Devon_1_"
   fill="#8D9764"
   d="m 1026.403,2517.732 c 0,0 -0.74,0 -0.986,0.617 -0.247,0.617 0.246,1.727 -0.863,1.356 -1.11,-0.37 -1.234,-1.85 0,-2.713 1.233,-0.863 2.22,-1.356 1.85,-1.851 -0.37,-0.492 0.774,-1.356 0.079,-2.22 -0.695,-0.862 -0.327,-2.097 0.229,-1.603 0.556,0.492 2.036,1.356 2.529,0.74 0.493,-0.617 0.493,-1.357 1.233,-1.357 0.74,0 1.11,-0.494 0.74,-0.986 -0.37,-0.494 -0.863,-0.863 -1.357,-0.617 -0.493,0.246 -0.37,0.74 -0.863,0.74 -0.493,0 -0.493,-2.097 -0.493,-2.097 0,0 -0.98,-0.37 -0.983,-0.987 0,-0.616 -0.121,-1.233 0,-1.85 0.12,-0.616 0,-0.986 0,-1.233 0,-0.247 -0.866,0 -1.36,0 -0.494,0 -2.252,0.274 -2.483,-0.109 -0.23,-0.384 -0.477,-1.001 -0.601,-1.617 -0.123,-0.616 -0.863,-1.233 -1.233,-0.74 -0.37,0.493 -1.233,1.604 -1.973,1.479 -0.74,-0.123 -0.617,-1.099 0,-1.658 0.617,-0.561 1.357,-1.301 0.617,-2.164 -0.74,-0.863 -1.85,-2.221 -1.973,-2.59 -0.123,-0.371 0,-1.48 0,-1.48 0,0 0.987,-1.357 0.617,-1.727 -0.37,-0.37 -1.48,0 -1.48,0 0,0 -1.233,-0.576 -1.479,-0.164 -0.247,0.41 -0.494,0.904 -1.11,0.904 -0.616,0 -0.986,-0.749 -1.11,-1.053 -0.123,-0.305 -0.493,-0.551 0,-1.537 0.494,-0.986 0.617,-1.604 0.494,-2.098 -0.123,-0.492 0.616,-1.109 0.493,-1.85 -0.123,-0.74 -0.247,-0.493 -0.37,-1.604 -0.123,-1.109 0.37,-0.617 0.617,-1.48 0.247,-0.862 0.124,-1.479 0.124,-1.479 0,0 -0.617,-0.863 -1.11,-1.11 -0.493,-0.246 -1.11,-0.492 -1.727,-0.616 -0.616,-0.123 -1.357,0.247 -1.481,-0.493 -0.123,-0.74 0,-1.85 0,-1.85 0,0 -0.74,-1.233 -0.863,-1.604 -0.123,-0.37 -0.616,-0.494 -0.986,-0.987 -0.37,-0.493 0,-4.687 0,-4.687 0,0 -0.37,-1.356 -0.986,-1.727 -0.617,-0.37 -1.357,-0.493 -1.727,-1.232 -0.37,-0.74 -0.247,-2.221 0,-2.838 0.247,-0.616 -0.343,-1.85 -0.233,-2.343 0.511,-2.29 -2.43,-4.19 -2.097,-6.456 0.193,-1.309 0.875,-3.062 -0.282,-4.131 -0.306,-0.283 -3,-1.065 -3.163,-0.491 -0.171,0.6 -0.558,1.241 -1.022,1.609 -0.746,-0.706 -1.961,-0.77 -2.822,-1.385 -1.34,-0.957 -1.569,-1.964 -3.167,-2.284 -0.847,-0.17 -2.762,-0.382 -2.829,-1.558 -0.075,-1.314 2.413,-2.214 3.264,-2.796 0.898,-0.614 2.443,-2.37 2.239,-3.599 -0.124,-0.74 -0.247,-1.974 -0.247,-2.837 0,-0.951 -0.405,-2.258 0.062,-3.143 0.22,-0.415 0.61,-0.383 0.853,-0.719 0.374,-0.521 0.44,-1.223 0.815,-1.753 0.796,-1.125 0.942,-1.978 0.242,-3.144 -0.023,-0.039 -1.109,-1.849 -1.109,-1.849 0,0 -1.233,-1.851 -1.356,-2.22 -0.123,-0.37 -0.759,-1.599 -0.812,-1.849 -0.099,-0.463 -1.249,-0.921 -1.491,-1.62 -0.5,-1.449 0.778,-2.118 0.804,-3.543 -2.097,0.068 -4.346,0.363 -6.461,0.17 -1.105,-0.102 -4.526,-0.29 -5.113,-1.299 l -0.088,0.346 c 0.133,-0.199 0.197,-0.414 0.149,-0.654 -0.186,-0.925 -0.37,-2.034 0,-2.959 0.37,-0.926 -0.37,-1.11 0.555,-2.591 0.925,-1.479 0.925,-2.405 0.925,-4.255 0,-1.85 0.556,-2.404 0.185,-3.515 -0.37,-1.11 -0.37,-2.405 -0.185,-3.146 0.185,-0.74 0,-2.404 1.48,-2.404 1.479,0 4.069,0 5.365,0.185 1.296,0.185 2.775,0.555 3.885,0.925 1.109,0.37 1.479,0.555 3.33,1.11 1.85,0.555 3.515,2.22 4.255,2.96 0.74,0.74 4.255,2.22 6.475,1.85 2.22,-0.369 4.44,-0.555 5.92,-2.035 1.481,-1.479 2.961,-3.515 3.885,-4.994 0.925,-1.48 2.035,-3.146 2.775,-3.7 0.74,-0.556 1.48,-0.186 2.035,-0.925 0.555,-0.74 1.295,-2.59 1.48,-3.33 0.185,-0.74 0.74,-1.48 1.295,-1.295 0.555,0.185 1.109,0.555 0.925,1.295 -0.185,0.74 0.185,1.479 0.925,0.925 0.74,-0.556 -0.555,-1.48 0.74,-0.556 1.295,0.926 1.479,0.74 1.109,1.851 -0.37,1.11 -0.739,1.665 -1.109,2.405 -0.37,0.74 1.109,2.926 0.74,1.109 -0.37,-1.815 0.74,-2.035 1.295,-2.96 0.555,-0.925 0.555,-1.85 0.555,-2.774 0,-0.926 0.185,-1.295 0.74,-1.851 0.555,-0.555 1.665,-1.109 2.22,-1.479 0.555,-0.37 0.74,-0.74 2.035,-0.74 1.295,0 2.22,0 2.59,-0.74 0.37,-0.74 0.74,-1.295 1.48,-1.109 0.74,0.185 1.48,0.369 2.405,0.925 0.925,0.555 2.775,0.925 2.775,0.925 0,0 -1.665,-1.85 -2.775,-2.405 -1.11,-0.555 -3.33,-0.739 -3.885,-0.555 -0.555,0.184 -1.11,1.11 -2.96,1.479 -1.85,0.37 -3.33,0.186 -3.7,0.926 -0.37,0.74 -1.665,0.74 -2.035,1.479 -0.37,0.74 -0.185,2.035 -0.925,1.665 -0.74,-0.37 -3.145,-1.109 -3.145,-2.22 0,-1.111 -0.37,-3.146 -0.556,-3.885 -0.185,-0.74 -0.185,-4.625 -0.185,-4.625 0,0 -2.035,0 -2.405,-0.74 -0.37,-0.74 0.925,-2.035 0,-2.59 -0.925,-0.556 -1.295,-0.74 -1.85,-1.665 -0.556,-0.926 -0.185,-0.555 1.85,-1.11 2.035,-0.555 3.515,-0.185 3.7,-1.665 0.185,-1.479 0.555,-2.59 0.37,-3.33 -0.185,-0.74 0.74,-1.85 -0.37,-2.404 -1.11,-0.556 -2.775,-0.556 -2.775,-1.295 0,-0.74 0,-1.11 1.295,-1.11 1.295,0 2.405,0.739 2.405,-0.37 0,-1.11 0.555,-1.48 1.85,-1.48 1.295,0 2.035,0.186 3.515,-0.555 1.48,-0.74 2.96,-1.48 3.885,-1.665 0.925,-0.185 2.035,0 2.96,-0.37 0.925,-0.37 2.59,-0.37 3.146,-0.555 0.555,-0.186 2.405,-1.11 3.145,-0.74 0.74,0.37 2.22,0.925 2.775,1.48 0.555,0.555 1.479,0.555 2.22,-0.186 0.741,-0.741 1.295,-1.665 3.515,-1.479 2.22,0.185 5.55,-0.186 6.845,-0.37 1.295,-0.186 1.665,-1.48 2.96,-1.665 1.295,-0.185 2.404,-0.925 3.33,-0.74 0.925,0.185 0.925,0.556 2.034,0.925 1.11,0.37 1.665,-0.369 2.775,-0.369 1.11,0 2.035,-0.926 2.035,-0.926 0,0 1.295,-1.109 2.405,-0.555 1.109,0.555 1.85,1.109 3.33,0.925 1.48,-0.184 2.035,-0.925 2.775,-1.85 0.74,-0.925 1.85,-1.851 2.59,-0.925 0.74,0.925 1.48,1.109 4.811,1.664 0.916,0.152 1.79,0.306 2.603,0.455 l -0.076,-0.014 c 0,0 -0.861,2.333 -0.738,3.196 0.123,0.863 0.109,2.467 0.363,3.33 0.254,0.863 -0.757,0.863 -0.375,2.344 0.382,1.479 1.021,2.22 0.332,2.96 -0.689,0.74 -2.17,1.356 -3.526,1.479 -1.356,0.124 -4.07,0.863 -5.057,0 -0.986,-0.863 -1.85,-1.232 -3.207,-0.986 -1.356,0.247 -2.836,-0.37 -2.836,0.74 0,1.11 0,4.069 0,4.81 0,0.741 0.986,4.563 1.48,4.934 0.494,0.371 2.59,3.33 3.823,3.576 1.233,0.247 4.316,2.097 4.687,2.344 0.371,0.247 3.207,3.206 4.194,3.453 0.986,0.247 4.44,1.356 5.55,1.48 1.109,0.123 4.193,2.59 4.193,2.59 0,0 0.37,1.604 2.22,1.727 1.85,0.123 1.603,-0.74 3.207,0 1.603,0.74 2.959,0.739 2.836,1.973 -0.123,1.234 -0.493,3.701 -0.986,4.194 -0.494,0.493 -1.356,1.85 -1.11,2.836 0.247,0.987 0.37,1.727 2.837,1.851 2.467,0.123 5.427,1.109 6.537,0.74 1.11,-0.371 1.603,-0.987 1.603,-0.987 0,0 0.986,-3.206 1.11,-3.7 0.123,-0.493 1.233,-0.369 2.097,-0.739 0.864,-0.37 1.603,-0.987 3.083,-0.864 1.48,0.124 1.974,0.863 3.084,1.11 1.109,0.247 3.576,-0.493 4.686,-0.246 1.11,0.246 1.727,0.616 1.851,0.986 0.124,0.37 -0.246,0.987 0.987,1.233 1.233,0.246 2.96,-0.247 3.207,0.863 0.247,1.109 -0.74,4.687 0,5.797 0.74,1.109 0.74,1.85 2.22,1.727 1.48,-0.123 3.453,-0.59 4.316,0.014 0.864,0.603 2.097,1.466 2.837,2.206 0.74,0.74 7.277,5.427 7.277,5.427 0,0 6.043,0.37 6.783,0 0.739,-0.37 2.837,-1.233 4.07,-0.863 1.233,0.37 1.85,1.48 1.603,1.85 -0.246,0.371 -1.726,3.7 -1.973,4.934 -0.247,1.233 1.093,1.85 2.026,2.59 0.933,0.74 1.303,1.604 2.167,1.974 0.864,0.37 1.234,0.863 2.343,0 1.11,-0.863 0.987,-1.11 2.59,-1.48 1.603,-0.37 2.713,-1.109 4.563,-1.233 1.849,-0.123 3.083,-0.246 3.083,-0.246 0,0 -0.124,5.426 0,5.92 0.124,0.493 0.864,1.727 0.864,1.727 l 2.22,1.727 v 2.221 c 0,0 1.233,0.123 1.48,0 0.246,-0.124 1.109,0.055 1.109,0.055 h 1.233 l 0.863,-0.549 0.863,0.549 c 0,0 0.739,0.425 0.986,0 0.247,-0.425 1.357,-0.425 1.357,-0.425 0,0 0.616,1.479 0.616,1.973 0,0.494 0,2.837 0,2.837 l 1.48,1.233 v 0.74 1.356 c 0,0 0.492,0.616 1.727,1.233 1.233,0.616 2.343,0.986 3.33,1.233 0.986,0.246 2.343,-0.37 2.836,0 0.494,0.37 1.604,0.246 1.481,1.109 -0.123,0.864 -0.37,0.986 -0.74,2.221 -0.37,1.233 -1.109,0.74 -2.59,1.356 -1.481,0.616 -2.221,0.863 -2.837,1.233 -0.616,0.37 -1.727,1.109 -1.727,1.109 l -0.739,1.48 -0.124,0.986 1.727,0.987 h 0.74 l -0.493,2.343 -0.74,0.987 -0.74,1.974 0.376,2.474 0.176,-0.134 c -0.688,0.529 -1.545,1.178 -2.402,1.607 -1.11,0.555 -1.295,0.185 -2.405,0.74 -1.109,0.555 0.926,-0.186 -1.109,0.555 -2.035,0.741 -3.7,1.109 -5.365,0.925 -1.665,-0.184 -3.145,-0.37 -4.07,-0.555 -0.925,-0.186 -2.035,-0.74 -2.96,0 -0.925,0.739 -1.11,2.22 -1.11,2.774 0,0.554 -0.186,1.295 -1.295,1.295 -1.11,0 -2.035,-0.185 -4.07,-0.185 -2.035,0 -4.625,0.37 -5.92,0.185 -1.295,-0.185 -4.07,0.37 -5.18,0.556 -1.11,0.185 -2.96,0.555 -4.44,1.295 -1.48,0.739 -2.22,0.555 -2.96,1.479 -0.74,0.926 -0.74,1.295 -1.295,2.221 -0.555,0.925 -0.186,1.85 -0.74,2.59 -0.555,0.74 -0.74,1.665 -1.48,2.22 -0.74,0.555 -0.74,0.555 -0.74,0.555 0,0 -0.37,-0.37 -2.035,0.37 -1.665,0.74 -2.59,1.11 -3.7,1.665 -1.11,0.556 0,-0.739 -1.11,0.556 -1.11,1.295 -0.925,1.479 -1.85,2.219 -0.925,0.74 -2.22,0.926 -2.96,0.556 -0.74,-0.37 -1.85,-0.37 -2.96,-0.925 -1.11,-0.555 -2.22,-0.555 -2.22,-1.295 0,-0.74 0.925,-0.186 1.109,-1.48 0.186,-1.295 0.186,-1.295 -0.555,-2.59 -0.74,-1.295 -1.665,-1.109 -1.85,-2.22 -0.186,-1.11 0.185,-1.295 -0.556,-2.59 -0.739,-1.296 -1.109,-1.296 -1.665,-2.405 -0.555,-1.11 -1.295,-0.555 -1.48,-1.11 -0.186,-0.555 -1.48,-2.405 -2.59,-2.774 -1.11,-0.37 -0.74,-1.665 -1.11,-0.37 -0.37,1.295 0.555,1.295 1.11,2.22 0.555,0.925 1.11,1.11 1.295,2.22 0.185,1.11 -0.185,0.556 0.555,2.035 0.74,1.48 1.48,0.925 1.665,2.22 0.185,1.295 0.185,3.146 0.555,4.996 0.37,1.85 0.925,3.33 1.11,3.885 0.185,0.555 1.295,-0.186 1.295,-0.186 0.185,1.48 0.185,0.74 -0.74,2.405 -0.925,1.665 -0.37,1.479 -1.85,2.405 -1.48,0.925 -1.48,0.74 -1.85,2.774 -0.37,2.035 1.295,0 -0.37,2.035 -1.665,2.035 -1.665,2.59 -2.59,3.515 -0.925,0.926 -1.11,0.926 -1.665,2.775 -0.556,1.85 -0.37,1.665 -1.11,3.7 -0.74,2.034 -0.74,3.885 -0.74,5.55 0,1.665 -0.37,1.48 0.37,2.59 0.74,1.11 -0.37,0.37 0.74,1.11 1.11,0.739 1.85,0.739 2.405,1.665 0.555,0.925 1.11,1.109 -0.37,1.109 -1.48,0 -0.555,-0.925 -1.48,0 -0.925,0.926 -1.11,2.035 -2.035,1.48 -0.925,-0.555 -1.295,-2.035 -1.85,-1.48 -0.555,0.555 -0.555,0.371 -1.48,1.666 -0.925,1.295 0,-0.556 -0.925,1.295 -0.925,1.85 -0.185,2.219 -0.37,3.145 -0.185,0.925 0.556,-0.37 -0.185,0.925 -0.741,1.295 -0.555,1.851 -0.186,2.96 0.37,1.11 -0.185,1.11 1.48,1.665 1.665,0.556 2.405,0.556 3.145,0.74 0.74,0.184 1.11,-0.185 2.035,0 0.925,0.185 2.035,-0.925 2.22,0.185 0.185,1.11 0.74,1.48 -0.74,2.035 -1.48,0.555 -1.665,0.926 -1.11,1.48 0.555,0.555 0.555,0.369 -0.37,1.109 -0.925,0.74 -1.295,0.37 -1.109,1.666 0.185,1.295 0.555,-0.371 0.185,1.295 -0.37,1.664 -0.185,1.85 -0.37,2.959 -0.185,1.11 -0.74,0.74 -1.479,1.48 -0.74,0.74 -0.37,2.035 -1.48,1.85 -1.11,-0.185 -1.85,-0.925 -2.775,-1.109 -0.925,-0.186 -1.11,-0.37 -1.295,0.925 -0.185,1.295 0.555,0.925 -1.295,2.034 -1.85,1.111 -1.665,0.926 -3.145,1.666 -1.48,0.74 -2.405,0.74 -2.96,1.664 -0.555,0.926 -1.665,2.406 -2.22,3.33 -0.556,0.926 -1.11,3.146 -1.48,3.886 -0.37,0.739 -0.74,2.405 -0.74,3.515 0,1.11 -0.185,1.48 -0.37,2.775 -0.185,1.295 -0.74,2.035 -0.555,2.775 0.185,0.739 1.665,2.034 1.665,2.034 0,0 0.555,0.925 -0.555,1.11 -1.11,0.186 -1.295,-0.37 -2.96,-0.186 -1.665,0.186 -1.295,0.186 -2.221,1.11 -0.925,0.925 -0.925,1.851 -2.404,2.22 -1.48,0.37 -2.59,0.186 -2.59,0.186 0,0 -1.295,-0.74 -1.295,-1.295 0,-0.555 -0.185,-1.11 -1.295,-1.666 -1.11,-0.555 -2.035,-0.369 -2.59,-0.739 -0.555,-0.37 0,-1.665 0,-1.665 0,0 -0.74,-0.925 -1.479,-0.186 -0.74,0.74 -1.295,1.48 -1.11,2.59 0.185,1.111 -0.185,2.035 -0.185,2.035 0,0 -1.11,0 -1.665,-0.555 -0.555,-0.555 -1.665,-0.74 -2.59,-0.74 -0.925,0 -1.11,-1.664 -2.59,-2.404 -1.48,-0.74 -2.405,-1.665 -3.33,-2.035 -0.925,-0.37 -2.22,-0.926 -1.666,-1.295 0.556,-0.37 1.666,-0.37 1.666,-0.37 l 0.185,-3.33 -2.035,-2.22 -1.11,-1.11 0.74,-1.11 -1.11,-0.369 -1.665,-0.186 c 0,0 -0.925,-2.59 -1.85,-2.59 -0.925,0 -3.515,0 -3.885,-0.186 -0.37,-0.185 0.185,1.11 -0.37,-0.185 -0.555,-1.295 -0.74,-2.59 -1.665,-2.22 -0.925,0.369 -1.665,0.369 -2.96,0.369 -1.295,0 -2.405,0.556 -2.96,0.556 -0.555,0 -2.22,-0.185 -2.22,0.37 0,0.555 0.555,1.295 -0.74,1.48 -1.295,0.185 -3.145,-0.556 -3.7,-0.556 -0.555,0 -1.85,-1.295 -2.405,-0.925 -0.555,0.37 -0.925,0.186 -0.925,-0.555 0,-0.741 1.11,-1.11 1.11,-1.11 l 1.11,-1.11 c 0,0 -1.665,0 -2.22,0 -0.555,0 -0.925,-0.555 -2.035,-0.369 -1.11,0.185 -2.22,-0.371 -2.96,-0.556 -0.74,-0.185 -1.85,-0.185 -1.48,-1.11 0.37,-0.924 0,-2.22 0,-2.22 0,0 -2.405,0.185 -1.48,-0.739 0.925,-0.926 1.48,-1.48 1.11,-2.59 -0.37,-1.111 0.185,-1.296 -0.74,-2.035 -0.925,-0.74 -1.295,-0.74 -2.22,-0.74 -0.925,0 -1.48,0.925 -2.22,0.74 -0.74,-0.186 -0.926,-0.74 -1.665,-0.926 -0.74,-0.185 -0.186,1.11 -0.74,-0.185 -0.555,-1.296 0.185,-2.035 -0.37,-2.96 -0.555,-0.926 -0.37,-2.405 -0.37,-2.405 0,0 0.925,-0.739 -0.37,-0.925 -1.295,-0.186 -1.295,-0.186 -1.295,-0.186 0,0 0,-1.85 0.37,-2.959 0.37,-1.111 0.555,-2.221 0.74,-2.775 0.185,-0.555 -0.186,-1.11 0.925,-1.665 1.11,-0.556 1.665,-0.925 2.035,-1.665 0.37,-0.74 0.74,-1.85 0.555,-2.59 -0.185,-0.74 -1.85,0.74 -1.85,0.74 0,0 0.185,1.85 -0.74,1.85 -0.925,0 -1.11,-0.74 -1.665,-1.665 -0.555,-0.925 -0.555,-1.295 -1.295,-2.22 -0.748,-0.92 -1.118,-1.845 -1.673,-1.661 -0.059,0.02 -0.101,0.054 -0.128,0.1 z"
   style="fill:#677821" />
					<path
   id="Lundy_Island_3_"
   fill="#8D9764"
   d="m 965.014,2363.937 c 0,0 0.216,1.85 0.092,2.467 -0.123,0.616 -0.123,1.727 0,2.713 0.124,0.986 1.233,1.233 2.437,0.987 1.202,-0.247 0.524,-0.863 0,-1.233 -0.524,-0.37 -0.216,-1.357 -0.093,-1.851 0.123,-0.493 0.123,-2.713 0,-3.207 -0.123,-0.492 -1.11,-1.356 -1.11,-1.85 0,-0.494 -0.246,-1.356 -0.616,-1.356 -0.37,0 -0.617,1.356 -0.617,1.356 z"
   style="fill:#677821" />
				</g><rect
   style="fill:none;stroke:#000000;stroke-width:0.29998;stroke-linejoin:bevel;stroke-dasharray:none;paint-order:stroke fill markers"
   id="rect2"
   height="4390.293"
   x="0.19998971"
   y="0.19998971"
   ry="0.69917101"
   width="4353.8188" /></svg>
