<?xml version="1.0" encoding="UTF-8" standalone="no"?>
<!-- Generator: Adobe Illustrator 22.1.0, SVG Export Plug-In . SVG Version: 6.00 Build 0)  -->

<svg
   version="1.1"
   x="0px"
   y="0px"
   viewBox="0 0 4354.1187 4390.5933"
   enable-background="new 0 0 1995.865 2834.646"
   xml:space="preserve"
   id="svg1596"
   width="4354.1187"
   height="4390.5933"
   xmlns="http://www.w3.org/2000/svg"
   xmlns:svg="http://www.w3.org/2000/svg"><defs
   id="defs1596" />


<path
   id="Dorset_2_"
   fill="#6C833C"
   d="m 2291.3595,3124.3811 -0.376,-2.474 0.74,-1.974 0.74,-0.987 0.493,-2.343 h -0.74 l -1.727,-0.987 0.124,-0.986 0.739,-1.48 c 0,0 1.11,-0.739 1.727,-1.109 0.617,-0.37 1.356,-0.617 2.837,-1.233 1.481,-0.616 2.22,-0.123 2.59,-1.356 0.37,-1.234 0.617,-1.356 0.74,-2.221 0.123,-0.863 -0.986,-0.739 -1.481,-1.109 -0.493,-0.37 -1.849,0.246 -2.836,0 -0.987,-0.247 -2.097,-0.617 -3.33,-1.233 -0.135,-0.067 -1.67,-0.882 -1.629,-1.015 0.117,-0.381 0.705,-0.844 1.013,-1.082 1.11,-0.863 0.369,-2.96 1.726,-3.453 1.357,-0.493 4.07,-0.863 4.811,-1.11 0.741,-0.247 3.33,-0.74 3.824,-0.74 0.492,0 3.453,0 3.453,0 0,0 1.479,0.863 2.343,0 0.863,-0.862 1.604,-2.22 1.974,-2.467 0.305,-0.203 0.863,-0.743 1.049,-0.925 0,0 0.923,1.174 1.54,1.42 0.616,0.246 2.344,0.123 2.467,-0.247 0.123,-0.37 1.479,-0.247 1.974,-0.37 0.492,-0.123 1.973,-0.864 1.973,-0.864 h 1.852 c 0,0 1.479,0.123 1.849,0 0.37,-0.122 1.727,-1.479 1.727,-1.479 l 2.96,-1.356 2.713,-1.357 c 0,0 2.344,-0.863 2.714,-0.74 0.37,0.124 2.96,-0.012 2.96,-0.012 0,0 0.74,1.615 1.233,1.615 0.493,0 2.713,-1.134 2.343,-1.615 -0.369,-0.481 -0.616,-1.591 -0.616,-1.591 l -1.11,-1.233 -0.616,-1.604 v -1.727 l 0.863,-1.357 0.987,-1.479 0.534,-0.74 c 0,0 -1.398,-0.493 -1.892,-1.109 -0.493,-0.617 1.933,-0.74 1.892,-1.604 -0.042,-0.863 0,-3.454 0,-3.454 0,0 -0.082,-1.85 0,-2.713 0.081,-0.863 1.314,-1.727 1.314,-1.727 l 0.74,-0.863 h 2.097 l 0.616,0.863 0.617,0.624 1.479,-1.487 v -1.356 -1.233 h 2.097 v 0.986 l 2.713,0.123 1.85,0.617 v 1.48 l 1.109,1.48 2.097,2.713 1.85,2.097 h 1.851 l 1.974,-1.479 2.467,-1.233 5.377,-1.356 3.626,-1.48 v -1.356 l -4.44,-1.727 0.814,-2.837 c 0,0 1.652,-3.33 2.022,-3.823 0.37,-0.493 2.59,-2.713 3.083,-3.33 0.494,-0.616 0.74,-2.466 0,-2.96 -0.739,-0.493 -1.726,-1.727 -1.726,-1.727 l 1.11,-2.59 1.727,-1.233 h 1.233 l 3.823,0.863 c 0,0 1.233,0.616 1.851,0.986 0.616,0.37 3.576,-0.123 4.316,0.247 0.739,0.369 4.069,3.946 4.069,3.946 l 1.604,1.233 1.974,3.33 v 2.22 l 1.604,1.851 c 0,0 1.603,3.33 1.973,3.576 0.371,0.247 3.454,2.713 3.454,2.713 l 2.22,1.975 1.109,4.069 2.714,1.124 3.7,-1.001 2.96,-3.329 c 0,0 2.22,-0.987 3.083,-1.11 0.863,-0.124 2.221,0.493 2.96,-0.493 0.74,-0.987 1.233,-2.221 2.591,-2.59 1.355,-0.37 2.343,0 2.343,0 0,0 1.974,2.219 2.713,3.329 0.74,1.11 2.714,3.453 2.714,3.453 l 4.193,5.55 c 0,0 0.739,1.604 0.986,1.851 0.247,0.247 1.727,1.479 2.22,0.739 0.494,-0.739 1.728,-2.22 2.097,-2.22 0.37,0 2.467,0 2.467,0 0,0 2.59,0 2.344,0.37 -0.247,0.37 -0.617,2.714 -0.617,2.714 0,0 -0.123,1.727 -0.123,2.22 0,0.493 0.247,1.11 -0.493,1.48 -0.74,0.369 -1.974,0.369 -2.59,0.74 -0.617,0.369 -0.864,1.232 -0.864,1.973 0,0.741 0.247,2.097 0.247,2.097 l -0.247,2.59 c 0,0 1.851,1.974 2.221,1.604 0.37,-0.37 2.483,-0.987 2.483,-0.987 0,0 0.97,0.617 0.847,1.11 -0.123,0.493 0.369,3.577 0.74,4.193 0.369,0.616 0,2.221 0,2.221 l 0.164,2.22 v 2.713 1.604 l 0.575,1.85 0.864,1.727 v 2.098 c 0,0 1.602,0.74 1.973,0 0.37,-0.74 1.357,-1.851 1.727,-1.974 0.37,-0.124 1.727,-0.864 1.851,-0.37 0.123,0.493 0.863,2.097 0.863,2.097 v 1.479 l 2.343,2.221 h 4.44 c 0,0 -0.74,2.467 -1.11,2.713 l 0.01,0.062 c -0.973,-0.095 -1.777,-0.183 -2.103,-0.247 -0.926,-0.186 -1.665,1.109 -2.775,1.48 -1.109,0.369 -2.22,0.185 -2.59,0.739 -0.37,0.556 -0.555,1.48 0,1.48 0.555,0 2.59,-0.556 1.665,0.37 -0.925,0.925 -1.48,0.925 -2.775,0.555 -1.295,-0.37 -2.59,0.37 -4.625,-0.37 -2.034,-0.74 -5.18,-1.11 -7.955,-0.555 -2.774,0.555 -5.55,2.034 -6.29,2.405 -0.74,0.369 -2.404,1.85 -2.404,1.85 l -1.85,1.665 -2.22,1.295 c 0,0 -0.74,-0.556 -0.37,-1.11 0.37,-0.554 1.665,-1.295 1.665,-1.295 0,0 0.186,-1.479 -0.37,-1.665 -0.555,-0.185 -1.295,-1.11 -1.665,-1.85 -0.37,-0.74 -0.37,0 -1.665,0 -1.295,0 -1.11,0.37 -2.59,0.555 -1.48,0.185 -2.59,0.37 -3.7,-0.185 -1.109,-0.556 -2.035,-0.186 -2.404,-1.11 -0.37,-0.925 -0.186,-0.925 -0.37,-2.035 -0.186,-1.11 -2.035,-2.035 -2.22,-0.925 -0.186,1.11 1.295,1.11 1.109,1.665 -0.186,0.555 0.74,-0.185 -0.186,0.555 -0.924,0.74 -0.924,0 -1.85,0.74 -0.925,0.74 -1.109,1.665 -1.109,1.665 0,0 0.185,0.37 -0.37,1.11 -0.556,0.739 0.185,-0.556 -0.556,0.739 -0.741,1.295 -1.85,3.146 -0.369,2.59 1.479,-0.555 2.22,-0.739 2.774,-1.85 0.556,-1.109 1.665,-1.85 1.665,-1.85 l 1.48,-0.555 1.295,0.739 -0.74,1.11 0.37,1.479 -0.186,1.296 -0.896,0.598 -0.769,0.512 -0.925,0.555 c 0,0 2.775,-0.925 3.7,-0.555 0.925,0.37 1.665,0.74 1.85,1.295 0.186,0.555 -1.109,-0.185 0.186,0.555 1.295,0.74 1.295,0.74 1.295,0.74 0,0 0.555,-1.85 1.109,-1.295 0.556,0.555 0.371,2.405 0.371,2.405 0,0 1.664,0.925 1.664,0.185 0,-0.74 0.186,-1.479 0.74,-2.035 0.555,-0.555 1.11,-1.664 1.665,-1.295 0.556,0.37 0.925,0.926 0.74,2.035 -0.184,1.11 -0.925,3.146 -0.74,3.885 0.185,0.74 0.74,1.666 1.295,1.666 0.556,0 2.035,-0.74 2.22,-0.186 0.186,0.555 0.556,0.925 -0.555,1.85 -1.109,0.926 -1.85,1.666 -2.404,2.035 -0.556,0.37 -1.11,1.295 -0.926,2.035 0.185,0.74 0.74,1.109 0.555,2.221 -0.185,1.109 0.186,2.219 -0.925,2.404 -1.109,0.186 -3.145,0.74 -4.439,0.555 -1.295,-0.185 -2.96,0.555 -3.7,0.555 -0.74,0 -2.59,1.666 -3.33,2.035 -0.74,0.371 -1.665,0.74 -2.22,-0.369 -0.556,-1.11 -0.556,-1.48 -0.925,-2.221 -0.37,-0.74 0.369,-0.555 -2.221,-1.109 -2.59,-0.554 -3.699,-0.74 -4.81,-1.48 -1.11,-0.74 -2.035,0.186 -3.145,-1.109 -1.109,-1.295 -0.555,-0.371 -2.404,-1.11 -1.85,-0.74 -2.775,-0.37 -3.33,-0.74 -0.555,-0.37 -0.926,-1.479 -2.405,-1.479 -1.479,0 -2.22,1.295 -3.146,1.295 -0.925,0 -5.92,-0.555 -5.92,-0.555 l -3.885,-0.74 c 0,0 -2.22,0 -3.145,-0.37 -0.926,-0.37 -2.59,-1.295 -3.146,-1.48 -0.555,-0.185 -2.22,0.556 -2.96,0 -0.74,-0.555 -1.479,-0.37 -2.59,-0.925 -1.109,-0.555 -1.85,-0.185 -2.405,0 -0.555,0.186 -0.739,-0.37 -2.034,-0.185 -1.295,0.185 0.185,-1.11 -1.295,0.185 -1.48,1.295 -2.405,2.035 -2.591,2.775 -0.185,0.74 -1.11,2.035 -0.37,2.404 0.74,0.371 1.48,0.555 0.74,1.295 -0.74,0.74 -1.295,1.295 -2.035,1.851 -0.74,0.555 -1.109,1.11 -1.109,1.851 0,0.555 -0.209,1.941 0.312,2.913 0.174,0.323 0.429,0.601 0.798,0.786 1.48,0.74 2.59,0 3.146,0.555 0.555,0.555 1.85,0.371 1.85,1.851 0,1.48 0.925,1.295 0,2.96 -0.925,1.665 -1.665,2.59 -2.035,3.515 -0.37,0.925 -2.034,2.96 -2.034,2.96 0,0 -1.48,0.926 -1.48,0 0,-0.925 0.925,-2.035 0.925,-2.775 0,-0.739 0.185,-2.774 0.185,-3.514 0,-0.74 0.926,-1.48 0.371,-2.406 -0.556,-0.924 -0.186,0.556 -1.666,-1.664 -1.479,-2.221 -14.614,-15.17 -22.015,-19.98 -7.399,-4.81 -8.694,-4.995 -8.694,-4.995 l -2.775,-2.035 c 0,0 -1.48,-1.665 -2.775,-2.034 -1.295,-0.37 -3.145,-0.74 -3.885,-1.11 -0.74,-0.37 -0.74,-0.37 -2.035,-0.925 -1.295,-0.556 -0.74,-1.11 -2.22,-1.48 -1.48,-0.37 -1.479,0 -3.7,-0.555 -2.22,-0.555 -2.59,-0.37 -4.255,-0.74 -1.665,-0.37 -1.851,0 -3.515,-0.925 -1.665,-0.925 -1.48,-1.295 -3.145,-1.11 -1.665,0.186 -0.185,-0.74 -1.665,0.186 -1.479,0.925 -2.59,2.035 -3.33,2.59 -0.244,0.184 -0.529,0.407 -0.842,0.645 m 129.101,6.312 c 0,0.369 1.479,0.493 2.081,0.369 0.602,-0.123 1.865,0.124 1.989,-0.492 0.123,-0.617 0.123,-1.11 0,-1.48 -0.124,-0.37 -0.74,-0.123 -1.233,0 -0.493,0.123 -1.11,-0.37 -1.85,-0.37 -0.74,0 -0.987,0.74 -0.987,0.74 -0.416,0.557 0,0.863 0,1.233 z"
   style="fill:#677821" /><rect
   style="fill:none;stroke:#000000;stroke-width:0.29998;stroke-linejoin:bevel;stroke-dasharray:none;paint-order:stroke fill markers"
   id="rect2"
   height="4390.293"
   x="0.19998971"
   y="0.19998971"
   ry="0.69917101"
   width="4353.8188" /></svg>
