<?xml version="1.0" encoding="UTF-8" standalone="no"?>
<!-- Generator: Adobe Illustrator 22.1.0, SVG Export Plug-In . SVG Version: 6.00 Build 0)  -->

<svg
   version="1.1"
   x="0px"
   y="0px"
   viewBox="0 0 4354.1187 4390.5933"
   enable-background="new 0 0 1995.865 2834.646"
   xml:space="preserve"
   id="svg1596"
   width="4354.1187"
   height="4390.5933"
   xmlns="http://www.w3.org/2000/svg"
   xmlns:svg="http://www.w3.org/2000/svg"><defs
   id="defs1596" />


<path
   id="Durham_1_"
   fill="#606F38"
   d="m 2479.8075,2289.2841 c -0.37,-0.369 -0.493,-1.11 -1.11,-1.233 l -2.806,-1.542 c -0.277,-0.277 0.093,-0.832 0.647,-1.479 l 0.186,-0.706 c -0.465,0.108 -2.578,0.835 -2.189,0 0.388,-0.836 0.996,-0.842 0.523,-1.145 -0.472,-0.302 -2.662,-0.734 -2.498,-1.145 0.164,-0.409 -0.021,-1.391 -0.451,-1.194 -0.43,0.196 -1.249,1.836 -2.06,1.62 -0.812,-0.215 -1.554,-1.243 -1.489,-1.646 0.065,-0.403 1.125,-0.531 0.117,-0.848 -1.009,-0.315 -3.237,-0.396 -3.237,-0.396 0,0 0.555,-1.857 0,-1.942 -0.556,-0.084 -2.495,-0.104 -3.428,-0.244 -0.933,-0.14 -2.308,-0.308 -3.301,-0.663 -0.992,-0.354 -1.909,-0.552 -2.337,-0.572 -0.428,-0.021 -0.555,1.387 -0.833,1.758 -0.277,0.369 -2.937,0.739 -3.965,0.462 -1.029,-0.277 -2.047,-0.37 -2.417,0.185 -0.37,0.556 0.185,1.388 0,3.146 -0.184,1.757 -1.295,3.885 -1.295,3.885 l -1.11,3.146 c 0,0 -3.793,-2.961 -4.07,-2.868 -0.277,0.093 -1.572,-2.949 -1.572,-2.949 0,0 -1.942,-0.658 -2.22,-0.473 -0.277,0.185 -0.556,2.312 -0.647,2.59 -0.093,0.277 0,2.128 0,2.128 0,0 -0.37,1.203 -1.388,2.127 -1.018,0.925 -0.462,0.647 -2.683,2.498 -2.22,1.85 -3.58,2.59 -5.49,3.145 -1.91,0.555 -3.39,1.727 -4.685,1.048 -1.295,-0.678 -2.867,-1.788 -3.792,-2.436 -0.926,-0.647 -3.146,-2.299 -4.718,-2.306 -1.573,-0.01 -1.949,-0.747 -2.362,-1.395 -0.413,-0.648 -0.125,-0.647 -1.795,0.277 -1.67,0.926 -2.133,1.573 -3.891,2.221 -1.758,0.648 -3.607,1.109 -5.457,1.479 -1.85,0.37 -2.682,0.925 -3.977,1.11 -1.296,0.185 -0.833,-1.572 -1.758,-1.295 -0.044,0.013 -0.084,0.025 -0.12,0.038 l 0.12,-0.038 c 0,0 1.018,-2.59 0.833,-3.793 -0.186,-1.202 -0.648,-6.845 -0.833,-8.14 -0.185,-1.295 0.376,-3.237 -0.876,-3.515 -1.252,-0.278 -2.361,0.832 -3.194,-0.556 -0.832,-1.388 -0.277,-3.515 -1.202,-4.162 -0.925,-0.647 -4.995,-2.96 -6.383,-4.532 -1.387,-1.573 -2.361,-2.775 -3.771,-4.07 -1.41,-1.295 -2.179,-1.85 -3.32,-4.07 -1.142,-2.22 -1.882,-5.272 -1.512,-6.383 0.37,-1.109 2.916,-2.753 3.423,-3.699 0.508,-0.946 0.832,-1.267 0.647,-2.252 -0.185,-0.986 -0.462,-1.042 -1.295,-1.522 -0.833,-0.481 -1.388,-0.296 -2.405,-0.666 -1.017,-0.37 -1.353,-0.122 -1.971,-1.078 -0.619,-0.957 0,-0.217 -1.513,-1.974 -1.512,-1.758 -2.621,-2.775 -1.512,-3.979 1.11,-1.202 1.48,-3.699 2.22,-4.81 0.74,-1.11 1.666,-1.295 1.48,-3.146 -0.185,-1.85 0.277,-4.162 0.37,-5.271 0.093,-1.11 1.018,-3.33 1.388,-3.979 0.37,-0.646 0.988,-1.85 0.679,-2.959 -0.309,-1.11 0,-1.698 0,-1.698 0,0 1.079,-0.06 1.911,-0.522 0.832,-0.462 2.59,-1.109 3.33,-0.647 0.74,0.463 1.85,1.388 2.775,1.758 0.925,0.37 2.903,1.11 2.903,1.11 0,0 0.796,0.739 1.259,0.369 0.463,-0.369 1.665,-2.63 1.942,-3.396 0.277,-0.766 0.277,-1.598 1.295,-1.969 1.018,-0.369 1.485,0.74 2.454,0 0.969,-0.739 0.365,-1.757 1.73,-2.867 1.365,-1.109 1.735,-0.601 2.568,-2.15 0.832,-1.549 0.756,-2.098 0.756,-2.098 0,0 3.417,-0.554 3.689,-0.561 0.271,-0.01 1.618,0.729 1.916,0.847 0.299,0.116 0.565,0.882 2.189,-0.353 1.624,-1.235 2.447,-1.55 4.129,-2.225 1.682,-0.676 2.411,-0.808 3.447,-2.012 1.037,-1.204 1.543,-2.381 2.75,-2.629 1.207,-0.249 1.346,-0.158 2.583,0.543 1.236,0.699 1.31,0.776 2.136,1.035 0.824,0.26 0.986,0.429 1.842,1.092 0.855,0.664 0.8,0.975 2.219,1.034 1.418,0.06 1.945,0.359 2.406,0.815 0.461,0.457 0.512,0.436 0.265,0.823 -0.247,0.387 -0.417,1.916 0.146,1.917 0.563,10e-4 2.826,-0.956 2.826,-0.956 0,0 3.304,-1.667 3.706,-2.333 0.402,-0.666 1.023,-4.712 1.109,-5.272 0.087,-0.561 0.277,-0.821 0.83,-1.662 0.552,-0.841 0.814,-2.798 1.47,-3.527 0.656,-0.729 1.335,-1.758 1.966,-1.899 0.631,-0.141 2.584,-0.365 3.406,-0.321 0.822,0.044 1.778,0.532 2.102,-0.01 0.322,-0.538 0.332,-0.842 1.245,-0.893 0.913,-0.05 0.853,0.6 2.043,0.07 1.189,-0.529 2.806,-1.637 3.169,-2.174 0.363,-0.537 0.692,-0.323 1.246,0 0.556,0.323 1.295,1.249 1.851,1.341 0.555,0.093 1.572,0.463 2.405,0.463 0.832,0 3.731,1.758 4.271,2.035 0.539,0.277 1.094,1.202 1.279,1.48 0.185,0.277 0.739,0.925 0.925,1.572 0.185,0.647 0,1.479 0.832,1.387 0.833,-0.092 1.665,-0.185 2.312,-0.739 0.648,-0.556 2.868,-1.665 3.423,-2.498 0.555,-0.832 1.572,-1.295 1.942,-0.925 0.37,0.37 0.283,0.647 0.512,1.388 0.229,0.741 0.506,1.479 0.413,2.497 -0.093,1.018 0.925,1.572 1.296,1.572 0.369,0 3.329,0.278 4.069,0.093 0.74,-0.185 4.163,-0.081 4.44,0.746 0.277,0.827 -0.37,3.786 0,4.064 0.369,0.277 0.74,3.237 0.925,4.255 0.185,1.018 0.648,2.867 0.925,3.793 0.277,0.924 0.832,0.924 0.647,2.404 -0.185,1.48 -0.852,1.758 0.037,1.942 0.888,0.186 2.263,0.278 4.073,0.186 1.81,-0.093 3.845,1.295 4.585,-0.278 0.739,-1.572 1.11,-1.387 1.572,-3.33 0.462,-1.941 -0.555,-2.404 0,-4.069 0.555,-1.665 1.768,-3.053 2.087,-3.053 0.318,0 4.758,-0.555 4.758,-0.555 l 3.068,-1.261 -0.127,-0.296 c 0.146,0.348 0.333,0.767 0.574,1.279 1.48,3.145 3.515,8.14 3.515,9.805 0,1.665 0,5.55 1.11,8.14 1.109,2.59 4.255,5.551 4.81,6.476 0.556,0.925 -0.555,1.295 2.035,3.515 1.319,1.132 2.407,2.571 3.837,3.576 0.919,0.646 1.994,1.017 2.976,1.553 0.981,0.535 2.323,1.088 2.93,2.079 0.302,0.492 0.753,1.858 -0.227,2.003 -0.698,0.102 -0.951,-0.901 -1.669,-0.99 0.101,0.224 0.083,0.568 0.057,0.804 -0.642,-0.099 -1.066,0.296 -0.875,0.966 0.369,1.295 0.925,2.404 1.664,4.07 0.74,1.664 1.141,1.664 2.051,2.959 0.91,1.296 0.91,1.296 0.91,2.405 0,1.11 0.925,2.405 0,2.591 -0.926,0.185 -0.926,-2.035 -2.59,0 -1.666,2.034 -1.666,2.034 -1.666,2.034 0,0 1.295,1.48 2.035,1.296 0.74,-0.186 2.488,-0.556 2.632,-1.11 0.144,-0.556 0,1.85 0,1.85 0.514,1.11 1.278,1.48 0.063,2.22 -1.215,0.74 -1.4,0.556 -2.325,1.851 -0.925,1.295 -1.85,2.59 -1.85,2.59 -1.284,1.604 -2.218,1.358 -4.09,0.56 -0.752,-0.32 -1.551,-1.242 -2.362,-0.814 l -1.441,-0.608 c 0,0 -0.862,2.403 -0.863,3.207 0,0.803 -0.376,2.89 -2.803,2.811 v 3.603 l -0.033,3.453 c 0,0 0.246,2.467 0,2.836 -0.247,0.371 -0.247,1.727 0.615,1.974 0.863,0.247 4.24,0.822 4.525,1.398 0.285,0.575 0.162,1.037 -0.578,1.546 -0.74,0.51 -1.493,-0.487 -1.548,1.121 -0.056,1.608 0.77,2.225 -0.444,2.225 -1.215,0 -2.537,1.053 -2.537,1.053 0,0 -0.075,0.333 -0.65,0.675 -0.575,0.341 -1.587,0.366 -1.732,0.461 -0.146,0.094 -2.834,1.759 -3.388,2.005 -0.554,0.247 -1.047,1.226 -1.663,1.106 -0.617,-0.12 -1.11,0.374 -1.974,-0.613 -0.863,-0.986 -1.974,-1.233 -1.974,-0.739 0,0.493 -0.644,1.232 -0.877,0.369 -0.233,-0.863 -0.014,-0.986 0,-1.973 0.014,-0.987 -0.049,-1.226 -0.326,-1.661 l -1.052,-1.304 c -0.111,0.034 -0.259,0.071 -0.458,0.129 -0.863,0.246 -1.109,0.986 -1.356,0 -0.247,-0.987 -0.616,-1.48 -1.11,-0.987 -0.493,0.493 -0.863,0.134 -0.74,1.485 0.124,1.352 0.247,1.969 -0.616,1.969 -0.863,0 -2.097,1.109 -1.851,0 0.247,-1.11 1.046,-0.987 -0.031,-1.728 -1.078,-0.739 -1.448,-0.739 -1.695,-1.603 -0.246,-0.863 -0.616,-1.357 -1.356,-1.851 -0.739,-0.493 -1.233,-1.479 -1.85,-0.74 -0.616,0.74 -0.74,1.479 0,1.974 0.74,0.493 1.11,0.986 0.863,2.22 -0.247,1.234 -0.247,2.837 0.123,3.207 0.37,0.37 1.233,1.974 0.74,1.974 -0.493,0 -1.233,-1.11 -0.986,0 0.246,1.109 1.109,0.863 0.863,1.85 -0.247,0.986 0.862,1.974 -0.247,0.986 -1.11,-0.986 -2.129,-0.863 -1.866,-1.603 0.263,-0.74 0.022,-1.604 -0.042,-1.974 -0.064,-0.37 -0.384,-1.48 -0.595,-1.604 -0.21,-0.123 -0.21,0 -1.443,-0.123 -1.233,-0.124 -2.097,-0.246 -1.356,-1.11 0.739,-0.863 1.479,-1.85 0.492,-1.727 -0.987,0.123 -1.356,0.246 -1.479,1.233 -0.123,0.986 -0.616,0.863 -0.74,1.356 -0.123,0.493 0.494,1.479 -0.123,0.493 -0.616,-0.986 0.74,-1.356 0,-2.22 -0.74,-0.864 -1.356,-0.74 -2.097,-0.493 -0.74,0.246 0,0.493 0,1.48 0,0.986 1.357,0.862 0.493,1.603 -0.863,0.74 -0.986,1.11 -1.85,0.74 -0.864,-0.37 -1.356,-0.617 -1.727,-1.11 -0.371,-0.493 -0.365,-1.358 -0.735,-1.728 -0.37,-0.369 -0.493,-1.11 -1.11,-1.233"
   style="fill:#677821" /><rect
   style="fill:none;stroke:#000000;stroke-width:0.29998;stroke-linejoin:bevel;stroke-dasharray:none;paint-order:stroke fill markers"
   id="rect2"
   height="4390.293"
   x="0.19998971"
   y="0.19998971"
   ry="0.69917101"
   width="4353.8188" /></svg>
