<?xml version="1.0" encoding="UTF-8" standalone="no"?>
<!-- Generator: Adobe Illustrator 22.1.0, SVG Export Plug-In . SVG Version: 6.00 Build 0)  -->

<svg
   version="1.1"
   x="0px"
   y="0px"
   viewBox="0 0 4354.1187 4390.5933"
   enable-background="new 0 0 1995.865 2834.646"
   xml:space="preserve"
   id="svg1596"
   width="4354.1187"
   height="4390.5933"
   xmlns="http://www.w3.org/2000/svg"
   xmlns:svg="http://www.w3.org/2000/svg"><defs
   id="defs1596" />


<path
   id="East_Riding_of_Yorkshire_1_"
   fill="#606F38"
   d="m 2547.2905,2479.8061 c -0.247,-0.108 -0.548,-0.324 -0.797,-0.46 -0.207,-0.112 -0.418,-0.218 -0.627,-0.325 -1.771,-0.907 -3.561,-1.776 -5.354,-2.64 v -1.202 l 4.167,-7.555 2.188,0.877 c 0,0 -0.212,0.495 -0.337,0.851 -0.126,0.354 1.233,-0.247 1.245,-0.248 0.013,-0 0.625,0.474 0.749,0.565 0.123,0.092 0.549,0.083 1.597,0.137 1.048,0.055 0.622,-0.236 0.888,-0.428 0.266,-0.192 0.331,0.158 0.7,0.363 0.369,0.204 0.657,-0.126 1.561,-0.244 0.903,-0.117 0.784,-0.146 1.281,0.012 0.498,0.157 1.106,-0.157 1.16,-0.918 0.054,-0.762 -0.054,-0.72 0.317,-0.951 0.372,-0.23 0.915,0.364 1.354,0.796 0.439,0.433 -0.184,-0.194 1.042,-0.04 1.226,0.155 0.315,-0.154 0.711,-0.744 0.396,-0.591 0,0 -0.396,-1.137 -0.395,-1.137 0.246,-0.494 0.343,-0.557 0.097,-0.063 2.987,-0.184 2.987,-0.184 0,0 2.344,-1.109 2.735,-1.214 0.392,-0.104 1.458,0.104 1.458,0.104 v -1.781 l 0.483,-0.164 c -0.701,-0.336 -0.394,-0.735 -2.085,-0.979 -1.975,-0.284 -3.111,0.289 -4.564,-0.284 -1.453,-0.572 -1.979,-0.585 -1.915,-1.834 0.064,-1.249 -0.983,-1.804 -0.983,-1.804 0,0 0.555,-0.926 1.541,-0.926 0.987,0 2.221,-1.479 2.714,-1.604 0.493,-0.123 1.11,-0.246 1.356,-1.356 0.246,-1.11 -0.493,-1.233 -0.616,-2.59 -0.124,-1.356 0.123,-2.22 0.123,-2.713 0,-0.494 0.347,-1.974 0.543,-3.207 0.196,-1.233 0.69,-1.479 0.936,-2.22 0.247,-0.74 -0.616,-1.357 -1.232,-1.727 -0.617,-0.371 -0.987,-0.247 -1.11,-1.11 -0.123,-0.863 -0.389,-1.479 -0.935,-2.837 -0.545,-1.356 -0.194,-1.85 0,-2.344 0.194,-0.492 -0.071,-1.109 0,-1.726 0.071,-0.617 -0.565,-0.987 0,-1.851 0.564,-0.863 -0.053,-0.74 0.564,-1.974 0.617,-1.234 0.863,-2.097 0.617,-2.836 -0.247,-0.74 -1.129,-0.247 -1.182,-1.48 -0.053,-1.233 0.194,-0.74 0.688,-1.974 0.494,-1.232 0.987,-2.713 0.987,-2.713 0,0 -0,-1.85 0.493,-1.973 0.493,-0.124 1.689,-0.74 1.153,-1.48 -0.537,-0.74 -0.537,-1.728 -0.537,-2.344 0,-0.616 -0.37,-1.48 -0.247,-2.22 0.124,-0.74 1.222,-0.986 0.92,-2.097 -0.303,-1.109 -1.166,-2.137 -1.412,-2.795 -0.247,-0.658 0.123,-1.275 0.369,-2.385 0.247,-1.11 -0.154,-2.221 1.095,-2.96 1.249,-0.74 2.628,-1.728 3.172,-2.467 0.544,-0.74 0.79,-1.728 1.161,-1.728 0.369,0 1.356,0.124 1.109,-0.863 0,-0.012 -0.01,-0.023 -0.01,-0.034 l 0.01,0.034 c 0,0 -0.387,-0.615 2.027,-0.738 2.413,-0.123 6.482,-0.987 7.1,-0.987 0.618,0 1.851,0 2.714,0 0.862,0 4.069,-0.246 4.687,-0.616 0.616,-0.37 2.619,-1.605 3.221,-1.111 0.603,0.494 0.479,2.098 0.973,2.838 0.494,0.74 1.602,0.986 2.466,1.356 0.864,0.37 1.479,0.987 1.479,0.987 l 2.666,-0.494 c 0,0 0.938,-1.604 0,-2.96 -0.938,-1.356 -1.652,-2.93 0,-3.5 1.651,-0.569 2.515,-0.817 3.008,-1.741 0.494,-0.925 1.48,-0.926 1.357,-2.529 -0.123,-1.603 -0.72,-1.726 0.01,-2.343 0.73,-0.616 2.334,-1.727 3.566,-1.603 1.233,0.123 2.713,-1.48 3.33,-2.467 0.617,-0.987 2.151,-0.96 4.159,-1.221 2.008,-0.26 4.077,0.604 5.077,0.48 1.001,-0.123 1,-0.124 3.59,-2.098 2.59,-1.973 4.934,-3.576 5.304,-3.945 0.37,-0.371 0.493,-2.344 0.863,-2.961 0.37,-0.616 1.481,-1.355 2.467,-1.85 0.986,-0.494 0.986,-1.48 0.863,-2.714 -0.123,-1.234 -0.998,-3.7 0.056,-4.81 1.055,-1.11 2.411,-2.714 3.83,-2.221 1.418,0.494 2.404,-0.162 3.145,1.523 0.74,1.684 0,3.287 1.233,3.781 1.233,0.492 3.7,0.369 4.934,0.739 1.234,0.37 2.713,1.931 3.453,2.322 0.739,0.392 2.097,-0.145 4.316,0 2.219,0.145 6.044,1.131 6.044,1.131 0,0 1.604,-0.616 1.727,-1.727 0.123,-1.111 0,-3.607 0,-3.607 l 0.108,0.04 c 0.855,0.315 1.761,0.662 2.666,1.039 2.22,0.925 3.885,1.665 4.81,2.035 0.926,0.369 3.7,1.295 5.365,2.22 1.665,0.925 3.145,0.74 4.07,2.035 0.925,1.295 2.035,2.774 0.925,3.515 -1.11,0.741 -2.035,1.11 -3.7,1.11 -1.665,0 -4.81,-1.295 -5.92,0 -1.109,1.295 -2.22,2.034 -2.775,2.774 -0.555,0.74 -0.185,1.851 -1.295,2.59 -1.109,0.74 -2.035,1.851 -2.404,2.775 -0.37,0.925 -1.11,3.145 -1.295,3.885 -0.186,0.74 -0.556,3.146 -0.556,4.256 0,1.109 0.37,6.289 1.85,11.47 1.48,5.18 4.44,12.765 4.81,14.8 0.37,2.035 4.625,10.73 8.51,16.28 3.886,5.55 13.136,19.055 14.615,20.905 1.479,1.85 11.101,15.354 13.505,18.685 2.405,3.33 3.33,4.44 3.885,6.104 0.556,1.665 2.035,4.44 2.221,5.92 0.185,1.48 1.479,3.886 0.925,4.625 -0.556,0.74 -3.146,4.256 -3.146,4.256 l -3.33,2.22 c 0,0 0,-1.11 1.295,-2.22 1.296,-1.11 0.926,-0.74 2.035,-2.221 1.11,-1.479 2.405,-1.295 1.295,-3.33 -1.109,-2.035 -1.85,-3.515 -3.515,-4.81 -1.665,-1.295 -3.33,-2.405 -5.18,-3.146 -1.85,-0.739 -3.145,-1.295 -4.995,-1.295 -1.85,0 -2.59,0 -4.811,0.74 -2.22,0.74 -4.069,1.295 -5.92,2.221 -1.85,0.925 -6.475,1.85 -9.25,-0.556 -2.775,-2.405 -10.545,-11.47 -12.58,-12.95 -2.034,-1.479 -3.699,-2.774 -4.069,-3.885 -0.37,-1.109 -0.184,-2.22 -1.11,-3.7 -0.925,-1.479 -2.035,-1.479 -2.96,-2.034 -0.925,-0.556 -3.515,-1.48 -5.735,-1.296 -2.22,0.186 -3.699,1.296 -4.439,1.665 -0.74,0.37 -3.145,1.665 -4.811,2.221 -1.664,0.555 -6.289,1.109 -6.289,1.109 -2.221,0.74 -8.695,0.926 -10.176,0.926 -1.48,0 -4.439,1.109 -5.92,1.109 -1.479,0 -3.145,0.555 -4.07,-0.74 -0.924,-1.295 -2.774,-1.665 -3.885,-2.59 -1.109,-0.925 -2.59,-1.295 -4.994,-0.925 -2.404,0.37 -5.361,1.108 -5.92,1.479 -2.018,1.338 -2.103,4.156 -5.117,4.089 -1.406,-0.032 -2.715,-0.703 -4.138,-0.359 -1.286,0.312 -2.192,1.449 -3.473,1.741 -1.493,0.339 -2.625,-0.587 -3.88,-1.222 -3.525,-1.781 -6.317,3.815 -5.386,3.244 1.146,-0.702 1.653,-2.334 3.101,-2.615 1.31,-0.255 2.541,0.829 3.692,1.255 1.384,0.514 2.312,0.273 3.595,-0.376 1.988,-1.007 5.018,-1.979 6.988,-0.464 0.686,0.527 1.021,1.346 1.201,2.24 l -0.151,-0.601 -2.958,0.33 -4.407,2.926 -3.176,1.937 c 0,0 -2.799,1.807 -2.726,1.986 0.072,0.182 -2.33,1.444 -2.406,1.535 -0.076,0.09 -3.174,2.257 -3.174,2.257 l -2.438,1.354 c 0,0 -0.042,0.093 -0.115,0.254 l 0.115,-0.254 -11.271,-4.03 -5.787,-0.144 -1.505,0.144 -1.604,1.053 c -0.711,0 -1.422,0 -2.134,0 -0.48,0 -0.961,0 -1.441,0 -0.308,0.011 -1.065,-0.01 -1.088,-0.017 z"
   style="fill:#677821" /><rect
   style="fill:none;stroke:#000000;stroke-width:0.29998;stroke-linejoin:bevel;stroke-dasharray:none;paint-order:stroke fill markers"
   id="rect2"
   height="4390.293"
   x="0.19998971"
   y="0.19998971"
   ry="0.69917101"
   width="4353.8188" /></svg>
