<?xml version="1.0" encoding="UTF-8" standalone="no"?>
<!-- Generator: Adobe Illustrator 22.1.0, SVG Export Plug-In . SVG Version: 6.00 Build 0)  -->

<svg
   version="1.1"
   x="0px"
   y="0px"
   viewBox="0 0 4354.1187 4390.5933"
   enable-background="new 0 0 1995.865 2834.646"
   xml:space="preserve"
   id="svg1596"
   width="4354.1187"
   height="4390.5933"
   xmlns="http://www.w3.org/2000/svg"
   xmlns:svg="http://www.w3.org/2000/svg"><defs
   id="defs1596" />


<path
   id="East_Sussex_1_"
   fill="#303B09"
   d="m 2803.3095,3080.8401 c 0,0 1.604,-1.233 1.604,-1.85 0,-0.617 -0.494,-1.233 -0.864,-1.851 -0.37,-0.616 0,-1.727 0,-1.727 0,0 -0.739,-0.369 -1.109,-0.863 -0.37,-0.493 -1.233,-0.123 -1.233,-0.123 0,0 -1.604,1.233 -1.727,1.604 -0.124,0.369 -1.356,0.493 -1.356,0.493 0,0 -0.37,-0.493 -0.617,-0.987 -0.247,-0.492 -3.207,-4.81 -3.207,-4.81 l -0.616,-2.22 c 0,0 -0.986,-1.974 -1.85,-2.344 -0.863,-0.369 -2.837,-1.479 -4.317,-0.986 -1.479,0.493 -4.192,0 -4.192,0 0,0 -2.714,-0.247 -3.7,-0.617 -0.987,-0.369 -1.604,-1.973 -1.604,-1.973 0,0 -1.233,-0.74 -2.097,-0.617 -0.864,0.123 -3.083,-0.74 -3.947,-0.74 -0.863,0 -2.466,0.864 -3.33,1.11 -0.863,0.247 -2.836,0.987 -3.822,0.987 -0.987,0 -2.714,-0.617 -3.454,-1.11 -0.739,-0.493 -0.616,-1.233 -0.739,-1.974 -0.123,-0.741 -1.974,-0.493 -2.467,-0.74 -0.494,-0.246 -2.467,-0.986 -3.084,-1.109 -0.616,-0.123 -2.836,-0.863 -3.206,-0.986 -0.37,-0.124 -0.617,-0.987 -0.74,-1.851 -0.123,-0.864 0,-2.704 0,-2.704 0,0 -1.233,-0.133 -1.604,-0.01 -0.37,0.123 -2.96,-0.987 -3.7,-1.11 -0.739,-0.123 -1.479,-0.617 -2.59,-1.48 -1.109,-0.862 -0.863,-1.109 -1.109,-1.973 -0.247,-0.864 -0.37,-0.986 -1.234,-1.48 -0.863,-0.493 -2.343,0 -2.343,0 0,0 -1.479,0 -2.713,0 -1.234,0 0,-1.233 0,-2.469 0,-1.236 -0.494,-2.341 -0.494,-2.341 0,0 -1.356,-0.37 -2.466,-0.74 -1.11,-0.37 -0.494,-1.851 -0.74,-2.22 -0.246,-0.37 -0.74,-0.247 -1.233,-0.123 -0.494,0.123 -2.591,0.369 -3.207,0.616 -0.616,0.247 -2.22,0.863 -2.22,0.863 0,0 -2.714,0.123 -3.207,0 -0.493,-0.123 -1.973,-1.356 -2.467,-1.727 -0.493,-0.37 -3.206,-0.124 -3.206,-0.124 0,0 -2.467,0.863 -3.084,1.11 -0.616,0.247 -2.343,0.247 -3.083,0 -0.74,-0.247 -1.109,-1.356 -1.356,-1.727 -0.247,-0.37 0,-1.727 0,-1.727 l 0.739,-0.986 c 0,0 -0.492,-0.617 -0.616,-1.077 -0.123,-0.461 -1.233,-0.526 -1.727,-0.403 -0.494,0.123 -1.604,0 -2.59,0 -0.987,0 -2.59,0.123 -3.083,0.562 -0.494,0.438 -4.07,0.179 -5.181,0.055 -1.109,-0.123 -3.946,0 -3.946,0 h -0.135 c 0.086,0 0.135,0 0.135,0 0,0 -0.493,1.728 -0.74,2.714 -0.247,0.986 0.74,2.837 0.74,2.837 v 1.356 c 0,0 -1.233,0.493 -2.467,0.493 -1.234,0 -3.453,1.85 -3.453,1.85 0,0 -2.96,0.74 -3.084,1.48 -0.123,0.74 0.617,2.22 0.617,2.22 l 1.974,1.48 c 0,0 0.246,2.714 0.493,3.206 0.246,0.494 2.59,0 2.59,0 l 0.247,0.863 c 0,0 -0.863,0 -0.987,0.617 -0.123,0.617 -0.739,1.109 -1.233,1.48 -0.493,0.369 0.123,0.986 -0.123,1.85 -0.247,0.863 -0.247,1.233 -1.11,1.727 -0.863,0.494 -0.986,1.48 -0.986,1.48 0,0 0.123,1.232 0.123,2.466 0,1.234 0.246,2.468 0.123,3.454 -0.123,0.986 -0.246,2.466 -0.246,2.466 l -1.48,0.74 h -3.206 c 0,0 -0.74,-0.739 -1.11,-0.986 -0.37,-0.247 -0.369,-0.863 -1.233,-0.863 -0.863,0 -1.233,-0.37 -1.727,0.37 -0.493,0.739 -1.479,1.479 -1.479,1.479 0,0 -1.11,-0.74 -1.48,0 -0.37,0.74 -0.863,2.344 -0.493,2.714 0.37,0.37 0.863,1.973 0.863,1.973 0,0 -0.37,2.714 -0.863,3.207 -0.493,0.493 -0.987,1.604 -0.987,1.604 l -1.109,2.837 c 0,0 -0.37,2.343 -0.37,2.836 0,0.493 -0.247,2.344 -0.247,2.344 l -0.74,2.22 c 0,0 -0.986,1.234 -1.479,1.11 -0.493,-0.124 -2.343,-0.617 -3.453,-0.617 -1.11,0 -1.233,-0.599 -1.479,0.626 -0.247,1.225 0.369,2.211 -0.617,2.088 -0.986,-0.123 -1.974,0.637 -3.083,0.01 -1.11,-0.627 -0.741,-0.75 -2.097,-0.38 -1.357,0.37 -1.727,0.863 -1.604,1.479 0.123,0.617 1.85,4.44 1.85,4.44 0,0 1.357,0.739 1.357,1.356 0,0.617 -0.124,2.344 -0.124,2.344 l -0.068,0.238 c 1.844,0.24 5.894,0.652 6.976,0.808 1.295,0.185 4.811,1.295 6.845,1.479 2.035,0.186 3.7,0.926 4.44,1.11 0.74,0.184 8.51,3.33 9.62,4.07 1.109,0.739 5.734,1.295 7.215,1.665 1.48,0.369 3.7,0.369 4.069,0.925 0.371,0.555 3.146,1.85 4.256,2.59 1.109,0.74 1.664,1.665 2.404,2.22 0.74,0.555 2.405,0 3.33,-0.185 0.926,-0.186 2.405,0.925 2.405,0.925 0,0 4.44,2.775 5.92,3.33 1.48,0.555 3.885,0.925 5.365,0.37 1.48,-0.556 2.405,-2.59 2.775,-3.146 0.37,-0.555 2.59,-2.404 3.33,-3.515 0.74,-1.111 2.961,-2.59 4.07,-3.33 1.11,-0.74 1.85,-3.515 2.59,-4.625 0.74,-1.11 3.516,-3.146 4.625,-3.515 1.11,-0.37 7.585,-2.221 8.141,-2.221 0.555,0 8.14,-2.035 11.1,-2.59 2.96,-0.555 4.625,-1.109 5.365,-1.109 0.74,0 9.435,-2.961 10.359,-3.7 0.926,-0.74 2.035,-0.186 3.516,-1.11 1.479,-0.925 1.665,-2.404 1.85,-2.96 0.186,-0.555 1.48,-1.665 2.775,-2.405 1.295,-0.739 3.699,-2.774 4.439,-3.699 0.74,-0.926 1.295,-1.11 2.775,-1.665 1.48,-0.556 1.665,-0.74 1.48,-1.851 -0.186,-1.109 -1.11,-1.295 -2.035,-2.22 -0.926,-0.925 -2.035,-1.11 -2.035,-1.11 0,0 2.22,-0.555 2.59,0 0.37,0.556 2.035,1.48 2.22,2.035 0.185,0.555 1.851,0.555 2.59,0.74 0.74,0.185 3.886,0.74 5.55,1.109 0.847,0.188 2.218,0.52 3.483,0.873 z"
   style="fill:#677821" /><rect
   style="fill:none;stroke:#000000;stroke-width:0.29998;stroke-linejoin:bevel;stroke-dasharray:none;paint-order:stroke fill markers"
   id="rect2"
   height="4390.293"
   x="0.19998971"
   y="0.19998971"
   ry="0.69917101"
   width="4353.8188" /></svg>
