<?xml version="1.0" encoding="UTF-8" standalone="no"?>
<!-- Generator: Adobe Illustrator 22.1.0, SVG Export Plug-In . SVG Version: 6.00 Build 0)  -->

<svg
   version="1.1"
   x="0px"
   y="0px"
   viewBox="0 0 4354.1187 4390.5933"
   enable-background="new 0 0 1995.865 2834.646"
   xml:space="preserve"
   id="svg1596"
   width="4354.1187"
   height="4390.5933"
   xmlns="http://www.w3.org/2000/svg"
   xmlns:svg="http://www.w3.org/2000/svg"><defs
   id="defs1596" />


<g
   id="Essex__x3C_Group_x3E__1_"
   style="fill:#677821"
   transform="translate(1093.6405,660.66109)">
					<path
   fill="#4B5A26"
   d="m 1759.373,2213.963 c 0,0 0.37,0.186 0.37,0.859 0,0.675 -0.37,0.621 -1.11,0.713 -0.739,0.093 -0.739,0.277 -1.202,0 -0.462,-0.277 0.556,-0.832 0.556,-0.832 l 0.646,-0.74 z"
   id="path1275"
   style="fill:#677821" />
					<path
   fill="#4B5A26"
   d="m 1764.284,2216.984 c 0.162,0 0.763,0.309 0.824,0 0.061,-0.309 -0.062,-0.616 -0.247,-0.801 -0.185,-0.186 -0.616,0 -0.863,0 -0.246,0 -0.555,0.295 -0.555,0.295 0,0 0.678,0.506 0.841,0.506 z"
   id="path1276"
   style="fill:#677821" />
					<path
   fill="#4B5A26"
   d="m 1764.738,2213.408 c 0,0.432 0.37,0.863 0.386,1.11 0.017,0.247 1.279,0.185 1.835,0.21 0.555,0.024 0.739,-0.395 0.678,-0.766 -0.062,-0.37 -0.432,-0.432 -0.925,-0.555 -0.493,-0.123 -0.556,-0.309 -0.925,-0.431 -0.371,-0.123 -0.663,-0.31 -0.663,-0.31 -0.331,-0.174 -0.386,0.311 -0.386,0.742 z"
   id="path1277"
   style="fill:#677821" />
					<path
   fill="#4B5A26"
   d="m 1760.363,2212.052 c 0.065,0.432 0.552,0.678 1.025,0.58 0.475,-0.099 0.821,-0.519 0.978,-0.827 0.155,-0.309 -0.095,-0.616 -0.341,-1.356 -0.247,-0.739 -0.617,-0.185 -1.049,-0.309 -0.432,-0.123 -0.613,0.309 -0.613,0.309 0,0 -0.065,1.171 0,1.603 z"
   id="path1278"
   style="fill:#677821" />
					<path
   fill="#4B5A26"
   d="m 1692.095,2266.441 c 0.185,0.062 0.617,0.555 1.048,0.679 0.432,0.123 0.802,0.431 1.419,0.37 0.616,-0.062 1.294,-0.301 1.603,-0.521 0.309,-0.22 1.357,-0.158 0.679,-0.528 -0.679,-0.37 -0.925,-0.369 -1.665,-0.309 -0.74,0.062 -1.542,-0.184 -1.788,-0.03 -0.248,0.155 -1.296,0.339 -1.296,0.339 z"
   id="path1279"
   style="fill:#677821" />
					<path
   id="Potton_Island_3_"
   fill="#4B5A26"
   d="m 1703.688,2278.801 c 0.062,0.767 0.432,0.775 0.987,0.838 0.555,0.062 0.369,0.801 0.309,1.232 -0.062,0.433 0.123,1.049 0.431,1.11 0.309,0.062 0.309,-1.172 0.37,-1.418 0.062,-0.247 0.494,-0.617 0.679,-1.049 0.185,-0.432 0.308,-1.048 0.548,-1.603 0.24,-0.556 0.254,-1.357 0.48,-1.974 0.226,-0.616 -0.967,-0.185 -1.707,0 -0.74,0.185 -0.555,0 -1.048,0 -0.493,0 -0.74,0.837 -0.74,0.837 -0.116,0.288 -0.371,1.261 -0.309,2.027 z"
   style="fill:#677821" />
					<path
   id="Osea_Island_3_"
   fill="#4B5A26"
   d="m 1696.042,2247.633 c 0,0 0.695,0.371 1.026,0.679 0.33,0.309 0.577,0.617 1.379,0.74 0.802,0.123 0.814,0.123 1.609,-0.37 0.795,-0.493 1.227,-1.418 0.487,-1.604 -0.74,-0.185 -1.593,0.124 -2.061,0 -0.468,-0.123 -1.129,0 -1.415,-0.061 -0.286,-0.063 -1.026,0 -1.026,0 0,0 -0.458,0.35 10e-4,0.616 z"
   style="fill:#677821" />
					<path
   id="Foulness_Island_3_"
   fill="#4B5A26"
   d="m 1712.136,2271.868 c -0.369,0.124 -0.185,1.172 -0.123,1.851 0.062,0.678 -0.062,1.664 -0.679,2.035 -0.616,0.369 -1.479,0.185 -2.281,0.431 -0.802,0.247 -0.925,0 -1.172,0.591 -0.247,0.592 -0.185,1.137 -0.39,1.629 -0.205,0.494 -0.412,0.803 -0.474,1.419 -0.061,0.617 0.309,1.419 0.474,2.035 0.164,0.616 0.328,0.802 0.821,1.171 0.493,0.371 1.296,0.494 1.727,0.68 0.432,0.185 1.419,-0.494 1.851,-0.803 0.431,-0.308 0.739,-1.048 1.172,-1.233 0.432,-0.185 0.616,0 0.616,0 2.034,-1.665 3.515,-3.145 4.81,-4.255 1.295,-1.109 2.96,-2.59 3.885,-4.255 0.926,-1.665 0.556,-2.405 -0.185,-3.146 -0.74,-0.739 -2.405,0.74 -3.146,0.926 -0.739,0.184 -6.536,0.801 -6.906,0.924 z"
   style="fill:#677821" />
					<path
   id="Canvey_Island_3_"
   fill="#4B5A26"
   d="m 1665.332,2291.17 c 0.309,0.37 0.309,0.802 1.048,1.172 0.74,0.37 1.233,0.246 1.851,0.37 0.616,0.123 0.555,0.555 1.172,0.986 0.616,0.432 0.863,0.74 1.727,0.863 0.864,0.123 1.48,0.123 2.499,0 1.02,-0.123 1.077,-0.37 1.879,-0.432 0.802,-0.062 1.356,-0.493 2.669,-0.863 1.313,-0.37 1.217,-0.37 1.891,-0.987 0.676,-0.616 0.683,-0.739 0.435,-1.418 -0.247,-0.678 -0.925,-0.493 -1.603,-0.514 -0.678,-0.021 -1.356,-0.103 -2.398,-0.534 -1.042,-0.431 -0.376,-0.556 -0.932,-0.802 -0.555,-0.247 -1.172,-0.309 -1.94,-0.385 -0.769,-0.075 -2.006,-0.602 -2.623,-0.787 -0.616,-0.186 -1.418,-0.863 -1.788,-0.925 -0.37,-0.062 -0.37,0.247 -0.493,0.802 -0.123,0.555 0.123,0.802 0,1.232 -0.123,0.432 -0.247,0.864 -0.802,1.234 -0.555,0.37 -2.59,0 -2.59,0 0,0 -0.311,0.618 0,0.988 z"
   style="fill:#677821" />
					<path
   id="Wallasea_Island_3_"
   fill="#4B5A26"
   d="m 1700.112,2269.401 c 0,0 -0.124,0.267 0,0.411 0.123,0.145 0.308,0.761 1.295,1.439 0.986,0.678 1.911,1.356 2.158,1.603 0.247,0.247 0.74,0.987 1.233,1.604 0.493,0.615 1.686,0.678 2.693,0.801 1.007,0.123 2.239,0.432 2.732,0 0.494,-0.432 0.74,-1.356 0.74,-2.097 0,-0.739 1.233,-1.727 0,-1.788 -1.232,-0.062 -3.22,-0.309 -3.953,-0.493 -0.732,-0.186 -2.274,-0.493 -2.953,-0.679 -0.679,-0.185 -1.541,-0.288 -2.22,-0.391 -0.677,-0.101 -1.725,-0.821 -1.725,-0.41 z"
   style="fill:#677821" />
					<path
   id="Northey_Island_3_"
   fill="#4B5A26"
   d="m 1690.414,2247.826 c 0,0 -0.508,0.315 -0.416,0.686 0.093,0.37 0.463,0.555 0.74,0.608 0.277,0.053 1.11,-0.01 1.711,0 0.602,0.01 0.787,-0.284 0.74,-0.608 -0.046,-0.324 -0.601,-0.602 -0.925,-0.693 -0.323,-0.093 0.046,-0.694 0,-0.833 -0.046,-0.139 -0.462,-0.555 -0.925,-0.462 -0.463,0.092 -0.602,0.925 -0.602,0.925 -0.142,0.46 -0.323,0.377 -0.323,0.377 z"
   style="fill:#677821" />
					<path
   id="Mersea_Island_3_"
   fill="#4B5A26"
   d="m 1715.528,2237.008 c -0.142,0.67 2.683,0.173 3.885,-0.031 1.203,-0.203 2.312,-0.166 3.509,-0.629 1.196,-0.462 1.579,-1.018 2.227,-1.295 0.648,-0.277 2.22,-0.832 3.422,-1.602 1.203,-0.769 0.833,-1.729 0.833,-2.376 0,-0.647 -1.202,-0.37 -2.22,-0.647 -1.018,-0.277 -1.48,-0.369 -2.128,-0.473 -0.647,-0.103 -1.85,0.104 -2.666,0.011 -0.817,-0.093 -1.589,0.462 -2.236,1.018 -0.647,0.555 -1.388,1.572 -1.85,2.034 -0.463,0.463 -1.665,1.295 -2.035,1.666 -0.37,0.369 -0.74,2.324 -0.74,2.28 0,-0.131 0,-1.171 0,-1.171"
   style="fill:#677821" />
					<path
   id="Horsey_Island_3_"
   fill="#4B5A26"
   d="m 1760.483,2214.822 c 0.093,0.305 0.277,1.083 0.277,1.269 0,0.185 1.573,0.462 1.804,0.37 0.232,-0.093 0.324,-0.926 0.693,-0.779 0.371,0.147 1.11,0 1.11,0 0,0 0,-0.701 0,-0.859 0,-0.157 -0.093,-1.507 -0.555,-1.784 -0.463,-0.277 -1.018,0.462 -1.479,0.925 -0.463,0.463 -1.573,0 -1.573,0 -0.595,-0.171 -0.37,0.554 -0.277,0.858 z"
   style="fill:#677821" />
					<path
   id="Essex_1_"
   fill="#4B5A26"
   d="m 1604.238,2185.968 c 0.394,0.402 0.667,0.779 0.475,1.355 -0.369,1.11 -0.49,2.59 0.063,3.453 0.554,0.863 2.526,-0.123 3.144,0.987 0.617,1.109 1.974,3.329 2.097,4.686 0.123,1.357 0.987,3.701 1.11,5.674 0.123,1.974 0.739,4.439 0.863,4.934 0.123,0.494 0,3.7 0,3.7 l 1.233,1.233 2.96,-1.11 2.713,-0.863 2.467,0.124 -3.33,2.466 0.493,1.11 0.863,0.123 0.617,1.11 c 0,0 0.493,0.616 0.247,0.986 -0.247,0.37 -1.11,1.604 -1.11,1.604 l -1.48,1.356 v 1.974 c 0,0 -0.493,1.479 -0.37,2.467 0.123,0.986 0.247,2.714 0.494,3.083 0.246,0.37 0.492,1.233 0,1.727 -0.494,0.494 -1.85,0.987 -2.344,1.974 -0.493,0.986 -0.986,1.604 -1.356,1.851 -0.37,0.246 -2.097,1.726 -3.207,1.726 -1.11,0 -1.11,-0.247 -2.22,0 -1.11,0.247 -3.576,-0.123 -4.316,0 -0.74,0.124 -1.544,1.604 -1.882,1.851 -0.339,0.246 -1.942,1.356 -2.312,1.356 -0.371,0 -1.357,-0.863 -1.974,0 -0.617,0.863 -0.493,1.604 -1.11,2.467 -0.616,0.863 -1.232,1.851 -1.479,2.343 -0.247,0.494 -1.48,1.974 -1.48,1.974 0,0 -0.616,-0.123 -0.863,0.987 -0.247,1.109 -0.493,4.316 -0.616,5.303 -0.123,0.986 -0.247,5.057 0,5.427 0.113,0.17 0.227,0.861 0.317,1.594 0.104,0.862 0.177,1.783 0.177,1.983 0,0.369 -0.124,2.466 -0.124,2.466 0,0 0,2.467 0.124,2.96 0.123,0.494 1.479,1.851 2.097,1.48 0.618,-0.371 1.85,0 2.22,0 0.37,0 0.987,1.727 0.987,1.727 l 0.123,1.85 0.986,2.59 c 0,0 2.837,1.11 4.563,0.863 1.727,-0.246 4.193,-0.986 5.55,-1.479 1.357,-0.493 3.823,-1.479 5.55,-1.603 1.728,-0.124 7.399,-0.494 8.634,-0.987 1.233,-0.493 1.233,-0.493 1.233,-0.493 0,0 2.713,1.603 3.206,2.096 0.494,0.494 2.33,2.503 2.33,2.503 0,0 -0.109,0.951 -0.604,1.444 -0.492,0.493 -1.356,1.604 -0.739,1.85 0.616,0.247 3.453,0.74 3.453,0.74 0,0 1.851,4.563 1.974,5.18 0.123,0.617 2.22,0.863 2.22,0.863 0,0 1.851,1.357 1.974,1.975 0.123,0.616 0.123,1.603 0,2.096 -0.123,0.494 -0.617,0.74 -2.221,1.11 -1.602,0.37 -3.946,-0.247 -4.809,0 -0.863,0.247 -1.015,1.479 -1.247,2.22 -0.232,0.741 0.014,1.728 -0.85,1.233 -0.863,-0.493 0.493,-0.987 -0.863,-0.493 -1.357,0.493 -1.974,0.74 -1.974,1.604 0,0.864 -0.37,2.467 -0.37,2.467 l -1.461,4.082 -0.33,-0.053 c 0.426,0.054 0.854,0.157 1.236,0.349 1.11,0.555 2.035,2.22 3.516,3.33 1.479,1.11 2.959,1.11 4.439,0.555 1.48,-0.555 2.035,-0.925 4.439,-0.925 2.405,0 1.666,1.48 2.221,2.405 0.555,0.925 2.22,1.479 3.885,1.5 1.665,0.021 2.775,-0.205 4.07,-0.021 1.295,0.186 3.515,-0.925 4.625,-1.479 1.109,-0.556 0.925,-1.851 1.109,-2.96 0.186,-1.11 0.556,-3.33 0.74,-4.256 0.185,-0.925 2.405,-2.22 3.885,-2.034 1.48,0.185 2.221,-0.186 3.516,-0.974 1.295,-0.789 2.775,0.233 4.439,0 0,0 0.494,0.295 0.679,-0.198 0.186,-0.493 0.493,-1.479 0,-1.418 -0.493,0.062 -1.295,0 -1.911,-0.185 -0.617,-0.186 -0.803,-0.541 -0.926,-1.011 -0.123,-0.47 0,-1.024 -0.185,-1.21 -0.185,-0.185 -0.432,-0.185 -0.616,-0.74 -0.186,-0.555 0,-0.678 0.74,-0.555 0.739,0.123 1.603,0.493 2.343,0.246 0.74,-0.246 0.925,-0.185 0.987,-0.863 0.061,-0.678 0.123,-1.418 0.123,-2.035 0,-0.616 0.616,-0.678 1.048,-0.492 0.432,0.185 1.295,0.801 2.467,1.109 1.172,0.308 2.149,0.617 3.202,0.802 1.053,0.185 2.41,0.433 2.779,0.493 0.37,0.062 0.493,0.555 1.356,0.679 0.864,0.123 1.405,0.185 1.905,-0.062 0.5,-0.247 0.993,-0.309 0.87,-0.802 -0.123,-0.493 0.062,-0.74 0.616,-0.617 0.556,0.124 2.014,0.556 3.998,0.987 1.984,0.431 4.513,0.555 5.438,0.678 0.925,0.123 2.281,0.494 3.453,0.617 1.172,0.123 1.911,0 2.775,0.555 0.863,0.555 1.232,1.85 2.22,1.11 0.986,-0.74 2.528,-2.098 3.33,-2.899 0.802,-0.801 2.034,-1.664 2.837,-2.158 0.802,-0.492 1.048,-0.862 1.727,-1.109 0.678,-0.247 1.172,-0.246 0.863,-0.863 -0.309,-0.617 -0.781,-1.233 -1.5,-1.295 -0.721,-0.062 -1.892,-0.062 -2.323,-0.494 -0.432,-0.431 -0.309,-0.925 -0.74,-1.603 -0.432,-0.679 -0.493,-1.233 -0.925,-1.295 -0.432,-0.062 -0.863,-0.124 -1.295,0 -0.432,0.123 -0.617,-0.309 0,-0.617 0.616,-0.308 0.555,-0.185 0.678,-0.739 0.123,-0.556 0.062,-0.803 -0.678,-0.74 -0.74,0.062 -0.926,0.246 -1.85,0.432 -0.926,0.185 -1.975,0.555 -2.838,0.74 -0.863,0.185 -2.158,0.555 -2.774,0.492 -0.617,-0.061 -0.802,-0.801 -0.309,-0.924 0.493,-0.124 1.048,-0.062 2.097,-0.309 1.049,-0.247 2.344,-0.494 3.022,-0.802 0.679,-0.309 1.295,-0.555 2.158,-0.616 0.864,-0.062 0.987,-0.186 1.542,-0.679 0.556,-0.493 1.048,-0.185 0.925,-1.172 -0.123,-0.986 -0.493,-1.295 -1.172,-1.911 -0.678,-0.617 -1.603,-1.295 -2.158,-1.789 -0.555,-0.493 -0.863,-0.802 -1.418,-1.172 -0.555,-0.369 0.247,-0.678 0.186,-0.986 -0.062,-0.309 0.061,-0.309 -0.247,-0.74 -0.309,-0.432 -0.185,-0.863 -0.863,-1.109 -0.679,-0.247 -0.493,-0.74 -1.233,-0.432 -0.74,0.309 -0.802,0.37 -1.418,0.74 -0.617,0.369 -1.357,0.616 -2.035,0.369 -0.679,-0.246 -0.74,-0.369 -1.851,-0.616 -1.109,-0.247 -1.973,-0.309 -2.528,-0.185 -0.555,0.123 -4.131,0.062 -4.81,0.062 -0.679,0 -0.509,-0.062 -1.581,0.185 -1.07,0.246 -1.941,0.062 -2.986,0.37 -1.045,0.308 -2.613,0.185 -1.891,-0.247 0.722,-0.432 1.278,-0.689 2.326,-0.776 1.049,-0.087 2.981,-0.272 3.864,-0.396 0.883,-0.124 3.289,0.062 3.968,0 0.678,-0.061 1.727,-0.025 2.035,-0.043 0.307,-0.018 0.739,-0.326 1.355,-0.635 0.617,-0.309 0.617,-0.246 1.851,-0.309 1.233,-0.062 1.726,-0.061 2.59,0 0.864,0.062 1.173,0 1.974,0.493 0.802,0.493 1.172,1.296 2.035,2.035 0.863,0.74 -0.062,0.309 2.898,0.987 2.96,0.678 4.131,0.574 5.118,0.719 0.986,0.145 1.293,0.379 2.22,0.268 0,0 7.153,-0.802 9.189,-1.727 2.034,-0.926 0.739,-1.11 0.925,-3.516 0.186,-2.404 0.37,-1.85 1.665,-6.104 1.295,-4.255 0,0 0,-1.851 0,-1.85 -0.37,-1.479 -1.295,-3.33 -0.925,-1.85 0.925,-3.145 0.925,-3.145 0,0 0.186,-3.33 -0.186,-5.18 -0.369,-1.851 -0.924,-2.035 -2.404,-2.405 -1.48,-0.37 -2.035,0.185 -4.07,0.739 -2.035,0.556 -1.109,1.851 -4.07,4.256 -2.959,2.404 -3.33,1.479 -4.994,1.479 -1.665,0 -0.926,-0.555 -3.145,0.186 -2.22,0.739 0,0 -1.295,0.555 -1.295,0.555 -0.74,0.925 -1.85,1.479 -1.11,0.556 -1.296,0.74 -1.851,1.48 -0.555,0.74 -2.22,0.74 -1.479,2.035 0.739,1.295 -1.665,0.555 -2.405,0 -0.74,-0.555 0.74,-0.925 1.665,-1.295 0.925,-0.37 0.37,-0.926 0.925,-1.851 0.555,-0.925 -0.555,-1.479 -0.555,-1.479 0,0 -1.85,0.37 -2.405,0 -0.555,-0.37 -2.774,-0.74 -3.7,-1.11 -0.925,-0.37 -1.48,-0.925 -2.035,-2.542 -0.555,-1.616 1.48,0.322 2.035,0 0.556,-0.321 1.295,-1.158 1.295,-1.158 0,0 0.926,-0.185 2.221,0.74 1.295,0.925 0,0 1.479,0.186 1.48,0.185 0.925,-0.926 1.85,-0.926 0.925,0 0.185,-1.85 2.035,-1.295 1.85,0.556 0,0 0.739,0 0.74,0 2.591,0.556 3.33,0 0.74,-0.555 4.625,0 5.365,0 0.74,0 2.035,-1.479 3.515,-2.59 1.48,-1.109 1.665,-1.295 1.11,-1.479 -0.556,-0.186 -1.665,0 -2.405,-0.875 -0.74,-0.874 -1.109,-1.346 -1.109,-2.085 0,-0.74 1.479,0.369 1.85,0.925 0.37,0.555 1.665,0.739 2.775,1.11 1.109,0.369 0.185,-1.416 0.185,-1.416 0,0 -1.11,-1.359 -1.851,-2.1 -0.739,-0.74 -2.59,-0.74 -2.59,-0.74 0,0 0.926,-0.74 2.035,-0.74 1.11,0 3.146,0.371 2.59,1.48 -0.555,1.11 0.556,-1.109 1.295,-2.22 0.74,-1.11 0,0 0.74,-0.186 0.74,-0.185 1.665,-1.665 2.221,-2.22 0.555,-0.555 1.295,-1.295 2.035,-1.48 0.739,-0.185 2.774,-0.925 4.069,-0.739 1.295,0.185 3.146,0.739 2.405,0.37 -0.74,-0.37 -1.295,-1.48 -2.035,-2.035 -0.74,-0.555 -2.035,-1.11 -2.035,-1.11 l 2.405,-0.555 c 0,0 0.37,-1.11 0,-2.775 -0.37,-1.665 -0.556,-2.59 0.185,-2.22 0.741,0.37 1.665,1.85 1.48,2.96 -0.186,1.11 0.37,1.851 0.555,2.96 0.186,1.11 2.035,2.22 2.96,2.96 0.925,0.74 5.92,0 5.92,0 l -1.057,0.74 -0.793,0.555 c 0,0 -2.22,0 -2.775,0.74 -0.555,0.74 0.74,1.11 1.48,1.85 0.739,0.74 -0.556,0.925 -0.37,1.851 0.185,0.925 1.48,2.404 2.035,2.598 0.555,0.194 6.104,-0.193 7.77,-0.01 1.665,0.185 6.66,-2.775 8.141,-3.7 1.479,-0.925 4.625,-3.33 6.66,-4.625 2.034,-1.295 3.885,-2.774 4.439,-4.44 0.555,-1.664 3.515,-4.254 4.07,-5.18 0,0 0.925,-1.018 1.295,-1.295 0.369,-0.277 0.925,-1.018 1.109,-1.758 0.186,-0.739 0,-1.295 -0.462,-1.572 -0.463,-0.277 -1.758,0 -2.22,0 -0.463,0 -0.74,0.463 -0.463,1.018 0.277,0.555 0.647,1.11 0.555,1.572 -0.092,0.463 0.277,1.11 -0.185,1.11 -0.463,0 -0.278,-0.555 -0.74,-0.925 -0.462,-0.37 -1.018,-0.647 -1.388,-0.647 -0.37,0 -0.092,0.647 -0.555,0.925 -0.463,0.278 -1.48,0.186 -2.035,0.093 -0.555,-0.093 -1.202,0.185 -1.295,-0.647 -0.093,-0.833 0.647,-1.665 -0.093,-1.665 -0.739,0 -1.11,0.37 -1.479,0.462 -0.37,0.093 -0.647,0.556 -1.203,0.277 -0.555,-0.277 -0.647,-1.018 -0.647,-1.018 -1.109,-0.739 0,0 -0.739,-0.925 -0.74,-0.925 0,0 1.295,-2.034 1.295,-2.035 0,0 1.295,-0.556 1.295,-0.555 1.109,-0.555 1.109,-1.295 0,-0.74 -1.109,-0.925 0.37,-1.156 1.48,-0.231 0.925,-0.509 3.146,-0.139 2.22,0.37 0,0 0.555,-1.11 0.555,-1.109 0.37,-1.664 1.48,-2.774 1.109,-1.11 0.925,-1.295 2.035,-3.497 1.109,-2.203 0.555,-0.018 1.479,0 0.924,0.018 0.37,-1.868 -1.295,-2.423 -1.665,-0.556 0,0 -0.184,0.925 -0.186,0.925 -1.666,0 -2.405,-0.74 -0.74,-0.74 -1.296,-0.185 -2.775,-0.185 -1.479,0 -2.035,1.479 -2.59,0.925 -0.556,-0.555 -2.035,-0.37 -3.515,-0.555 -1.48,-0.186 -2.221,0.185 -3.7,-0.37 -1.48,-0.556 -2.591,0.555 -3.33,0.925 -0.74,0.37 -2.035,-0.37 -3.7,-0.555 -1.665,-0.186 -2.59,-0.556 -4.625,-0.556 -2.035,0 -2.775,-0.739 -3.7,-0.739 -0.265,0 -0.302,-0.076 -0.19,-0.185 l 0.19,0.185 -1.542,-1.049 c -1.973,0.494 -1.355,0.74 -3.206,0 -1.85,-0.739 0.97,-1.356 -2.413,-0.986 -3.384,0.37 -2.619,1.479 -4.234,-0.617 -1.616,-2.096 -2.732,-2.343 -2.732,-2.343 0,0 -7.023,-0.493 -7.641,0 -0.616,0.493 -0.616,1.851 -1.604,1.356 -0.986,-0.493 -1.603,-1.233 -2.096,-0.493 -0.494,0.74 0.37,1.692 -1.357,1.524 -1.727,-0.168 -3.083,-1.277 -4.193,-1.031 -1.109,0.247 -0.369,0.952 -1.479,1.031 -1.11,0.079 -2.196,1.031 -3.195,0 -0.998,-1.031 -1.491,-0.045 -1.738,-0.908 -0.246,-0.863 -0.13,-2.22 -0.805,-3.576 -0.675,-1.356 -1.822,-3.824 -2.544,-4.07 -0.721,-0.246 -1.338,-0.488 -1.461,-2.094 -0.123,-1.605 1.603,-3.949 0,-4.442 -1.677,-0.517 -2.842,-0.362 -4.14,-1.778 -1.203,-1.314 -1.049,-2.793 -0.127,-4.205 -0.314,-0.639 -0.123,-1.647 -0.122,-2.403 0,0 0.196,-1.728 -1.037,-2.467 -1.233,-0.74 -1.974,-1.233 -3.577,-1.233 -1.603,0 -3.576,-0.37 -4.81,0 -1.234,0.37 -1.48,0.863 -2.837,1.11 -1.357,0.247 -0.617,0.37 -2.96,1.109 -2.343,0.74 -1.11,0.987 -3.083,1.11 -1.974,0.123 -0.76,-0.369 -2.354,0.986 -1.594,1.357 -2.95,1.11 -2.95,1.11 0,0 -1.479,-0.247 -2.343,0.247 -0.863,0.493 -0.613,1.603 -1.725,0.617 -0.915,-0.812 -0.816,-1.779 -1.369,-2.733 -0.616,-1.066 -1.627,-1.31 -2.799,-1.488 -1.785,-0.272 -2.543,0.575 -4.215,1.021 -2.408,0.642 -6.505,0.443 -7.391,3.549 0.118,0.035 0.219,0.01 0.338,0.039 -0.052,0.484 -0.299,1.075 -0.23,1.585 0.071,0.521 0.54,0.864 0.644,1.351 0.261,1.232 -0.902,1.17 -2,0.747 -0.96,-0.37 -1.189,-1.017 -1.998,-1.724 -1.964,-1.719 -3.836,-2.508 -4.939,-5.033 -0.611,-1.398 -1.384,-2.291 -2.587,-3.203 -1.191,-0.903 -2.542,-1.16 -4.042,-1.171 -1.488,-0.011 -1.952,0.962 -3.06,1.868 0.798,-0.653 -2.706,-1.562 -2.885,-1.584 -1.312,-0.152 -2.701,-0.449 -4.021,-0.325 -1.288,1.45 -1.832,2.974 -1.998,4.881 -0.045,0.526 0.062,0.974 -0.153,1.45 -0.355,0.787 -0.28,0.383 -0.826,0.641 -1.118,0.526 -1.48,0.276 -1.758,1.721 -1.058,-0.764 -3.646,-0.375 -4.761,0.124 0.305,-0.87 -1.392,-3.233 -2.59,-2.554 -1.025,0.581 -1.119,3.756 -1.381,4.785 -0.41,1.612 -0.869,2.6 -1.731,4.066 -0.346,0.59 -0.532,1.389 -0.952,1.98 -0.258,0.362 -1.376,1.335 -0.895,1.23"
   style="fill:#677821" />
				</g><rect
   style="fill:none;stroke:#000000;stroke-width:0.29998;stroke-linejoin:bevel;stroke-dasharray:none;paint-order:stroke fill markers"
   id="rect2"
   height="4390.293"
   x="0.19998971"
   y="0.19998971"
   ry="0.69917101"
   width="4353.8188" /></svg>
