<?xml version="1.0" encoding="UTF-8" standalone="no"?>
<!-- Generator: Adobe Illustrator 22.1.0, SVG Export Plug-In . SVG Version: 6.00 Build 0)  -->

<svg
   version="1.1"
   x="0px"
   y="0px"
   viewBox="0 0 4354.1187 4390.5933"
   enable-background="new 0 0 1995.865 2834.646"
   xml:space="preserve"
   id="svg1596"
   width="4354.1187"
   height="4390.5933"
   xmlns="http://www.w3.org/2000/svg"
   xmlns:svg="http://www.w3.org/2000/svg"><defs
   id="defs1596" />


<path
   id="Gloucestershire_1_"
   fill="#303B09"
   d="m 2348.2105,2970.7011 c 0,0 -0.447,-0.684 -0.521,-0.96 -0.073,-0.275 -0.255,-1.163 -0.255,-1.163 l 1.854,-1.413 1.318,-2.135 -0.952,-2.465 -0.635,-2.637 1.001,-1.099 -4.762,-1.025 c 0,0 -1.685,-0.22 -1.978,-0.587 -0.294,-0.365 -2.929,-2.271 -2.929,-2.271 v -1.685 l -4.724,0.295 h -4.795 v -1.174 l -1.179,-2.711 0.513,-2.051 -1.631,-1.402 c 0.555,-0.74 0.555,-4.996 0.555,-4.996 0,0 1.48,-0.925 2.221,-2.034 0.739,-1.11 1.664,-2.22 2.404,-3.516 0.74,-1.295 2.405,-2.22 3.7,-3.515 1.295,-1.295 2.775,-1.85 3.146,-4.07 0.369,-2.22 2.59,-7.029 3.699,-7.585 1.11,-0.555 1.665,-1.85 2.775,-2.405 1.109,-0.555 1.48,-0.185 2.59,-1.109 1.11,-0.925 2.775,-2.775 3.33,-3.885 0.555,-1.11 0.74,-2.221 0.925,-3.146 0.186,-0.925 -0.555,0.74 0.186,-0.925 0.739,-1.665 2.774,-3.145 3.515,-3.515 0.741,-0.37 1.85,0.37 2.96,-0.37 1.11,-0.74 2.59,-1.665 3.7,-2.221 1.109,-0.555 2.404,-1.664 2.775,-2.404 0.369,-0.74 0.369,-2.221 0,-3.146 -0.371,-0.925 -1.851,-1.109 -2.405,-1.665 -0.556,-0.555 -1.295,-1.109 -2.405,-1.109 -1.109,0 -1.85,-0.186 -2.405,-0.556 -0.555,-0.37 -1.109,-1.665 -0.37,-2.774 0.74,-1.11 0.74,-2.405 1.666,-2.221 0.924,0.186 1.109,0.186 2.22,1.295 1.109,1.11 2.034,1.11 2.59,1.48 0.555,0.37 0.37,1.11 1.665,1.665 1.295,0.555 2.59,-0.555 3.145,-0.555 0.64,0 1.533,-1.483 1.417,-2.025 -0.179,-0.832 -1.413,-1.063 -1.728,-1.896 -0.322,-0.854 -0.335,-2.104 -0.358,-3.01 -0.522,0.842 -0.334,4.418 0.838,4.727 0.172,1.179 -1.98,2.057 -2.761,1.277 -0.556,-0.555 -1.479,-1.294 -2.403,-1.664 -0.926,-0.369 -1.296,-0.185 -2.035,-1.295 -0.74,-1.109 2.22,-0.925 -0.74,-1.109 -2.96,-0.186 -4.255,-0.555 -4.625,1.295 -0.37,1.85 -1.11,4.07 -0.37,4.995 0.74,0.925 1.11,0.925 2.59,1.295 1.48,0.37 2.405,0 2.96,0.74 0.555,0.739 0.925,1.295 -0.555,2.034 -1.48,0.74 -2.405,0.37 -3.146,1.48 -0.739,1.11 -1.665,1.85 -2.405,2.59 -0.739,0.74 -1.85,0.186 -2.404,1.48 -0.554,1.294 -1.48,2.22 -2.221,3.145 -0.739,0.925 -0.555,2.035 -2.034,3.146 -1.48,1.109 -3.146,2.22 -4.625,2.96 -1.48,0.74 -2.405,1.665 -3.7,2.59 -1.295,0.925 -2.405,1.109 -3.516,1.85 -1.109,0.74 -2.22,1.665 -2.959,2.59 -0.74,0.926 -0.74,1.11 -1.48,2.775 -0.74,1.665 -1.665,3.7 -2.035,4.255 -0.37,0.556 -0.74,0.556 -0.925,1.665 -0.185,1.11 0.555,3.33 -0.37,3.885 -0.925,0.556 -0.925,-1.479 -1.48,-1.295 0,0 0.926,-0.678 0.68,-1.171 -0.247,-0.493 -0.371,-0.616 -0.68,-0.987 -0.308,-0.369 -0.431,-0.616 -0.554,-1.479 -0.124,-0.863 0.493,-1.356 0,-1.85 -0.494,-0.494 -1.11,0.246 -1.233,-0.987 -0.124,-1.232 -1.357,-0.246 -0.124,-1.232 1.233,-0.987 1.233,0.123 1.233,-0.987 0,-1.11 -0.369,-0.37 -0.986,-0.74 -0.617,-0.37 -1.334,-1.233 -0.79,-1.603 0.543,-0.371 0.713,-0.617 1.491,-0.74 0.779,-0.124 0.285,1.479 0.779,-0.124 0.492,-1.603 -0.447,-0.863 -0.779,-1.85 -0.331,-0.986 -0.039,-0.37 0,-1.48 0.039,-1.11 1.272,0.37 0.039,-1.11 -1.234,-1.479 -3.076,-1.726 -1.723,-2.096 1.353,-0.37 1.416,-0.37 1.446,-1.11 0.029,-0.739 1.08,-0.37 0,-1.727 -1.081,-1.356 -0.834,-1.479 -1.327,-2.343 -0.493,-0.864 -1.683,-1.357 -0.595,-1.975 1.088,-0.615 0.83,-0.986 1.699,-1.726 0.869,-0.74 1.239,-0.37 1.239,-1.356 0,-0.987 0.739,-1.48 -0.247,-1.974 -0.987,-0.493 -1.974,-0.864 -2.097,-2.097 -0.123,-1.233 0,-1.233 0.369,-2.221 0.371,-0.986 0.741,-1.356 0.124,-2.22 -0.214,-0.3 -0.353,-0.66 -0.479,-1.007 0,0 0.839,-1.214 1.091,-2.077 0.252,-0.863 1.361,-1.604 1.608,-2.59 0.247,-0.986 1.001,-2.097 1.001,-2.097 l 0.097,-1.094 0.518,-0.167 c 0.856,-0.281 1.032,-1.382 1.601,-1.954 0.606,-0.609 1.184,-0.483 1.867,-0.919 1.07,-0.685 1.149,-2.709 2.563,-2.993 0.618,-0.123 1.727,-0.123 1.851,0.494 0.123,0.616 1.356,1.232 1.356,0.492 0,-0.556 0.697,-1.182 0.52,-1.668 l 2.688,0.065 c 0,0 1.973,-0.123 1.807,-0.493 -0.165,-0.37 1.523,0.123 2.14,-0.124 0.617,-0.247 1.604,-2.713 1.851,-2.829 0.246,-0.115 1.232,-2.247 1.232,-2.247 0,0 1.604,1.13 1.979,0.884 0.376,-0.247 1.104,-0.124 1.57,-0.124 0.466,0 0.767,-1.479 2.001,-1.727 1.233,-0.247 2.343,-0.616 2.59,-1.296 0.247,-0.678 0.493,-1.047 0.616,-2.157 0.123,-1.11 -0.986,-2.467 -1.356,-2.837 -0.37,-0.37 -0.986,-1.233 -1.604,-1.919 -0.617,-0.685 0.247,-1.781 0.124,-2.11 -0.124,-0.33 0.862,-1.15 0.928,-2.33 0.064,-1.179 -3.148,-1.164 -4.151,-1.533 -1.002,-0.371 -1.094,-0.617 -1.34,-1.604 -0.247,-0.986 0.246,-0.739 0.123,-1.356 -0.123,-0.616 0.123,-1.727 0,-2.184 -0.123,-0.457 0.74,-1.27 1.217,-2.01 0.479,-0.74 1.127,-0.616 0.853,-1.357 -0.274,-0.74 -0.22,-0.738 -0.853,-0.985 -0.632,-0.247 -0.477,-0.617 -1.463,-1.48 -0.987,-0.863 0,-1.356 0,-1.356 0,0 0.986,-0.493 1.463,-0.986 0.479,-0.493 0.853,-1.119 0.853,-1.119 l -0.59,-0.731 1.48,-0.123 1.48,0.616 c 0,0 0.739,1.357 1.726,1.604 0.987,0.247 1.604,1.11 1.728,1.974 0.123,0.863 0.37,2.59 1.603,2.589 1.233,0 2.467,0.494 3.33,0 0.863,-0.494 0.37,-2.219 0.617,-2.713 0.247,-0.493 1.85,-1.109 1.85,-1.109 0,0 3.084,-1.604 3.688,-1.727 0.605,-0.123 1,1.727 1,1.727 l 1.355,0.74 c 0,0 0.74,0.246 1.604,1.109 0.863,0.863 0.493,4.811 0.739,5.92 0.246,1.11 0.863,1.48 2.344,1.851 1.481,0.371 3.576,0.247 5.514,0.247 1.938,0 1.763,-0.371 2.349,-1.48 0.586,-1.11 0.647,-1.233 1.265,-2.097 0.616,-0.864 0.369,-1.48 1.568,-2.097 1.197,-0.616 0.774,-0.617 0.897,-0.371 0.124,0.246 1.11,0.371 1.974,0 0.863,-0.37 1.85,-0.615 1.85,-0.615 0,0 0.863,0.739 1.893,0.615 1.027,-0.123 1.362,-0.615 1.362,-0.615 l -0.479,-0.556 -0.883,-1.137 -1.893,-2.286 c 0,0 1.357,-1.695 1.234,-2.188 -0.124,-0.494 -0.617,-3.177 -0.617,-3.177 l 1.275,-1.812 h 3.658 l 3.935,0.486 -0.194,0.925 -0.115,1.658 -1.639,1.973 c 0,0 -0.873,-0.311 -1.494,-0.301 -0.621,0.01 -0.739,2.467 -0.739,2.467 l -0.863,2.59 1.11,-0.123 2.713,-1.727 h 3.454 c 0,0 3.453,-0.37 4.38,-0.493 0.927,-0.124 0.8,1.367 0.8,1.367 l 3.423,1.593 c 0,0 0.771,-1.974 1.387,-1.593 0.617,0.381 5.427,-5.438 5.427,-5.438 0,0 1.851,0 2.12,-0.124 0.27,-0.123 3.924,0.371 3.924,0.371 l 1.232,0.123 1.053,-1.233 c 0,0 0.798,-0.863 1.784,-0.501 0.987,0.361 1.974,0.871 2.967,1.487 0.993,0.617 2.46,2.837 2.912,3.577 0.452,0.74 2.385,1.356 3.67,1.737 1.285,0.381 1.058,-2.478 1.058,-2.478 l 0.846,-3.823 c 0,0 -1.586,-1.233 -1.903,-2.035 -0.317,-0.801 -3.505,-2.651 -3.505,-2.651 0,0 -0.37,-2.221 0,-2.467 0.369,-0.247 1.727,-1.11 2.713,-1.48 0.986,-0.369 1.604,0.74 2.097,0.247 0.493,-0.493 1.479,-1.356 1.851,-1.932 0.369,-0.575 0.863,-1.028 0.863,-1.028 l 1.479,-2.467 2.345,-1.92 2.411,-1.04 1.905,4.07 c 0,0 1.973,-0.124 2.769,0 0.796,0.123 0.314,4.316 0.561,5.304 0.246,0.986 2.343,-0.247 3.115,0 0.772,0.246 0.338,3.206 0.831,3.453 0.494,0.246 0.246,1.479 0.123,1.911 -0.123,0.433 0.74,1.542 1.79,2.158 1.05,0.617 2.28,0.493 2.28,0.493 0,0 1.85,-0.123 2.613,-0.246 0.765,-0.123 2.65,-0.871 2.65,-0.871 l 0.206,1.241 v 0.863 l -1.399,1.233 -1.457,3.464 -2.613,2.907 c 0,0 0.123,5.099 0,5.536 -0.123,0.437 1.693,2.646 1.693,2.646 0,0 2.13,0.617 2.87,0.74 0.739,0.124 2.153,1.851 2.153,1.851 0,0 -0.674,1.603 -0.797,1.973 -0.123,0.37 -1.85,1.233 -1.85,1.233 l -2.025,1.643 0.568,1.071 v 0.656 l 1.729,2.245 -0.52,1.045 0.272,0.467 -1.153,1.26 c 0,0 -1.832,-0.37 -2.695,0 -0.863,0.37 -0.494,3.083 -0.74,3.947 -0.246,0.863 -1.787,1.479 -1.787,1.479 v 1.727 c 0,0 0.061,3.083 0,3.322 -0.06,0.238 -0.68,3.091 -0.68,3.091 l 0.68,3.7 h 0.677 l -0.677,2.538 -3.825,2.544 c 0,0 -0.432,0.715 -0.699,1.701 -0.268,0.987 2.241,2.356 2.241,2.356 0,0 0.987,5.414 0.987,6.258 0,0.844 0.246,1.253 -0.26,2.855 -0.505,1.604 0,2.961 0,2.961 l 5.529,6.939 c 0,0 1.14,-0.302 -0.703,0.222 -1.844,0.522 -2.101,-0.163 -2.101,-0.163 l -1.178,-1.836 c 0,0 -0.403,0.621 -0.795,1.274 l -0.12,0.017 c -0.449,-0.014 -2.348,-0.066 -2.348,-0.066 l -0.374,1.232 -0.88,1.957 c 0,0 -1.918,0.848 -2.491,1.154 -0.574,0.307 -2.052,0.444 -3.104,0.263 -1.054,-0.181 -2.533,-1.112 -3.017,-0.906 -0.484,0.206 -0.65,1.088 -0.65,1.088 l -2.063,-2.938 -0.862,-5.303 h -1.356 v 1.196 l -0.37,2.325 v 5.216 c 0,0 -1.356,0.759 -2.097,0.854 -0.74,0.095 -1.85,-0.465 -2.221,-0.854 -0.37,-0.39 -3.083,-3.681 -3.785,-4.174 -0.703,-0.493 -3.367,1.644 -3.367,1.644 l 0.324,1.002 1.655,2.383 c 0,0 -1.733,1.015 -2.843,0 -1.11,-1.016 -4.563,-1.945 -5.013,-2.315 -0.45,-0.37 -1.031,0.864 -1.382,1.461 -0.352,0.597 0.104,1.869 -0.267,2.856 -0.371,0.986 0.754,2.195 0,2.234 -0.754,0.039 -1.456,0.125 -1.456,0.125 l -0.517,-0.541 c 0,0 -1.479,-0.832 -1.85,-0.832 -0.371,0 -0.494,-0.494 -1.941,-0.74 -1.447,-0.246 -4.596,-2.248 -4.596,-2.248 l -3.785,-0.854 c 0,0 -10.644,14.326 -11.632,15.106 -0.986,0.779 -2.096,-0.78 -3.041,-1.027 -0.945,-0.247 -2.632,0.494 -3.372,0 -0.74,-0.493 -1.85,-0.986 -1.85,-0.986 0,0 -1.233,0.863 -2.714,2.014 -1.479,1.149 -5.197,2.18 -5.197,2.18 l 1.338,2.479 v 2.207 1.974 c 0,0 -0.21,0.74 0,2.097 0.211,1.356 0.776,0.493 1.393,0.616 0.617,0.123 -0.493,1.974 -0.655,2.6 -0.163,0.625 -0.084,1.964 -0.084,1.964 0,0 -1.954,-0.202 -2.108,-0.187 -0.155,0.016 -3.888,2.145 -3.888,2.145 l -1.897,1.988 0.74,2.283 c 0,0 1.973,0.431 2.52,0.924 0.546,0.493 -0.053,2.467 -0.424,3.083 -0.369,0.616 0.247,2.22 0.74,2.958 0.493,0.737 0,2.346 0,2.346 l -0.662,4.39 c -0.712,-0.142 -1.515,-0.118 -1.88,0.297 -0.541,0.616 -1.651,0.303 -2.021,-0.773 -0.37,-1.077 -0.247,-1.569 -1.727,-1.569 -1.48,0 -2.038,-0.987 -4.041,0 -2.002,0.986 -3.123,1.042 -4.228,1.569 -1.104,0.526 -2.708,1.39 -2.708,1.39 l -3.576,1.006 -1.11,-0.38 -4.703,-0.256 c 0,0 -2.444,-1.731 -2.475,-1.76 -0.032,-0.028 -2.936,-1.816 -2.936,-1.816 0,0 0,0.046 0,0.127"
   style="fill:#677821" /><rect
   style="fill:none;stroke:#000000;stroke-width:0.29998;stroke-linejoin:bevel;stroke-dasharray:none;paint-order:stroke fill markers"
   id="rect2"
   height="4390.293"
   x="0.19998971"
   y="0.19998971"
   ry="0.69917101"
   width="4353.8188" /></svg>
