<?xml version="1.0" encoding="UTF-8" standalone="no"?>
<!-- Generator: Adobe Illustrator 22.1.0, SVG Export Plug-In . SVG Version: 6.00 Build 0)  -->

<svg
   version="1.1"
   x="0px"
   y="0px"
   viewBox="0 0 4354.1187 4390.5933"
   enable-background="new 0 0 1995.865 2834.646"
   xml:space="preserve"
   id="svg1596"
   width="4354.1187"
   height="4390.5933"
   xmlns="http://www.w3.org/2000/svg"
   xmlns:svg="http://www.w3.org/2000/svg"><defs
   id="defs1596" />


<path
   id="Greater_Manchester_1_"
   fill="#6C833C"
   d="m 2321.0295,2510.0511 0.921,-5.45 h 1.161 v -3.711 l -0.424,-1.854 v -3.107 l 2.952,-2.511 1.075,-2.74 c 0,0 0.469,0.299 2.812,0 2.342,-0.299 2.157,-0.222 3.268,-0.26 1.109,-0.039 0.772,2.612 2.421,1.749 1.648,-0.863 2.275,-2.972 2.979,-2.75 0.703,0.223 2.402,2.3 4.697,1.261 2.297,-1.038 3.77,-1.778 4.328,-2.333 0.559,-0.556 2.988,-2.221 2.988,-2.221 0,0 2.922,1.816 5.241,1.186 2.319,-0.63 3.429,-1.74 3.244,-2.665 -0.186,-0.925 0.185,-4.872 1.295,-3.454 1.11,1.419 1.737,2.529 1.737,2.529 0,0 -0.072,2.22 0.668,2.22 0.739,0 0.425,1.384 1.97,-0.141 1.545,-1.524 5.41,-1.895 5.41,-1.895 v -3.347 c 0,0 -0.204,-3.189 0,-3.437 0.204,-0.248 1.128,-0.432 1.962,0.863 0.833,1.295 2.654,2.573 2.654,2.573 h 2.27 c 0,0 1.829,-1.82 2.384,-1.92 0.556,-0.099 1.86,-0.871 1.763,1.92 -0.097,2.791 0.01,6.169 0.01,6.169 l 1.746,1.433 c 0,0 1.85,-0.404 1.666,-0.85 -0.186,-0.445 -0.124,-4.663 -0.124,-4.663 0,0 -1.048,-0.625 0,-2.089 1.048,-1.463 2.115,-3.543 3.247,-3.613 1.131,-0.07 1.727,-1.611 3.464,0.177 1.737,1.788 3.958,3.413 4.143,3.896 0.185,0.483 1.479,2.598 2.035,1.54 0.555,-1.058 0.831,-4.572 0.831,-4.572 0,0 0.402,-4.07 1.45,-4.811 1.049,-0.739 2.344,-0.739 2.714,0 0.369,0.74 0.617,1.665 1.604,2.035 0.987,0.37 0.866,2.282 2.345,0.556 1.479,-1.728 3.915,-0.926 4.794,-1.851 0.877,-0.925 1.001,0.185 1.494,1.11 0.493,0.925 1.604,2.774 1.788,2.96 0.186,0.185 -1.479,1.788 -0.555,3.206 0.925,1.419 1.403,4.345 2.922,6.119 1.519,1.774 3.368,2.002 3.738,3.368 0.37,1.366 0.494,3.587 1.912,4.512 1.418,0.925 4.132,2.171 4.255,3.028 0.123,0.856 1.571,1.597 2.604,2.706 1.033,1.11 3.158,2.405 3.113,4.44 l -0.226,0.164 c -0.264,0.01 -0.52,0.13 -0.807,0.453 -0.986,1.109 -1.233,-0.264 -1.109,2.211 0.123,2.475 2.037,2.846 -0.029,3.709 -2.067,0.863 -3.917,1.066 -5.027,1.335 -1.109,0.268 -0.617,2.673 -1.726,3.196 -1.11,0.524 -2.344,1.179 -2.221,2.578 0.124,1.4 1.173,3.465 1.173,3.465 l -1.296,1.759 c 0,0 -0.929,1.803 -1.233,2.22 -0.304,0.417 -0.927,1.314 -1.381,1.829 -0.454,0.515 -1.949,1.871 -1.949,1.871 0,0 -0.218,0.8 0.755,2.127 0.973,1.326 2.698,0.216 2.945,1.449 0.247,1.233 0.37,1.342 -0.493,3.015 -0.863,1.672 -0.948,1.552 -1.646,3.277 -0.697,1.725 -0.311,2.342 -1.614,2.465 -1.303,0.123 -0.687,-0.123 -1.304,0.123 -0.07,0.029 -0.112,0.084 -0.13,0.161 l 0.13,-0.161 c 0,0 -0.591,0.834 -1.59,1.096 -1,0.262 -0.902,3.345 -2.185,3.345 -1.283,0 -1.079,0.507 -2.599,-0.302 -1.521,-0.809 -3.418,-0.685 -3.518,-1.178 -0.1,-0.494 -4.566,-1.111 -4.121,-1.11 0.445,0 0.049,1.109 0,1.356 -0.049,0.247 -1.527,0.986 -1.527,0.986 -10e-4,0 0.246,2.961 -10e-4,3.7 -0.247,0.74 -2.271,2.904 -2.271,2.904 0,0 0.123,-0.139 -0.705,-0.324 -0.828,-0.185 -2.265,-0.904 -2.265,-0.904 0,0 -1.941,-0.111 -1.434,-0.894 0.507,-0.783 1.496,-0.779 1.434,-1.396 -0.062,-0.619 -0.802,-2.592 -2.405,-3.086 -1.604,-0.492 -3.699,-0.863 -4.871,-0.739 -1.173,0.123 -0.925,-0.247 -2.528,1.109 -1.604,1.357 -3.514,2.87 -4.07,2.716 -0.558,-0.155 -5.229,-3.704 -5.229,-3.704 0,0 -1.505,-1.15 -2.083,-1.202 -0.577,-0.053 -2.295,0.398 -3.542,0.341 -1.247,-0.058 -2.267,-0.585 -4.02,-2.362 -1.753,-1.777 -3.315,-2.413 -3.813,-2.675 -0.498,-0.262 -3.991,-1.331 -3.991,-1.331 l -1.401,-0.415 -1.204,-0.319 c 0,0 -0.19,0.319 -1.081,0.319 -0.892,0 -1.766,-0.319 -1.766,-0.319 0,0 2.285,-0.525 2.725,-1.002 0.438,-0.477 1.188,-1.086 1.85,-2.132 0.662,-1.047 1.727,-2.343 1.727,-2.343 0,0 -0.494,-1.234 -0.617,-1.604 -0.123,-0.37 -0.545,-1.038 -1.109,-2.097 -0.565,-1.059 -1.234,-0.968 -1.728,-2.087 -0.493,-1.12 -1.973,-3.073 -1.973,-3.073 l 0.892,-2.996 -1.766,-1.877 -6.691,2.88 v 1.356 h -3.1 l -0.195,2.467 -1.741,2.307 -3.474,-4.137 v -3.967 l -4.151,-0.986 -1.581,-2.02 -1.256,-1.311 c 0,0 -0.982,-0.863 -1.416,-0.986 -0.435,-0.123 -2.16,-0.124 -2.654,-0.617 -0.494,-0.493 -0.617,-1.604 -1.604,-1.85 -0.987,-0.246 -2.59,0 -2.59,0 l -0.542,-2.094 c 0,0 -0.109,0.015 -0.271,0.034 z"
   style="fill:#677821" /><rect
   style="fill:none;stroke:#000000;stroke-width:0.29998;stroke-linejoin:bevel;stroke-dasharray:none;paint-order:stroke fill markers"
   id="rect2"
   height="4390.293"
   x="0.19998971"
   y="0.19998971"
   ry="0.69917101"
   width="4353.8188" /></svg>
