<?xml version="1.0" encoding="UTF-8" standalone="no"?>
<!-- Generator: Adobe Illustrator 22.1.0, SVG Export Plug-In . SVG Version: 6.00 Build 0)  -->

<svg
   version="1.1"
   x="0px"
   y="0px"
   viewBox="0 0 4354.1187 4390.5933"
   enable-background="new 0 0 1995.865 2834.646"
   xml:space="preserve"
   id="svg1596"
   width="4354.1187"
   height="4390.5933"
   xmlns="http://www.w3.org/2000/svg"
   xmlns:svg="http://www.w3.org/2000/svg"><defs
   id="defs1596" />


<path
   id="Hampshire_1_"
   fill="#303B09"
   d="m 2486.7135,2993.2711 c 0,0 -0.616,-0.126 1.849,0 2.467,0.126 5.427,-0.056 5.427,-0.056 l 1.85,-1.154 c 0,0 -0.616,-1.131 -0.863,-1.501 -0.246,-0.37 -0.123,-2.097 -0.123,-2.097 0,0 1.726,-0.617 1.974,-1.11 0.247,-0.493 0.739,-2.097 0.739,-2.097 h 2.344 1.109 7.771 c 0,0 2.837,0.617 3.577,0.617 0.74,0 6.043,-0.74 6.906,-0.617 0.863,0.123 4.688,-0.273 5.18,-0.014 0.494,0.26 2.344,1.124 2.961,1.247 0.616,0.123 4.317,1.109 4.255,1.233 -0.062,0.123 4.378,0 4.378,0 0,0 1.604,-2.551 1.974,-2.57 0.37,-0.019 2.466,-2.352 2.466,-2.352 l 1.851,-0.505 c 0,0 1.356,1.356 1.726,1.851 0.37,0.493 3.33,3.741 4.441,3.658 1.109,-0.082 5.18,-0.698 5.18,-0.698 h 2.22 l 4.193,-0.247 4.811,0.247 2.837,1.356 2.59,0.369 1.85,-0.246 2.097,0.246 1.356,0.124 1.85,0.37 1.357,1.233 2.097,1.356 1.479,0.616 6.291,10.114 0.863,2.22 v 3.33 3.083 l -0.863,2.59 c 0,0 -1.234,0.617 -1.604,0.863 -0.371,0.247 -0.863,-0.246 -1.233,0 -0.37,0.247 -1.233,-0.493 -1.48,-0.863 -0.247,-0.37 0.123,-0.863 -0.986,-1.109 -1.11,-0.247 -3.454,-0.124 -3.454,-0.124 l -1.603,0.493 -1.48,2.221 -0.616,1.603 c 0,0 -1.357,0.37 -1.851,1.233 -0.494,0.863 0.247,2.344 0.37,2.837 0.123,0.493 1.851,3.946 2.097,4.687 0.247,0.74 -0.123,2.837 -0.123,2.837 0,0 -0.616,2.837 -0.493,3.577 0.123,0.739 1.727,0.986 1.727,0.986 l 2.097,-0.617 c 0,0 0.863,-0.369 1.109,0.617 0.247,0.986 1.48,3.453 1.851,4.316 0.371,0.863 1.479,2.22 1.85,2.467 0.371,0.247 2.59,0.493 2.59,0.493 l -0.246,1.974 h -1.974 l 0.987,3.453 -3.7,3.577 c 0,0 -1.481,1.727 -1.851,1.85 -0.369,0.123 -1.604,0.247 -2.467,0 -0.863,-0.247 -1.479,-0.493 -1.727,-0.863 -0.246,-0.37 -1.479,-0.124 -1.479,-0.124 l -0.987,1.13 -0.369,3.435 -2.098,2.22 -2.713,2.466 -0.863,4.317 -1.479,1.727 -0.37,0.616 -0.987,4.193 -0.739,1.974 -1.233,1.479 c 0,0 0.493,1.727 0,2.098 -0.494,0.369 -1.233,0.986 -1.233,0.986 0,0 1.109,1.727 1.233,2.22 0.123,0.493 0.123,2.22 0.123,2.22 0,0 -1.109,1.604 -1.604,1.604 -0.493,0 -1.109,5.057 -1.109,5.057 l 0.986,2.714 1.356,2.59 -0.986,5.056 -0.181,0.318 c 0.414,-1.069 0.271,0.143 -1.423,-0.197 -1.85,-0.369 -3.699,-0.185 -4.81,0 -1.11,0.186 -0.74,-1.295 -2.22,-1.295 -1.48,0 -1.11,0.186 -2.405,0.926 -1.295,0.74 -0.37,0.925 -1.295,2.22 -0.925,1.295 0.185,-1.295 -1.295,-0.555 -1.48,0.739 -0.925,2.404 -0.74,3.885 0.185,1.479 0.185,3.885 0.185,3.885 0,0 -0.74,2.405 0.37,1.48 1.11,-0.925 3.146,-0.74 4.255,-0.74 1.11,0 2.035,-0.37 2.221,-2.035 0.185,-1.665 0.369,-3.146 0.555,-3.7 0.186,-0.554 0.37,-1.85 1.109,-2.035 0.74,-0.185 0.926,-0.739 1.851,0.37 0.925,1.11 1.295,2.035 1.11,2.591 -0.185,0.555 -0.926,1.109 -1.295,1.664 -0.37,0.556 1.109,0.926 1.109,1.665 0,0.74 -1.295,1.665 -0.555,2.035 0.74,0.37 0.925,1.48 1.48,1.295 0.555,-0.185 1.664,0.186 1.664,0.186 0,0 0.186,2.034 -0.555,2.034 -0.741,0 -1.295,-0.369 -3.145,-0.925 -1.851,-0.555 -2.221,-1.479 -3.886,-1.295 -1.665,0.186 -2.774,0.186 -3.515,0.186 -0.741,0 -2.035,-0.37 -4.07,0.37 -2.035,0.739 -4.625,1.85 -5.55,1.109 -0.925,-0.741 -1.85,-0.925 -2.035,-2.22 -0.185,-1.295 0.74,-1.665 1.295,-2.96 0.556,-1.295 0.556,-1.665 0.186,-2.405 -0.37,-0.739 0.185,-0.37 0,-1.665 -0.186,-1.295 -0.925,-0.37 -0.186,-1.295 0.74,-0.925 -0.37,-1.295 -0.739,-2.035 -0.37,-0.74 0,-1.85 -0.926,-2.035 -0.925,-0.185 -1.85,0.556 -1.295,1.295 0.555,0.74 0,1.666 -1.109,1.11 -1.11,-0.555 -1.48,-0.555 -2.775,-1.11 -1.295,-0.555 -1.665,-0.739 -2.775,-0.369 -1.109,0.369 0.926,0.74 1.48,1.479 0.555,0.74 1.48,0.925 1.665,1.851 0.185,0.925 0.555,1.85 1.11,2.774 0.555,0.925 -0.37,-0.925 0.555,0.925 0.925,1.851 0.185,0.556 0.925,1.851 0.74,1.295 2.035,0.925 0.74,1.295 -1.295,0.37 -0.74,0.925 -1.665,1.295 -0.925,0.37 -0.74,1.11 0,1.11 0.74,0 1.665,-1.48 0.74,0 -0.926,1.479 -1.295,2.22 -2.221,1.85 -0.925,-0.37 -1.48,-1.665 -2.404,-1.665 -0.926,0 -1.85,-0.555 -2.961,-1.11 -1.109,-0.555 -2.774,-2.22 -3.145,-3.33 -0.37,-1.109 -2.59,-2.404 -3.885,-2.774 -1.295,-0.37 -5.55,-3.33 -6.29,-3.7 -0.74,-0.37 -2.96,-1.665 -3.515,-2.405 -0.556,-0.739 -2.775,-1.85 -2.961,-2.404 -0.185,-0.556 -3.515,-2.96 -3.515,-3.516 0,-0.555 -1.85,-3.145 -1.85,-3.145 l -1.851,-1.11 -1.295,0.555 c 0,0 -1.665,-0.925 -1.85,-1.479 -0.186,-0.555 0,-0.925 -1.85,-1.479 -1.851,-0.556 -4.256,-0.74 -4.256,-0.74 0,0 -0.555,0.369 1.295,1.109 1.85,0.74 3.886,2.221 3.886,2.221 0.925,1.295 1.665,3.33 2.774,4.625 1.11,1.295 3.516,3.145 3.516,3.699 0,0.556 2.035,1.665 2.035,1.665 0,0 1.85,-0.185 1.85,0.556 0,0.741 0.555,2.404 0.925,2.96 0.37,0.555 1.665,2.034 1.665,2.034 0,0 2.035,-1.109 2.035,-0.185 0,0.924 -0.37,1.48 -1.295,2.405 -0.926,0.925 -1.48,1.85 -2.221,2.775 -0.739,0.925 -0.185,1.664 -1.85,2.034 -1.665,0.37 -7.955,0.186 -7.955,0.186 0,0 0.74,0.37 1.11,1.479 0.37,1.11 0.185,1.665 -1.665,2.035 -1.85,0.37 -3.33,0.925 -4.811,1.11 -1.479,0.185 -5.734,1.295 -6.289,1.479 -0.556,0.186 -2.405,0.186 -3.33,0 -0.926,-0.185 -3.146,-1.295 -2.035,-0.74 1.109,0.556 1.109,1.851 0.555,3.146 -0.554,1.295 -0.37,1.85 -1.48,2.774 -1.109,0.926 -1.479,1.666 -2.034,1.851 -0.556,0.185 -0.556,0.185 -0.556,0.185 l -1.295,1.295 2.221,2.035 c 0,0 -3.33,-2.035 -4.07,-2.404 -0.74,-0.37 -1.85,-1.11 -3.145,-1.665 -1.296,-0.556 -2.591,-0.74 -3.701,-0.925 -1.109,-0.186 -2.22,-0.556 -3.699,-0.74 -0.97,-0.122 -3.368,-0.322 -5.168,-0.498 l 0.049,-0.057 c 0.37,-0.246 1.11,-2.713 1.11,-2.713 h -4.44 l -2.343,-2.221 v -1.479 c 0,0 -0.74,-1.604 -0.863,-2.097 -0.124,-0.494 -1.481,0.246 -1.851,0.37 -0.369,0.123 -1.356,1.233 -1.727,1.974 -0.37,0.74 -1.973,0 -1.973,0 v -2.098 l -0.864,-1.727 -0.575,-1.85 v -1.604 -2.713 l -0.164,-2.22 c 0,0 0.369,-1.604 0,-2.221 -0.371,-0.616 -0.863,-3.7 -0.74,-4.193 0.123,-0.493 -0.847,-1.11 -0.847,-1.11 0,0 -2.113,0.617 -2.483,0.987 -0.37,0.37 -2.221,-1.604 -2.221,-1.604 l 0.247,-2.59 c 0,0 -0.247,-1.356 -0.247,-2.097 0,-0.741 0.247,-1.604 0.864,-1.973 0.616,-0.371 1.849,-0.371 2.59,-0.74 0.74,-0.37 0.493,-0.987 0.493,-1.48 0,-0.493 0.123,-2.22 0.123,-2.22 0,0 0.37,-2.344 0.617,-2.714 0.246,-0.37 -2.344,-0.37 -2.344,-0.37 0,0 -2.097,0 -2.467,0 -0.369,0 -1.603,1.48 -2.097,2.22 -0.493,0.74 -1.973,-0.492 -2.22,-0.739 -0.247,-0.247 -0.986,-1.851 -0.986,-1.851 l -4.193,-5.55 c 0,0 -1.974,-2.343 -2.714,-3.453 -0.739,-1.11 -2.713,-3.329 -2.713,-3.329 0,0 -0.153,-0.058 -0.422,-0.104 l 0.422,0.104 h 1.648 l 1.929,-2.591 c 0,0 6.289,0.123 6.783,0 0.493,-0.124 1.479,0 1.479,0 v 3.453 c 0,0 1.233,-2.22 1.727,-2.837 0.493,-0.616 2.097,-1.85 2.097,-1.85 h 0.863 l 2.59,4.07 1.851,-0.494 h 1.85 l 2.344,1.11 c 0,0 1.727,1.11 2.96,1.356 1.233,0.247 3.576,0 3.576,0 0,0 0.74,-0.123 1.357,0.617 0.616,0.74 1.85,2.59 3.083,3.823 1.233,1.233 2.59,2.343 3.33,2.343 0.74,0 2.713,0 3.083,-0.616 0.37,-0.617 1.356,-1.356 1.974,-1.356 0.616,0 1.356,-0.123 1.85,-0.863 0.494,-0.74 1.356,-3.7 0.987,-4.193 -0.37,-0.494 -1.851,-0.74 -2.098,-2.221 -0.246,-1.479 0,-2.22 1.48,-2.836 1.481,-0.617 1.85,-1.604 1.85,-1.604 v -2.344 l -1.232,-1.48 h -1.11 l -1.11,-0.862 -0.863,-4.811 c 0,0 -0.123,-4.069 0,-4.563 0.123,-0.493 -0.246,-2.467 -0.246,-2.467 l 0.246,-3.576 v -1.974 l 0.74,-1.233 -2.713,-1.727 -1.851,-0.863 c 0,0 0.124,-2.344 0.247,-2.836 0.123,-0.494 0.37,-1.851 0.37,-1.851 l -1.11,-3.083 -0.863,-1.85 0.246,-1.11 0.494,-1.48 -3.084,-2.343 -0.616,-2.837 0.616,-0.863 h 4.193 l 2.961,-0.616 3.33,-6.414 2.837,-1.356 2.219,0.739 2.22,0.494 1.234,0.246 1.603,-0.74 v -1.973 -1.604 -0.986 l -0.616,-1.851 0.616,-1.11 1.604,-1.232 v -1.85 l -0.863,-2.221 -0.493,-2.467 0.369,-2.467 0.987,-1.604 z"
   style="fill:#677821" /><rect
   style="fill:none;stroke:#000000;stroke-width:0.29998;stroke-linejoin:bevel;stroke-dasharray:none;paint-order:stroke fill markers"
   id="rect2"
   height="4390.293"
   x="0.19998971"
   y="0.19998971"
   ry="0.69917101"
   width="4353.8188" /></svg>
