<?xml version="1.0" encoding="UTF-8" standalone="no"?>
<!-- Generator: Adobe Illustrator 22.1.0, SVG Export Plug-In . SVG Version: 6.00 Build 0)  -->

<svg
   version="1.1"
   x="0px"
   y="0px"
   viewBox="0 0 4354.1187 4390.5933"
   enable-background="new 0 0 1995.865 2834.646"
   xml:space="preserve"
   id="svg1596"
   width="4354.1187"
   height="4390.5933"
   xmlns="http://www.w3.org/2000/svg"
   xmlns:svg="http://www.w3.org/2000/svg"><defs
   id="defs1596" />


<path
   id="Herefordshire_1_"
   fill="#4B5A26"
   d="m 2333.0495,2883.2231 c -0.491,0.495 -0.599,1.24 -1.136,1.699 -0.54,0.461 -0.998,0.628 -1.91,-0.01 -0.369,-0.257 -0.587,-0.705 -0.8,-1.102 -0.114,-0.212 -0.191,-0.654 -0.39,-0.801 -0.491,-0.364 -1.779,0.244 -2.359,0.244 -0.322,0 -0.48,0.161 -0.549,0.411 0,0 -0.513,-1.398 -1.129,-1.274 -0.616,0.123 -0.74,-0.016 -1.481,-0.01 -0.74,0.01 -1.355,0.13 -1.602,0.624 -0.247,0.493 -0.74,0.986 -1.48,0.617 -0.739,-0.371 -1.85,-0.386 -2.343,-1.242 -0.494,-0.855 -1.029,-1.596 -1.029,-1.596 l -1.068,-1.479 -1.479,-1.783 c 0,0 -0.37,-1.67 0,-2.163 0.37,-0.494 0.739,-0.616 0.493,-1.11 -0.246,-0.493 0.535,-0.246 -0.657,-0.739 -1.192,-0.494 -2.303,-0.494 -2.673,-0.987 -0.37,-0.493 -1.604,-1.727 -1.973,-1.85 -0.37,-0.124 -0.863,-0.987 -1.603,-1.233 -0.74,-0.247 -1.85,-1.974 -1.85,-1.974 0,0 -1.11,-1.48 -1.357,-2.22 -0.246,-0.74 -0.369,-1.246 -1.232,-1.425 -0.864,-0.179 -1.604,0 -1.604,0 l -3.453,-0.079 c 0,0 -0.493,0.764 -1.11,0.764 -0.616,0 -3.805,1.233 -4.061,1.604 -0.256,0.371 -1.859,1.233 -2.599,1.604 -0.74,0.369 0.247,-0.37 -0.74,0.369 -0.987,0.74 0.246,1.357 -0.987,0.74 -1.232,-0.616 -1.232,-0.616 -1.232,-1.356 0,-0.74 0.493,-1.727 0,-2.343 -0.493,-0.617 0.123,-0.863 -0.987,-0.74 -1.11,0.123 -1.109,-0.754 -2.466,-0.562 -1.357,0.191 -1.48,0.068 -1.48,-1.042 0,-1.11 0.74,-1.356 0,-2.22 -0.74,-0.864 -1.233,-2.22 -1.727,-2.344 -0.493,-0.123 -3.7,-4.069 -3.7,-4.069 0,0 -0.987,-0.37 -1.356,-0.987 -0.37,-0.616 -0.986,-1.356 -1.356,-2.466 -0.37,-1.111 -1.234,-3.577 -1.234,-3.577 0,0 -1.603,-2.221 -1.603,-2.714 0,-0.493 -0.493,-3.084 0,-3.7 0.493,-0.616 0.986,-1.958 0.37,-3.137 -0.617,-1.18 -2.467,-2.413 -2.467,-3.029 0,-0.617 -2.347,-2.477 -2.096,-2.714 0.251,-0.236 0.411,-1.304 0.411,-1.304 0,0 0.672,-0.595 0.687,-0.786 0.015,-0.191 -0.354,-1.917 -0.358,-2.35 0,-0.433 0.062,-4.872 0.062,-4.872 0,0 -0.37,-0.74 -1.295,-1.233 -0.925,-0.493 -1.789,-1.233 -1.418,-2.035 0.371,-0.802 1.295,-1.109 2.652,-1.603 1.356,-0.493 2.837,-1.11 3.823,-1.727 0.986,-0.617 2.59,-1.356 2.097,-1.974 -0.493,-0.618 -0.37,-0.246 -1.974,0 -1.604,0.246 -3.083,0.617 -3.207,-1.233 -0.123,-1.851 -0.124,-1.85 1.11,-3.206 1.233,-1.357 0.74,-1.48 1.11,-3.7 0.37,-2.22 1.233,-3.206 1.727,-3.7 0.493,-0.494 1.727,-1.85 1.48,-2.96 -0.247,-1.11 -0.124,-1.851 0.494,-2.467 0.616,-0.616 2.836,-0.863 2.836,-0.863 0,0 -0.124,-1.479 0.246,-2.097 0.37,-0.617 0.987,-1.11 2.098,-1.48 1.109,-0.369 1.232,-0.986 2.59,-1.356 1.356,-0.37 1.727,0.247 3.33,0 1.603,-0.246 2.59,-0.863 3.207,-1.233 0.616,-0.369 2.959,-0.863 0.739,-1.109 -2.22,-0.247 -2.467,0.863 -3.946,0 -1.48,-0.863 -2.467,0.123 -2.467,-1.727 0,-1.851 0,-2.358 0.493,-3.522 0.493,-1.165 0.37,-1.403 0.37,-3.011 0,-1.608 -1.48,-1.977 0.37,-2.964 1.85,-0.987 2.59,-0.74 3.576,-1.974 0.987,-1.233 1.727,-2.836 1.727,-2.836 l 0.236,-0.945 c 0,0 -0.179,-0.052 -0.457,-0.13 l 0.457,0.13 3.465,0.329 v -2.142 -1.405 c 0,0 1.233,-0.4 1.603,0 0.371,0.399 1.234,-0.523 1.728,0 0.494,0.523 -0.124,-1.569 -0.124,-1.569 h -1.727 c 0,0 -0.616,-0.064 -0.842,-1.174 -0.227,-1.11 1.089,-1.357 1.705,-1.728 0.617,-0.37 0.74,0.247 1.357,0.494 0.616,0.247 1.074,1.481 1.074,1.481 l 0.158,-1.358 c 0,0 0.863,-0.863 0.979,-1.233 0.115,-0.369 0.872,-0.369 1.539,0 0.668,0.37 1.307,-0.863 1.676,-1.109 0.37,-0.246 1.603,-0.74 2.221,-0.713 0.616,0.027 2.097,0.59 4.193,1.082 2.096,0.494 0.369,0.617 1.233,1.356 0.863,0.739 1.176,1.698 1.356,3.454 0.18,1.756 0.123,1.974 1.849,2.699 1.727,0.725 1.85,0.384 3.986,0.137 2.138,-0.247 0.947,-0.246 2.126,0.741 1.179,0.986 -0.192,1.479 -0.562,2.59 -0.37,1.111 -0.616,0.616 -1.563,1.109 -0.946,0.493 -1.272,-0.123 -0.945,1.269 0.327,1.393 1.398,0.952 3.071,1.938 1.672,0.986 2.151,0.863 2.768,1.63 0.616,0.767 3.401,0.201 3.401,0.201 l 0.546,-2.078 0.616,-1.11 c 0,0 1.851,-2.959 1.842,-2.959 -0.01,0 2.475,0.739 3.061,1.109 0.586,0.369 2.128,2.097 2.621,2.837 0.493,0.74 1.381,3.164 1.381,3.164 l -0.033,0.012 c -1.697,0.593 -4.69,0.521 -4.69,0.521 0,0 -0.974,0.742 -1.222,1.419 -0.246,0.677 0.987,0.681 1.222,1.544 0.234,0.863 2.479,1.479 3.589,1.726 1.109,0.246 2.343,0.124 2.96,0.987 0.616,0.864 -0.494,1.48 -1.727,2.467 -1.233,0.986 -0.987,0.986 -2.332,2.097 -1.345,1.111 -0.629,1.728 -0.629,2.714 0,0.986 0.863,0.739 1.604,0.863 0.74,0.123 2.344,0.503 2.344,0.503 0,0 2.097,-0.997 3.15,-1.366 1.054,-0.37 2.068,-0.986 2.068,-0.986 0,0 1.319,0.246 3.046,0.246 1.727,0 3.206,-0.37 5.426,-1.85 2.22,-1.48 1.48,-1.11 1.1,-1.974 -0.38,-0.863 -0.482,-1.356 1.121,-2.714 1.604,-1.355 1.479,-1.233 3.373,-1.727 1.893,-0.493 2.67,0.987 3.903,2.959 1.233,1.973 -0.493,1.481 -2.467,2.652 -1.973,1.17 -1.85,0.803 -2.343,4.009 -0.493,3.207 0.493,1.48 2.836,1.579 2.344,0.1 1.851,0.148 3.114,0.024 1.263,-0.124 1.45,0.247 1.819,0.863 0.37,0.617 1.603,0.37 2.436,0.616 0.832,0.247 0.524,0.74 0,1.34 -0.524,0.6 -0.345,0.087 -0.969,0.387 -0.624,0.299 -0.512,0.985 0,1.973 0.512,0.988 0.406,0.622 0.014,1.48 -0.394,0.857 0.437,1.141 0.437,1.141 0,0 -1.67,1.203 -2.286,3.543 -0.617,2.34 -1.48,2.224 -2.098,3.303 -0.616,1.08 1.233,3.484 2.344,4.718 1.109,1.233 2.097,0 4.316,-0.632 2.221,-0.632 2.344,-0.354 3.811,0.879 1.469,1.232 0.137,3.699 0,5.672 -0.135,1.972 0.383,4.071 1.055,5.797 0.672,1.726 1.055,2.221 1.055,4.688 0,2.467 -1.109,2.467 -1.356,3.514 -0.247,1.047 0,3.764 0,4.75 0,0.986 -0.753,3.452 -0.753,3.452 l -0.098,0.026 c -0.782,0.24 -3.59,1.7 -3.59,1.7 0,0 -1.603,0.616 -1.85,1.11 -0.247,0.493 0.246,2.219 -0.617,2.713 -0.863,0.494 -2.097,0 -3.33,0 -1.232,0 -1.479,-1.726 -1.603,-2.59 -0.124,-0.863 -0.741,-1.727 -1.728,-1.973 -0.986,-0.247 -1.726,-1.604 -1.726,-1.604 l -1.48,-0.617 -1.48,0.123 0.59,0.732 c 0,0 -0.374,0.625 -0.853,1.118 -0.477,0.493 -1.463,0.986 -1.463,0.986 0,0 -0.987,0.493 0,1.356 0.986,0.863 0.831,1.233 1.463,1.48 0.633,0.247 0.578,0.245 0.853,0.986 0.274,0.74 -0.374,0.617 -0.853,1.357 -0.477,0.739 -1.34,1.553 -1.217,2.01 0.123,0.457 -0.123,1.566 0,2.184 0.123,0.616 -0.37,0.369 -0.123,1.356 0.246,0.986 0.338,1.233 1.34,1.604 1.003,0.37 4.216,0.354 4.151,1.534 -0.065,1.179 -1.052,1.999 -0.928,2.329 0.123,0.329 -0.741,1.426 -0.124,2.111 0.617,0.685 1.233,1.548 1.604,1.919 0.37,0.369 1.479,1.727 1.356,2.836 -0.123,1.11 -0.369,1.479 -0.616,2.158 -0.247,0.679 -1.356,1.049 -2.59,1.295 -1.234,0.247 -1.535,1.727 -2.001,1.727 -0.466,0 -1.194,-0.123 -1.57,0.124 -0.376,0.247 -1.979,-0.884 -1.979,-0.884 0,0 -0.986,2.132 -1.232,2.248 -0.247,0.115 -1.234,2.582 -1.851,2.828 -0.616,0.247 -2.305,-0.246 -2.14,0.124 0.166,0.37 -1.807,0.493 -1.807,0.493 l -2.688,-0.065 c 0.178,0.486 -0.52,1.112 -0.52,1.669 0,0.74 -1.233,0.123 -1.356,-0.493 -0.124,-0.617 -1.232,-0.617 -1.851,-0.493 -1.414,0.283 -1.493,2.309 -2.563,2.992 -0.687,0.439 -1.265,0.313 -1.871,0.923 z"
   style="fill:#677821" /><rect
   style="fill:none;stroke:#000000;stroke-width:0.29998;stroke-linejoin:bevel;stroke-dasharray:none;paint-order:stroke fill markers"
   id="rect2"
   height="4390.293"
   x="0.19998971"
   y="0.19998971"
   ry="0.69917101"
   width="4353.8188" /></svg>
