<?xml version="1.0" encoding="UTF-8" standalone="no"?>
<!-- Generator: Adobe Illustrator 22.1.0, SVG Export Plug-In . SVG Version: 6.00 Build 0)  -->

<svg
   version="1.1"
   x="0px"
   y="0px"
   viewBox="0 0 4354.1187 4390.5933"
   enable-background="new 0 0 1995.865 2834.646"
   xml:space="preserve"
   id="svg1596"
   width="4354.1187"
   height="4390.5933"
   xmlns="http://www.w3.org/2000/svg"
   xmlns:svg="http://www.w3.org/2000/svg"><defs
   id="defs1596" />


<path
   id="Hertfordshire_1_"
   fill="#606F38"
   d="m 2686.5835,2917.6581 -4.143,-0.21 -5.476,-1.201 -3.031,-0.553 -5.302,1.117 -4.812,3.939 -4.686,1.233 -3.111,1.974 -1.822,1.545 -2.759,1.959 -2.759,0.936 -5.892,0.617 c 0,0 -0.614,-0.246 -1.448,0.37 -0.833,0.616 -4.902,2.128 -5.89,2.235 -0.986,0.107 -5.485,0 -5.485,0 0,0 -2.654,0.111 -3.395,0.048 -0.741,-0.063 -0.74,-0.063 -0.74,-0.063 l -2.878,-2.905 -0.954,0.675 -0.293,0.719 c 0.113,-0.391 0.22,-0.662 0.293,-0.719 0.289,-0.223 -1.348,-0.853 -1.842,-1.1 -0.493,-0.246 -2.227,-0.812 -2.227,-0.812 0.01,-0.297 0,-2.641 0,-2.641 l -0.979,-2.097 0.982,-0.987 c 0,0 1.854,-0.616 2.101,-1.109 0.247,-0.493 1.357,-1.233 0,-1.85 -1.356,-0.617 -1.356,-0.494 -3.083,-0.863 -1.727,-0.371 -2.344,-0.247 -1.974,-1.851 0.37,-1.603 0.247,-0.247 -0.863,-3.207 -1.109,-2.96 -1.479,-2.713 -0.863,-4.192 0.616,-1.48 2.344,-1.48 0.493,-2.344 -1.85,-0.863 -3.206,-1.85 -3.206,-1.85 0,0 0,-1.11 -1.727,-1.48 -1.728,-0.37 -2.456,-0.123 -4.497,-0.74 -2.04,-0.616 -2.903,-0.863 -4.137,-1.973 -1.233,-1.11 -2.467,-2.097 -2.714,-3.454 -0.246,-1.356 0,-2.467 0,-2.467 l -1.479,-2.466 -2.097,-3.207 c 0,0 -0.617,-0.863 -0.986,-0.863 -0.37,0 -1.358,-0.123 -1.727,0 -0.371,0.123 -1.357,-1.727 -1.604,-2.22 -0.247,-0.494 -1.11,-1.356 -0.987,-2.467 0.124,-1.11 0.493,-0.987 0.987,-1.356 0.493,-0.371 1.726,-1.357 1.85,-1.851 0.123,-0.493 0.493,-1.11 1.233,-0.74 0.74,0.37 1.233,-0.226 1.974,-0.112 0.739,0.112 1.479,0.977 1.356,1.716 -0.123,0.74 -0.74,1.974 -0.247,2.591 0.494,0.616 1.728,1.973 1.974,2.836 0.247,0.863 1.356,2.344 1.851,2.467 0.492,0.123 1.355,0.863 1.355,0.863 l 2.838,-1.356 c 0,0 1.232,-0.124 1.973,0.246 0.741,0.37 2.22,0.37 2.59,0.617 0.37,0.247 1.11,1.233 1.604,0.739 0.493,-0.492 0.986,-1.973 1.604,-2.467 0.617,-0.492 1.109,-1.232 1.48,-1.232 0.369,0 1.109,0.246 1.109,0.246 l 1.604,1.727 -0.246,0.987 1.232,1.727 2.344,-0.616 1.649,-1.851 c 0,0 0.291,-1.356 0,-1.974 -0.292,-0.616 0.324,-2.22 0.695,-2.467 0.369,-0.246 0.862,-0.863 1.726,-1.356 0.864,-0.493 0.864,-0.493 0.864,-0.493 0,0 0.863,-1.85 1.603,-1.85 0.74,0 0.74,0.986 2.344,1.109 l 1.233,0.123 h 1.356 1.356 c 0,0 0,-0.616 1.727,0.987 1.728,1.604 2.714,2.837 3.7,2.96 0.987,0.123 1.479,-0.493 1.974,-1.109 0.493,-0.617 1.233,-1.48 2.097,-1.975 0.863,-0.492 0.37,-1.232 0,-2.466 -0.37,-1.234 -1.357,-2.097 -0.74,-3.7 0.617,-1.604 -0.369,-3.206 -0.863,-4.07 -0.493,-0.863 -2.097,-1.603 -2.097,-2.59 0,-0.986 -0.123,-3.33 -1.357,-4.316 -1.233,-0.987 -1.356,-1.727 -1.726,-3.823 -0.37,-2.096 0.479,-4.193 0.918,-5.92 0.438,-1.728 0.933,-2.837 1.425,-2.097 0.494,0.74 0.617,1.973 0.247,2.96 -0.37,0.986 -0.617,2.836 0.247,3.083 0.863,0.246 1.85,-0.123 3.083,-1.356 1.233,-1.233 3.673,-1.727 1.343,-2.96 -2.33,-1.233 -4.426,-2.344 -2.699,-2.714 1.727,-0.37 1.914,-0.986 3.67,-0.493 1.757,0.493 2.99,1.85 3.729,0.493 0.74,-1.356 -0.37,-2.22 1.11,-3.206 1.48,-0.987 1.973,-2.221 2.59,-0.74 0.617,1.481 0.617,1.48 0.617,1.48 v 3.083 l 1.85,-0.124 c 0,0 1.974,-1.85 1.974,-2.343 0,-0.493 1.356,-1.727 1.973,-2.097 0.617,-0.37 3.7,-1.233 3.7,-1.233 l 1.604,-0.863 -2.713,-5.797 c 0,0 1.85,-3.083 1.85,-3.453 0,-0.37 1.109,-1.479 1.85,-1.604 0.74,-0.123 2.221,-0.493 2.467,-0.863 0.247,-0.37 0.617,-1.604 0.617,-1.604 v -1.603 l 0.739,-0.494 1.233,0.617 c 0,0 -0.123,1.479 0,1.85 0.123,0.371 0,1.357 0,2.221 0,0.862 0.247,1.356 0.617,1.85 0.369,0.493 0.739,1.356 1.356,1.604 0.616,0.246 1.356,1.109 1.356,1.109 v 2.837 l 0.863,0.74 c 0,0 3.33,-2.837 3.947,-3.083 0.616,-0.247 2.713,-0.494 3.823,-1.48 1.109,-0.986 2.96,-2.714 2.96,-2.714 0,0 0.616,-1.356 1.356,-1.603 0.74,-0.247 1.727,-0.617 2.097,-0.123 0.37,0.492 1.11,0.863 1.604,1.603 0.493,0.74 1.109,1.11 2.22,1.11 1.111,0 3.453,-0.123 3.453,-0.123 0,0 0.617,1.109 1.11,2.836 0.493,1.727 1.356,3.946 1.973,5.18 0.617,1.234 1.975,1.604 1.604,2.714 -0.369,1.11 -0.49,2.59 0.063,3.453 0.554,0.863 2.526,-0.123 3.144,0.987 0.617,1.109 1.974,3.329 2.097,4.686 0.123,1.357 0.987,3.701 1.11,5.674 0.123,1.974 0.739,4.439 0.863,4.934 0.123,0.494 0,3.7 0,3.7 l 1.233,1.233 2.96,-1.11 2.713,-0.863 2.467,0.124 -3.33,2.466 0.493,1.11 0.863,0.123 0.617,1.11 c 0,0 0.493,0.616 0.247,0.986 -0.247,0.37 -1.11,1.604 -1.11,1.604 l -1.48,1.356 v 1.974 c 0,0 -0.493,1.479 -0.37,2.467 0.123,0.986 0.247,2.714 0.494,3.083 0.246,0.37 0.492,1.233 0,1.727 -0.494,0.494 -1.85,0.987 -2.344,1.974 -0.493,0.986 -0.986,1.604 -1.356,1.851 -0.37,0.246 -2.097,1.726 -3.207,1.726 -1.11,0 -1.11,-0.247 -2.22,0 -1.11,0.247 -3.576,-0.123 -4.316,0 -0.74,0.124 -1.544,1.604 -1.882,1.851 -0.339,0.246 -1.942,1.356 -2.312,1.356 -0.371,0 -1.357,-0.863 -1.974,0 -0.617,0.863 -0.493,1.604 -1.11,2.467 -0.616,0.863 -1.232,1.851 -1.479,2.343 -0.247,0.494 -1.48,1.974 -1.48,1.974 0,0 -0.616,-0.123 -0.863,0.987 -0.247,1.109 -0.493,4.316 -0.616,5.303 -0.123,0.986 -0.247,5.057 0,5.427 0.112,0.166 0.225,0.858 0.315,1.59 0.019,0.153 0.035,0.309 0.053,0.462 z"
   style="fill:#677821" /><rect
   style="fill:none;stroke:#000000;stroke-width:0.29998;stroke-linejoin:bevel;stroke-dasharray:none;paint-order:stroke fill markers"
   id="rect2"
   height="4390.293"
   x="0.19998971"
   y="0.19998971"
   ry="0.69917101"
   width="4353.8188" /></svg>
