<?xml version="1.0" encoding="UTF-8" standalone="no"?>
<!-- Generator: Adobe Illustrator 22.1.0, SVG Export Plug-In . SVG Version: 6.00 Build 0)  -->

<svg
   version="1.1"
   x="0px"
   y="0px"
   viewBox="0 0 4354.1187 4390.5933"
   enable-background="new 0 0 1995.865 2834.646"
   xml:space="preserve"
   id="svg1596"
   width="4354.1187"
   height="4390.5933"
   xmlns="http://www.w3.org/2000/svg"
   xmlns:svg="http://www.w3.org/2000/svg"><defs
   id="defs1596" />


<g
   id="Isles_of_Scilly__x3C_Group_x3E__1_"
   style="fill:#677821"
   transform="translate(1093.6405,660.66109)">
					<path
   fill="#4B5A26"
   d="m 742.49,2633.543 c 0.246,-0.37 0.863,-0.37 1.604,-0.37 0.74,0 0.493,-0.732 0.493,-0.732 0,0 -0.124,-1.61 0,-2.474 0.123,-0.864 0.74,-0.74 1.727,-0.986 0.986,-0.247 1.48,0.986 1.48,0.986 0,0 1.233,0.863 1.233,1.604 0,0.741 0,1.479 -0.616,2.632 -0.617,1.152 -0.863,0.45 -1.233,0.081 -0.37,-0.37 -1.233,0.617 -1.233,1.232 0,0.617 -0.74,0.494 -1.727,0 -0.986,-0.493 0,-1.232 0,-1.232 l -0.74,0.617 h -0.986 c -0.002,-10e-4 -0.249,-0.988 -0.002,-1.358 z"
   id="path1268"
   style="fill:#677821" />
					<path
   fill="#4B5A26"
   d="m 745.703,2620.963 c 0.153,0.414 0.501,0.74 0,1.357 -0.5,0.615 -0.285,1.109 0.286,1.355 0.57,0.247 1.065,0.195 1.188,0.715 0.123,0.52 0.74,1.012 1.11,0.766 0.37,-0.246 0.616,-0.669 1.356,-0.766 0.74,-0.098 1.479,-0.896 1.479,-1.299 0,-0.403 -1.109,-0.648 -1.109,-0.648 0,0 -1.26,1.176 -1.74,0.648 -0.48,-0.525 -0.85,-1.019 -1.097,-1.389 -0.247,-0.37 -0.493,-0.74 -0.493,-0.74 0,0 -1.262,-0.763 -0.98,0 z"
   id="path1269"
   style="fill:#677821" />
					<path
   fill="#4B5A26"
   d="m 743.476,2621.21 c -0.863,0.616 -1.453,0.739 -1.096,1.233 0.356,0.492 1.096,0.342 1.589,0.479 0.494,0.139 0.494,-0.246 0.617,-0.855 0.123,-0.611 -1.11,-0.857 -1.11,-0.857 z"
   id="path1270"
   style="fill:#677821" />
					<path
   fill="#4B5A26"
   d="m 738.789,2622.922 c -0.37,0.357 -0.863,1.125 -1.356,1.469 -0.494,0.344 -0.74,1.192 -0.74,1.192 0,0 0.863,1.547 1.11,2.657 0.246,1.109 1.356,-0.74 1.233,-1.851 -0.124,-1.11 0.37,-1.479 1.141,-1.999 0.772,-0.52 0.462,0.396 0.092,1.192 -0.37,0.797 0.494,0.931 0.494,1.67 0,0.74 0.863,1.11 1.617,1.694 0.753,0.584 0.603,-0.831 0.48,-1.57 -0.124,-0.74 0.123,-1.975 0,-2.986 -0.124,-1.014 -0.863,-0.591 -1.48,-0.838 -0.617,-0.246 -0.493,-0.863 -1.11,-1.473 -10e-4,10e-4 -1.11,0.487 -1.481,0.843 z"
   id="path1271"
   style="fill:#677821" />
					<path
   fill="#4B5A26"
   d="m 738.543,2629.844 c -0.74,0.862 -0.987,2.728 -0.617,2.597 0.37,-0.13 1.951,0.871 1.9,0 -0.051,-0.87 0.175,-1.241 0,-1.857 -0.173,-0.617 -1.283,-0.74 -1.283,-0.74 z"
   id="path1272"
   style="fill:#677821" />
					<path
   fill="#4B5A26"
   d="m 741.256,2640.573 c 0.493,-0.617 1.789,-1.11 1.018,-2.097 -0.771,-0.986 -2.262,-1.85 -2.38,-1.974 -0.118,-0.123 -0.663,0.124 -1.069,0.616 -0.406,0.494 -1.855,0.709 -1.069,1.402 0.787,0.695 2.368,0.818 2.07,1.435 -0.296,0.618 1.43,0.618 1.43,0.618 z"
   id="path1273"
   style="fill:#677821" />
					<path
   fill="#4B5A26"
   d="m 734.103,2638.521 c 0,0 0.247,1.435 0.493,2.052 0.247,0.616 1.233,0.987 2.097,0.987 0.863,0 -0.247,-0.987 0,-1.48 0.247,-0.494 -1.233,-1.234 -1.48,-1.559 z"
   id="path1274"
   style="fill:#677821" />
				</g><rect
   style="fill:none;stroke:#000000;stroke-width:0.29998;stroke-linejoin:bevel;stroke-dasharray:none;paint-order:stroke fill markers"
   id="rect2"
   height="4390.293"
   x="0.19998971"
   y="0.19998971"
   ry="0.69917101"
   width="4353.8188" /></svg>
