<?xml version="1.0" encoding="UTF-8" standalone="no"?>
<!-- Generator: Adobe Illustrator 22.1.0, SVG Export Plug-In . SVG Version: 6.00 Build 0)  -->

<svg
   version="1.1"
   x="0px"
   y="0px"
   viewBox="0 0 4354.1187 4390.5933"
   enable-background="new 0 0 1995.865 2834.646"
   xml:space="preserve"
   id="svg1596"
   width="4354.1187"
   height="4390.5933"
   xmlns="http://www.w3.org/2000/svg"
   xmlns:svg="http://www.w3.org/2000/svg"><defs
   id="defs1596" />


<path
   id="Isle_of_Wight_3_"
   fill="#606F38"
   d="m 2474.7505,3136.5851 c 0,0 2.343,-0.494 2.466,-0.987 0.124,-0.493 -0.986,-1.85 0,-1.85 0.987,0 1.604,0.123 2.221,-0.863 0.616,-0.987 1.85,-1.928 2.097,-2.876 0.247,-0.947 0.74,-2.182 1.357,-2.674 0.617,-0.494 1.233,0.369 1.85,0 0.617,-0.37 1.604,-0.19 2.344,-0.157 0.74,0.034 2.467,0.034 3.207,-0.706 0.74,-0.74 3.33,-2.221 3.699,-2.467 0.371,-0.247 1.974,-1.233 2.344,-1.233 0.37,0 1.233,-0.616 1.357,0 0.123,0.616 -0.124,1.232 0,1.727 0.123,0.493 -0.176,0.616 0.035,1.109 0.211,0.494 1.197,0.987 1.197,0.124 0,-0.863 -0.986,-2.221 0,-1.727 0.987,0.493 1.11,1.109 2.221,1.109 1.109,0 1.233,-0.369 0.616,-0.74 -0.616,-0.369 -0.493,-1.233 -1.233,-1.356 -0.74,-0.123 -1.973,-0.177 -1.356,-0.521 0.616,-0.343 2.342,-1.082 2.959,-1.453 0.617,-0.369 2.098,-0.739 3.084,-0.862 0.987,-0.124 1.233,0.37 1.48,-1.11 0.247,-1.48 0.247,-2.344 1.109,-2.59 0.863,-0.247 1.974,-0.74 2.097,-1.357 0.123,-0.616 0.493,-1.479 1.357,-1.356 0.863,0.124 1.232,-1.011 1.85,-0.012 0.618,0.999 0.74,1.862 0.863,2.231 0.123,0.37 -0.863,3.207 0,3.084 0.863,-0.123 0.369,-0.123 0.616,-0.986 0.247,-0.863 0.494,-2.344 0.494,-3.084 0,-0.74 0.616,-1.604 1.603,-0.863 0.987,0.74 1.974,1.604 2.344,1.974 0.37,0.37 1.356,0.863 1.356,1.479 0,0.617 0,1.48 0.74,1.604 0.74,0.124 1.356,-0.37 2.22,0.123 0.863,0.494 1.233,1.233 2.96,1.48 1.728,0.246 2.097,-0.369 4.193,0.123 2.097,0.494 3.454,1.357 3.947,1.604 0.493,0.247 2.343,0.37 2.96,0.617 0.616,0.246 1.727,1.604 1.85,2.59 0.123,0.986 0,2.96 0,3.083 0,0.123 -0.877,1.032 0.055,1.194 0.932,0.162 1.179,-0.947 1.919,-0.577 0.739,0.37 1.604,0.708 1.727,1.772 0.123,1.063 0,1.187 -1.11,2.174 -1.109,0.986 -0.369,0 -1.109,0.986 -0.74,0.987 -0.617,1.357 -2.098,1.48 -1.479,0.123 -2.59,-0.37 -4.069,0.74 -1.48,1.109 -2.59,1.603 -3.33,2.713 -0.74,1.109 -1.603,5.674 -1.727,6.906 -0.124,1.234 0.493,3.7 -2.22,4.563 -2.714,0.864 -4.316,1.356 -5.057,1.728 -0.74,0.369 -3.823,1.109 -4.81,1.479 -0.986,0.37 -3.207,1.11 -4.44,0.739 -1.233,-0.369 -1.11,-0.862 -2.344,-2.219 -1.233,-1.357 -3.576,-3.454 -4.81,-4.317 -1.234,-0.863 -2.714,-2.466 -3.454,-3.206 -0.74,-0.74 -2.343,-2.467 -3.823,-2.837 -1.479,-0.37 -4.563,-1.48 -5.55,-2.467 -0.986,-0.986 -2.959,-3.454 -3.823,-3.7 -0.863,-0.246 -2.837,-0.863 -5.057,-0.74 -2.22,0.124 -3.7,0.987 -4.563,1.234 -0.863,0.246 -1.604,0.739 -2.59,0.739 -0.988,0 -2.837,-0.468 -2.221,-0.615 z"
   style="fill:#677821" /><rect
   style="fill:none;stroke:#000000;stroke-width:0.29998;stroke-linejoin:bevel;stroke-dasharray:none;paint-order:stroke fill markers"
   id="rect2"
   height="4390.293"
   x="0.19998971"
   y="0.19998971"
   ry="0.69917101"
   width="4353.8188" /></svg>
