<?xml version="1.0" encoding="UTF-8" standalone="no"?>
<!-- Generator: Adobe Illustrator 22.1.0, SVG Export Plug-In . SVG Version: 6.00 Build 0)  -->

<svg
   version="1.1"
   x="0px"
   y="0px"
   viewBox="0 0 4354.1187 4390.5933"
   enable-background="new 0 0 1995.865 2834.646"
   xml:space="preserve"
   id="svg1596"
   width="4354.1187"
   height="4390.5933"
   xmlns="http://www.w3.org/2000/svg"
   xmlns:svg="http://www.w3.org/2000/svg"><defs
   id="defs1596" />


<g
   id="Kent__x3C_Group_x3E__1_"
   style="fill:#677821"
   transform="translate(1093.6405,660.66109)">
					<path
   fill="#8D9764"
   d="m 1683.523,2314.665 c 0.309,0.124 0.617,-0.185 1.11,-0.062 0.493,0.123 0.493,0.432 1.048,0.863 0.556,0.432 0.247,-0.432 0.186,-0.802 -0.062,-0.37 0.184,-0.37 0.555,-0.247 0.37,0.123 0.432,0.432 0.679,0.556 0.247,0.123 0.37,-0.433 0.308,-0.802 -0.062,-0.37 -0.185,-0.802 -0.432,-1.094 -0.246,-0.293 -0.925,0.23 -1.295,0.045 -0.369,-0.185 -0.986,0.247 -1.541,0.37 -0.555,0.124 -0.874,0.532 -0.986,0.679 -0.274,0.352 0.06,0.37 0.368,0.494 z"
   id="path1263"
   style="fill:#677821" />
					<path
   fill="#8D9764"
   d="m 1685.867,2316.269 c -0.247,0.062 -0.74,-0.185 -0.986,-0.37 -0.247,-0.186 -0.432,0.432 -0.494,0.863 -0.062,0.432 0,0.74 0.37,0.95 0.37,0.211 0.74,0.592 1.356,0.653 0.617,0.062 0.863,0.246 1.357,0.37 0.493,0.123 0.863,-0.124 0.863,-0.432 0,-0.309 -0.309,-0.802 -0.493,-1.357 -0.186,-0.555 -0.309,-0.862 -0.417,-0.986 -0.107,-0.123 -0.632,-0.309 -0.816,-0.375 0,0 -0.494,0.622 -0.74,0.684 z"
   id="path1264"
   style="fill:#677821" />
					<path
   fill="#8D9764"
   d="m 1676.308,2319.29 c 0.37,-0.309 0.309,-0.736 0.863,-0.522 0.554,0.214 0.925,0.657 0.925,-0.058 0,-0.715 0.37,-0.911 -0.493,-0.998 -0.863,-0.087 -1.109,0.211 -1.665,0 -0.555,-0.21 -1.171,-0.149 -1.109,0.345 0.062,0.494 0.246,1.357 0.493,1.233 0.246,-0.124 0.986,0 0.986,0 z"
   id="path1265"
   style="fill:#677821" />
					<path
   fill="#8D9764"
   d="m 1670.881,2317.598 c 0.432,0.089 0.802,0.078 1.356,0.114 0.556,0.036 1.233,0.414 1.295,-0.114 0.062,-0.527 0.309,-0.713 -0.369,-0.774 -0.679,-0.062 -0.925,-0.247 -1.418,-0.432 -0.494,-0.185 -0.309,-0.616 -0.864,-0.185 -0.555,0.432 -0.493,0.768 -0.432,0.97 0.061,0.202 0.432,0.421 0.432,0.421 z"
   id="path1266"
   style="fill:#677821" />
					<path
   fill="#8D9764"
   d="m 1680.066,2314.912 c 0.429,0.308 0.621,0.185 0.744,0 0.123,-0.186 0,-0.432 0,-1.049 0,-0.617 -0.309,-0.37 -0.74,-0.617 -0.432,-0.246 -0.555,0.309 -0.802,0.617 0,0 0.37,0.741 0.798,1.049 z"
   id="path1267"
   style="fill:#677821" />
					<path
   id="Isle_of_Sheppey_3_"
   fill="#8D9764"
   d="m 1698.507,2324.717 c 1.07,-0.239 0.74,0.062 2.221,-0.309 1.481,-0.371 1.665,-0.37 3.145,0.37 1.48,0.739 2.961,0.37 4.625,0.555 1.665,0.185 1.665,0.37 2.59,0.555 0.926,0.186 1.295,0.37 2.591,1.48 1.295,1.11 1.479,0.37 3.329,0 1.851,-0.37 1.851,-0.925 3.146,-2.22 1.295,-1.295 2.035,-0.186 2.22,-1.653 0.186,-1.468 -1.295,-2.603 -2.22,-3.712 -0.925,-1.11 -2.035,-2.59 -4.069,-4.625 -2.035,-2.035 -2.405,-1.48 -4.625,-1.665 -2.221,-0.185 -4.996,-0.925 -7.216,-1.48 -2.22,-0.555 -3.145,-2.22 -3.145,-2.22 0,0 -2.22,-0.185 -4.44,-1.665 -2.22,-1.479 -1.479,0 -1.479,0 0,0 -0.37,1.665 0.37,2.035 0.739,0.37 -0.556,1.295 -0.926,2.22 0,0 -0.308,0.186 -0.432,0.556 -0.123,0.37 0,1.109 0,1.418 0,0.309 0.568,0.679 -0.055,0.925 -0.623,0.247 -1.424,0 -1.486,0.37 -0.062,0.37 -0.185,0.556 0.37,1.356 0.555,0.803 1.295,1.049 2.035,1.789 0.74,0.74 0.913,1.172 1.813,1.974 0.899,0.801 1.023,1.048 1.085,1.665 0.061,0.616 -0.15,2.438 0.553,2.281 z"
   style="fill:#677821" />
					<path
   id="Kent_1_"
   fill="#8D9764"
   d="m 1600.991,2341.736 c 0,0 4.678,0.494 5.187,-0.493 0.51,-0.986 -0.139,-2.343 0,-3.206 0.139,-0.863 -0.976,-1.357 0.198,-2.344 l 3.888,-2.467 4.006,-5.272 0.805,-6.318 0.695,-9.499 4.277,-3.7 3.209,-6.097 1.067,-1.057 -0.077,-0.033 c 0.025,0.011 0.051,0.021 0.077,0.033 1.295,0.555 2.405,1.85 3.33,2.775 0.925,0.925 2.59,1.709 3.885,2.427 1.296,0.718 2.035,1.316 3.146,0 1.109,-1.317 1.295,-2.798 2.22,-2.242 0.925,0.555 0.37,2.712 2.035,3.021 1.665,0.31 2.774,0.864 5.92,1.234 3.146,0.37 5.92,0.555 7.585,0 1.665,-0.555 3.516,-0.74 4.07,-1.85 0.555,-1.11 0.185,-2.035 0.74,-3.33 0.555,-1.295 0.369,-2.775 2.034,-3.146 1.665,-0.371 4.44,-0.555 6.105,-0.555 1.665,0 5.92,0 7.77,0.555 1.851,0.556 3.886,0.925 5.181,0.925 1.295,0 4.625,0.37 5.92,0.74 1.295,0.37 3.33,0.186 4.439,0.74 1.11,0.555 2.035,0.555 2.59,2.59 0.556,2.035 1.666,1.811 0.37,3.68 -1.295,1.87 -2.034,2.056 -3.515,2.426 -1.48,0.369 -1.48,0 -2.22,-0.926 -0.74,-0.925 0,-1.85 -1.48,-1.85 -1.48,0 -1.295,0.186 -1.295,1.11 0,0.924 -0.555,1.109 -1.665,0.555 -1.109,-0.555 -0.925,-1.851 -2.035,-0.37 -1.109,1.48 0,-0.642 -0.555,1.622 -0.555,2.263 -1.109,3.003 -2.404,3.188 -1.12,0.16 -2.127,-0.234 -3.244,-0.035 -1.335,0.238 -2.806,0.743 -4.188,0.682 -1.906,-0.084 -2.686,-0.39 -3.46,1.579 -0.207,0.526 -0.614,1.193 -0.725,1.739 -0.11,0.549 0.334,1.47 0.047,1.943 -0.718,1.188 -1.218,-1.479 -2.365,-1.412 -1.964,0.112 -1.295,2.938 -2.854,3.517 1.265,0.781 1.295,-1.062 1.779,-1.687 1.023,-1.323 1.32,-0.473 2.069,0.149 2.635,2.187 2.041,-5.206 4.632,-4.995 1.499,0.122 0.852,1.321 1.42,2.287 0.777,1.32 2.409,1.277 3.737,1.527 0.609,0.115 1.364,0.182 1.863,0.592 0.46,0.378 0.489,0.978 1.103,1.328 1.295,0.74 1.85,0.74 2.59,0 0.74,-0.74 0.925,0.555 1.665,-0.556 0.74,-1.109 -0.185,-2.96 1.11,-2.59 1.295,0.37 1.664,0.186 1.85,1.665 0.186,1.48 0,1.48 0.925,2.035 0.925,0.555 1.11,2.22 1.851,0 0.739,-2.22 -0.556,-2.035 0.739,-2.22 1.296,-0.186 0.74,-1.665 1.296,-0.186 0.555,1.48 0.555,1.48 0.555,1.48 0,0 2.035,-0.186 1.665,-1.11 -0.37,-0.924 0,-1.479 -0.925,-2.22 -0.926,-0.74 -2.035,-3.33 -1.11,-3.885 0.925,-0.556 2.775,0 2.775,0 l 0.617,-0.74 c 0,0 0.567,-0.247 0.684,0.309 0.118,0.555 0.303,0.185 0.118,0.555 -0.185,0.37 -0.616,0.186 -0.802,0.679 -0.184,0.493 -0.246,0.925 0,1.665 0.247,0.74 0.186,1.356 0.986,2.035 0.803,0.678 0.679,0.369 1.666,0.986 0.913,0.571 1.699,1.549 1.727,1.604 0,0 0.601,0.262 0.693,0.816 0.092,0.556 0.185,0.463 0.046,1.202 -0.139,0.74 -0.277,0.833 0.093,1.666 0.37,0.832 1.387,1.063 1.387,1.063 1.48,0 2.961,0.37 3.886,0.739 0.925,0.371 0.185,0.988 2.405,1.142 2.22,0.154 2.959,-0.339 4.625,0 1.664,0.339 1.479,-1.018 3.145,0.03 1.665,1.049 0,1.974 2.96,2.158 2.96,0.186 3.515,-0.369 5.92,0 2.405,0.37 4.255,1.188 6.105,0.039 1.85,-1.148 3.515,-3.554 4.81,-3.924 1.295,-0.37 4.44,-0.925 6.29,-1.109 1.851,-0.186 4.995,-0.74 8.325,-0.926 3.33,-0.185 3.885,-1.479 7.4,-1.664 3.515,-0.186 4.994,0.925 7.399,0.739 2.405,-0.185 4.625,0 5.181,-0.555 0.555,-0.556 1.664,-0.556 3.145,-0.74 1.481,-0.184 1.665,0.185 3.33,-0.185 1.665,-0.37 3.699,-0.556 4.995,-0.74 1.295,-0.186 1.295,-0.74 2.774,-0.925 1.48,-0.186 3.885,-0.37 4.625,-0.37 0.74,0 0.926,-0.37 2.405,1.85 1.479,2.221 1.851,2.035 1.479,4.07 -0.369,2.035 -0.369,1.85 -1.479,4.07 -1.11,2.22 0,2.404 -2.405,3.515 -2.404,1.11 -1.85,-0.925 -3.885,0 -2.035,0.925 -2.405,0.37 -3.145,1.665 -0.74,1.295 -0.926,1.665 0,2.405 0.925,0.739 1.109,0.185 1.295,3.515 0.185,3.33 0.185,2.775 1.664,6.475 1.48,3.7 1.11,2.59 1.48,9.065 0.37,6.475 0.925,9.435 0.555,11.285 -0.369,1.85 -0.369,1.11 -1.664,3.145 -1.295,2.035 -1.11,2.775 -2.961,3.886 -1.85,1.109 -2.22,0.369 -4.069,1.664 -1.851,1.295 -3.515,1.48 -2.96,2.405 0.555,0.925 0.185,1.11 -0.37,1.295 -0.556,0.186 -1.11,-1.295 -1.85,-0.925 -0.739,0.37 -0.739,1.11 -2.959,2.035 -2.221,0.925 -4.996,1.48 -6.291,1.665 -1.295,0.185 -1.85,0.185 -3.33,1.295 -1.479,1.11 -1.479,2.96 -2.404,3.515 -0.926,0.556 -2.96,0.37 -5.551,0.74 -2.59,0.37 -4.069,-0.555 -7.029,0.74 -2.96,1.295 -6.29,2.59 -8.141,4.07 -1.85,1.479 -4.254,3.885 -5.55,5.92 -1.295,2.035 -3.329,5.18 -3.7,8.14 -0.369,2.96 -1.109,6.104 -0.555,7.585 0.554,1.481 1.48,4.625 1.295,5.55 -0.185,0.925 0.555,2.59 -0.185,2.59 -0.74,0 -0.556,0.37 -3.886,0 -3.329,-0.37 -7.954,-1.295 -8.879,-1.85 -0.472,-0.283 -1.663,-0.661 -2.94,-1.015 l -0.144,0.03 c 0,0 1.604,-1.233 1.604,-1.85 0,-0.617 -0.494,-1.233 -0.864,-1.851 -0.37,-0.616 0,-1.727 0,-1.727 0,0 -0.739,-0.369 -1.109,-0.863 -0.37,-0.493 -1.233,-0.123 -1.233,-0.123 0,0 -1.604,1.233 -1.727,1.604 -0.124,0.369 -1.356,0.493 -1.356,0.493 0,0 -0.37,-0.493 -0.617,-0.987 -0.247,-0.492 -3.207,-4.81 -3.207,-4.81 l -0.616,-2.22 c 0,0 -0.986,-1.974 -1.85,-2.344 -0.863,-0.369 -2.837,-1.479 -4.317,-0.986 -1.479,0.493 -4.192,0 -4.192,0 0,0 -2.714,-0.247 -3.7,-0.617 -0.987,-0.369 -1.604,-1.973 -1.604,-1.973 0,0 -1.233,-0.74 -2.097,-0.617 -0.864,0.123 -3.083,-0.74 -3.947,-0.74 -0.863,0 -2.466,0.864 -3.33,1.11 -0.863,0.247 -2.836,0.987 -3.822,0.987 -0.987,0 -2.714,-0.617 -3.454,-1.11 -0.739,-0.493 -0.616,-1.233 -0.739,-1.974 -0.123,-0.741 -1.974,-0.493 -2.467,-0.74 -0.494,-0.246 -2.467,-0.986 -3.084,-1.109 -0.616,-0.123 -2.836,-0.863 -3.206,-0.986 -0.37,-0.124 -0.617,-0.987 -0.74,-1.851 -0.123,-0.864 0,-2.704 0,-2.704 0,0 -1.233,-0.133 -1.604,-0.01 -0.37,0.123 -2.96,-0.987 -3.7,-1.11 -0.739,-0.123 -1.479,-0.617 -2.59,-1.48 -1.109,-0.862 -0.863,-1.109 -1.109,-1.973 -0.247,-0.864 -0.37,-0.986 -1.234,-1.48 -0.863,-0.493 -2.343,0 -2.343,0 0,0 -1.479,0 -2.713,0 -1.234,0 0,-1.233 0,-2.469 0,-1.236 -0.494,-2.341 -0.494,-2.341 0,0 -1.356,-0.37 -2.466,-0.74 -1.11,-0.37 -0.494,-1.851 -0.74,-2.22 -0.246,-0.37 -0.74,-0.247 -1.233,-0.123 -0.494,0.123 -2.591,0.369 -3.207,0.616 -0.616,0.247 -2.22,0.863 -2.22,0.863 0,0 -2.714,0.123 -3.207,0 -0.493,-0.123 -1.973,-1.356 -2.467,-1.727 -0.493,-0.37 -3.206,-0.124 -3.206,-0.124 0,0 -2.467,0.863 -3.084,1.11 -0.616,0.247 -2.343,0.247 -3.083,0 -0.74,-0.247 -1.109,-1.356 -1.356,-1.727 -0.247,-0.37 0,-1.727 0,-1.727 l 0.739,-0.986 c 0,0 -0.492,-0.617 -0.616,-1.077 -0.123,-0.461 -1.233,-0.526 -1.727,-0.403 -0.494,0.123 -1.604,0 -2.59,0 -0.987,0 -2.59,0.123 -3.083,0.562 -0.494,0.438 -4.07,0.179 -5.181,0.055 -0.467,-0.052 -1.239,-0.061 -1.978,-0.052 h 0.25 c 0,0 -0.246,-1.673 0,-2.166 0.247,-0.493 -0.109,-3.946 -0.109,-3.946 l 0.197,-2.467 -1.69,-3.453 c 0,0 -0.616,-0.863 -0.616,-1.48 -10e-4,-0.616 0.333,-2.22 1.152,-4.069 0.82,-1.851 1.561,-3.33 1.684,-3.7 0.123,-0.37 0.123,-1.85 0,-2.59 -0.123,-0.74 -1.371,-6.044 -1.371,-6.044 0,0 -0.01,-1.094 -0.01,-2.035"
   style="fill:#677821" />
				</g><rect
   style="fill:none;stroke:#000000;stroke-width:0.29998;stroke-linejoin:bevel;stroke-dasharray:none;paint-order:stroke fill markers"
   id="rect2"
   height="4390.293"
   x="0.19998971"
   y="0.19998971"
   ry="0.69917101"
   width="4353.8188" /></svg>
