<?xml version="1.0" encoding="UTF-8" standalone="no"?>
<!-- Generator: Adobe Illustrator 22.1.0, SVG Export Plug-In . SVG Version: 6.00 Build 0)  -->

<svg
   version="1.1"
   x="0px"
   y="0px"
   viewBox="0 0 4354.1187 4390.5933"
   enable-background="new 0 0 1995.865 2834.646"
   xml:space="preserve"
   id="svg1596"
   width="4354.1187"
   height="4390.5933"
   xmlns="http://www.w3.org/2000/svg"
   xmlns:svg="http://www.w3.org/2000/svg"><defs
   id="defs1596" />


<path
   id="Lancashire_1_"
   fill="#606F38"
   d="m 2400.7985,2472.6231 c 0,0 -1.476,-1.299 -1.995,-1.854 -0.52,-0.556 -2.465,-3.333 -2.51,-4.257 -0.045,-0.924 -1.62,-1.506 0,-3.435 1.62,-1.929 1.743,-0.672 2.977,-2.503 1.234,-1.831 1.691,-3.684 1.925,-4.237 0.234,-0.553 -0.418,-1.622 0,-3.493 0.419,-1.871 0.789,-4.507 1.158,-5.594 0.371,-1.087 -0.492,-2.566 1.234,-3.122 1.727,-0.555 2.856,-1.665 5.251,-2.96 2.395,-1.295 2.704,-0.925 3.382,-2.96 0.678,-2.035 1.646,-3.866 0,-5.021 -1.645,-1.154 -3.268,-1.64 -4.81,-4.414 -1.542,-2.775 -3.294,-5.365 -3.065,-6.29 0.229,-0.925 1.621,-1.851 0,-2.775 -1.621,-0.924 -2.697,-2.035 -3.547,-2.22 -0.85,-0.186 -2.209,0.432 -2.979,-0.74 -0.77,-1.172 -0.187,-0.964 -1.526,-1.592 -1.339,-0.628 -0.97,1.037 -1.34,-1.553 -0.37,-2.59 -0.191,-1.665 -1.391,-3.7 -1.199,-2.035 1.021,-2.59 -1.199,-2.035 -2.22,0.555 -2.757,2.944 -3.838,1.11 -1.08,-1.835 0.173,-2.685 0,-3.33 -0.172,-0.646 0.095,-2.091 -1.179,-1.323 -1.273,0.769 -0.965,-0.583 -3.247,0 -2.281,0.583 -4.317,0.527 -5.057,0 -0.74,-0.527 -0.987,-2.562 -2.528,-2.192 -1.541,0.37 -3.207,1.11 -4.132,0 -0.925,-1.109 -2.377,-2.404 -0.726,-3.33 1.65,-0.925 0.354,-0.185 0.078,-2.035 -0.277,-1.85 -1.621,-2.959 -1.782,-4.717 -0.16,-1.758 0.968,-1.758 -2.187,-1.758 -3.153,0 -6.113,-0.37 -7.778,0 -1.665,0.37 -3.761,1.189 -3.915,-0.793 -0.155,-1.982 0.524,-2.636 0,-4.621 -0.525,-1.986 0.959,-2.421 -2.004,-4.516 -2.961,-2.096 -5.134,0.607 -6.359,-2.408 -1.227,-3.017 -1.597,-3.017 -2.892,-4.867 -1.296,-1.85 -1.392,-2.921 -1.475,-4.362 -0.083,-1.441 2.817,-2.853 4.366,-5.442 1.548,-2.59 3.426,-4.995 4.43,-6.29 1.004,-1.295 2.483,-2.463 3.038,-4.376 0.556,-1.914 1.48,-2.839 1.851,-3.856 0.369,-1.018 1.295,-3.73 0,-3.114 -1.295,0.617 -2.523,1.727 -4.407,3.114 -1.883,1.388 -3.87,1.757 -4.911,2.867 -1.042,1.11 -4.275,2.429 -5.341,2.787 -1.066,0.358 -1.39,0.157 -3.633,0.165 -2.243,0.01 -4.093,-1.448 -5.203,-0.165 -1.11,1.283 -1.85,4.243 -2.96,4.798 -1.11,0.555 -1.354,0.37 -2.156,2.035 -0.804,1.665 0,2.035 -2.345,1.48 -2.345,-0.556 -4.596,0.185 -5.043,-0.74 -0.446,-0.925 0.875,-2.775 -0.896,-3.885 -1.771,-1.11 -3.616,0 -4.636,-1.11 -1.021,-1.11 -4.146,-2.223 -4.618,-1.389 -0.472,0.834 -0.238,3.794 -1.835,3.608 -1.597,-0.185 -4.495,1.295 -4.495,1.295 l -0.46,0.205 c 0.167,0.227 0.306,0.457 0.306,0.628 0,0.37 0.647,1.479 1.018,1.757 0.37,0.278 0.555,1.203 1.018,1.573 0.463,0.37 0.277,0.739 0.37,1.388 0.093,0.646 0.277,2.22 0.277,2.22 0,0 0.74,0.925 1.202,1.479 0.463,0.556 0.926,0.556 1.203,0.463 0.277,-0.093 0.369,-1.11 0.648,-1.388 0.277,-0.277 0.37,0.647 0.277,1.11 -0.093,0.463 0,0.74 0.185,1.202 0.186,0.463 0.833,0.185 1.295,0.556 0.463,0.369 -0.092,0.739 -0.462,0.739 -0.37,0 -1.11,-0.093 -1.11,-0.093 0,0 -0.277,2.312 -0.37,2.684 -0.093,0.369 -0.555,0.739 -0.832,1.017 -0.278,0.278 -0.186,3.237 0,3.608 0.185,0.369 -1.11,0.646 -1.11,0.646 0,0 -0.925,0.833 -1.202,1.295 -0.278,0.463 -1.018,0.74 -1.48,1.11 -0.462,0.37 -0.555,0.463 -1.479,0.37 -0.926,-0.093 -1.295,0.186 -1.665,0.37 -0.37,0.185 -0.925,0.277 -1.388,0.462 -0.463,0.186 -0.37,0.926 -0.277,1.573 0.092,0.647 -0.647,0.093 -0.833,0.462 -0.185,0.37 -0.739,0.37 -1.017,0.648 -0.278,0.277 -0.186,1.109 -0.278,1.941 -0.093,0.833 -0.555,0.74 -1.11,1.11 -0.555,0.37 -0.462,0.833 -0.462,1.202 0,0.371 -1.11,0.74 -1.665,1.48 -0.555,0.74 -0.925,1.018 -0.647,1.572 0.277,0.555 0.462,0.463 1.018,0.926 0.555,0.462 0.647,0.462 1.202,0.739 0.555,0.278 0.186,1.942 0.277,2.591 0.093,0.646 0.186,1.017 0.37,1.572 0.186,0.555 0,2.127 0.278,2.404 0.277,0.277 2.034,0.37 2.682,0.186 0.648,-0.186 0.463,-1.758 0.833,-2.405 0.37,-0.647 1.202,-0.37 2.128,-0.462 0.924,-0.093 2.034,-0.186 2.497,-0.556 0.462,-0.37 0.093,-1.665 0.185,-2.405 0.093,-0.739 0.093,-1.942 -0.185,-3.052 -0.277,-1.11 -0.184,-1.388 -0.184,-1.388 0,0 0.924,0.463 1.295,0.925 0.369,0.463 0,1.572 0,1.572 0,0 0.092,2.22 0,2.775 -0.093,0.555 0,2.774 0,3.237 0,0.463 -0.833,0.37 -1.295,0.37 -0.463,0 -1.203,0.093 -1.573,-0.093 -0.37,-0.185 -0.925,0.37 -1.202,0.555 -0.277,0.186 -0.926,0.648 -1.48,0.833 -0.554,0.185 -0.092,1.202 -0.185,2.405 -0.093,1.202 -0.37,0.647 -0.37,1.202 0,0.556 0.277,1.202 0.74,2.035 0.462,0.833 0.832,0.093 1.942,0.093 1.11,0 0.277,0.462 0.37,0.925 0.092,0.462 -1.665,-0.185 -1.943,0.37 -0.277,0.555 -0.555,0.832 -0.832,0.832 -0.277,0 -1.388,0.093 -1.85,0.186 -0.463,0.092 0.092,0.925 0.647,1.109 0.555,0.186 0.185,0.556 0,1.018 -0.186,0.463 -0.556,0.37 -1.018,0.74 -0.463,0.37 -1.11,0.186 -1.573,0.277 -0.462,0.093 -0.739,-0.092 -0.739,-0.555 0,-0.463 0,-1.11 -0.184,-1.48 -0.186,-0.369 -1.018,-0.185 -1.758,0 -0.74,0.186 -1.388,0.74 -1.758,1.11 -0.37,0.37 -1.572,1.018 -2.498,1.388 -0.924,0.37 -1.387,0.37 -1.941,0.74 -0.556,0.369 -0.926,0.739 -1.943,1.202 -1.018,0.462 -1.387,0.093 -1.85,0.647 -0.463,0.554 -0.093,1.85 0.093,2.498 0.185,0.646 0.093,2.312 0.277,3.699 0.185,1.388 0.555,1.48 1.388,2.683 0.832,1.202 1.387,1.851 2.035,2.59 0.646,0.74 0.646,1.388 0.646,2.035 0,0.647 -0.646,0.647 -0.925,0.925 -0.277,0.277 0.556,0.647 0.833,0.833 0.277,0.185 1.018,0.647 1.665,0.832 0.647,0.186 0.555,1.018 1.202,1.11 0.647,0.092 0.555,-0.277 1.11,-0.463 0.555,-0.185 1.018,-0.277 1.757,-0.647 0.74,-0.37 1.018,-0.832 1.018,-0.832 l 0.463,0.647 c 0,0 -1.018,1.018 -1.295,1.295 -0.277,0.277 -1.203,0.463 -1.665,0.647 -0.463,0.185 -1.202,0.462 -1.851,0.277 -0.646,-0.185 -1.202,-0.462 -1.295,-0.74 -0.092,-0.277 -0.555,-1.109 -0.832,-1.295 -0.277,-0.185 -1.018,0.093 -1.665,-0.462 -0.647,-0.556 -0.555,-0.463 -0.37,-1.203 0.186,-0.74 0.463,-0.462 0.647,-1.295 0.185,-0.832 -0.277,-1.018 -0.739,-1.387 -0.463,-0.371 -1.296,-0.648 -1.851,-1.296 -0.555,-0.648 -1.202,-0.647 -1.295,-1.479 -0.093,-0.833 -0.37,-2.312 -0.37,-3.33 0,-1.018 0,-2.405 0,-3.607 0,-1.203 -0.277,-1.48 -0.74,-1.572 -0.462,-0.093 -1.202,0.462 -1.758,0.462 -0.555,0 -1.387,0.093 -2.404,0.463 -1.017,0.37 -1.018,0.739 -1.018,1.202 0,0.463 -0.093,7.492 -0.093,8.325 0,0.833 -0.555,6.753 -0.647,8.14 -0.092,1.388 -0.37,17.575 -0.37,17.945 0,0.37 0.647,2.035 2.22,3.978 1.573,1.942 4.718,3.423 6.198,3.33 1.48,-0.093 2.312,0 3.515,0.37 1.203,0.37 2.128,0 3.423,-0.186 1.295,-0.185 0.832,0.556 1.572,0.833 0.74,0.277 2.128,-0.186 3.978,-0.277 1.85,-0.093 2.498,-0.74 4.162,-0.925 1.666,-0.186 1.388,-0.648 2.775,-0.74 1.388,-0.093 2.127,-0.277 2.498,-0.186 0.369,0.093 -0.926,0.37 -0.926,0.37 0,0 -1.202,0.833 -1.572,1.11 -0.37,0.277 0.093,0.462 0.555,0.832 0.463,0.37 0.648,1.203 0.833,1.665 0.185,0.463 -1.202,-0.832 -1.202,-0.832 0,0 -0.648,-0.647 -1.018,-0.925 -0.37,-0.278 -0.833,0.185 -1.203,0.277 -0.37,0.092 -1.572,0.462 -2.312,0.647 -0.74,0.185 -2.312,0.185 -2.96,0 -0.647,-0.186 -0.832,0.185 -1.11,0.462 -0.277,0.277 0.278,0.74 0.463,1.11 0.186,0.37 -0.925,0.185 -1.295,0.093 -0.37,-0.093 -0.74,-0.093 -1.388,0 -0.647,0.092 -2.034,0.369 -2.59,0.647 -0.555,0.277 -0.555,1.109 -0.277,1.388 0.277,0.277 1.388,0.646 0.74,1.109 -0.648,0.463 -0.833,0.186 -1.388,0.186 -0.555,0 -0.277,0.739 0,1.202 0.209,0.35 -0.057,0.435 -0.438,0.655 l 0.438,-0.655 c 0,0 1.109,3.546 0.986,4.162 -0.123,0.617 1.479,5.427 0,6.167 -1.479,0.74 -0.74,1.479 -1.23,3.216 -0.488,1.735 -1.237,2.088 -1.519,2.704 -0.283,0.616 -3.788,0.74 -3.788,0.74 l -2.96,4.677 c 0,0 -0.37,2.6 -0.37,3.353 0,0.752 0.457,1.098 0.457,1.098 0,0 -0.087,2.467 0,3.09 0.088,0.623 -2.061,0.818 -2.061,0.818 l -0.492,3.815 v 3.13 c 0,0 1.486,0.418 1.904,0.457 0.417,0.039 1.129,0.555 1.129,0.555 l 2.771,2.071 2.706,1.85 c 0,0 1.479,-1.479 1.602,-2.722 0.124,-1.242 -0.986,-2.088 -1.725,-3.592 -0.74,-1.503 0.123,-1.21 1.129,-0.963 1.006,0.246 2.447,0.989 3.271,2.097 0.823,1.106 2.136,1.85 3.369,2.458 1.233,0.607 2.343,1.242 2.59,1.365 0.248,0.123 0,2.22 0,2.22 0,0 2.713,1.604 3.453,2.097 0.74,0.493 1.727,1.11 3.084,2.097 1.358,0.987 1.357,1.233 2.344,1.43 0.986,0.196 1.603,-1.183 1.973,-2.54 0.369,-1.355 0.512,-3.823 0.512,-3.823 0,0 2.324,-2.466 2.695,-2.845 0.369,-0.379 2.129,-0.485 2.129,-0.485 0,0 1.324,3.454 1.693,3.33 0.37,-0.123 3.577,-1.233 3.455,-0.986 -0.122,0.247 1.679,0 1.679,0 0,0 0.027,0.104 0.068,0.266 l -0.068,-0.266 0.921,-5.45 h 1.161 v -3.711 l -0.424,-1.854 v -3.107 l 2.952,-2.511 1.075,-2.74 c 0,0 0.469,0.299 2.812,0 2.342,-0.299 2.157,-0.222 3.268,-0.26 1.109,-0.039 0.772,2.612 2.421,1.749 1.648,-0.863 2.275,-2.972 2.979,-2.75 0.703,0.223 2.402,2.3 4.697,1.261 2.297,-1.038 3.77,-1.778 4.328,-2.333 0.559,-0.556 2.988,-2.221 2.988,-2.221 0,0 2.922,1.816 5.241,1.186 2.319,-0.63 3.429,-1.74 3.244,-2.665 -0.186,-0.925 0.185,-4.872 1.295,-3.454 1.11,1.419 1.737,2.529 1.737,2.529 0,0 -0.072,2.22 0.668,2.22 0.739,0 0.425,1.384 1.97,-0.141 1.545,-1.524 5.41,-1.895 5.41,-1.895 v -3.347 c 0,0 -0.204,-3.189 0,-3.437 0.204,-0.248 1.128,-0.432 1.962,0.863 0.833,1.295 2.654,2.573 2.654,2.573 h 2.27 c 0,0 1.829,-1.82 2.384,-1.92 0.556,-0.099 1.86,-0.871 1.763,1.92 -0.097,2.791 0.01,6.169 0.01,6.169 l 1.746,1.433 c 0,0 1.85,-0.404 1.666,-0.85 -0.186,-0.445 -0.124,-4.663 -0.124,-4.663 0,0 -1.048,-0.625 0,-2.089 1.048,-1.463 2.115,-3.543 3.247,-3.613 1.131,-0.07 1.727,-1.611 3.464,0.177 1.737,1.788 3.958,3.413 4.143,3.896 0.185,0.483 1.479,2.598 2.035,1.54 0.555,-1.058 0.831,-4.572 0.831,-4.572 0,0 0.402,-4.07 1.45,-4.811 0.33,-0.232 0.684,-0.392 1.027,-0.479 z"
   style="fill:#677821" /><rect
   style="fill:none;stroke:#000000;stroke-width:0.29998;stroke-linejoin:bevel;stroke-dasharray:none;paint-order:stroke fill markers"
   id="rect2"
   height="4390.293"
   x="0.19998971"
   y="0.19998971"
   ry="0.69917101"
   width="4353.8188" /></svg>
