<?xml version="1.0" encoding="UTF-8" standalone="no"?>
<!-- Generator: Adobe Illustrator 22.1.0, SVG Export Plug-In . SVG Version: 6.00 Build 0)  -->

<svg
   version="1.1"
   x="0px"
   y="0px"
   viewBox="0 0 4354.1187 4390.5933"
   enable-background="new 0 0 1995.865 2834.646"
   xml:space="preserve"
   id="svg1596"
   width="4354.1187"
   height="4390.5933"
   xmlns="http://www.w3.org/2000/svg"
   xmlns:svg="http://www.w3.org/2000/svg"><defs
   id="defs1596" />


<path
   id="Leicestershire_1_"
   fill="#6C833C"
   d="m 2474.0785,2697.2611 c 0.171,-0.092 0.302,-0.162 0.302,-0.162 l 3.084,1.9 c 0,0 1.604,3.576 2.097,4.316 0.493,0.739 1.356,2.27 0.986,2.861 -0.37,0.591 -1.851,1.002 -2.22,1.599 -0.371,0.597 -1.234,1.089 -0.74,2.446 0.493,1.356 0.863,1.479 0.986,2.59 0.123,1.11 0.554,2.467 0.554,2.467 v 2.453 c 0,0 1.445,0.197 2.043,0.784 0.598,0.587 1.781,1.464 1.966,1.923 0.186,0.458 0.443,2.116 0.443,2.116 0,0 10.695,5.058 12.712,6.044 2.016,0.986 14.128,9.373 15.842,10.854 1.714,1.479 4.085,3.261 14.986,21.98 l 2.493,0.352 2.611,-1.49 1.726,-0.056 c 0,0 1.399,-2.196 1.819,-2.854 0.42,-0.658 2.242,-1.777 2.242,-1.777 0,0 0.749,-0.37 1.366,-0.876 0.616,-0.507 1.973,-1.221 3.028,-1.881 1.057,-0.66 1.411,0.537 2.274,1.4 0.863,0.864 1.48,0.37 2.714,0 1.233,-0.369 1.109,-0.616 1.262,-1.4 0.15,-0.783 0.588,-1.312 0,-2.053 -0.589,-0.74 0.588,-1.356 1.944,-2.807 1.356,-1.449 1.974,-1.264 3.454,-2.26 1.479,-0.998 2.343,-0.854 2.898,-0.809 0.555,0.045 1.418,-1.155 2.774,-1.155 1.356,0 1.356,0 1.727,0.617 0.37,0.616 0.987,1.233 1.657,1.85 0.671,0.617 3.276,0.37 4.031,0.617 0.754,0.247 1.465,-0.494 2.698,-1.193 1.233,-0.699 -0.493,-1.397 0,-2.261 0.493,-0.864 -2.22,-1.232 -2.698,-2.096 -0.479,-0.863 1.712,-1.11 2.082,-1.357 0.37,-0.246 0.616,-0.863 0.616,-0.863 0,0 -0.123,-1.479 0,-2.437 0.123,-0.958 0,-1.634 0,-2.435 0,-0.803 1.233,-1.134 1.233,-1.134 1.604,0.331 2.59,0.946 4.193,1.502 1.604,0.556 3.206,0.194 5.92,0.745 2.713,0.551 3.576,2.247 5.55,0.659 1.256,-1.011 2.261,-1.546 3.145,-2.065 l -0.503,0.293 c 0.318,-0.432 -1.241,-4.128 -1.463,-4.502 -0.221,-0.374 -0.625,-1.262 -0.315,-2.098 0.311,-0.834 0.388,-1.995 0.388,-1.995 l -1.946,-1.359 -1.44,-3.095 c 0,0 -0.87,-0.952 -0.92,-1.283 -0.049,-0.332 -2.549,-1.555 -2.645,-2.215 -0.097,-0.658 -2.81,-0.782 -2.687,-2.016 0.123,-1.232 0.171,-2.714 0.825,-3.453 0.654,-0.74 1.148,-0.634 0.901,-2.599 -0.247,-1.964 -0.617,-2.582 0,-3.938 0.616,-1.355 1.604,-3.453 1.604,-3.453 0,0 1.538,-0.74 1.447,-1.727 -0.091,-0.987 0.461,-2.652 0,-3.546 -0.461,-0.894 -1.201,-1.265 -1.571,-2.251 -0.37,-0.986 -3.21,-3.946 -3.21,-3.946 0,0 -0.867,-0.982 0,-2.402 0.867,-1.421 1.8,-2.531 2.691,-3.024 0.89,-0.493 1.138,-0.247 2.863,-0.493 1.727,-0.247 3.258,0.122 4.836,0 1.577,-0.123 -0.149,1.553 2.81,-0.087 2.96,-1.64 3.084,-1.024 4.934,-2.38 1.849,-1.356 2.344,-1.271 2.344,-1.271 0,0 -0.944,-1.689 -0.904,-2.306 0.041,-0.617 0.042,-2.59 -0.082,-3.33 -0.124,-0.74 -0.864,-2.087 -1.111,-2.771 -0.246,-0.684 -0.123,-1.366 0,-2.628 0.124,-1.262 -1.233,-3.373 -1.85,-3.798 -0.616,-0.424 -0.938,-0.176 -1.579,-2.767 -0.641,-2.591 -1.134,-2.264 -2.244,-4.216 -1.11,-1.951 -1.325,-2.691 -1.835,-4.295 -0.508,-1.604 -2.269,-2.59 -3.177,-2.837 -0.908,-0.246 0.908,-0.986 0,-2.343 -0.908,-1.357 -1.401,-0.37 -1.401,-1.851 0,-1.479 -0.371,-2.466 0.616,-3.946 0.987,-1.48 0.707,-2.96 0.785,-4.563 0.078,-1.603 -1.896,-1.479 -2.265,-2.837 -0.37,-1.356 0,-5.18 0,-5.18 l -1.481,0.494 c 0,0 -2.59,2.343 -3.121,3.206 -0.53,0.863 -1.318,1.233 -1.441,1.604 -0.123,0.37 -0.617,2.467 -0.617,2.96 0,0.494 -1.674,2.22 -1.674,2.22 l -2.89,3.083 -0.617,3.207 -0.986,1.604 c 0,0 -2.837,2.097 -4.687,2.96 -1.85,0.863 -1.727,1.11 -2.713,2.22 -0.987,1.109 -0.494,0.37 -0.494,1.356 0,0.987 -1.109,1.974 -2.343,3.454 -1.233,1.479 -1.851,1.604 -3.161,1.973 -1.311,0.37 -0.416,1.727 -0.045,3.207 0.369,1.48 -1.613,2.557 -1.613,2.557 h -4.678 c 0,0 -6.681,-1.017 -8.811,-1.189 -2.129,-0.174 -2.412,0.606 -3.893,1.189 -1.481,0.583 -1.356,1.021 -1.85,2.528 -0.493,1.509 -1.727,0.342 -3.453,0.773 -1.728,0.432 -2.221,0.309 -3.207,0 -0.986,-0.309 -1.085,1.911 -1.085,1.911 l -2.491,1.624 c 0,0 -1.67,1.062 -2.467,-0.082 -0.798,-1.145 -0.57,-0.937 -0.756,-1.744 -0.188,-0.808 -0.971,-0.922 -2.205,-1.709 -1.233,-0.787 -1.523,-0.632 -2.721,-2.804 -1.198,-2.171 -0.959,-6.262 -0.959,-6.262 l -0.02,-4.193 0.616,-2.59 c 0,0 -1.206,0.389 -1.479,0 -0.273,-0.389 -2.381,-0.455 -3.207,-0.617 -0.826,-0.161 -1.237,0.191 -2.097,0.494 -0.858,0.303 -0.863,1.479 -0.863,1.479 0,0 -2.097,0.74 -2.534,1.01 -0.438,0.27 -0.796,0.964 -0.796,0.964 l -0.37,0.74 -2.22,0.986 -2.479,2.332 c 0,0 -1.099,1.861 -0.551,2.355 0.547,0.493 -2.644,4.562 -2.985,5.331 -0.341,0.769 -2.248,1.452 -2.33,1.558 -0.082,0.106 -2.363,0.473 -2.363,0.473 l 0.794,1.899 -0.794,0.976 c 0,0 -1.625,-0.246 -1.893,0.821 -0.269,1.068 -0.34,3.002 -0.34,3.002 l -3.092,0.37 -2.97,1.182 -1.594,-1.059 -2.343,1.059 -1.85,-0.688 -0.987,1.604 c 0,0 0.123,3.206 0.987,4.069 0.863,0.863 0.986,1.48 0.862,1.695 -0.123,0.216 -0.862,2.992 -0.862,2.992 l -1.232,2.225 c 0,0 -1.604,0.118 -2.574,0.241 -0.803,0.103 -1.463,0.55 -2.024,1.256 l 0.65,3.382 z"
   style="fill:#677821" /><rect
   style="fill:none;stroke:#000000;stroke-width:0.29998;stroke-linejoin:bevel;stroke-dasharray:none;paint-order:stroke fill markers"
   id="rect2"
   height="4390.293"
   x="0.19998971"
   y="0.19998971"
   ry="0.69917101"
   width="4353.8188" /></svg>
