<?xml version="1.0" encoding="UTF-8" standalone="no"?>
<!-- Generator: Adobe Illustrator 22.1.0, SVG Export Plug-In . SVG Version: 6.00 Build 0)  -->

<svg
   version="1.1"
   x="0px"
   y="0px"
   viewBox="0 0 4354.1187 4390.5933"
   enable-background="new 0 0 1995.865 2834.646"
   xml:space="preserve"
   id="svg1596"
   width="4354.1187"
   height="4390.5933"
   xmlns="http://www.w3.org/2000/svg"
   xmlns:svg="http://www.w3.org/2000/svg"><defs
   id="defs1596" />


<g
   id="Lincolnshire__x3C_Group_x3E__1_"
   style="fill:#677821"
   transform="translate(1093.6405,660.66109)">
					<path
   id="Reads_Island_3_"
   fill="#8D9764"
   d="m 1518.595,1810.57 c 0,0 0.555,0.833 0.555,1.11 0,0.277 1.666,0.555 2.26,0.37 0.596,-0.186 1.256,0.185 1.996,0 0.74,-0.186 -0.277,-0.74 -0.556,-1.018 -0.277,-0.277 -1.295,-0.463 -2.127,-0.74 -0.833,-0.277 -1.208,-0.062 -1.573,0 -0.635,0.107 -0.555,0.278 -0.555,0.278 z"
   style="fill:#677821" />
					<path
   id="Lincolnshire_1_"
   fill="#8D9764"
   d="m 1616.46,2024.303 c -0.554,0.041 -3.145,0 -3.145,0 0,0 -1.666,1.146 -2.405,1.516 -0.74,0.369 -2.405,1.202 -3.423,1.479 -1.018,0.277 -2.96,-0.832 -3.978,0 -1.018,0.833 -2.128,-0.465 -2.128,2.358 0,2.822 -0.277,4.765 0,5.412 0.278,0.647 0.237,2.363 0.237,2.363 l -3.645,3.483 -5.936,1.383 -0.598,-0.848 c 0,0 -1.344,-1.403 -1.899,-1.581 -0.555,-0.176 -0.739,-0.916 -1.757,-0.823 -1.018,0.092 -2.22,0.697 -3.146,0.765 -0.925,0.067 -2.774,0.025 -3.607,0 -0.832,-0.025 -3.445,1.403 -3.792,2.487 -0.347,1.084 -0.864,2.39 -0.864,2.39 l -4.964,-2.22 -0.931,-0.647 -1.752,1.658 -1.825,-2.723 -1.905,0.91 -4.502,1.744 c 0,0 -0.931,0.42 -1.778,-0.244 -0.847,-0.662 -2.353,-1.993 -2.353,-1.993 0,0 -0.771,-1.312 -1.234,-1.304 -0.462,0.01 -2.62,-0.269 -2.882,-0.546 -0.263,-0.277 -3.905,1.388 -3.905,1.388 l -5.029,2.758 -2.428,1.219 -5.259,-0.35 -1.698,-0.859 -1.861,-0.086 c 0,0 -4.002,1.727 -3.836,2.344 0,0 0.111,0.268 0.256,0.616 l -0.256,-0.616 c 0,0 -1.633,-2.208 -1.723,-2.258 -0.09,-0.049 -1.354,-2.396 -1.354,-2.396 l 0.992,-0.542 1.264,1.535 c 0,0 1.806,0 2.348,-0.091 0.542,-0.09 2.6,-0.541 3.331,-1.444 0.731,-0.902 1.544,-2.415 2.086,-2.697 0.542,-0.282 1.265,-1.546 1.535,-2.539 0.27,-0.993 0.271,-2.979 0,-3.34 -0.271,-0.361 -2.727,-0.937 -2.727,-0.937 0,0 -0.175,0.718 -0.895,0.83 -0.719,0.111 -2.429,-0.772 -2.97,-0.83 -0.542,-0.057 -2.348,0.285 -2.799,-0.338 -0.451,-0.622 -0.902,-1.344 -2.166,-1.795 -1.265,-0.452 -2.671,-0.101 -2.69,-1.224 -0.019,-1.124 0.07,-2.092 -0.923,-3.368 -0.993,-1.277 -2.575,-0.374 -2.868,-1.097 -0.291,-0.722 -0.021,-1.324 -1.194,-1.52 -1.174,-0.196 -5.146,-1.353 -6.5,-1.271 -1.354,0.082 -4.989,-0.323 -5.8,0 0.32,-0.128 0,0 0,0 0,0 -0.944,-1.689 -0.904,-2.306 0.041,-0.617 0.042,-2.59 -0.082,-3.33 -0.124,-0.74 -0.864,-2.087 -1.111,-2.771 -0.246,-0.684 -0.123,-1.366 0,-2.628 0.124,-1.262 -1.233,-3.373 -1.85,-3.798 -0.616,-0.424 -0.938,-0.176 -1.579,-2.767 -0.641,-2.591 -1.134,-2.264 -2.244,-4.216 -1.11,-1.951 -1.325,-2.691 -1.835,-4.295 -0.508,-1.604 -2.269,-2.59 -3.177,-2.837 -0.908,-0.246 0.908,-0.986 0,-2.343 -0.908,-1.357 -1.401,-0.37 -1.401,-1.851 0,-1.479 -0.371,-2.466 0.616,-3.946 0.987,-1.48 0.707,-2.96 0.785,-4.563 0.078,-1.603 -1.896,-1.479 -2.265,-2.837 -0.37,-1.356 0,-5.18 0,-5.18 0,0 -0.37,0.123 -0.74,0.246 l 0.74,-0.246 c 0.082,-0.539 -0.279,-1.351 -0.731,-1.893 -0.451,-0.542 -1.084,-1.084 -1.625,-1.896 -0.542,-0.812 -1.626,-0.992 -1.174,-2.076 0.451,-1.084 0.992,-0.723 1.174,-1.444 0.18,-0.723 0.183,-1.265 0.543,-2.077 0.359,-0.812 1.211,-1.264 1.823,-1.354 0.612,-0.091 1.818,0.916 2.254,-0.535 0.436,-1.451 0.255,-3.438 0.706,-3.979 0.451,-0.542 0.605,-0.993 0.605,-0.993 l 1.11,-0.279 c 0,0 1.893,-0.547 2.59,-1.109 0.698,-0.563 0.676,-1.001 1.11,-1.233 0.434,-0.232 0.946,-0.365 1.336,-0.923 0.391,-0.557 0.838,-1.654 0.838,-1.654 0,0 -0.818,-0.488 -1.09,-0.759 -0.271,-0.271 -0.09,-1.083 -0.722,-1.625 -0.632,-0.542 -0.632,0 -1.355,-0.903 -0.723,-0.902 -1.535,-0.451 -0.993,-1.625 0.542,-1.174 0.903,-1.535 1.265,-2.527 0.36,-0.993 0.541,-1.264 0.09,-2.076 -0.451,-0.813 -0.542,-4.334 -0.271,-4.876 0.271,-0.542 0,-5.146 0,-6.319 0,-1.173 0.633,-1.986 -0.632,-2.167 -1.264,-0.181 -3.791,-0.181 -4.152,-0.632 -0.361,-0.451 -0.436,-1.264 -0.436,-1.264 0,0 0.744,-0.903 1.312,-1.535 0.568,-0.632 1.832,-2.708 2.104,-3.069 0.271,-0.361 1.174,-0.542 2.076,-0.812 0.902,-0.271 0.945,-1.354 2.278,-1.626 1.333,-0.271 1.965,-0.11 3.229,-1.003 1.265,-0.893 3.026,-2.969 1.784,-4.504 -1.242,-1.534 -1.784,-2.789 -1.784,-2.789 l -0.884,-1.427 c 0,0 -2.907,-0.334 -3.359,0 -0.451,0.334 -2.348,0.605 -2.348,0.605 l -0.755,2.617 v 0.452 h -0.509 l -0.449,0.36 -5.371,-0.73 0.054,0.278 c -0.124,-0.649 -0.281,-1.313 0.036,-1.894 0.542,-0.986 0.322,-0.616 0,-1.604 -0.321,-0.986 0.816,-1.479 0.94,-2.467 0.123,-0.986 -0.371,-1.604 -0.94,-2.59 -0.568,-0.986 0.199,-1.85 0.94,-2.22 0.739,-0.37 0.369,-1.356 0.739,-0.863 0.37,0.493 1.727,0.247 2.22,0 0.494,-0.247 0,-1.974 -0.493,-2.714 -0.493,-0.739 -0.37,-1.603 -0.246,-2.467 0.123,-0.863 -0.124,-1.479 -0.74,-1.726 -0.616,-0.247 -0.74,-0.987 -0.37,-1.974 0.37,-0.987 0.616,-0.986 0.123,-1.727 -0.493,-0.741 -0.493,-1.604 0,-2.097 0.493,-0.493 -0.74,-1.356 -1.109,-1.604 -0.37,-0.246 -0.863,-0.74 -1.974,-0.863 -1.11,-0.124 -1.11,-1.233 -0.863,-2.097 0.246,-0.863 1.356,-1.604 1.11,-2.467 -0.247,-0.863 -0.74,-1.233 -0.124,-1.727 0.617,-0.494 0.987,-0.74 0.788,-1.727 -0.197,-0.986 -1.774,-2.22 -1.898,-2.714 -0.123,-0.493 -0.123,-1.356 -0.492,-1.479 -0.37,-0.124 -1.851,-0.74 -2.59,-1.727 -0.74,-0.986 -0.863,-1.727 -0.74,-3.577 0.123,-1.85 0.863,-1.11 1.973,-2.466 l 0.748,-0.952 -9.506,-2.366 -0.897,1.609 -1.704,-0.406 -1.975,0.141 -1.111,0.137 v -1.48 c 0,0 1.264,-1.264 1.534,-1.354 0.271,-0.09 -3.16,-5.69 -3.16,-5.69 l -0.902,-1.622 c 0,0 0,-0.813 -0.722,-1.174 -0.723,-0.361 -0.873,0.271 -1.159,-1.354 -0.286,-1.625 -0.467,-1.94 0.346,-2.55 0.813,-0.61 0.893,-1.427 2.167,-1.062 1.274,0.365 1.773,0.09 3.008,-0.09 1.235,-0.181 1.326,-0.632 1.235,-1.715 -0.09,-1.084 -0.998,-2.98 -0.408,-3.611 0.589,-0.633 0.95,-2.968 0.95,-2.968 h -0.95 l 0.408,-2.728 1.092,-4.35 c 0,0 0.624,-2.505 0.714,-2.775 0.09,-0.27 2.709,-6.049 2.709,-6.049 l 2.438,-1.354 c 0,0 3.098,-2.167 3.174,-2.257 0.076,-0.091 2.479,-1.354 2.406,-1.535 -0.073,-0.18 2.726,-1.986 2.726,-1.986 l 3.176,-1.937 4.407,-2.926 2.958,-0.33 0.012,0.037 c 0.364,1.21 0.331,2.665 0.462,3.749 0,0.026 0.01,0.053 0.01,0.079 0.248,2.237 -0.507,4.086 -2.014,5.788 -1.49,1.686 -1.722,3.691 -0.635,5.767 0.375,0.717 1.453,1.542 1.251,2.45 -0.269,1.209 -1.734,0.947 -2.633,1.167 -1.899,0.467 -2.94,3.08 -1.273,4.507 0.056,-0.061 0.2,-0.205 0.26,-0.26 -0.067,-0.977 -0.102,-2.355 0.577,-3.15 0.883,-1.033 1.91,-0.329 2.992,-0.716 2.473,-0.885 0.076,-3.125 -0.555,-4.354 -1.02,-1.984 -0.233,-3.529 1.153,-4.895 1.338,-1.317 1.815,-3.282 2.229,-5.083 0.415,-1.806 -1.094,-3.312 -0.858,-4.89 0.212,-1.422 3.236,-2.202 4.439,-2.504 1.479,-0.369 2.775,-1.295 4.255,-1.479 1.48,-0.184 0.925,-1.665 2.96,0.555 2.035,2.22 2.22,3.146 4.255,4.625 2.035,1.48 1.295,2.22 4.81,2.405 3.516,0.186 3.7,-0.186 4.996,-1.295 1.295,-1.11 1.85,-2.59 3.145,-2.96 1.295,-0.37 4.255,0 6.105,-0.185 1.85,-0.186 4.994,-0.74 6.659,-1.11 1.665,-0.37 3.886,-1.295 5.365,-1.665 1.479,-0.37 3.146,-1.11 4.81,-1.11 1.666,0 3.33,-0.185 5.551,3.886 2.22,4.069 4.625,6.845 5.18,8.14 0.555,1.295 0.74,1.85 2.96,4.069 2.22,2.221 5.365,4.811 7.399,6.105 2.035,1.295 3.886,4.439 5.735,5.735 1.85,1.295 2.591,2.774 3.886,2.774 1.295,0 0.925,-1.665 2.774,-0.925 1.851,0.74 2.405,1.851 4.07,3.7 1.665,1.849 3.145,3.515 3.885,4.625 0.74,1.109 2.035,1.85 2.22,2.775 0.186,0.925 0,2.59 0.74,2.774 0.74,0.184 3.33,0 3.33,0 0,0 1.48,0.555 2.405,1.479 0.925,0.926 1.85,2.035 2.034,2.591 0.186,0.555 1.11,1.665 1.11,1.665 h 1.665 l 1.48,1.109 c 0,0 1.48,0.186 1.295,-0.925 -0.186,-1.11 -0.74,-1.665 -1.11,-2.405 -0.37,-0.739 0.925,0 1.665,0.37 0.74,0.37 1.665,1.48 1.665,1.48 0,0 0,0.763 -0.185,1.491 -0.186,0.729 -0.186,0.729 -0.186,0.729 0,0 2.035,1.85 2.035,0.925 0,-0.925 -0.186,-2.22 0.37,-1.85 0.555,0.37 0.645,1.628 1.433,2.108 0.787,0.481 0.787,1.406 0.787,1.406 0,0 1.48,0.555 1.85,1.851 0.371,1.295 0.926,2.22 0.926,2.774 0,0.554 0,1.48 0,1.48 0,0 -1.851,0.925 0,1.295 1.85,0.37 2.22,1.479 2.22,1.479 h -1.851 l 1.851,1.665 c 0,0 0.925,0.74 1.295,1.295 0.37,0.556 -0.37,0.74 0,1.48 0.37,0.74 0.556,1.109 1.295,1.48 0.74,0.369 1.11,0.925 1.295,2.034 0.186,1.11 0,2.405 0,2.405 0,0 1.295,0.186 1.295,1.11 0,0.924 -1.665,0.37 0,3.329 1.665,2.961 2.405,3.886 2.591,4.625 0.185,0.74 1.664,3.146 2.034,3.7 0.37,0.556 1.851,2.775 1.851,3.886 0,1.109 0.925,3.33 0.925,3.33 0,0 2.22,3.885 3.146,5.55 0.924,1.665 1.479,3.33 2.034,5.18 0.556,1.851 1.48,3.7 1.48,4.255 0,0.555 -0.556,4.811 0,5.365 0.555,0.555 1.479,2.775 1.665,3.885 0.185,1.11 0,6.846 0,6.846 0,0 0.72,4.81 0.082,5.734 -0.637,0.925 -1.008,1.85 -1.192,2.775 -0.185,0.925 0.185,3.885 0,4.81 -0.185,0.925 -0.37,2.035 -1.665,2.405 -1.295,0.37 -1.85,0.185 -2.404,0 -0.556,-0.186 0.739,-0.555 -0.556,-0.186 -1.295,0.37 -1.85,0.926 -2.405,1.295 -0.555,0.37 -1.48,0.186 -1.664,0.926 -0.186,0.74 0.369,0.74 -0.74,1.85 -1.11,1.11 -1.665,1.295 -2.961,2.22 -1.295,0.925 -2.59,1.851 -2.774,2.591 -0.185,0.739 -2.22,1.664 -2.96,2.59 -0.74,0.925 -2.775,2.404 -3.145,2.96 -0.371,0.555 -1.48,0.925 -2.035,1.85 -0.556,0.925 -0.926,1.851 -2.035,2.59 -1.11,0.74 -2.405,1.665 -3.516,2.96 -1.109,1.295 -1.664,2.221 -2.959,3.7 -1.296,1.48 -1.851,1.851 -2.405,3.33 -0.556,1.479 -1.296,1.295 -1.665,2.775 -0.37,1.479 -1.11,2.22 -1.295,3.515 -0.185,1.295 0.555,1.665 -0.74,2.59 -1.295,0.925 -1.665,-1.295 -2.775,0 -1.109,1.295 -1.479,0.37 -2.22,1.295 -0.74,0.926 -0.37,1.11 -0.185,2.035 0.185,0.925 2.22,-1.295 0.185,0.925 -2.035,2.22 -2.22,3.146 -2.22,3.146 0,0 0.925,0.37 2.96,0 2.034,-0.37 3.7,-0.411 5.364,0.164 1.666,0.576 4.811,0 4.811,0 0,0 1.48,1.686 2.405,1.686 0.925,0 0.555,-0.925 1.665,0 1.109,0.925 1.664,1.48 2.59,2.035 0.925,0.555 1.109,0.925 1.665,1.85 0.555,0.926 1.11,1.295 1.665,2.221 0.555,0.925 0.925,1.665 1.665,2.96 0.739,1.295 1.479,2.774 1.665,3.885 0.185,1.11 0.555,2.405 1.48,2.405 0.925,0 2.96,0.925 2.96,0.925 0,0 1.381,1.228 2.326,1.167 l 0.264,-0.057 c 0,0 -0.647,1.572 -0.925,1.664 -0.277,0.093 0,1.295 0,1.295 0,0 -0.832,1.11 -1.11,1.567 -0.277,0.456 1.018,1.521 1.018,1.521 l 1.85,1.815 -6.198,4.471 c 0,0 -3.329,2.004 -4.227,2.616 -0.896,0.611 -2.643,0.333 -2.643,0.333 0,0 -0.019,0.123 -0.044,0.3 z"
   style="fill:#677821" />
				</g><rect
   style="fill:none;stroke:#000000;stroke-width:0.29998;stroke-linejoin:bevel;stroke-dasharray:none;paint-order:stroke fill markers"
   id="rect2"
   height="4390.293"
   x="0.19998971"
   y="0.19998971"
   ry="0.69917101"
   width="4353.8188" /></svg>
