<?xml version="1.0" encoding="UTF-8" standalone="no"?>
<!-- Generator: Adobe Illustrator 22.1.0, SVG Export Plug-In . SVG Version: 6.00 Build 0)  -->

<svg
   version="1.1"
   x="0px"
   y="0px"
   viewBox="0 0 4354.1187 4390.5933"
   enable-background="new 0 0 1995.865 2834.646"
   xml:space="preserve"
   id="svg1596"
   width="4354.1187"
   height="4390.5933"
   xmlns="http://www.w3.org/2000/svg"
   xmlns:svg="http://www.w3.org/2000/svg"><defs
   id="defs1596" />


<path
   id="London_1_"
   fill="#303B09"
   d="m 2717.9845,2961.9531 c -0.01,0 -0.015,-0.01 -0.021,-0.01 -1.295,-0.555 -1.295,-0.37 -2.59,-0.37 -1.295,0 -2.59,-0.555 -3.33,-1.295 -0.74,-0.74 -0.555,-1.665 -0.555,-2.22 0,-0.556 -1.295,-1.665 -1.851,-1.851 -0.555,-0.185 -2.035,-0.925 -3.33,-1.11 -1.295,-0.185 -1.85,0.186 -1.85,0.186 -1.619,0 -3.589,-0.414 -4.771,0.945 -0.425,0.489 -0.728,1.041 -1.317,1.361 -0.642,0.349 -1.421,0.375 -2.13,0.466 -1.291,0.168 -2.796,0.563 -4.097,0.303 -1.105,-0.222 -1.884,-1.272 -2.768,-1.905 -1.462,-1.047 -0.873,1.723 -1.034,2.357 -0.373,1.473 -1.593,2.098 -2.932,1.269 -1.393,-0.862 -1.378,-3.27 -2.273,-4.583 -0.214,-0.192 -2.195,0.484 -2.5,0.555 -1.558,0.363 -2.229,-0.118 -3.671,-0.663 -0.013,-0.068 -0.013,-0.137 0,-0.204 0.632,-0.129 1.234,0.431 1.883,0.414 0.671,-0.017 1.336,-0.215 1.979,-0.391 1.138,-0.31 2.473,-0.709 3.411,0.265 0.654,0.679 1.282,5.944 3.474,3.692 1.054,-1.083 -0.864,-4.839 1.81,-3.411 0.454,0.243 0.885,0.535 1.311,0.823 0.415,0.281 1.077,0.988 1.555,1.092 0.568,0.123 1.176,-0.036 1.746,-0.049 2.12,-0.051 3.814,-0.732 5.322,-2.281 0.965,-0.99 1.7,-1.612 3.185,-1.599 0.562,0 0.969,0.084 1.483,-0.243 0.452,-0.288 0.707,-0.646 1.26,-0.803 1.294,-0.369 1.295,0.555 2.034,1.109 0.74,0.556 2.035,0.74 3.515,0.926 1.48,0.185 1.48,0.925 2.035,1.85 0.555,0.925 0.74,2.035 0.74,2.775 0,0.74 1.85,0.555 2.59,0.555 0.554,0 1.521,-0.104 2.438,0.076 h -0.014 l 1.461,-4.082 c 0,0 0.37,-1.604 0.37,-2.467 0,-0.863 0.616,-1.11 1.974,-1.604 1.356,-0.494 0,0 0.863,0.493 0.863,0.494 0.617,-0.493 0.85,-1.233 0.233,-0.74 0.384,-1.973 1.247,-2.22 0.863,-0.247 3.207,0.37 4.809,0 1.604,-0.37 2.098,-0.616 2.221,-1.11 0.123,-0.493 0.123,-1.479 0,-2.096 -0.123,-0.617 -1.974,-1.975 -1.974,-1.975 0,0 -2.097,-0.246 -2.22,-0.863 -0.123,-0.616 -1.974,-5.18 -1.974,-5.18 0,0 -2.837,-0.493 -3.453,-0.74 -0.617,-0.246 0.247,-1.356 0.739,-1.85 0.494,-0.493 0.604,-1.444 0.604,-1.444 0,0 -1.836,-2.009 -2.33,-2.503 -0.493,-0.493 -3.206,-2.096 -3.206,-2.096 0,0 0,0 -1.233,0.493 -1.234,0.493 -6.906,0.863 -8.634,0.987 -1.727,0.123 -4.192,1.109 -5.55,1.603 -1.356,0.493 -3.823,1.233 -5.55,1.479 -1.727,0.247 -4.563,-0.863 -4.563,-0.863 l -0.986,-2.59 -0.123,-1.85 c 0,0 -0.617,-1.727 -0.987,-1.727 -0.37,0 -1.603,-0.37 -2.22,0 -0.617,0.37 -1.974,-0.986 -2.097,-1.48 -0.124,-0.493 -0.124,-2.96 -0.124,-2.96 0,0 0.124,-2.097 0.124,-2.466 0,-0.2 -0.072,-1.119 -0.177,-1.983 l -4.143,-0.21 -5.476,-1.201 -3.031,-0.553 -5.302,1.117 -4.812,3.939 -4.686,1.233 -3.111,1.974 -1.822,1.545 -2.759,1.959 -2.759,0.936 -5.892,0.617 c 0,0 -0.614,-0.246 -1.448,0.37 -0.833,0.616 -4.902,2.128 -5.89,2.235 -0.986,0.107 -5.485,0 -5.485,0 0,0 -2.654,0.111 -3.395,0.048 -0.741,-0.063 -0.74,-0.063 -0.74,-0.063 l -2.878,-2.905 -0.954,0.675 c -0.289,0.223 -1.102,3.834 -0.854,4.82 0.247,0.987 1.233,2.713 1.603,3.823 0.37,1.11 0.493,4.81 0.247,5.673 -0.247,0.863 -0.863,3.577 -1.11,5.058 -0.247,1.479 0.123,5.427 0.616,5.897 0.494,0.472 0.247,2.119 0.247,2.982 0,0.863 -0.863,2.22 -1.11,2.96 -0.246,0.739 -1.357,2.343 -1.357,2.96 0,0.617 -0.986,2.097 -1.974,3.576 -0.986,1.48 0.247,1.604 0.494,2.591 0.033,0.135 0.049,0.257 0.05,0.37 l -0.107,-0.139 c 0.506,0.134 0.919,0.264 0.919,0.264 0,0 1.974,0.493 2.467,0.861 0.493,0.367 6.413,-3.328 6.413,-3.328 l 1.851,2.097 h 0.57 l 1.156,1.974 h 1.85 l 1.604,1.109 0.863,0.74 1.974,0.74 1.296,1.455 1.541,0.765 2.466,2.467 0.987,0.911 2.22,2.296 0.37,0.903 -1.11,1.316 -0.862,4.07 -0.617,3.576 0.863,1.604 0.986,-1.356 0.863,-0.74 1.357,-2.713 c 0,0 1.727,-2.591 2.22,-3.33 0.493,-0.74 3.083,-2.825 3.083,-2.825 l 2.467,2.455 1.109,2.343 h 0.768 l 0.836,2.837 v 0.809 l -0.614,0.917 c 0,0 -0.493,0.74 0,0.986 0.493,0.247 1.604,-0.246 1.604,-0.246 v -0.986 -0.672 c 0,0 1.479,0.302 2.467,0.055 0.986,-0.246 1.11,0.37 1.85,1.388 0.74,1.018 1.11,1.572 2.343,2.312 1.234,0.74 0.617,2.22 0.863,3.083 0.247,0.863 2.098,2.344 2.098,2.344 0,0 1.603,1.85 2.467,2.097 0.863,0.246 2.466,-0.616 3.453,-1.48 0.986,-0.863 0.863,-1.85 1.183,-2.343 0.32,-0.493 1.16,-2.467 1.777,-2.713 0.616,-0.247 1.11,-0.124 1.85,-0.494 0.74,-0.37 1.11,-0.863 2.22,-1.973 1.11,-1.11 0.74,-0.617 1.604,-0.74 0.864,-0.123 1.85,-0.123 2.96,0 1.11,0.123 1.233,1.109 1.728,1.85 0.495,0.74 0.986,2.097 0.986,2.097 v 3.206 l 0.74,2.344 0.74,-1.109 0.739,-1.974 c 0,0 0.247,-0.37 0.864,0 0.617,0.37 1.479,1.479 1.465,1.85 l -0.01,1.216 v 0.139 c 0,0 4.678,0.494 5.187,-0.493 0.51,-0.986 -0.139,-2.343 0,-3.206 0.139,-0.863 -0.976,-1.357 0.198,-2.344 l 3.888,-2.467 4.006,-5.272 0.805,-6.318 0.695,-9.499 4.277,-3.7 3.209,-6.097 c 0,0 0.576,-0.57 0.882,-0.873 z"
   style="fill:#677821" /><rect
   style="fill:none;stroke:#000000;stroke-width:0.29998;stroke-linejoin:bevel;stroke-dasharray:none;paint-order:stroke fill markers"
   id="rect2"
   height="4390.293"
   x="0.19998971"
   y="0.19998971"
   ry="0.69917101"
   width="4353.8188" /></svg>
