<?xml version="1.0" encoding="UTF-8" standalone="no"?>
<!-- Generator: Adobe Illustrator 22.1.0, SVG Export Plug-In . SVG Version: 6.00 Build 0)  -->

<svg
   version="1.1"
   x="0px"
   y="0px"
   viewBox="0 0 4354.1187 4390.5933"
   enable-background="new 0 0 1995.865 2834.646"
   xml:space="preserve"
   id="svg1596"
   width="4354.1187"
   height="4390.5933"
   xmlns="http://www.w3.org/2000/svg"
   xmlns:svg="http://www.w3.org/2000/svg"><defs
   id="defs1596" />


<g
   id="Merseyside__x3C_Group_x3E__1_"
   style="fill:#677821"
   transform="translate(1093.6405,660.66109)">
					<path
   fill="#8D9764"
   d="m 1176.365,1899.582 c -0.312,-0.582 -0.503,-1.018 -0.852,-1.507 -0.463,-0.647 -0.647,-0.739 -0.74,-1.479 -0.093,-0.74 -0.555,-1.665 -0.37,-2.035 0.185,-0.37 1.11,-0.186 0.463,-0.832 -0.648,-0.648 -0.925,-1.295 -1.573,-1.758 -0.648,-0.463 -0.37,-0.74 -1.48,-1.665 -1.11,-0.925 -1.572,-1.572 -2.312,-1.665 -0.74,-0.093 -0.833,-0.463 -1.48,-1.388 -0.648,-0.925 -0.555,-1.665 -1.388,-2.312 -0.833,-0.647 -0.925,-0.925 -1.48,-1.757 -0.555,-0.833 -0.925,-1.666 -1.11,-2.405 -0.185,-0.74 -0.925,-1.11 0.463,-2.128 1.388,-1.018 2.59,-1.572 4.902,-2.59 2.312,-1.018 4.533,-2.59 5.088,-2.775 0.555,-0.185 2.127,-0.739 2.867,-1.109 0.74,-0.37 1.85,-1.48 2.22,-2.035 0.37,-0.555 0.925,-0.925 1.85,-1.203 0.925,-0.277 1.85,-0.369 2.22,-0.646 0.37,-0.278 0.463,-0.926 1.202,-0.093 0.74,0.832 0.648,1.757 1.85,3.792 1.202,2.035 2.22,3.423 2.405,4.44 0.185,1.018 0.369,2.128 0.369,3.053 0,0.925 0,1.572 0.37,2.312 0.37,0.739 0.925,1.388 1.11,2.312 0.185,0.924 0.277,1.295 0.832,1.665 0.556,0.369 0.556,-0.648 1.388,0.647 0.833,1.295 1.295,2.127 1.85,3.329 0.555,1.203 1.109,1.943 1.387,2.684 0.277,0.739 0.463,1.572 1.11,2.59 0.647,1.018 1.018,0.832 1.665,1.387 0.553,0.475 0.432,0.476 1.248,0.928 h 10e-4 l -1.372,0.252 -0.74,1.503 c 0,0 -0.885,-0.608 -1.406,-0.823 -0.521,-0.216 -1.182,-0.11 -2.17,-0.04 -0.988,0.071 -2.069,-0.22 -2.069,-0.22 0,0 -1.509,0.713 -2.001,0.898 -0.494,0.185 -4.07,0.185 -5.057,0 -0.986,-0.186 -1.48,-1.912 -1.85,-2.994 -0.37,-1.083 -1.604,-0.305 -1.604,-0.305 0,0 -2.96,1.017 -3.402,1.51 -0.442,0.494 -2.579,2.133 -2.264,2.723 z"
   id="path1261"
   style="fill:#677821" />
					<path
   fill="#8D9764"
   d="m 1213.808,1892.155 1.597,-2.867 c 0,0 2.78,-3.269 3.274,-3.762 0.493,-0.493 0.495,-1.258 1.111,-1.616 0.615,-0.357 0.862,-0.974 1.232,-2.33 0.369,-1.357 1.603,-1.728 2.22,-1.851 0.616,-0.123 1.357,0.493 1.48,0 0.122,-0.493 3.587,-2.015 3.587,-2.015 l 3.689,0.904 c 0,0 1.604,1.356 2.096,0.74 0.494,-0.616 0.622,-2.116 0.682,-2.846 0.059,-0.73 0.803,-1.718 1.109,-2.827 0.307,-1.11 0.433,-2.174 0,-3.985 -0.434,-1.812 -1.791,-3.908 -1.791,-3.908 l -0.555,-1.23 2.625,0.959 c 0,0 3.741,2.013 4.468,2.861 0.726,0.85 0.672,0.37 2.247,-0.123 1.575,-0.493 1.575,-0.493 1.575,-0.493 l 0.641,-2.263 0.057,0.067 c -0.939,-1.119 -1.972,-2.349 -1.972,-2.349 v -3.967 l -4.151,-0.986 -1.581,-2.02 -1.256,-1.311 c 0,0 -0.982,-0.863 -1.416,-0.986 -0.435,-0.123 -2.16,-0.124 -2.654,-0.617 -0.494,-0.493 -0.617,-1.604 -1.604,-1.85 -0.987,-0.246 -2.59,0 -2.59,0 l -0.54,-2.097 c 0,0 -1.801,0.247 -1.679,0 0.122,-0.247 -3.085,0.863 -3.455,0.986 -0.369,0.124 -1.693,-3.33 -1.693,-3.33 0,0 -1.76,0.106 -2.129,0.485 -0.371,0.379 -2.695,2.845 -2.695,2.845 0,0 -0.143,2.468 -0.512,3.823 -0.37,1.357 -0.986,2.736 -1.973,2.54 -0.987,-0.196 -0.986,-0.442 -2.344,-1.43 -1.357,-0.986 -2.344,-1.604 -3.084,-2.097 -0.74,-0.493 -3.453,-2.097 -3.453,-2.097 0,0 0.248,-2.097 0,-2.22 -0.247,-0.123 -1.356,-0.758 -2.59,-1.365 -1.233,-0.608 -2.546,-1.352 -3.369,-2.458 -0.824,-1.107 -2.266,-1.851 -3.271,-2.097 -1.006,-0.247 -1.869,-0.54 -1.129,0.963 0.739,1.504 1.85,2.35 1.725,3.592 -0.123,1.242 -1.602,2.722 -1.602,2.722 l -2.706,-1.85 -2.771,-2.071 c 0,0 -0.712,-0.516 -1.129,-0.555 -0.418,-0.039 -1.904,-0.457 -1.904,-0.457 v -3.13 l 0.492,-3.815 c 0,0 2.148,-0.195 2.061,-0.818 -0.087,-0.623 0,-3.09 0,-3.09 0,0 -0.457,-0.346 -0.457,-1.098 0,-0.753 0.37,-3.353 0.37,-3.353 l 2.96,-4.677 c 0,0 3.505,-0.124 3.788,-0.74 0.282,-0.616 1.031,-0.969 1.519,-2.704 0.489,-1.736 -0.249,-2.476 1.23,-3.216 1.479,-0.74 -0.123,-5.55 0,-6.167 0.123,-0.616 -0.986,-4.162 -0.986,-4.162 l -0.183,-0.354 c 0.054,0.124 0.118,0.247 0.183,0.354 0.277,0.462 -0.277,0.462 -0.832,0.925 -0.556,0.463 -0.556,0 -0.648,-0.463 -0.092,-0.462 -0.647,-0.277 -1.387,0 -0.74,0.278 -0.277,1.48 -0.277,2.035 0,0.556 -0.74,0.833 -1.018,1.48 -0.278,0.647 -1.666,2.22 -1.758,2.59 -0.093,0.37 -1.665,2.775 -2.221,3.423 -0.555,0.647 -0.925,1.479 -1.479,1.942 -0.554,0.463 -1.479,0.37 -1.942,0.555 -0.463,0.186 -0.74,1.758 -0.648,3.053 0.093,1.295 -0.463,1.758 -0.647,2.59 -0.186,0.832 -2.035,2.775 -2.498,3.516 -0.462,0.739 -1.665,3.329 -2.312,4.532 -0.647,1.202 -1.48,2.22 -1.942,4.255 -0.462,2.035 -0.277,2.775 -0.092,4.255 0.185,1.48 0.647,1.758 1.203,2.405 0.555,0.647 1.11,0.832 1.48,1.85 0.37,1.018 1.203,0.647 2.405,1.018 1.203,0.37 0.277,2.312 0.277,2.312 0,0 0.093,2.775 0.463,3.885 0.37,1.11 1.572,3.146 1.85,3.7 0.278,0.554 1.11,1.479 1.665,2.128 0.556,0.647 1.018,1.202 1.11,1.85 0.092,0.647 -0.832,0.277 -1.572,0.093 -0.74,-0.186 -0.833,-0.556 -1.203,-0.463 -0.369,0.093 0.37,0.556 0.833,1.11 0.462,0.555 1.295,2.127 1.388,2.59 0.092,0.463 0.739,1.018 1.387,1.388 0.648,0.37 1.11,0.832 1.295,1.295 0.186,0.462 0.463,4.162 0.556,4.81 0.093,0.648 0.185,1.388 1.018,2.867 0.832,1.48 1.109,3.793 1.942,4.625 0.832,0.833 1.479,1.758 2.867,2.498 1.388,0.74 1.572,0.555 2.312,1.11 0.74,0.555 1.85,1.388 2.312,1.572 0.462,0.184 1.758,1.942 2.683,2.867 0.925,0.925 3.792,3.33 5.18,4.255 1.386,0.93 4.346,-0.088 5.456,-0.644 0.101,-0.051 0.199,-0.09 0.293,-0.119 z"
   id="path1262"
   style="fill:#677821" />
				</g><rect
   style="fill:none;stroke:#000000;stroke-width:0.29998;stroke-linejoin:bevel;stroke-dasharray:none;paint-order:stroke fill markers"
   id="rect2"
   height="4390.293"
   x="0.19998971"
   y="0.19998971"
   ry="0.69917101"
   width="4353.8188" /></svg>
