<?xml version="1.0" encoding="UTF-8" standalone="no"?>
<!-- Generator: Adobe Illustrator 22.1.0, SVG Export Plug-In . SVG Version: 6.00 Build 0)  -->

<svg
   version="1.1"
   x="0px"
   y="0px"
   viewBox="0 0 4354.1187 4390.5933"
   enable-background="new 0 0 1995.865 2834.646"
   xml:space="preserve"
   id="svg1596"
   width="4354.1187"
   height="4390.5933"
   xmlns="http://www.w3.org/2000/svg"
   xmlns:svg="http://www.w3.org/2000/svg"><defs
   id="defs1596" />


<path
   id="Norfolk_1_"
   fill="#303B09"
   d="m 2746.0785,2750.3041 c 0.153,-1.582 0.153,-1.582 0.153,-1.582 l -1.768,-1.018 c 0,0 -2.758,-2.639 -3.06,-2.992 -0.303,-0.353 -1.929,-2.16 -1.929,-2.16 l -1.315,-2.75 -2.067,-1.8 -4.07,-1.942 c 0,0 -1.047,-0.37 -1.726,-0.648 -0.679,-0.277 -4.934,0.926 -4.934,0.926 l -1.458,0.192 c 0,0 -1.779,0.64 -2.149,0.732 -0.37,0.092 -1.573,-1.018 -1.665,-1.388 -0.093,-0.37 -1.572,-0.647 -2.035,-1.018 -0.463,-0.371 -1.098,-1.39 -0.733,-1.435 0.363,-0.045 2.214,-1.243 2.028,-1.338 -0.186,-0.095 -0.74,-0.026 -1.572,-0.431 -0.833,-0.404 -2.035,-0.845 -1.388,-1.411 0.647,-0.565 1.4,-1.213 0.932,-1.583 -0.47,-0.37 -1.024,-0.925 -0.654,-1.11 0.37,-0.185 -0.093,-0.486 -0.093,-0.486 l 0.093,-1.354 0.654,-0.018 v -1.102 c 0,0 -1.209,-0.092 -0.562,-0.555 0.647,-0.463 0.846,-1.295 0.562,-1.572 -0.284,-0.277 0,-0.833 0,-0.833 0,0 0,-1.245 0,-0.622 0,0.622 -1.579,-1.783 -1.579,-1.783 0,0 0.555,-0.449 0,-0.733 -0.555,-0.283 -1.295,-1.856 -1.295,-1.856 0,0 0,-1.109 0.555,-1.664 0.555,-0.556 1.203,-1.388 1.572,-1.851 0.37,-0.462 0.747,-1.388 0.747,-1.388 l -0.932,-1.295 -3.053,-3.422 c 0,0 -0.647,-3.516 -0.462,-3.793 0.185,-0.277 0.462,-3.33 0.462,-3.33 l -2.061,-2.94 -1.963,-0.577 0.255,-1.75 -0.115,-2.78 c 0,0 -0.038,-0.899 0.4,-1.836 0.438,-0.936 1.194,-3.153 1.194,-3.153 l 0.229,-1.558 c 0,0 1.747,0.278 2.643,-0.333 0.898,-0.612 4.227,-2.616 4.227,-2.616 l 6.198,-4.471 -1.85,-1.815 c 0,0 -1.295,-1.064 -1.018,-1.521 0.278,-0.457 1.11,-1.567 1.11,-1.567 0,0 -0.277,-1.202 0,-1.295 0.277,-0.092 0.925,-1.664 0.925,-1.664 l -0.645,0.021 c 0.232,0.052 0.455,0.055 0.645,-0.021 0.926,-0.37 1.11,-0.926 3.145,-1.48 2.035,-0.555 2.405,-0.186 3.885,0 1.48,0.186 0.925,0.858 2.22,1.539 1.295,0.681 5.365,4.196 5.365,4.196 0,0 -0.74,-2.035 0,-3.886 0.74,-1.85 2.035,-3.33 3.33,-4.439 1.295,-1.11 2.405,-2.59 4.07,-3.146 1.665,-0.555 2.774,-0.555 2.774,-1.665 0,-1.109 -0.739,-4.994 0,-6.289 0.74,-1.296 2.405,-4.44 2.775,-5.365 0.37,-0.926 0.74,-4.625 1.665,-6.476 0.925,-1.85 2.59,-5.734 3.515,-6.475 0.925,-0.741 3.146,-2.405 3.886,-2.96 0.739,-0.555 1.295,-1.295 2.404,-1.11 1.11,0.186 2.035,0.925 3.33,0.556 1.295,-0.37 3.885,-0.37 3.885,-0.37 0,0 3.516,0.555 4.07,0.37 0.555,-0.186 2.59,-0.74 2.59,-0.74 h 2.221 v 0.925 l -2.035,0.74 3.33,-0.37 c 0,0 0.416,-0.833 0.858,-1.093 0.147,-0.087 0.298,-0.11 0.436,-0.018 0.555,0.37 2.035,0.186 2.035,0.186 v -1.48 l -1.48,-0.37 h -1.85 l -2.035,-0.555 2.404,-0.925 2.961,0.555 c 0,0 2.959,0.74 3.515,0.74 0.555,0 2.22,1.11 2.22,1.11 l -1.85,0.739 1.85,0.556 c 0,0 -0.925,1.85 0,1.109 0.925,-0.741 0.186,-2.22 2.035,-1.85 1.849,0.37 4.07,0.555 4.995,0.74 0.925,0.185 1.85,-0.37 3.145,-0.556 1.296,-0.185 3.146,0.37 3.146,0.37 0,0 0.555,1.48 1.295,0.74 0.74,-0.74 0.74,-2.035 1.85,-1.11 1.11,0.925 1.295,1.11 2.775,1.851 1.48,0.739 2.035,1.109 3.515,1.109 1.48,0 5.735,-0.555 6.29,-0.37 0.555,0.186 3.885,0.186 3.885,0.186 l 2.961,0.185 0.925,-1.109 -2.22,-1.11 -2.035,-0.37 c 0,0 -1.666,0.186 -2.59,0.186 -0.926,0 -1.851,-0.186 -1.296,-0.926 0.556,-0.74 1.11,-0.925 2.035,-0.925 0.925,0 1.665,-0.185 2.96,0.185 1.295,0.371 3.146,1.48 4.255,2.221 1.11,0.74 3.886,1.479 5.181,2.035 1.295,0.555 5.55,1.479 7.029,2.035 1.48,0.555 5.181,1.295 7.215,1.479 2.035,0.185 8.325,0 15.726,3.146 7.399,3.145 14.06,7.399 15.91,8.694 1.85,1.295 8.14,8.88 10.729,10.36 2.59,1.479 6.29,5.365 10.176,8.325 3.885,2.96 12.58,11.284 14.43,13.319 1.85,2.035 3.699,4.811 4.07,5.735 0.369,0.925 0.185,3.7 0.925,4.995 0.739,1.295 2.22,4.625 2.59,6.104 0.37,1.48 1.665,6.476 1.665,6.476 0,0 -0.555,4.255 0,4.995 0.555,0.739 1.109,5.364 0.925,6.104 -0.184,0.74 -0.925,3.7 -0.925,3.7 0,0 -0.186,0.74 -0.37,3.33 -0.111,1.556 -0.063,3.712 0.267,6.069 l -0.011,-0.086 h -1.489 l -2.96,-1.506 -3.628,-1.857 c 0,0 -1.43,-0.012 -1.979,0.051 -0.549,0.063 -0.918,0.705 -1.538,1.511 -0.619,0.806 -1.79,1.018 -2.683,0.85 -0.893,-0.168 -1.566,0.086 -1.864,0.469 -0.299,0.383 -0.24,0.559 0.055,0.851 0.295,0.292 1.364,3.092 1.564,3.354 0.201,0.262 2.033,1.048 2.137,1.166 0.104,0.118 0.907,2.187 0.907,2.187 0,0 2.505,1.229 2.844,1.424 0.338,0.194 1.562,1.305 1.562,1.305 l -0.459,0.864 c -1.604,0.863 -0.42,1.356 -1.32,2.466 -0.9,1.11 0.333,0.986 -1.641,1.233 -1.973,0.247 -0.493,-0.369 -2.836,0.494 -2.344,0.862 -1.973,2.097 -3.207,0.616 -1.233,-1.479 -0.306,-2.238 -2.866,-2.229 -2.561,0.01 -3.547,1.365 -3.547,1.365 0,0 0.246,1.38 -1.11,1.553 -1.356,0.174 -3.206,-1.676 -3.946,-1.183 -0.74,0.493 -1.11,1.772 -2.59,1.194 -1.48,-0.578 -2.837,-2.305 -4.07,-1.811 -1.233,0.493 -1.479,-0.494 -2.097,1.109 -0.617,1.604 -0.369,1.604 -1.604,1.604 -1.233,0 -2.096,0.123 -2.59,-0.986 -0.493,-1.11 0.123,-3.084 -1.356,-1.851 -1.48,1.233 -1.974,1.356 -1.11,2.097 0.864,0.741 2.344,0.863 2.221,1.85 -0.124,0.987 0.492,0.371 -1.48,1.48 -1.974,1.11 -1.974,0.74 -3.7,2.097 -1.726,1.357 -2.96,1.851 -2.96,1.851 0,0 -1.604,0 -2.097,1.973 -0.493,1.974 -0.739,1.234 -1.727,2.837 -0.987,1.604 -1.727,1.851 -2.343,3.083 -0.617,1.233 -4.194,0.247 -5.551,0.987 -1.356,0.739 -2.097,0.616 -3.453,2.836 -1.356,2.22 -2.22,1.48 -3.33,2.344 -1.109,0.863 -0.986,0.74 -2.344,1.604 -1.356,0.863 -1.479,0 -2.713,0 l -1.481,-0.331 c 0,0 -0.369,0.04 -1.602,0 -1.233,-0.039 0.27,0.331 -2.456,-0.409 -2.725,-0.74 -2.23,-1.356 -4.574,-1.604 -2.344,-0.248 -1.479,-0.616 -3.946,-0.616 -2.467,0 -1.356,-0.863 -3.947,-0.986 -2.59,-0.124 -3.7,-0.37 -5.55,0 -1.85,0.369 -0.987,-0.248 -3.084,0.986 l -1.973,0.246 c 0,0 -1.233,-0.123 -2.344,0 -1.109,0.123 -1.356,-1.007 -2.467,-1.428 -1.109,-0.422 -0.616,-1.854 -2.22,-2.186 -1.603,-0.333 -1.232,-0.161 -2.836,0 -1.604,0.16 -2.837,-0.049 -4.194,-0.19 -1.355,-0.143 -2.836,0.104 -3.206,-0.636 -0.37,-0.74 0.493,-1.974 -0.986,-1.974 -1.48,0 -1.357,-2.097 -2.591,0 -1.232,2.097 -1.109,2.778 -2.59,2.745 -1.48,-0.031 -2.972,0.033 -4.262,0 -1.288,-0.031 -1.658,-0.847 -3.015,0.055 -1.356,0.9 -2.097,2.059 -2.097,0 0,-0.875 -0.119,-1.355 -0.164,-1.714 l -2.893,0.394 -2.74,-0.616 c -1.249,-1.953 -5.743,-1.502 -3.24,-4.714 0.881,-1.132 2.02,-2.183 2.99,-3.307 0.671,-0.775 2.634,-1.594 2.938,-2.583 0.522,-1.698 -3.045,-1.865 -4.161,-2.104 -0.865,-0.185 -1.58,-0.832 -2.344,-0.989 -1.15,-0.236 -1.483,0.695 -2.35,0.992 -1.572,0.54 -3.875,-0.052 -5.421,-0.252 -1.392,-0.182 -2.868,0.156 -4.228,0.424 -1.116,0.22 -2.475,0.079 -3.46,0.659 -0.783,0.46 -0.679,1.013 -1.794,0.505 -0.392,-1.172 -4.509,-0.421 -5.454,-0.231 -1.169,0.233 -2.22,0.21 -3.42,0.403 -1.183,0.191 -2.306,0.112 -3.481,0.227 -0.637,0.062 -1.926,0.411 -2.256,1.052 -0.334,0.65 0,0.94 0.228,1.61 z"
   style="fill:#677821" /><rect
   style="fill:none;stroke:#000000;stroke-width:0.29998;stroke-linejoin:bevel;stroke-dasharray:none;paint-order:stroke fill markers"
   id="rect2"
   height="4390.293"
   x="0.19998971"
   y="0.19998971"
   ry="0.69917101"
   width="4353.8188" /></svg>
