<?xml version="1.0" encoding="UTF-8" standalone="no"?>
<!-- Generator: Adobe Illustrator 22.1.0, SVG Export Plug-In . SVG Version: 6.00 Build 0)  -->

<svg
   version="1.1"
   x="0px"
   y="0px"
   viewBox="0 0 4354.1187 4390.5933"
   enable-background="new 0 0 1995.865 2834.646"
   xml:space="preserve"
   id="svg1596"
   width="4354.1187"
   height="4390.5933"
   xmlns="http://www.w3.org/2000/svg"
   xmlns:svg="http://www.w3.org/2000/svg"><defs
   id="defs1596" />


<path
   id="North_Yorkshire_1_"
   fill="#8D9764"
   d="m 2605.2445,2287.4331 c -0.889,-0.299 -2.219,-0.818 -3.091,-1.109 -1.11,-0.37 -2.221,-0.74 -3.516,-1.851 -1.295,-1.109 -1.295,-1.479 -1.48,-2.774 -0.184,-1.295 -1.11,-1.295 -2.96,-2.22 -1.85,-0.926 -0.186,-1.11 -1.295,-1.13 -1.11,-0.02 -1.48,-0.721 -1.851,-0.351 -0.371,0.37 -2.405,0.555 -4.255,0 -1.85,-0.555 0.37,-1.85 0,-2.404 -0.37,-0.556 -1.109,-0.556 -1.665,-0.926 -0.555,-0.37 -1.11,-2.035 -2.405,-3.33 -1.295,-1.295 -2.59,0.37 -3.885,0 -1.295,-0.369 -2.404,-1.109 -3.33,-2.404 -0.925,-1.295 -1.295,0.739 -4.81,0 -3.515,-0.74 -3.7,-1.48 -5.735,-2.961 -2.035,-1.479 -3.33,-0.555 -4.994,-0.369 -1.666,0.185 -4.625,-1.665 -6.846,-2.775 -2.22,-1.109 -3.515,-2.22 -4.625,-3.33 -1.109,-1.109 -2.775,-2.22 -3.7,-2.59 -0.925,-0.37 -3.515,-0.186 -4.995,-0.74 -1.479,-0.555 -2.22,-1.295 -3.145,-2.035 -0.925,-0.74 -0.887,-2.96 -0.887,-2.96 -0.49,0.475 -0.969,1.136 -0.965,1.843 0,0.3 0.901,2.478 0.723,2.455 -0.906,-0.113 -1.327,-0.485 -1.804,0.319 -0.9,1.519 0.876,3.124 -0.485,4.681 -0.661,0.757 -1.729,1.197 -2.442,1.943 -0.752,0.787 -1.429,1.697 -2.107,2.548 -2.034,2.554 -5.464,1.141 -7.364,-0.724 l -1.441,-0.608 c 0,0 -0.862,2.403 -0.863,3.207 0,0.803 -0.376,2.89 -2.803,2.811 v 3.603 l -0.033,3.453 c 0,0 0.246,2.467 0,2.836 -0.247,0.371 -0.247,1.727 0.615,1.974 0.863,0.247 4.24,0.822 4.525,1.398 0.285,0.575 0.162,1.037 -0.578,1.546 -0.74,0.51 -1.493,-0.487 -1.548,1.121 -0.056,1.608 0.77,2.225 -0.444,2.225 -1.215,0 -2.537,1.053 -2.537,1.053 0,0 -0.075,0.333 -0.65,0.675 -0.575,0.341 -1.587,0.366 -1.732,0.461 -0.146,0.094 -2.834,1.759 -3.388,2.005 -0.554,0.247 -1.047,1.226 -1.663,1.106 -0.617,-0.12 -1.11,0.374 -1.974,-0.613 -0.863,-0.986 -1.974,-1.233 -1.974,-0.739 0,0.493 -0.644,1.232 -0.877,0.369 -0.233,-0.863 -0.014,-0.986 0,-1.973 0.014,-0.987 -0.049,-1.226 -0.326,-1.661 l -1.052,-1.304 c -0.111,0.034 -0.259,0.071 -0.458,0.129 -0.863,0.246 -1.109,0.986 -1.356,0 -0.247,-0.987 -0.616,-1.48 -1.11,-0.987 -0.493,0.493 -0.863,0.134 -0.74,1.485 0.124,1.352 0.247,1.969 -0.616,1.969 -0.863,0 -2.097,1.109 -1.851,0 0.247,-1.11 1.046,-0.987 -0.031,-1.728 -1.078,-0.739 -1.448,-0.739 -1.695,-1.603 -0.246,-0.863 -0.616,-1.357 -1.356,-1.851 -0.739,-0.493 -1.233,-1.479 -1.85,-0.74 -0.616,0.74 -0.74,1.479 0,1.974 0.74,0.493 1.11,0.986 0.863,2.22 -0.247,1.234 -0.247,2.837 0.123,3.207 0.37,0.37 1.233,1.974 0.74,1.974 -0.493,0 -1.233,-1.11 -0.986,0 0.246,1.109 1.109,0.863 0.863,1.85 -0.247,0.986 0.862,1.974 -0.247,0.986 -1.11,-0.986 -2.129,-0.863 -1.866,-1.603 0.263,-0.74 0.022,-1.604 -0.042,-1.974 -0.064,-0.37 -0.384,-1.48 -0.595,-1.604 -0.21,-0.123 -0.21,0 -1.443,-0.123 -1.233,-0.124 -2.097,-0.246 -1.356,-1.11 0.739,-0.863 1.479,-1.85 0.492,-1.727 -0.987,0.123 -1.356,0.246 -1.479,1.233 -0.123,0.986 -0.616,0.863 -0.74,1.356 -0.123,0.493 0.494,1.479 -0.123,0.493 -0.616,-0.986 0.74,-1.356 0,-2.22 -0.74,-0.864 -1.356,-0.74 -2.097,-0.493 -0.74,0.246 0,0.493 0,1.48 0,0.986 1.357,0.862 0.493,1.603 -0.863,0.74 -0.986,1.11 -1.85,0.74 -0.864,-0.37 -1.356,-0.617 -1.727,-1.11 -0.371,-0.493 -0.37,-1.356 -0.74,-1.727 -0.37,-0.369 -0.493,-1.11 -1.11,-1.233 l 1.11,1.233 c -0.37,-0.369 -0.493,-1.11 -1.11,-1.233 l -2.806,-1.542 c -0.277,-0.277 0.093,-0.832 0.647,-1.479 l 0.186,-0.706 c -0.465,0.108 -2.578,0.835 -2.189,0 0.388,-0.836 0.996,-0.842 0.523,-1.145 -0.472,-0.302 -2.662,-0.734 -2.498,-1.145 0.164,-0.409 -0.021,-1.391 -0.451,-1.194 -0.43,0.196 -1.249,1.836 -2.06,1.62 -0.812,-0.215 -1.554,-1.243 -1.489,-1.646 0.065,-0.403 1.125,-0.531 0.117,-0.848 -1.009,-0.315 -3.237,-0.396 -3.237,-0.396 0,0 0.555,-1.857 0,-1.942 -0.556,-0.084 -2.495,-0.104 -3.428,-0.244 -0.933,-0.14 -2.308,-0.308 -3.301,-0.663 -0.992,-0.354 -1.909,-0.552 -2.337,-0.572 -0.428,-0.021 -0.555,1.387 -0.833,1.758 -0.277,0.369 -2.937,0.739 -3.965,0.462 -1.029,-0.277 -2.047,-0.37 -2.417,0.185 -0.37,0.556 0.185,1.388 0,3.146 -0.184,1.757 -1.295,3.885 -1.295,3.885 l -1.11,3.146 c 0,0 -3.793,-2.961 -4.07,-2.868 -0.277,0.093 -1.572,-2.949 -1.572,-2.949 0,0 -1.942,-0.658 -2.22,-0.473 -0.277,0.185 -0.556,2.312 -0.647,2.59 -0.093,0.277 0,2.128 0,2.128 0,0 -0.37,1.203 -1.388,2.127 -1.018,0.925 -0.462,0.647 -2.683,2.498 -2.22,1.85 -3.58,2.59 -5.49,3.145 -1.91,0.555 -3.39,1.727 -4.685,1.048 -1.295,-0.678 -2.867,-1.788 -3.792,-2.436 -0.926,-0.647 -3.146,-2.299 -4.718,-2.306 -1.573,-0.01 -1.949,-0.747 -2.362,-1.395 -0.413,-0.648 -0.125,-0.647 -1.795,0.277 -1.67,0.926 -2.133,1.573 -3.891,2.221 -1.758,0.648 -3.607,1.109 -5.457,1.479 -1.85,0.37 -2.682,0.925 -3.977,1.11 -1.296,0.185 -0.833,-1.572 -1.758,-1.295 -0.925,0.277 -0.277,0.37 -1.479,1.572 -1.203,1.203 -0.926,1.85 -2.128,1.85 -1.202,0 -2.405,0.093 -4.718,0 -2.312,-0.092 -3.792,-0.555 -4.348,0.463 -0.555,1.018 0.37,1.203 -1.572,1.572 -1.942,0.37 -1.85,-0.019 -2.59,1.841 -0.74,1.86 -2.342,1.212 -1.911,3.524 0.431,2.312 -0.246,3.516 0,3.978 0.246,0.462 2.005,0.925 1.911,1.388 -0.093,0.463 0.648,2.497 0,3.237 -0.647,0.74 -1.203,0.37 -2.498,0.925 -1.295,0.555 -1.664,2.59 -1.941,2.498 -0.278,-0.093 -1.788,1.018 -2.097,1.295 -0.309,0.277 -1.512,0.832 -2.251,0.925 -0.74,0.093 -0.463,0.74 0,1.295 0.462,0.555 0.832,0.74 1.757,1.479 0.925,0.74 0.96,1.573 2.007,2.128 1.046,0.556 2.156,0.647 2.618,1.758 0.463,1.11 0.093,1.007 -0.37,2.354 -0.462,1.347 -1.48,2.054 -1.109,3.272 0.369,1.219 0.092,2.144 0.369,4.271 0.278,2.127 -0.092,5.779 -0.185,6.081 -0.093,0.302 -0.612,3.446 -1.323,3.816 -0.712,0.37 -1.267,1.454 -2.191,0.403 -0.926,-1.051 -0.94,-2.531 -2.413,-2.346 -1.472,0.185 -0.454,1.018 -1.565,1.572 -1.11,0.555 -1.388,-0.488 -2.312,0.773 -0.925,1.262 0.555,2.371 -1.758,2.927 -2.312,0.555 -5.251,0.87 -6.821,-0.606 l -0.231,0.69 c -0.024,0.069 -0.048,0.135 -0.069,0.193 -0.37,1.018 -1.295,1.942 -1.851,3.856 -0.555,1.913 -2.034,3.081 -3.038,4.376 -1.004,1.295 -2.882,3.7 -4.43,6.29 -1.549,2.59 -4.449,4.001 -4.366,5.442 0.083,1.441 0.179,2.513 1.475,4.362 1.295,1.851 1.665,1.851 2.892,4.867 1.226,3.016 3.398,0.312 6.359,2.408 2.963,2.095 1.479,2.529 2.004,4.516 0.524,1.985 -0.155,2.639 0,4.621 0.154,1.982 2.25,1.163 3.915,0.793 1.665,-0.37 4.625,0 7.778,0 3.154,0 2.026,0 2.187,1.758 0.161,1.758 1.505,2.867 1.782,4.717 0.276,1.851 1.572,1.11 -0.078,2.035 -1.651,0.926 -0.199,2.221 0.726,3.33 0.925,1.11 2.591,0.37 4.132,0 1.541,-0.369 1.788,1.665 2.528,2.192 0.74,0.527 2.775,0.583 5.057,0 2.282,-0.583 1.974,0.769 3.247,0 1.273,-0.768 1.007,0.677 1.179,1.323 0.173,0.646 -1.08,1.495 0,3.33 1.081,1.834 1.618,-0.556 3.838,-1.11 2.22,-0.554 0,0 1.199,2.035 1.199,2.035 1.021,1.11 1.391,3.7 0.37,2.59 0,0.925 1.34,1.553 1.34,0.628 0.757,0.42 1.526,1.592 0.77,1.172 2.129,0.555 2.979,0.74 0.85,0.185 1.926,1.295 3.547,2.22 1.621,0.925 0.229,1.851 0,2.775 -0.229,0.924 1.523,3.515 3.065,6.29 1.542,2.774 3.165,3.26 4.81,4.414 0.231,0.163 0.412,0.339 0.549,0.527 l 0.357,-0.255 c 0,0 1.19,-0.717 1.684,-1.407 0.493,-0.689 0.787,-2.479 1.565,-2.417 0.778,0.062 2.998,2.535 4.108,1.206 1.109,-1.328 1.974,-3.482 1.542,-3.979 -0.433,-0.495 0.113,-3.455 0.113,-3.455 l 2.661,-1.11 c 0,0 2.097,-1.295 0,-2.59 -2.097,-1.295 -2.097,-2.22 -1.542,-2.774 0.556,-0.556 0.925,-1.11 0.556,-2.405 -0.37,-1.295 0.678,-1.974 0.986,-3.022 0.309,-1.048 2.496,-1.048 4.085,-0.863 1.589,0.186 5.822,-1.553 5.822,-1.553 l 0.812,2.416 0.854,2.575 c 0,0 1.151,1.067 1.265,2.021 0.113,0.954 1.537,0.087 3.306,0.515 1.77,0.427 4.33,0.467 4.33,0.467 l 1.1,-0.15 3.209,1.277 3.15,-0.168 0.962,0.863 1.2,1.974 1.281,0.736 1.555,-1.353 2.097,-1.48 3.577,0.123 0.475,1.698 c 0,0 1.62,-0.835 3.224,1.879 0,0 2.143,0.751 3.691,0.37 1.548,-0.381 1.302,-1.014 2.229,-1.11 0.928,-0.097 0.684,0.341 1.303,0.677 0.62,0.335 1.332,0.596 1.661,0.535 0.33,-0.061 -0.14,-0.47 0.366,-0.842 0.508,-0.372 1.357,0.616 1.357,0.616 0.929,0.175 2.328,-0.884 3.014,-1.073 0.687,-0.191 1.273,-0.013 2.288,-0.142 1.015,-0.13 3.713,-1.259 3.713,-1.259 0,0 0.39,0.23 1.945,0.674 1.555,0.444 2.354,1.227 3.1,1.554 0.745,0.326 0.851,0.387 2.028,-0.3 1.179,-0.688 1.672,-3.646 1.672,-3.646 v -1.48 c 0,0 2.713,0.616 2.96,-0.246 0.247,-0.863 2.097,-3.084 3.33,-3.084 1.233,0 4.316,0.617 5.181,0.493 0.863,-0.123 2.588,-0.369 3.822,0.494 1.234,0.862 2.837,0.37 2.775,1.85 -0.062,1.48 1.664,1.604 0,3.083 -1.665,1.48 -2.406,1.233 -2.775,3.084 -0.369,1.85 0.066,3.826 0.033,4.133 -0.032,0.307 0.831,2.768 0.831,2.768 0,0 -0.621,1.033 -1.174,1.383 -0.554,0.35 -4.747,1.459 -4.747,1.459 l 3.824,4.576 -0.684,2.578 1.606,0.74 c 0,0 1.652,1.727 1.906,2.097 0.254,0.37 0,3.329 0,3.329 l -0.872,4.193 c 0,0 2.824,3.207 2.777,4.563 -0.048,1.356 -0.541,0.464 -1.281,1.28 -0.74,0.816 -1.48,0.323 -1.48,1.68 0,1.357 0.37,2.344 0.37,2.344 0,0 1.496,-0.478 2.221,0 0.724,0.478 2.836,3.224 2.836,3.224 0,0 -0.136,0.834 0.493,1.587 0.63,0.752 2.725,2.193 3.454,2.22 0.729,0.026 1.973,0 1.973,0 l 0.987,3.7 h -3.084 c 0,0 0.123,1.136 0,3.157 -0.123,2.022 -0.493,0.789 0,3.379 0.494,2.59 0,2.344 0,2.344 0,0 -0.74,0.368 -0.863,1.726 -0.123,1.357 2.467,3.823 2.467,5.18 l 0.11,-0.021 c 0.913,-0.118 1.382,1.175 1.86,-0.843 0.496,-2.096 0.496,-1.232 0.496,-2.096 0,-0.864 -0.986,-0.494 0,-0.863 0.986,-0.37 0.765,-0.247 2.232,0 1.467,0.246 1.961,0.492 2.947,0.369 0.986,-0.123 0.905,-1.207 2.364,-0.604 1.459,0.604 1.579,1.344 2.753,1.221 1.173,-0.123 1.789,-1.851 2.529,-2.344 0.74,-0.493 0.547,-0.37 2.863,-0.493 2.316,-0.123 5.4,-0.863 5.4,-0.863 0,0 0.938,0 1.482,0 h -0.105 c 0.39,0 -6.777,-3.453 -6.777,-3.453 v -1.202 l 4.167,-7.555 2.188,0.877 c 0,0 -0.212,0.495 -0.337,0.851 -0.126,0.354 1.233,-0.247 1.245,-0.248 0.013,-10e-4 0.625,0.474 0.749,0.565 0.123,0.092 0.549,0.083 1.597,0.137 1.048,0.055 0.622,-0.236 0.888,-0.428 0.266,-0.192 0.331,0.158 0.7,0.363 0.369,0.204 0.657,-0.126 1.561,-0.244 0.903,-0.117 0.784,-0.146 1.281,0.012 0.498,0.157 1.106,-0.157 1.16,-0.918 0.054,-0.762 -0.054,-0.72 0.317,-0.951 0.372,-0.23 0.915,0.364 1.354,0.796 0.439,0.433 -0.184,-0.194 1.042,-0.04 1.226,0.155 0.315,-0.154 0.711,-0.744 0.396,-0.591 0,0 -0.396,-1.137 -0.395,-1.137 0.246,-0.494 0.343,-0.557 0.097,-0.063 2.987,-0.184 2.987,-0.184 0,0 2.344,-1.109 2.735,-1.214 0.392,-0.104 1.458,0.104 1.458,0.104 v -1.781 c 0,0 -0.742,-0.971 -1.172,-1.057 -0.43,-0.086 -1.568,-0.021 -3.021,-0.115 -1.454,-0.093 -1.873,0.125 -2.848,-0.589 -0.976,-0.714 -1.104,-0.251 -1.04,-1.5 0.064,-1.249 0.043,-1.229 -0.983,-1.804 0,0 0.555,-0.926 1.541,-0.926 0.987,0 2.221,-1.479 2.714,-1.604 0.493,-0.123 1.11,-0.246 1.356,-1.356 0.246,-1.11 -0.493,-1.233 -0.616,-2.59 -0.124,-1.356 0.123,-2.22 0.123,-2.713 0,-0.494 0.347,-1.974 0.543,-3.207 0.196,-1.233 0.69,-1.479 0.936,-2.22 0.247,-0.74 -0.616,-1.357 -1.232,-1.727 -0.617,-0.371 -0.987,-0.247 -1.11,-1.11 -0.123,-0.863 -0.389,-1.479 -0.935,-2.837 -0.545,-1.356 -0.194,-1.85 0,-2.344 0.194,-0.492 -0.071,-1.109 0,-1.726 0.071,-0.617 -0.565,-0.987 0,-1.851 0.564,-0.863 -0.053,-0.74 0.564,-1.974 0.617,-1.234 0.863,-2.097 0.617,-2.836 -0.247,-0.74 -1.129,-0.247 -1.182,-1.48 -0.053,-1.233 0.194,-0.74 0.688,-1.974 0.494,-1.232 0.987,-2.713 0.987,-2.713 0,0 -0,-1.85 0.493,-1.973 0.493,-0.124 1.689,-0.74 1.153,-1.48 -0.537,-0.74 -0.537,-1.728 -0.537,-2.344 0,-0.616 -0.37,-1.48 -0.247,-2.22 0.124,-0.74 1.222,-0.986 0.92,-2.097 -0.303,-1.109 -1.166,-2.137 -1.412,-2.795 -0.247,-0.658 0.123,-1.275 0.369,-2.385 0.247,-1.11 -0.154,-2.221 1.095,-2.96 1.249,-0.74 2.628,-1.728 3.172,-2.467 0.544,-0.74 0.79,-1.728 1.161,-1.728 0.369,0 1.356,0.124 1.109,-0.863 0,-0.012 -0.01,-0.023 -0.01,-0.034 l 0.01,0.034 c 0,0 -0.387,-0.615 2.027,-0.738 2.413,-0.123 6.482,-0.987 7.1,-0.987 0.618,0 1.851,0 2.714,0 0.862,0 4.069,-0.246 4.687,-0.616 0.616,-0.37 2.619,-1.605 3.221,-1.111 0.603,0.494 0.479,2.098 0.973,2.838 0.494,0.74 1.602,0.986 2.466,1.356 0.864,0.37 1.479,0.987 1.479,0.987 l 2.666,-0.494 c 0,0 0.938,-1.604 0,-2.96 -0.938,-1.356 -1.652,-2.93 0,-3.5 1.651,-0.569 2.515,-0.817 3.008,-1.741 0.494,-0.925 1.48,-0.926 1.357,-2.529 -0.123,-1.603 -0.72,-1.726 0.01,-2.343 0.73,-0.616 2.334,-1.727 3.566,-1.603 1.233,0.123 2.713,-1.48 3.33,-2.467 0.617,-0.987 2.151,-0.96 4.159,-1.221 2.008,-0.26 4.077,0.604 5.077,0.48 1.001,-0.123 1,-0.124 3.59,-2.098 2.59,-1.973 4.934,-3.576 5.304,-3.945 0.37,-0.371 0.493,-2.344 0.863,-2.961 0.37,-0.616 1.481,-1.355 2.467,-1.85 0.986,-0.494 0.986,-1.48 0.863,-2.714 -0.123,-1.234 -0.998,-3.7 0.056,-4.81 1.055,-1.11 2.411,-2.714 3.83,-2.221 1.418,0.494 2.404,-0.162 3.145,1.523 0.74,1.684 0,3.287 1.233,3.781 1.233,0.492 3.7,0.369 4.934,0.739 1.234,0.37 2.713,1.931 3.453,2.322 0.739,0.392 2.097,-0.145 4.316,0 2.219,0.145 6.044,1.131 6.044,1.131 0,0 1.604,-0.616 1.727,-1.727 0.123,-1.111 0,-3.607 0,-3.607 l -0.021,-0.01 c -1.191,-0.438 -2.279,-0.815 -3.125,-1.134 -1.48,-0.555 -1.295,-1.664 -3.17,-2.59 -1.875,-0.925 -1.455,-2.774 -2.195,-4.994 -0.74,-2.221 -1.094,-4.493 -0.37,-4.811 0.813,-0.357 1.665,0.186 2.405,0 0.739,-0.186 -1.295,-1.109 -1.85,-0.925 -0.555,0.185 -1.85,-0.74 -2.959,-1.295 -1.11,-0.556 -1.48,-0.74 -2.775,-1.48 -1.295,-0.739 -2.035,-1.479 -2.775,-2.034 -0.74,-0.556 -4.208,-0.072 -3.699,-1.851 0.369,-1.295 -0.74,-1.479 -0.74,-1.479 0,0 -0.556,-1.851 -1.554,-2.405 -0.999,-0.556 -1.036,-1.48 -1.592,-2.591 -0.555,-1.109 0.925,-0.924 1.48,-1.85 0.555,-0.925 -1.11,-1.295 -1.851,-1.295 -0.741,0 -1.295,-0.925 -1.479,-1.85 -0.186,-0.926 -0.74,-1.48 -1.295,-2.221 -0.556,-0.739 0.37,-2.774 0,-3.885 -0.37,-1.109 0.185,-2.96 -0.925,-3.699 -1.11,-0.74 -0.74,-1.666 -0.926,-2.405 -0.185,-0.74 -0.925,-1.665 -2.035,-2.405 -1.109,-0.74 0,-2.96 0,-2.96 0,0 -3.145,-4.44 -4.81,-6.104 -1.665,-1.666 -1.851,-1.11 -2.774,-1.851 -0.926,-0.74 -3.146,-2.035 -3.701,-3.7 -0.555,-1.665 0.556,-2.22 0.926,-2.96 0.37,-0.739 0,-1.295 0,-2.035 0,-0.739 -1.48,-1.295 -2.221,-2.22 -0.739,-0.925 -1.479,-1.109 -1.85,-2.405 -0.37,-1.295 -1.48,-2.774 -1.48,-2.774 0,0 -2.404,-1.48 -3.145,-2.405 -0.741,-0.925 -2.035,0.185 -2.775,0 -0.739,-0.185 -2.59,-0.925 -3.699,-1.295 -1.11,-0.37 -2.221,-0.74 -3.516,-1.851 -1.295,-1.109 -1.295,-1.479 -1.48,-2.774 -0.184,-1.295 -1.11,-1.295 -2.96,-2.22 -1.85,-0.926 -0.186,-1.11 -1.295,-1.13 -1.11,-0.02 -1.48,-0.721 -1.851,-0.351 -0.371,0.37 -2.405,0.555 -4.255,0 -1.85,-0.555 0.37,-1.85 0,-2.404 -0.37,-0.556 -1.109,-0.556 -1.665,-0.926 -0.555,-0.37 -1.11,-2.035 -2.405,-3.33 -1.295,-1.295 -2.59,0.37 -3.885,0 -1.295,-0.369 -2.404,-1.109 -3.33,-2.404 -0.925,-1.295 -1.295,0.739 -4.81,0 -3.515,-0.74 -3.7,-1.48 -5.735,-2.961 -2.035,-1.479 -3.33,-0.555 -4.994,-0.369 -1.666,0.185 -4.625,-1.665 -6.846,-2.775 -2.22,-1.109 -3.515,-2.22 -4.625,-3.33 -1.109,-1.109 -2.775,-2.22 -3.7,-2.59 -0.925,-0.37 -3.515,-0.186 -4.995,-0.74 -1.479,-0.555 -2.22,-1.295 -3.145,-2.035 -0.925,-0.74 -0.887,-2.96 -0.887,-2.96 -0.49,0.475 -0.969,1.136 -0.965,1.843 0,0.3 0.901,2.478 0.723,2.455 -0.906,-0.113 -1.327,-0.485 -1.804,0.319 -0.9,1.519 0.876,3.124 -0.485,4.681 -0.661,0.757 -1.729,1.197 -2.442,1.943 -0.752,0.787 -1.429,1.697 -2.107,2.548 -2.034,2.554 -5.464,1.141 -7.364,-0.724"
   style="fill:#677821" /><rect
   style="fill:none;stroke:#000000;stroke-width:0.29998;stroke-linejoin:bevel;stroke-dasharray:none;paint-order:stroke fill markers"
   id="rect2"
   height="4390.293"
   x="0.19998971"
   y="0.19998971"
   ry="0.69917101"
   width="4353.8188" /></svg>
