<?xml version="1.0" encoding="UTF-8" standalone="no"?>
<!-- Generator: Adobe Illustrator 22.1.0, SVG Export Plug-In . SVG Version: 6.00 Build 0)  -->

<svg
   version="1.1"
   x="0px"
   y="0px"
   viewBox="0 0 4354.1187 4390.5933"
   enable-background="new 0 0 1995.865 2834.646"
   xml:space="preserve"
   id="svg1596"
   width="4354.1187"
   height="4390.5933"
   xmlns="http://www.w3.org/2000/svg"
   xmlns:svg="http://www.w3.org/2000/svg"><defs
   id="defs1596" />


<path
   id="Northamptonshire_1_"
   fill="#606F38"
   d="m 2598.4345,2804.7371 c -0.725,0.078 -1.531,0.381 -2.571,0.45 -1.851,0.123 -2.837,1.233 -3.683,2.097 -0.847,0.863 -2.237,1.85 -3.606,3.206 -1.369,1.356 -1.838,0.864 -3.317,0.779 -1.48,-0.085 -1.604,0.208 -2.025,0.948 -0.422,0.739 -1.182,1.727 -2.045,1.479 -0.863,-0.247 -1.48,1.11 -1.99,1.48 -0.51,0.37 -1.093,1.233 -1.093,1.233 v 2.53 h -3.868 l -4.551,0.944 -0.667,2.076 1.452,2.9 c 0,0 0.76,1.963 1.344,2.658 0.584,0.694 2.422,1.342 2.422,1.342 -0.169,0.858 1.031,1.979 1.031,1.979 v 1.727 c 0,0 -0.15,0.897 -1.233,1.974 -1.083,1.076 -1.692,0.281 -2.382,0.515 -0.689,0.232 0.716,1.919 1.025,2.815 0.31,0.896 -1.227,0 -2.097,-0.353 -0.87,-0.352 0,2.326 0,2.326 0,0 -0.121,1.232 -0.986,2.343 -0.866,1.11 -1.851,-0.292 -1.851,-0.292 l -1.054,1.177 c 0,0 -2.77,-2.858 -3.386,-3.482 -0.617,-0.624 -0.617,-2.706 -1.315,-4.679 -0.698,-1.974 -0.165,-2.344 -1.645,-3.7 -1.48,-1.356 0,0 -1.604,-0.214 -1.604,-0.214 -2.097,1.57 -3.459,1.57 -1.362,0 -2.708,-0.37 -4.312,-0.74 -1.603,-0.37 -1.109,0.987 -2.267,1.604 -1.157,0.617 -1.063,0.493 -2.296,0.74 -1.234,0.247 -3.084,1.604 -4.811,2.691 -1.727,1.089 -3.586,2.242 -3.586,2.242 l -3.074,1.973 0.904,3.302 c 0,0 1.426,0.235 2.016,0.334 l 0.252,0.041 c 0,0 -1.198,2.12 -1.445,2.614 -0.247,0.492 -1.479,2.836 -2.836,3.083 -1.357,0.247 -2.098,-0.124 -2.098,-0.124 l -2.812,2.555 h -1.011 c 0,0 -3.33,-0.334 -4.688,-0.174 -1.356,0.159 -2.343,-0.653 -3.084,0 -0.74,0.652 -3.879,-0.726 -4.016,-0.913 -0.137,-0.188 -1.525,-1.097 -1.525,-1.097 l 0.767,-2.471 0.07,-3.391 -2.493,-5.142 0.621,-3.674 1.035,-6.249 -4.078,-0.396 v -1.371 l 2.22,-0.348 c 0,0 2.714,0.225 3.384,-0.039 0.67,-0.263 3.276,-0.354 3.152,0 -0.123,0.354 0.863,-1.834 0.863,-1.834 0,0 -1.85,-1.85 -1.857,-2.44 -0.01,-0.591 -3.684,-4.402 -3.684,-4.402 0,0 -2.352,-2.776 -2.885,-3.901 -0.532,-1.125 -2.893,-3.438 -2.893,-3.438 0,0 0.466,-0.494 1.15,-1.882 0.686,-1.389 1.905,-3.052 2.769,-2.93 0.863,0.123 3.207,-1.355 4.421,-2.07 1.215,-0.714 2.115,-0.766 2.115,-0.766 v -2.097 l -2.115,-2.22 -1.037,-2.713 c 0,0 0.07,-0.74 1.037,-0.74 0.969,0 1.006,-1.233 1.615,-1.604 0.608,-0.369 2.104,-1.109 2.104,-1.109 0,0 0.616,-0.864 1.927,-1.419 1.311,-0.555 1.526,-2.281 1.773,-3.989 0.246,-1.707 -0.946,-2.746 -1.773,-4.104 -0.827,-1.358 0.91,-2.327 0.909,-2.41 -0,-0.083 1.603,-2.384 1.728,-3.001 0.123,-0.617 -0.987,0 -2.857,-0.825 -1.87,-0.825 -2.693,-1.519 -3.584,-2.552 -0.892,-1.033 1.137,-1.803 1.137,-1.803 l 3.577,-1.604 3.417,-0.74 c 0,0 4.23,-1.727 4.601,-2.165 0.371,-0.438 -4.611,-7.427 -4.611,-7.427 l 2.493,0.352 2.611,-1.49 1.726,-0.056 c 0,0 1.399,-2.196 1.819,-2.854 0.42,-0.658 2.242,-1.777 2.242,-1.777 0,0 0.749,-0.37 1.366,-0.876 0.616,-0.507 1.973,-1.221 3.028,-1.881 1.057,-0.66 1.411,0.537 2.274,1.4 0.863,0.864 1.48,0.37 2.714,0 1.233,-0.369 1.109,-0.616 1.262,-1.4 0.15,-0.783 0.588,-1.312 0,-2.053 -0.589,-0.74 0.588,-1.356 1.944,-2.807 1.356,-1.449 1.974,-1.264 3.454,-2.26 1.479,-0.998 2.343,-0.854 2.898,-0.809 0.555,0.045 1.418,-1.155 2.774,-1.155 1.356,0 1.356,0 1.727,0.617 0.37,0.616 0.987,1.233 1.657,1.85 0.671,0.617 3.276,0.37 4.031,0.617 0.754,0.247 1.465,-0.494 2.698,-1.193 1.233,-0.699 -0.493,-1.397 0,-2.261 0.493,-0.864 -2.22,-1.232 -2.698,-2.096 -0.479,-0.863 1.712,-1.11 2.082,-1.357 0.37,-0.246 0.616,-0.863 0.616,-0.863 0,0 -0.123,-1.479 0,-2.437 0.123,-0.958 0,-1.634 0,-2.435 0,-0.803 1.233,-1.134 1.233,-1.134 1.604,0.331 2.59,0.946 4.193,1.502 1.604,0.556 3.206,0.194 5.92,0.745 2.713,0.551 3.576,2.247 5.55,0.659 1.974,-1.588 3.33,-2.003 4.563,-3.029 1.233,-1.025 1.727,-1.89 3.083,-3.616 1.356,-1.726 0.37,-1.973 2.097,-2.959 1.727,-0.987 2.837,-1.974 4.07,-2.837 1.233,-0.863 2.837,-1.604 4.811,-2.837 1.973,-1.233 2.466,0 3.576,-1.727 1.109,-1.727 1.11,-2.22 1.233,-0.986 0.123,1.232 -0,2.909 0.986,1.887 0.987,-1.023 0.37,-1.394 1.233,-1.764 0.863,-0.37 0.74,0.74 1.604,-0.123 0.864,-0.863 0.246,-0.494 0,-1.357 -0.247,-0.863 -0.221,-1.109 0.444,-2.343 0.665,-1.233 0.915,-1.604 1.222,-2.097 0.307,-0.493 -0.927,-1.726 -0.433,-1.973 0.493,-0.248 1.726,-1.82 2.22,-2.082 0.494,-0.262 1.48,-1.372 1.849,-1.125 0.37,0.246 1.826,0.246 2.578,-0.617 0.032,-0.037 0.065,-0.074 0.101,-0.113 l -0.067,0.191 c 0.161,0.391 0.873,2.111 0.873,2.111 l 1.665,2.312 -0.647,2.867 -1.924,4.724 0.444,2.029 c 0,0 1.388,0.729 1.942,0.642 0.555,-0.087 3.311,0.01 3.311,0.01 l 2.424,-0.01 2.1,-1.1 -0.458,1.667 c 0,0 0.222,1.982 0.247,2.237 0.025,0.256 -0.258,0.842 -0.477,1.742 -0.219,0.9 -0.552,1.162 0.203,1.286 0.755,0.123 0.958,-0.347 1.376,0.616 0.417,0.963 1.078,2.22 1.078,2.22 0,0 -0.215,0.894 -0.709,1.11 -0.493,0.217 -0.853,0.166 -0.98,0.946 -0.129,0.78 1.689,2.785 3.447,3.247 1.758,0.463 4.348,1.511 4.348,1.511 l -0.093,2.375 0.185,1.788 1.723,3.904 v 1.02 l -2.092,2.723 -0.926,3.237 -0.184,1.927 c 0,0 -0.094,0.756 -0.371,0.571 -0.277,-0.186 -2.59,1.886 -2.96,2.053 -0.37,0.167 -2.958,1.832 -2.958,1.832 l -1.02,1.665 c 0,0 -0.647,1.963 -0.925,2.045 -0.278,0.082 -0.925,1.008 -1.295,1.47 -0.37,0.463 -2.868,1.11 -3.146,1.11 -0.278,0 -4.236,1.85 -4.236,1.85 0,0 0.01,1.841 0,2.539 -0.014,0.699 1.004,1.994 1.744,3.012 0.739,1.018 1.665,2.034 1.85,2.774 0.185,0.74 0.185,3.184 0.185,3.184 0,0 0.021,0.013 0.058,0.032 l -0.058,-0.032 c 0,0 -3.638,0.455 -5.611,0.208 -1.973,-0.246 -1.109,1.604 -2.104,2.344 -0.993,0.74 -0.855,2.096 -2.336,4.069 -1.481,1.973 1.111,2.491 1.109,3.711 -10e-4,1.22 -0.246,2.826 -1.109,3.083 -0.863,0.257 -2.713,0.915 -2.713,0.915 l -2.961,-3.989 c 0,0 -1.232,-0.02 -2.334,0 -1.102,0.021 -5.065,-0.02 -6.545,0.967 -1.48,0.987 -0.124,2.714 0.123,4.317 0.246,1.604 0.986,4.563 0.986,5.673 0,1.11 -1.85,2.837 -2.756,3.947 -0.906,1.109 -0.574,1.752 -0.574,1.752"
   style="fill:#677821" /><rect
   style="fill:none;stroke:#000000;stroke-width:0.29998;stroke-linejoin:bevel;stroke-dasharray:none;paint-order:stroke fill markers"
   id="rect2"
   height="4390.293"
   x="0.19998971"
   y="0.19998971"
   ry="0.69917101"
   width="4353.8188" /></svg>
