<?xml version="1.0" encoding="UTF-8" standalone="no"?>
<!-- Generator: Adobe Illustrator 22.1.0, SVG Export Plug-In . SVG Version: 6.00 Build 0)  -->

<svg
   version="1.1"
   x="0px"
   y="0px"
   viewBox="0 0 4354.1187 4390.5933"
   enable-background="new 0 0 1995.865 2834.646"
   xml:space="preserve"
   id="svg1596"
   width="4354.1187"
   height="4390.5933"
   xmlns="http://www.w3.org/2000/svg"
   xmlns:svg="http://www.w3.org/2000/svg"><defs
   id="defs1596" />


<g
   id="Northumberland__x3C_Group_x3E__1_"
   style="fill:#677821"
   transform="translate(1093.6405,660.66109)">
					<path
   fill="#6C833C"
   d="m 1372.554,1363.863 c 0,0 0.235,-0.394 0,-0.629 -0.236,-0.236 -0.943,0 -0.943,0 v 0.629 c 0,0.629 0.943,0 0.943,0 z"
   id="path1255"
   style="fill:#677821" />
					<path
   fill="#6C833C"
   d="m 1373.576,1363.636 c 0.236,0.306 0.786,0.472 1.021,0.507 0.236,0.035 0.865,-0.507 0.865,-0.507 l -0.943,-0.507 z"
   id="path1256"
   style="fill:#677821" />
					<path
   fill="#6C833C"
   d="m 1371.611,1362.369 c 0,0 0.864,0.236 1.048,0 0.184,-0.236 1.074,-0.236 1.309,-0.384 0.236,-0.148 0.708,-0.088 0.943,-0.01 0.236,0.078 -0.707,-0.394 -1.021,-0.472 -0.314,-0.079 -0.707,0 -0.707,0 0,0 -0.787,0.472 -1.049,0.472 z"
   id="path1257"
   style="fill:#677821" />
					<path
   fill="#6C833C"
   d="m 1376.826,1358.812 c 0.214,0.198 0.16,0.726 0.374,0.857 0.214,0.131 0.748,0 0.748,0 0,0 -0.054,0.059 0,-0.399 0.054,-0.458 0,-0.655 -0.32,-0.787 -0.322,-0.132 -0.802,0.329 -0.802,0.329 z"
   id="path1258"
   style="fill:#677821" />
					<path
   fill="#6C833C"
   d="m 1377.627,1357.56 0.588,-0.396 h 0.588 l -0.374,-0.461 c 0,0 -0.588,0.264 -0.802,0.461 z"
   id="path1259"
   style="fill:#677821" />
					<path
   fill="#6C833C"
   d="m 1378.803,1355.581 c 0.093,0.31 0.428,0.791 0.534,1.121 0.107,0.329 0.535,0 0.535,0 l -0.321,-0.487 c 0,0 -0.214,-0.37 -0.214,-0.634 0,-0.264 -0.633,-0.334 -0.534,0 z"
   id="path1260"
   style="fill:#677821" />
					<path
   id="rect1260"
   d="m 1376.053,1356.849 h 0.772 v 0.711 h -0.772 z" />
					<path
   id="Holy_Island__x2F__Lindisfarne_3_"
   fill="#6C833C"
   d="m 1346.207,1347.177 c 0,0 1.233,0.493 1.604,0 0.369,-0.493 1.11,-0.493 1.973,-0.493 0.863,0 1.728,-0.521 1.851,0.355 0.123,0.876 0.246,2.11 0.863,2.11 0.616,0 1.727,0 1.727,0 0,0 0.987,0.494 1.11,0 0.123,-0.493 -0.246,-1.479 0,-1.973 0.246,-0.494 0.052,-1.11 0.025,-1.604 -0.025,-0.493 -0.643,0.74 -1.136,0 -0.493,-0.74 -1.233,-1.233 -2.097,-0.986 -0.863,0.246 -1.233,0.74 -2.097,0.74 -0.863,0 -2.713,0 -3.206,-0.124 -0.494,-0.123 -1.975,0.124 -1.728,0.493 0.247,0.371 0.363,1.284 1.111,1.482 z"
   style="fill:#677821" />
					<path
   id="Northumberland_1_"
   fill="#6C833C"
   d="m 1320.273,1315.026 c 0.227,0.22 0.451,0.464 0.65,0.762 0.739,1.109 1.109,1.48 2.035,2.775 0.924,1.295 1.85,2.775 2.404,3.515 0.625,0.833 0.901,2.121 0.845,3.126 -1.062,0.071 -1.876,-0.886 -2.954,-1.021 -1.098,-0.137 -2.265,-0.046 -3.007,0.862 -0.665,0.813 -0.394,2.314 -1.463,2.756 -0.917,0.379 -2.081,-0.49 -3.012,-0.603 -0.805,-0.096 -1.876,-0.074 -2.637,0.245 0.648,0.379 1.526,0.11 2.22,0.225 0.646,0.106 1.161,0.445 1.786,0.595 1.366,0.327 2.731,-0.023 3.41,-1.337 1.093,-2.113 2.798,-1.852 4.843,-0.751 3.535,1.904 3.34,7.03 6.629,9.223 1.665,1.11 1.85,1.666 4.255,3.886 2.405,2.22 3.33,2.96 3.885,3.33 0.556,0.37 1.48,1.479 1.851,2.405 0.369,0.925 1.479,4.069 2.035,4.994 0.555,0.926 0.555,2.22 1.664,2.96 1.11,0.74 1.48,1.48 2.035,2.59 0.556,1.11 1.295,2.035 2.59,1.85 1.295,-0.185 1.295,-0.185 1.295,-0.185 0,0 1.48,-1.295 1.666,-2.221 0.185,-0.925 0,-2.22 0,-2.22 l 1.109,-0.555 c 0,0 0.185,1.48 0.37,2.59 0.185,1.11 0.185,1.295 1.11,2.22 0.925,0.925 1.479,1.665 2.035,2.22 0.555,0.556 0,0.556 -0.556,1.11 -0.555,0.555 -1.295,1.295 -1.85,1.295 -0.556,0 -0.74,0.74 0,1.48 0.739,0.739 1.665,1.295 1.665,1.295 0,0 -0.555,-1.295 0.74,-1.851 1.295,-0.555 0.369,0.37 1.295,-0.555 0.925,-0.925 1.664,-0.925 2.96,-0.555 1.295,0.37 1.109,0.741 2.59,1.48 1.48,0.74 3.885,2.96 3.885,2.96 0,0 1.665,1.48 2.22,2.221 0.556,0.739 1.665,0.555 2.221,1.109 0.555,0.555 1.295,2.405 1.48,3.145 0.185,0.74 1.48,2.96 1.665,3.886 0.186,0.925 -0.37,0.74 -0.74,1.479 -0.369,0.74 -1.48,0.926 -0.925,2.405 0.556,1.48 0.556,1.665 1.295,2.59 0.74,0.926 1.11,0.555 1.85,1.851 0.74,1.295 1.295,-0.925 0.74,1.295 -0.556,2.22 -1.48,3.33 -0.74,4.439 0.74,1.11 1.48,0.186 2.035,1.11 0.555,0.925 0.555,0.925 0.555,0.925 0,0 -0.74,0.925 0,1.851 0.74,0.925 0,3.145 0,3.145 0,0 -0.268,1.295 0.328,2.22 0.597,0.926 0.781,2.775 0.781,2.775 0,0 0,2.405 0,2.96 0,0.555 2.035,0.555 1.666,1.48 -0.371,0.925 0.645,3.33 0.044,4.255 -0.6,0.925 -0.6,0.555 -1.524,1.295 -0.925,0.74 -0.74,2.775 -1.85,3.145 -1.11,0.37 -1.851,0.37 -2.221,1.11 -0.37,0.74 0,0.925 0.555,1.85 0.556,0.925 0.74,2.405 1.295,3.7 0.556,1.295 1.11,2.774 1.48,3.885 0.37,1.111 0,1.48 0.925,2.22 0.925,0.74 2.035,0.186 2.775,1.666 0.74,1.479 1.665,2.034 1.665,3.699 0,1.665 -0.74,2.59 -1.11,3.516 -0.37,0.925 -0.925,2.035 -1.295,3.33 -0.37,1.295 0.556,5.18 1.48,7.584 0.925,2.405 2.22,3.886 3.145,5.181 0.925,1.295 1.11,2.035 1.295,3.33 0.186,1.295 1.295,3.33 1.85,4.069 0.555,0.74 2.035,2.405 1.48,3.146 -0.555,0.74 -1.295,1.295 -1.665,2.59 -0.37,1.295 -0.925,1.851 -1.479,2.22 -0.556,0.37 -2.591,0.37 -2.591,0.37 0,0 0,0.925 0.556,1.11 0.555,0.185 1.48,0 2.035,0.925 0.555,0.925 1.295,2.035 1.479,2.775 0.185,0.739 2.096,2.774 1.787,3.329 -0.307,0.556 -0.55,1.851 0.034,2.405 0.584,0.556 0.214,2.035 0.954,3.886 0.74,1.85 3.33,4.625 3.885,5.92 l 0.133,0.74 -1.891,0.832 -0.74,0.925 c 0,0 -1.017,2.868 -2.588,3.515 -1.57,0.648 -1.944,-0.185 -2.406,-0.555 -0.463,-0.37 -3.053,-0.37 -3.33,-0.277 -0.277,0.093 -3.423,0.74 -3.423,0.74 l -1.572,-1.018 v -1.665 c 0,0 -1.202,-0.185 -1.758,-0.277 -0.555,-0.093 -2.59,0.093 -3.885,0.185 -1.295,0.093 -2.405,-0.092 -2.405,-0.092 l -0.462,-2.312 h -3.592 c 0,0 -3.253,0.555 -3.92,1.109 -0.666,0.555 -1.646,0.74 -1.831,1.388 -0.185,0.648 -0.37,1.295 -0.186,2.035 0.186,0.739 0.556,0.832 1.11,0.925 0.556,0.092 1.11,0.185 0.833,0.555 -0.277,0.37 0.092,1.11 0,1.48 -0.093,0.369 -1.017,1.109 -1.017,1.109 0,0 -1.851,1.018 -2.96,1.572 -1.11,0.556 -1.573,0.74 -2.683,2.035 -1.11,1.295 -1.018,1.851 -1.076,2.775 -0.058,0.924 0,1.758 0,1.758 h -2.224 v 1.295 c 0,0 -0.4,1.85 -0.123,2.127 0.277,0.277 0,2.098 0,2.098 0,0 -1.278,-0.438 -2.02,-0.446 -0.74,-0.01 -1.641,0.777 -2.235,1.3 -0.595,0.523 -1.477,0.965 -1.477,0.965 0,0 -0.188,1.079 -0.689,1.911 -0.5,0.831 -1.164,1.759 -1.977,3.146 -0.813,1.388 1.09,3.053 1.09,3.053 0,0 0.186,0.647 -0.555,1.788 -0.741,1.141 -0.832,0.617 -1.572,0.987 -0.74,0.369 -1.11,0.739 -0.865,2.309 0.245,1.568 0.495,0.743 1.605,1.299 1.109,0.555 1.387,0.369 2.001,0.555 0.614,0.186 0,1.644 0,1.644 l -0.743,0.109 c -0.086,0.016 -0.162,0.03 -0.225,0.044 -0.631,0.142 -1.31,1.17 -1.966,1.899 -0.655,0.729 -0.918,2.687 -1.47,3.527 -0.553,0.841 -0.743,1.102 -0.83,1.662 -0.086,0.561 -0.707,4.606 -1.109,5.272 -0.402,0.666 -3.706,2.333 -3.706,2.333 0,0 -2.263,0.957 -2.826,0.956 -0.563,-10e-4 -0.394,-1.529 -0.146,-1.917 0.248,-0.388 0.196,-0.366 -0.265,-0.823 -0.461,-0.456 -0.988,-0.756 -2.406,-0.815 -1.419,-0.06 -1.364,-0.37 -2.219,-1.034 -0.855,-0.663 -1.017,-0.832 -1.842,-1.092 -0.825,-0.259 -0.899,-0.336 -2.136,-1.035 -1.237,-0.701 -1.376,-0.792 -2.583,-0.543 -1.207,0.248 -1.713,1.425 -2.75,2.629 -1.036,1.204 -1.766,1.336 -3.447,2.012 -1.682,0.675 -2.505,0.989 -4.129,2.225 -1.624,1.234 -1.891,0.469 -2.189,0.353 -0.298,-0.117 -1.645,-0.854 -1.916,-0.847 -0.272,0.01 -3.689,0.561 -3.689,0.561 0,0 0.076,0.549 -0.756,2.098 -0.833,1.55 -1.203,1.041 -2.568,2.15 -1.365,1.11 -0.762,2.128 -1.73,2.867 -0.969,0.74 -1.437,-0.369 -2.454,0 -1.018,0.371 -1.018,1.203 -1.295,1.969 -0.277,0.767 -1.479,3.027 -1.942,3.396 -0.463,0.37 -1.259,-0.369 -1.259,-0.369 0,0 -1.979,-0.74 -2.903,-1.11 -0.926,-0.37 -2.035,-1.295 -2.775,-1.758 -0.74,-0.462 -2.498,0.185 -3.33,0.647 -0.832,0.462 -1.911,0.522 -1.911,0.522 0,0 -0.043,0.082 -0.081,0.241 l 0.081,-0.241 c 0,0 0.63,0 -0.518,-0.738 -1.148,-0.739 -0.532,-0.863 -1.888,-1.479 -1.357,-0.617 -1.974,-1.11 -2.59,-1.48 -0.617,-0.369 -0.864,-2.22 -2.221,-3.33 -1.356,-1.109 -1.85,-0.74 -3.083,-2.22 -1.233,-1.48 -1.275,-2.097 -1.687,-3.453 -0.41,-1.356 -0.78,-3.823 -1.891,-2.22 -1.109,1.604 -0.862,2.22 -2.466,3.083 -1.604,0.863 -1.62,1.521 -2.96,1.727 -1.341,0.206 -1.48,0.016 -2.714,1.796 -1.233,1.781 -1.604,4.124 -4.441,4.248 -2.836,0.123 -3.576,1.355 -5.426,-0.617 -1.851,-1.974 -3.084,-3.823 -3.577,-4.81 -0.493,-0.987 -0.863,-4.417 -0.863,-4.613 0,-0.197 0.987,-1.135 0,-2.27 -0.986,-1.134 -2.22,-2.524 -2.714,-4.234 -0.492,-1.71 0.947,-1.064 1.584,-2.065 0.637,-1.001 1.87,-3.212 1.87,-3.212 0,0 0.493,-3.162 0.986,-3.497 0.493,-0.336 2.152,-0.828 2.062,-2.309 -0.089,-1.48 -0.742,-1.11 -1.402,-1.727 -0.66,-0.617 -1.03,-1.457 -1.153,-3.072 -0.123,-1.615 0.616,-2.849 -0.617,-3.095 -1.232,-0.247 -2.344,-0.311 -2.59,-1.08 -0.246,-0.771 0.084,-1.88 0.844,-2.866 0.76,-0.987 1.377,-1.04 1.746,-2.74 0.37,-1.7 -0.586,-0.775 -0.586,-0.775 0,0 0.184,-0.774 0.099,-1.163 -0.085,-0.39 -0.268,-0.705 -0.26,-1.181 0.01,-0.477 0.066,-1.363 0.491,-2.138 0.426,-0.774 0.191,-0.948 1.125,-1.171 0.935,-0.223 2.353,-0.804 3.388,-1.684 1.036,-0.88 1.382,-1.312 2.182,-1.477 0.8,-0.165 1.494,0.141 1.831,-0.398 0.338,-0.539 0.268,-1.049 0.775,-1.1 0.508,-0.05 1.315,0.2 1.686,0.291 0.37,0.092 0.699,0.227 0.617,-0.34 -0.083,-0.568 -0.505,-1.248 -0.617,-1.541 -0.112,-0.294 -0.206,-1.034 -0.392,-1.197 -0.187,-0.164 -0.325,0.294 -0.491,-0.334 -0.166,-0.629 -0.27,-2.657 -0.27,-2.657 0,0 0.322,-0.688 0.34,-0.934 0.018,-0.245 -0.285,-1.331 0.054,-1.83 0.339,-0.499 0.7,-0.777 1.042,-1.04 0.342,-0.264 0.441,-0.365 0.175,-0.845 -0.266,-0.48 -0.63,-1.466 -1.135,-1.649 -0.505,-0.183 -0.887,-0.396 -2.455,0.279 -1.568,0.677 -1.806,0.892 -2.404,0.955 -0.6,0.062 -0.732,-0.037 -1.038,0.124 -0.307,0.161 -0.463,0.821 -1.02,0.725 -0.558,-0.097 -0.945,-0.142 -1.054,-0.921 -0.109,-0.778 0.049,-0.983 -0.341,-1.345 -0.391,-0.361 -0.2,-0.932 -0.2,-0.932 0,0 -0.309,-0.857 -0.616,-0.98 -0.309,-0.123 -0.432,-0.308 -1.049,-0.555 -0.617,-0.247 -0.185,-0.013 -0.986,-0.592 -0.802,-0.58 -1.11,-0.396 -1.295,-1.505 -0.185,-1.11 -0.925,-0.617 -0.679,-2.097 0.247,-1.479 1.401,-2.035 -0.348,-2.22 -1.749,-0.186 -5.821,-1.308 -7.238,-2.412 -1.417,-1.104 -1.911,-2.83 -2.527,-3.939 -0.616,-1.11 -1.356,-2.714 -0.986,-3.701 0.37,-0.986 -0.099,-2.836 -0.099,-2.836 l -0.945,-1.751 -0.307,0.72 c 0.275,-0.629 0.796,-1.869 1.227,-3.162 0.617,-1.85 1.11,-3.453 1.851,-4.934 0.741,-1.481 0.74,0 2.22,0 1.48,0 1.357,-0.246 1.974,-1.233 0.617,-0.987 0.37,-1.479 0.124,-2.713 -0.247,-1.233 0.492,-1.728 1.603,-1.851 1.111,-0.123 0.74,-0.74 0.617,-1.233 -0.124,-0.493 -1.851,-0.616 -2.714,-1.233 -0.863,-0.616 0.617,-1.479 1.603,-2.713 0.986,-1.233 0.37,-1.109 1.357,-2.59 0.987,-1.48 0.987,-0.986 2.097,-2.344 1.11,-1.356 1.604,-0.986 2.96,-2.59 1.356,-1.604 1.233,-0.74 2.22,-2.344 0.986,-1.603 0.74,-1.232 2.221,-2.097 1.479,-0.863 2.097,-1.109 3.453,-2.22 1.356,-1.109 1.48,-1.85 2.221,-2.96 0.739,-1.11 1.479,-2.343 2.343,-2.713 0.863,-0.37 2.343,-1.11 3.207,-1.11 0.863,0 2.097,-0.247 3.453,-0.617 1.356,-0.369 2.59,-0.246 3.7,0.494 1.109,0.74 1.109,1.85 2.22,1.85 1.111,0 1.233,-0.123 2.097,-0.74 0.863,-0.616 1.356,-0.986 2.344,-1.85 0.986,-0.863 1.727,-0.74 2.22,-1.48 0.493,-0.739 0.718,-1.479 0.718,-1.479 v -1.727 c 0,0 0.762,-1.604 0.234,-3.083 -0.527,-1.48 0,-1.357 0,-1.357 0,0 0.034,-0.74 10e-4,-1.233 -0.034,-0.494 0.896,-1.234 2.5,-1.234 1.603,0 1.356,-0.246 1.85,-0.863 0.493,-0.616 1.233,-1.479 1.728,-1.973 0.492,-0.494 1.727,-1.234 2.343,-1.604 0.616,-0.37 0.986,-0.863 1.974,-0.842 0.986,0.021 1.727,-0.515 2.96,-0.145 1.233,0.37 1.603,0 2.713,-0.74 1.11,-0.74 1.233,-1.233 1.974,-1.727 0.74,-0.494 0.863,-1.48 1.233,-2.467 0.37,-0.987 0.37,-1.727 0.827,-2.344 0.458,-0.616 1.022,-0.493 1.393,-0.739 0.37,-0.247 0.37,-0.987 0.246,-1.357 -0.123,-0.37 -0.492,-0.616 -0.863,-1.11 -0.369,-0.494 -1.973,-0.247 -2.59,-1.356 -0.616,-1.11 -0.739,-3.331 -1.109,-4.07 -0.37,-0.74 -1.357,-1.48 -2.097,-2.714 -0.74,-1.233 -0.124,-3.206 -0.493,-4.316 -0.37,-1.11 -0.74,-2.96 -0.617,-4.07 0.123,-1.11 -1.48,-2.713 -1.973,-3.33 -0.494,-0.617 -2.961,-2.837 -4.44,-3.824 -1.479,-0.986 -1.479,-1.973 -1.604,-2.96 -0.123,-0.986 0.247,-3.946 -0.247,-5.303 -0.492,-1.356 -2.096,-1.233 -2.343,-2.22 -0.246,-0.986 0.123,-2.097 -0.247,-2.713 -0.369,-0.616 -2.097,0.246 -2.59,0 -0.493,-0.247 -0.526,-1.897 -0.526,-1.897 0.116,0.065 0.246,0.109 0.403,0.109 0.648,0 0.369,-0.833 0.648,-1.412 0.277,-0.58 -0.093,-0.438 0.462,-0.078 0.555,0.36 1.572,-0.638 2.035,-0.823 0.463,-0.185 0.925,0.093 1.85,0.186 0.926,0.093 2.035,0 2.961,-0.093 0.925,-0.093 2.22,0.37 3.237,0.555 1.018,0.185 1.202,0.278 1.665,0 0.462,-0.277 0,-1.018 -0.555,-1.387 -0.556,-0.37 -0.74,-0.186 -0.648,-0.926 0.093,-0.739 0.463,-0.925 0.926,-1.479 0.462,-0.555 0.646,-0.555 1.202,-1.202 0.555,-0.647 1.11,0.277 1.572,0 0.463,-0.278 0,-2.498 0,-3.238 0,-0.74 0.463,-0.74 0.925,-1.387 0.463,-0.648 0.926,-0.74 1.388,-1.11 0.463,-0.37 0.37,-0.647 0.463,-1.295 0.093,-0.648 0.462,-0.832 0.925,-1.295 0.463,-0.463 0.74,-0.925 1.295,-1.203 0.555,-0.277 1.388,-0.369 1.85,-0.647 0.463,-0.278 -0.092,-1.018 -0.462,-1.48 -0.37,-0.463 -0.647,-1.295 -0.556,-1.758 0.093,-0.462 1.11,-0.555 1.758,-0.647 0.648,-0.092 1.48,-0.277 1.942,-0.739 0.463,-0.463 -0.093,-2.405 0,-3.045 0.093,-0.64 0.925,-0.471 1.573,-0.563 0.646,-0.092 1.572,0.647 2.22,0.555 0.648,-0.093 0.462,-1.203 0.462,-1.665 0,-0.463 0.37,-0.463 0.878,-0.555 0.507,-0.093 0.232,-1.018 0.048,-1.388 -0.185,-0.37 0.185,-1.388 0.832,-1.665 0.647,-0.278 1.647,0 1.647,0 0,0 0.635,-0.37 0.758,-1.974 0.124,-1.603 0,-4.193 0,-4.193 0,0 0.37,-1.356 1.357,-2.22 0.987,-0.863 2.837,-1.974 2.837,-1.974 l 2.306,-1.937 z"
   style="fill:#677821" />
				</g><rect
   style="fill:none;stroke:#000000;stroke-width:0.29998;stroke-linejoin:bevel;stroke-dasharray:none;paint-order:stroke fill markers"
   id="rect2"
   height="4390.293"
   x="0.19998971"
   y="0.19998971"
   ry="0.69917101"
   width="4353.8188" /></svg>
