<?xml version="1.0" encoding="UTF-8" standalone="no"?>
<!-- Generator: Adobe Illustrator 22.1.0, SVG Export Plug-In . SVG Version: 6.00 Build 0)  -->

<svg
   version="1.1"
   x="0px"
   y="0px"
   viewBox="0 0 4354.1187 4390.5933"
   enable-background="new 0 0 1995.865 2834.646"
   xml:space="preserve"
   id="svg1596"
   width="4354.1187"
   height="4390.5933"
   xmlns="http://www.w3.org/2000/svg"
   xmlns:svg="http://www.w3.org/2000/svg"><defs
   id="defs1596" />


<path
   id="Nottinghamshire_1_"
   fill="#606F38"
   d="m 2583.4185,2572.0081 c -0.124,-0.649 -0.281,-1.313 0.036,-1.894 0.542,-0.986 0.322,-0.616 0,-1.604 -0.321,-0.986 0.816,-1.479 0.94,-2.467 0.123,-0.986 -0.371,-1.604 -0.94,-2.59 -0.568,-0.986 0.199,-1.85 0.94,-2.22 0.739,-0.37 0.369,-1.356 0.739,-0.863 0.37,0.493 1.727,0.247 2.22,0 0.494,-0.247 0,-1.974 -0.493,-2.714 -0.493,-0.739 -0.37,-1.603 -0.246,-2.467 0.123,-0.863 -0.124,-1.479 -0.74,-1.726 -0.616,-0.247 -0.74,-0.987 -0.37,-1.974 0.37,-0.987 0.616,-0.986 0.123,-1.727 -0.493,-0.741 -0.493,-1.604 0,-2.097 0.493,-0.493 -0.74,-1.356 -1.109,-1.604 -0.37,-0.246 -0.863,-0.74 -1.974,-0.863 -1.11,-0.124 -1.11,-1.233 -0.863,-2.097 0.246,-0.863 1.356,-1.604 1.11,-2.467 -0.247,-0.863 -0.74,-1.233 -0.124,-1.727 0.617,-0.494 0.987,-0.74 0.788,-1.727 -0.197,-0.986 -1.774,-2.22 -1.898,-2.714 -0.123,-0.493 -0.123,-1.356 -0.492,-1.479 -0.37,-0.124 -1.851,-0.74 -2.59,-1.727 -0.74,-0.986 -0.863,-1.727 -0.74,-3.577 0.123,-1.85 0.863,-1.11 1.973,-2.466 l 0.748,-0.952 -9.506,-2.366 -0.897,1.609 -1.704,-0.406 -1.975,0.141 -1.111,0.137 v -1.48 c 0,0 1.264,-1.264 1.534,-1.354 0.271,-0.09 -3.16,-5.69 -3.16,-5.69 l -0.902,-1.622 c 0,0 0,-0.05 -0.011,-0.131 l 0.011,0.131 -2.759,3.752 -2.591,3.423 -1.356,1.727 -0.962,1.85 -0.765,5.057 -1.793,0.801 -0.797,0.969 c 0,0 -2.344,-0.782 -2.714,-0.659 -0.37,0.123 -1.48,0.454 -2.22,0.659 -0.74,0.204 -2.713,-1.029 -3.083,-0.659 -0.37,0.37 -0.863,0.682 -0.863,0.682 0,0 0,2.419 0,1.732 0,-0.688 -2.067,0.685 -2.067,0.685 l -1.012,1.218 -1.607,1.356 v 0.987 c 0,0 -2.027,-0.37 -2.309,0 -0.282,0.37 -1.295,2.083 -0.715,2.228 0.579,0.146 1.198,1.349 0.939,1.965 -0.26,0.617 -0.387,-0.23 -0.939,1.057 -0.554,1.287 -1.418,0.67 -0.924,1.904 0.494,1.233 1.727,1.604 0.617,2.097 -1.11,0.493 -2.549,-0.74 -2.446,0.739 0.103,1.48 -1.008,0.617 0.719,1.974 1.728,1.356 1.48,2.969 0.617,2.656 -0.863,-0.312 -1.604,0.304 -2.22,1.414 -0.617,1.109 -2.837,1.944 -3.207,2.267 -0.37,0.323 -1.233,2.667 -1.233,2.667 h 1.974 c 0,0 1.85,0.55 1.973,1.015 0.124,0.465 -2.343,2.066 -2.343,2.066 v 1.482 l 1.356,0.616 c 0,0 1.233,1.233 1.11,1.727 -0.124,0.493 -1.11,1.727 -1.11,1.727 v 1.19 l -2.343,0.672 -1.851,2.084 c 0,0 -0.616,2.467 0,2.714 0.617,0.247 0.125,1.336 0.617,1.654 0.493,0.319 0,2.909 0,2.909 0,0 0.863,2.59 0.986,4.069 0.123,1.48 0.435,3.85 0.073,4.044 -0.362,0.194 -1.06,0.551 -1.06,0.551 0,0 -0.355,0.188 -0.891,0.4 -0.535,0.211 -1.337,0.629 -2.316,0.679 -0.98,0.049 -0.863,-0.132 -1.604,0.612 -0.741,0.744 -1.98,1.439 -2.298,2.025 -0.317,0.587 -1.218,0.295 -1.927,0 -0.709,-0.295 -0.408,-1.034 -1.73,-1.22 -1.321,-0.185 -1.445,-1.418 -2.309,0 -0.863,1.419 -1.479,1.7 -1.85,1.56 -0.371,-0.14 -0.74,4.251 -0.74,4.251 0,0 -0.673,2.021 0.033,3.008 0.707,0.987 1.447,3.454 1.447,3.454 l 0.863,2.713 -0.123,0.74 0.246,1.624 c 0,0 0.93,1.146 -0.398,1.55 -1.328,0.402 -2.438,0.402 -3.178,0.649 -0.74,0.247 -1.48,0.987 -1.604,1.974 -0.123,0.986 -0.444,3.404 0,3.972 0.444,0.566 0.74,1.948 0.74,1.948 l 0.443,2.714 c 0,0 -0.19,1.149 0.423,2.636 0.612,1.486 2.583,6.021 2.823,6.947 0.24,0.926 -0.311,3.297 0.014,3.982 0.325,0.685 1.437,0.868 1.791,1.233 0.354,0.366 0.508,0.663 0.281,1.873 -0.227,1.21 -0.581,2.013 -0.033,2.968 0.548,0.956 1.398,2.3 1.129,3.479 -0.269,1.178 -0.252,2.638 0,3.758 0.254,1.12 1.376,0.626 1.376,0.626 l 1.854,1.11 1.862,0.74 0.493,2.467 c 0,0 -1.143,-0.271 -1.126,0.234 0.016,0.506 0.435,0.824 0.78,1.467 0.345,0.643 1.53,-0.221 0.346,0.643 -1.184,0.864 -3.33,1.85 -3.33,1.85 l -0.294,0.079 c 0.174,-0.04 0.294,-0.079 0.294,-0.079 l -0.616,2.59 0.02,4.193 c 0,0 -0.239,4.091 0.959,6.262 1.197,2.172 1.487,2.017 2.721,2.804 1.234,0.787 2.017,0.901 2.205,1.709 0.186,0.808 -0.042,0.6 0.756,1.744 0.797,1.144 2.467,0.082 2.467,0.082 l 2.491,-1.624 c 0,0 0.099,-2.22 1.085,-1.911 0.986,0.309 1.479,0.432 3.207,0 1.727,-0.432 2.96,0.735 3.453,-0.773 0.493,-1.508 0.369,-1.945 1.85,-2.528 1.481,-0.583 1.764,-1.363 3.893,-1.189 2.13,0.173 8.811,1.189 8.811,1.189 h 4.678 c 0,0 1.982,-1.076 1.613,-2.557 -0.371,-1.48 -1.266,-2.837 0.045,-3.207 1.31,-0.369 1.928,-0.493 3.161,-1.973 1.233,-1.48 2.343,-2.467 2.343,-3.454 0,-0.986 -0.493,-0.247 0.494,-1.356 0.986,-1.109 0.863,-1.356 2.713,-2.22 1.849,-0.863 4.687,-2.96 4.687,-2.96 l 0.986,-1.604 0.617,-3.207 2.89,-3.083 c 0,0 1.674,-1.726 1.674,-2.22 0,-0.493 0.494,-2.59 0.617,-2.96 0.123,-0.37 0.911,-0.74 1.441,-1.604 0.531,-0.863 3.121,-3.206 3.121,-3.206 l 1.481,-0.494 c 0,0 0,0.039 -0.011,0.109 l 0.011,-0.109 c 0.082,-0.539 -0.279,-1.351 -0.731,-1.893 -0.451,-0.542 -1.084,-1.084 -1.625,-1.896 -0.542,-0.812 -1.626,-0.992 -1.174,-2.076 0.451,-1.084 0.992,-0.723 1.174,-1.444 0.18,-0.723 0.183,-1.265 0.543,-2.077 0.359,-0.812 1.211,-1.264 1.823,-1.354 0.612,-0.091 1.818,0.916 2.254,-0.535 0.436,-1.451 0.255,-3.438 0.706,-3.979 0.451,-0.542 0.605,-0.993 0.605,-0.993 l 1.11,-0.279 c 0,0 1.893,-0.547 2.59,-1.109 0.698,-0.563 0.676,-1.001 1.11,-1.233 0.434,-0.232 0.946,-0.365 1.336,-0.923 0.391,-0.557 0.838,-1.654 0.838,-1.654 0,0 -0.818,-0.488 -1.09,-0.759 -0.271,-0.271 -0.09,-1.083 -0.722,-1.625 -0.632,-0.542 -0.632,0 -1.355,-0.903 -0.723,-0.902 -1.535,-0.451 -0.993,-1.625 0.542,-1.174 0.903,-1.535 1.265,-2.527 0.36,-0.993 0.541,-1.264 0.09,-2.076 -0.451,-0.813 -0.542,-4.334 -0.271,-4.876 0.271,-0.542 0,-5.146 0,-6.319 0,-1.173 0.633,-1.986 -0.632,-2.167 -1.264,-0.181 -3.791,-0.181 -4.152,-0.632 -0.361,-0.451 -0.436,-1.264 -0.436,-1.264 0,0 0.744,-0.903 1.312,-1.535 0.568,-0.632 1.832,-2.708 2.104,-3.069 0.271,-0.361 1.174,-0.542 2.076,-0.812 0.902,-0.271 0.945,-1.354 2.278,-1.626 1.333,-0.271 1.965,-0.11 3.229,-1.003 1.265,-0.893 3.026,-2.969 1.784,-4.504 -1.242,-1.534 -1.784,-2.789 -1.784,-2.789 l -0.884,-1.427 c 0,0 -2.907,-0.334 -3.359,0 -0.451,0.334 -2.348,0.605 -2.348,0.605 l -0.755,3.069 -0.958,0.36 -5.371,-0.73 z"
   style="fill:#677821" /><rect
   style="fill:none;stroke:#000000;stroke-width:0.29998;stroke-linejoin:bevel;stroke-dasharray:none;paint-order:stroke fill markers"
   id="rect2"
   height="4390.293"
   x="0.19998971"
   y="0.19998971"
   ry="0.69917101"
   width="4353.8188" /></svg>
