<?xml version="1.0" encoding="UTF-8" standalone="no"?>
<!-- Generator: Adobe Illustrator 22.1.0, SVG Export Plug-In . SVG Version: 6.00 Build 0)  -->

<svg
   version="1.1"
   x="0px"
   y="0px"
   viewBox="0 0 4354.1187 4390.5933"
   enable-background="new 0 0 1995.865 2834.646"
   xml:space="preserve"
   id="svg1596"
   width="4354.1187"
   height="4390.5933"
   xmlns="http://www.w3.org/2000/svg"
   xmlns:svg="http://www.w3.org/2000/svg"><defs
   id="defs1596" />


<path
   id="Oxfordshire_1_"
   fill="#6C833C"
   d="m 2538.1085,2844.7541 c 0,0 -1.198,2.12 -1.445,2.614 -0.247,0.492 -1.479,2.836 -2.836,3.083 -1.357,0.247 -2.098,-0.124 -2.098,-0.124 l -2.812,2.555 h -1.011 c 0,0 -3.33,-0.334 -4.688,-0.174 -1.356,0.159 -2.343,-0.653 -3.084,0 -0.74,0.652 -3.879,-0.726 -4.016,-0.913 -0.137,-0.188 -1.525,-1.097 -1.525,-1.097 l 0.767,-2.471 0.07,-3.391 -2.493,-5.142 0.621,-3.674 1.035,-6.249 -4.078,-0.396 v -1.371 l 2.22,-0.348 c 0,0 2.714,0.225 3.384,-0.039 0.67,-0.263 3.276,-0.354 3.152,0 -0.123,0.354 0.863,-1.834 0.863,-1.834 0,0 -1.85,-1.85 -1.857,-2.44 -0.01,-0.591 -3.684,-4.402 -3.684,-4.402 0,0 -2.352,-2.776 -2.885,-3.901 -0.506,-1.068 -2.664,-3.213 -2.877,-3.422 l -0.016,-0.017 -0.522,2.471 -0.491,2.585 -1.378,2.284 -3.318,0.553 c 0,0 -2.827,1.479 -2.334,2.468 0.493,0.986 1.924,0 1.924,0 h 1.617 c 0,0 1.146,2.096 1.886,2.959 0.74,0.863 -0.454,1.147 -1.886,1.85 -1.431,0.702 -2.185,0.124 -3.541,-0.493 -1.356,-0.616 -1.604,-1.85 -2.429,-2.96 -0.825,-1.109 -1.765,-0.617 -3.985,0 -2.22,0.617 -0.616,-0.247 -0.616,1.04 0,1.286 0.123,1.92 -0.616,3.03 -0.74,1.11 -0.493,-0.123 -2.344,-0.617 -1.85,-0.493 -1.479,0.37 -2.22,0.848 -0.741,0.478 -0.986,2.112 -1.604,3.346 -0.617,1.234 0.123,3.453 0,3.947 -0.124,0.492 -1.233,6.043 -1.48,6.783 -0.246,0.74 -1.85,5.057 -2.344,7.03 -0.493,1.974 -1.726,0.862 -2.836,0.616 -1.109,-0.247 -0.863,1.479 -1.173,2.22 -0.311,0.74 -0.8,1.356 -2.033,1.321 -1.233,-0.036 -1.728,0.158 -2.131,0 -0.404,-0.159 -1.199,2.625 -1.199,2.625 l -3.33,4.07 0.01,-0.117 c 0.316,0.338 0.541,0.611 0.541,0.611 0,0 -0.674,1.604 -0.797,1.973 -0.123,0.371 -1.85,1.234 -1.85,1.234 l -2.025,1.643 0.568,1.07 v 0.656 l 1.729,2.246 -0.52,1.044 0.272,0.467 -1.153,1.261 c 0,0 -1.832,-0.371 -2.695,0 -0.863,0.369 -0.494,3.083 -0.74,3.946 -0.246,0.863 -1.787,1.479 -1.787,1.479 v 1.727 c 0,0 0.061,3.084 0,3.322 -0.06,0.238 -0.68,3.092 -0.68,3.092 l 0.68,3.699 h 0.677 l -0.677,2.539 -3.825,2.543 c 0,0 -0.432,0.715 -0.699,1.702 -0.268,0.986 2.241,2.355 2.241,2.355 0,0 0.987,5.414 0.987,6.258 0,0.844 0.246,1.253 -0.26,2.856 -0.505,1.604 0,2.96 0,2.96 l 5.529,6.939 c 0,0 1.14,-0.302 -0.703,0.222 -1.844,0.523 -2.101,-0.162 -2.101,-0.162 l -1.178,-1.837 c 0,0 -1.323,2.037 -1.501,2.614 -0.178,0.576 0.212,6.603 0.212,6.603 l 2.669,1.082 c 1.066,2.388 0.414,4.396 0.414,4.396 0,0 0.21,1.117 0.131,1.853 -0.078,0.735 -2.227,1.601 -2.227,1.601 l -0.987,5.474 1.297,1.058 1.047,1.238 h 1.974 0.953 l 7.494,11.49 h 1.728 l -0.015,0.361 c 0.042,-1.152 0.12,-2.453 0.261,-2.971 0.278,-1.018 1.573,-2.868 1.758,-3.146 0.185,-0.278 2.683,-1.388 2.683,-1.388 0,0 1.758,0.833 3.33,1.018 1.572,0.186 2.96,0.093 3.885,0.647 0.925,0.556 2.127,2.96 3.145,3.237 1.018,0.278 3.793,-2.034 4.718,-2.404 0.925,-0.37 4.625,-0.463 6.383,-0.37 1.757,0.093 2.22,-1.572 3.423,-1.665 1.202,-0.093 2.035,1.388 3.33,0.832 1.295,-0.555 0.646,-2.774 1.479,-3.33 0.833,-0.555 1.479,0.648 2.867,0.926 1.388,0.278 6.845,3.978 8.603,4.625 1.758,0.647 4.902,0.185 4.902,0.185 0,0 1.11,0.925 1.85,0.925 0.739,0 3.515,-0.832 3.885,-1.295 0.37,-0.462 2.743,-1.037 2.743,-1.037 l 0.217,0.853 -0.555,2.96 c 0,1.202 0.832,2.497 0.832,2.497 2.405,-0.277 2.775,0.463 3.33,1.296 0.555,0.832 1.48,3.052 2.683,3.699 1.203,0.647 3.053,-0.37 4.255,-1.109 1.203,-0.74 3.053,1.295 3.053,2.867 0,1.21 0.533,1.155 1.385,1.755 0.451,0.318 0.719,0.774 1.267,0.904 0.143,0.034 1.729,0.058 1.788,0.032 0.137,-0.059 0.324,-0.143 0.447,-0.21 0.688,-0.933 0.31,-1.86 1.387,-2.602 0.987,-0.681 2.396,-1.103 3.534,-1.45 1.372,-0.418 2.812,-0.225 3.052,1.385 0.204,1.365 -1.006,2.316 -0.448,3.778 1.304,-0.087 4.03,-2.508 4.424,-3.686 0.185,-0.555 1.11,-1.388 2.867,-2.774 1.758,-1.388 1.48,-2.035 1.665,-3.516 0.186,-1.479 -0.462,-3.145 -0.462,-3.145 -0.556,-1.388 -1.758,-1.203 -2.035,-2.867 -0.149,-0.895 0,-1.842 0.233,-2.698 l 0.415,-0.108 c -0.616,-0.555 -2.097,-1.97 -2.467,-2.002 -0.369,-0.033 -1.232,-2.129 -2.096,-2.5 -0.864,-0.369 -1.891,-0.616 -1.192,-1.973 0.699,-1.357 1.192,-1.356 1.192,-1.356 0,0 1.855,-0.863 0.804,-1.974 -1.051,-1.109 -1.337,0.493 -1.996,-1.356 -0.658,-1.851 0.715,-1.19 -0.28,-2.877 -0.994,-1.687 -0.732,-2.057 0,-3.167 0.732,-1.109 1.473,-0.739 0.855,-1.973 -0.618,-1.234 -1.273,-1.727 -0.575,-2.344 0.698,-0.617 1.938,0.576 1.996,-0.514 0.06,-1.09 -0.215,-2.816 0.416,-3.434 0.63,-0.616 1,-0.493 1.863,0 0.863,0.494 -0.248,0.124 1.479,0.371 1.727,0.246 2.344,1.604 1.727,0.246 -0.616,-1.356 1.084,0.371 0.234,-0.493 -0.85,-0.863 -1.838,-0.863 -1.468,-1.604 0.37,-0.741 2.526,-0.74 1.448,-1.479 -1.078,-0.74 -2.188,-0.246 -1.448,-1.604 0.74,-1.358 0.617,-1.357 0.617,-2.097 0,-0.74 -0.494,-2.714 -0.617,-3.823 -0.123,-1.11 -0.504,-1.974 -1.547,-2.96 -1.043,-0.987 -1.031,-1.11 -2.455,-2.22 -1.424,-1.11 -2.657,-2.845 -3.645,-3.08 -0.987,-0.234 -2.717,-0.991 -3.864,-0.867 l -0.916,0.867 c 0,0 0.916,0.219 -0.528,0.293 -1.444,0.073 -4.056,-0.293 -4.056,-0.293 h -1.943 c 0,0 -0.207,1.779 -1.12,1.866 -0.913,0.088 -2.095,-0.317 -2.614,-0.643 -0.521,-0.326 -2.646,-1.224 -2.646,-1.224 0,0 -0.936,-1.854 -0.565,-2.348 0.369,-0.493 0.616,-2.466 0.616,-2.466 0,0 -3.083,-0.481 -3.823,-1.289 -0.74,-0.808 -1.119,-2.027 -1.119,-2.027 0,0 -0.854,-2.11 -0.607,-3.221 0.247,-1.11 0.475,-1.901 0.607,-2.122 0.132,-0.221 -3.074,-3.428 -3.074,-3.428 l 1.727,-2.344 2.714,1.11 c 0,0 1.974,2.126 3.206,1.741 1.233,-0.385 2.714,-0.139 3.33,-0.755 0.617,-0.616 -0.246,-2.312 -0.493,-2.944 -0.247,-0.632 -1.479,-3.839 -1.479,-3.839 l 0.74,-3.82 c 0,0 -0.987,-1.729 -1.728,-2.223 -0.739,-0.493 -1.233,-0.617 -0.863,-1.604 0.37,-0.987 -0.123,-2.097 0,-3.083 0.124,-0.987 -0.246,-0.52 0.493,-1.986 0.74,-1.467 0.123,-1.591 1.233,-2.084 1.11,-0.493 1.587,-1.346 1.587,-1.346 l 0.318,-0.939 0.319,-0.688 h -2.101 l -1.111,0.63 c 0,0 0.124,-1.48 -0.246,-1.851 -0.369,-0.37 -1.952,-1.356 -1.952,-1.356 l 4.419,-7.894 c 0,0 0.881,-1.688 0.731,-1.965 -0.151,-0.275 -1.594,-0.995 -1.594,-0.995 0,0 -1.344,0.78 -1.85,0.74 -0.506,-0.04 -1.604,-0.74 -1.604,-0.74 0,0 -0.246,-0.986 -0.123,-0.493 0.123,0.493 0.043,0.209 -0.596,0.043 -0.636,-0.16 -1.905,-1.171 -1.905,-1.171 0,0 -0.122,-0.02 -0.309,-0.051 z"
   style="fill:#677821" /><rect
   style="fill:none;stroke:#000000;stroke-width:0.29998;stroke-linejoin:bevel;stroke-dasharray:none;paint-order:stroke fill markers"
   id="rect2"
   height="4390.293"
   x="0.19998971"
   y="0.19998971"
   ry="0.69917101"
   width="4353.8188" /></svg>
