<?xml version="1.0" encoding="UTF-8" standalone="no"?>
<!-- Generator: Adobe Illustrator 22.1.0, SVG Export Plug-In . SVG Version: 6.00 Build 0)  -->

<svg
   version="1.1"
   x="0px"
   y="0px"
   viewBox="0 0 4354.1187 4390.5933"
   enable-background="new 0 0 1995.865 2834.646"
   xml:space="preserve"
   id="svg1596"
   width="4354.1187"
   height="4390.5933"
   xmlns="http://www.w3.org/2000/svg"
   xmlns:svg="http://www.w3.org/2000/svg"><defs
   id="defs1596" />


<path
   id="Rutland_1_"
   fill="#303B09"
   d="m 2621.8745,2706.3971 c 0,0 -1.633,-2.208 -1.723,-2.258 -0.09,-0.049 -1.354,-2.396 -1.354,-2.396 l 0.992,-0.542 1.264,1.535 c 0,0 1.806,0 2.348,-0.091 0.542,-0.09 2.6,-0.541 3.331,-1.444 0.731,-0.902 1.544,-2.415 2.086,-2.697 0.542,-0.282 1.265,-1.546 1.535,-2.539 0.27,-0.993 0.271,-2.979 0,-3.34 -0.271,-0.361 -2.727,-0.937 -2.727,-0.937 0,0 -0.175,0.718 -0.895,0.83 -0.719,0.111 -2.429,-0.772 -2.97,-0.83 -0.542,-0.057 -2.348,0.285 -2.799,-0.338 -0.451,-0.622 -0.902,-1.344 -2.166,-1.795 -1.265,-0.452 -2.671,-0.101 -2.69,-1.224 -0.019,-1.124 0.07,-2.092 -0.923,-3.368 -0.993,-1.277 -2.575,-0.374 -2.868,-1.097 -0.291,-0.722 -0.021,-1.324 -1.194,-1.52 -1.174,-0.196 -5.146,-1.353 -6.5,-1.271 -1.354,0.082 -4.977,-0.29 -5.8,0 l -0.166,-0.31 c 0.098,0.188 0.166,0.31 0.166,0.31 0,0 -0.494,-0.086 -2.344,1.271 -1.85,1.355 -1.974,0.74 -4.934,2.38 -2.96,1.64 -1.233,-0.036 -2.81,0.087 -1.578,0.122 -3.109,-0.247 -4.836,0 -1.726,0.246 -1.974,0 -2.863,0.493 -0.891,0.493 -1.823,1.604 -2.691,3.024 -0.867,1.42 0,2.402 0,2.402 0,0 2.84,2.96 3.21,3.946 0.37,0.986 1.11,1.357 1.571,2.251 0.461,0.894 -0.091,2.56 0,3.546 0.091,0.986 -1.447,1.727 -1.447,1.727 0,0 -0.987,2.098 -1.604,3.453 -0.617,1.356 -0.247,1.975 0,3.938 0.246,1.965 -0.247,1.858 -0.901,2.599 -0.654,0.739 -0.702,2.221 -0.825,3.453 -0.123,1.233 2.59,1.357 2.687,2.016 0.096,0.66 2.596,1.883 2.645,2.215 0.05,0.331 0.92,1.283 0.92,1.283 l 1.44,3.095 1.946,1.359 c 0,0 -0.077,1.161 -0.388,1.995 -0.31,0.836 0.095,1.724 0.315,2.098 0.222,0.374 1.781,4.07 1.463,4.502 l -0.104,0.059 c 0.749,-0.436 1.402,-0.798 2.025,-1.315 1.233,-1.025 1.727,-1.89 3.083,-3.616 1.356,-1.726 0.37,-1.973 2.097,-2.959 1.727,-0.987 2.837,-1.974 4.07,-2.837 1.233,-0.863 2.837,-1.604 4.811,-2.837 1.973,-1.233 2.466,0 3.576,-1.727 1.109,-1.727 1.11,-2.22 1.233,-0.986 0.123,1.232 -10e-4,2.909 0.986,1.887 0.987,-1.023 0.37,-1.394 1.233,-1.764 0.863,-0.37 0.74,0.74 1.604,-0.123 0.864,-0.863 0.246,-0.494 0,-1.357 -0.247,-0.863 -0.221,-1.109 0.444,-2.343 0.665,-1.233 0.915,-1.604 1.222,-2.097 0.307,-0.493 -0.927,-1.726 -0.433,-1.973 0.493,-0.248 1.726,-1.82 2.22,-2.082 0.494,-0.262 1.48,-1.372 1.849,-1.125 0.375,0.248 1.831,0.248 2.583,-0.616 0.089,-0.102 0.192,-0.214 0.309,-0.332 z"
   style="fill:#677821" /><rect
   style="fill:none;stroke:#000000;stroke-width:0.29998;stroke-linejoin:bevel;stroke-dasharray:none;paint-order:stroke fill markers"
   id="rect2"
   height="4390.293"
   x="0.19998971"
   y="0.19998971"
   ry="0.69917101"
   width="4353.8188" /></svg>
