<?xml version="1.0" encoding="UTF-8" standalone="no"?>
<!-- Generator: Adobe Illustrator 22.1.0, SVG Export Plug-In . SVG Version: 6.00 Build 0)  -->

<svg
   version="1.1"
   x="0px"
   y="0px"
   viewBox="0 0 4354.1187 4390.5933"
   enable-background="new 0 0 1995.865 2834.646"
   xml:space="preserve"
   id="svg1596"
   width="4354.1187"
   height="4390.5933"
   xmlns="http://www.w3.org/2000/svg"
   xmlns:svg="http://www.w3.org/2000/svg"><defs
   id="defs1596" />


<path
   id="Shropshire_1_"
   fill="#8D9764"
   d="m 2320.1085,2630.6761 2.996,-1.484 c 0,0 2.712,-3.075 3.61,-2.771 0.898,0.304 0.655,0.601 1.702,2.117 1.046,1.517 3.003,2.943 3.689,1.953 0.687,-0.991 3.794,-1.501 4.414,-1.299 0.62,0.202 1.685,0.321 2.216,2.997 0.532,2.676 1.271,4.711 2.382,4.525 1.109,-0.185 2.226,-0.925 2.226,-0.925 0,0 2.77,1.686 3.694,1.86 0.924,0.174 2.246,-2.415 2.246,-2.415 l 2.268,-1.295 1.345,1.295 c 0,0 1.898,0.925 2.553,0.739 0.653,-0.185 1.948,0 3.244,-0.739 1.295,-0.74 2.867,-3.046 2.867,-3.046 l 1.263,-2.997 3.056,-1.483 h 2.457 l 0.029,0.263 c 0.207,1.868 0.41,4.124 0.194,4.218 -0.369,0.16 -0.863,1.566 -0.863,2.184 0,0.618 -1.1,3.329 -1.1,3.329 0,0 -0.51,-0.048 -0.781,-0.052 -0.271,0 -0.519,-1.181 -0.519,-1.181 l -0.437,-1.234 h -0.863 c 0,0 -0.124,1.357 0,1.728 0.123,0.37 0.771,0.935 0,1.447 -0.773,0.512 -0.501,0.393 -1.481,0.771 -0.98,0.38 -2.017,0.947 -2.66,1.635 -0.642,0.688 -1.272,1.861 -1.514,2.436 -0.24,0.574 -0.514,0.617 -1,1.359 -0.486,0.743 -0.271,1.598 -0.507,2.214 -0.236,0.616 -1.387,1.36 -1.387,1.36 l 0.169,1.111 c 0,0 -0.01,0.985 0.06,1.591 0.067,0.606 0.839,1.398 0.839,1.398 l 0.6,1.354 c 0,0 0.152,0.485 0.342,1.033 0.189,0.547 1.482,-0.32 2.839,-1.061 1.357,-0.741 1.233,-0.37 2.713,-0.863 1.479,-0.494 2.714,-1.727 4.81,-0.517 2.097,1.21 0.617,1.873 -0.123,3.163 -0.74,1.29 -0.74,2.287 -1.1,4.244 -0.359,1.958 -0.346,3.27 -1.3,4.208 -0.954,0.938 -0.931,-0.492 -1.3,1.444 -0.37,1.936 1.356,1.023 2.6,2.55 1.244,1.527 1.47,1.804 2.21,2.544 0.74,0.739 0.247,1.973 -0.863,2.343 -1.11,0.37 -0.616,1.233 0,1.85 0.617,0.616 3.237,2.473 3.237,2.473 0,0 2.066,2.461 3.744,4.435 1.679,1.973 1.405,1.604 1.776,3.822 0.37,2.22 0,1.604 0.123,3.207 0.123,1.604 -0.37,2.344 -1.225,3.012 -0.855,0.667 1.718,4.143 1.965,5.094 0.247,0.952 2.344,0.898 4.316,1.414 1.974,0.515 2.097,-0.393 3.576,-0.936 1.48,-0.544 0.864,0.79 1.37,1.776 0.507,0.987 -0.506,3.453 0,4.587 0.507,1.133 -0.26,5.65 0,6.235 0.26,0.585 -2.356,3.238 -2.921,3.731 -0.565,0.493 -2.889,0.493 -4.245,0.37 -1.357,-0.124 -1.727,-0.987 -3.207,-0.987 -1.479,0 -0.616,1.727 -0.493,3.399 0.124,1.672 0.37,1.041 1.247,1.549 0.876,0.509 1.343,1.343 3.35,1.835 2.006,0.494 1.2,1.233 2.434,2.96 1.233,1.726 0.863,1.11 0.863,1.892 0,0.78 -0.123,4.275 -0.617,5.262 -0.493,0.985 0.247,1.975 0,3.084 -0.247,1.11 -0.986,0.863 -2.163,1.356 -1.178,0.493 -0.92,1.356 -1.413,1.834 -0.494,0.477 -1.11,1.496 -1.974,2.731 -0.863,1.234 -0.37,1.479 0,2.56 0.37,1.081 1.11,2.125 1.392,3.235 0.282,1.111 0.828,1.604 0.652,2.281 -0.176,0.68 0.052,2.282 0,3.021 l 0.266,0.28 c -0.158,-0.163 -0.266,-0.28 -0.266,-0.28 0,0 -1.798,0.863 -2.045,1.233 -0.246,0.37 -1.604,1.233 -2.713,1.48 -1.111,0.247 -3.084,-0.74 -4.07,-0.648 -0.986,0.091 -1.572,0 -1.572,0 l 0.674,2.549 c 0,0 0,0 0.356,1.026 0.355,1.026 -0.321,1.267 -1.178,2.006 -0.855,0.739 0.733,1.604 0.979,3.454 0.247,1.85 0.863,0.37 1.47,0.521 0.607,0.151 0.504,0.59 1.86,0.959 1.357,0.37 0.986,0.16 0,1.011 -0.986,0.851 -1.356,0.414 -1.356,0.414 0,0 -1.356,-0.931 -2.343,0 -0.987,0.931 -1.604,0.056 -2.221,0.055 -0.616,0 -2.097,-0.122 -3.084,0 -0.986,0.123 -0.616,0.124 -0.492,0.864 0.123,0.74 -0.863,2.96 -0.863,2.96 h -2.59 l -4.027,0.646 c 0,0 -1.432,0 -2.383,0 -0.952,0 -0.131,1.405 -0.131,1.405 l 0.131,0.414 c 0,0 0.366,2.591 0,2.961 -0.367,0.37 0,1.973 0,1.973 l -0.867,-0.493 -2.344,0.74 c 0,0 -1.109,-0.739 -1.85,-1.479 -0.741,-0.74 -0.863,-0.74 -1.604,-1.234 -0.74,-0.493 -0.986,0.371 -1.973,0.617 -0.987,0.247 -0.617,0.74 -1.11,1.356 -0.493,0.616 -0.617,1.233 -0.74,1.85 -0.123,0.617 0,1.357 0,1.974 0,0.617 -1.195,1.053 -1.195,1.053 0,0 -0.901,-0.312 -2.068,-0.373 -1.167,-0.059 -2.546,0.894 -4.235,1.498 -0.148,0.053 -0.304,0.1 -0.468,0.143 l 0.468,-0.143 c 0,0 -0.888,-2.424 -1.381,-3.164 -0.493,-0.74 -2.035,-2.468 -2.621,-2.837 -0.586,-0.37 -3.068,-1.109 -3.061,-1.109 0.01,0 -1.842,2.959 -1.842,2.959 l -0.616,1.11 -0.546,2.078 c 0,0 -2.785,0.565 -3.401,-0.201 -0.616,-0.767 -1.096,-0.644 -2.768,-1.63 -1.673,-0.986 -2.744,-0.546 -3.071,-1.938 -0.327,-1.392 -0,-0.775 0.945,-1.269 0.947,-0.493 1.193,0 1.563,-1.109 0.37,-1.11 1.741,-1.604 0.562,-2.59 -1.179,-0.987 0.012,-0.988 -2.126,-0.741 -2.137,0.247 -2.26,0.588 -3.986,-0.137 -1.726,-0.726 -1.67,-0.943 -1.849,-2.699 -0.181,-1.756 -0.493,-2.715 -1.356,-3.454 -0.864,-0.739 0.862,-0.862 -1.233,-1.356 -2.097,-0.492 -3.577,-1.055 -4.193,-1.082 -0.617,-0.027 -1.851,0.467 -2.221,0.713 -0.369,0.246 -1.008,1.479 -1.676,1.109 -0.667,-0.369 -1.424,-0.369 -1.539,0 -0.115,0.37 -0.979,1.233 -0.979,1.233 l -0.158,1.358 c 0,0 -0.458,-1.234 -1.074,-1.481 -0.617,-0.247 -0.74,-0.864 -1.357,-0.494 -0.616,0.37 -1.932,0.617 -1.705,1.728 0.226,1.109 0.842,1.174 0.842,1.174 h 1.727 c 0,0 0.617,2.093 0.124,1.569 -0.493,-0.524 -1.356,0.399 -1.728,0 -0.369,-0.4 -1.603,0 -1.603,0 v 1.405 2.142 l -3.465,-0.329 -0.165,0.662 c 0.069,-0.278 0.165,-0.662 0.165,-0.662 0,0 -3.241,-0.951 -3.688,-0.781 -0.448,0.169 -4.07,-0.021 -4.07,-0.021 l -3.207,0.883 -1.251,0.558 c 0,0 -0.911,-0.592 -1.495,-1.006 -0.584,-0.414 -0.675,-0.236 -0.877,-0.875 -0.202,-0.639 -4.001,-2.936 -4.875,-3.026 -0.874,-0.09 -0.922,-1.385 -0.922,-1.385 l -1.956,-1.636 -1.079,-0.595 -3.866,-2.519 c 0,0 -0.58,-0.915 -1.101,-1.426 -0.521,-0.51 -2.187,-1.657 -2.187,-1.657 0,0 0,-0.37 -1.11,-0.863 -1.11,-0.493 -2.467,-0.863 -3.207,-1.974 -0.74,-1.109 -0.74,-0.986 -1.604,-2.343 -0.864,-1.357 -1.603,-0.616 -0.863,-2.837 0.74,-2.22 -0.247,-2.467 1.604,-3.823 1.85,-1.356 1.356,-0.863 3.33,-1.85 1.973,-0.987 2.836,-1.851 5.673,-3.084 2.837,-1.233 1.974,-2.22 5.304,-2.343 3.33,-0.123 4.562,-0.617 6.906,-0.617 2.344,0 2.837,0.987 3.577,-0.616 0.74,-1.603 0.37,-3.207 0.74,-3.946 0.369,-0.74 2.59,-1.234 3.206,-1.728 0.616,-0.494 0.863,-1.479 0.987,-1.85 0.123,-0.37 0.123,-4.316 0.123,-4.934 0,-0.616 0.369,-1.604 -0.123,-2.467 -0.494,-0.863 -0.617,-0.739 -1.48,-1.11 -0.863,-0.369 0.617,-0.616 -0.863,-0.369 -1.48,0.246 -1.973,0.493 -2.713,1.233 -0.74,0.739 -0.617,0.739 -1.48,1.727 -0.863,0.986 -0.987,0.739 -1.974,1.356 -0.986,0.617 -1.479,0.123 -2.713,0.74 -1.234,0.617 -1.356,1.232 -0.863,1.85 0.493,0.618 1.85,1.727 0.863,2.467 -0.987,0.74 -0.493,0.617 -1.604,1.11 -1.11,0.493 -1.85,0.986 -2.837,0.986 -0.986,0 -1.603,0.493 -2.343,0 -0.74,-0.493 -1.726,-1.604 -0.74,-2.22 0.986,-0.617 1.11,-0.37 1.974,-1.11 0.863,-0.74 0.739,1.356 0.863,-0.74 0.124,-2.096 0.37,-2.59 -0.123,-3.33 -0.494,-0.739 -0.37,-0.862 -1.233,-2.097 -0.864,-1.232 -2.097,-1.604 -1.357,-2.836 0.74,-1.233 1.357,-1.48 2.467,-1.851 1.11,-0.37 1.727,-0.123 2.96,-1.603 1.233,-1.48 1.604,-3.947 1.851,-4.44 0.247,-0.493 -0,-0.493 0.863,-1.727 0.864,-1.234 2.097,-1.604 2.467,-1.851 0.37,-0.246 0.247,-0.698 -1.233,-1.212 -1.48,-0.515 -2.591,-0.391 -0.864,-1.131 1.727,-0.74 2.097,-0.863 2.713,-1.604 0.617,-0.74 0.617,-0.617 0.986,-1.851 0.37,-1.232 0.247,-2.096 0.37,-3.083 0.124,-0.986 0.124,-0.986 0.124,-0.986 0,0 0,-2.22 0.123,-2.714 0.123,-0.492 0.617,-1.232 0.986,-1.603 0.37,-0.37 0.617,-0.493 1.11,-0.987 0.493,-0.493 0,-1.356 0.37,-2.22 0.37,-0.864 0.493,-0.493 0.74,-1.727 0.246,-1.233 1.48,-0.987 1.85,-1.11 0.37,-0.123 1.727,0 1.727,0 0,0 0.246,-1.22 1.109,-0.055 0.864,1.165 0.248,1.658 1.604,1.781 1.357,0.123 2.714,0.494 1.974,-0.863 -0.739,-1.356 0.247,-1.603 -0.739,-2.22 -0.987,-0.616 1.017,0.154 -0.987,-0.616 -2.004,-0.771 -1.291,-0.691 -1.291,-0.691 0,0 0.489,1.369 -0.713,-0.08 -1.202,-1.449 -0.586,-1.572 -1.079,-2.312 -0.493,-0.739 -0.987,-0.369 -1.851,-0.986 -0.862,-0.617 -1.603,0.739 -0.862,-0.617 0.739,-1.355 1.603,-1.85 0.246,-2.22 -1.357,-0.37 1.233,0.493 -1.356,-0.37 -2.591,-0.863 -2.344,-1.479 -3.577,-1.479 -1.233,0 -0.863,0.616 -1.85,0 -0.987,-0.616 -3.083,-1.11 -3.083,-1.11 l -0.37,-2.344 -0.247,-0.986 c 0,0 1.356,-0.986 0.493,-1.233 -0.863,-0.247 -0.37,-1.603 -1.85,0 -1.48,1.604 -1.233,1.974 -2.96,1.851 -1.726,-0.123 -3.207,-0.617 -3.7,-0.987 -0.493,-0.37 -0.948,-1.479 -1.152,-2.343 -0.204,-0.863 -0.328,-0.494 -0.821,-1.357 -0.493,-0.863 -0.863,-1.479 -0.37,-2.343 0.493,-0.864 0.493,-1.356 0.493,-1.356 0,0 0.163,-0.247 0.698,-0.986 0.536,-0.74 0.205,-0.74 0,-1.728 -0.204,-0.986 -0.535,-1.727 0,-2.59 0.536,-0.863 0.412,-1.306 1.152,-1.701 0.74,-0.396 0.986,-0.272 1.727,-1.259 0.741,-0.987 0.863,-1.233 -0.123,-2.22 -0.987,-0.987 -0.864,0.986 -0.987,-0.987 -0.123,-1.973 -0.493,-0.616 -0.123,-1.973 0.37,-1.357 1.11,-1.727 1.974,-1.85 0.863,-0.124 1.479,0.986 1.973,-0.74 0.494,-1.727 0,-2.097 0.617,-3.453 0.617,-1.357 0.863,-1.357 1.11,-2.467 0.247,-1.11 1.11,-1.357 1.11,-1.357 0,0 0.37,0.247 1.48,0.494 1.109,0.246 2.59,0.246 3.7,0 1.11,-0.247 2.22,1.232 3.207,-0.494 0.987,-1.726 2.097,-2.59 2.344,-3.453 0.247,-0.863 0.986,-2.375 0.986,-2.375 l 2.343,-0.092 c 0,0 0.441,0.785 0.899,0 0.458,-0.785 0.517,-1.188 0.717,-1.548 0.2,-0.36 0.81,-0.795 0.81,-0.795 0,0 0.463,-0.802 0.499,0.216 0.036,1.018 0,2.497 0,2.497 0,0 1.393,1.233 2.256,1.727 0.863,0.494 2.22,1.974 3.207,1.728 0.986,-0.247 2.343,-0.617 2.713,-0.987 0.37,-0.37 1.356,-1.233 2.22,-1.233 0.864,0 1.974,0.617 2.713,0.74 0.74,0.123 2.961,0.246 2.961,0.246 0,0 0.123,0.493 0.74,1.11 0.616,0.616 1.604,1.85 1.973,2.467 0.37,0.616 2.467,2.713 2.344,3.33 -0.123,0.616 0.617,2.591 1.356,2.837 0.74,0.246 1.48,0.986 2.714,-0.74 1.232,-1.727 1.603,-2.96 2.59,-3.33 0.986,-0.37 0.757,-0.863 2.352,-0.986 1.595,-0.123 2.211,0.492 2.581,-1.357 0.37,-1.85 0,-3.083 0.247,-4.439 0.247,-1.356 -0.123,-5.304 -0.493,-5.92 -0.294,-0.49 -0.588,-1.058 -0.943,-1.641 z"
   style="fill:#677821" /><rect
   style="fill:none;stroke:#000000;stroke-width:0.29998;stroke-linejoin:bevel;stroke-dasharray:none;paint-order:stroke fill markers"
   id="rect2"
   height="4390.293"
   x="0.19998971"
   y="0.19998971"
   ry="0.69917101"
   width="4353.8188" /></svg>
