<?xml version="1.0" encoding="UTF-8" standalone="no"?>
<!-- Generator: Adobe Illustrator 22.1.0, SVG Export Plug-In . SVG Version: 6.00 Build 0)  -->

<svg
   version="1.1"
   x="0px"
   y="0px"
   viewBox="0 0 4354.1187 4390.5933"
   enable-background="new 0 0 1995.865 2834.646"
   xml:space="preserve"
   id="svg1596"
   width="4354.1187"
   height="4390.5933"
   xmlns="http://www.w3.org/2000/svg"
   xmlns:svg="http://www.w3.org/2000/svg"><defs
   id="defs1596" />


<path
   id="Somerset_1_"
   fill="#606F38"
   d="m 2290.0895,3103.8031 c 0.104,-0.107 0.167,-0.258 0.261,-0.377 0.185,-0.236 0.397,-0.452 0.635,-0.636 1.11,-0.863 0.369,-2.96 1.726,-3.453 1.357,-0.493 4.07,-0.863 4.811,-1.11 0.741,-0.247 3.33,-0.74 3.824,-0.74 0.492,0 3.453,0 3.453,0 0,0 1.479,0.863 2.343,0 0.863,-0.862 1.604,-2.22 1.974,-2.467 0.305,-0.203 0.863,-0.743 1.049,-0.925 0,0 0.923,1.174 1.54,1.42 0.616,0.246 2.344,0.123 2.467,-0.247 0.123,-0.37 1.479,-0.247 1.974,-0.37 0.492,-0.123 1.973,-0.864 1.973,-0.864 h 1.852 c 0,0 1.479,0.123 1.849,0 0.37,-0.122 1.727,-1.479 1.727,-1.479 l 2.96,-1.356 2.713,-1.357 c 0,0 2.344,-0.863 2.714,-0.74 0.37,0.124 2.96,-0.012 2.96,-0.012 0,0 0.74,1.615 1.233,1.615 0.493,0 2.713,-1.134 2.343,-1.615 -0.369,-0.481 -0.616,-1.591 -0.616,-1.591 l -1.11,-1.233 -0.616,-1.604 v -1.727 l 0.863,-1.357 0.987,-1.479 0.534,-0.74 c 0,0 -1.398,-0.493 -1.892,-1.109 -0.493,-0.617 1.933,-0.74 1.892,-1.604 -0.042,-0.863 0,-3.454 0,-3.454 0,0 -0.082,-1.85 0,-2.713 0.081,-0.863 1.314,-1.727 1.314,-1.727 l 0.74,-0.863 h 2.097 l 0.616,0.863 0.617,0.624 1.479,-1.487 v -1.356 -1.233 h 2.097 v 0.986 l 2.713,0.123 1.85,0.617 v 1.48 l 1.109,1.48 2.097,2.713 1.85,2.097 h 1.851 l 1.974,-1.479 2.467,-1.233 5.377,-1.356 3.626,-1.48 v -1.356 l -4.44,-1.727 0.814,-2.837 c 0,0 1.652,-3.33 2.022,-3.823 0.37,-0.493 2.59,-2.713 3.083,-3.33 0.494,-0.616 0.74,-2.466 0,-2.96 -0.739,-0.493 -1.726,-1.727 -1.726,-1.727 l 1.11,-2.59 1.727,-1.233 c 0,0 0.073,0 0.185,0 h -0.185 c 0,0 -0.123,-0.495 -0.739,-0.864 -0.617,-0.37 -0.322,-0.493 -1.394,-1.11 -1.072,-0.616 -0.826,1.159 -1.812,-1.455 -0.986,-2.614 -1.356,-3.093 -0.863,-3.964 0.493,-0.871 1.543,-1.241 1.511,-1.98 -0.032,-0.739 0.244,-2.105 0.785,-2.656 0.541,-0.551 0.911,-0.674 1.651,-2.154 0.739,-1.479 -0.11,-1.18 1.239,-3.057 1.351,-1.877 1.076,-1.506 2.385,-3.356 1.309,-1.85 2.172,-2.483 2.912,-4.325 0.739,-1.842 1.691,-2.544 1.956,-4.352 0.264,-1.807 1.18,-4.396 1.338,-4.89 0.159,-0.493 1.393,-1.48 1.763,-3.577 0.37,-2.097 1.11,-2.714 0,-5.18 -1.11,-2.467 -0.071,-3.138 -1.763,-3.296 -1.691,-0.157 -2.929,-1.058 -2.929,-1.058 l 0.575,-1.443 0.07,-0.733 0.469,-0.13 -0.539,-1.604 -1.82,-0.97 -1.888,-3.446 -2.529,-1.627 h -1.69 l -0.82,-0.863 0.417,-0.719 2.333,-0.275 1.852,-0.463 1.294,-0.64 0.556,-1.233 0.493,-4.07 c 0,0 -0.493,-2.495 -0.37,-2.543 0.123,-0.047 1.48,-1.156 1.48,-1.156 l 0.693,-3.454 c 0,0 -0.324,-1.356 -1.064,-1.727 -0.739,-0.37 -2.247,-0.617 -2.788,0 -0.541,0.616 -1.651,0.303 -2.021,-0.773 -0.37,-1.077 -0.247,-1.569 -1.727,-1.569 -1.48,0 -2.038,-0.987 -4.041,0 -2.002,0.986 -3.123,1.042 -4.228,1.569 -1.104,0.526 -2.708,1.39 -2.708,1.39 l -3.576,1.006 -1.11,-0.38 -4.703,-0.256 c 0,0 -2.444,-1.731 -2.475,-1.76 -0.031,-0.028 -2.936,-1.816 -2.936,-1.816 l -0.124,3.206 c 0,0 -0.493,1.48 -0.862,1.851 -0.371,0.37 -1.357,0.616 -1.851,0.616 -0.494,0 -1.851,0.235 -2.097,0.92 -0.246,0.684 -0.511,0.809 -1.921,1.178 -1.409,0.369 -1.286,0.124 -4.122,0 -2.837,-0.124 -3.576,0.48 -3.453,-1.178 0.123,-1.659 -0.014,-2.77 -0.014,-2.77 l 0.63,-4.687 -0.124,-2.097 -0.818,-1.482 -1.049,-2.156 -1.57,-1.574 c 0,0 0.3,-0.24 0,-1.219 -0.301,-0.978 -0.659,-1.871 -1.372,-1.708 -0.713,0.163 -1.199,1.305 -1.974,1.233 -0.773,-0.072 -1.973,-1.728 -1.973,-1.728 l -2.861,-2.825 -0.087,0.115 c -0.476,0.645 -0.654,0.752 -1.245,1.106 -0.926,0.556 -2.035,1.295 -3.885,1.295 -1.851,0 -1.295,-0.37 -2.775,-0.555 -1.48,-0.185 -1.11,1.295 -2.405,1.665 -1.295,0.37 -2.034,1.48 -3.145,2.59 -1.11,1.11 -2.035,2.405 -2.96,3.146 -0.926,0.739 -2.035,1.479 -2.775,2.59 -0.74,1.111 -0.74,1.665 -1.48,2.59 -0.739,0.925 -1.109,1.665 -1.664,1.85 -0.556,0.186 -0.556,2.221 -0.556,2.221 l -0.925,1.109 c 0,0 -0.925,1.851 -2.404,2.96 -1.48,1.11 -1.48,0.926 -2.591,0.74 -1.11,-0.185 -1.665,-0.74 -1.665,-0.74 l -4.81,1.665 c 0,0 0.925,1.11 1.85,1.48 0.925,0.37 0.186,3.7 0.186,3.7 0,0 -3.886,1.664 -4.625,2.035 -0.74,0.369 0.925,1.109 0.925,1.109 0,0 1.109,1.665 0.74,3.885 -0.37,2.221 -0.185,2.59 -1.48,2.59 -1.295,0 0,0 -0.74,-0.925 -0.74,-0.925 -1.109,0.186 -2.59,-0.185 -1.479,-0.37 -1.85,-0.37 -1.85,-0.37 0,0 0.74,1.11 1.479,1.295 0.74,0.185 1.48,0.74 1.851,1.851 0.369,1.109 0,2.59 0,3.699 0,1.11 -1.11,3.146 -1.11,5.735 0,2.589 1.479,3.145 1.479,3.145 0,0 0.74,1.48 1.11,2.591 0.37,1.109 0.186,3.885 -0.555,4.994 -0.74,1.11 -1.11,2.775 -1.479,3.7 -0.371,0.925 -1.666,2.59 -2.591,2.96 -0.925,0.37 -1.665,0 -1.665,0 0,0 0,0 0,-0.555 0,-0.555 1.48,-0.37 2.035,-1.48 0.555,-1.109 0.555,-2.22 0.555,-2.22 0,0 0.926,-0.74 1.295,-1.85 0.371,-1.11 0,0 -1.109,-0.186 -1.11,-0.185 -1.665,1.48 -1.665,1.48 0,0 -1.851,1.665 -3.885,2.035 -2.035,0.37 -1.851,-0.37 -2.96,-1.11 -1.11,-0.74 -2.775,-0.186 -3.885,-0.74 -1.11,-0.554 -2.775,0.555 -4.44,0.555 -1.665,0 -1.665,1.296 -3.145,1.48 -1.48,0.186 -2.035,-0.37 -3.145,0 -1.11,0.37 -2.59,1.665 -3.885,2.22 -1.295,0.556 -5.181,2.035 -7.955,2.035 -2.775,0 -3.885,0.556 -5.18,0 -1.295,-0.555 -4.255,0 -8.51,0.37 -4.255,0.37 -3.145,-0.74 -3.7,-1.295 -0.555,-0.555 -2.404,-2.035 -2.59,-3.145 -0.185,-1.11 -0.74,-1.11 -2.775,-1.666 -2.035,-0.555 -2.22,0 -2.22,-0.739 0,-0.74 -1.109,-1.295 -2.035,-1.851 -0.925,-0.555 -2.404,-0.739 -3.699,-1.109 -1.295,-0.37 -2.035,-0.74 -3.885,-1.11 -1.85,-0.37 -3.885,-0.185 -4.995,0.37 -1.11,0.555 -1.295,1.85 -4.07,2.405 -2.775,0.555 -2.775,-0.74 -3.145,-1.295 -0.37,-0.556 -1.48,0.185 -3.145,-0.186 -1.665,-0.371 -3.145,-0.555 -4.44,-0.925 -0.978,-0.279 -2.289,-0.57 -4.558,-0.981 l -0.315,-0.058 c 0,0 -0.861,2.333 -0.738,3.196 0.123,0.863 0.109,2.467 0.363,3.33 0.254,0.863 -0.757,0.863 -0.375,2.344 0.382,1.479 1.021,2.22 0.332,2.96 -0.689,0.74 -2.17,1.356 -3.526,1.479 -1.356,0.124 -4.07,0.863 -5.057,0 -0.986,-0.863 -1.85,-1.232 -3.207,-0.986 -1.356,0.247 -2.836,-0.37 -2.836,0.74 0,1.11 0,4.069 0,4.81 0,0.741 0.986,4.563 1.48,4.934 0.494,0.371 2.59,3.33 3.823,3.576 1.233,0.247 4.316,2.097 4.687,2.344 0.371,0.247 3.207,3.206 4.194,3.453 0.986,0.247 4.44,1.356 5.55,1.48 1.109,0.123 4.193,2.59 4.193,2.59 0,0 0.37,1.604 2.22,1.727 1.85,0.123 1.603,-0.74 3.207,0 1.603,0.74 2.959,0.739 2.836,1.973 -0.123,1.234 -0.493,3.701 -0.986,4.194 -0.494,0.493 -1.356,1.85 -1.11,2.836 0.247,0.987 0.37,1.727 2.837,1.851 2.467,0.123 5.427,1.109 6.537,0.74 1.11,-0.371 1.603,-0.987 1.603,-0.987 0,0 0.986,-3.206 1.11,-3.7 0.123,-0.493 1.233,-0.369 2.097,-0.739 0.864,-0.37 1.603,-0.987 3.083,-0.864 1.48,0.124 1.974,0.863 3.084,1.11 1.109,0.247 3.576,-0.493 4.686,-0.246 1.11,0.246 1.727,0.616 1.851,0.986 0.124,0.37 -0.246,0.987 0.987,1.233 1.233,0.246 2.96,-0.247 3.207,0.863 0.247,1.109 -0.74,4.687 0,5.797 0.74,1.109 0.74,1.85 2.22,1.727 1.48,-0.123 3.453,-0.59 4.316,0.014 0.864,0.603 2.097,1.466 2.837,2.206 0.74,0.74 7.277,5.427 7.277,5.427 0,0 6.043,0.37 6.783,0 0.739,-0.37 2.837,-1.233 4.07,-0.863 1.233,0.37 1.85,1.48 1.603,1.85 -0.246,0.371 -1.726,3.7 -1.973,4.934 -0.247,1.233 1.093,1.85 2.026,2.59 0.933,0.74 1.303,1.604 2.167,1.974 0.864,0.37 1.234,0.863 2.343,0 1.11,-0.863 0.987,-1.11 2.59,-1.48 1.603,-0.37 2.713,-1.109 4.563,-1.233 1.849,-0.123 3.083,-0.246 3.083,-0.246 0,0 -0.124,5.426 0,5.92 0.124,0.493 0.864,1.727 0.864,1.727 l 2.22,1.727 v 2.221 c 0,0 1.233,0.123 1.48,0 0.246,-0.124 1.109,0.055 1.109,0.055 h 1.233 l 0.863,-0.549 0.863,0.549 c 0,0 0.739,0.425 0.986,0 0.247,-0.425 1.357,-0.425 1.357,-0.425 0,0 0.616,1.479 0.616,1.973 0,0.494 0,2.837 0,2.837 l 1.48,1.233 v 0.74 c -0.01,0.524 -0.179,1.073 0.208,1.5 z"
   style="fill:#677821" /><rect
   style="fill:none;stroke:#000000;stroke-width:0.29998;stroke-linejoin:bevel;stroke-dasharray:none;paint-order:stroke fill markers"
   id="rect2"
   height="4390.293"
   x="0.19998971"
   y="0.19998971"
   ry="0.69917101"
   width="4353.8188" /></svg>
