<?xml version="1.0" encoding="UTF-8" standalone="no"?>
<!-- Generator: Adobe Illustrator 22.1.0, SVG Export Plug-In . SVG Version: 6.00 Build 0)  -->

<svg
   version="1.1"
   x="0px"
   y="0px"
   viewBox="0 0 4354.1187 4390.5933"
   enable-background="new 0 0 1995.865 2834.646"
   xml:space="preserve"
   id="svg1596"
   width="4354.1187"
   height="4390.5933"
   xmlns="http://www.w3.org/2000/svg"
   xmlns:svg="http://www.w3.org/2000/svg"><defs
   id="defs1596" />


<path
   id="South_Yorkshire_1_"
   fill="#4B5A26"
   d="m 2572.1225,2482.8111 -11.271,-4.03 -5.787,-0.144 -1.505,0.144 -1.604,1.053 h -4.181 -1.862 c 0,0 -3.084,0.74 -5.4,0.863 -2.316,0.123 -2.123,0 -2.863,0.493 -0.74,0.493 -1.356,2.221 -2.529,2.344 -1.174,0.123 -1.294,-0.617 -2.753,-1.221 -1.459,-0.604 -1.378,0.48 -2.364,0.604 -0.986,0.123 -1.48,-0.123 -2.947,-0.369 -1.468,-0.247 -1.246,-0.37 -2.232,0 -0.986,0.369 0,0 0,0.863 0,0.863 0,0 -0.496,2.096 -0.497,2.098 -0.984,0.617 -1.971,0.863 -0.987,0.247 -1.604,1.604 -1.85,2.837 -0.247,1.233 -0.617,2.467 -1.616,4.211 -0.999,1.743 -2.454,1.71 -4.304,2.567 -1.85,0.858 -1.851,1.362 -3.824,1.238 -1.975,-0.123 -2.713,-1.233 -4.562,-2.59 -1.849,-1.355 -0.248,-2.097 -2.145,-3.209 -1.896,-1.112 -2.421,-0.49 -3.653,0 -1.233,0.49 -1.974,-0.121 -3.687,-0.747 -1.713,-0.626 -3.468,-0.73 -4.7,-0.417 -1.233,0.313 -1.85,1.413 -3.084,2.153 -1.232,0.74 -1.727,-0.37 -2.729,-0.37 -1.002,0 -2.451,0.123 -3.068,0.493 -0.616,0.37 -1.973,0 -1.973,0 0,0 -1.016,-1.075 -1.994,-1.765 -0.978,-0.69 -1.73,-0.648 -2.692,-0.701 -0.963,-0.053 -1.228,0.189 -1.228,0.189 0,0 -0.623,1.537 -0.869,1.906 -0.247,0.37 -0.986,1.233 -1.11,2.837 -0.124,1.604 -0.247,1.851 -1.155,3.083 -0.909,1.233 -1.559,1.728 -2.914,2.098 -1.355,0.369 -2.837,0.369 -3.701,0.678 -0.863,0.309 -1.603,1.295 -3.005,1.574 -1.401,0.279 -2.545,-0.156 -3.655,-0.896 -1.109,-0.739 -1.603,-0.739 -2.3,-0.616 -0.697,0.124 -0.975,2.467 -0.975,2.467 0,0 -1.165,0.987 -1.871,1.356 -0.706,0.37 -2.87,1.604 -4.597,1.974 -1.727,0.37 -3.453,0 -3.453,0 l -2.344,1.727 c 0,0 -0.494,1.233 0,2.22 0.494,0.986 1.604,1.234 2.409,2.569 0.805,1.335 0.427,3.968 0.057,5.633 -0.37,1.665 1.109,0.555 2.713,1.172 1.604,0.616 1.233,1.604 2.344,2.343 1.109,0.74 1.479,0.247 2.263,0.688 0.782,0.442 0.327,2.889 0.11,3.629 -0.216,0.739 0,3.191 0,3.191 l 0.771,1.464 c 0,0 0.926,0.524 0.857,0.925 -0.068,0.399 1.425,0.34 1.714,0.287 0.289,-0.053 1.808,0.916 2.301,1.902 0.493,0.986 0.37,1.48 1.152,2.274 0.782,0.793 2.178,0.686 3.411,1.672 1.232,0.986 1.232,0.247 1.85,1.605 0.617,1.357 -0.74,1.725 -0.74,2.939 0,1.214 0.617,1.609 0.617,1.609 0,0 3.206,2.232 3.435,2.438 0.228,0.206 4.705,1.892 4.705,1.892 0,0 -0.863,0.739 -1.803,1.109 -0.94,0.37 -1.28,1.356 -1.897,2.59 -0.616,1.234 -1.109,2.344 -0.986,2.514 0.123,0.171 0.863,0.939 1.357,0.693 0.493,-0.247 1.973,-0.693 1.973,-0.693 l 1.861,0.939 c 0,0 1.346,0.124 2.086,0.658 0.739,0.533 1.85,0.329 2.959,0.822 1.109,0.493 3.152,0.617 3.152,0.617 l 2.274,-1.439 2.695,-0.904 c 0,0 7.788,-0.74 7.995,-0.693 0.207,0.048 2.014,-0.54 2.381,-0.54 0.367,0 3.702,-0.74 4.003,-0.479 0.3,0.26 2.536,1.959 2.736,2.645 0.2,0.686 2.637,0 2.637,0 h 1.696 l 0.893,-2.535 c 0,0 2.097,-0.247 2.713,0 0.616,0.247 3.22,3.577 3.22,3.577 h 1.221 l 0.863,1.603 1.591,-1.089 h 2.232 c 0,0 2.713,0.35 4.44,0.501 1.727,0.152 1.479,-1.015 1.479,-1.015 0,0 0.863,-2.344 1.233,-2.667 0.37,-0.322 2.59,-1.157 3.207,-2.267 0.616,-1.11 1.357,-1.727 2.22,-1.414 0.863,0.312 1.11,-1.3 -0.617,-2.656 -1.727,-1.356 -0.616,-0.493 -0.719,-1.974 -0.103,-1.479 1.336,-0.246 2.446,-0.739 1.109,-0.493 -0.123,-0.863 -0.617,-2.097 -0.494,-1.234 0.37,-0.617 0.924,-1.904 0.553,-1.287 0.68,-0.439 0.939,-1.057 0.259,-0.616 -0.36,-1.818 -0.939,-1.965 -0.58,-0.145 0.433,-1.857 0.715,-2.228 0.281,-0.37 2.309,0 2.309,0 v -0.987 l 1.607,-1.356 1.012,-1.218 c 0,0 2.067,-1.372 2.067,-0.685 0,0.687 0,-1.732 0,-1.732 0,0 0.493,-0.312 0.863,-0.682 0.37,-0.37 2.343,0.863 3.083,0.659 0.74,-0.205 1.85,-0.536 2.22,-0.659 0.37,-0.123 2.714,0.659 2.714,0.659 l 0.797,-0.969 1.793,-0.801 0.765,-5.057 0.962,-1.85 1.356,-1.727 2.591,-3.423 2.759,-3.752 0.195,0.351 c -0.114,-0.205 -0.195,-0.351 -0.195,-0.351 0,0 0,-0.813 -0.722,-1.174 -0.723,-0.361 -0.873,0.271 -1.159,-1.354 -0.286,-1.625 -0.467,-1.94 0.346,-2.55 0.813,-0.61 0.893,-1.427 2.167,-1.062 1.274,0.365 1.773,0.09 3.008,-0.09 1.235,-0.181 1.326,-0.632 1.235,-1.715 -0.09,-1.084 -0.998,-2.98 -0.408,-3.611 0.589,-0.633 0.95,-2.968 0.95,-2.968 h -0.95 l 0.408,-2.728 1.092,-4.35 c 0,0 0.624,-2.505 0.714,-2.775 0.083,-0.248 2.289,-5.123 2.657,-5.935 z"
   style="fill:#677821" /><rect
   style="fill:none;stroke:#000000;stroke-width:0.29998;stroke-linejoin:bevel;stroke-dasharray:none;paint-order:stroke fill markers"
   id="rect2"
   height="4390.293"
   x="0.19998971"
   y="0.19998971"
   ry="0.69917101"
   width="4353.8188" /></svg>
