<?xml version="1.0" encoding="UTF-8" standalone="no"?>
<!-- Generator: Adobe Illustrator 22.1.0, SVG Export Plug-In . SVG Version: 6.00 Build 0)  -->

<svg
   version="1.1"
   x="0px"
   y="0px"
   viewBox="0 0 4354.1187 4390.5933"
   enable-background="new 0 0 1995.865 2834.646"
   xml:space="preserve"
   id="svg1596"
   width="4354.1187"
   height="4390.5933"
   xmlns="http://www.w3.org/2000/svg"
   xmlns:svg="http://www.w3.org/2000/svg"><defs
   id="defs1596" />


<path
   id="Staffordshire_1_"
   fill="#303B09"
   d="m 2379.5285,2749.9111 c 0.125,-0.062 0.203,-0.1 0.203,-0.1 0,0 0.904,0.987 1.342,1.233 0.437,0.247 2.287,0.617 4.383,0.74 2.098,0.123 2.235,0.43 3.955,0.894 1.719,0.463 2.705,1.696 3.938,2.189 1.233,0.494 2.098,0.617 3.084,0.124 0.06,-0.03 0.13,-0.062 0.207,-0.095 l 0.457,-0.895 -0.418,0.741 c 0,0 -0.157,-1.479 -0.387,-1.85 -0.23,-0.371 -0.017,-0.864 0,-1.728 0.017,-0.864 0.476,-0.821 0,-1.952 -0.477,-1.131 -1.303,-1.551 -1.093,-2.733 0.209,-1.184 0.426,-1.926 -0.034,-3.43 -0.46,-1.504 -0.952,-1.751 -1.138,-3.601 -0.185,-1.851 -1.788,-2.177 0,-3.247 1.788,-1.07 1.267,0.172 3.069,-0.881 1.802,-1.053 1.555,-1.053 2.049,-2.656 0.493,-1.603 0.617,-0.369 1.727,-2.096 1.11,-1.727 2.221,-3.932 0,-3.939 -2.22,-0.01 -3.487,3.671 -4.58,0.66 -1.093,-3.011 1.897,-3.873 -1.216,-4.737 -3.115,-0.864 -6.846,-0.74 -4.225,-2.96 2.621,-2.221 1.758,-2.344 3.176,-4.193 1.418,-1.851 3.069,-1.002 3.069,-2.59 0,-1.589 0.476,-3.076 2.049,-3.216 1.573,-0.14 1.974,-1.225 3.823,-0.731 1.849,0.494 2.467,0.77 3.33,2.358 0.863,1.589 0.986,3.932 2.837,2.451 1.85,-1.479 2.96,-2.437 3.206,-2.451 0.247,-0.016 3.207,-0.755 3.207,-0.755 l 3.33,-2.328 c 0,0 2.13,-0.879 2.668,-0.879 0.539,0 0.539,0 0.539,0 h 1.346 l 1.367,-1.973 1.085,-1.974 1.166,-0.463 c 0,0 1.771,0.353 2.312,0 0.541,-0.352 1.635,1.48 1.635,1.48 l 0.339,1.845 v 0.745 l -1.049,1.218 3.053,3.083 1.017,1.589 v 2.158 l 2.855,0.555 1.678,-0.555 4.255,-0.371 1.758,0.833 1.136,0.376 c 0,0 0.033,1.202 0.306,1.948 0.271,0.746 1.889,1.19 1.889,1.19 l 0.247,-0.338 c 0.493,-0.37 1.862,-0.863 2.411,-0.863 0.549,0 1.165,-0.805 2.028,-0.588 0.863,0.218 2.332,1.081 2.646,1.204 0.314,0.124 2.342,0.37 2.342,0.37 l 2.084,-0.37 3.904,-0.616 1.851,-1.48 1.973,-3.453 v -2.59 c 0,0 -0.939,-3.402 -0.84,-4.045 0.101,-0.642 0.471,-2.861 0.84,-3.232 0.37,-0.369 2.714,-2.467 2.714,-2.467 l 1.479,-0.927 1.357,-1.856 1.109,-0.596 c 0,0 0.143,0.088 0.365,0.225 l -0.365,-0.225 -0.65,-3.382 -0.184,0.245 c -0.052,0.073 -0.103,0.148 -0.152,0.226 -0.632,0.978 -1.36,0.765 -2.327,0.649 -0.967,-0.115 -2.235,-0.118 -3.347,-0.156 -1.11,-0.037 -1.48,0 -1.48,0 0,0 -0.492,-0.986 -0.862,-2.589 -0.37,-1.604 0,-1.974 -0.247,-3.05 -0.247,-1.076 -1.48,-0.65 -2.33,-0.773 -0.849,-0.124 -2.807,-0.247 -2.807,-0.247 l -0.75,-1.019 c 0,0 0.915,-0.745 0.809,-1.426 -0.106,-0.681 -0.348,-0.763 -0.348,-0.763 0,0 0.579,-1.116 0.616,-1.604 0.037,-0.488 0.142,-1.226 0.166,-1.281 0.024,-0.057 0.944,-0.815 1.348,-1.36 0.404,-0.546 -0.403,-1.059 -0.403,-1.059 0,0 0.355,-0.631 1.479,-1.356 1.124,-0.726 0.815,-1.104 0.815,-1.104 0,0 0.165,-1.473 0.326,-2.213 0.161,-0.74 0.339,-0.507 0.907,-0.486 0.568,0.021 1.405,1.336 1.922,1.269 0.516,-0.067 1.584,-1.269 1.584,-1.269 l 0.613,0.72 0.592,0.698 c 0,0 1.874,-1.191 2.445,-1.797 0.57,-0.604 1.032,-0.751 1.648,-1.899 0.617,-1.148 0.864,-1.195 1.041,-2.03 0.176,-0.835 -1.287,-0.521 -1.41,-1.015 -0.124,-0.492 -1.728,-0.247 -1.48,-0.801 0.247,-0.553 0.493,-1.79 0.873,-2.396 0.381,-0.605 2.018,-0.696 2.018,-0.696 l -1.164,-1.288 h -1.727 c 0,0 0,0 -0.74,-1.11 -0.74,-1.109 -0.172,-1.727 -1.504,-2.22 -1.333,-0.493 -0.223,-1.398 -1.949,-1.255 -1.727,0.145 -2.96,-0.089 -3.7,-0.65 -0.739,-0.562 -0.616,0.067 -1.85,0 -1.233,-0.068 -2.104,1.324 -2.471,-0.235 -0.367,-1.559 -0.243,-2.177 -0.983,-1.437 -0.739,0.74 0,2.356 -1.85,1.672 -1.85,-0.685 -1.727,-0.562 -2.96,-0.932 -1.233,-0.37 1.357,-0.246 -0.616,-1.356 -1.974,-1.11 -2.824,-1.233 -3.57,-1.851 -0.746,-0.616 -0.746,-1.232 -1.609,-0.739 -0.864,0.493 -10e-4,1.11 -0.864,0.493 -0.863,-0.617 -0.123,-1.469 -1.356,-0.673 -1.233,0.796 -1.479,1.166 -2.097,0.673 -0.616,-0.493 -1.479,0.847 -1.85,-0.995 -0.371,-1.842 -0.284,-1.102 -0.389,-2.458 -0.104,-1.357 0.019,-1.431 -0.845,-2.257 -0.863,-0.827 -0.617,0.406 -0.863,-0.827 -0.247,-1.233 -0.37,-1.479 -0.863,-2.22 -0.494,-0.74 -0.37,-0.247 0,-1.727 0.369,-1.479 -0.123,-1.357 0.616,-1.974 0.74,-0.616 -0.123,-0.246 0.74,-0.616 0.863,-0.37 1.073,0.246 1.215,-1.604 0.142,-1.851 -0.882,-1.48 0,-2.344 0.882,-0.862 1.005,-0.739 0.882,-1.603 -0.123,-0.864 -1.233,-1.11 -0.246,-2.344 0.986,-1.233 0.986,-1.158 1.726,-1.072 0.74,0.086 0.617,0.209 1.233,-0.654 0.617,-0.863 0.123,1.48 1.357,0 1.232,-1.48 0.493,-2.836 1.604,-2.59 1.109,0.246 1.603,-0.494 2.466,-0.987 0.864,-0.493 0.493,-0.731 0.617,-1.537 0.123,-0.806 -0.124,-0.56 0.247,-1.669 0.369,-1.11 0.491,-0.986 0.615,-2.344 0.124,-1.356 0.123,-0.863 0,-1.973 -0.123,-1.11 -0.246,-1.604 -1.603,-2.221 -1.356,-0.616 -1.288,-0.863 -1.445,-2.097 -0.158,-1.233 0.034,-1.233 0,-1.973 -0.034,-0.74 0.404,0.246 0,-1.233 -0.405,-1.48 -0.035,-1.357 -0.651,-2.221 -0.617,-0.863 -0.617,-0.74 -0.74,-1.85 -0.123,-1.11 -1.356,-1.109 -0.246,-1.85 1.109,-0.74 2.289,-0.494 1.638,-1.604 -0.651,-1.11 -0.281,-1.548 -0.775,-2.068 -0.494,-0.521 -1.233,-0.987 -1.974,-1.988 -0.74,-1 -0.616,-1.112 -1.11,-2.104 -0.493,-0.992 -0.123,-1.116 -0.863,-1.609 -0.74,-0.493 -0.492,-0.247 -0.246,-1.727 0.246,-1.48 0,-1.109 0.37,-2.467 0.37,-1.356 0.616,-1.233 -0.37,-2.22 -0.987,-0.986 -0.863,-0.246 -1.85,-1.85 -0.987,-1.604 -2.131,-2.837 -3.532,-3.7 -1.401,-0.864 -1.648,-1.851 -3.252,-2.467 -1.604,-0.617 -1.233,-0.493 -2.713,-0.74 -1.48,-0.247 -1.233,-1.479 -2.591,-1.603 -1.356,-0.124 -2.096,0.616 -2.59,0 -0.493,-0.617 -1.232,-0.015 -1.232,-0.015 v -0.264 l -2.161,-3.422 -1.416,1.603 -3.812,6.191 c 0,0 -1.614,-0.715 -2.516,-0.626 -0.901,0.088 -0.715,0.335 -1.358,0.362 -0.642,0.027 -1.345,-0.858 -1.345,-0.858 0,0 -0.522,0.62 -1.452,1.298 -0.93,0.678 -1.27,1.631 -1.494,2.201 -0.227,0.571 -1.096,1.545 -2.274,2.039 0,0 -3.261,0 -4.864,-0.494 -1.604,-0.493 -1.529,-0.39 -1.529,-0.39 0,0 -0.938,1.132 -1.26,0.884 -0.322,-0.248 -0.788,2.344 -0.788,2.344 l -0.74,1.171 -1.603,2.228 c 0,0 -4.07,1.658 -4.105,1.465 -0.034,-0.193 -2.062,1.837 -2.062,1.837 l -5.112,7.6 -2.288,2.049 h -4.439 c 0,0 -1.604,0.179 -1.974,0.056 -0.37,-0.124 -1.973,0 -1.973,0 l -0.124,1.973 -2.49,3.33 -1.442,0.617 -2.851,1.356 -1.11,2.96 0.123,4.81 0.247,2.344 c 0,0 0.863,6.536 0.493,6.696 -0.369,0.16 -0.863,1.566 -0.863,2.184 0,0.618 -1.1,3.329 -1.1,3.329 0,0 -0.51,-0.048 -0.781,-0.052 -0.271,0 -0.519,-1.181 -0.519,-1.181 l -0.437,-1.234 h -0.863 c 0,0 -0.124,1.357 0,1.728 0.123,0.37 0.771,0.935 0,1.447 -0.773,0.512 -0.501,0.393 -1.481,0.771 -0.98,0.38 -2.017,0.947 -2.66,1.635 -0.642,0.688 -1.272,1.861 -1.514,2.436 -0.24,0.574 -0.514,0.617 -1,1.359 -0.486,0.743 -0.271,1.598 -0.507,2.214 -0.236,0.616 -1.387,1.36 -1.387,1.36 l 0.169,1.111 c 0,0 -0.01,0.985 0.06,1.591 0.067,0.606 0.839,1.398 0.839,1.398 l 0.6,1.354 c 0,0 0.152,0.485 0.342,1.033 0.189,0.547 1.482,-0.32 2.839,-1.061 1.357,-0.741 1.233,-0.37 2.713,-0.863 1.479,-0.494 2.714,-1.727 4.81,-0.517 2.097,1.21 0.617,1.873 -0.123,3.163 -0.74,1.29 -0.74,2.287 -1.1,4.244 -0.359,1.958 -0.346,3.27 -1.3,4.208 -0.954,0.938 -0.931,-0.492 -1.3,1.444 -0.37,1.936 1.356,1.023 2.6,2.55 1.244,1.527 1.47,1.804 2.21,2.544 0.74,0.739 0.247,1.973 -0.863,2.343 -1.11,0.37 -0.616,1.233 0,1.85 0.617,0.616 3.237,2.473 3.237,2.473 0,0 2.066,2.461 3.744,4.435 1.679,1.973 1.405,1.604 1.776,3.822 0.37,2.22 0,1.604 0.123,3.207 0.123,1.604 -0.37,2.344 -1.225,3.012 -0.855,0.667 1.718,4.143 1.965,5.094 0.247,0.952 2.344,0.898 4.316,1.414 1.974,0.515 2.097,-0.393 3.576,-0.936 1.48,-0.544 0.864,0.79 1.37,1.776 0.507,0.987 -0.506,3.453 0,4.587 0.507,1.133 -0.26,5.65 0,6.235 0.26,0.585 -2.356,3.238 -2.921,3.731 -0.565,0.493 -2.889,0.493 -4.245,0.37 -1.357,-0.124 -1.727,-0.987 -3.207,-0.987 -1.479,0 -0.616,1.727 -0.493,3.399 0.124,1.672 0.37,1.041 1.247,1.549 0.876,0.509 1.343,1.343 3.35,1.835 2.006,0.494 1.2,1.233 2.434,2.96 1.233,1.726 0.863,1.11 0.863,1.892 0,0.78 -0.123,4.275 -0.617,5.262 -0.493,0.985 0.247,1.975 0,3.084 -0.247,1.11 -0.986,0.863 -2.163,1.356 -1.178,0.493 -0.92,1.356 -1.413,1.834 -0.494,0.477 -1.11,1.496 -1.974,2.731 -0.863,1.234 -0.37,1.479 0,2.56 0.37,1.081 1.11,2.125 1.392,3.235 0.282,1.111 0.828,1.604 0.652,2.281 -0.176,0.68 0.052,2.282 0,3.021 z"
   style="fill:#677821" /><rect
   style="fill:none;stroke:#000000;stroke-width:0.29998;stroke-linejoin:bevel;stroke-dasharray:none;paint-order:stroke fill markers"
   id="rect2"
   height="4390.293"
   x="0.19998971"
   y="0.19998971"
   ry="0.69917101"
   width="4353.8188" /></svg>
