<?xml version="1.0" encoding="UTF-8" standalone="no"?>
<!-- Generator: Adobe Illustrator 22.1.0, SVG Export Plug-In . SVG Version: 6.00 Build 0)  -->

<svg
   version="1.1"
   x="0px"
   y="0px"
   viewBox="0 0 4354.1187 4390.5933"
   enable-background="new 0 0 1995.865 2834.646"
   xml:space="preserve"
   id="svg1596"
   width="4354.1187"
   height="4390.5933"
   xmlns="http://www.w3.org/2000/svg"
   xmlns:svg="http://www.w3.org/2000/svg"><defs
   id="defs1596" />


<path
   id="Suffolk_1_"
   fill="#606F38"
   d="m 2830.2585,2859.6401 -1.542,-1.049 c -1.973,0.494 -1.355,0.74 -3.206,0 -1.85,-0.739 0.97,-1.356 -2.413,-0.986 -3.384,0.37 -2.619,1.479 -4.234,-0.617 -1.616,-2.096 -2.732,-2.343 -2.732,-2.343 0,0 -7.023,-0.493 -7.641,0 -0.616,0.493 -0.616,1.851 -1.604,1.356 -0.986,-0.493 -1.603,-1.233 -2.096,-0.493 -0.494,0.74 0.37,1.692 -1.357,1.524 -1.727,-0.168 -3.083,-1.277 -4.193,-1.031 -1.109,0.247 -0.369,0.952 -1.479,1.031 -1.11,0.079 -2.196,1.031 -3.195,0 -0.998,-1.031 -1.491,-0.045 -1.738,-0.908 -0.246,-0.863 -0.13,-2.22 -0.805,-3.576 -0.675,-1.356 -1.822,-3.824 -2.544,-4.07 -0.721,-0.246 -1.338,-0.488 -1.461,-2.094 -0.123,-1.605 1.603,-3.949 -0,-4.442 -1.677,-0.517 -2.842,-0.362 -4.14,-1.778 -1.203,-1.314 -1.049,-2.793 -0.127,-4.205 -0.314,-0.639 -0.123,-1.647 -0.122,-2.403 0,0 0.196,-1.728 -1.037,-2.467 -1.233,-0.74 -1.974,-1.233 -3.577,-1.233 -1.603,0 -3.576,-0.37 -4.81,0 -1.234,0.37 -1.48,0.863 -2.837,1.11 -1.357,0.247 -0.617,0.37 -2.96,1.109 -2.343,0.74 -1.11,0.987 -3.083,1.11 -1.974,0.123 -0.76,-0.369 -2.354,0.986 -1.594,1.357 -2.95,1.11 -2.95,1.11 0,0 -1.479,-0.247 -2.343,0.247 -0.863,0.493 -0.613,1.603 -1.725,0.617 -0.915,-0.812 -0.816,-1.779 -1.369,-2.733 -0.616,-1.066 -1.627,-1.31 -2.799,-1.488 -1.785,-0.272 -2.543,0.575 -4.215,1.021 -1.356,0.361 -3.247,0.456 -4.799,1.024 l 0.229,0.079 c 0.412,-1.598 0.203,-4.157 -0.894,-5.52 -0.513,-0.636 -1.27,-0.731 -1.665,-1.538 -0.468,-0.954 -0.283,-2.143 0.12,-3.056 0.917,-2.075 2.607,-3.19 3.799,-5.054 0.422,-0.661 0.777,-1.582 0.854,-2.353 0.084,-0.855 -0.286,-1.751 -0.09,-2.707 0.069,-0.338 0.312,-1.141 0.616,-1.329 0.53,-0.329 0.7,0.202 1.209,0.099 1.205,-0.248 1.056,-1.241 1.816,-1.859 1.565,-1.27 3.167,2.116 4.845,1.489 2.443,-0.913 0.847,-3.22 0.859,-4.84 0.016,-2.051 2.038,-3.516 2.812,-5.273 0.465,-1.055 0.413,-3.603 -0.31,-4.601 -1.367,-1.889 -2.492,-0.333 -4.106,-0.576 -1.559,-0.234 -1.977,-2.541 -3.699,-2.473 -0.771,0.031 -0.947,0.589 -1.824,0.339 -1.227,-0.352 -1.305,-1.214 -2.557,-0.692 -1.031,0.429 -2.057,1.6 -2.924,2.299 -1.077,0.868 -2.17,2.086 -3.312,2.817 -0.558,-2.183 -3.21,-2.931 -4.411,-4.609 0.791,-0.56 2.716,-1.397 2.357,-2.53 -0.44,-1.397 -2.39,-1.507 -1.76,-3.423 0.216,-0.655 0.857,-1.03 1.137,-1.601 0.302,-0.616 0.423,-1.327 0.593,-1.971 0.161,-0.606 0.132,-1.616 0.71,-1.883 1.495,-0.688 4.185,3.427 5.177,4.254 1.354,1.13 2.17,3.399 3.661,4.258 1.596,0.919 3.33,-0.898 4.756,-1.451 1.258,-0.488 2.84,-0.407 3.968,-1.216 0.797,-0.572 0.588,-0.876 0.766,-1.535 0.09,-0.334 0.594,-1.398 0.576,-1.806 -0.048,-1.064 -1.166,-1.085 -1.732,-1.61 -0.577,-0.534 -0.782,-1.336 -1.481,-1.851 -0.585,-0.431 -1.312,-0.75 -1.854,-1.227 -0.593,-0.521 -0.906,-1.48 -1.623,-1.838 -0.689,-0.344 -2.129,-0.121 -2.917,-0.16 0.081,-1.803 -1.295,-2.615 -0.043,-3.952 0.654,-0.699 0.742,-0.542 0.888,-1.579 0.068,-0.483 0.347,-1.724 0.076,-2.135 -0.271,-0.414 -1.784,-0.826 -2.259,-1.162 -1.367,-0.967 -2.561,-2.336 -3.213,-3.888 -0.559,-1.324 -1.099,-2.538 -1.726,-3.823 -0.387,-0.79 -1.322,-2.375 -1.226,-3.299 0.108,-1.033 1.179,-1.543 1.914,-2.181 1.861,-1.614 3.47,-3.464 6.008,-3.907 -0.229,-0.67 -0.562,-0.96 -0.228,-1.61 0.33,-0.641 1.619,-0.99 2.256,-1.052 1.176,-0.114 2.299,-0.035 3.481,-0.227 1.2,-0.193 2.251,-0.17 3.42,-0.403 0.945,-0.189 5.062,-0.94 5.454,0.231 1.115,0.508 1.011,-0.045 1.794,-0.505 0.985,-0.58 2.344,-0.439 3.46,-0.659 1.359,-0.268 2.836,-0.605 4.228,-0.424 1.546,0.2 3.849,0.792 5.421,0.252 0.866,-0.297 1.199,-1.229 2.35,-0.992 0.764,0.157 1.479,0.805 2.344,0.989 1.116,0.238 4.684,0.405 4.161,2.104 -0.305,0.989 -2.268,1.808 -2.938,2.583 -0.971,1.124 -2.109,2.175 -2.99,3.307 -2.503,3.212 1.991,2.761 3.24,4.714 l 2.74,0.616 2.893,-0.394 c 0.045,0.358 0.164,0.839 0.164,1.714 0,2.059 0.74,0.9 2.097,0 1.356,-0.901 1.727,-0.086 3.015,-0.055 1.29,0.033 2.782,-0.031 4.262,0 1.48,0.033 1.357,-0.648 2.59,-2.745 1.233,-2.097 1.11,0 2.591,0 1.479,0 0.616,1.233 0.986,1.974 0.37,0.74 1.851,0.493 3.206,0.636 1.357,0.142 2.591,0.351 4.194,0.19 1.604,-0.161 1.233,-0.333 2.836,0 1.604,0.332 1.11,1.764 2.22,2.186 1.11,0.421 1.357,1.551 2.467,1.428 1.11,-0.123 2.344,0 2.344,0 l 1.973,-0.246 c 2.097,-1.234 1.234,-0.617 3.084,-0.986 1.85,-0.37 2.96,-0.124 5.55,0 2.591,0.123 1.48,0.986 3.947,0.986 2.467,0 1.603,0.369 3.946,0.616 2.343,0.247 1.849,0.863 4.574,1.604 2.726,0.74 1.223,0.37 2.456,0.409 1.233,0.04 1.602,0 1.602,0 l 1.481,0.331 c 1.233,0 1.356,0.863 2.713,0 1.357,-0.863 1.234,-0.74 2.344,-1.604 1.11,-0.863 1.974,-0.124 3.33,-2.344 1.356,-2.22 2.097,-2.097 3.453,-2.836 1.356,-0.74 4.934,0.246 5.551,-0.987 0.616,-1.232 1.355,-1.479 2.343,-3.083 0.987,-1.603 1.233,-0.863 1.727,-2.837 0.493,-1.973 2.097,-1.973 2.097,-1.973 0,0 1.233,-0.494 2.96,-1.851 1.727,-1.357 1.727,-0.986 3.7,-2.097 1.973,-1.109 1.356,-0.493 1.48,-1.48 0.123,-0.986 -1.357,-1.109 -2.221,-1.85 -0.864,-0.741 -0.37,-0.863 1.11,-2.097 1.479,-1.233 0.863,0.74 1.356,1.851 0.494,1.109 1.356,0.986 2.59,0.986 1.234,0 0.986,0 1.604,-1.604 0.617,-1.604 0.863,-0.616 2.097,-1.109 1.233,-0.494 2.59,1.232 4.07,1.811 1.479,0.578 1.85,-0.701 2.59,-1.194 0.74,-0.493 2.59,1.356 3.946,1.183 1.356,-0.173 1.11,-1.553 1.11,-1.553 0,0 0.986,-1.356 3.547,-1.365 2.561,-0.01 1.633,0.749 2.866,2.229 1.234,1.48 0.863,0.246 3.207,-0.616 2.343,-0.863 0.863,-0.247 2.836,-0.494 1.974,-0.247 0.74,-0.123 1.641,-1.233 0.9,-1.109 -0.283,-1.603 1.32,-2.466 l 0.459,-0.864 c 0,0 -1.224,-1.11 -1.562,-1.305 -0.339,-0.194 -2.844,-1.424 -2.844,-1.424 0,0 -0.804,-2.068 -0.907,-2.187 -0.103,-0.119 -1.936,-0.904 -2.137,-1.166 -0.2,-0.263 -1.27,-3.062 -1.564,-3.354 -0.294,-0.292 -0.354,-0.468 -0.055,-0.851 0.298,-0.383 0.972,-0.637 1.864,-0.469 0.892,0.168 2.063,-0.044 2.683,-0.85 0.62,-0.806 0.989,-1.447 1.538,-1.511 0.55,-0.062 1.979,-0.051 1.979,-0.051 l 3.628,1.857 2.96,1.506 h 1.489 l 0.014,0.109 c 0.22,1.559 0.562,3.205 1.062,4.822 1.259,4.07 2.369,5.734 1.999,7.215 -0.37,1.48 -0.925,0.925 -1.295,2.22 -0.37,1.295 -1.48,3.516 -1.665,4.07 -0.186,0.555 -1.665,2.59 -1.48,3.7 0.186,1.109 -0.369,4.625 0,5.365 0.37,0.739 0.186,3.33 0,4.439 -0.185,1.11 -2.035,4.811 -2.59,5.55 -0.555,0.74 -2.035,4.811 -2.22,5.365 -0.184,0.555 -2.035,4.07 -2.22,4.81 -0.186,0.74 -1.666,2.405 -2.59,3.146 -0.926,0.74 -2.221,3.885 -2.591,4.44 -0.37,0.555 -1.479,3.515 -1.479,7.584 0,4.07 -0.926,7.216 -0.926,7.216 0,0 0.186,4.625 0.186,5.364 0,0.74 -0.74,3.516 -1.11,4.256 -0.37,0.739 -1.479,4.625 -1.479,5.18 0,0.555 -0.74,4.255 -0.74,4.81 0,0.556 -0.74,2.591 -0.925,3.7 -0.184,1.11 -0.74,4.625 -0.74,4.625 0,0 -2.035,2.405 -3.515,3.146 -1.48,0.739 -4.811,2.404 -5.365,2.59 -0.555,0.185 -2.775,0.925 -3.885,1.479 -1.11,0.556 -1.851,1.48 -2.775,2.035 -0.924,0.555 -0.925,0.37 -1.665,2.035 -0.739,1.665 -1.295,1.665 -2.405,3.7 -1.109,2.035 0,2.96 -2.035,4.995 -2.034,2.035 -2.22,1.665 -3.329,2.96 -1.11,1.295 -0.925,1.665 -2.591,3.33 -1.664,1.665 -2.959,2.59 -3.885,3.329 -0.925,0.74 -0.74,0 -1.85,1.851 -1.11,1.85 -1.295,2.96 -1.85,3.146 -0.556,0.185 -0.926,-1.11 -0.926,-2.035 0,-0.926 0.37,-1.295 -0.369,-2.221 -0.74,-0.925 -0.186,-1.109 -1.851,-1.479 -1.665,-0.37 -0.925,-0.556 -1.479,-2.22 -0.556,-1.666 0,-2.961 -0.926,-4.44 -0.925,-1.479 0.186,-0.925 -2.404,-1.851 -2.59,-0.925 -3.886,-0.739 -4.995,-1.479 -1.11,-0.74 -0.925,-0.37 -2.591,-1.295 -1.664,-0.925 -1.479,0.555 -2.59,-0.555 -1.109,-1.11 -2.774,-2.775 -2.774,-2.775 l -1.295,-1.295 -0.37,-2.96 c 0,0 -1.11,1.295 -0.926,2.22 0.186,0.925 1.48,3.146 1.851,3.886 0.37,0.739 0.74,1.664 2.22,2.404 1.48,0.74 2.221,1.11 3.33,1.48 1.11,0.369 1.48,0.555 3.146,1.109 1.665,0.556 1.85,0.74 3.515,1.48 1.665,0.74 2.405,0.37 2.405,1.665 0,1.295 -0.37,2.59 0.185,3.515 0.555,0.925 0.555,2.96 -0.37,2.59 -0.925,-0.369 -1.85,-1.665 -2.96,-1.295 -1.109,0.37 -2.035,0.926 -3.699,0.926 -1.666,0 -3.516,0.555 -4.625,-0.186 -1.11,-0.74 -0.926,-1.295 -2.035,-1.85 -1.11,-0.556 -2.59,0.369 -3.516,0.555 -0.925,0.185 0.37,2.035 -2.035,1.665 -2.404,-0.37 -3.515,0.185 -5.18,-0.185 -1.665,-0.371 -1.48,0.369 -2.775,0.369 -1.203,0 -2.885,0.799 -2.376,0.912 z"
   style="fill:#677821" /><rect
   style="fill:none;stroke:#000000;stroke-width:0.29998;stroke-linejoin:bevel;stroke-dasharray:none;paint-order:stroke fill markers"
   id="rect2"
   height="4390.293"
   x="0.19998971"
   y="0.19998971"
   ry="0.69917101"
   width="4353.8188" /></svg>
