<?xml version="1.0" encoding="UTF-8" standalone="no"?>
<!-- Generator: Adobe Illustrator 22.1.0, SVG Export Plug-In . SVG Version: 6.00 Build 0)  -->

<svg
   version="1.1"
   x="0px"
   y="0px"
   viewBox="0 0 4354.1187 4390.5933"
   enable-background="new 0 0 1995.865 2834.646"
   xml:space="preserve"
   id="svg1596"
   width="4354.1187"
   height="4390.5933"
   xmlns="http://www.w3.org/2000/svg"
   xmlns:svg="http://www.w3.org/2000/svg"><defs
   id="defs1596" />


<path
   id="Surrey_1_"
   fill="#4B5A26"
   d="m 2586.2435,3045.8131 v 0 l 4.192,1.85 h 2.344 l 1.727,1.11 h 2.22 l 2.098,-0.987 1.356,-0.492 2.466,-0.617 1.604,-0.863 c 0,0 1.11,0.493 1.604,0.74 0.493,0.246 1.48,0.74 2.221,0.74 0.739,-0 3.083,-0.494 3.083,-0.494 l 2.96,-0.123 2.097,0.617 v -2.098 c 0,0 2.59,-0.246 3.206,0 0.617,0.247 2.714,-0.109 2.714,-0.109 l 4.069,-1.617 h 2.221 0.986 l 3.33,-1.356 2.467,-1.788 1.974,-0.802 3.946,-0.863 5.427,-0.74 5.057,-1.479 2.343,-2.098 c 0,0 1.48,-1.233 1.851,-1.109 0.37,0.123 3.33,-0.74 3.33,-0.74 l 3.453,-2.836 h 1.604 l 0.986,-0.494 c 0,0 1.233,1.233 1.727,1.233 0.494,0 3.33,0.124 3.33,0.124 v 1.232 2.59 l 1.48,0.124 h 1.973 l 3.824,-0.247 2.22,1.727 3.7,-0.123 2.836,-1.48 2.837,-0.123 4.07,0.123 2.219,-0.054 c 0,0 -0.246,-1.673 0,-2.166 0.247,-0.493 -0.109,-3.946 -0.109,-3.946 l 0.197,-2.467 -1.69,-3.453 c 0,0 -0.616,-0.863 -0.616,-1.48 -10e-4,-0.616 0.333,-2.22 1.152,-4.069 0.82,-1.851 1.561,-3.33 1.684,-3.7 0.123,-0.37 0.123,-1.85 0,-2.59 -0.123,-0.74 -1.371,-6.044 -1.371,-6.044 0,0 -0.016,-2.96 0,-3.33 0.014,-0.37 -0.848,-1.479 -1.465,-1.85 -0.617,-0.371 -0.864,0 -0.864,0 l -0.739,1.974 -0.74,1.109 -0.74,-2.344 v -3.206 c 0,0 -0.491,-1.356 -0.986,-2.097 -0.494,-0.74 -0.617,-1.727 -1.728,-1.85 -1.11,-0.123 -2.097,-0.123 -2.96,0 -0.863,0.123 -0.493,-0.37 -1.604,0.74 -1.109,1.109 -1.479,1.603 -2.22,1.973 -0.739,0.37 -1.234,0.247 -1.85,0.494 -0.617,0.246 -1.458,2.22 -1.777,2.713 -0.319,0.493 -0.196,1.479 -1.183,2.343 -0.987,0.864 -2.59,1.727 -3.453,1.48 -0.864,-0.247 -2.467,-2.097 -2.467,-2.097 0,0 -1.85,-1.48 -2.098,-2.344 -0.246,-0.863 0.371,-2.343 -0.863,-3.083 -1.232,-0.74 -1.603,-1.295 -2.343,-2.312 -0.739,-1.018 -0.863,-1.634 -1.85,-1.388 -0.987,0.247 -2.467,-0.055 -2.467,-0.055 v 0.672 0.986 c 0,0 -1.11,0.493 -1.604,0.246 -0.493,-0.246 0,-0.986 0,-0.986 l 0.616,-0.918 v -0.809 l -0.836,-2.837 h -0.768 l -1.109,-2.343 -2.467,-2.455 c 0,0 -2.59,2.085 -3.083,2.825 -0.493,0.739 -2.22,3.33 -2.22,3.33 l -1.357,2.713 -0.863,0.74 -0.986,1.356 -0.863,-1.604 0.617,-3.576 0.862,-4.07 1.11,-1.316 -0.37,-0.903 -2.22,-2.296 -0.987,-0.911 -2.466,-2.467 -1.541,-0.765 -1.296,-1.455 -1.974,-0.74 -0.863,-0.74 -1.604,-1.109 h -1.85 l -1.156,-1.974 h -0.57 l -1.851,-2.097 c 0,0 -5.92,3.695 -6.413,3.328 -0.493,-0.368 -2.467,-0.861 -2.467,-0.861 l -0.812,-0.125 c -10e-4,-0.113 -0.017,-0.235 -0.05,-0.37 -0.197,-0.786 -1.021,-1.024 -0.848,-1.838 l -0.023,-0.281 -1.227,0.886 c 0,0 0.285,1.966 0,1.826 -0.284,-0.141 -3.144,-0.951 -3.144,-0.951 l -2.159,-2.603 c 0,0 -0.863,1.356 -1.418,2.22 -0.556,0.863 -2.396,2.098 -2.396,2.098 l -0.749,1.479 v 1.419 4.564 l -0.863,3.02 h -2.96 l -5.693,0.991 -4.537,2.406 -2.514,1.29 -1.698,0.549 -2.824,4.494 c 0,0.275 -1.103,1.12 -1.318,1.339 -0.391,0.396 -0.765,0.841 -1.196,1.194 -0.07,-0.096 3.249,5.25 4.98,8.037 0.165,0.264 0.329,0.528 0.494,0.793 l 0.863,2.22 v 3.33 3.083 l -0.863,2.59 c 0,0 -1.234,0.617 -1.604,0.863 -0.371,0.247 -0.863,-0.246 -1.233,0 -0.37,0.247 -1.233,-0.493 -1.48,-0.863 -0.247,-0.37 0.123,-0.863 -0.986,-1.109 -1.11,-0.247 -3.454,-0.124 -3.454,-0.124 l -1.603,0.493 -1.48,2.221 -0.616,1.603 c 0,0 -1.357,0.37 -1.851,1.233 -0.494,0.863 0.247,2.344 0.37,2.837 0.123,0.493 1.851,3.946 2.097,4.687 0.247,0.74 -0.123,2.837 -0.123,2.837 0,0 -0.616,2.837 -0.493,3.577 0.123,0.739 1.727,0.986 1.727,0.986 l 2.097,-0.617 c 0,0 0.863,-0.369 1.109,0.617 0.247,0.986 1.48,3.453 1.851,4.316 0.371,0.863 1.479,2.22 1.85,2.467 0.371,0.247 2.59,0.493 2.59,0.493 l -0.246,1.974 h -1.974 z"
   style="fill:#677821" /><rect
   style="fill:none;stroke:#000000;stroke-width:0.29998;stroke-linejoin:bevel;stroke-dasharray:none;paint-order:stroke fill markers"
   id="rect2"
   height="4390.293"
   x="0.19998971"
   y="0.19998971"
   ry="0.69917101"
   width="4353.8188" /></svg>
