<?xml version="1.0" encoding="UTF-8" standalone="no"?>
<!-- Generator: Adobe Illustrator 22.1.0, SVG Export Plug-In . SVG Version: 6.00 Build 0)  -->

<svg
   version="1.1"
   x="0px"
   y="0px"
   viewBox="0 0 4354.1187 4390.5933"
   enable-background="new 0 0 1995.865 2834.646"
   xml:space="preserve"
   id="svg1596"
   width="4354.1187"
   height="4390.5933"
   xmlns="http://www.w3.org/2000/svg"
   xmlns:svg="http://www.w3.org/2000/svg"><defs
   id="defs1596" />


<path
   id="Tyne__x26__Wear_1_"
   fill="#303B09"
   d="m 2507.9815,2202.9911 c -1.004,-2.266 -0.582,-2.078 -0.89,-3.247 -0.342,-1.295 -0.398,-3.33 -0.769,-3.885 -0.37,-0.556 -0.555,-2.591 -0.37,-3.515 0.185,-0.926 0.555,-1.296 0.925,-2.405 0.37,-1.11 0.186,-0.74 0,-1.48 -0.185,-0.739 -1.48,-2.035 -1.665,-2.96 -0.185,-0.925 0.185,-3.33 0.556,-3.515 0.369,-0.186 0.185,-2.591 0,-4.811 -0.186,-2.22 -1.11,-1.295 -1.851,-2.59 -0.74,-1.295 -1.11,-2.035 -1.665,-2.96 -0.555,-0.925 -2.035,-0.555 -2.775,-2.035 -0.532,-1.064 -1.749,-3.355 -3.285,-2.918 -1.754,0.501 -1.081,2.817 -1.919,3.912 -0.827,1.082 -2.674,1.512 -3.896,0.963 0.246,-0.32 1.271,-0.072 1.706,-0.139 0.639,-0.098 1.272,-0.327 1.666,-0.871 0.629,-0.87 0.418,-2.062 0.912,-3 0.442,-0.838 1.228,-1.369 2.081,-1.731 1.426,-0.606 1.538,-1.24 0.658,-2.563 -0.466,-0.699 -0.791,-0.988 -0.982,-1.873 -0.201,-0.932 -0.081,-2.041 -0.64,-2.879 -0.74,-1.11 -2.035,-2.59 -2.59,-4.255 -0.482,-1.446 -0.825,-2.614 -1.271,-3.745 l -0.077,0.23 -1.891,0.832 -0.74,0.925 c 0,0 -1.017,2.868 -2.588,3.515 -1.57,0.648 -1.944,-0.185 -2.406,-0.555 -0.463,-0.37 -3.053,-0.37 -3.33,-0.277 -0.277,0.093 -3.423,0.74 -3.423,0.74 l -1.572,-1.018 v -1.665 c 0,0 -1.202,-0.185 -1.758,-0.277 -0.555,-0.093 -2.59,0.093 -3.885,0.185 -1.295,0.093 -2.405,-0.092 -2.405,-0.092 l -0.462,-2.312 h -3.592 c 0,0 -3.253,0.555 -3.92,1.109 -0.666,0.555 -1.646,0.74 -1.831,1.388 -0.185,0.648 -0.37,1.295 -0.186,2.035 0.186,0.739 0.556,0.832 1.11,0.925 0.556,0.092 1.11,0.185 0.833,0.555 -0.277,0.37 0.092,1.11 0,1.48 -0.093,0.369 -1.017,1.109 -1.017,1.109 0,0 -1.851,1.018 -2.96,1.572 -1.11,0.556 -1.573,0.74 -2.683,2.035 -1.11,1.295 -1.018,1.851 -1.076,2.775 -0.058,0.924 0,1.758 0,1.758 h -2.224 v 1.295 c 0,0 -0.4,1.85 -0.123,2.127 0.277,0.277 0,2.098 0,2.098 0,0 -1.278,-0.438 -2.02,-0.446 -0.74,-0.01 -1.641,0.777 -2.235,1.3 -0.595,0.523 -1.477,0.965 -1.477,0.965 0,0 -0.188,1.079 -0.689,1.911 -0.5,0.831 -1.164,1.759 -1.977,3.146 -0.813,1.388 1.09,3.053 1.09,3.053 0,0 0.186,0.647 -0.555,1.788 -0.741,1.141 -0.832,0.617 -1.572,0.987 -0.74,0.369 -1.11,0.739 -0.865,2.309 0.245,1.568 0.495,0.743 1.605,1.299 1.109,0.555 1.387,0.369 2.001,0.555 0.614,0.186 0,1.644 0,1.644 l -0.142,0.018 c 0.846,-0.112 1.998,-0.217 2.58,-0.186 0.822,0.044 1.778,0.532 2.102,-0.01 0.322,-0.538 0.332,-0.842 1.245,-0.893 0.913,-0.05 0.853,0.6 2.043,0.07 1.189,-0.529 2.806,-1.637 3.169,-2.174 0.363,-0.537 0.692,-0.323 1.246,0 0.556,0.323 1.295,1.249 1.851,1.341 0.555,0.093 1.572,0.463 2.405,0.463 0.832,0 3.731,1.758 4.271,2.035 0.539,0.277 1.094,1.202 1.279,1.48 0.185,0.277 0.739,0.925 0.925,1.572 0.185,0.647 0,1.479 0.832,1.387 0.833,-0.092 1.665,-0.185 2.312,-0.739 0.648,-0.556 2.868,-1.665 3.423,-2.498 0.555,-0.832 1.572,-1.295 1.942,-0.925 0.37,0.37 0.283,0.647 0.512,1.388 0.229,0.741 0.506,1.479 0.413,2.497 -0.093,1.018 0.925,1.572 1.296,1.572 0.369,0 3.329,0.278 4.069,0.093 0.74,-0.185 4.163,-0.081 4.44,0.746 0.277,0.827 -0.37,3.786 0,4.064 0.369,0.277 0.74,3.237 0.925,4.255 0.185,1.018 0.648,2.867 0.925,3.793 0.277,0.924 0.832,0.924 0.647,2.404 -0.185,1.48 -0.852,1.758 0.037,1.942 0.888,0.186 2.263,0.278 4.073,0.186 1.81,-0.093 3.845,1.295 4.585,-0.278 0.739,-1.572 1.11,-1.387 1.572,-3.33 0.462,-1.941 -0.555,-2.404 0,-4.069 0.555,-1.665 1.768,-3.053 2.087,-3.053 0.318,0 4.758,-0.555 4.758,-0.555 l 3.068,-1.261 z"
   style="fill:#677821" /><rect
   style="fill:none;stroke:#000000;stroke-width:0.29998;stroke-linejoin:bevel;stroke-dasharray:none;paint-order:stroke fill markers"
   id="rect2"
   height="4390.293"
   x="0.19998971"
   y="0.19998971"
   ry="0.69917101"
   width="4353.8188" /></svg>
