<?xml version="1.0" encoding="UTF-8" standalone="no"?>
<!-- Generator: Adobe Illustrator 22.1.0, SVG Export Plug-In . SVG Version: 6.00 Build 0)  -->

<svg
   version="1.1"
   x="0px"
   y="0px"
   viewBox="0 0 4354.1187 4390.5933"
   enable-background="new 0 0 1995.865 2834.646"
   xml:space="preserve"
   id="svg1596"
   width="4354.1187"
   height="4390.5933"
   xmlns="http://www.w3.org/2000/svg"
   xmlns:svg="http://www.w3.org/2000/svg"><defs
   id="defs1596" />


<path
   id="Warwickshire_1_"
   fill="#4B5A26"
   d="m 2508.8595,2811.6431 c -0.027,-0.027 -0.042,-0.042 -0.042,-0.042 0,0 0.466,-0.494 1.15,-1.882 0.686,-1.389 1.905,-3.052 2.769,-2.93 0.863,0.123 3.207,-1.355 4.421,-2.07 1.215,-0.714 2.115,-0.766 2.115,-0.766 v -2.097 l -2.115,-2.22 -1.037,-2.713 c 0,0 0.07,-0.74 1.037,-0.74 0.969,0 1.006,-1.233 1.615,-1.604 0.608,-0.369 2.104,-1.109 2.104,-1.109 0,0 0.616,-0.864 1.927,-1.419 1.311,-0.555 1.526,-2.281 1.773,-3.989 0.246,-1.707 -0.946,-2.746 -1.773,-4.104 -0.827,-1.358 0.91,-2.327 0.909,-2.41 -0,-0.083 1.603,-2.384 1.728,-3.001 0.123,-0.617 -0.987,0 -2.857,-0.825 -1.87,-0.825 -2.693,-1.519 -3.584,-2.552 -0.892,-1.033 1.137,-1.803 1.137,-1.803 l 3.577,-1.604 3.417,-0.74 c 0,0 4.23,-1.727 4.601,-2.165 0.34,-0.403 -3.844,-6.344 -4.52,-7.298 l -0.092,-0.129 c -10.901,-18.72 -13.272,-20.501 -14.986,-21.98 -1.714,-1.48 -13.826,-9.867 -15.842,-10.854 -2.017,-0.986 -12.712,-6.044 -12.712,-6.044 0,0 -0.258,-1.658 -0.443,-2.116 -0.185,-0.459 -1.368,-1.336 -1.966,-1.923 -0.598,-0.587 -2.043,-0.784 -2.043,-0.784 v -2.453 c 0,0 -0.431,-1.356 -0.554,-2.467 -0.123,-1.111 -0.493,-1.233 -0.986,-2.59 -0.494,-1.357 0.369,-1.85 0.74,-2.446 0.369,-0.597 1.85,-1.007 2.22,-1.599 0.37,-0.592 -0.493,-2.122 -0.986,-2.861 -0.493,-0.74 -2.097,-4.316 -2.097,-4.316 l -3.084,-1.9 -1.109,0.596 -1.357,1.856 -1.479,0.927 c 0,0 -2.344,2.098 -2.714,2.467 -0.369,0.371 -0.739,2.591 -0.84,3.232 -0.1,0.643 0.84,4.045 0.84,4.045 v 2.59 l -1.973,3.453 -1.851,1.48 -3.904,0.616 -2.084,0.37 c 0,0 -2.028,-0.246 -2.342,-0.37 -0.314,-0.123 -1.783,-0.986 -2.646,-1.204 -0.863,-0.217 -1.479,0.588 -2.028,0.588 -0.549,0 -1.918,0.493 -2.411,0.863 -0.493,0.37 -0.247,0.986 0,1.27 0.247,0.282 1.479,2.553 1.479,2.553 l 0.932,2.912 1.905,2.639 c 0,0 0.37,2.221 0.548,3.297 0.179,1.076 1.056,0.534 1.056,0.534 0,0 0.246,0.609 0,1.046 -0.247,0.438 -2.22,1.352 -2.22,1.352 l 1.355,1.454 -0.117,0.298 c 2.348,6.378 4.489,6.897 4.489,6.897 v 3.006 l 2.084,2.712 1.994,3.084 0.813,0.124 2.33,0.369 c 0,0 1.974,-2.096 2.59,-2.939 0.617,-0.844 1.604,-1.746 2.017,-2.486 0.413,-0.74 1.684,0.493 2.547,0.653 0.863,0.16 1.11,0.21 1.851,0 0.739,-0.21 0.616,-0.407 1.603,0 0.987,0.406 1.604,0.457 3.391,0 1.786,-0.457 2.653,-0.407 3.353,0 0.699,0.406 2.507,1.443 3.617,1.833 1.109,0.39 1.626,-0.638 1.626,-0.638 l 3.06,-1.849 c 0,0 2.467,2.22 2.714,2.486 0.246,0.267 0.862,1.706 0.484,1.975 -0.378,0.269 2.722,0.965 2.722,0.965 l -0.412,1.11 c 0,0 -0.574,3.947 -1.067,4.81 -0.494,0.863 -0.123,3.824 -0.864,4.435 -0.741,0.609 -2.096,2.103 -2.951,2.35 -0.855,0.247 -1.364,0.123 -1.783,0.37 -0.418,0.247 -3.528,0.123 -3.528,0.123 l -1.233,1.604 -2.384,-1.11 -2.18,2.344 -1.173,-0.74 c 0,0 -1.294,-1.604 -1.663,-2.467 -0.37,-0.863 -0.863,-1.109 -2.282,-1.172 -1.419,-0.063 -2.774,-0.185 -2.899,0 -0.123,0.185 -1.3,1.542 -1.3,1.542 l -2.153,2.96 -3.33,0.247 c 0,0 -2.343,0 -2.7,0.37 -0.356,0.37 -2.807,1.727 -2.807,1.727 l -2.727,-0.494 -3.112,-0.616 c 0,0 -1.233,0.863 -1.356,1.11 -0.124,0.246 -0.74,-0.494 -0.74,-0.494 l -2.337,-1.973 -3.134,-0.986 -5.753,0.616 -4.193,-0.616 -1.964,0.863 -0.696,1.109 1.56,2.59 1.101,3.145 v 2.282 c 0,0 -0.367,2.344 -0.564,2.812 -0.197,0.468 -1.037,3.231 -0.534,3.848 0.503,0.617 -2.013,1.973 -2.013,1.973 l -4.225,1.48 c 0,0 -1.172,4.44 -1.601,4.748 -0.429,0.308 1.292,2.529 1.601,3.402 0.31,0.874 0.802,3.443 0.679,4.06 -0.124,0.616 -1.851,3.453 -1.851,3.453 0,0 -0.493,1.851 -0.429,3.822 0.064,1.973 -1.051,2.93 -1.051,2.93 h -2.383 c 0,0 0.655,1.759 1.617,1.882 0.962,0.122 1.259,-0.37 1.012,1.48 -0.247,1.85 0.37,1.479 1.851,1.958 1.479,0.479 1.479,0.879 2.068,1.248 0.589,0.37 1.748,2.467 1.748,2.467 l 1.416,-1.604 -0.453,-2.111 1.149,-0.849 c 0,0 1.471,0.493 2.537,1.974 1.065,1.48 1.4,1.727 2.443,0.863 1.043,-0.864 0.19,-1.604 1.794,-1.356 1.604,0.248 1.356,1.603 2.097,2.343 0.739,0.74 1.727,0.247 3.039,0.927 1.312,0.681 0.537,1.417 0,2.649 -0.538,1.232 0.907,0.371 1.277,0.863 0.37,0.492 1.48,-0.246 1.856,0 0.376,0.246 2.337,-0.863 2.337,-0.863 l -1.165,1.727 -0.709,0.307 c 0.398,-0.172 0.709,-0.307 0.709,-0.307 l 1.905,4.07 c 0,0 1.973,-0.123 2.769,0 0.796,0.123 0.314,4.316 0.561,5.304 0.246,0.987 2.343,-0.247 3.115,0 0.772,0.247 0.338,3.206 0.831,3.453 0.494,0.247 0.246,1.479 0.123,1.912 -0.123,0.432 0.74,1.541 1.79,2.158 1.05,0.616 2.28,0.493 2.28,0.493 0,0 1.85,-0.123 2.613,-0.246 0.765,-0.124 2.65,-0.872 2.65,-0.872 l 0.206,1.241 v 0.863 l -1.399,1.233 -1.457,3.464 -2.613,2.908 c 0,0 0.123,5.098 0,5.535 -0.123,0.438 1.693,2.646 1.693,2.646 0,0 2.13,0.616 2.87,0.74 0.482,0.08 1.251,0.843 1.728,1.363 l -0.124,-0.01 3.33,-4.07 c 0,0 0.795,-2.784 1.199,-2.625 0.403,0.158 0.897,-0.036 2.131,0 1.233,0.035 1.723,-0.581 2.033,-1.321 0.31,-0.74 0.063,-2.467 1.173,-2.22 1.11,0.246 2.343,1.357 2.836,-0.616 0.494,-1.974 2.098,-6.29 2.344,-7.03 0.247,-0.74 1.356,-6.291 1.48,-6.783 0.123,-0.494 -0.617,-2.713 0,-3.947 0.617,-1.233 0.863,-2.868 1.604,-3.346 0.741,-0.478 0.369,-1.341 2.22,-0.848 1.851,0.494 1.604,1.728 2.344,0.617 0.739,-1.11 0.616,-1.744 0.616,-3.03 0,-1.287 -1.604,-0.423 0.616,-1.04 2.221,-0.617 3.16,-1.109 3.985,0 0.825,1.11 1.072,2.344 2.429,2.96 1.356,0.617 2.11,1.195 3.541,0.493 1.432,-0.702 2.626,-0.986 1.886,-1.85 -0.74,-0.864 -1.886,-2.959 -1.886,-2.959 h -1.617 c 0,0 -1.431,0.986 -1.924,0 -0.493,-0.988 2.334,-2.468 2.334,-2.468 l 3.318,-0.553 1.378,-2.284 0.491,-2.585 0.522,-2.471 z"
   style="fill:#677821" /><rect
   style="fill:none;stroke:#000000;stroke-width:0.29998;stroke-linejoin:bevel;stroke-dasharray:none;paint-order:stroke fill markers"
   id="rect2"
   height="4390.293"
   x="0.19998971"
   y="0.19998971"
   ry="0.69917101"
   width="4353.8188" /></svg>
