<?xml version="1.0" encoding="UTF-8" standalone="no"?>
<!-- Generator: Adobe Illustrator 22.1.0, SVG Export Plug-In . SVG Version: 6.00 Build 0)  -->

<svg
   version="1.1"
   x="0px"
   y="0px"
   viewBox="0 0 4354.1187 4390.5933"
   enable-background="new 0 0 1995.865 2834.646"
   xml:space="preserve"
   id="svg1596"
   width="4354.1187"
   height="4390.5933"
   xmlns="http://www.w3.org/2000/svg"
   xmlns:svg="http://www.w3.org/2000/svg"><defs
   id="defs1596" />


<path
   id="West_Midlands_1_"
   fill="#8D9764"
   d="m 2449.9605,2722.4311 c -0.327,-0.604 -0.66,-1.205 -1.006,-1.799 -0.352,-0.604 -0.752,-1.568 -1.36,-1.908 -0.445,-0.249 -1.056,-0.436 -1.249,-0.968 -0.272,-0.746 -0.306,-1.948 -0.306,-1.948 l -1.136,-0.376 -1.758,-0.833 -4.255,0.371 -1.678,0.555 -2.855,-0.555 v -2.158 l -1.017,-1.589 -3.053,-3.083 1.049,-1.218 v -0.745 l -0.339,-1.845 c 0,0 -1.094,-1.832 -1.635,-1.48 -0.541,0.353 -2.312,0 -2.312,0 l -1.166,0.463 -1.085,1.974 -1.367,1.973 h -1.346 c 0,0 0,0 -0.539,0 -0.538,0 -2.668,0.879 -2.668,0.879 l -3.33,2.328 c 0,0 -2.96,0.739 -3.207,0.755 -0.246,0.015 -1.356,0.972 -3.206,2.451 -1.851,1.48 -1.974,-0.862 -2.837,-2.451 -0.863,-1.589 -1.48,-1.865 -3.33,-2.358 -1.85,-0.493 -2.25,0.592 -3.823,0.731 -1.573,0.139 -2.049,1.627 -2.049,3.216 0,1.588 -1.651,0.739 -3.069,2.59 -1.418,1.85 -0.555,1.973 -3.176,4.193 -2.621,2.22 1.109,2.096 4.225,2.96 3.113,0.864 0.123,1.727 1.216,4.737 1.093,3.01 2.36,-0.668 4.58,-0.66 2.221,0.01 1.11,2.213 0,3.939 -1.109,1.727 -1.233,0.493 -1.727,2.096 -0.494,1.604 -0.247,1.604 -2.049,2.656 -1.802,1.053 -1.281,-0.189 -3.069,0.881 -1.788,1.07 -0.185,1.396 0,3.247 0.186,1.85 0.678,2.097 1.138,3.601 0.46,1.504 0.243,2.246 0.034,3.43 -0.21,1.183 0.616,1.603 1.093,2.733 0.476,1.131 0.017,1.089 0,1.952 -0.017,0.863 -0.229,1.357 0,1.728 0.229,0.371 0.387,1.85 0.387,1.85 l 0.418,-0.741 -0.72,1.016 c 0.02,-0.01 0.037,-0.018 0.056,-0.026 0.986,-0.493 4.415,-1.356 4.415,-1.356 l 2.368,-0.863 c 0,0 2.219,-0.864 2.527,-1.234 0.31,-0.369 2.206,-0.616 2.121,0.247 -0.085,0.863 0.038,1.604 0.654,1.604 0.617,0 0.967,-0.247 1.532,-0.493 0.564,-0.247 2.291,-0.987 2.291,-0.987 0,0 0.74,-0.862 1.11,-0.246 0.37,0.616 0.71,2.097 0.71,2.097 l 3.606,-0.123 c 0,0 -0.124,0.739 0.616,1.232 0.741,0.494 2.098,1.725 2.098,1.725 0,0 0.74,0.494 0,0.865 -0.74,0.37 -1.727,0.369 -2.098,0.616 -0.369,0.248 -1.472,0.727 -1.472,0.727 l -1.487,0.632 0.74,1.355 c 0,0 0.24,2.344 0.983,2.467 0.743,0.123 1.696,0.615 2.515,0.616 0.818,0 2.915,0 2.915,0 0,0 1.727,-1.355 2.343,-1.479 0.617,-0.123 2.354,0.405 2.468,0.248 0.114,-0.158 1.728,-0.934 1.911,-1.207 0.185,-0.274 0.802,-1.261 0.802,-1.261 h 2.59 l 0.833,1.261 h 2.547 2.787 0.796 c 0,0 -0.673,2.562 -1.043,2.438 -0.37,-0.122 -1.974,3.331 -1.974,3.331 l -0.102,0.045 c 0.063,-0.029 0.102,-0.045 0.102,-0.045 l 4.193,0.616 5.753,-0.616 3.134,0.986 2.337,1.973 c 0,0 0.616,0.74 0.74,0.494 0.123,-0.247 1.356,-1.11 1.356,-1.11 l 3.112,0.616 2.727,0.494 c 0,0 2.451,-1.356 2.807,-1.727 0.358,-0.37 2.7,-0.37 2.7,-0.37 l 3.33,-0.247 2.153,-2.96 c 0,0 1.177,-1.357 1.3,-1.542 0.124,-0.185 1.48,-0.062 2.899,0 1.419,0.062 1.912,0.309 2.282,1.172 0.369,0.863 1.663,2.467 1.663,2.467 l 1.173,0.74 2.18,-2.344 2.384,1.11 1.233,-1.604 c 0,0 3.11,0.124 3.528,-0.123 0.419,-0.247 0.928,-0.123 1.783,-0.37 0.856,-0.247 2.21,-1.74 2.951,-2.35 0.741,-0.61 0.37,-3.571 0.864,-4.435 0.493,-0.862 1.067,-4.81 1.067,-4.81 l 0.412,-1.11 c 0,0 -3.1,-0.696 -2.722,-0.965 0.378,-0.269 -0.238,-1.708 -0.484,-1.975 -0.247,-0.267 -2.714,-2.486 -2.714,-2.486 l -3.06,1.849 c 0,0 -0.517,1.027 -1.626,0.638 -1.11,-0.39 -2.918,-1.427 -3.617,-1.833 -0.699,-0.407 -1.566,-0.457 -3.353,0 -1.787,0.457 -2.403,0.406 -3.391,0 -0.986,-0.407 -0.863,-0.21 -1.603,0 -0.74,0.21 -0.987,0.16 -1.851,0 -0.863,-0.16 -2.134,-1.394 -2.547,-0.653 -0.413,0.741 -1.399,1.643 -2.017,2.486 -0.616,0.844 -2.59,2.939 -2.59,2.939 l -2.33,-0.369 -0.813,-0.124 -1.994,-3.084 -2.084,-2.712 v -3.006 c 0,0 -2.142,-0.52 -4.489,-6.897 l 0.117,-0.298 -1.355,-1.454 c 0,0 1.973,-0.914 2.22,-1.352 0.246,-0.437 0,-1.046 0,-1.046 0,0 -0.877,0.542 -1.056,-0.534 -0.178,-1.076 -0.548,-3.297 -0.548,-3.297 l -1.905,-2.639 z"
   style="fill:#677821" /><rect
   style="fill:none;stroke:#000000;stroke-width:0.29998;stroke-linejoin:bevel;stroke-dasharray:none;paint-order:stroke fill markers"
   id="rect2"
   height="4390.293"
   x="0.19998971"
   y="0.19998971"
   ry="0.69917101"
   width="4353.8188" /></svg>
