<?xml version="1.0" encoding="UTF-8" standalone="no"?>
<!-- Generator: Adobe Illustrator 22.1.0, SVG Export Plug-In . SVG Version: 6.00 Build 0)  -->

<svg
   version="1.1"
   x="0px"
   y="0px"
   viewBox="0 0 4354.1187 4390.5933"
   enable-background="new 0 0 1995.865 2834.646"
   xml:space="preserve"
   id="svg1596"
   width="4354.1187"
   height="4390.5933"
   xmlns="http://www.w3.org/2000/svg"
   xmlns:svg="http://www.w3.org/2000/svg"><defs
   id="defs1596" />


<path
   id="West_Yorkshire_1_"
   fill="#303B09"
   d="m 2413.1265,2433.4611 c 0,0 1.19,-0.717 1.684,-1.407 0.493,-0.689 0.787,-2.479 1.565,-2.417 0.778,0.062 2.998,2.535 4.108,1.206 1.109,-1.328 1.974,-3.482 1.542,-3.979 -0.433,-0.495 0.113,-3.455 0.113,-3.455 l 2.661,-1.11 c 0,0 2.097,-1.295 0,-2.59 -2.097,-1.295 -2.097,-2.22 -1.542,-2.774 0.556,-0.556 0.925,-1.11 0.556,-2.405 -0.37,-1.295 0.678,-1.974 0.986,-3.022 0.309,-1.048 2.496,-1.048 4.085,-0.863 1.589,0.186 5.822,-1.553 5.822,-1.553 l 0.812,2.416 0.854,2.575 c 0,0 1.151,1.067 1.265,2.021 0.113,0.954 1.537,0.087 3.306,0.515 1.77,0.427 4.33,0.467 4.33,0.467 l 1.1,-0.15 3.209,1.277 3.15,-0.168 0.962,0.863 1.2,1.974 1.281,0.736 1.555,-1.353 2.097,-1.48 3.577,0.123 0.475,1.698 c 0,0 1.62,-0.835 3.224,1.879 0,0 2.143,0.751 3.691,0.37 1.548,-0.381 1.302,-1.014 2.229,-1.11 0.928,-0.097 0.684,0.341 1.303,0.677 0.62,0.335 1.332,0.596 1.661,0.535 0.33,-0.061 -0.14,-0.47 0.366,-0.842 0.508,-0.372 1.357,0.616 1.357,0.616 0.929,0.175 2.328,-0.884 3.014,-1.073 0.687,-0.191 1.273,-0.013 2.288,-0.142 1.015,-0.13 3.713,-1.259 3.713,-1.259 0,0 0.39,0.23 1.945,0.674 1.555,0.444 2.354,1.227 3.1,1.554 0.745,0.326 0.851,0.387 2.028,-0.3 1.179,-0.688 1.672,-3.646 1.672,-3.646 v -1.48 c 0,0 2.713,0.616 2.96,-0.246 0.247,-0.863 2.097,-3.084 3.33,-3.084 1.233,0 4.316,0.617 5.181,0.493 0.863,-0.123 2.588,-0.369 3.822,0.494 1.234,0.862 2.837,0.37 2.775,1.85 -0.062,1.48 1.664,1.604 0,3.083 -1.665,1.48 -2.406,1.233 -2.775,3.084 -0.369,1.85 0.066,3.826 0.033,4.133 -0.032,0.307 0.831,2.768 0.831,2.768 0,0 -0.621,1.033 -1.174,1.383 -0.554,0.35 -4.747,1.459 -4.747,1.459 l 3.824,4.576 -0.684,2.578 1.606,0.74 c 0,0 1.652,1.727 1.906,2.097 0.254,0.37 0,3.329 0,3.329 l -0.872,4.193 c 0,0 2.824,3.207 2.777,4.563 -0.048,1.356 -0.541,0.464 -1.281,1.28 -0.74,0.816 -1.48,0.323 -1.48,1.68 0,1.357 0.37,2.344 0.37,2.344 0,0 1.496,-0.478 2.221,0 0.724,0.478 2.836,3.224 2.836,3.224 0,0 -0.136,0.834 0.493,1.587 0.63,0.752 2.725,2.193 3.454,2.22 0.729,0.026 1.973,0 1.973,0 l 0.987,3.7 h -3.084 c 0,0 0.123,1.136 0,3.157 -0.123,2.022 -0.493,0.789 0,3.379 0.494,2.59 0,2.344 0,2.344 0,0 -0.74,0.368 -0.863,1.726 -0.123,1.357 2.467,3.823 2.467,5.18 l -0.092,0.027 c -0.934,0.305 -1.52,1.615 -1.758,2.81 -0.247,1.233 -0.617,2.467 -1.616,4.211 -0.999,1.743 -2.454,1.71 -4.304,2.567 -1.85,0.858 -1.851,1.362 -3.824,1.238 -1.975,-0.123 -2.713,-1.233 -4.562,-2.59 -1.849,-1.355 -0.248,-2.097 -2.145,-3.209 -1.896,-1.112 -2.421,-0.49 -3.653,0 -1.233,0.49 -1.974,-0.121 -3.687,-0.747 -1.713,-0.626 -3.468,-0.73 -4.7,-0.417 -1.233,0.313 -1.85,1.413 -3.084,2.153 -1.232,0.74 -1.727,-0.37 -2.729,-0.37 -1.002,0 -2.451,0.123 -3.068,0.493 -0.616,0.37 -1.973,0 -1.973,0 0,0 -1.016,-1.075 -1.994,-1.765 -0.978,-0.69 -1.73,-0.648 -2.692,-0.701 -0.963,-0.053 -1.228,0.189 -1.228,0.189 0,0 -0.623,1.537 -0.869,1.906 -0.247,0.37 -0.986,1.233 -1.11,2.837 -0.124,1.604 -0.247,1.851 -1.155,3.083 -0.909,1.233 -1.559,1.728 -2.914,2.098 -1.355,0.369 -2.837,0.369 -3.701,0.678 -0.863,0.309 -1.603,1.295 -3.005,1.574 -1.401,0.279 -2.545,-0.156 -3.655,-0.896 -1.109,-0.739 -1.603,-0.739 -2.3,-0.616 -0.697,0.124 -0.975,2.467 -0.975,2.467 0,0 -1.165,0.987 -1.871,1.356 -0.706,0.37 -2.87,1.604 -4.597,1.974 -1.727,0.37 -3.453,0 -3.453,0 l -2.344,1.727 c 0,0 -0.247,0.618 -0.217,1.329 v -0.589 c 0,0 0.305,0.123 -1.526,0 -1.831,-0.123 -2.448,0.241 -3.188,-1.235 -0.74,-1.479 -0.246,-2.588 -1.727,-2.588 -1.479,0 -0.37,1.48 -2.22,1.109 -1.751,-0.35 -2.397,-1.473 -3.298,-0.652 l 0.876,-0.457 c 0.045,-2.035 -2.08,-3.33 -3.113,-4.44 -1.033,-1.109 -2.481,-1.85 -2.604,-2.706 -0.123,-0.857 -2.837,-2.104 -4.255,-3.028 -1.418,-0.924 -1.542,-3.146 -1.912,-4.512 -0.37,-1.366 -2.22,-1.594 -3.738,-3.368 -1.518,-1.774 -1.997,-4.7 -2.922,-6.119 -0.925,-1.418 0.74,-3.021 0.555,-3.206 -0.185,-0.186 -1.295,-2.035 -1.788,-2.96 -0.493,-0.926 -0.617,-2.035 -1.494,-1.11 -0.879,0.925 -3.315,0.123 -4.794,1.851 -1.479,1.727 -1.358,-0.186 -2.345,-0.556 -0.987,-0.37 -1.234,-1.295 -1.604,-2.035 -0.157,-0.313 -0.48,-0.495 -0.882,-0.542 l -0.304,-0.01 c 0,0 -1.476,-1.299 -1.995,-1.854 -0.52,-0.556 -2.465,-3.333 -2.51,-4.257 -0.045,-0.924 -1.62,-1.506 0,-3.435 1.62,-1.929 1.743,-0.672 2.977,-2.503 1.234,-1.831 1.691,-3.684 1.925,-4.237 0.234,-0.553 -0.418,-1.622 0,-3.493 0.419,-1.871 0.789,-4.507 1.158,-5.594 0.371,-1.087 -0.492,-2.566 1.234,-3.122 1.727,-0.555 2.856,-1.665 5.251,-2.96 2.395,-1.295 2.704,-0.925 3.382,-2.96 0.617,-1.852 1.473,-3.534 0.384,-4.692 z"
   style="fill:#677821" /><rect
   style="fill:none;stroke:#000000;stroke-width:0.29998;stroke-linejoin:bevel;stroke-dasharray:none;paint-order:stroke fill markers"
   id="rect2"
   height="4390.293"
   x="0.19998971"
   y="0.19998971"
   ry="0.69917101"
   width="4353.8188" /></svg>
