<?xml version="1.0" encoding="UTF-8" standalone="no"?>
<!-- Generator: Adobe Illustrator 22.1.0, SVG Export Plug-In . SVG Version: 6.00 Build 0)  -->

<svg
   version="1.1"
   x="0px"
   y="0px"
   viewBox="0 0 4354.1187 4390.5933"
   enable-background="new 0 0 1995.865 2834.646"
   xml:space="preserve"
   id="svg1596"
   width="4354.1187"
   height="4390.5933"
   xmlns="http://www.w3.org/2000/svg"
   xmlns:svg="http://www.w3.org/2000/svg"><defs
   id="defs1596" />


<path
   id="West_Sussex_1_"
   fill="#606F38"
   d="m 2561.7975,3098.3281 c 0.296,-0.173 0.161,-0.259 -0.159,0.701 -0.555,1.665 -0.74,1.295 -0.74,2.96 0,1.665 0.556,1.665 1.11,2.035 0.556,0.37 0.925,0.74 1.665,1.85 0.74,1.11 1.295,0.555 1.48,0 0.185,-0.555 0.74,-1.479 0.555,-3.33 -0.186,-1.85 -0.74,-2.035 -0.186,-3.699 0.556,-1.666 0,0 2.035,0.739 2.035,0.74 0,0 0,1.851 0,1.85 0,0 0.556,1.109 0.555,1.11 0.739,1.11 2.22,0.74 1.481,-0.37 0,0 -0.186,-0.555 -0.185,-0.556 0.556,-1.295 0.74,-2.221 0.186,-0.925 -0.555,-1.664 0.37,-2.404 0.925,-0.74 1.11,0.74 1.11,2.404 0,1.665 0,0 0,0.926 0,0.925 0,0 -0.74,0.925 -0.74,0.925 -0.37,0.925 0,2.405 0.37,1.479 0,0 1.11,0.185 1.11,0.185 1.295,0 2.59,-0.185 1.295,-0.186 1.295,-1.11 1.665,-2.035 0.37,-0.926 1.295,-2.405 1.295,-2.405 0,0 0.37,1.11 0.186,1.665 -0.186,0.555 -0.371,1.665 -0.556,2.405 -0.185,0.739 -0.925,1.109 -1.665,1.665 -0.74,0.555 -1.48,0.739 -2.22,0.555 -0.74,-0.186 -3.145,-0.37 -5.181,-1.295 -2.034,-0.925 0,0 -0.555,1.109 -0.555,1.11 -0.555,1.48 -0.74,2.405 -0.185,0.925 -1.479,0.74 -1.479,0.74 l -1.295,0.555 c 0,0 -0.184,1.295 0.555,2.22 0.74,0.926 2.22,1.11 3.33,1.851 1.11,0.741 4.995,2.405 5.92,2.96 0.925,0.555 2.59,2.405 3.515,3.7 0.926,1.295 3.146,2.405 3.886,2.405 0.739,0 1.85,-2.775 2.59,-3.886 0.74,-1.109 2.035,-4.069 2.405,-4.81 0.369,-0.74 3.145,-1.665 4.44,-2.035 1.295,-0.37 5.735,-2.22 6.475,-2.22 0.74,0 7.4,-1.295 9.065,-1.665 1.665,-0.37 4.07,-1.665 5.55,-1.851 1.48,-0.185 7.03,-0.555 7.586,-0.37 0.555,0.186 10.359,-0.369 11.654,-0.555 1.295,-0.185 4.255,-0.74 5.92,-0.925 1.665,-0.185 3.885,-0.925 5.551,-1.665 1.664,-0.74 1.664,-0.925 3.515,-1.295 1.85,-0.37 4.995,-0.925 6.475,-0.925 1.48,0 4.255,0.185 5.181,0.37 0.158,0.031 0.451,0.074 0.836,0.123 l 0.026,-0.244 c 0,0 0.124,-1.727 0.124,-2.344 0,-0.617 -1.357,-1.356 -1.357,-1.356 0,0 -1.727,-3.823 -1.85,-4.44 -0.123,-0.616 0.246,-1.109 1.604,-1.479 1.355,-0.37 0.986,-0.247 2.097,0.38 1.109,0.627 2.097,-0.133 3.083,-0.01 0.986,0.123 0.37,-0.863 0.617,-2.088 0.246,-1.225 0.369,-0.626 1.479,-0.626 1.11,0 2.96,0.493 3.453,0.617 0.493,0.124 1.479,-1.11 1.479,-1.11 l 0.74,-2.22 c 0,0 0.247,-1.851 0.247,-2.344 0,-0.493 0.37,-2.836 0.37,-2.836 l 1.109,-2.837 c 0,0 0.494,-1.11 0.987,-1.604 0.493,-0.494 0.863,-3.207 0.863,-3.207 0,0 -0.493,-1.603 -0.863,-1.973 -0.37,-0.37 0.123,-1.974 0.493,-2.714 0.37,-0.74 1.48,0 1.48,0 0,0 0.986,-0.74 1.479,-1.479 0.493,-0.74 0.863,-0.37 1.727,-0.37 0.864,0 0.863,0.616 1.233,0.863 0.37,0.247 1.11,0.986 1.11,0.986 h 3.206 l 1.48,-0.74 c 0,0 0.123,-1.479 0.246,-2.466 0.123,-0.987 -0.123,-2.221 -0.123,-3.454 0,-1.233 -0.123,-2.466 -0.123,-2.466 0,0 0.123,-0.987 0.986,-1.48 0.863,-0.493 0.863,-0.863 1.11,-1.727 0.246,-0.863 -0.37,-1.48 0.123,-1.85 0.494,-0.371 1.11,-0.863 1.233,-1.48 0.124,-0.617 0.987,-0.617 0.987,-0.617 l -0.247,-0.863 c 0,0 -2.344,0.494 -2.59,0 -0.247,-0.492 -0.493,-3.206 -0.493,-3.206 l -1.974,-1.48 c 0,0 -0.74,-1.479 -0.617,-2.22 0.124,-0.74 3.084,-1.48 3.084,-1.48 0,0 2.22,-1.85 3.453,-1.85 1.233,0 2.467,-0.493 2.467,-0.493 v -1.356 c 0,0 -0.987,-1.851 -0.74,-2.837 0.247,-0.986 0.74,-2.714 0.74,-2.714 l -4.07,-0.123 -2.837,0.123 -2.836,1.48 -3.7,0.123 -2.22,-1.727 -3.824,0.247 h -1.973 l -1.48,-0.124 v -2.59 -1.232 c 0,0 -2.837,-0.124 -3.33,-0.124 -0.493,0 -1.727,-1.233 -1.727,-1.233 l -0.986,0.494 h -1.604 l -3.453,2.836 c 0,0 -2.96,0.863 -3.33,0.74 -0.37,-0.124 -1.851,1.109 -1.851,1.109 l -2.343,2.098 -5.057,1.479 -5.427,0.74 -3.946,0.863 -1.974,0.802 -2.467,1.788 -3.33,1.356 h -0.986 -2.221 l -4.069,1.617 c 0,0 -2.097,0.356 -2.714,0.109 -0.616,-0.246 -3.206,0 -3.206,0 v 2.098 l -2.097,-0.617 -2.96,0.123 c 0,0 -2.344,0.493 -3.083,0.494 -0.74,0 -1.728,-0.494 -2.221,-0.74 -0.493,-0.247 -1.604,-0.74 -1.604,-0.74 l -1.604,0.863 -2.466,0.617 -1.356,0.492 -2.098,0.987 h -2.22 l -1.727,-1.11 h -2.344 l -4.192,-1.85 -0.04,-0.138 c 0.025,0.088 0.04,0.138 0.04,0.138 l -3.7,3.577 c 0,0 -1.481,1.727 -1.851,1.85 -0.369,0.123 -1.604,0.247 -2.467,0 -0.863,-0.247 -1.479,-0.493 -1.727,-0.863 -0.246,-0.37 -1.479,-0.124 -1.479,-0.124 l -0.987,1.13 -0.369,3.435 -2.098,2.22 -2.713,2.466 -0.863,4.317 -1.479,1.727 -0.37,0.616 -0.987,4.193 -0.739,1.974 -1.233,1.479 c 0,0 0.493,1.727 0,2.098 -0.494,0.369 -1.233,0.986 -1.233,0.986 0,0 1.109,1.727 1.233,2.22 0.123,0.493 0.123,2.22 0.123,2.22 0,0 -1.109,1.604 -1.604,1.604 -0.493,0 -1.109,5.057 -1.109,5.057 l 0.986,2.714 1.356,2.59 -0.986,5.056 z"
   style="fill:#677821" /><rect
   style="fill:none;stroke:#000000;stroke-width:0.29998;stroke-linejoin:bevel;stroke-dasharray:none;paint-order:stroke fill markers"
   id="rect2"
   height="4390.293"
   x="0.19998971"
   y="0.19998971"
   ry="0.69917101"
   width="4353.8188" /></svg>
