<?xml version="1.0" encoding="UTF-8" standalone="no"?>
<!-- Generator: Adobe Illustrator 22.1.0, SVG Export Plug-In . SVG Version: 6.00 Build 0)  -->

<svg
   version="1.1"
   x="0px"
   y="0px"
   viewBox="0 0 4354.1187 4390.5933"
   enable-background="new 0 0 1995.865 2834.646"
   xml:space="preserve"
   id="svg1596"
   width="4354.1187"
   height="4390.5933"
   xmlns="http://www.w3.org/2000/svg"
   xmlns:svg="http://www.w3.org/2000/svg"><defs
   id="defs1596" />


<path
   id="Wiltshire_1_"
   fill="#8D9764"
   d="m 2475.1825,2952.6951 c -0.055,1.261 -0.063,2.466 -0.063,2.466 0,0 -0.123,3.207 0.493,4.07 0.617,0.863 2.837,2.713 2.837,2.713 l 0.616,1.974 1.233,1.974 2.344,1.356 -0.124,1.974 -0.123,1.356 0.247,1.233 -3.577,0.74 -1.727,-0.74 -0.37,0.986 0.247,2.097 1.727,2.467 0.617,1.479 1.604,2.098 1.973,1.603 1.85,1.48 1.974,1.85 -0.246,1.851 0.986,1.85 v 1.85 l -0.986,1.851 -3.207,-1.851 -0.987,1.604 -0.369,2.467 0.493,2.467 0.863,2.221 v 1.85 l -1.604,1.232 -0.616,1.11 0.616,1.851 v 0.986 1.604 1.973 l -1.603,0.74 -1.234,-0.246 -2.22,-0.494 -2.219,-0.739 -2.837,1.356 -3.33,6.414 -2.961,0.616 h -4.193 l -0.616,0.863 0.616,2.837 3.084,2.343 -0.494,1.48 -0.246,1.11 0.863,1.85 1.11,3.083 c 0,0 -0.247,1.356 -0.37,1.851 -0.123,0.492 -0.247,2.836 -0.247,2.836 l 1.851,0.863 2.713,1.727 -0.74,1.233 v 1.974 l -0.246,3.576 c 0,0 0.369,1.974 0.246,2.467 -0.123,0.494 0,4.563 0,4.563 l 0.863,4.811 1.11,0.862 h 1.11 l 1.232,1.48 v 2.344 c 0,0 -0.369,0.986 -1.85,1.604 -1.48,0.616 -1.726,1.356 -1.48,2.836 0.247,1.48 1.728,1.727 2.098,2.221 0.369,0.493 -0.494,3.453 -0.987,4.193 -0.493,0.74 -1.233,0.863 -1.85,0.863 -0.617,0 -1.604,0.739 -1.974,1.356 -0.37,0.616 -2.343,0.616 -3.083,0.616 -0.74,0 -2.097,-1.109 -3.33,-2.343 -1.233,-1.234 -2.467,-3.083 -3.083,-3.823 -0.617,-0.74 -1.357,-0.617 -1.357,-0.617 0,0 -2.343,0.247 -3.576,0 -1.233,-0.246 -2.96,-1.356 -2.96,-1.356 l -2.344,-1.11 h -1.85 l -1.851,0.494 -2.59,-4.07 h -0.863 c 0,0 -1.604,1.233 -2.097,1.85 -0.493,0.617 -1.727,2.837 -1.727,2.837 v -3.453 c 0,0 -0.986,-0.124 -1.479,0 -0.494,0.123 -6.783,0 -6.783,0 l -1.929,2.591 h -1.648 l -1.109,-0.165 c -0.352,0 -0.771,0.038 -1.233,0.165 -1.357,0.369 -1.851,1.603 -2.591,2.59 -0.739,0.986 -2.097,0.369 -2.96,0.493 -0.863,0.123 -3.083,1.11 -3.083,1.11 l -2.96,3.329 -3.7,1.001 -2.714,-1.124 -1.109,-4.069 -2.22,-1.975 c 0,0 -3.083,-2.466 -3.454,-2.713 -0.369,-0.246 -1.973,-3.576 -1.973,-3.576 l -1.604,-1.851 v -2.22 l -1.974,-3.33 -1.604,-1.233 c 0,0 -3.33,-3.577 -4.069,-3.946 -0.74,-0.37 -3.7,0.123 -4.316,-0.247 -0.617,-0.37 -1.851,-0.986 -1.851,-0.986 l -3.823,-0.863 h -1.233 c 0,0 -0.052,0.036 -0.136,0.097 l 0.136,-0.097 c 0,0 -0.123,-0.495 -0.739,-0.864 -0.617,-0.37 -0.322,-0.493 -1.394,-1.11 -1.072,-0.616 -0.826,1.159 -1.812,-1.455 -0.986,-2.614 -1.356,-3.093 -0.863,-3.964 0.493,-0.871 1.543,-1.241 1.511,-1.98 -0.032,-0.739 0.244,-2.105 0.785,-2.656 0.541,-0.551 0.911,-0.674 1.651,-2.154 0.739,-1.479 -0.11,-1.18 1.239,-3.057 1.351,-1.877 1.076,-1.506 2.385,-3.356 1.309,-1.85 2.172,-2.483 2.912,-4.325 0.739,-1.842 1.691,-2.544 1.956,-4.352 0.264,-1.807 1.18,-4.396 1.338,-4.89 0.159,-0.493 1.393,-1.48 1.763,-3.577 0.37,-2.097 1.11,-2.714 0,-5.18 -1.11,-2.467 -0.071,-3.138 -1.763,-3.296 -1.691,-0.157 -2.929,-1.058 -2.929,-1.058 l 0.575,-1.443 0.07,-0.733 0.469,-0.13 -0.539,-1.604 -1.82,-0.97 -1.888,-3.446 -2.529,-1.627 h -1.69 l -0.82,-0.863 0.417,-0.719 2.333,-0.275 1.852,-0.463 1.294,-0.64 0.556,-1.233 0.493,-4.07 c 0,0 -0.493,-2.495 -0.37,-2.543 0.123,-0.047 1.48,-1.156 1.48,-1.156 l 0.693,-3.454 c 0,0 -0.324,-1.356 -1.064,-1.727 -0.342,-0.171 -0.848,-0.315 -1.347,-0.361 l 0.36,0.238 0.74,-4.563 c 0,0 0.493,-1.608 0,-2.346 -0.493,-0.738 -1.109,-2.342 -0.74,-2.958 0.371,-0.616 0.97,-2.59 0.424,-3.083 -0.547,-0.493 -2.52,-0.924 -2.52,-0.924 l -0.74,-2.283 1.897,-1.988 c 0,0 3.732,-2.129 3.888,-2.145 0.154,-0.016 2.108,0.187 2.108,0.187 0,0 -0.079,-1.339 0.084,-1.964 0.162,-0.626 1.272,-2.477 0.655,-2.6 -0.616,-0.123 -1.182,0.74 -1.393,-0.616 -0.21,-1.356 0,-2.097 0,-2.097 v -1.974 -2.207 l -1.338,-2.479 c 0,0 3.718,-1.03 5.197,-2.18 1.481,-1.15 2.714,-2.014 2.714,-2.014 0,0 1.109,0.493 1.85,0.986 0.74,0.494 2.427,-0.247 3.372,0 0.945,0.247 2.055,1.807 3.041,1.027 0.987,-0.78 11.632,-15.106 11.632,-15.106 l 3.785,0.854 c 0,0 3.148,2.002 4.596,2.248 1.448,0.246 1.571,0.74 1.941,0.74 0.37,0 1.85,0.832 1.85,0.832 l 0.517,0.541 c 0,0 0.702,-0.086 1.456,-0.125 0.754,-0.039 -0.371,-1.248 0,-2.234 0.37,-0.987 -0.085,-2.26 0.267,-2.856 0.351,-0.597 0.933,-1.831 1.382,-1.461 0.449,0.37 3.902,1.3 5.013,2.315 1.109,1.015 2.843,0 2.843,0 l -1.655,-2.383 -0.324,-1.002 c 0,0 2.664,-2.137 3.367,-1.644 0.702,0.493 3.415,3.784 3.785,4.174 0.371,0.39 1.48,0.949 2.221,0.854 0.74,-0.096 2.097,-0.854 2.097,-0.854 v -5.216 l 0.37,-2.325 v -1.196 h 1.356 l 0.862,5.303 2.063,2.938 c 0,0 0.167,-0.882 0.65,-1.088 0.483,-0.206 1.963,0.726 3.017,0.906 1.053,0.182 2.53,0.044 3.104,-0.263 0.573,-0.307 2.491,-1.154 2.491,-1.154 l 0.88,-1.957 0.374,-1.232 2.441,0.068 0.059,-0.098 c -0.328,0.545 -0.656,1.125 -0.738,1.393 -0.178,0.576 0.212,6.603 0.212,6.603 l 2.669,1.082 c 1.066,2.388 0.414,4.396 0.414,4.396 0,0 0.21,1.117 0.131,1.853 -0.078,0.735 -2.227,1.601 -2.227,1.601 l -0.987,5.474 1.297,1.058 1.047,1.238 h 1.974 0.953 l 7.494,11.49 h 1.728 z"
   style="fill:#677821" /><rect
   style="fill:none;stroke:#000000;stroke-width:0.29998;stroke-linejoin:bevel;stroke-dasharray:none;paint-order:stroke fill markers"
   id="rect2"
   height="4390.293"
   x="0.19998971"
   y="0.19998971"
   ry="0.69917101"
   width="4353.8188" /></svg>
