<?xml version="1.0" encoding="UTF-8" standalone="no"?>
<!-- Generator: Adobe Illustrator 22.1.0, SVG Export Plug-In . SVG Version: 6.00 Build 0)  -->

<svg
   version="1.1"
   x="0px"
   y="0px"
   viewBox="0 0 4354.1187 4390.5933"
   enable-background="new 0 0 1995.865 2834.646"
   xml:space="preserve"
   id="svg1596"
   width="4354.1187"
   height="4390.5933"
   xmlns="http://www.w3.org/2000/svg"
   xmlns:svg="http://www.w3.org/2000/svg"><defs
   id="defs1596" />


<path
   id="Worcestershire_1_"
   fill="#606F38"
   d="m 2436.3045,2767.3491 c -0.561,0.247 -1.628,0.717 -1.628,0.717 l -0.696,1.109 1.56,2.59 1.101,3.145 v 2.282 c 0,0 -0.367,2.344 -0.564,2.812 -0.197,0.468 -1.037,3.231 -0.534,3.848 0.503,0.617 -2.013,1.973 -2.013,1.973 l -4.225,1.48 c 0,0 -1.172,4.44 -1.601,4.748 -0.429,0.308 1.292,2.529 1.601,3.402 0.31,0.874 0.802,3.443 0.679,4.06 -0.124,0.616 -1.851,3.453 -1.851,3.453 0,0 -0.493,1.851 -0.429,3.822 0.064,1.973 -1.051,2.93 -1.051,2.93 h -2.383 c 0,0 0.655,1.759 1.617,1.882 0.962,0.122 1.259,-0.37 1.012,1.48 -0.247,1.85 0.37,1.479 1.851,1.958 1.479,0.479 1.479,0.879 2.068,1.248 0.589,0.37 1.748,2.467 1.748,2.467 l 1.416,-1.604 -0.453,-2.111 1.149,-0.849 c 0,0 1.471,0.493 2.537,1.974 1.065,1.48 1.4,1.727 2.443,0.863 1.043,-0.864 0.19,-1.604 1.794,-1.356 1.604,0.248 1.356,1.603 2.097,2.343 0.739,0.74 1.727,0.247 3.039,0.927 1.312,0.681 0.537,1.417 0,2.649 -0.538,1.232 0.907,0.371 1.277,0.863 0.37,0.492 1.48,-0.246 1.856,0 0.376,0.246 2.337,-0.863 2.337,-0.863 l -1.165,1.727 0.082,0.176 c -0.053,-0.111 -0.082,-0.176 -0.082,-0.176 l -2.411,1.04 -2.345,1.921 -1.479,2.467 c 0,0 -0.494,0.453 -0.863,1.027 -0.371,0.575 -1.357,1.439 -1.851,1.932 -0.493,0.494 -1.11,-0.616 -2.097,-0.246 -0.986,0.369 -2.344,1.232 -2.713,1.479 -0.37,0.247 0,2.467 0,2.467 0,0 3.188,1.851 3.505,2.652 0.317,0.801 1.903,2.034 1.903,2.034 l -0.846,3.824 c 0,0 0.228,2.857 -1.058,2.477 -1.286,-0.38 -3.218,-0.997 -3.67,-1.737 -0.452,-0.739 -1.919,-2.96 -2.912,-3.577 -0.993,-0.616 -1.979,-1.125 -2.967,-1.487 -0.986,-0.362 -1.784,0.501 -1.784,0.501 l -1.053,1.233 -1.232,-0.123 c 0,0 -3.654,-0.494 -3.924,-0.37 -0.27,0.123 -2.12,0.123 -2.12,0.123 0,0 -4.81,5.818 -5.427,5.438 -0.616,-0.381 -1.387,1.593 -1.387,1.593 l -3.423,-1.593 c 0,0 0.127,-1.49 -0.8,-1.367 -0.927,0.123 -4.38,0.493 -4.38,0.493 h -3.454 l -2.713,1.728 -1.11,0.122 0.863,-2.59 c 0,0 0.118,-2.457 0.739,-2.467 0.621,-0.01 1.494,0.302 1.494,0.302 l 1.639,-1.974 0.115,-1.657 0.194,-0.925 -3.935,-0.486 h -3.658 l -1.275,1.812 c 0,0 0.493,2.683 0.617,3.176 0.123,0.494 -1.234,2.189 -1.234,2.189 l 1.893,2.285 0.883,1.137 0.479,0.556 c 0,0 -0.335,0.492 -1.362,0.616 -1.029,0.124 -1.893,-0.616 -1.893,-0.616 0,0 -0.986,0.245 -1.85,0.616 -0.864,0.371 -1.85,0.246 -1.974,0 -0.123,-0.246 0.3,-0.246 -0.897,0.371 -1.199,0.615 -0.952,1.232 -1.568,2.096 -0.617,0.863 -0.679,0.986 -1.265,2.097 -0.586,1.11 -0.411,1.48 -2.349,1.48 -1.938,0 -4.033,0.123 -5.514,-0.247 -1.481,-0.37 -2.098,-0.74 -2.344,-1.85 -0.246,-1.11 0.124,-5.057 -0.739,-5.92 -0.864,-0.863 -1.604,-1.11 -1.604,-1.11 l -1.355,-0.74 c 0,0 -0.395,-1.85 -1,-1.727 -0.111,0.022 -0.307,0.096 -0.552,0.2 l 0.552,-0.2 c 0,0 0.753,-2.466 0.753,-3.452 0,-0.986 -0.247,-3.703 0,-4.75 0.247,-1.047 1.356,-1.047 1.356,-3.514 0,-2.467 -0.383,-2.962 -1.055,-4.688 -0.672,-1.726 -1.189,-3.825 -1.055,-5.797 0.137,-1.973 1.469,-4.439 0,-5.672 -1.467,-1.233 -1.59,-1.511 -3.811,-0.879 -2.22,0.632 -3.207,1.865 -4.316,0.632 -1.11,-1.233 -2.96,-3.638 -2.344,-4.718 0.617,-1.079 1.48,-0.963 2.098,-3.303 0.616,-2.34 2.286,-3.543 2.286,-3.543 0,0 -0.83,-0.283 -0.437,-1.141 0.393,-0.858 0.498,-0.492 -0.014,-1.48 -0.512,-0.987 -0.624,-1.674 0,-1.973 0.624,-0.3 0.444,0.213 0.969,-0.387 0.525,-0.6 0.832,-1.093 0,-1.34 -0.832,-0.246 -2.066,0 -2.436,-0.616 -0.369,-0.616 -0.556,-0.987 -1.819,-0.863 -1.263,0.124 -0.771,0.075 -3.114,-0.024 -2.343,-0.099 -3.329,1.628 -2.836,-1.579 0.493,-3.206 0.37,-2.839 2.343,-4.009 1.974,-1.171 3.7,-0.68 2.467,-2.652 -1.233,-1.972 -2.011,-3.452 -3.903,-2.959 -1.893,0.493 -1.769,0.371 -3.373,1.727 -1.604,1.357 -1.501,1.851 -1.121,2.714 0.381,0.863 1.12,0.493 -1.1,1.974 -2.22,1.479 -3.699,1.85 -5.426,1.85 -1.727,0 -3.046,-0.246 -3.046,-0.246 0,0 -1.015,0.616 -2.068,0.986 -1.053,0.369 -3.15,1.366 -3.15,1.366 0,0 -1.603,-0.38 -2.344,-0.503 -0.74,-0.124 -1.604,0.123 -1.604,-0.863 0,-0.986 -0.716,-1.604 0.629,-2.714 1.345,-1.11 1.099,-1.11 2.332,-2.097 1.232,-0.986 2.343,-1.603 1.727,-2.467 -0.617,-0.863 -1.851,-0.741 -2.96,-0.987 -1.11,-0.246 -3.354,-0.862 -3.589,-1.726 -0.234,-0.863 -1.468,-0.867 -1.222,-1.544 0.247,-0.677 1.222,-1.419 1.222,-1.419 0,0 3.031,0.072 4.723,-0.533 1.689,-0.604 3.068,-1.557 4.235,-1.498 1.167,0.061 2.068,0.373 2.068,0.373 0,0 1.195,-0.436 1.195,-1.053 0,-0.616 -0.123,-1.357 0,-1.974 0.123,-0.617 0.247,-1.233 0.74,-1.85 0.493,-0.617 0.123,-1.109 1.11,-1.356 0.986,-0.246 1.232,-1.11 1.973,-0.617 0.74,0.494 0.863,0.494 1.604,1.234 0.741,0.74 1.85,1.479 1.85,1.479 l 2.344,-0.74 0.867,0.493 c 0,0 -0.367,-1.603 0,-1.973 0.366,-0.37 0,-2.961 0,-2.961 l -0.131,-0.414 c 0,0 -0.821,-1.405 0.131,-1.405 0.951,0 2.383,0 2.383,0 l 4.027,-0.646 h 2.59 c 0,0 0.986,-2.22 0.863,-2.96 -0.124,-0.74 -0.494,-0.741 0.492,-0.864 0.987,-0.122 2.468,-0 3.084,0 0.617,0 1.233,0.876 2.221,-0.055 0.986,-0.931 2.343,0 2.343,0 0,0 0.37,0.437 1.356,-0.414 0.986,-0.851 1.357,-0.641 0,-1.011 -1.356,-0.369 -1.254,-0.809 -1.86,-0.959 -0.606,-0.15 -1.223,1.329 -1.47,-0.521 -0.246,-1.851 -1.835,-2.715 -0.979,-3.454 0.856,-0.739 1.533,-0.979 1.178,-2.006 -0.356,-1.026 -0.356,-1.026 -0.356,-1.026 l -0.674,-2.549 c 0,0 0.586,0.091 1.572,0 0.986,-0.092 2.959,0.896 4.07,0.648 1.109,-0.247 2.467,-1.11 2.713,-1.48 0.247,-0.37 2.045,-1.233 2.045,-1.233 0,0 0.904,0.987 1.342,1.233 0.437,0.247 2.287,0.617 4.383,0.74 2.098,0.123 2.235,0.43 3.955,0.894 1.719,0.463 2.705,1.696 3.938,2.189 1.233,0.494 2.098,0.617 3.084,0.124 0.986,-0.493 4.415,-1.356 4.415,-1.356 l 2.368,-0.863 c 0,0 2.219,-0.864 2.527,-1.234 0.31,-0.369 2.206,-0.616 2.121,0.247 -0.085,0.863 0.038,1.604 0.654,1.604 0.617,0 0.967,-0.247 1.532,-0.493 0.564,-0.247 2.291,-0.987 2.291,-0.987 0,0 0.74,-0.862 1.11,-0.246 0.37,0.616 0.71,2.097 0.71,2.097 l 3.606,-0.123 c 0,0 -0.124,0.739 0.616,1.232 0.741,0.494 2.098,1.725 2.098,1.725 0,0 0.74,0.494 0,0.865 -0.74,0.37 -1.727,0.369 -2.098,0.616 -0.369,0.248 -1.472,0.727 -1.472,0.727 l -1.487,0.632 0.74,1.355 c 0,0 0.24,2.344 0.983,2.467 0.743,0.123 1.696,0.615 2.515,0.616 0.818,0 2.915,0 2.915,0 0,0 1.727,-1.355 2.343,-1.479 0.617,-0.123 2.354,0.405 2.468,0.248 0.114,-0.158 1.728,-0.934 1.911,-1.207 0.185,-0.274 0.802,-1.261 0.802,-1.261 h 2.59 l 0.833,1.261 h 2.547 2.787 0.796 c 0,0 -0.673,2.562 -1.043,2.438 -0.37,-0.122 -1.974,3.331 -1.974,3.331 z"
   style="fill:#677821" /><rect
   style="fill:none;stroke:#000000;stroke-width:0.29998;stroke-linejoin:bevel;stroke-dasharray:none;paint-order:stroke fill markers"
   id="rect2"
   height="4390.293"
   x="0.19998971"
   y="0.19998971"
   ry="0.69917101"
   width="4353.8188" /></svg>
