<?xml version="1.0" encoding="UTF-8" standalone="no"?>
<!-- Generator: Adobe Illustrator 22.1.0, SVG Export Plug-In . SVG Version: 6.00 Build 0)  -->

<svg
   version="1.1"
   x="0px"
   y="0px"
   viewBox="0 0 4354.1187 4390.5933"
   enable-background="new 0 0 1995.865 2834.646"
   xml:space="preserve"
   id="svg1596"
   width="4354.1187"
   height="4390.5933"
   sodipodi:docname="CenterAndRoadsEngland.svg"
   inkscape:version="1.3.2 (091e20e, 2023-11-25, custom)"
   inkscape:export-filename="..\..\Regions at war\Assets\Scenes\Paths\path1582345.svg"
   inkscape:export-xdpi="96"
   inkscape:export-ydpi="96"
   xmlns:inkscape="http://www.inkscape.org/namespaces/inkscape"
   xmlns:sodipodi="http://sodipodi.sourceforge.net/DTD/sodipodi-0.dtd"
   xmlns="http://www.w3.org/2000/svg"
   xmlns:svg="http://www.w3.org/2000/svg"><sodipodi:namedview
   id="namedview1"
   pagecolor="#ffffff"
   bordercolor="#000000"
   borderopacity="0.25"
   inkscape:showpageshadow="2"
   inkscape:pageopacity="0.0"
   inkscape:pagecheckerboard="0"
   inkscape:deskcolor="#d1d1d1"
   inkscape:zoom="1"
   inkscape:cx="2526"
   inkscape:cy="2943"
   inkscape:window-width="1450"
   inkscape:window-height="1020"
   inkscape:window-x="473"
   inkscape:window-y="0"
   inkscape:window-maximized="0"
   inkscape:current-layer="svg1596"
   inkscape:export-bgcolor="#fdfdfd00" /><defs
   id="defs1596" />


<path
   style="color:#000000;fill:#bababa;fill-rule:evenodd;stroke-dasharray:2.94578, 2.94578;-inkscape-stroke:none"
   d="m 2416.3832,2124.7536 -0.9122,0.3653 1.0997,2.7324 0.9121,-0.3652 z m 2.1992,5.4649 -0.9102,0.3672 1.0996,2.7324 0.9102,-0.3672 z m 2.1992,5.4648 -0.9102,0.3672 1.0996,2.7324 0.9122,-0.3672 z m 2.2012,5.4649 -0.9121,0.3672 1.1015,2.7324 0.9102,-0.3653 z m 2.1992,5.4668 -0.9102,0.3652 1.0996,2.7344 0.9102,-0.3672 z m 2.2012,5.4648 -0.9122,0.3672 1.0997,2.7324 0.9121,-0.3672 z m 2.1992,5.4649 -0.9102,0.3671 1.0996,2.7325 0.9102,-0.3672 z m 2.1992,5.4667 -0.9102,0.3653 1.0996,2.7324 0.9122,-0.3652 z m 2.2012,5.4649 -0.9121,0.3672 1.1015,2.7324 0.9102,-0.3672 z m 2.1992,5.4648 -0.9102,0.3672 1.0996,2.7324 0.9102,-0.3671 z m 2.2012,5.4649 -0.9122,0.3672 1.0997,2.7324 0.9121,-0.3652 z m 2.1992,5.4668 -0.9102,0.3652 1.0996,2.7344 0.9102,-0.3672 z m 2.1992,5.4648 -0.9102,0.3672 1.0996,2.7324 0.9102,-0.3672 z m 2.2012,5.4649 -0.9121,0.3672 1.0996,2.7324 0.9121,-0.3672 z m 2.1992,5.4648 -0.9102,0.3672 1.0996,2.7324 0.9102,-0.3652 z m 2.1992,5.4668 -0.9102,0.3672 1.0997,2.7324 0.9121,-0.3672 z m 2.2012,5.4648 -0.9121,0.3672 1.1015,2.7325 0.9102,-0.3672 z m 2.1992,5.4649 -0.9102,0.3672 1.0996,2.7324 0.9102,-0.3672 z m 2.2012,5.4668 -0.9121,0.3652 1.0996,2.7344 0.9121,-0.3672 z m 2.1992,5.4648 -0.9102,0.3672 1.0996,2.7324 0.9102,-0.3671 z m 2.1992,5.4649 -0.9102,0.3672 1.0997,2.7324 0.9121,-0.3672 z"
   id="path1581"
   inkscape:label="path1581" /><rect
   style="fill:none;stroke:#000000;stroke-width:0.29998;stroke-linejoin:bevel;stroke-dasharray:none;paint-order:stroke fill markers"
   id="rect2"
   height="4390.293"
   x="0.19998971"
   y="0.19998971"
   ry="0.69917101"
   width="4353.8188" /></svg>
