<?xml version="1.0" encoding="UTF-8" standalone="no"?>
<!-- Generator: Adobe Illustrator 22.1.0, SVG Export Plug-In . SVG Version: 6.00 Build 0)  -->

<svg
   version="1.1"
   x="0px"
   y="0px"
   viewBox="0 0 4354.1187 4390.5933"
   enable-background="new 0 0 1995.865 2834.646"
   xml:space="preserve"
   id="svg1596"
   width="4354.1187"
   height="4390.5933"
   xmlns="http://www.w3.org/2000/svg"
   xmlns:svg="http://www.w3.org/2000/svg"><defs
   id="defs1596" />


<path
   id="Aberdeen_City_1_"
   fill="#303B09"
   d="m 2410.6395,1633.6651 c 0,0 -1.256,-2.785 -2.458,-2.605 -1.203,0.179 -1.758,0.544 -3.607,-0.01 -1.85,-0.553 -1.295,-0.558 -2.035,0 -0.74,0.558 0.186,2.45 -1.665,2.614 -1.851,0.164 -1.11,-0.349 -3.515,0 -2.405,0.349 -2.405,0.349 -2.405,0.349 0,0 0.617,-0.835 0,-1.096 -0.616,-0.261 -1.067,0.184 -1.891,-0.593 -0.823,-0.777 -1.226,-1.872 -1.642,-2.127 -0.414,-0.254 -3.127,-0.871 -3.127,-0.871 0,0 0.366,-0.983 -0.865,-1.108 -1.232,-0.125 -1.567,0.308 -2.817,0.523 -1.251,0.215 -2.211,-0.195 -2.409,-0.329 -0.198,-0.134 -1.186,2.127 -1.062,2.692 0.124,0.566 2.001,1.596 1.062,2.56 -0.938,0.965 -1.803,2.199 -2.049,2.939 -0.246,0.74 0.369,1.479 0.986,2.836 0.617,1.357 1.357,2.59 2.097,4.008 0.74,1.418 1.233,0.925 0.987,3.021 -0.247,2.097 -0.37,0.822 -1.357,2.631 -0.986,1.809 0.028,1.932 -0.664,3.412 -0.692,1.48 -3.506,3.495 -4.142,3.316 -0.637,-0.179 -5.147,-2.345 -5.679,-2.51 -0.532,-0.165 -0.738,1.408 -0.985,2.521 -0.247,1.113 -0.247,1.977 0,3.333 0.247,1.357 2.019,2.096 3.476,1.85 1.458,-0.247 4.295,-0.617 4.295,-0.617 0,0 1.25,0.83 1.709,1.444 0.458,0.615 -0.723,1.339 -0.723,1.339 0,0 -1.973,2.027 -2.59,2.644 -0.617,0.617 -0.37,1.85 -0.37,1.85 0,0 1.123,-1.23 1.974,-1.356 0.849,-0.127 2.713,0 2.713,0 0,0 2.569,-1.532 2.209,-2.431 -0.359,-0.899 -0.903,-0.808 -0.359,-0.899 0.545,-0.091 2.101,-0.362 3.084,-0.739 0.983,-0.379 3.027,-1.206 3.576,-1.358 0.55,-0.151 3.454,-1.357 3.454,-1.357 0,0 1.844,-1.727 2.836,-1.973 0.993,-0.246 2.914,0.362 4.193,-0.122 1.279,-0.483 1.727,-0.865 1.727,-0.865 0,0 0.124,1.604 0.37,2.837 0.247,1.233 0.74,1.48 0.74,3.207 0,1.727 -0.494,1.233 0,1.727 0.493,0.493 3.402,1.807 3.799,0.966 0,0 1.135,-2.261 1.504,-3.186 0.37,-0.925 2.035,-4.255 2.59,-5.92 0.556,-1.666 0.926,-2.59 0.186,-4.255 -0.74,-1.665 0,0 -0.555,-0.555 -0.556,-0.555 -0.926,-0.37 -1.85,-0.37 -0.924,0 -0.925,-2.59 -1.295,-4.07 -0.37,-1.479 0.37,-5.18 0.74,-6.475 0.37,-1.295 1.11,-3.7 1.665,-6.105 z"
   style="fill:#677821" /><rect
   style="fill:none;stroke:#000000;stroke-width:0.29998;stroke-linejoin:bevel;stroke-dasharray:none;paint-order:stroke fill markers"
   id="rect2"
   height="4390.293"
   x="0.19998971"
   y="0.19998971"
   ry="0.69917101"
   width="4353.8188" /></svg>
