<?xml version="1.0" encoding="UTF-8" standalone="no"?>
<!-- Generator: Adobe Illustrator 22.1.0, SVG Export Plug-In . SVG Version: 6.00 Build 0)  -->

<svg
   version="1.1"
   x="0px"
   y="0px"
   viewBox="0 0 4354.1187 4390.5933"
   enable-background="new 0 0 1995.865 2834.646"
   xml:space="preserve"
   id="svg1596"
   width="4354.1187"
   height="4390.5933"
   xmlns="http://www.w3.org/2000/svg"
   xmlns:svg="http://www.w3.org/2000/svg"><defs
   id="defs1596" />


<path
   id="Aberdeenshire_1_"
   fill="#8D9764"
   d="m 2411.0485,1631.9801 c 0.555,-2.406 2.59,-7.586 3.516,-9.806 0.925,-2.22 2.774,-4.625 3.885,-7.4 1.109,-2.775 1.665,-2.405 1.85,-4.07 0.185,-1.665 -0.74,-1.48 -0.925,-2.59 -0.185,-1.11 0,-2.22 -0.185,-2.959 -0.186,-0.741 -1.295,-2.036 -1.295,-2.036 0,0 0,0 0.739,-1.665 0.74,-1.665 0,0 -0.37,-1.665 -0.369,-1.666 0,0 -0.555,-0.371 -0.555,-0.37 -0.74,-2.035 0,-1.665 0.74,0.37 0.925,0.925 2.22,0.925 1.296,0 0.74,1.295 0.186,1.85 -0.556,0.555 -0.37,1.295 -0.37,2.59 0,1.295 0.555,1.665 1.109,2.59 0.556,0.925 0.186,2.22 0.186,2.775 0,0.555 1.295,-1.11 1.48,-2.22 0.185,-1.109 1.109,-1.295 1.664,-1.48 0.556,-0.185 1.666,-2.22 1.666,-2.22 0,0 2.59,-2.405 3.329,-3.33 0.74,-0.925 0.74,-1.85 1.48,-2.035 0.739,-0.185 1.11,-2.035 1.48,-2.775 0.37,-0.74 2.221,-1.295 2.775,-1.85 0.555,-0.555 1.85,-1.665 2.405,-2.775 0.555,-1.109 0.37,-1.295 0.37,-2.22 0,-0.924 0,-2.59 0.739,-3.885 0.74,-1.294 1.665,0.185 2.591,0.185 0.925,0 0.739,-0.925 0.925,-1.665 0.185,-0.74 1.109,-1.11 1.85,-2.035 0.74,-0.925 0,-1.665 0.185,-2.22 0.186,-0.554 0.926,-1.11 1.295,-1.665 0.371,-0.555 1.11,-1.479 1.48,-2.22 0.37,-0.74 1.11,-1.665 1.48,-2.22 0.369,-0.556 0.925,-1.851 1.48,-2.405 0.556,-0.555 -0.185,-1.11 -1.48,-2.219 -1.295,-1.111 0,0 -0.74,-0.556 -0.74,-0.555 0.185,-1.665 0.185,-1.665 l 0.186,-1.294 c 0,0 -0.74,-1.295 0,-2.405 0.739,-1.11 1.295,0.739 2.034,1.109 0.74,0.371 0.556,-1.479 0.186,-2.22 -0.37,-0.74 -0.555,-1.11 -1.665,-1.85 -1.11,-0.74 -1.665,-1.48 -2.22,-1.85 -0.555,-0.37 -0.555,-1.295 -0.74,-2.405 -0.185,-1.11 0,-1.48 0.186,-2.96 0.185,-1.479 0,-3.145 -0.926,-4.07 -0.925,-0.925 -1.85,-3.885 -2.774,-5.735 -0.925,-1.849 0.555,-4.44 0.739,-6.29 0.186,-1.85 -1.109,-2.035 -2.22,-2.775 -1.111,-0.74 -2.774,-1.295 -4.069,-2.775 -1.295,-1.48 -3.146,-2.405 -3.146,-3.33 0,-0.925 -1.851,-4.44 -2.59,-5.735 -0.74,-1.295 -1.295,-2.035 -2.59,-2.96 -1.296,-0.925 -1.296,-0.74 -2.405,-0.184 -1.11,0.555 -0.74,0.925 -2.22,0.555 -1.48,-0.37 -2.96,-1.11 -4.255,-1.85 -1.295,-0.74 -0.37,-1.85 -0.74,-3.7 -0.37,-1.85 0,0 -1.665,-0.185 -1.665,-0.185 0,0 -1.295,0.185 -1.295,0.185 -2.035,0.555 -3.886,-0.185 -1.85,-0.74 -3.145,-0.369 -4.994,-0.555 -1.85,-0.185 -2.405,0.74 -4.256,0.555 -1.85,-0.185 -1.664,1.295 -2.774,2.59 -1.11,1.295 -2.035,1.479 -2.96,2.59 -0.925,1.11 -2.221,1.11 -4.44,0.925 -2.22,-0.185 -2.22,-0.74 -4.069,-1.11 -1.85,-0.37 -2.221,-0.555 -3.7,-0.925 -1.48,-0.37 -2.035,-0.555 -2.22,-1.11 -0.186,-0.555 -1.851,0 -2.775,-0.925 -0.924,-0.925 0.186,-1.11 -1.295,-0.925 -1.48,0.185 -1.665,0.925 -3.145,2.035 -1.48,1.11 -0.371,0.925 -1.11,2.59 -0.74,1.665 -1.851,1.295 -2.96,0.555 -1.11,-0.74 0,0 -1.665,-0.185 -1.665,-0.185 -2.035,0.925 -4.07,1.11 -2.035,0.185 -2.96,-0.556 -3.7,-0.925 -0.74,-0.37 -1.85,0.555 -3.33,0.925 -1.48,0.37 -1.295,-0.556 -2.96,-0.556 -1.665,0 -2.59,-0.37 -3.515,-0.185 -0.925,0.185 -1.295,1.11 -2.22,1.85 -0.925,0.74 -0.925,-0.925 -0.925,-0.925 0,0 -1.666,-0.185 -3.33,-0.37 -1.666,-0.185 -1.48,-0.74 -3.516,-1.85 -2.035,-1.11 -0.925,-0.185 -2.775,-0.185 -1.85,0 -2.404,-0.37 -4.994,-0.555 -2.59,-0.185 -2.221,-0.37 -2.775,-1.11 -0.555,-0.74 -1.665,-0.37 -2.775,-0.74 -1.109,-0.37 -1.664,0.555 -3.699,0.185 -2.035,-0.37 -1.48,-0.74 -2.775,-0.74 -1.295,0 -1.295,1.48 -2.404,2.035 -1.11,0.555 -1.11,-0.37 -1.11,-1.295 0,-0.925 -0.925,-1.11 -2.591,-1.11 -1.664,0 -1.664,-0.74 -2.59,-1.295 -0.925,-0.555 -0.621,-0.076 -1.73,0.109 0,0 -0.305,6.18 -0.489,7.661 -0.185,1.48 0.74,1.295 1.851,2.22 1.109,0.925 2.035,2.22 2.035,2.775 0,0.555 -1.296,3.7 -2.035,5.365 -0.74,1.665 -1.666,2.405 -1.851,3.885 -0.185,1.479 0.37,1.11 1.851,1.85 1.479,0.74 1.281,1.265 1.069,2.59 -0.212,1.326 2.075,2.96 3.519,3.33 1.444,0.37 1.517,2.22 2.996,2.96 1.48,0.74 1.48,2.035 1.961,3.234 0.48,1.199 1,3.795 1.151,5.275 0.15,1.48 1.145,0.74 1.983,0.587 0.839,-0.152 1.011,-1.821 1.011,-1.821 0,0 1.559,0.388 2.467,0.987 0.907,0.6 1.479,0.57 2.933,0.802 1.453,0.231 -2.994,2.191 -2.994,2.191 l -3.515,1.22 c 0,0 -1.666,3.063 -3.035,3.434 -1.371,0.37 -3.44,-0.925 -3.81,-1.274 -0.37,-0.35 -2.629,-2.634 -2.629,-2.634 0,0 -0.758,0.735 -3.105,2.634 -2.348,1.9 -4.811,-7.051 -6.291,-7.235 -1.479,-0.185 -3.145,1.85 -4.416,1.48 -1.271,-0.37 -2.429,0.925 -3.019,1.425 -0.591,0.501 -1.444,3.385 -1.444,3.385 0,0 -3.33,3.7 -5.333,4.15 -2.003,0.451 -4.288,0.474 -5.027,2.275 -0.74,1.801 -0.556,2.825 -2.452,4.331 -1.897,1.508 -1.434,1.823 -2.249,3.673 -0.816,1.85 1.187,2.405 1.711,2.96 0.525,0.555 3.36,-0.185 4.049,0 0.689,0.186 2.026,1.219 0.791,2 -1.235,0.78 -3.33,2.071 -4.84,3.248 -1.51,1.178 -2.375,2.522 -1.711,4.188 0.663,1.664 1.556,0.554 2.249,1.479 0.692,0.925 2.207,2.253 2.822,3.818 0.615,1.565 2.035,0.622 2.419,1.547 0.385,0.925 -2.419,2.775 -2.974,3.863 -0.556,1.087 1.479,3.167 1.243,3.907 -0.235,0.739 0.421,3.885 0,4.775 -0.421,0.892 1.531,2.254 1.716,3.179 0.186,0.925 -1.479,2.405 -1.716,3.856 -0.235,1.451 -0.504,2.989 -1.059,4.839 -0.556,1.851 -2.775,2.035 -4.701,2.96 -1.927,0.925 -1.774,-0.554 -2.001,-1.357 -0.227,-0.802 -3.104,-0.679 -4.213,-0.369 -1.11,0.31 -2.59,-1.234 -4.89,-1.234 -2.3,0 -5.285,0.74 -6.619,1.234 -1.335,0.495 -1.626,2.466 -2.736,2.65 -1.11,0.186 -4.44,1.851 -5.55,2.59 -1.11,0.74 -2.22,3.7 -3.8,5.735 -1.58,2.035 -1.011,4.81 -1.232,6.105 -0.221,1.295 -2.183,1.295 -3.293,1.172 -1.11,-0.123 -0.925,1.418 -1.665,2.343 -0.74,0.925 -1.295,0 -3.33,0 -2.035,0 -6.105,2.589 -6.631,3.885 -0.526,1.294 -0.214,2.405 0,3.7 0.214,1.295 1.081,1.11 1.646,2.693 0.565,1.583 0.729,2.302 1.654,4.218 0.925,1.916 0.925,3.08 -0.697,4.189 -1.622,1.11 -3.188,3.146 -4.477,3.639 -1.289,0.493 -5.001,0.431 -6.851,0 -1.85,-0.432 -2.22,1.356 -3.33,2.042 -1.11,0.687 -3.7,0.054 -5.181,0 -1.48,-0.054 -3.7,1.719 -4.612,2.398 -0.913,0.677 -2.048,-0.494 -3.342,0.255 -1.295,0.749 -1.295,-1.489 -2.035,-2.653 -0.74,-1.164 -2.96,0.608 -3.772,0.979 -0.812,0.37 -3.813,1.295 -5.293,1.419 -1.48,0.123 -2.96,0.061 -3.611,0.768 -0.651,0.706 -1.014,2.993 -2.229,3.548 -1.215,0.555 -0.622,-3.33 -0.622,-3.33 l -1.394,-3.821 c -1.055,1.645 -1.055,0.734 -3.111,2.835 -2.056,2.099 -1.232,-0.013 -3.494,1.352 -2.263,1.364 -4.769,-0.723 -3.002,2.274 1.768,2.996 2.795,0.118 1.768,2.996 -1.028,2.878 -2.096,2.056 -1.768,4.728 0.328,2.672 -0.739,0.788 0,5.122 0.739,4.334 1.973,0.839 0.739,4.334 -1.233,3.495 0.017,2.878 -1.122,5.14 -1.139,2.262 -1.755,1.668 -2.989,3.918 -1.233,2.25 -2.338,2.092 -2.467,4.922 0.2,2.287 0.835,2.524 0.542,2.917 0,0 0.364,1.981 1.483,1.539 1.297,-0.512 4.625,-2.376 5.365,-1.539 0.74,0.837 1.665,3.428 3.33,3.797 1.665,0.37 4.084,0.186 4.725,-1.109 0.641,-1.296 0.986,-3.768 2.016,-2.902 1.03,0.866 2.052,1.838 3.483,2 1.432,0.161 2.523,0.822 4.105,-0.248 1.582,-1.071 3.431,-0.225 3.894,0 0.462,0.224 1.572,3.184 1.942,4.664 0.37,1.48 -1.11,3.752 0,4.466 1.11,0.714 2.405,-0.528 3.145,0 0.74,0.529 3.169,1.454 3.712,1.084 0.543,-0.37 1.838,-0.029 2.763,1.096 0.925,1.125 2.22,0.643 3.7,0.976 1.479,0.333 1.613,-0.621 3.304,-0.976 1.691,-0.355 4.649,-0.015 5.853,0 1.204,0.015 3.282,0.976 3.282,0.976 l -0.174,-0.078 c 0.645,-1.001 0.174,-0.682 0.87,-0.898 1.339,-0.418 3.454,-2.164 4.317,-2.801 0.862,-0.637 3.33,-1.624 4.316,-1.994 0.986,-0.371 1.973,-1.065 2.343,-2.691 0.37,-1.626 -1.356,-3.106 0.37,-3.599 1.727,-0.493 4.675,1.48 5.822,1.665 1.147,0.185 2.997,1.094 4.846,1.934 1.851,0.841 2.59,2.321 3.516,1.766 0.925,-0.554 1.234,-1.109 3.114,-0.37 1.88,0.741 2.62,2.887 4.101,3.016 1.48,0.13 2.22,0.5 2.22,-2.09 0,-2.589 -0.185,-4.968 0.74,-5.999 0.925,-1.031 1.7,-1.216 1.868,-3.621 0.168,-2.405 -0.573,-3.555 1.092,-4.46 1.665,-0.905 4.811,-3.024 6.845,-3.167 2.035,-0.144 1.79,0.412 4.41,0.781 2.62,0.37 4.47,-0.823 5.765,-0.781 1.295,0.042 3.465,-2.139 4.508,-1.419 1.043,0.721 1.783,-2.301 2.522,-1.993 0.74,0.308 3.192,-0.247 5.019,1.049 1.826,1.294 4.368,1.399 4.763,1.532 0.394,0.133 0.709,0.893 2.956,2.363 2.248,1.471 4.945,1.616 6.094,1.635 1.149,0.02 2.444,2.425 3.369,3.72 0.925,1.295 2.22,4.561 2.775,4.038 0.555,-0.523 3.618,1.512 4.584,2.992 0.966,1.48 0.78,4.543 1.521,5.694 0.74,1.151 2.035,0.854 1.479,3.777 -0.555,2.923 0.824,6.624 0.135,7.178 -0.689,0.555 -1.184,2.118 -1.184,2.118 l 1.992,3.407 c 0,0 -1.432,0.536 0,1.885 1.432,1.349 2.988,2.49 2.988,2.49 l 1.626,3.528 c 0,0 0.273,2.711 1.658,2.549 1.384,-0.162 4.642,-1.303 5.949,-1.2 1.309,0.103 3.04,1.627 4.016,1.425 0.976,-0.202 2.947,-0.84 2.947,1.043 0,1.884 2.204,2.993 3.071,2.993 0.867,0 1.107,0.069 1.38,2.32 0.177,1.457 2.179,1.558 2.179,1.558 2.119,0.335 3.954,-0.469 3.954,-0.469 l -0,-0.335 c -0.185,-0.74 1.664,-2.405 1.664,-2.405 0,0 1.851,-2.035 2.405,-2.96 0.556,-0.925 2.035,-0.37 3.146,-0.185 1.109,0.185 1.665,-1.665 3.515,-2.775 1.851,-1.11 2.96,-2.035 4.625,-3.7 1.665,-1.665 2.59,-3.885 3.515,-5.365 0.926,-1.48 0.926,-1.48 2.035,-2.405 1.11,-0.925 0.556,-1.11 1.11,-2.96 0.554,-1.85 1.295,-0.555 2.405,-2.035 1.109,-1.48 1.85,-1.48 2.774,-3.516 0.925,-2.035 1.851,-2.774 2.22,-4.255 0.371,-1.479 0.371,-2.59 0.926,-3.33 0.555,-0.74 0.925,-2.035 1.295,-3.145 0.37,-1.11 0,-5.55 0,-7.03 0,-1.48 -0.74,-5.92 -0.555,-7.4 0,0 0.739,-1.294 1.85,-2.22 1.109,-0.925 1.109,-0.185 1.295,-2.405 0.186,-2.22 0.74,-1.48 1.48,-2.59 0.739,-1.109 0.185,-1.85 0.555,-4.069 0.37,-2.22 1.295,-1.296 2.775,-3.33 1.479,-2.035 2.404,-2.96 3.33,-4.625 0.924,-1.666 1.109,-0.555 2.034,-2.776 0.925,-2.22 1.665,-4.07 2.22,-5.55 l 0.531,-1.254 c -0.397,0.841 -3.306,-0.473 -3.799,-0.966 -0.494,-0.494 0,0 0,-1.727 0,-1.727 -0.493,-1.974 -0.74,-3.207 -0.246,-1.233 -0.37,-2.837 -0.37,-2.837 0,0 -0.447,0.382 -1.727,0.865 -1.279,0.483 -3.2,-0.125 -4.193,0.122 -0.992,0.246 -2.836,1.973 -2.836,1.973 0,0 -2.904,1.206 -3.454,1.357 -0.549,0.152 -2.593,0.978 -3.576,1.358 -0.983,0.377 -2.539,0.648 -3.084,0.739 -0.544,0.091 0,0 0.359,0.899 0.36,0.899 -2.209,2.431 -2.209,2.431 0,0 -1.863,-0.127 -2.713,0 -0.851,0.127 -1.974,1.356 -1.974,1.356 0,0 -0.247,-1.233 0.37,-1.85 0.617,-0.617 2.59,-2.644 2.59,-2.644 0,0 1.181,-0.724 0.723,-1.339 -0.459,-0.615 -1.709,-1.444 -1.709,-1.444 0,0 -2.837,0.37 -4.295,0.617 -1.457,0.246 -3.229,-0.493 -3.476,-1.85 -0.247,-1.357 -0.247,-2.22 0,-3.333 0.247,-1.113 0.453,-2.686 0.985,-2.521 0.531,0.165 5.042,2.331 5.679,2.51 0.636,0.179 3.449,-1.836 4.142,-3.316 0.692,-1.48 -0.322,-1.603 0.664,-3.412 0.987,-1.809 1.11,-0.535 1.357,-2.631 0.246,-2.097 -0.247,-1.603 -0.987,-3.021 -0.739,-1.418 -1.479,-2.651 -2.097,-4.008 -0.617,-1.357 -1.232,-2.096 -0.986,-2.836 0.246,-0.74 1.11,-1.974 2.049,-2.939 0.938,-0.964 -0.938,-1.995 -1.062,-2.56 -0.123,-0.565 0.864,-2.826 1.062,-2.692 0.198,0.133 1.158,0.544 2.409,0.329 1.251,-0.215 1.585,-0.648 2.817,-0.523 1.231,0.125 0.865,1.108 0.865,1.108 0,0 2.713,0.617 3.127,0.871 0.415,0.255 0.818,1.35 1.642,2.127 0.823,0.777 1.275,0.332 1.891,0.593 0.617,0.261 0,1.096 0,1.096 0,0 0,0 2.405,-0.349 2.404,-0.349 1.664,0.164 3.515,0 1.851,-0.164 0.925,-2.056 1.665,-2.614 0.74,-0.558 0.186,-0.553 2.035,0 1.85,0.553 2.404,0.188 3.607,0.01 1.202,-0.179 2.458,2.605 2.458,2.605 z"
   style="fill:#677821" /><rect
   style="fill:none;stroke:#000000;stroke-width:0.29998;stroke-linejoin:bevel;stroke-dasharray:none;paint-order:stroke fill markers"
   id="rect2"
   height="4390.293"
   x="0.19998971"
   y="0.19998971"
   ry="0.69917101"
   width="4353.8188" /></svg>
