<?xml version="1.0" encoding="UTF-8" standalone="no"?>
<!-- Generator: Adobe Illustrator 22.1.0, SVG Export Plug-In . SVG Version: 6.00 Build 0)  -->

<svg
   version="1.1"
   x="0px"
   y="0px"
   viewBox="0 0 4354.1187 4390.5933"
   enable-background="new 0 0 1995.865 2834.646"
   xml:space="preserve"
   id="svg1596"
   width="4354.1187"
   height="4390.5933"
   xmlns="http://www.w3.org/2000/svg"
   xmlns:svg="http://www.w3.org/2000/svg"><defs
   id="defs1596" />


<path
   id="Angus_1_"
   fill="#303B09"
   d="m 2304.3035,1816.2391 c 1.48,-1.11 3.146,-1.85 4.255,-2.22 1.11,-0.37 2.035,0.185 3.516,0.185 1.479,0 2.035,0.555 2.96,1.295 0,0 2.405,2.405 3.7,2.59 1.295,0.186 1.85,-0.925 2.22,-1.665 0.37,-0.74 0.925,-3.33 0.925,-5.365 0,-2.035 0.74,-0.925 1.11,-2.035 0.37,-1.11 1.85,-0.74 2.96,-1.665 1.109,-0.925 1.295,-0.37 2.59,-2.22 1.295,-1.85 2.405,-1.665 4.255,-3.145 1.851,-1.48 1.11,-1.109 1.851,-2.96 0.739,-1.85 1.109,-1.85 2.404,-2.59 1.295,-0.74 2.035,-0.185 2.96,-0.555 0.925,-0.37 2.035,-1.48 3.33,-1.85 1.295,-0.37 1.665,-0.185 2.035,-0.925 0.37,-0.74 0.74,-2.405 1.665,-3.33 0.925,-0.925 1.48,-0.554 1.48,-2.22 0,-1.665 0.185,-1.665 1.295,-3.146 1.109,-1.479 1.85,-2.22 2.59,-3.33 0.74,-1.109 0.925,-1.295 0.74,-2.96 -0.186,-1.665 -1.11,-0.74 -2.591,-0.925 -1.479,-0.185 -0.555,-1.11 -0.555,-2.405 0,-1.295 0,-2.96 0.37,-3.885 0.37,-0.925 1.109,-1.665 2.035,-2.775 0.925,-1.11 1.665,-0.925 2.59,-1.48 0.925,-0.555 1.48,-0.925 2.404,-2.035 0.926,-1.11 1.48,-1.295 1.851,-2.22 0.37,-0.924 0.555,-1.48 -0.185,-2.035 -0.74,-0.555 -2.405,-0.185 -3.7,-0.185 -1.295,0 -1.851,0 -2.775,0.37 -0.925,0.37 -2.59,0 -4.255,-0.555 -1.665,-0.555 -1.48,-1.295 -2.22,-2.405 -0.74,-1.11 1.11,-0.74 2.22,-0.555 1.11,0.185 0,-2.22 2.22,-2.22 2.22,0 2.035,0.185 3.886,0.37 1.85,0.185 0.185,2.22 0.185,2.22 0,0 1.665,1.48 2.59,1.759 0.925,0.279 0.74,-2.313 0.74,-3.794 0,-1.48 1.295,-3.885 1.665,-4.81 0.37,-0.925 0.925,-2.22 0.74,-2.96 0,0 -1.834,1.14 -3.953,0.805 0,0 -2.002,-0.101 -2.179,-1.558 -0.273,-2.251 -0.513,-2.32 -1.38,-2.32 -0.867,0 -3.071,-1.109 -3.071,-2.993 0,-1.883 -1.972,-1.246 -2.947,-1.043 -0.975,0.203 -2.707,-1.322 -4.016,-1.425 -1.307,-0.104 -4.565,1.038 -5.949,1.2 -1.385,0.163 -1.658,-2.549 -1.658,-2.549 l -1.626,-3.528 c 0,0 -1.557,-1.142 -2.988,-2.49 -1.432,-1.349 0,-1.885 0,-1.885 l -1.992,-3.407 c 0,0 0.494,-1.562 1.184,-2.118 0.689,-0.555 -0.689,-4.255 -0.135,-7.178 0.556,-2.923 -0.739,-2.626 -1.479,-3.777 -0.74,-1.151 -0.555,-4.214 -1.521,-5.694 -0.966,-1.48 -4.029,-3.515 -4.584,-2.992 -0.556,0.523 -1.851,-2.743 -2.775,-4.038 -0.924,-1.295 -2.22,-3.7 -3.369,-3.72 -1.148,-0.02 -3.846,-0.165 -6.094,-1.635 -2.247,-1.47 -2.562,-2.23 -2.956,-2.363 -0.395,-0.133 -2.937,-0.237 -4.763,-1.532 -1.826,-1.295 -4.278,-0.741 -5.019,-1.049 -0.739,-0.308 -1.48,2.713 -2.522,1.993 -1.043,-0.72 -3.213,1.461 -4.508,1.419 -1.295,-0.042 -3.145,1.151 -5.765,0.781 -2.62,-0.37 -2.375,-0.925 -4.41,-0.781 -2.034,0.143 -5.18,2.262 -6.845,3.167 -1.665,0.905 -0.925,2.055 -1.092,4.46 -0.167,2.405 -0.943,2.59 -1.868,3.621 -0.925,1.031 -0.74,3.41 -0.74,5.999 0,2.59 -0.74,2.22 -2.22,2.09 -1.48,-0.129 -2.22,-2.275 -4.101,-3.016 -1.88,-0.739 -2.189,-0.184 -3.114,0.37 -0.926,0.555 -1.665,-0.925 -3.516,-1.766 -1.85,-0.84 -3.7,-1.749 -4.846,-1.934 -1.146,-0.185 -4.095,-2.158 -5.822,-1.665 -1.727,0.493 0,1.973 -0.37,3.599 -0.37,1.626 -1.356,2.321 -2.343,2.691 -0.986,0.37 -3.454,1.356 -4.316,1.994 -0.863,0.637 -2.961,2.446 -4.317,2.801 -1.357,0.355 -0.74,2.111 -1.385,3.112 -0.645,1.001 -0.342,2.082 -1.205,3.478 -0.864,1.394 -1.11,1.194 -1.356,2.427 -0.247,1.233 0.986,1.48 2.241,2.22 1.256,0.74 1.335,1.48 2.922,2.383 1.587,0.904 0.757,0.823 0,1.281 -0.756,0.458 -0.107,1.146 0,2.133 0.107,0.986 0.017,2.22 -0.438,3.291 -0.453,1.071 -0.532,1.766 -0.902,2.506 -0.37,0.74 -0.987,1.851 -1.421,3.33 -0.434,1.48 0.064,4.071 0.848,5.057 0.784,0.987 2.053,1.233 1.913,1.974 -0.14,0.741 0.017,2.22 0,2.837 -0.016,0.616 1.373,1.85 1.99,1.605 0.616,-0.245 1.726,3.451 2.202,4.068 0.475,0.617 1.621,0.493 2.484,0.863 0.863,0.37 0.616,0.987 0.986,2.237 0.37,1.25 0.123,2.819 0.863,3.081 0.74,0.26 1.357,1.219 1.604,2.329 0.247,1.11 0.493,1.727 1.233,1.718 0.74,-0.01 1.48,0.133 2.343,0.01 0.863,-0.124 1.604,0.987 2.246,1.719 0.642,0.733 3.428,1.241 4.292,1.612 0.863,0.372 3.453,0.492 4.317,0.137 0.864,-0.355 1.85,0.108 2.868,0 1.018,-0.108 1.354,0 1.676,0.591 0.322,0.59 0.014,1.113 0.049,1.524 0.035,0.411 0.24,1.182 0.117,1.751 -0.124,0.569 -1.371,0.595 -1.842,0.729 -0.471,0.134 -1.475,0.445 -1.967,0.8 -0.491,0.354 -0.33,0.681 -0.901,1.318 -0.571,0.638 -0.37,0.671 -0.37,1.411 0,0.74 0.493,0.986 1.727,0.987 1.233,0 1.604,-10e-4 2.343,0 0.74,0 0.124,1.479 0.124,2.096 0,0.617 0.235,1.069 -0.314,1.195 -0.549,0.125 -1.791,0.518 -2.021,0.665 -0.23,0.147 0.604,1.107 1.379,0.861 0.775,-0.246 0.731,0.183 1.2,0.614 0.469,0.432 1.191,0.19 1.945,-0.368 0.754,-0.558 1.114,-1.62 1.114,-1.62 0,0 0.438,-0.433 1.024,-0.837 0.586,-0.404 0.894,-1.319 0.894,-1.319 0,0 1.44,-1.042 2.751,-1.268 1.311,-0.226 -0.018,1.708 -0.467,2.263 -0.449,0.554 -0.476,2.219 -1.03,2.781 -0.555,0.562 -3.146,3.139 -4.126,3.611 -0.981,0.473 -4.014,3.042 -5.864,4.337 -1.85,1.295 -1.295,0.925 -0.74,2.675 0.555,1.75 0.925,1.95 2.256,3.245 1.332,1.296 -0.961,2.405 -3.724,3.156 -2.763,0.75 -2.047,1.284 -0.937,2.58 1.11,1.294 1.665,1.294 0.937,2.124 -0.728,0.83 1.098,1.761 2.393,2.5 1.295,0.74 3.885,2.22 4.642,2.775 0.757,0.555 0.723,1.48 2.204,2.43 v -2.677 c 0,0 3.232,-0.986 3.99,-0.863 0.758,0.123 3.965,0.493 3.965,0.493 l 0.74,-2.097 3.206,-1.11 4.934,1.233 2.43,0.43 c 0,0 3.326,1.011 3.988,1.463 0.663,0.452 2.955,0 2.955,0 l 1.681,-1.646 2.143,0.4 h 3.207 l 1.974,1.246 0.863,0.573 0.616,2.554 z"
   style="fill:#677821" /><rect
   style="fill:none;stroke:#000000;stroke-width:0.29998;stroke-linejoin:bevel;stroke-dasharray:none;paint-order:stroke fill markers"
   id="rect2"
   height="4390.293"
   x="0.19998971"
   y="0.19998971"
   ry="0.69917101"
   width="4353.8188" /></svg>
