<?xml version="1.0" encoding="UTF-8" standalone="no"?>
<!-- Generator: Adobe Illustrator 22.1.0, SVG Export Plug-In . SVG Version: 6.00 Build 0)  -->

<svg
   version="1.1"
   x="0px"
   y="0px"
   viewBox="0 0 4354.1187 4390.5933"
   enable-background="new 0 0 1995.865 2834.646"
   xml:space="preserve"
   id="svg1596"
   width="4354.1187"
   height="4390.5933"
   xmlns="http://www.w3.org/2000/svg"
   xmlns:svg="http://www.w3.org/2000/svg"><defs
   id="defs1596" />


<g
   id="Argyll_and_Bute__x3C_Group_x3E__1_"
   style="fill:#677821"
   transform="translate(1093.6405,660.66109)">
					<path
   fill="#303B09"
   d="m 866.932,1126.533 c 0,0 0.494,-1.48 0.987,-1.48 0.493,0 1.727,-0.864 1.85,0 0.123,0.863 0.493,0.617 0,1.48 -0.493,0.863 -0.37,1.356 -0.617,1.974 -0.246,0.616 -0.739,-0.124 -1.232,0 -0.494,0.123 -0.74,-0.37 -0.987,-0.863 -0.247,-0.495 -10e-4,-1.111 -10e-4,-1.111 z"
   id="path1215"
   style="fill:#677821" />
					<path
   fill="#303B09"
   d="m 840.663,1158.353 c 0,0 1.727,-0.37 2.343,-0.987 0.616,-0.616 1.356,-1.604 2.59,-2.343 1.233,-0.74 1.85,-0.863 2.466,-1.603 0.617,-0.74 1.604,-1.974 3.207,-3.33 1.604,-1.357 2.59,-1.603 3.207,-2.713 0.616,-1.11 0.74,-1.973 1.109,-3.083 0.37,-1.109 0.987,-0.616 1.357,-1.356 0.37,-0.74 1.727,-2.22 1.727,-2.22 0,0 1.109,-1.233 1.48,-2.22 0.37,-0.986 1.233,-0.493 2.22,-1.479 0.987,-0.987 0.863,-1.11 1.233,-1.85 0.37,-0.739 0.124,-1.357 0,-1.973 -0.123,-0.617 -1.48,0.246 -1.727,0.863 -0.246,0.616 -0.863,0.864 -1.233,1.233 -0.37,0.369 -1.603,-0.37 -1.603,-0.37 0,0 -0.74,-0.864 -1.727,-0.864 -0.986,0 0.247,0.986 0,1.85 -0.246,0.863 -0.493,0.863 -0.74,1.48 -0.247,0.616 -1.356,0.74 -1.48,1.727 -0.123,0.986 -1.974,2.59 -2.467,3.453 -0.493,0.863 -2.466,2.097 -2.96,3.207 -0.493,1.11 -2.343,1.85 -3.7,2.467 -1.357,0.617 -1.727,0 -2.564,0.987 -0.837,0.986 0.22,1.604 -0.026,2.343 -0.246,0.74 0.124,1.851 0,2.837 -0.123,0.987 -1.604,1.356 -1.604,1.356 0,0 -0.819,1.135 -1.109,1.604 -0.361,0.58 10e-4,0.984 10e-4,0.984 z"
   id="path1216"
   style="fill:#677821" />
					<path
   fill="#303B09"
   d="m 843.129,1177.347 c 0.616,-0.123 1.11,0.123 2.097,0.246 0.986,0.124 0.863,0.494 0.493,1.11 -0.37,0.616 -0.123,1.11 1.48,0.74 1.603,-0.37 1.11,-1.11 1.727,-2.467 0.617,-1.357 0.74,-1.356 1.603,-2.96 0.864,-1.604 1.233,-1.604 1.621,-2.714 0.388,-1.109 1.092,-0.986 1.956,-1.727 0.863,-0.739 0.493,-0.986 0.616,-1.604 0.123,-0.616 0.247,-0.986 -0.986,-1.109 -1.233,-0.124 -0.74,0.863 -1.586,1.356 -0.846,0.493 -0.758,1.233 -1.744,1.11 -0.986,-0.124 -0.863,-0.37 -1.48,0 -0.617,0.37 -0.864,0.986 -2.097,0.986 -1.232,0 -1.603,0.37 -1.973,1.233 -0.37,0.863 -0.494,1.233 -0.74,1.973 -0.247,0.74 -0.863,0.74 -1.48,1.233 -0.617,0.494 -0.74,1.357 -0.74,2.221 0,0 0.616,0.496 1.233,0.373 z"
   id="path1217"
   style="fill:#677821" />
					<path
   fill="#303B09"
   d="m 763.795,1163.302 c -0.046,0.509 0.046,0.555 0.602,1.203 0.555,0.647 0.555,0.092 1.063,-0.648 0.509,-0.739 0.185,-0.508 0.693,-1.063 0.509,-0.555 0.139,-0.277 0,-0.911 -0.139,-0.633 -0.277,-0.198 -0.925,-0.43 -0.648,-0.231 -0.555,0.092 -1.156,0.43 10e-4,-10e-4 -0.231,0.91 -0.277,1.419 z"
   id="path1218"
   style="fill:#677821" />
					<path
   fill="#303B09"
   d="m 774.518,1158.353 c 1.072,0.124 0.778,-0.74 1.271,-1.11 0.493,-0.37 0.617,-0.617 0,-1.233 -0.617,-0.617 -0.863,-0.123 -1.727,0 -0.863,0.123 -1.233,0.863 -1.233,0.863 0,0 0.617,1.356 1.689,1.48 z"
   id="path1219"
   style="fill:#677821" />
					<path
   fill="#303B09"
   d="m 687.483,1134.118 c 0.093,0.277 0.74,0.37 1.979,0 1.238,-0.37 0.427,-0.555 1.404,-0.925 0.977,-0.37 0.41,-0.74 0.41,-1.48 0,-0.74 -0.647,-0.092 -1.295,0 -0.647,0.093 -0.74,0.463 -1.48,0.555 -0.74,0.093 -1.018,0.925 -1.018,0.925 0,0 -0.093,0.648 0,0.925 z"
   id="path1220"
   style="fill:#677821" />
					<path
   id="Iona_3_"
   fill="#303B09"
   d="m 726.425,1194.891 c 0.281,0.082 1.942,0.555 2.312,0.555 0.37,0 1.774,0.925 2.599,-0.555 0.824,-1.48 1.286,-2.96 1.842,-3.7 0.555,-0.74 1.85,-1.572 1.85,-2.404 0,-0.833 0.093,-3.146 0,-3.516 -0.093,-0.37 -0.925,-0.277 -1.202,0 -0.278,0.277 -0.555,0.37 -1.295,0.37 -0.74,0 -2.221,-0.093 -2.405,0.647 -0.185,0.74 -1.665,1.572 -1.665,1.572 0,0 -0.925,0.833 -0.74,1.295 0.185,0.463 1.79,1.48 1.543,1.758 -0.248,0.277 -1.173,0.925 -1.543,1.295 -0.37,0.37 -1.018,0.925 -1.295,1.295 -0.278,0.37 -0.586,1.218 -0.001,1.388 z"
   style="fill:#677821" />
					<path
   id="Mull_3_"
   fill="#303B09"
   d="m 766.292,1152.31 c -1.11,0.863 0.616,1.33 0,1.207 l 1.356,0.396 c 0.987,-0.247 1.11,0.37 1.727,1.11 0.617,0.74 2.344,-0.494 3.453,-1.11 1.11,-0.616 2.591,-0.74 4.934,-1.356 2.343,-0.617 3.33,-0.74 4.193,-1.727 0.863,-0.987 1.85,-1.48 3.558,-1.851 1.708,-0.37 1.622,1.11 1.869,1.974 0.247,0.863 0.247,1.233 -0.616,1.85 -0.864,0.617 -1.233,0.617 -1.974,1.604 -0.74,0.987 -0.37,1.356 -1.604,2.22 -1.233,0.864 -1.973,0.74 -2.59,1.727 -0.616,0.987 -0.987,1.11 -2.467,2.097 -1.481,0.987 -2.96,0.74 -4.193,0.617 -1.233,-0.123 -1.973,-0.617 -2.96,-0.617 -0.986,0 -2.097,1.727 -2.467,2.713 -0.37,0.986 -0.986,2.713 -1.603,3.689 -0.617,0.976 -0.74,2.971 -1.727,3.957 -0.986,0.986 -2.59,2.22 -3.823,3.207 -1.233,0.986 -2.713,1.85 -2.96,3.946 -0.246,2.097 0,3.207 0.617,4.687 0.616,1.48 2.22,0.617 3.7,0.74 1.48,0.123 2.096,-1.11 3.083,-1.604 0.986,-0.493 1.85,-0.493 3.206,-0.246 1.356,0.246 2.59,-0.247 3.947,-0.37 1.357,-0.124 1.48,-1.11 2.467,-1.6 0.986,-0.489 1.109,-1.237 2.097,-1.237 0.986,0 0.986,0.617 1.85,-0.74 0.863,-1.356 1.11,-1.603 2.344,-2.467 1.233,-0.862 1.356,-0.37 3.206,-0.123 1.851,0.246 1.11,-0.247 2.22,0.123 1.11,0.37 1.357,0.247 2.22,0.74 0.863,0.494 -0.74,0.493 -1.356,0.617 -0.617,0.124 -1.233,0.247 -2.486,-0.247 -1.252,-0.493 -0.351,-0.247 -0.721,0.617 -0.37,0.863 0.493,1.48 1.233,2.097 0.74,0.617 -0.987,1.48 -1.727,2.097 -0.74,0.616 -2.097,0.493 -3.083,0.863 -0.987,0.369 -1.604,0.986 -2.22,1.479 -0.616,0.493 -2.713,0.986 -3.7,1.727 -0.986,0.74 -1.357,1.11 -2.467,1.233 -1.109,0.123 -2.096,-0.247 -3.083,0.123 -0.986,0.37 -1.11,1.233 -2.713,1.727 -1.604,0.494 -1.604,0 -3.083,0 -1.48,0 -1.48,-0.37 -1.973,0.494 -0.494,0.863 -1.357,-0.247 -2.344,-0.37 -0.987,-0.124 -0.863,-0.493 -1.233,0 -0.37,0.493 -1.233,0 -1.85,-0.617 -0.617,-0.616 -1.233,-0.986 -2.59,-0.863 -1.357,0.124 -0.74,0 -1.233,0.863 -0.494,0.864 0.123,0.74 0.986,1.48 0.863,0.74 0.987,0.986 1.233,1.85 0.247,0.864 -0.74,1.48 -1.11,1.48 -0.37,0 -1.479,-0.247 -2.343,-0.124 -0.864,0.124 -1.11,-0.74 -1.357,-1.48 -0.247,-0.74 0,-1.48 -0.37,-2.344 -0.37,-0.863 -0.987,-0.739 -1.851,-1.109 -0.863,-0.37 -1.48,-0.74 -1.973,-0.617 -0.494,0.124 -1.357,0.124 -2.713,0.247 -1.357,0.123 -1.479,-0.863 -3.33,-0.617 -1.85,0.247 -1.233,0.617 -2.467,1.851 -1.234,1.234 -0.863,2.59 -0.863,4.81 0,2.22 0.37,1.727 1.357,2.591 0.987,0.863 1.11,1.109 1.48,2.096 0.37,0.987 -0.37,2.344 0,3.824 0.37,1.479 0.863,-0.247 1.974,-0.494 1.11,-0.246 0.986,-0.123 0.739,1.11 -0.246,1.233 -0.246,0.986 0.74,2.22 0.987,1.233 0.617,0.247 1.604,0.617 0.987,0.37 1.727,-0.494 2.343,-0.864 0.617,-0.37 1.11,0.124 2.467,0.124 1.357,0 0.247,0.74 0.494,1.974 0.246,1.232 1.356,-0.247 1.973,-1.357 0.617,-1.109 0.493,-1.356 1.233,-3.453 0.74,-2.097 0.617,-0.493 1.604,-0.829 0.986,-0.335 1.85,0.829 2.713,0 0.864,-0.829 0.494,-0.897 1.11,-0.897 0.617,0 2.097,-0.863 2.467,-0.493 0.37,0.37 0.37,0.616 2.22,0.863 1.851,0.247 0,0 1.604,-0.123 1.604,-0.124 0.987,0.493 2.96,0.616 1.974,0.124 0.987,0 1.48,-1.812 0.493,-1.812 1.11,-0.655 2.466,-0.778 1.357,-0.123 1.973,-0.123 3.7,-0.493 1.727,-0.37 0.74,-0.37 1.851,0.246 1.11,0.617 1.604,0.74 2.836,0.987 1.233,0.247 1.973,-0.74 3.454,-1.851 1.48,-1.109 1.85,-1.479 3.33,-3.028 1.479,-1.549 0.616,-1.535 1.918,-2.398 1.303,-0.863 1.165,0.124 1.535,0.74 0.37,0.617 3.823,0.37 5.427,-0.493 1.604,-0.863 1.356,-1.604 2.343,-3.577 0.987,-1.973 1.233,-2.22 2.466,-2.836 1.233,-0.617 0.74,-0.864 2.22,-1.356 1.48,-0.493 1.85,0.123 3.083,0.246 1.233,0.123 1.109,0.74 1.109,1.974 0,1.234 -1.479,0.986 -1.973,1.727 -0.494,0.74 -0.617,1.727 -1.11,2.467 -0.493,0.74 -1.974,0.863 -2.097,1.85 -0.123,0.986 0.987,1.479 2.59,1.604 1.604,0.123 2.344,0 4.07,0 1.727,0 2.343,-1.11 3.453,-1.48 1.11,-0.37 1.604,-1.727 2.96,-2.22 1.356,-0.493 2.96,-1.727 3.7,-2.343 0.74,-0.617 2.59,-0.863 3.823,-2.467 1.233,-1.604 1.727,-1.604 2.96,-2.714 1.233,-1.109 2.467,-2.59 2.714,-3.7 0.247,-1.11 0,-1.603 -0.987,-2.22 -0.986,-0.616 -1.11,-0.247 -2.466,-0.247 -1.357,0 -1.85,0.864 -2.836,1.233 -0.987,0.371 -1.974,1.48 -3.33,1.854 -1.356,0.374 -2.221,1.477 -3.454,1.846 -1.234,0.37 -1.727,0.987 -2.343,1.357 -0.617,0.371 -2.097,0.371 -3.083,0.494 -0.987,0.123 -1.727,-0.494 -1.357,-1.222 0.37,-0.728 1.11,-0.135 2.22,-0.012 1.11,0.123 1.973,-0.74 2.961,-0.863 0.986,-0.124 1.479,-0.617 2.713,-1.6 1.234,-0.983 1.727,-0.867 2.59,-2.101 0.864,-1.233 0.74,-1.974 1.11,-2.837 0.37,-0.863 1.727,-0.123 2.59,-0.123 0.863,0 0.74,-0.987 0.493,-2.344 -0.246,-1.356 -0.616,-1.233 -1.233,-1.85 -0.616,-0.617 0.37,-0.74 1.851,-0.74 1.479,0 0.863,-0.493 2.22,0.124 1.356,0.617 -0.247,1.357 -0.863,2.097 -0.617,0.739 -0.247,2.22 0.74,3.329 0.986,1.11 2.343,0.617 3.33,0.74 0.987,0.124 2.343,0.124 2.837,-0.986 0.494,-1.11 0.493,-1.727 0.74,-3.207 0.247,-1.479 0.617,-1.233 0.74,-2.96 0.123,-1.727 -0.247,-0.616 -1.233,-0.863 -0.986,-0.247 -0.617,-0.37 -1.48,-1.033 -0.864,-0.664 0,-0.94 0.124,-1.927 0.123,-0.986 -0.494,-0.493 -1.604,-0.986 -0.756,-0.336 0.616,-0.863 1.233,-0.987 0.616,-0.123 1.11,0.863 1.48,1.233 0.37,0.37 0,1.11 0.124,2.097 0.123,0.987 1.109,0.494 1.973,0 0.863,-0.493 0.617,-0.863 0.74,-1.85 0.123,-0.986 -0.616,-2.22 -0.616,-3.083 0,-0.863 -0.247,-1.85 -0.74,-2.22 -0.493,-0.369 -0.74,0.494 -0.863,1.233 -0.124,0.74 -1.604,0.247 -2.467,0 -0.863,-0.246 0.123,-1.233 0,-1.973 -0.123,-0.74 -1.48,-1.973 -2.097,-2.713 -0.617,-0.74 -1.604,-0.123 -2.22,-0.617 -0.617,-0.494 0.123,-1.233 0,-2.394 -0.124,-1.162 -0.987,-0.319 -2.097,-0.196 -1.11,0.124 -1.233,0.37 -1.727,0 -0.493,-0.37 -2.22,-0.74 -2.591,-1.11 -0.369,-0.37 -1.727,-1.356 -2.343,-1.85 -0.617,-0.494 0.37,-1.604 0,-2.097 -0.37,-0.493 -1.603,-1.11 -2.344,-1.709 -0.74,-0.6 -0.493,-1.003 -1.727,-1.25 -1.233,-0.247 -0.986,0 -1.85,-0.617 -0.863,-0.617 -1.11,0.247 -0.74,1.867 0.37,1.621 -0.616,0.97 -1.604,0.723 -0.986,-0.247 -0.246,-1.356 -0.863,-2.097 -0.616,-0.74 -0.986,-0.616 -1.973,-0.629 -0.987,-0.013 -2.466,-0.48 -4.193,-0.604 -1.727,-0.123 -1.973,0.124 -2.59,0.37 -0.616,0.247 -1.233,0.37 -2.22,0 -0.987,-0.37 -1.481,-1.48 -2.467,-1.48 -0.986,0 -0.37,0.863 -0.986,0.74 -0.617,-0.123 -1.233,-1.11 -1.708,-1.973 -0.475,-0.863 -0.143,-0.863 -0.019,-1.603 0.123,-0.74 -0.37,-1.233 -0.987,-2.96 -0.617,-1.726 -0.124,-1.357 -0.864,-2.344 -0.74,-0.986 -1.109,-1.604 -1.479,-2.836 -0.37,-1.233 -0.247,-2.097 -0.863,-3.362 -0.616,-1.266 -1.357,0.033 -2.59,-0.898 -1.233,-0.931 -0.124,-1.783 -0.864,-2.769 -0.74,-0.987 -0.863,-1.851 -0.987,-3.207 -0.123,-1.356 -0.247,-0.987 -1.109,-2.22 -0.863,-1.233 -1.48,-0.494 -1.48,0.581 0,1.075 -0.123,1.269 -0.986,1.516 -0.864,0.246 -0.863,-0.37 -0.771,-1.516 0.092,-1.145 -0.216,-0.951 -0.092,-1.444 0.123,-0.494 0.123,-1.233 0,-2.344 -0.124,-1.11 -1.48,-0.74 -2.714,-1.11 -1.233,-0.37 -1.48,-0.74 -2.837,-1.11 -1.356,-0.37 -1.357,-0.987 -2.22,-1.727 -0.863,-0.74 -1.727,-0.494 -3.083,-0.74 -1.357,-0.247 -1.604,0.74 -2.467,2.22 -0.863,1.48 -1.727,0.987 -2.96,1.48 -1.233,0.493 -1.85,-0.863 -2.59,0 -0.74,0.863 -0.247,1.356 -1.11,2.59 -0.863,1.233 0,0 -0.986,-0.74 -0.987,-0.74 -0.617,0.248 -1.604,1.11 -0.986,0.863 -0.247,1.727 -0.123,3.083 0.123,1.357 0.863,1.85 1.48,2.96 0.617,1.11 1.357,1.851 2.097,2.59 0.74,0.74 1.48,0.74 1.727,1.356 0.247,0.617 -1.233,0.247 -1.727,0 -0.493,-0.247 -1.233,-1.233 -1.603,-1.727 -0.37,-0.493 -0.74,-1.233 -1.48,-1.727 -0.74,-0.493 -0.987,-0.986 -2.22,-1.778 -1.233,-0.791 -1.357,-0.812 -2.714,-1.058 -1.357,-0.247 -0.616,1.233 -0.863,1.727 -0.247,0.494 -1.356,0.616 -2.22,0 -0.863,-0.617 -1.851,0 -2.344,0 -0.493,0 -2.097,0 -2.96,0 0,0 -0.37,0.863 -0.37,1.233 0,0.37 0.247,1.727 0.74,2.769 0.494,1.042 0.617,1.425 0.493,2.043 -0.123,0.618 1.48,1.108 2.59,0.738 1.11,-0.37 0.987,-0.863 1.974,-0.738 0.987,0.125 -0.493,1.231 -0.986,1.354 -0.493,0.124 -0.863,1.357 -1.233,1.851 -0.37,0.493 -0.987,1.479 -1.233,2.343 -0.247,0.864 -1.604,0.37 -2.837,0.494 -1.233,0.124 -1.233,0.494 -1.727,1.11 -0.493,0.617 0.37,2.59 0.74,4.07 0.37,1.479 1.109,0.74 2.467,0.74 1.356,0 1.233,0.617 2.343,0.863 1.11,0.247 1.11,0.37 1.851,1.233 0.74,0.864 3.206,0.124 4.192,-0.617 0.987,-0.74 1.851,-0.617 3.947,-0.617 2.097,0 0.986,1.233 1.604,1.85 0.616,0.616 1.11,0.37 2.097,1.11 0.986,0.739 1.356,0.616 2.836,1.127 1.48,0.511 1.48,1.34 2.96,2.326 1.48,0.986 1.48,1.233 2.096,2.59 0.615,1.354 -0.002,0.861 -1.112,1.725"
   style="fill:#677821" />
					<path
   id="Staffa_3_"
   d="m 740.221,1165.834 0.779,-2.262 -0.39,-0.939 -0.389,-0.182 -0.964,1.303 v 0.582 l 0.389,0.182 0.764,-0.382 -0.378,1.317 0.189,0.381" />
					<path
   id="Ulva_3_"
   fill="#303B09"
   d="m 765.692,1157.058 c 0,0 0.231,-0.462 0.601,-0.694 0.37,-0.231 0.37,-0.139 0.509,-0.416 0.139,-0.277 0.324,-0.463 0,-1.018 -0.324,-0.556 0.18,0.277 0,0 -0.267,-0.412 0.18,0.231 0.18,0.231 -0.386,-0.865 -1.42,-2.197 -3.526,-3.099 -0.863,-0.37 -1.11,0.247 -1.85,0.124 -0.74,-0.123 -0.74,-0.863 -1.727,-1.604 -0.986,-0.74 -1.48,-1.604 -2.714,-2.096 -1.233,-0.494 -1.604,0.246 -1.727,0.863 -0.123,0.615 -1.458,0.216 -1.857,0.226 -0.451,0.011 -0.737,0.227 -1.166,0.338 -0.477,0.123 -0.982,0.126 -1.467,0.058 -0.699,-0.099 -1.387,0.021 -2.091,-0.268 -0.688,-0.28 -1.258,-0.37 -2.035,-0.37 -0.562,0 -1.838,-0.08 -2.278,0.266 -0.577,0.455 0.423,0.622 0.698,0.761 0.309,0.961 -1.156,3.704 0.84,3.516 0.619,-0.058 1.946,-0.525 2.324,0.211 0.192,0.374 -0.062,0.631 0.359,0.935 0.294,0.212 0.617,0.249 0.925,0.049 0.237,-0.153 0.568,-0.52 0.882,-0.471 0.298,0.046 0.392,0.405 0.676,0.514 0.604,0.233 1.395,-0.201 1.852,0.368 0.359,0.448 0.143,1.158 0.558,1.577 0.516,0.52 1.827,0.362 2.434,0.1 0.694,-0.3 0.952,-1.101 1.692,-1.397 1.233,-0.493 0.74,0.124 0.74,1.604 0,1.48 0.494,1.357 1.603,1.324 1.11,-0.032 0.617,-1.077 2.22,-1.324 1.604,-0.246 1.48,-0.123 2.96,-0.246 z"
   style="fill:#677821" />
					<path
   id="Little_Colonsay_3_"
   fill="#303B09"
   d="m 750.522,1161.221 c 0.046,0.37 0.647,0.555 1.387,0.647 0.74,0.093 0.555,-0.277 0.601,-0.925 0.046,-0.648 0.185,-0.602 -0.647,-1.064 -0.832,-0.462 -0.971,-0.185 -1.341,0 0,0 -0.047,0.972 0,1.342 z"
   style="fill:#677821" />
					<path
   fill="#303B09"
   d="m 727.72,1154.283 c 0,0 0.833,0.277 1.543,0 0.71,-0.277 0.215,-1.11 0.492,-1.665 0.277,-0.555 0.833,-1.018 1.018,-2.128 0.185,-1.109 -0.463,-1.109 -0.832,-0.647 -0.371,0.463 -1.387,0.74 -1.573,1.11 -0.185,0.37 -0.647,2.312 -0.647,2.563 v 0.767 z"
   id="path1221"
   style="fill:#677821" />
					<path
   fill="#303B09"
   d="m 730.805,1148.325 c 0.125,0.148 0.43,0.408 0.522,0 0.093,-0.408 0.555,-0.517 0.555,-0.517 l -0.555,-0.462 c 10e-4,0 -0.647,0.832 -0.522,0.979 z"
   id="path1222"
   style="fill:#677821" />
					<path
   fill="#303B09"
   d="m 733.178,1147.346 c 0,0 0.185,-1.11 0,-1.77 -0.186,-0.659 0.647,-0.266 0.647,-0.636 0,-0.37 -0.278,-0.555 -0.647,-0.462 -0.37,0.093 -0.648,0.833 -0.648,0.833 v 1.388 z"
   id="path1223"
   style="fill:#677821" />
					<path
   fill="#303B09"
   d="m 735.028,1144.455 h 0.745 c 0,0 0.827,-0.901 0.744,-0.994 -0.083,-0.092 -0.842,-0.277 -1.489,0 z"
   id="path1224"
   style="fill:#677821" />
					<path
   fill="#303B09"
   d="m 723.465,1164.143 c 0.093,-0.13 0.37,-0.887 0.421,-1.691 0.051,-0.804 0.227,-0.306 0.597,-0.569 0.37,-0.263 0.37,-0.846 0.462,-1.128 0.092,-0.281 -0.555,-0.458 -0.555,-0.458 0,0 -1.109,1.48 -1.202,1.586 -0.093,0.107 -0.37,1.836 -0.37,1.836 0,0 0.554,0.554 0.647,0.424 z"
   id="path1225"
   style="fill:#677821" />
					<path
   id="Coll_3_"
   fill="#303B09"
   d="m 691.738,1130.418 c 0,0 0.555,0.463 1.018,1.203 0.463,0.74 1.018,1.295 1.572,0.925 0.555,-0.37 0.833,-0.647 0.648,-2.335 -0.185,-1.688 0.185,-0.717 0.185,-1.641 0,-0.925 1.018,-0.648 2.127,-0.556 1.11,0.092 1.018,0 1.573,0.556 0.555,0.554 0.648,0.924 1.018,1.202 0.37,0.278 0.832,0.833 1.665,0 0.833,-0.833 0.462,-0.555 0.462,-1.665 0,-1.11 0,-0.924 0.647,-1.202 0.648,-0.278 0,1.11 0.185,2.035 0.185,0.925 0.925,0 1.757,-0.185 0.833,-0.184 0.74,-1.018 1.388,-1.109 0.647,-0.093 0.833,-0.371 1.807,-0.926 0.974,-0.554 0.506,0.464 1.523,0.464 1.018,0 0.833,-0.186 1.11,-1.666 0.278,-1.48 0.833,-0.185 1.757,-0.555 0.925,-0.37 0.647,0.185 0.833,-1.573 0.185,-1.757 0.555,-0.739 1.479,-1.202 0.925,-0.462 0.647,-0.185 1.018,-1.48 0.37,-1.295 0.37,-0.833 0.277,-2.22 -0.092,-1.387 -0.185,-1.572 0.278,-1.387 0.462,0.185 0.74,1.48 1.665,2.127 0.925,0.647 1.017,-0.277 1.942,-1.388 0.925,-1.11 0.925,-1.665 1.573,-2.96 0.647,-1.295 0.925,-2.035 1.572,-3.515 0.647,-1.48 1.203,-2.59 1.572,-4.533 0.37,-1.943 0.648,-3.422 0,-4.724 -0.647,-1.301 -1.202,-0.363 -1.572,0 -0.37,0.363 -1.388,0.099 -2.312,0.01 -0.925,-0.093 -0.647,0.832 -1.388,0.925 -0.74,0.093 0,0 -0.832,0.555 -0.833,0.556 -0.37,0.556 -1.11,0.833 -0.74,0.278 -1.018,0.462 -1.942,0.647 -0.925,0.185 -0.833,0.925 -1.388,1.85 -0.555,0.925 -1.387,0.833 -1.572,1.48 -0.185,0.647 -0.185,0.832 -1.018,0.832 -0.833,0 -1.572,0.555 -1.665,1.35 -0.093,0.795 -0.185,0.871 -0.555,0.963 -0.37,0.092 -0.74,0.185 -1.203,0.74 -0.462,0.555 -1.388,0.37 -1.666,1.202 -0.277,0.833 -1.295,0.74 -2.22,1.11 -0.925,0.37 -0.647,1.48 -0.462,2.312 0.185,0.833 -0.185,1.11 -0.833,1.757 -0.647,0.648 -1.388,0.555 -1.942,1.295 -0.555,0.74 -0.647,1.202 -0.925,2.59 -0.278,1.388 -0.74,0.555 -1.388,0.74 -0.647,0.185 -0.555,0.74 -0.74,1.86 -0.185,1.12 -0.555,0.36 -1.572,0.175 -1.018,-0.185 -0.555,-0.277 -1.295,0 -0.74,0.278 -0.925,0.833 -1.295,1.758 -0.37,0.925 -1.11,1.017 -1.85,1.11 -0.74,0.092 -0.858,1.046 -0.74,1.572 0.105,0.462 0.834,0.647 0.834,0.647 z"
   style="fill:#677821" />
					<path
   id="Tiree_3_"
   fill="#303B09"
   d="m 652.425,1147.944 c 0.185,0.044 1.942,1.066 2.405,1.991 0.462,0.925 0.185,2.59 0.277,3.978 0.093,1.388 -0.185,2.312 -0.648,3.422 -0.463,1.11 0.37,1.757 1.018,2.96 0.647,1.203 1.018,-0.647 1.665,-1.588 0.648,-0.94 0.555,0.017 1.665,-0.017 1.109,-0.032 0.832,0.218 1.479,1.605 0.647,1.388 0.833,1.666 2.128,2.156 1.295,0.491 2.035,0.435 2.96,0 0.925,-0.435 1.942,-0.49 2.312,-1.23 0.37,-0.74 -0.185,-1.388 -0.463,-2.514 -0.277,-1.126 -0.277,-1.279 -0.277,-1.927 0,-0.648 -0.37,-1.942 0.093,-2.374 0.462,-0.432 1.295,-1.048 1.572,-2.279 0.277,-1.231 0.463,-0.804 1.295,-1.358 0.833,-0.556 1.018,-0.463 1.758,-0.463 0.74,0 0.092,1.388 1.018,1.673 0.925,0.286 1.757,0.084 2.127,0 0.37,-0.084 1.481,-0.285 2.59,-0.748 1.11,-0.462 0.647,-0.647 0.833,-1.679 0,0 0.74,-0.818 1.202,-2.206 0.463,-1.388 -0.277,-1.573 -1.018,-2.22 -0.739,-0.647 -0.555,-0.925 -0.37,-1.812 0.185,-0.886 1.48,-0.778 2.312,-1.148 0.833,-0.37 2.035,0.092 2.498,0.37 0.462,0.277 1.85,0.093 3.053,0 1.202,-0.092 1.202,-0.278 1.942,-0.092 0.74,0.185 1.018,-0.37 1.588,-1.203 0.57,-0.832 -0.2,-2.22 -0.478,-3.237 -0.278,-1.018 -0.74,-0.37 -1.521,-0.647 -0.781,-0.277 -1.254,-0.74 -1.717,-1.757 -0.462,-1.018 -0.648,-1.018 -1.295,-0.833 -0.647,0.185 0,1.665 -0.647,1.665 -0.648,0 -1.387,1.48 -2.312,1.85 -0.925,0.37 -1.665,0.278 -2.683,-0.277 -1.017,-0.555 -0.925,-0.277 -2.497,-0.462 -1.572,-0.185 -2.035,1.203 -2.868,1.85 -0.833,0.647 -1.665,0.74 -2.59,1.083 -0.925,0.341 -0.185,1.415 -0.925,1.785 -0.74,0.371 -0.832,0.833 -1.942,0.278 -1.11,-0.555 -0.647,-0.832 -1.48,-1.018 -0.833,-0.185 -0.925,0.462 -1.387,-0.555 -0.463,-1.018 -1.388,-0.092 -2.22,-0.359 -0.833,-0.267 -0.74,0.359 -1.757,0.082 -1.017,-0.277 -1.573,0.185 -2.405,0.833 -0.832,0.647 -0.647,0.833 -1.85,1.387 -1.203,0.555 -1.203,0.648 -1.481,1.549 -0.277,0.902 -0.74,0.613 -1.572,1.446 -0.833,0.832 -1.388,0.798 -1.388,0.798 0,0 -0.183,1.198 10e-4,1.242 z"
   style="fill:#677821" />
					<path
   fill="#303B09"
   d="m 735.028,1199.423 c 0.093,0.37 -0.185,1.388 0.691,1.706 0.877,0.319 0.511,-0.226 1.343,-0.041 0.831,0.185 1.018,-0.277 1.203,-0.925 0.186,-0.647 0.186,-1.85 0,-2.645 -0.185,-0.795 -0.647,-0.408 -1.748,-0.593 -1.101,-0.186 -0.742,1.202 -0.742,1.202 0,0 -0.84,0.926 -0.747,1.296 z"
   id="path1226"
   style="fill:#677821" />
					<path
   fill="#303B09"
   d="m 726.052,1202.568 c 0.552,0.185 0.928,0.092 1.206,-0.37 0.278,-0.463 0.462,-0.74 0,-1.577 -0.462,-0.837 -0.185,-0.735 -1.166,-1.105 -0.98,-0.37 0.056,0.37 0,0.647 -0.056,0.277 -0.315,0.37 -1.138,0.462 -0.824,0.093 -0.102,0.648 0,1.203 0.001,0 0.546,0.555 1.098,0.74 z"
   id="path1227"
   style="fill:#677821" />
					<path
   id="Colonsay_3_"
   fill="#303B09"
   d="m 752.14,1252.98 c 0,0 0,0 -0.647,0.647 -0.647,0.647 0.463,0.556 0.647,0.942 0.186,0.388 -0.37,0.445 -1.295,0.815 -0.925,0.37 0.093,0.555 0.555,0.925 0.462,0.37 0.185,1.11 -0.278,1.665 -0.462,0.555 -1.109,0.925 -1.32,2.59 -0.211,1.665 0.211,1.018 1.043,0.647 0.833,-0.37 0.74,-0.74 1.572,-0.925 0.833,-0.185 0,0 -0.185,0.925 -0.185,0.925 0,0 -0.093,0.74 -0.092,0.74 0.925,-0.093 2.22,0 1.296,0.092 2.035,-0.463 2.683,0 0.648,0.462 -0.925,1.018 -2.035,1.295 -1.11,0.277 -1.295,0.093 -2.22,-0.093 -0.925,-0.185 -1.942,0.093 -2.497,0.37 -0.555,0.277 -0.74,1.11 0,1.942 0.74,0.833 1.295,1.295 1.388,2.405 0.092,1.11 -0.186,1.851 0.555,2.683 0.74,0.832 1.48,-0.463 2.405,-1.388 0.925,-0.925 0.555,-1.757 0.832,-2.405 0.277,-0.647 0.925,-0.74 1.942,-1.202 1.017,-0.462 1.203,-0.462 1.203,-0.925 0,-0.463 0.092,-1.942 0.925,-2.96 0.832,-1.018 1.48,-1.11 1.85,-2.22 0.37,-1.11 -0.277,-2.312 -0.277,-3.7 0,-1.388 0.463,-1.388 0.925,-2.312 0.463,-0.925 1.572,-1.758 1.851,-2.59 0.277,-0.833 0.647,-2.405 1.018,-3.145 0.37,-0.74 2.127,-3.607 2.312,-3.978 0.185,-0.37 1.572,-3.237 1.479,-3.792 -0.092,-0.556 -0.462,-1.295 -1.757,-1.573 -1.295,-0.277 -1.48,0.74 -2.59,1.203 -1.109,0.462 -1.202,1.202 -1.757,2.127 -0.556,0.925 -0.185,2.405 -1.11,2.591 -0.925,0.185 -1.295,-0.371 -2.59,-0.556 -1.295,-0.185 -1.203,1.203 -1.48,1.85 -0.277,0.648 -1.387,0.833 -1.942,1.294 -0.555,0.463 -1.85,2.036 -2.497,2.591 -0.647,0.555 -0.74,2.405 -0.74,2.774 z"
   style="fill:#677821" />
					<path
   fill="#303B09"
   d="m 832.337,1194.613 c 0.648,-0.555 0.833,-0.278 0.937,-1.018 0.103,-0.74 0.729,-0.833 1.236,-1.48 0.506,-0.647 0.419,-0.647 0,-1.202 -0.418,-0.555 -0.507,0.277 -0.877,0.833 -0.37,0.555 -0.555,0.185 -0.833,0.462 -0.277,0.277 -0.37,0.555 -0.463,0.925 -0.092,0.37 -0.647,1.018 -0.647,1.48 0,0 0,0.555 0.647,0 z"
   id="path1228"
   style="fill:#677821" />
					<path
   id="Luing_3_"
   fill="#303B09"
   d="m 833.274,1210.985 c -0.174,1.018 -0.381,0.74 -1.028,1.665 -0.648,0.925 -0.277,1.11 -0.186,2.282 0.093,1.172 -0.092,1.418 -0.37,2.436 -0.278,1.018 1.018,1.018 1.583,1.757 0.566,0.74 0.081,1.943 0.729,3.053 0.647,1.11 0.925,2.683 1.373,2.868 0.447,0.185 1.218,-0.833 1.587,-2.035 0.37,-1.203 -0.555,-1.85 -0.37,-2.683 0.185,-0.832 -0.093,-1.388 0.092,-2.405 0.186,-1.018 -0.185,-0.925 0.74,-2.683 0.925,-1.757 0.093,-2.59 0,-4.717 -0.092,-2.127 -0.555,-1.387 -1.316,-1.85 -0.761,-0.462 0.298,-1.665 -0.072,-2.404 -0.37,-0.74 0.278,-1.019 0,-1.296 -0.277,-0.277 -0.74,-0.185 -1.18,0 -0.44,0.186 -0.947,1.388 -1.132,1.823 -0.185,0.436 -0.832,1.877 -0.832,1.877 -0.233,0.523 0.556,1.295 0.382,2.312 z"
   style="fill:#677821" />
					<path
   id="Shuna_3_"
   fill="#303B09"
   d="m 837.858,1218.514 c 0.062,0.59 -0.062,1.259 0,1.907 0.062,0.647 0.585,1.757 1.048,2.22 0.462,0.462 1.664,-0.277 2.035,-0.925 0.37,-0.647 1.018,-1.018 0.971,-1.943 -0.046,-0.925 -0.139,-1.48 -0.016,-2.22 0.122,-0.74 -0.493,-1.572 -0.863,-2.62 -0.37,-1.048 -0.925,-0.617 -1.572,-0.524 -0.647,0.092 -0.833,1.202 -0.833,1.202 l -0.769,1.48 c -0.001,0 -0.064,0.832 -0.001,1.423 z"
   style="fill:#677821" />
					<path
   fill="#303B09"
   d="m 822.052,1208.581 c 0.074,-0.278 0.388,-0.462 0.666,-1.089 0.277,-0.627 -0.556,-0.483 -0.833,-0.695 -0.277,-0.212 -0.476,1.042 -0.555,1.415 -0.098,0.46 0.648,0.646 0.722,0.369 z"
   id="path1229"
   style="fill:#677821" />
					<path
   fill="#303B09"
   d="m 817.723,1213.483 c 0.462,0 0.925,-0.74 1.387,-1.294 0.463,-0.556 0.833,-0.37 1.48,-0.926 0.648,-0.555 0,-0.462 0,-1.388 0,-0.925 -0.37,-0.646 -0.925,-1.164 -0.556,-0.518 -0.925,0.239 -1.481,0.979 -0.555,0.74 -0.74,0.463 -1.479,0.74 -0.74,0.277 -0.185,1.202 0,1.758 10e-4,0 0.555,1.295 1.018,1.295 z"
   id="path1230"
   style="fill:#677821" />
					<path
   fill="#303B09"
   d="m 814.208,1214.933 c 0,0 1.11,-0.433 1.48,-0.69 0.37,-0.259 0.462,-0.481 0.643,-0.759 0.181,-0.277 -0.643,-1.11 -0.921,-1.11 -0.278,0 -1.018,0.74 -1.203,1.11 v 1.449 z"
   id="path1231"
   style="fill:#677821" />
					<path
   fill="#303B09"
   d="m 810.786,1218.514 c 0.37,-0.612 0.832,-0.591 0.967,-0.961 0.134,-0.369 1.067,-0.462 1.623,-1.302 0.555,-0.838 0.093,-0.363 0,-1.318 -0.093,-0.955 -0.277,-0.433 -0.74,0 -0.462,0.433 -1.11,1.048 -1.572,1.604 -0.463,0.555 -0.925,1.202 -1.203,1.572 -10e-4,-10e-4 0.555,1.016 0.925,0.405 z"
   id="path1232"
   style="fill:#677821" />
					<path
   fill="#303B09"
   d="m 824.538,1212.928 c 0.34,0 0.585,-0.647 0.771,-1.202 0.185,-0.555 -0.463,-0.647 -0.833,-0.714 -0.37,-0.066 -0.648,0.344 -0.74,0.714 -10e-4,0 0.462,1.202 0.802,1.202 z"
   id="path1233"
   style="fill:#677821" />
					<path
   fill="#303B09"
   d="m 823.273,1216.165 c 0.37,0.093 0.74,-0.277 1.08,-0.739 0.341,-0.463 0.955,-0.555 1.417,-1.184 0.462,-0.629 -0.185,-0.759 -0.43,-0.759 -0.245,0 -1.235,0.278 -1.605,0.17 -0.37,-0.108 -0.648,1.032 -0.961,1.772 0,10e-4 0.129,0.648 0.499,0.74 z"
   id="path1234"
   style="fill:#677821" />
					<path
   fill="#303B09"
   d="m 828.545,1218.709 c 0,-0.509 -0.093,-2.636 0,-3.099 0.093,-0.462 0.977,-1.295 0.35,-2.127 -0.627,-0.833 -0.904,-0.677 -1.09,0.17 -0.185,0.847 0.093,1.31 -0.462,2.05 -0.556,0.74 -1.508,-0.366 -2.003,1.112 -0.495,1.478 0,1.386 -0.803,1.894 -0.802,0.509 -1.912,0.509 -1.357,1.249 0.555,0.74 1.388,1.48 1.851,0.74 0.462,-0.74 0.128,-0.463 1.128,-0.093 1,0.37 2.017,0.243 2.387,0.399 0.37,0.157 -0.001,-1.785 -0.001,-2.295 z"
   id="path1235"
   style="fill:#677821" />
					<path
   id="Scarba_3_"
   fill="#303B09"
   d="m 822.047,1225.971 c -0.393,0.555 -1.087,0.925 -1.55,1.479 -0.462,0.556 -0.37,2.221 0,3.516 0.37,1.295 2.128,0.74 3.856,0.832 1.728,0.093 3.545,-0.277 4.765,-0.832 1.22,-0.555 1.186,-0.74 1.833,-1.295 0.647,-0.556 0,-1.018 -0.463,-2.128 -0.462,-1.11 0.093,-1.665 0,-2.476 -0.093,-0.811 -0.555,-2.149 -1.37,-2.89 -0.814,-0.739 -0.758,-0.555 -1.22,-0.647 -0.463,-0.092 -2.035,1.573 -2.558,1.255 -0.522,-0.318 -1.68,0.797 -2.31,1.428 -0.443,0.445 -0.59,1.202 -0.983,1.758 z"
   style="fill:#677821" />
					<path
   fill="#303B09"
   d="m 836.593,1245.396 c 0.277,0.277 1.202,-0.925 1.644,-1.572 0.441,-0.647 0.946,-1.573 1.224,-2.052 0.277,-0.479 0.462,-1 0.412,-1.463 -0.051,-0.462 -1.152,0.462 -1.522,0.833 -0.37,0.37 -1.479,1.665 -1.757,2.22 -0.001,0 -0.279,1.756 -0.001,2.034 z"
   id="path1236"
   style="fill:#677821" />
					<path
   fill="#303B09"
   d="m 836.469,1233.278 c 0.524,0.37 0.401,-0.463 0.745,-0.925 0.343,-0.462 0.582,-1.11 0.961,-1.551 0.379,-0.441 0.175,-0.576 0,-1.316 -0.176,-0.739 -0.657,0.463 -1.12,0.925 -0.462,0.462 -0.832,1.665 -1.018,1.942 10e-4,0 -0.092,0.555 0.432,0.925 z"
   id="path1237"
   style="fill:#677821" />
					<path
   fill="#303B09"
   d="m 832.616,1238.318 c 0.185,0.323 0.555,-0.23 0.658,-0.508 0.103,-0.277 0.359,-0.647 0.544,-0.925 0.185,-0.278 0.277,-0.555 0,-1.295 -0.277,-0.74 0,0 -0.544,0.462 -0.544,0.463 -0.474,0.833 -0.658,1.295 0,10e-4 -0.186,0.649 0,0.971 z"
   id="path1238"
   style="fill:#677821" />
					<path
   fill="#303B09"
   d="m 843.253,1238.365 c 0,0 0,0 0,0.556 0,0.555 0.555,0.462 0.647,0 0.092,-0.463 0.833,-0.463 1.187,-1.018 0.354,-0.555 0.664,-0.833 1.034,-2.128 0.37,-1.295 0,0 -0.37,-0.498 -0.37,-0.5 -0.833,0.313 -1.018,0.775 -0.185,0.463 -0.555,0.833 -0.833,1.388 z"
   id="path1239"
   style="fill:#677821" />
					<path
   fill="#303B09"
   d="m 846.953,1234.573 c 0.37,0 1.11,-1.295 1.394,-1.942 0.283,-0.648 0.827,-1.018 1.382,-1.471 0.555,-0.454 0.37,-1.027 0,-1.91 -0.37,-0.882 -0.555,0.421 -0.833,0.79 -0.277,0.371 -1.109,0.833 -1.387,1.271 -0.277,0.438 -0.84,1.408 -1.234,2.06 -0.379,0.623 0.308,1.202 0.678,1.202 z"
   id="path1240"
   style="fill:#677821" />
					<path
   id="Jura_3_"
   fill="#303B09"
   d="m 792.84,1318.286 c 0.185,-1.018 0,-1.48 0.277,-3.33 0.277,-1.851 0.463,-1.203 1.295,-2.405 0.833,-1.203 0.37,-1.572 -0.093,-2.405 -0.462,-0.833 -0.369,-1.295 -0.277,-1.85 0.092,-0.555 0.648,-2.405 1.11,-4.07 0.463,-1.665 1.295,-2.405 2.128,-3.145 0.832,-0.74 0.832,-0.092 1.85,0.462 1.018,0.555 0.925,0.925 1.665,0.277 0.74,-0.647 0.37,-1.295 0.75,-2.96 0.38,-1.665 -0.472,-1.665 0.545,-2.404 1.018,-0.74 0.37,0.462 0.37,1.017 0,0.556 -0.093,1.48 0.74,1.573 0.832,0.092 0.74,-0.555 1.018,-1.942 0.277,-1.387 0,-2.035 -0.093,-3.792 -0.093,-1.758 0.277,-2.683 1.11,-3.792 0.833,-1.11 1.203,-1.11 1.85,-2.868 0.648,-1.757 0.37,-2.59 0.462,-3.792 0.092,-1.202 1.295,-2.127 2.312,-4.625 1.018,-2.498 0.556,-0.092 1.48,-2.035 0.925,-1.942 1.11,-2.405 1.572,-4.533 0.463,-2.127 0.833,-2.682 2.37,-4.532 1.537,-1.85 0.59,-0.74 2.07,-2.312 1.48,-1.572 1.11,-2.683 1.665,-4.439 0.555,-1.758 1.757,-3.7 2.304,-5.272 0.546,-1.572 2.229,-3.33 3.031,-4.348 0.803,-1.018 3.638,-6.66 4.377,-8.418 0.74,-1.757 -0.462,-2.867 -0.555,-5.496 -0.092,-2.629 -0.74,-2.459 -2.471,-2.828 -1.731,-0.37 -2.154,1.202 -2.93,1.259 -0.777,0.055 -1.906,2.071 -2.589,3.041 -0.684,0.971 -0.89,1.064 -2.37,1.863 -1.48,0.798 -1.757,2.531 -2.533,2.627 -0.776,0.096 -1.907,1.106 -3.018,1.754 -1.109,0.648 -1.942,3.238 -2.405,3.515 -0.462,0.277 -2.497,1.388 -3.699,1.942 -1.203,0.555 -2.96,2.498 -5.365,4.07 -2.405,1.572 -1.295,2.034 -1.758,2.497 -0.462,0.463 -2.59,1.851 -3.515,2.683 -0.925,0.833 -3.053,2.867 -3.7,3.885 -0.647,1.018 -1.11,2.775 -1.757,3.423 -0.648,0.647 -1.757,3.146 -2.498,4.245 -0.74,1.1 -1.48,3.71 -1.572,4.912 -0.093,1.203 0.555,0.647 1.295,0.647 0.74,0 1.85,1.018 3.156,1.295 1.306,0.278 3.226,1.11 4.244,1.388 1.018,0.277 1.757,-0.74 3.052,-1.85 1.295,-1.11 2.312,-1.295 3.607,-1.758 1.295,-0.462 0.277,1.48 0.925,1.572 0.647,0.093 1.48,-0.925 2.312,-1.757 0.833,-0.833 0.926,-1.017 1.666,-1.294 0.74,-0.278 0.647,1.202 0,1.665 -0.648,0.462 -1.11,0.462 -1.757,0.832 -0.648,0.37 -1.388,1.11 -2.035,1.572 -0.647,0.463 -1.942,1.018 -3.053,1.665 -1.11,0.647 -1.387,0.925 -2.867,0.556 -1.481,-0.371 -1.388,0.462 -2.221,0.739 -0.832,0.278 -3.145,0.647 -4.254,0.647 -1.11,0 -3.422,0.556 -5.273,1.018 -1.85,0.463 -3.515,1.295 -3.977,1.85 -0.462,0.555 -3.052,4.348 -3.607,5.365 -0.555,1.018 -1.85,2.96 -2.59,4.811 -0.74,1.85 -0.462,6.382 -0.37,7.122 0.092,0.74 0.556,3.423 0.093,5.55 -0.463,2.127 0.925,3.33 1.388,4.44 0.462,1.11 1.572,3.607 2.405,4.718 0.832,1.109 2.127,0.925 3.052,1.295 0.925,0.37 1.758,1.295 3.146,1.202 1.388,-0.092 1.11,-0.37 2.22,0 1.11,0.37 1.572,0.647 2.497,0.647 0.925,0 2.405,0 2.405,0 0.648,0 1.204,-0.372 1.388,-1.389 z"
   style="fill:#677821" />
					<path
   id="Islay_3_"
   fill="#303B09"
   d="m 767.125,1285.263 c -0.925,-0.277 -1.295,0.37 -2.683,0.926 -1.388,0.555 0.277,1.202 -1.572,1.479 -1.85,0.277 -2.312,-0.093 -3.146,0.556 -0.832,0.647 -1.017,2.312 -2.127,2.774 -1.11,0.463 -1.295,1.11 -2.405,2.312 -1.11,1.202 -2.035,1.388 -3.515,2.312 -1.481,0.925 -0.925,1.018 -1.93,2.59 -1.005,1.573 -1.123,1.48 -2.695,1.573 -1.573,0.092 -1.665,0.185 -2.683,0.832 -1.018,0.647 0.555,0.647 0.555,2.22 0,1.573 -0.462,0.74 -1.018,1.573 -0.555,0.833 -0.277,1.757 -0.462,2.682 -0.185,0.926 -0.74,1.388 -0.833,2.498 -0.092,1.109 0.463,2.127 -0.185,2.59 -0.648,0.463 -1.481,0 -1.758,-0.647 -0.277,-0.647 -0.185,-1.203 -0.462,-2.405 -0.278,-1.202 0.277,-1.572 0.37,-2.96 0.093,-1.388 0.463,-2.867 0.648,-4.07 0.185,-1.203 0.833,-1.757 1.203,-3.053 0.37,-1.295 0.462,-2.498 -0.093,-2.96 -0.555,-0.462 -1.48,-0.092 -2.497,0.833 -1.018,0.925 -0.925,1.479 -1.85,2.127 -0.925,0.648 -1.665,1.018 -2.775,2.035 -1.11,1.018 -1.203,1.666 -1.757,2.775 -0.555,1.11 -1.573,0.74 -2.683,0.74 -1.11,0 -1.203,-0.925 -2.405,-0.925 -1.202,0 -1.572,0.555 -2.683,1.109 -1.109,0.555 -0.832,1.665 -0.74,2.96 0.092,1.296 -0.278,1.573 -0.555,2.59 -0.277,1.018 0.555,1.757 0.555,2.868 0,1.11 -0.74,2.774 -1.387,3.145 -0.648,0.37 -1.573,1.665 -2.128,3.33 -0.555,1.665 0.278,1.295 1.203,1.48 0.925,0.185 2.312,0.555 2.22,1.202 -0.093,0.647 -0.093,2.59 -0.555,3.237 -0.462,0.647 -0.74,2.22 -0.925,3.238 -0.185,1.018 -0.832,1.018 -1.479,1.942 -0.647,0.925 -1.48,1.11 -2.035,2.22 -0.555,1.11 -1.295,3.237 -1.11,4.44 0.186,1.203 0.278,1.573 0.186,2.498 -0.093,0.925 -1.203,1.388 -2.312,2.127 -1.11,0.74 -0.093,0.925 0,2.127 0.092,1.202 0.555,0.647 0.925,1.572 0.37,0.926 0.925,1.942 2.22,2.312 1.295,0.37 1.665,0 3.423,-1.202 1.757,-1.203 2.683,-1.573 4.995,-3.515 2.312,-1.942 2.312,-2.59 4.162,-4.903 1.85,-2.312 2.498,-3.237 3.423,-5.18 0.925,-1.942 1.665,-4.625 2.22,-5.92 0.555,-1.295 0.832,-3.978 1.388,-4.995 0.555,-1.018 1.295,-0.555 2.405,-1.018 1.109,-0.463 2.035,-0.277 3.052,0.093 1.017,0.37 5.458,0.185 6.289,0.647 0.833,0.462 0.833,1.388 0.74,2.22 -0.092,0.833 -0.555,0.647 -1.202,1.573 -0.647,0.925 -1.11,1.017 -2.22,1.203 -1.11,0.185 -1.85,1.295 -2.22,1.85 -0.37,0.556 -1.85,1.295 -2.867,1.758 -1.018,0.463 -1.388,1.942 -1.758,3.145 -0.37,1.203 -0.555,3.608 0,4.348 0.555,0.74 2.035,-0.37 2.96,-0.277 0.925,0.093 1.758,1.295 2.96,2.127 1.203,0.833 3.885,7.215 4.07,8.51 0.185,1.295 -0.185,3.423 -1.018,4.07 -0.833,0.647 -2.22,0.278 -4.162,0.462 -1.943,0.185 -1.11,1.388 -1.851,2.128 -0.74,0.74 -1.11,2.774 -1.572,3.792 -0.462,1.018 -1.11,2.405 -1.202,3.33 -0.093,0.925 0.185,1.295 -0.185,1.758 -0.37,0.463 -0.648,2.127 -0.832,3.33 -0.186,1.202 0.832,0.37 2.497,0.647 1.665,0.277 0.833,0.462 1.573,1.295 0.74,0.832 1.387,1.018 2.497,1.11 1.11,0.092 3.237,-0.371 3.978,-1.018 0.74,-0.648 0.555,-1.573 1.757,-2.498 1.203,-0.925 1.573,-0.277 1.757,-0.925 0.185,-0.647 0.925,-1.851 1.481,-2.775 0.555,-0.925 1.479,-3.052 1.665,-4.625 0.185,-1.572 0.832,-0.74 2.035,-0.832 1.203,-0.093 1.387,1.388 2.775,1.406 1.388,0.018 2.128,-0.758 2.96,-0.388 0.832,0.37 1.572,0.647 2.035,0 0.462,-0.647 1.85,-1.295 2.59,-1.758 0.74,-0.462 2.868,-1.757 3.757,-2.59 0.889,-0.833 1.145,0.185 1.423,0.833 0.277,0.647 1.387,0.647 1.306,0 -0.081,-0.648 0.359,-1.943 0,-3.701 -0.359,-1.757 0.451,-1.295 1.006,-1.017 0.555,0.277 1.203,0.277 1.942,-0.556 0.74,-0.832 0.37,-1.479 1.573,-2.867 1.202,-1.388 1.018,0.185 2.22,0 1.203,-0.185 0.185,-1.109 0,-2.405 -0.185,-1.295 0,-1.757 -0.79,-2.127 -0.79,-0.37 -0.32,-0.647 -0.598,-1.665 -0.277,-1.018 -0.093,-1.388 0.37,-2.405 0.463,-1.017 0.093,-3.237 0,-3.885 -0.092,-0.647 -1.11,-0.186 -1.757,-0.833 -0.648,-0.647 -0.648,-4.439 -0.648,-6.567 0,-2.127 -1.665,-2.96 -2.404,-3.7 -0.74,-0.74 -3.146,-2.96 -3.644,-3.885 -0.498,-0.925 -0.797,-3.237 -0.889,-4.07 -0.092,-0.833 -0.74,-3.607 -0.462,-5.919 0.277,-2.313 -0.277,-3.238 -0.463,-4.256 -0.185,-1.017 -1.665,-5.365 -1.942,-6.752 -0.277,-1.388 -1.11,-2.035 -0.74,-3.237 0.37,-1.203 0.093,-2.498 0.37,-3.33 0.278,-0.833 0.37,-2.775 0.37,-4.811 0,-2.036 -0.74,-2.035 -0.74,-2.035 -0.631,-0.874 -1.575,0.28 -2.5,0 z"
   style="fill:#677821" />
					<path
   fill="#303B09"
   d="m 735.398,1297.473 c 0,0 0.648,-0.092 0.859,-0.462 0.211,-0.37 0.806,-0.555 0.713,-1.203 -0.093,-0.647 0.37,-0.74 0,-0.74 -0.37,0 -1.202,1.017 -1.572,1.479 z"
   id="path1241"
   style="fill:#677821" />
					<path
   fill="#303B09"
   d="m 737.397,1295.53 c 0,0 1.146,-0.185 1.701,-0.462 0.555,-0.278 0.648,-0.74 1.202,-1.295 0.555,-0.555 0.647,-0.277 1.018,-0.822 0.37,-0.545 0.555,-0.38 0,-1.212 -0.555,-0.833 0,0 -0.925,0.647 -0.925,0.647 0,0 -0.647,0 -0.648,0 -0.37,0 -1.018,0 -0.648,0 -0.463,0.277 -1.11,1.018 -0.647,0.74 0.37,0.555 0,1.109 z"
   id="path1242"
   style="fill:#677821" />
					<path
   fill="#303B09"
   d="m 733.826,1299.23 c 0,0.463 0.925,-0.925 0.647,-1.295 -0.259,-0.346 -0.639,0.809 -0.647,0.833 -0.184,0.463 0,10e-4 0,0.462 z"
   id="path1243"
   style="fill:#677821" />
					<path
   fill="#303B09"
   d="m 781.463,1320.264 c -0.092,0.219 0.278,0.334 0.74,0.704 0.463,0.37 0.37,0.186 0.833,0 0.462,-0.185 0.092,-0.555 0,-1.295 -0.093,-0.74 -0.463,0 -0.833,0 0,0 -0.648,0.37 -0.74,0.591 z"
   id="path1244"
   style="fill:#677821" />
					<path
   fill="#303B09"
   d="m 788.171,1322.355 c 0.14,-0.185 0.692,-0.555 0.877,-1.174 0.185,-0.619 -0.185,-0.307 -1.295,-0.583 -1.11,-0.278 0,0 -0.278,0.583 -0.277,0.583 -0.092,0.249 0.37,0.619 0,10e-4 0.186,0.74 0.326,0.555 z"
   id="path1245"
   style="fill:#677821" />
					<path
   fill="#303B09"
   d="m 779.706,1354.73 c 0,0 1.295,-0.833 1.743,-1.202 0.448,-0.37 0.384,-1.11 0.907,-1.388 0.523,-0.277 0.217,-0.74 0.907,-1.11 0.689,-0.37 0.143,-1.109 0,-1.479 -0.143,-0.37 -1.061,0.925 -1.43,1.202 -0.37,0.277 -0.833,1.018 -1.11,1.48 -0.278,0.462 -0.647,1.203 -1.018,1.757 v 0.74 z"
   id="path1246"
   style="fill:#677821" />
					<path
   fill="#303B09"
   d="m 764.536,1361.881 c -0.278,0.027 -0.093,0.805 0,1.268 0.092,0.462 0.832,0.277 1.202,0.37 0.37,0.092 1.018,0.092 1.665,0 0.648,-0.093 0.093,-0.37 0,-0.926 -0.093,-0.555 0.648,-0.647 1.299,-1.202 0.652,-0.555 0.829,-0.185 0.829,-0.608 0,-0.423 -0.278,-0.502 -1.295,-0.594 -1.017,-0.093 -0.648,0.277 -1.017,0.555 -0.37,0.277 -1.14,0.307 -1.943,0.647 -0.711,0.3 -0.463,0.462 -0.74,0.49 z"
   id="path1247"
   style="fill:#677821" />
					<path
   fill="#303B09"
   d="m 818.605,1360.174 c 0,0 1.955,-0.541 2.273,-1.527 0.318,-0.986 0.914,-1.48 1.169,-2.22 0.255,-0.74 -1.487,-0.494 -1.862,0 -0.375,0.493 -1.58,2.22 -1.58,2.22 z"
   id="path1248"
   style="fill:#677821" />
					<path
   id="Isle_of_Gigha_3_"
   fill="#303B09"
   d="m 820.185,1354.73 c 1.599,0.031 1.361,-1.511 2.589,-2.623 1.227,-1.112 0.499,-1.354 0.961,-2.622 0.462,-1.27 1.018,-2.679 1.969,-5.298 0.951,-2.619 -0.458,-1.081 -1.167,-3.054 -0.708,-1.973 0.462,-2.467 1.396,-3.946 0.933,-1.48 -0.193,-1.48 -2.198,-1.974 -2.005,-0.494 -1.696,2.22 -1.688,3.7 0.008,1.48 -1.241,1.48 -1.708,2.714 -0.467,1.233 -1.752,3.206 -2.986,4.933 -1.233,1.727 -0.247,2.96 1.252,2.926 1.498,-0.036 -0.266,2.254 0,3.734 0,0 -0.019,1.48 1.58,1.51 z"
   style="fill:#677821" />
					<path
   id="Arran_3_"
   fill="#303B09"
   d="m 869.153,1355.959 c 0,2.494 -0.987,5.894 1.48,8.854 2.466,2.96 2.467,6.414 4.687,8.633 2.22,2.22 0,6.167 -0.74,9.867 -0.74,3.7 0.986,4.44 2.713,6.414 1.727,1.973 0.74,4.687 1.48,6.906 0.739,2.22 4.933,4.194 10.36,7.894 5.426,3.7 7.646,0.74 10.606,0 2.96,-0.74 1.973,-1.479 6.167,-1.479 4.193,0 3.454,-0.247 4.294,-3.454 0.84,-3.207 0.393,-5.92 -0.443,-7.893 -0.837,-1.973 1.33,-2.713 0,-4.933 -1.33,-2.22 -3.11,-1.974 -4.344,-3.947 -1.234,-1.973 0.493,-2.22 2.22,-4.193 1.727,-1.974 2.466,-0.987 1.973,-2.961 -0.493,-1.973 -2.467,-3.453 -3.946,-5.199 -1.48,-1.746 -3.947,-0.721 -3.7,-2.941 0.247,-2.22 2.467,-2.713 2.22,-3.939 -0.246,-1.226 0.247,-4.448 0,-5.521 -0.246,-1.073 -1.48,-7.066 -2.713,-8.581 -1.233,-1.516 -3.947,-4.898 -5.92,-6.292 -1.974,-1.393 -5.18,-4.033 -8.88,-5.76 -3.7,-1.727 -4.44,1.233 -4.933,2.22 -0.494,0.986 -1.974,0.493 -2.96,1.974 -0.987,1.479 -1.727,3.206 -2.96,3.315 -1.233,0.109 -4.193,3.344 -5.18,4.543 -10e-4,0 -1.481,3.981 -1.481,6.473 z"
   style="fill:#677821" />
					<path
   fill="#303B09"
   d="m 909.606,1383.066 c 0,0 1.481,1.233 2.083,2.713 0.604,1.48 1.863,1.48 1.863,1.48 0,0 0.494,-2.467 0,-3.453 -0.493,-0.987 -0.986,-2.714 -1.726,-2.714 -0.74,0 -2.22,0 -2.22,0 z"
   id="path1249"
   style="fill:#677821" />
					<path
   id="Isle_of_Bute_3_"
   fill="#303B09"
   d="m 896.533,1302.406 c 1.479,2.22 3.453,4.193 5.92,4.193 2.467,0 1.974,1.727 1.233,2.96 -0.74,1.233 -0.74,2.713 -1.48,3.72 -0.74,1.007 0.74,2.2 1.233,2.94 0.494,0.74 0.987,2.713 1.233,4.044 0.247,1.329 0.494,4.097 2.819,5.329 2.326,1.233 0.388,-0.986 2.114,-0.493 1.727,0.494 1.233,1.233 2.083,2.598 0.85,1.364 2.604,1.843 2.083,4.062 -0.521,2.22 1.261,3.946 2.987,5.144 1.727,1.196 3.453,-0.21 3.453,-4.157 0,-3.947 -0.986,-2.22 -0.986,-3.947 0,-1.727 0.986,-1.48 2.713,-2.96 1.727,-1.479 -0.247,-3.7 -1.48,-6.167 -1.233,-2.467 -1.727,-3.946 -1.48,-7.893 0.247,-3.947 -0.74,-3.454 -1.973,-3.7 -1.233,-0.247 -2.96,0.246 -3.234,-1.48 -0.274,-1.727 -0.713,-1.479 -2.083,-2.467 -1.37,-0.986 -0.356,-2.467 -1.04,-3.7 -0.683,-1.233 -2.276,-2.96 -3.016,-4.163 -0.74,-1.202 -4.934,-3.978 -6.167,-4.882 -1.233,-0.904 -4.44,-2.549 -5.427,-2.056 -0.986,0.493 -2.96,3.453 -3.453,4.126 -0.494,0.673 0,2.812 0,2.812 0.193,1.225 2.467,3.918 3.948,6.137 z"
   style="fill:#677821" />
					<path
   fill="#303B09"
   d="m 898.752,1322.386 c -0.247,0.491 2.467,2.467 2.714,1.481 0.246,-0.987 0.246,-2.466 0,-3.377 -0.247,-0.911 -0.987,-2.543 -1.233,-2.296 -0.247,0.246 -1.481,0 -1.481,0 0,0 0.248,3.699 0,4.192 z"
   id="path1250"
   style="fill:#677821" />
					<path
   id="Great_Cumbrae_3_"
   fill="#303B09"
   d="m 929.833,1331.328 c 1.11,-1.295 0.925,-0.555 1.94,-1.11 1.015,-0.555 0.835,1.11 1.205,1.11 0.37,0 1.295,0 2.436,-1.11 1.141,-1.109 0.524,-2.405 -0.031,-3.33 -0.555,-0.925 0.185,-2.59 0,-3.699 -0.185,-1.11 0,-2.96 -1.11,-2.925 -1.11,0.034 -1.85,0.149 -2.775,0.226 -0.925,0.077 -1.109,2.883 -1.479,3.649 -0.37,0.766 -0.925,2.194 -2.035,3.559 -1.11,1.364 -0.196,2.727 0,3.631 0.186,0.864 0.739,1.294 1.849,-10e-4 z"
   style="fill:#677821" />
					<path
   id="Little_Cumbrae_3_"
   fill="#303B09"
   d="m 928.908,1339.838 c 0,0 0.37,-2.59 0.925,-3.108 0.555,-0.519 0.185,-2.441 0,-2.997 -0.185,-0.555 -2.035,1.11 -2.39,1.421 -0.354,0.311 -1.495,2.279 -1.865,2.163 -0.37,-0.117 1.865,2.521 1.865,2.521 0.688,0.829 1.465,0 1.465,0 z"
   style="fill:#677821" />
					<path
   fill="#303B09"
   d="m 905.783,1407.918 0.925,-1.57 c 0,0 -0.185,-1.02 -0.74,-1.205 -0.556,-0.186 -1.11,1.205 -1.11,1.205 z"
   id="path1251"
   style="fill:#677821" />
					<path
   fill="#303B09"
   d="m 905.783,1449.729 c 0,0 1.48,-0.186 1.709,-0.926 0.229,-0.74 -0.229,-1.479 -0.784,-2.22 -0.555,-0.74 -1.665,0.37 -1.85,1.11 -0.185,0.74 -0.555,1.664 0,2.035 h 0.925 z"
   id="path1252"
   style="fill:#677821" />
					<path
   fill="#303B09"
   d="m 845.658,1442.143 c 0,0 0,-1.295 0,-1.85 0,-0.555 -1.479,-0.186 -3.194,0 -1.714,0.186 -1.246,0.74 -1.616,1.48 -0.37,0.739 0.37,1.479 1.11,1.109 0.74,-0.37 2.22,0 2.22,0 z"
   id="path1253"
   style="fill:#677821" />
					<path
   fill="#303B09"
   d="m 844.178,1436.315 c -0.186,0.277 0,1.11 0,1.11 h 1.017 l -0.55,-1.11 z"
   id="path1254"
   style="fill:#677821" />
					<path
   id="polygon1254"
   d="m 846.907,1439.091 0.323,-0.463 h -0.647 z" />
					<path
   id="Mainland_2_"
   fill="#303B09"
   d="m 877.403,1117.668 c -1.81,1.56 -1.96,2.02 -3.255,2.76 -1.295,0.74 -1.48,2.221 -2.035,3.701 -0.555,1.48 -1.665,3.516 -2.22,5.735 -0.556,2.22 0,0 0.37,1.685 0.37,1.684 -0.37,0.72 -2.405,0.35 -2.035,-0.37 0.925,-0.555 0,0 -0.925,0.555 0,0 -0.925,1.072 -0.925,1.071 -0.74,0.038 -1.11,1.333 -0.37,1.295 -0.925,1.295 0.37,2.22 1.295,0.925 0,0 -0.185,1.11 -0.185,1.11 0.925,0.37 2.405,0.37 1.48,0 0.37,1.665 0.37,1.665 0,0 0.37,1.48 1.48,1.665 1.109,0.185 1.109,0.185 2.774,-0.37 1.665,-0.555 2.035,-1.295 3.516,-2.59 1.479,-1.295 1.479,-1.85 3.33,-2.775 1.85,-0.925 1.665,0.555 3.145,0.555 1.48,0 1.48,-0.555 2.775,-1.11 1.295,-0.555 2.405,-1.665 3.144,-2.035 0.74,-0.37 -0.74,2.035 -1.295,2.405 -0.555,0.37 -2.035,1.295 -2.96,2.22 -0.925,0.925 -2.405,-0.37 -3.515,0 -1.11,0.37 -1.11,2.035 -1.481,2.775 -0.37,0.74 -1.85,1.665 -2.59,2.405 -0.74,0.74 -2.775,0.74 -3.33,0.926 -0.555,0.184 -1.48,0.925 -1.48,0.925 0,0 -1.665,0.185 -3.7,-0.371 -2.035,-0.554 -1.295,-1.665 -1.851,-2.144 -0.555,-0.479 -2.035,-0.816 -1.479,0 0.555,0.815 -1.11,1.034 -2.22,0.294 -1.11,-0.74 0,0 -1.11,1.295 -1.11,1.294 -0.185,1.109 -0.925,1.85 -0.74,0.74 -0.74,1.294 -1.665,3.145 -0.925,1.85 0,0 -0.74,1.48 -0.74,1.48 -0.925,1.665 -1.481,2.775 -0.555,1.11 0.926,0.185 1.481,-0.186 0.555,-0.37 1.295,-0.555 1.295,-0.555 0,0 0,1.665 0.555,2.035 0.555,0.37 1.11,-0.74 1.85,-2.22 0.74,-1.48 0.925,-1.665 1.665,-2.96 0.74,-1.295 1.295,-2.22 1.295,-2.22 0,0 -0.37,1.48 -0.37,2.405 0,0.925 0.925,1.295 0.925,1.295 0,0 0.74,1.85 1.11,2.96 0.37,1.11 0.37,2.22 0,3.146 -0.37,0.925 -0.37,1.109 -0.37,1.665 0,0.556 0.555,0.925 -0.555,1.48 -1.11,0.555 0,0 -1.11,0.156 -1.11,0.157 -1.665,0.398 -2.775,0.214 -1.109,-0.185 -0.925,-0.37 -2.404,0 -1.48,0.37 -0.925,1.295 -1.11,2.405 -0.185,1.109 -1.11,0.925 -2.22,1.85 -1.11,0.925 0,0 0,1.295 0,1.295 0.37,1.48 0.925,2.22 0.555,0.74 0.555,0.925 0.37,1.665 -0.186,0.74 -1.481,0.74 -2.59,0.925 -1.11,0.185 -1.48,0.925 -2.221,1.85 -0.74,0.925 -1.295,1.665 -1.85,2.775 -0.555,1.109 -0.74,2.035 -1.11,3.33 -0.37,1.294 -0.37,1.479 -1.109,2.96 -0.74,1.479 0.185,1.665 0.74,2.22 0.555,0.555 0.925,1.11 1.85,1.11 0.925,0 1.295,-0.74 2.035,-1.48 0.739,-0.74 0.925,-0.37 2.59,0 1.665,0.37 0,0 0.925,-0.555 0.925,-0.555 1.48,-0.925 2.22,-2.035 0.74,-1.11 1.295,-0.37 2.775,0 1.479,0.37 0,0 -0.185,0.555 -0.185,0.555 -1.666,0.925 -2.22,1.295 -0.554,0.37 -1.295,0.925 -1.85,1.295 -0.556,0.37 -1.481,0.556 -2.405,1.249 -0.925,0.693 -1.11,-0.139 -1.85,0 -0.74,0.139 -1.665,1.526 -2.22,1.526 -0.555,0 -1.11,-0.555 -1.665,-1.11 -0.555,-0.555 -1.11,-0.555 -1.85,0 -0.74,0.555 -1.295,0 -1.295,0 0,0 -1.48,2.221 -2.96,3.7 -1.48,1.48 -0.185,0.925 -1.295,2.227 -1.11,1.301 -0.925,0.179 -1.665,0.918 -0.74,0.74 -0.925,0.555 -1.851,-0.555 -0.925,-1.109 -1.109,0.555 -2.034,1.846 -0.926,1.291 -1.295,0.56 -2.59,2.225 -1.295,1.665 -0.74,1.295 -0.37,3.145 0.37,1.851 0,0 1.85,-0.369 1.85,-0.371 0,0 0.37,0.925 0.37,0.925 0,1.665 0.185,3.145 0.185,1.48 0.556,1.85 1.11,1.85 0.554,0 1.295,-0.555 1.479,-1.48 0.186,-0.925 0.926,-0.925 1.666,-1.665 0.74,-0.74 0,-1.11 -0.555,-3.145 -0.555,-2.035 0.37,-1.11 0.925,-1.85 0.556,-0.739 0.74,-1.48 2.035,-2.405 1.295,-0.925 0,0 -0.185,1.295 -0.186,1.295 -0.186,1.666 -0.186,2.405 0,0.74 -0.555,2.035 0.74,2.96 0,0 -0.37,1.665 -0.925,2.962 -0.556,1.296 -0.74,2.033 -0.74,2.033 0,0 -0.37,1.295 -0.185,2.59 0.185,1.295 0.185,1.295 1.479,1.11 1.295,-0.185 1.481,-1.11 2.96,-2.035 1.48,-0.925 1.295,0 3.146,0 1.85,0 1.85,-0.555 3.33,-0.925 1.48,-0.37 0.74,-1.11 1.295,-2.364 0.555,-1.253 1.109,0.699 1.109,1.439 0,0.74 0.74,0.925 0.74,2.035 0,1.11 -1.295,0 -2.96,1.48 -1.665,1.48 0,0 -1.11,0.37 -1.11,0.37 -1.48,0.925 -2.22,1.11 -0.74,0.185 -1.665,1.11 -2.59,1.11 -0.925,0 -1.11,0.556 -0.555,2.22 0.555,1.666 0,0 1.295,0 1.295,0 0.185,1.48 0.555,2.775 0.37,1.295 -0.185,1.295 -0.925,1.851 -0.74,0.555 -0.74,1.479 -0.74,1.479 0,0 -0.555,0.925 -1.48,2.035 -0.925,1.11 -0.185,2.59 -1.11,3.7 -0.925,1.109 -1.11,0.925 -1.11,2.035 0,1.109 -0.37,1.109 -1.295,1.85 -0.925,0.74 -0.37,1.295 -0.185,2.405 0.185,1.11 0,1.295 0.739,1.295 0.74,0 -0.739,0.925 -1.665,1.85 -0.926,0.925 -1.295,2.59 -1.295,2.59 0,0 1.481,0.186 2.775,-0.739 1.295,-0.926 -0.185,-1.666 1.295,-2.775 1.481,-1.11 0.74,-1.479 1.295,-2.22 0.555,-0.74 1.295,-1.48 2.035,-2.59 0.74,-1.11 1.85,0.185 1.85,0.185 0,0 0.593,-0.474 1.02,-1.328 0.106,-0.213 0.202,-0.448 0.276,-0.707 0.37,-1.295 1.11,-1.665 1.665,-2.96 0.556,-1.295 1.295,-0.555 2.775,-0.186 1.48,0.371 -0.185,1.11 -1.48,2.036 -1.295,0.925 -0.74,1.48 -0.555,2.775 0.186,1.295 -0.925,1.48 -1.479,2.405 -0.555,0.925 -1.48,2.405 -1.851,3.145 -0.37,0.74 -1.109,2.221 -2.035,4.255 -0.925,2.035 -0.925,2.96 -0.925,4.256 0,1.294 1.11,0.369 1.665,1.109 0.555,0.74 0.925,0.185 2.22,0.37 1.295,0.185 0.925,0.185 0,2.59 -0.925,2.405 0,0 -0.555,0.925 -0.555,0.926 0,1.11 0.925,2.405 0.925,1.295 0,0 0,1.11 0,1.109 -1.48,-0.186 -2.22,-0.74 -0.74,-0.555 -0.37,-1.85 -0.925,-2.59 -0.555,-0.74 -1.11,-0.555 -2.035,-0.37 -0.925,0.185 -0.37,-0.925 -1.665,-1.11 -1.295,-0.185 -0.555,0.925 -1.11,1.665 -0.555,0.74 -0.739,1.295 -1.294,2.775 -0.555,1.479 -1.11,1.665 -2.59,2.59 -1.479,0.925 -0.185,1.11 -1.109,2.22 -0.926,1.11 -0.37,1.665 -0.926,3.33 -0.555,1.665 -0.37,2.221 -1.295,2.775 -0.925,0.555 -0.925,0.74 -1.85,3.145 -0.925,2.405 0,0 -1.11,2.221 -1.109,2.22 0,0 -1.109,1.85 -1.11,1.85 -0.186,2.035 -1.295,4.44 -1.11,2.404 0,0 -0.925,1.665 -0.925,1.665 -1.11,1.479 -1.85,2.774 -0.74,1.295 0,1.665 0,2.405 0,0.74 1.665,-0.926 1.665,-0.926 0,0 -0.185,0.926 -0.74,1.666 -0.555,0.74 -0.185,0.925 -0.555,2.035 -0.37,1.11 -0.186,1.85 0.74,2.22 0.925,0.37 1.295,-1.295 2.22,-2.22 0.925,-0.925 1.11,-2.035 1.295,-2.775 0.185,-0.74 -0.185,-0.926 -0.185,-0.926 0,0 1.295,-1.85 2.035,-3.145 0.74,-1.295 0,-1.48 -0.555,-1.665 -0.555,-0.185 0.37,-1.479 0.74,-2.22 0.37,-0.74 1.584,-1.76 0.925,-3.145 -0.659,-1.385 1.11,-2.221 1.665,-2.591 0.555,-0.37 0,1.48 -0.37,2.22 -0.37,0.74 -1.11,3.331 -1.48,4.44 -0.37,1.11 0.925,0.37 2.22,-1.48 1.295,-1.85 0.925,-2.96 2.035,-4.625 1.109,-1.666 0,-1.666 -0.37,-2.96 -0.37,-1.295 0.925,-1.11 0.925,-1.11 0,0 4.44,-6.29 4.995,-6.475 0.411,-0.138 -1.517,2.98 -2.843,5.054 -0.462,0.723 -0.851,1.319 -1.042,1.605 -0.377,0.566 0.881,-0.455 2.204,-1.592 1.272,-1.093 2.605,-2.293 2.605,-2.293 0,0 -3.145,5.735 -4.255,5.55 -1.11,-0.185 1.11,0.186 1.665,0 0.555,-0.185 1.11,-0.739 1.295,-1.295 0.185,-0.555 1.295,-1.11 1.48,-0.555 0.185,0.555 -0.74,1.665 -1.295,2.59 -0.555,0.925 -1.295,0.925 -2.035,0.74 -0.74,-0.186 -1.11,0.74 -1.295,1.479 -0.185,0.74 -0.37,1.665 -0.37,1.665 0,0 -1.295,2.96 -1.481,3.7 -0.185,0.74 -1.85,3.885 -2.59,4.255 -0.74,0.37 -2.405,3.33 -2.59,3.885 -0.185,0.555 -1.48,2.405 -2.22,3.7 -0.74,1.295 -0.555,2.22 -0.925,2.96 -0.37,0.74 -0.555,2.96 -0.74,3.7 -0.185,0.74 0.555,1.665 0.185,2.775 -0.37,1.109 0.555,2.59 1.48,2.404 0.925,-0.185 1.48,-2.59 2.405,-3.515 0.925,-0.925 1.665,-1.295 2.96,-2.774 1.295,-1.48 2.035,-2.221 2.96,-3.331 0.925,-1.11 1.851,-0.925 2.405,-1.11 0.555,-0.185 2.775,-2.22 2.775,-2.22 0,0 0,1.11 0,1.666 0,0.555 -0.925,1.665 -0.925,1.665 0,0 -1.48,1.85 -2.22,2.22 -0.74,0.37 -1.295,1.11 -1.665,1.665 -0.37,0.555 -1.295,2.774 -1.665,3.885 -0.37,1.11 -0.555,2.774 -0.925,3.515 -0.37,0.74 -2.22,2.775 -2.59,3.33 -0.37,0.555 -0.74,2.59 -1.11,3.146 -0.37,0.555 -0.925,2.59 -0.925,2.59 0,0 -0.185,3.885 -0.185,4.995 0,1.11 0,4.81 0.74,5.735 0.74,0.925 2.035,1.665 3.515,2.035 1.479,0.37 2.404,-0.739 3.33,-0.739 0.925,0 -0.37,1.109 -1.11,2.22 -0.74,1.11 0.37,1.11 -0.185,2.405 -0.555,1.295 -0.185,1.85 0.185,2.405 0.37,0.555 1.48,-0.37 2.96,-0.925 1.48,-0.555 1.665,-1.295 2.775,-2.405 1.109,-1.109 1.479,-0.185 2.59,-1.295 1.109,-1.11 1.85,-1.479 3.885,-3.145 2.035,-1.665 2.035,-2.775 3.33,-4.811 1.295,-2.034 1.11,-0.925 1.85,-1.479 0.74,-0.555 1.11,-1.295 1.664,-2.59 0.556,-1.295 1.295,-1.11 1.851,-1.665 0.555,-0.556 1.11,-1.295 2.035,-1.295 0.925,0 0.185,1.295 -0.555,2.035 -0.74,0.739 -1.109,1.665 -2.035,2.589 -0.925,0.925 -0.37,1.666 -0.555,2.59 -0.185,0.925 -1.665,2.22 -2.22,2.774 -0.555,0.556 -1.48,1.295 -2.405,1.851 -0.925,0.555 -1.11,1.85 -1.85,2.59 -0.74,0.74 -2.59,2.405 -3.7,3.146 -1.11,0.739 -2.405,0.739 -3.33,1.295 -0.925,0.555 -1.11,2.034 -1.85,3.699 -0.74,1.665 -1.295,1.851 -2.22,3.146 -0.925,1.295 -3.145,6.104 -3.7,7.399 -0.555,1.295 -1.295,1.851 -2.59,2.59 -1.295,0.74 -2.774,1.48 -3.33,2.59 -0.555,1.109 -0.185,0.925 0.925,1.85 1.109,0.925 0.369,1.851 0,2.59 -0.37,0.74 -0.556,1.85 -0.74,2.775 -0.185,0.925 -0.37,4.255 -0.74,5.365 -0.37,1.11 -1.11,5.18 -1.295,6.105 -0.185,0.925 -0.925,3.516 -1.665,4.625 -0.74,1.11 -1.665,2.22 -2.035,3.145 -0.37,0.926 -0.185,2.221 0.555,3.886 0.74,1.665 0.74,2.96 0.555,4.81 -0.186,1.851 -0.74,2.591 -1.295,3.516 0,0 0,11.47 0.185,13.135 0.186,1.665 -0.37,5.735 -0.925,7.215 -0.555,1.48 -1.295,2.22 -2.96,2.775 -1.665,0.555 -1.295,0.37 -1.295,1.295 0,0.925 -1.295,1.295 -2.775,2.22 -1.479,0.925 -2.035,2.405 -2.59,3.33 -0.555,0.925 -0.37,1.85 -0.37,2.405 0,0.555 -0.185,2.405 -0.78,3.701 -0.596,1.295 0.04,1.85 0.009,3.145 -0.031,1.295 0.031,2.035 0.006,2.96 -0.025,0.925 0.025,3.7 0.21,4.625 0.185,0.925 -0.555,4.255 0,5.735 0.555,1.479 3.515,2.035 4.255,2.035 0.74,0 4.07,0.555 5.735,0.185 1.665,-0.37 2.774,-2.22 3.885,-2.59 1.11,-0.37 2.59,-1.296 3.885,-1.665 1.295,-0.37 3.146,0 4.255,0.185 1.11,0.185 3.33,0 4.07,-0.185 0.74,-0.186 2.59,-2.221 3.7,-2.59 1.109,-0.37 1.479,-0.186 2.22,-1.11 0.74,-0.925 0.74,-1.851 0.925,-2.405 0.186,-0.555 3.146,-4.81 4.07,-6.29 0.925,-1.479 0.925,-2.034 0.37,-3.145 -0.556,-1.11 -0.925,-4.07 -1.48,-5.365 -0.555,-1.295 -1.109,-1.665 -1.665,-2.96 -0.555,-1.295 -0.74,-1.851 -1.295,-2.59 -0.555,-0.74 -1.665,0.37 -2.96,0.739 -1.295,0.371 -1.665,0.186 -2.405,-0.555 -0.739,-0.74 -1.479,-0.74 -1.479,-0.74 0,0 0,0 1.479,-0.925 1.48,-0.925 2.035,0.37 4.07,-0.925 2.035,-1.295 1.11,-2.22 1.48,-3.33 0.37,-1.11 1.109,-1.85 1.479,-3.926 0.37,-2.076 0,-1.994 1.295,-3.474 1.295,-1.48 1.11,-0.925 2.136,-1.665 1.026,-0.74 0.454,-0.925 0.084,-2.22 -0.37,-1.295 0.555,-2.96 1.295,-3.699 0.739,-0.74 -0.556,-4.07 0,-4.811 0.555,-0.74 1.479,0.185 2.181,-1.109 0.701,-1.295 -0.331,-3.516 0.039,-4.811 0.37,-1.295 -0.185,-3.885 0,-5.55 0.185,-1.665 0.74,-1.48 2.035,-1.11 1.295,0.37 1.11,1.48 1.665,0.74 0.555,-0.74 -0.185,-2.59 -0.185,-3.33 0,-0.74 -1.295,-1.665 -1.889,-2.774 -0.594,-1.11 -0.331,-4.995 0.039,-6.476 0.37,-1.479 -0.186,-3.145 0,-4.07 0.185,-0.925 0.925,-1.85 1.11,-2.59 0.185,-0.74 0.74,-2.22 1.295,-4.069 0.555,-1.851 0.74,-2.405 1.644,-3.516 0.905,-1.11 -0.164,-3.7 0,-4.81 0.165,-1.11 2.056,-2.22 2.169,-3.146 0.113,-0.925 1.182,-1.665 1.921,-2.22 0.74,-0.555 1.295,-1.85 1.851,-3.145 0.555,-1.295 1.109,-1.11 2.034,-1.48 0.926,-0.37 2.221,-0.74 4.07,-1.85 1.85,-1.11 1.48,-0.74 2.775,-1.294 1.295,-0.556 2.035,0.739 2.22,-1.666 0.185,-2.405 0.185,-4.625 0,-6.66 -0.185,-2.035 -1.295,-2.035 -1.665,-3.7 -0.37,-1.665 -0.74,-2.59 -1.48,-2.96 -0.74,-0.37 -2.405,-2.96 -2.775,-3.7 -0.37,-0.74 -1.48,-2.22 -2.22,-3.33 -0.74,-1.11 -2.405,-3.7 -2.59,-4.255 -0.185,-0.555 -1.11,-2.405 -1.85,-4.255 -0.74,-1.85 -0.555,-4.44 -0.555,-6.29 0,-1.85 -2.035,-7.03 -3.33,-9.62 -1.295,-2.59 0,-4.625 0,-6.29 0,-1.665 0,-3.885 0,-6.29 0,-2.405 0,-3.885 0,-5.18 0,-1.295 0.925,-1.48 1.593,-0.555 0.669,0.925 -0.114,2.774 0.812,4.439 0.925,1.665 0.925,1.48 1.85,2.035 0.925,0.555 0.555,1.295 1.85,1.665 1.294,0.37 0.37,-1.11 1.48,-1.85 1.11,-0.74 1.665,-0.37 2.405,-2.405 0.739,-2.035 0.925,-0.925 1.479,-1.665 0.555,-0.74 1.85,-1.11 1.515,-2.591 -0.335,-1.479 0.335,-2.959 0.89,-4.254 0.555,-1.295 0,-1.11 0.37,-2.405 0.37,-1.295 0.74,-1.851 1.479,-1.665 0.74,0.185 0,2.035 0.925,2.59 0.926,0.555 1.666,-0.925 2.775,-2.22 1.11,-1.295 0,0 0.185,-1.295 0.185,-1.295 0.925,-3.146 1.665,-3.7 0.74,-0.555 1.664,-0.925 3.33,-2.405 1.665,-1.48 0,-2.96 0.555,-4.44 0.555,-1.48 1.11,-1.85 2.22,-2.59 1.11,-0.74 2.22,-2.404 3.885,-3.7 1.665,-1.294 3.516,-2.035 4.811,-2.775 1.295,-0.74 3.885,-0.925 5.92,-2.22 2.035,-1.295 2.59,-4.625 3.144,-6.105 0.555,-1.48 0.925,-4.255 1.665,-5.55 0.74,-1.295 2.405,-4.439 3.146,-5.365 0.739,-0.925 1.109,-2.035 3.145,-2.59 2.035,-0.555 -0.37,1.85 0.555,2.035 0.926,0.185 1.48,-0.185 2.221,-0.555 0.74,-0.37 2.96,-0.926 3.7,-1.666 0.74,-0.74 3.515,-2.59 4.995,-3.145 1.48,-0.555 2.96,-2.22 3.33,-2.96 0.37,-0.74 2.422,0 2.422,0 l -2.237,1.851 -2.22,2.589 c 0,0 -2.22,2.405 -2.96,2.775 -0.739,0.37 -2.034,1.85 -2.774,1.48 -0.74,-0.37 -2.59,1.479 -3.7,2.035 0,0 -3.145,2.96 -4.81,4.439 -1.665,1.48 -2.405,4.255 -2.775,6.29 -0.37,2.035 -0.555,3.33 -1.11,4.255 -0.555,0.925 -3.515,2.775 -4.625,3.33 -1.11,0.556 -4.07,3.146 -4.625,2.775 -0.555,-0.37 -1.665,0.185 -3.145,0.37 -1.48,0.185 -2.22,1.479 -3.146,2.22 -0.925,0.74 -1.294,2.035 -0.555,3.145 0.74,1.11 -0.185,2.035 -0.74,3.146 -0.555,1.11 -1.48,2.035 -2.405,2.59 -0.925,0.555 -1.851,2.035 -2.405,2.405 -0.555,0.37 -1.85,2.96 -2.59,3.885 -0.74,0.925 -1.85,2.035 -3.33,4.81 -1.481,2.775 -0.555,2.96 -0.74,3.7 -0.185,0.74 -0.925,2.775 -1.85,4.07 -0.926,1.295 -2.035,1.11 -3.146,2.59 -1.11,1.48 -0.185,1.665 -0.185,3.145 0,1.48 -0.186,2.035 -0.37,2.59 -0.186,0.555 -0.555,2.035 -0.862,3.515 -0.307,1.479 1.972,1.11 2.342,2.405 0.37,1.295 -0.555,0.925 -0.925,2.035 -0.37,1.11 -0.925,1.295 -1.208,2.775 -0.284,1.48 -0.271,1.85 0,3.146 0.271,1.295 -0.087,0.925 0.048,2.035 0.135,1.11 -0.32,1.666 0.235,2.59 0.555,0.925 -0.74,2.035 0,2.96 0.74,0.925 0.925,1.109 2.035,0.74 1.109,-0.37 0.925,1.666 1.714,2.59 0.789,0.925 0.321,1.479 0.506,2.96 0.185,1.479 0,0 -0.37,2.035 -0.37,2.035 0,0 1.295,0.555 1.295,0.555 0,0 1.481,-0.555 1.48,-0.556 0,0 0.37,-0.556 0.37,-0.555 0.555,1.48 1.11,2.035 0.555,0.556 1.11,0.185 2.035,0 0.925,-0.185 0.925,-0.74 1.851,-0.555 0.925,0.185 0.555,1.479 1.109,2.405 0.555,0.925 0.925,0.739 2.22,0.739 1.295,0 0.37,1.295 1.11,2.221 0.74,0.925 1.665,0.925 2.405,-0.186 0.74,-1.109 -0.37,-2.22 -0.37,-2.774 0,-0.556 -0.74,-1.851 -0.925,-2.591 -0.185,-0.739 -1.11,-2.774 -1.851,-4.255 -0.739,-1.479 -0.925,-3.515 -1.479,-5.734 -0.555,-2.221 0.37,-2.96 1.665,-4.07 1.295,-1.11 2.035,-0.925 2.98,-2.405 0.945,-1.48 0.534,-1.85 0.164,-3.515 -0.37,-1.665 0,-2.96 0,-4.07 0,-1.109 0.74,-3.885 1.11,-5.92 0.37,-2.035 -0.555,-1.85 0.863,-1.85 1.418,0 1.172,1.479 0.987,2.404 -0.185,0.926 -0.555,3.516 -0.906,4.995 -0.351,1.48 0.536,1.85 0.906,3.7 0.37,1.85 1.295,1.295 3.33,2.96 2.035,1.665 1.665,1.295 3.33,3.145 1.665,1.85 2.405,2.775 3.515,3.7 1.11,0.926 2.22,0.926 3.33,0.186 1.11,-0.74 1.11,-2.035 0.925,-3.7 -0.186,-1.665 -1.11,-3.515 -1.48,-5.92 -0.37,-2.405 -1.479,-3.515 -2.775,-5.181 -1.295,-1.665 -2.22,-3.699 -2.405,-5.919 -0.185,-2.221 -0.925,-2.775 -0.925,-4.07 0,-1.295 0.555,-3.515 0.555,-3.515 l 0.37,0.925 0.555,3.145 1.295,3.33 c 0,0 1.11,2.775 0.925,3.885 -0.185,1.11 1.665,1.11 2.96,2.035 1.295,0.925 1.295,1.665 2.035,2.96 0.74,1.295 0.556,2.96 0.556,2.96 0,0 0.37,3.146 0.74,3.886 0.37,0.739 0.925,2.404 0.925,3.885 0,1.479 0.74,4.069 0.74,4.069 0,0 0.37,2.96 0.555,4.256 0.185,1.294 0.925,0.739 1.479,0.555 0.555,-0.185 1.295,0.185 2.59,0 1.294,-0.185 2.035,0.74 3.515,0.925 1.479,0.185 0.37,-1.11 0.739,-2.035 0.371,-0.925 1.295,-2.404 1.666,-3.145 0.37,-0.74 1.48,-2.405 2.22,-3.516 0.74,-1.109 -0.185,-3.515 0.555,-5.18 0.74,-1.665 1.295,-4.255 2.405,-5.365 1.11,-1.11 0,0 0.185,-0.739 0.186,-0.74 0.37,-1.295 1.48,-2.591 1.11,-1.295 0.555,-2.22 0.185,-3.699 -0.37,-1.48 -1.295,-1.48 -2.775,-2.405 -1.48,-0.925 -1.665,-0.37 -2.775,-1.11 -1.11,-0.739 -0.925,-1.295 -0.37,-1.85 0.555,-0.555 0.925,-1.295 0.925,-1.295 0,0 0,0 0.925,0.37 0.925,0.37 1.295,1.295 2.775,2.035 1.48,0.739 2.22,1.479 3.145,1.295 0.925,-0.186 0.74,-1.851 0,-4.44 -0.74,-2.59 -0.925,-2.775 -1.11,-4.255 -0.185,-1.48 -0.37,-3.146 -0.74,-4.995 -0.37,-1.85 -0.37,-2.22 -0.185,-3.7 0.185,-1.479 1.479,-1.109 1.85,-1.665 0.37,-0.555 1.11,-2.404 1.665,-3.885 0.555,-1.48 0.74,-2.035 0.925,-3.145 0.185,-1.11 -1.109,-1.295 -2.96,-3.515 -1.85,-2.22 -0.925,-2.22 -1.109,-4.07 -0.185,-1.85 0.369,-2.22 0.74,-3.33 0.37,-1.11 0,-1.666 0,-2.591 0,-0.925 -1.11,-2.22 -1.48,-3.33 -0.37,-1.11 0.185,-1.665 1.48,-2.22 1.295,-0.555 0.925,1.665 0.74,2.22 -0.185,0.555 0.555,1.48 1.295,2.775 0.74,1.295 0.37,2.22 0.186,2.96 -0.186,0.74 -0.556,3.146 -1.295,4.44 -0.74,1.295 0.555,1.85 1.295,2.775 0.739,0.925 1.665,0.74 3.144,0.37 1.481,-0.37 0.925,-2.22 2.22,-3.885 1.294,-1.665 1.85,-2.59 2.22,-3.7 0.37,-1.109 0.74,-2.22 1.109,-3.145 0.37,-0.925 0.925,-2.96 2.221,-4.811 1.295,-1.85 1.295,-2.775 2.034,-3.885 0.74,-1.11 1.11,-1.295 1.666,-1.85 0.555,-0.555 1.48,-1.48 2.405,-2.035 0.925,-0.556 1.11,-0.925 1.481,0 0.37,0.925 -1.11,2.22 -1.11,2.22 l -1.665,1.295 -2.22,2.405 -0.556,2.405 c 0,0 -2.034,3.7 -2.96,5.55 -0.925,1.85 -1.665,5.18 -1.665,5.18 0,0 -1.666,1.85 -1.933,2.035 -0.268,0.185 -1.397,3.885 -2.322,4.81 -0.925,0.925 -1.109,2.775 -1.479,3.7 -0.37,0.925 -1.295,3.885 -2.035,7.215 -0.74,3.33 0.74,1.665 1.48,2.22 0.74,0.555 0.555,5.55 0.555,5.55 l 1.109,2.59 c 0,0 0.926,2.59 0.74,3.515 -0.185,0.926 1.11,1.295 1.952,2.035 0.842,0.74 4.153,0.37 6.003,0 1.85,-0.37 2.96,-1.48 3.146,-2.405 0.185,-0.925 -0.925,-2.22 -1.48,-2.22 -0.555,0 -1.85,-0.37 -1.85,-0.37 0,0 -0.925,-1.85 -1.295,-2.405 -0.37,-0.555 -1.851,-1.295 -2.96,-5.365 -1.11,-4.07 -2.405,-7.4 -1.563,-8.325 0.842,-0.925 0,-2.96 0,-2.96 l 1.193,1.48 c 0,0 0.925,2.589 0.925,3.145 0,0.555 0.37,2.775 1.665,4.995 1.295,2.22 2.035,3.7 2.774,5.365 0.74,1.665 1.295,1.479 2.591,1.85 1.295,0.37 2.035,1.48 3.515,1.665 1.48,0.185 2.59,0.925 3.885,2.22 1.295,1.295 0.925,1.295 2.22,2.775 1.295,1.479 0.556,2.035 0.926,2.59 0.37,0.555 -1.11,0.37 -1.11,2.22 0,1.85 1.48,0 2.96,0 1.48,0 0.74,0.925 2.405,1.367 1.665,0.442 1.479,1.038 2.96,1.778 1.48,0.74 1.295,0.74 2.59,0.925 1.295,0.185 1.298,0.525 2.896,1.424 0.689,-1.151 1.201,-2.125 1.112,-2.349 -0.247,-0.617 -3.207,-3.33 -3.824,-4.477 -0.617,-1.147 0.123,-2.431 -0.124,-3.251 -0.247,-0.82 -1.604,-1.77 -2.097,-2.204 -0.493,-0.435 -0.493,-1.292 -0.683,-2.089 -0.19,-0.797 1.917,-1.547 2.151,-1.911 0.234,-0.365 2.306,-1.979 2.306,-1.979 0,0 -2.047,-4.193 -2.306,-4.811 -0.259,-0.616 0.013,-3.206 0,-4.316 -0.013,-1.109 1.739,-2.343 2.306,-2.806 0.567,-0.463 2.785,-1.059 2.785,-1.059 0,0 -1.795,-1.932 -1.217,-2.672 0.578,-0.74 0.285,-3.577 0,-4.07 -0.285,-0.493 -0.64,-2.59 -1.264,-3.453 -0.625,-0.864 -1.39,-0.95 -2.61,-1.4 -1.22,-0.45 -2.824,-1.93 -2.824,-1.93 l -0.986,-4.193 c 0,0 -0.494,-1.604 -0.617,-3.083 -0.123,-1.48 -1.356,-2.96 -1.356,-2.96 l -3.817,-7.029 c 0,0 0.641,-0.74 0.749,-3.7 0.108,-2.96 -1.378,-7.523 -1.378,-7.523 v -5.858 c 0,0 0.643,-0.987 1.194,-1.117 0,0 2.822,-0.548 3.253,-1.657 0.431,-1.11 0.369,-1.419 -0.618,-2.005 -0.986,-0.586 -1.148,-1.695 -0.882,-2.806 0.266,-1.109 0.018,-2.22 0.882,-2.96 0.864,-0.74 3.141,-2.145 1.91,-2.367 -1.232,-0.223 -0.919,0.037 -2.925,0 -2.006,-0.038 -3.061,0.479 -3.736,-0.52 -0.675,-0.998 -1.419,-2.108 -3.359,-1.368 -1.941,0.74 -0.523,1.257 -3.359,1.368 -2.836,0.112 -3.762,1.739 -4.132,0 -0.37,-1.738 -0.37,-2.104 0,-3.123 0.37,-1.021 -3.33,-3.166 -4.439,-4.775 -1.11,-1.609 -3.146,-0.599 -3.7,-2.121 -0.555,-1.523 2.694,-2.448 2.365,-3.743 -0.33,-1.296 0,-2.527 0,-2.527 0,0 1.52,0.477 2.075,-1.181 0.555,-1.658 0,-2.953 0.555,-3.508 0.555,-0.555 2.59,-2.611 3.144,-3.155 0.556,-0.544 0.32,-1.476 1.733,-1.38 1.412,0.096 2.275,-1.015 2.398,-1.2 0.124,-0.185 3.08,0.555 3.359,0 0.279,-0.555 2.09,-1.176 1.369,-2.53 -0.72,-1.355 -0.224,-3.39 -0.224,-3.39 0,0 1.958,-1.85 3.136,-1.295 1.178,0.555 4.447,1.295 4.447,1.295 l 3.633,-3.885 c 0,0 -2.769,0.925 -3.633,0 -0.864,-0.925 -0.921,0.31 -1.633,-1.418 -0.711,-1.727 -0.954,-2.097 0,-3.392 0.954,-1.295 1.509,-1.856 2.249,-2.871 0.74,-1.015 0.612,-2.134 0.676,-3.147 0.063,-1.012 -0.919,-2.958 -2.925,-3.743 -2.006,-0.785 -2.561,-2.374 -2.006,-3.337 0.555,-0.963 2.653,-3.023 3.639,-2.826 0.986,0.198 5.039,-3.325 6.158,-2.674 1.118,0.651 6.834,-0.258 6.844,-0.081 0.01,0.177 -0.977,-1.299 -1.132,-2.226 -0.153,-0.927 0.332,-3.552 -1.113,-4.83 -1.445,-1.277 -2.802,-3.652 -5.456,-3.22 0,0 -3.651,0.417 -5.3,1.238 -1.649,0.822 -2.883,2.112 -3.911,1.981 -1.028,-0.131 -1.466,-1.29 -2.275,0.01 -0.809,1.299 -1.193,2.727 -2.542,3.35 -1.35,0.622 -3.539,2.114 -5.117,1.471 -1.578,-0.643 -3.223,-0.786 -4.25,0.828 -1.028,1.612 -4.181,1.345 -5.586,1.479 -1.405,0.134 -2.569,0.799 -3.837,1.392 -1.268,0.593 -1.679,1.463 -3.735,0 -2.056,-1.463 -4.285,0.023 -5.432,0 -1.147,-0.024 0.498,-2.276 -2.586,0.803 -3.084,3.079 -3.93,1.27 -4.638,3.305 -0.708,2.036 -0.807,2.788 -3.532,3.337 -2.726,0.549 -2.091,1.241 -4.67,1.717 -2.579,0.476 -3.974,0.757 -4.921,0 -0.947,-0.757 -1.975,-0.616 -2.592,-2.229 -0.616,-1.612 -0.411,-1.982 0,-2.826 0.411,-0.842 1.542,-1.519 1.594,-2.826 0.051,-1.306 0.771,-0.136 0,-2.674 -0.771,-2.538 -0.463,-3.899 0,-4.349 0.462,-0.451 0.095,-1.628 0.998,-2.787 0.903,-1.159 1.358,-1.569 0,-2.187 -1.358,-0.617 -2.293,-1.062 -4.293,-0.942 -1.999,0.12 -1.36,2.372 -3.119,-0.091 -1.758,-2.462 -2.594,-4.43 -3.615,-4.062 -1.021,0.367 -3.488,-0.573 -4.516,0 -1.028,0.573 -0.593,2.208 -0.81,4.062 -0.218,1.855 0.919,2.782 -1.088,3.963 -2.008,1.182 -3.558,-0.153 -5.25,0 -1.691,0.154 -1.595,1.697 -4.11,0 -2.511,-1.692 -4.978,-6.997 -4.978,-6.997 z"
   style="fill:#677821" />
				</g><rect
   style="fill:none;stroke:#000000;stroke-width:0.29998;stroke-linejoin:bevel;stroke-dasharray:none;paint-order:stroke fill markers"
   id="rect2"
   height="4390.293"
   x="0.19998971"
   y="0.19998971"
   ry="0.69917101"
   width="4353.8188" /></svg>
