<?xml version="1.0" encoding="UTF-8" standalone="no"?>
<!-- Generator: Adobe Illustrator 22.1.0, SVG Export Plug-In . SVG Version: 6.00 Build 0)  -->

<svg
   version="1.1"
   x="0px"
   y="0px"
   viewBox="0 0 4354.1187 4390.5933"
   enable-background="new 0 0 1995.865 2834.646"
   xml:space="preserve"
   id="svg1596"
   width="4354.1187"
   height="4390.5933"
   xmlns="http://www.w3.org/2000/svg"
   xmlns:svg="http://www.w3.org/2000/svg"><defs
   id="defs1596" />


<g
   id="City_of_Edinburgh__x3C_Group_x3E__1_"
   style="fill:#677821"
   transform="translate(1093.6405,660.66109)">
					<path
   fill="#303B09"
   d="m 1153.636,1266.255 c 0.229,0.142 0.37,0.185 0.37,0.462 0,0.277 0.047,0.463 -0.185,0.37 -0.232,-0.093 -0.647,-0.254 -0.647,-0.404 0,-0.151 0.234,-0.571 0.462,-0.428 z"
   id="path1213"
   style="fill:#677821" />
					<path
   fill="#303B09"
   d="m 1151.509,1271.665 c 0,-0.185 -0.139,-0.185 -0.416,-0.23 -0.278,-0.047 -0.231,0.416 -0.231,0.416 0,0 0.139,0.416 0.231,0.602 0,-10e-4 0.416,-0.602 0.416,-0.788 z"
   id="path1214"
   style="fill:#677821" />
					<path
   id="City_of_Edinburgh_1_"
   fill="#303B09"
   d="m 1179.953,1283.229 c -0.925,-0.371 -2.96,-1.666 -2.96,-1.666 0,0 -2.59,-2.59 -4.07,-3.515 -1.48,-0.925 -1.85,-2.59 -3.885,-3.7 -2.035,-1.11 -2.59,-0.555 -2.59,-0.555 0,0 -2.96,0.37 -3.515,0.37 -0.556,0 -6.475,0.185 -6.475,0.185 0,0 -4.255,0.74 -5.55,0.37 -1.295,-0.37 -2.59,-1.109 -2.59,-1.109 0,0 -4.44,-3.516 -4.995,-4.07 -0.555,-0.555 -1.295,0 -2.22,1.48 -0.925,1.479 -2.035,1.294 -2.96,1.294 -0.925,0 -2.22,-0.555 -2.96,-0.74 -0.74,-0.186 -0.925,0.185 -2.59,0 l 0.439,0.038 -0.439,-0.038 -0.877,2.339 c 0,0 -1.343,1.361 -1.769,1.854 -0.425,0.493 0.179,4.193 0.055,4.663 -0.124,0.47 0,2.744 0,2.744 l 3.029,2.583 -1.315,2.713 c 0,0 -0.11,1.48 0,1.987 0.11,0.508 -0.604,0.973 0,2.083 0.604,1.11 2.727,0.74 2.727,0.74 h 3.577 l 0.74,0.987 -1.23,2.403 c 0,0 -1.606,1.543 -1.977,1.82 -0.371,0.277 0.123,1.819 0.678,1.943 0.555,0.124 0.185,1.85 -0.585,2.651 -0.77,0.802 -1.204,3.022 -1.204,3.022 l 0.617,1.974 c 0,0 0.616,1.356 1.364,2.184 0.748,0.826 1.102,0.899 1.105,1.322 0,0.422 0.12,1.181 0.49,1.927 1.479,-0.493 0.493,-0.129 1.727,-0.499 1.233,-0.37 1.124,0.188 1.124,0.188 0.502,0.209 10.1,-10.055 10.639,-11.411 0.539,-1.357 2.544,-0.617 3.609,-0.986 1.065,-0.371 2.265,-1.234 4.093,-2.318 1.828,-1.085 3.105,-1.259 4.44,-2.152 1.336,-0.893 4.831,0.03 5.808,0.037 0.976,0.01 3.464,-0.5 4.944,-1.733 1.48,-1.233 2.467,-0.74 2.467,-0.74 0,0 -0.864,-2.097 -1.118,-2.837 -0.255,-0.74 0.131,-1.973 0.01,-2.466 -0.123,-0.494 1.232,-2.097 1.479,-2.96 0.247,-0.864 1.356,0 1.356,0 0,0 1.533,-1.084 1.433,-1.857 z"
   style="fill:#677821" />
				</g><rect
   style="fill:none;stroke:#000000;stroke-width:0.29998;stroke-linejoin:bevel;stroke-dasharray:none;paint-order:stroke fill markers"
   id="rect2"
   height="4390.293"
   x="0.19998971"
   y="0.19998971"
   ry="0.69917101"
   width="4353.8188" /></svg>
