<?xml version="1.0" encoding="UTF-8" standalone="no"?>
<!-- Generator: Adobe Illustrator 22.1.0, SVG Export Plug-In . SVG Version: 6.00 Build 0)  -->

<svg
   version="1.1"
   x="0px"
   y="0px"
   viewBox="0 0 4354.1187 4390.5933"
   enable-background="new 0 0 1995.865 2834.646"
   xml:space="preserve"
   id="svg1596"
   width="4354.1187"
   height="4390.5933"
   xmlns="http://www.w3.org/2000/svg"
   xmlns:svg="http://www.w3.org/2000/svg"><defs
   id="defs1596" />


<path
   id="Clackmannanshire_1_"
   fill="#6C833C"
   d="m 2184.6085,1911.5141 3.261,-3.145 v -2.852 h 3.896 c 0,0 0.612,-0.663 2.6,-1.033 1.988,-0.37 4.303,-0.555 4.858,-1.165 0.555,-0.61 -3.885,-1.98 -3.515,-2.802 0.37,-0.822 3.515,-1.769 3.515,-1.769 l -1.85,-2.318 -0.166,-3.954 1.694,-0.778 c 0,0 4.392,-2.754 4.669,-3.188 0.278,-0.433 1.573,-1.787 2.405,-3.369 0.832,-1.583 0,-2.531 0,-2.531 l -2.405,-0.146 -0.934,-1.453 -1.625,0.543 -1.789,1.056 c 0,0 -1.85,-0.326 -2.501,0 -0.651,0.327 -1.568,1.339 -2.229,1.503 -0.66,0.165 -1.005,-0.164 -2.016,-0.82 -1.01,-0.656 -2.689,0.656 -3.735,0.656 -1.045,0 -3.949,0.37 -4.443,0 -0.493,-0.37 -1.429,-4.045 -1.429,-4.045 l -2.621,-0.95 c 0,0 -2.487,1.295 -4.434,2.035 -1.947,0.74 -3.722,2.201 -3.722,2.201 0,0 -1.916,3.534 -2.081,5.173 -0.165,1.638 -1.432,5.785 -1.432,5.785 h -1.843 c 0,0 0.85,1.271 1.843,2.282 0.993,1.011 0.23,0.767 0.23,0.767 l 1.201,3.32 0.351,0.821 c 0,0 2.151,0.922 2.245,1.14 0.094,0.219 -0.483,1.526 -0.395,2.006 0.088,0.479 0.062,1.048 1.295,0 1.233,-1.049 2.083,-0.626 2.59,-0.37 0.507,0.256 1.665,1.295 2.59,2.96 1.17,1.543 1.593,1.795 3.145,3.145 1.979,1.153 2.464,1.102 2.777,1.295 z"
   style="fill:#677821" /><rect
   style="fill:none;stroke:#000000;stroke-width:0.29998;stroke-linejoin:bevel;stroke-dasharray:none;paint-order:stroke fill markers"
   id="rect2"
   height="4390.293"
   x="0.19998971"
   y="0.19998971"
   ry="0.69917101"
   width="4353.8188" /></svg>
