<?xml version="1.0" encoding="UTF-8" standalone="no"?>
<!-- Generator: Adobe Illustrator 22.1.0, SVG Export Plug-In . SVG Version: 6.00 Build 0)  -->

<svg
   version="1.1"
   x="0px"
   y="0px"
   viewBox="0 0 4354.1187 4390.5933"
   enable-background="new 0 0 1995.865 2834.646"
   xml:space="preserve"
   id="svg1596"
   width="4354.1187"
   height="4390.5933"
   xmlns="http://www.w3.org/2000/svg"
   xmlns:svg="http://www.w3.org/2000/svg"><defs
   id="defs1596" />


<path
   id="Dumfries_and_Galloway_1_"
   fill="#8D9764"
   d="m 2275.9055,2171.9941 1.759,-2.095 0.503,-2.346 v -1.109 c 0,0 0.606,-0.74 0.853,-1.233 0.247,-0.493 -0.246,-0.74 0,-1.11 0.247,-0.369 0.247,-0.616 0,-0.986 -0.247,-0.37 0.987,-0.617 1.11,-0.986 0.123,-0.371 -0.123,-1.234 -0.123,-1.234 l 0.493,-1.109 c 0,0 -0.986,-1.356 -1.48,-1.85 -0.493,-0.494 -1.109,-1.48 -0.739,-1.957 0.369,-0.477 1.356,0.477 3.083,-0.017 1.727,-0.494 6.044,0.123 7.153,0 1.11,-0.123 3.083,-0.124 3.577,-0.987 0.493,-0.863 0.246,-1.603 0.616,-2.59 0.37,-0.986 0.863,-0.493 2.097,-1.232 1.233,-0.74 1.851,-0.37 2.96,-1.11 1.11,-0.74 1.481,-1.604 1.85,-2.467 0.37,-0.863 1.604,-2.343 2.837,-3.946 l 1.032,-1.093 c 0.397,-0.312 -0.785,-4.828 -0.799,-6.228 -0.014,-1.4 -2.7,-0.573 -3.811,-1.807 -1.109,-1.233 -0.74,-2.59 -0.74,-3.947 0,-1.356 0,-3.33 -0.642,-5.181 -0.642,-1.852 1.752,-3.575 2.351,-5.179 0.6,-1.604 1.497,-2.837 2.36,-4.193 0.863,-1.356 0.37,-1.48 0,-2.96 -0.37,-1.48 -1.479,0 -2.355,0.246 -0.875,0.247 -2.084,-0.37 -3.194,-0.616 -1.11,-0.246 -0.616,-1.356 -0.679,-2.097 -0.062,-0.74 1.419,-2.59 1.912,-3.433 0.494,-0.843 1.85,-2.117 1.956,-2.734 0.107,-0.617 -1.463,-2.59 -2.431,-2.836 -0.969,-0.247 -2.855,0.246 -3.48,-0.124 -0.624,-0.37 -2.705,-0.863 -3.074,-0.863 -0.371,0 -2.591,0.863 -3.207,1.356 -0.617,0.494 -2.467,2.714 -3.577,2.961 -1.11,0.246 -1.727,-1.11 -2.506,-1.48 -0.779,-0.37 -2.304,0 -3.814,0 -1.511,0 -0.956,-3.823 -0.956,-3.823 0,0 -0.617,-3.33 -0.894,-3.454 -0.277,-0.123 -2.436,-3.576 -3.299,-4.316 -0.864,-0.74 -1.48,-3.33 -1.48,-4.316 0,-0.986 -1.726,-2.59 -2.096,-2.837 -0.37,-0.246 -3.33,-0.493 -3.7,-0.493 -0.37,0 -3.824,1.356 -3.824,1.356 0,0 -1.85,-2.097 -2.343,-3.083 -0.493,-0.986 -3.083,-1.604 -5.374,-1.85 -2.29,-0.247 -2.149,1.109 -2.569,1.295 -0.419,0.185 -2.047,1.172 -2.461,1.788 -0.415,0.616 -2.299,2.097 -3.409,2.714 -1.109,0.616 -1.233,0.123 -2.837,-0.37 -1.603,-0.493 -0.246,-1.11 -0.616,-1.851 -0.37,-0.74 0.247,-2.097 0.74,-2.836 0.493,-0.74 0.494,-1.48 0.74,-2.467 0.247,-0.987 0.247,-2.22 0.124,-3.33 -0.123,-1.11 1.48,-1.604 2.557,-2.344 1.077,-0.74 2.006,-1.974 2.702,-2.59 0.695,-0.616 1.895,-1.604 2.388,-2.343 0.493,-0.739 -1.604,-1.973 -2.388,-2.282 -0.785,-0.309 -3.409,-0.185 -4.396,0 -0.987,0.185 -1.48,-1.665 -2.714,-1.912 -1.234,-0.246 -1.974,1.604 -2.713,2.467 -0.74,0.864 -1.48,3.33 -2.344,3.947 -0.863,0.616 -2.22,0 -3.7,0.123 -1.48,0.124 -3.7,0.247 -4.933,0 -1.233,-0.247 -4.317,1.356 -4.317,1.356 0,0 -3.823,0.74 -5.427,0.247 -1.604,-0.493 -2.096,-1.974 -2.466,-1.727 -0.37,0.246 -1.233,1.479 -1.233,1.479 0,0 -1.11,1.727 -1.218,1.851 -0.108,0.123 -4.702,2.713 -5.529,3.638 -0.827,0.925 -0.283,2.651 -0.036,3.886 0.246,1.232 -0.841,3.206 -0.841,3.206 0,0 -0.393,1.727 -0.146,3.083 0.247,1.357 0.247,1.974 -0.521,2.961 -0.768,0.986 -0.836,0.862 -1.576,1.109 -0.74,0.247 -1.234,0 -2.405,0.289 -1.172,0.29 -0.309,2.548 -1.049,4.891 -0.74,2.344 -0.493,1.851 -1.11,1.974 -0.616,0.123 -2.96,0.74 -4.069,0.124 -1.11,-0.617 -1.85,-1.357 -1.85,-2.098 0,-0.741 -0.986,-1.973 -1.603,-2.343 -0.617,-0.37 -3.453,-1.604 -3.453,-1.604 0,0 -1.11,-4.44 -1.604,-5.797 -0.494,-1.356 0.617,-4.439 0,-4.687 -0.617,-0.248 -2.836,-0.617 -3.33,-1.604 -0.494,-0.987 -2.22,-2.836 -2.466,-3.946 -0.247,-1.11 -1.357,-3.453 -1.666,-3.823 -0.308,-0.37 -2.158,-1.851 -2.651,-2.467 -0.493,-0.616 -3.083,-3.083 -3.422,-3.454 -0.339,-0.369 -1.511,-3.699 -2.281,-4.315 -0.771,-0.617 -4.533,-1.604 -5.177,-2.01 -0.644,-0.406 -4.413,-0.924 -4.413,-0.924 0,0 -4.44,0.713 -4.934,0.22 -0.494,-0.493 -3.453,0 -3.479,0 -0.026,0 -2.934,0 -2.934,0 0,0 -1.604,0.617 -2.001,0.704 -0.397,0.088 -0.712,1.516 -0.219,2.133 0.493,0.616 0,1.727 0,1.727 l -1.088,2.097 c 0,0 -3.353,1.85 -3.969,2.097 -0.617,0.246 -2.96,1.11 -3.7,1.604 -0.74,0.493 -1.727,0.863 -2.097,0.925 -0.37,0.062 -0.617,2.651 -0.695,3.016 -0.078,0.365 -0.908,3.459 -0.168,3.768 0.74,0.309 -1.233,3.515 -0.74,4.255 0.494,0.74 0.74,2.713 0.74,3.33 0,0.617 -0.123,1.85 -0.987,3.207 -0.863,1.356 -0.987,2.343 -1.11,2.96 -0.124,0.616 -0.863,2.22 -0.617,2.96 0.246,0.74 0,2.096 0,2.603 0,0.506 -1.11,0.974 -1.34,1.468 -0.23,0.493 -1.743,2.713 -1.743,2.713 h -1.48 c 0,0 -0.863,1.233 -3.33,-2.96 -2.467,-4.193 -4.933,-4.563 -5.88,-4.777 -0.948,-0.215 -2.263,-1.02 -2.911,-1.02 -0.646,0 -1.388,2.396 -1.568,2.837 -0.181,0.44 -1.48,-0.123 -1.48,-0.123 0,0 -3.453,-0.124 -4.44,0 -0.987,0.123 -1.233,0.616 -1.604,1.232 -0.37,0.617 -1.233,2.961 -1.739,3.312 -0.506,0.352 -1.837,3.102 -1.837,3.102 l -2.836,3.392 c 0,0 -0.863,0.925 -1.356,2.005 -0.494,1.08 0,2.003 0,2.003 l -0.863,3.946 c 0,0 -0.124,1.974 -0.247,3.33 -0.123,1.357 -0.617,1.728 -1.2,2.697 -0.583,0.971 -1.76,1.866 -2.076,2.606 -0.316,0.74 -0.794,1.233 -1.206,1.604 -0.411,0.37 -0.452,1.974 -0.082,3.083 0.37,1.11 -0.616,2.59 -0.863,3.577 -0.247,0.987 0,2.097 0,2.097 0,0 -1.11,1.233 -1.885,1.727 -0.775,0.493 -1.333,1.85 -2.121,0 -0.788,-1.85 -0.379,-6.291 -0.379,-6.291 0,0 -0.795,10e-4 -1.165,0 -0.37,-0 -1.357,0 -1.357,0 0,0.494 -0.617,1.851 -1.357,2.344 -0.74,0.494 -2.152,1.604 -3.111,1.48 -0.959,-0.123 -2.104,-0.369 -3.505,-0.616 -1.401,-0.247 -1.771,-0.864 -3.374,-0.617 -1.604,0.247 -2.067,-0.499 -2.873,0.617 -0.805,1.115 -1.69,2.939 -2.554,3.073 -0.863,0.133 -2.629,0.01 -2.629,0.01 0,0 -0.05,0.077 -1.207,0.493 -1.157,0.416 -1.25,0.573 -1.961,1.356 -0.71,0.783 -2.78,1.82 -2.972,2.07 -0.192,0.25 -1.462,2.979 -1.458,3.48 0,0.501 0.256,2.467 0,3.946 -0.256,1.479 0.517,0.994 0.714,1.26 0.197,0.265 1,1.821 1,1.821 0,0 1.881,0.652 2.391,1.172 0.509,0.52 0.942,1.595 0.334,2.885 -0.608,1.289 -0.809,2.604 -0.809,2.604 0,0 0.625,0.244 -0.459,0 -1.085,-0.245 -0.838,-0.984 -2.071,-0.615 -1.233,0.37 -2.497,1.07 -3.345,1.646 -0.849,0.575 -0.219,0.026 -1.829,1.041 -1.61,1.014 -1.487,1.261 -3.09,0.768 -1.603,-0.493 -2.096,-0.549 -3.206,-0.768 -1.11,-0.22 -0.494,0.889 -1.604,1.013 -1.11,0.125 -1.604,-0.494 -2.59,0 -0.987,0.495 -2.343,1.342 -2.343,1.342 h -0.52 l -0.332,-2.147 -0.998,-0.207 c 0,0 -0.863,-0.645 -1.727,0 -0.863,0.644 -2.343,0 -2.343,0 0,0 -0.335,-0.186 -1.237,0 -0.902,0.185 -2.216,-0.521 -2.832,0 -0.617,0.521 -1.574,0.589 -2.329,0 -0.755,-0.589 -0.631,-1.946 -1.125,-2.687 -0.493,-0.739 0.124,-1.018 -1.479,-1.988 -1.604,-0.971 -1.299,-2.204 -2.623,-0.848 -1.324,1.356 -0.707,1.48 -1.324,3.33 -0.616,1.85 -2.22,3.667 -2.836,4.547 -0.617,0.879 -0.987,2.977 -1.48,2.977 -0.493,0 -1.357,-0.617 -1.727,0 -0.37,0.616 0.493,1.232 -0.616,1.85 -1.11,0.617 -2.96,1.179 -3.824,1.206 -0.864,0.027 -4.625,1.384 -4.625,1.384 0.74,1.295 1.48,2.221 1.48,3.146 0,0.925 0.37,2.034 1.767,3.515 1.397,1.48 1.193,2.22 1.563,2.96 0.37,0.74 0.74,2.405 0.74,3.33 0,0.925 0,1.11 1.109,2.59 1.11,1.48 0.74,3.33 0,5.181 -0.74,1.85 -1.479,1.479 -3.413,1.295 -1.933,-0.186 -2.321,-0.74 -3.247,-1.666 -0.925,-0.924 -1.665,-0.555 -2.404,-1.85 -0.74,-1.295 -0.556,-2.22 -0.556,-5.18 0,-2.96 -0.555,-2.59 0.556,-4.625 1.11,-2.035 0,0 0.74,-0.186 0.74,-0.185 -0.74,-1.295 -1.11,-2.035 -0.37,-0.739 -0.555,-1.295 -0.555,-2.774 0,-1.479 -0.925,-1.851 -1.48,-2.774 -0.555,-0.926 -0.555,-1.48 -1.295,-2.775 -0.74,-1.295 -2.22,-1.85 -3.515,-1.665 -1.295,0.185 -1.851,1.295 -3.516,1.479 -1.665,0.186 -2.405,0.74 -2.59,1.295 -0.185,0.556 -1.11,2.775 -1.48,4.07 -0.37,1.295 -0.925,3.33 -1.656,4.07 -0.73,0.74 1.101,1.665 0.335,2.96 -0.766,1.295 0.025,2.405 0,3.33 -0.024,0.925 0.209,3.33 0.023,5.735 -0.185,2.404 0.74,2.959 1.295,4.069 0.555,1.11 1.48,1.479 1.295,2.405 -0.186,0.925 1.665,4.07 2.59,5.365 0.925,1.295 0,1.85 0,2.59 0,0.74 0.555,1.295 1.85,2.035 1.295,0.739 0.74,0.925 1.851,2.59 1.109,1.665 0,0 0.925,0.74 0.925,0.739 0.74,1.109 1.85,1.664 1.11,0.556 1.11,0.556 1.665,1.11 0.555,0.556 0.74,2.035 1.48,3.146 0.739,1.109 1.479,-0.186 2.96,0 1.479,0.185 0.925,1.479 1.479,2.959 0.555,1.48 0,1.851 1.11,2.035 1.11,0.186 1.295,0.926 1.665,1.666 0.37,0.739 1.48,1.295 2.24,1.85 0.761,0.555 0.165,2.035 0.165,2.035 0,0 -0.37,1.109 0,1.85 0.37,0.74 1.48,1.295 1.48,1.295 v 2.405 c 0,0 0.185,1.85 1.48,2.405 1.295,0.555 1.85,-0.37 2.59,0 0.74,0.369 -0.186,1.664 -0.186,1.664 0,0 -0.185,1.666 0.186,2.961 0.371,1.295 1.109,2.774 1.109,2.774 h -0.925 c 0,0 -0.925,0.74 -1.665,1.48 -0.74,0.739 -0.37,1.665 0.925,3.145 1.295,1.48 -0.37,1.295 0,2.405 0.37,1.109 0.555,1.295 1.85,1.48 1.295,0.185 1.295,1.479 1.85,2.22 0.555,0.739 1.295,1.665 2.22,1.85 0.925,0.185 2.22,0.925 3.515,1.11 1.295,0.185 1.85,0.74 2.59,1.295 0.74,0.555 2.59,0 2.59,0 l 0.37,-0.555 c 0,0 0,0 0,-0.371 0,-0.369 -0.648,-0.277 -0.648,-0.277 0,0 -1.018,-0.369 -1.572,-0.185 -0.555,0.185 -0.833,-0.277 -1.295,-0.925 -0.463,-0.647 0,0 0,-1.018 0,-1.018 0,-1.665 -0.093,-2.96 -0.093,-1.295 0,-1.388 0.37,-2.775 0.37,-1.387 0.555,-0.37 1.388,-1.388 0.832,-1.018 0.185,-0.739 -0.186,-1.202 -0.37,-0.462 -0.647,-0.74 -1.665,-0.833 -1.017,-0.092 -0.092,-0.739 -0.462,-1.109 -0.37,-0.37 -1.11,-0.277 -1.48,-0.647 -0.37,-0.37 -0.37,-0.925 -0.832,-1.388 -0.463,-0.463 -0.37,-1.018 -0.37,-2.035 0,-1.017 -0.556,-2.404 -0.647,-3.699 -0.093,-1.295 -0.833,-2.591 -0.926,-3.516 -0.092,-0.925 -0.185,-0.555 -0.832,-1.85 -0.648,-1.295 -0.648,-0.74 -1.018,-1.758 -0.37,-1.018 -0.555,-1.202 -0.832,-2.035 -0.278,-0.832 -0.093,-1.479 -0.186,-2.683 -0.093,-1.202 -0.555,-0.832 -1.109,-1.85 -0.556,-1.018 -0.37,-1.665 -0.833,-2.868 -0.462,-1.202 -0.647,-1.202 -0.832,-2.404 -0.186,-1.203 0.37,-1.018 0.925,-2.035 0.555,-1.018 0.925,-0.74 1.295,-1.665 0.37,-0.925 0.37,-1.388 0.833,-2.22 0.462,-0.833 0.833,-0.647 1.665,-1.018 0.833,-0.37 1.665,-0.74 2.683,-1.11 1.018,-0.37 0.463,-1.11 1.943,-1.665 1.48,-0.555 1.017,-0.74 2.682,-1.202 1.665,-0.463 0.925,-0.556 1.758,-1.202 0.833,-0.648 0.093,-0.833 0.462,-2.405 0.37,-1.573 0,0 1.203,0.37 1.202,0.369 0.555,0.369 1.942,0.647 1.388,0.277 0.925,0.185 1.572,0.093 0.648,-0.093 0.555,0.369 0.833,1.202 0.277,0.832 0.277,0.555 0.37,1.388 0.092,0.832 0.277,0.462 1.017,0.925 0.74,0.462 0.463,0.555 0.74,1.202 0.277,0.647 0.185,1.018 0.925,1.758 0.74,0.74 2.405,1.572 3.145,1.665 0.74,0.093 1.11,0 2.22,0.462 1.11,0.463 1.851,0 3.053,0.186 1.202,0.185 1.018,0.277 1.85,1.018 0.833,0.74 0.555,0.74 1.294,1.572 0.74,0.832 1.018,0.74 2.035,1.942 1.018,1.202 0.833,1.202 1.943,1.573 1.11,0.369 0.925,0.277 1.85,1.109 0.925,0.832 1.11,0.925 2.404,1.85 1.296,0.926 0.463,0.833 2.036,1.203 1.573,0.37 1.017,0.37 2.035,0.925 1.018,0.555 0.925,0.37 0.925,0.833 0,0.462 0.832,1.018 1.48,1.664 0.647,0.648 0.185,0.926 0.185,1.758 0,0.832 0.185,1.203 0.647,1.665 0.463,0.463 0.278,0.647 0.74,1.572 0.463,0.925 -0.185,0.925 0.74,1.665 0.925,0.74 0.74,0.37 1.388,0.277 0.647,-0.092 1.11,0.277 1.85,0.556 0.74,0.277 0.555,0.647 0.74,1.295 0.185,0.647 0.185,0.925 1.295,1.757 1.11,0.833 0.647,0.186 1.203,0.926 0.555,0.74 1.017,1.202 1.573,1.85 0.555,0.647 1.664,0.74 3.237,1.665 1.572,0.925 2.035,1.11 3.33,1.479 1.295,0.371 1.11,0.093 2.22,0.648 1.11,0.555 0.925,0.092 1.572,0.647 0.648,0.555 0.74,0.925 1.851,2.034 1.109,1.11 1.202,0.833 2.312,0.926 1.109,0.092 1.387,0.092 2.312,0.185 0.925,0.093 1.017,-1.295 1.665,-2.035 0.648,-0.739 1.109,-0.555 1.295,-1.572 0.185,-1.018 0.092,-0.833 0.369,-1.202 0.278,-0.37 0.556,-0.37 0.926,-1.388 0.37,-1.018 0.555,-0.833 0.555,-1.758 0,-0.925 -0.092,-0.647 -0.37,-1.295 -0.277,-0.647 -0.832,-0.277 -0.925,-1.388 -0.093,-1.109 -0.277,-0.832 -0.37,-2.22 -0.092,-1.388 0.093,-0.462 0.093,-1.572 0,-1.11 0,-0.556 0.277,-1.573 0.277,-1.017 0.093,-0.832 0.277,-1.664 0.185,-0.833 0.185,-0.833 0.277,-1.943 0.093,-1.109 0.093,-1.018 -0.092,-1.664 -0.185,-0.648 -0.833,0 -1.388,-0.463 -0.555,-0.463 -0.463,-0.555 0.462,-1.203 0.925,-0.646 0.555,-0.369 0.648,-1.387 0.092,-1.018 -0.092,-0.833 -0.371,-1.388 -0.277,-0.555 -0.647,-1.11 0.093,-1.665 0.74,-0.555 0.74,0.925 1.203,1.388 0.462,0.462 1.109,0.093 1.479,-0.833 0.37,-0.925 -0.277,-1.018 -0.185,-2.22 0.092,-1.202 -0.647,-1.295 -1.203,-1.942 -0.555,-0.647 -0.833,-0.832 -2.035,-1.203 -1.203,-0.369 -0.833,-1.017 -1.48,-1.202 -0.647,-0.185 -1.295,0 -2.96,-0.462 -1.665,-0.463 -1.665,-0.74 -1.758,-1.388 -0.092,-0.647 -0.37,-1.665 -0.462,-2.405 -0.093,-0.74 -0.278,-1.665 -0.463,-2.22 -0.185,-0.556 -0.277,-1.942 -0.832,-2.59 -0.556,-0.647 -0.463,-1.388 -0.556,-2.312 -0.093,-0.924 0.185,-1.388 0.463,-2.128 0.277,-0.74 0.462,-1.572 1.018,-2.312 0.555,-0.74 0.832,0 1.757,-0.37 0.925,-0.37 1.017,-0.277 1.387,-0.462 0.37,-0.186 -0.185,-0.648 -0.462,-1.018 -0.278,-0.37 -0.647,-0.555 -0.833,-1.11 -0.185,-0.555 0.186,-0.925 0.463,-1.295 0.277,-0.37 0.74,-0.555 1.388,-0.277 0.648,0.277 0.462,1.202 0.74,1.85 0.277,0.647 -0.278,1.295 -0.278,2.683 0,1.388 0.647,1.203 0.925,2.312 0.277,1.11 0.647,0.74 1.203,1.11 0.555,0.37 0.832,1.479 1.757,2.497 0.925,1.018 1.573,1.295 2.96,2.035 1.387,0.74 1.295,0.74 2.775,1.203 1.48,0.462 1.11,1.017 2.128,1.202 1.017,0.185 1.295,0.277 2.497,0.462 1.203,0.186 1.018,0.833 1.572,1.48 0.556,0.647 1.388,0 1.758,-0.555 0.37,-0.556 0,-0.926 0.647,-1.573 0.648,-0.647 0.925,-0.185 1.295,-0.739 0.37,-0.556 0.093,-0.648 0.093,-0.648 0,0 1.665,-0.369 2.127,-1.479 0.463,-1.11 0,0 0.277,-1.018 0.278,-1.018 0.093,-0.462 0.926,-0.555 0.832,-0.093 1.11,-0.186 1.665,0.277 0.555,0.462 -0.925,1.11 -1.203,1.572 -0.278,0.463 -0.74,1.202 -0.555,1.942 0.185,0.74 0.093,1.203 0.277,1.943 0.186,0.739 0.093,1.664 0.186,2.774 0.092,1.11 0.462,1.295 0.832,2.22 0.37,0.926 0.37,1.295 1.203,1.851 0.833,0.555 1.48,0.093 2.775,0.555 1.295,0.462 0,0 -0.37,0.462 -0.37,0.463 -0.277,0.556 -0.277,1.203 0,0.647 0.463,1.018 0.925,1.48 0.463,0.462 0.555,1.202 1.573,1.757 1.017,0.556 0.185,1.11 1.11,1.665 0.925,0.555 1.758,0.463 3.145,0.555 1.387,0.093 0.555,-0.277 0.925,-1.664 0.37,-1.388 0.185,-1.11 1.018,-0.556 0.832,0.556 -0.37,1.018 0.092,2.128 0.462,1.109 0.925,-0.277 1.387,0.092 0.463,0.37 0.093,1.48 0.278,2.035 0.185,0.555 0.925,0.833 2.312,0 1.387,-0.832 0.092,-1.202 -0.185,-1.758 -0.277,-0.555 -1.018,-0.092 -1.018,-0.555 0,-0.462 0.647,-0.647 1.203,-0.74 0.555,-0.092 0.185,-1.202 0.092,-1.85 -0.092,-0.647 0,-2.127 0.185,-2.867 0.186,-0.74 0.278,-2.312 0.648,-3.33 0.369,-1.018 0.369,-0.555 1.017,-1.572 0.647,-1.018 0.37,-0.463 0.555,-1.572 0.185,-1.11 0.185,-0.556 1.202,-1.943 1.018,-1.387 0,0 0,0.833 0,0.832 0,0.739 0,1.665 0,0.925 -0.185,0.555 -0.74,1.202 -0.555,0.647 -0.278,1.11 -0.185,1.758 0.093,0.648 0.647,0.739 0.74,0.093 0.092,-0.648 0.462,-0.74 0.832,-1.48 0.37,-0.74 0.463,-0.74 1.388,-0.555 0.925,0.185 0,1.202 -0.093,2.404 -0.092,1.203 -0.092,0.648 -0.37,1.388 -0.278,0.74 -0.74,1.11 -1.203,2.128 -0.462,1.018 -0.555,1.202 -0.555,2.682 0,1.48 0.185,1.11 0.832,2.035 0.647,0.926 1.018,1.018 2.405,1.48 1.387,0.462 1.85,0.186 3.423,0.186 1.572,0 1.48,-0.093 3.052,-0.186 1.573,-0.093 2.035,0.093 3.515,-0.277 1.479,-0.37 0.925,-0.555 1.479,-1.758 0.555,-1.202 0.833,-0.555 1.943,-1.572 1.11,-1.017 0.555,-0.463 2.035,-0.647 1.48,-0.185 1.388,-0.556 2.035,-1.388 0.647,-0.832 0.647,-1.109 1.665,-1.109 1.018,0 1.572,-0.463 2.867,-0.648 1.295,-0.185 1.018,-0.555 1.48,-1.757 0.462,-1.203 0.555,-0.37 1.757,-0.833 1.202,-0.463 0.555,0 1.757,-0.092 1.203,-0.093 0.647,-0.556 1.388,-1.203 0.741,-0.647 0.185,-0.832 0.093,-1.48 -0.093,-0.646 -0.555,-0.646 -1.11,-0.739 -0.555,-0.093 -0.647,-0.647 -1.018,-1.202 -0.37,-0.556 -0.37,-0.926 -1.11,-1.018 -0.74,-0.093 -0.833,-0.463 -1.295,-1.018 -0.462,-0.556 -0.185,-0.556 1.018,-1.295 1.203,-0.74 0,0 0.833,0.462 0.832,0.463 0.925,0.463 1.388,0.093 0.462,-0.37 -0.278,-0.647 -0.648,-1.388 -0.37,-0.74 -0.463,-0.74 -0.833,-1.479 -0.37,-0.74 -0.277,-0.556 1.295,-0.648 1.572,-0.092 0,0 0.555,0.556 0.556,0.555 0.278,0.739 0.74,1.572 0.463,0.833 0.556,0.833 1.11,1.388 0.555,0.555 0.74,0.555 1.48,0.647 0.74,0.092 0.092,-0.556 -0.092,-1.202 -0.186,-0.648 -0.186,-0.833 -0.833,-0.926 -0.647,-0.092 0.093,-0.74 -0.555,-1.572 -0.648,-0.832 0,0 -0.555,-0.463 -0.556,-0.462 -0.093,-0.925 -0.278,-1.664 -0.185,-0.74 -0.185,-0.833 0,-1.295 0.186,-0.463 0.556,-0.093 0.833,-0.371 0.277,-0.277 0.093,-0.832 0.093,-1.757 0,-0.925 0.185,-1.018 0.277,-1.665 0.092,-0.647 0.555,0.925 0.555,1.665 0,0.74 0,1.572 0,2.22 0,0.648 0.093,0.555 0.74,1.11 0.647,0.555 1.202,0.647 1.48,1.11 0.277,0.462 0.74,0.739 0.833,1.295 0.093,0.555 0.093,1.295 0.277,1.572 0.185,0.277 0.555,0.37 1.572,-0.277 1.018,-0.648 1.11,-0.833 2.498,-1.203 1.387,-0.369 1.018,-0.74 2.405,-1.758 1.387,-1.017 1.295,-0.832 1.85,-1.85 0.555,-1.018 0.277,-0.647 1.942,-1.109 1.665,-0.463 0,0 0.647,-0.74 0.647,-0.74 0.74,-0.37 2.22,-0.74 1.48,-0.37 0,0 0.37,0.832 0.37,0.833 0.925,0.463 2.312,0.463 1.387,0 1.942,0 3.146,0 1.202,0 1.479,-0.277 2.867,0.186 1.388,0.462 0.925,0.555 1.665,1.202 0.74,0.647 1.202,0.37 2.127,0.833 0.926,0.462 0.833,-0.186 0.926,-1.389 0.092,-1.202 -0.186,-1.295 0.277,-1.85 0.462,-0.555 0.925,-0.832 1.665,-1.387 0.74,-0.556 0.925,-0.648 1.202,-1.48 0.277,-0.832 0.185,-1.11 0.463,-1.48 0.277,-0.369 0.739,-0.925 0.555,-1.572 -0.185,-0.647 -0.647,-0.74 -1.11,-1.295 -0.463,-0.555 -0.37,-1.48 -0.462,-2.035 -0.093,-0.555 -0.555,-0.277 -1.11,-0.647 -0.555,-0.37 -0.647,-1.202 -0.74,-2.312 -0.093,-1.11 0,-1.757 0.647,-3.237 0.647,-1.48 0.37,-1.388 0.555,-2.498 0.185,-1.109 -0.185,-1.757 -0.277,-3.052 -0.093,-1.295 0.462,-0.925 0.647,-1.573 0.185,-0.646 -0.093,-1.202 -0.093,-2.497 0,-1.295 -0.277,-2.312 -0.555,-3.515 -0.278,-1.203 0.832,-0.186 0.925,0.369 0.092,0.556 0.092,1.11 0.37,1.943 0.277,0.832 0.462,0.832 0.832,1.758 0.37,0.924 0.463,1.295 0.647,2.034 0.186,0.74 0.74,1.018 1.203,1.758 0.462,0.74 1.943,1.11 2.682,1.757 0.74,0.648 3.146,-0.092 3.793,-0.092 0.647,0 3.053,-0.093 3.7,-0.277 0.648,-0.186 1.202,-0.647 2.22,-0.926 1.018,-0.277 0.833,-0.832 1.203,-1.295 0.37,-0.462 1.018,-1.018 1.203,-1.572 0.185,-0.555 0.277,-1.295 0.555,-1.942 0.278,-0.647 0.925,0.185 1.388,0.647 0.462,0.463 0.647,1.295 1.018,1.85 0.37,0.556 0.925,1.388 2.127,1.573 1.203,0.185 0.463,0.093 1.48,-0.186 1.018,-0.277 0.832,-0.093 1.572,0.463 0.74,0.555 1.11,0.833 2.498,0.462 1.387,-0.369 0.462,-0.462 1.295,-0.832 0.832,-0.37 0.647,0.093 1.757,-0.093 1.11,-0.185 0.648,-0.277 1.11,-0.739 0.463,-0.463 1.11,0.185 1.85,0.277 0.74,0.092 1.017,0.369 1.665,0.74 0.647,0.369 1.665,1.295 2.405,1.479 0.74,0.184 1.942,0.37 2.96,0.185 1.018,-0.185 0.463,-0.646 1.48,-0.832 1.017,-0.186 1.017,0.555 1.757,0.555 0.74,0 1.203,-0.832 1.758,-1.202 0.555,-0.37 2.22,-0.74 3.237,-0.556 1.018,0.186 3.423,0.926 4.07,1.203 0.647,0.277 2.683,1.202 3.422,1.665 0.74,0.462 1.573,-0.556 2.313,-1.295 0.74,-0.74 1.203,-1.48 2.035,-2.128 0.832,-0.648 0.925,0.186 1.573,0.555 0.648,0.371 1.387,0 2.127,-0.277 0.74,-0.277 0.925,-0.832 1.573,-1.387 0.653,-0.561 1.209,-0.746 2.041,-1.116 z"
   style="fill:#677821" /><rect
   style="fill:none;stroke:#000000;stroke-width:0.29998;stroke-linejoin:bevel;stroke-dasharray:none;paint-order:stroke fill markers"
   id="rect2"
   height="4390.293"
   x="0.19998971"
   y="0.19998971"
   ry="0.69917101"
   width="4353.8188" /></svg>
