<?xml version="1.0" encoding="UTF-8" standalone="no"?>
<!-- Generator: Adobe Illustrator 22.1.0, SVG Export Plug-In . SVG Version: 6.00 Build 0)  -->

<svg
   version="1.1"
   x="0px"
   y="0px"
   viewBox="0 0 4354.1187 4390.5933"
   enable-background="new 0 0 1995.865 2834.646"
   xml:space="preserve"
   id="svg1596"
   width="4354.1187"
   height="4390.5933"
   xmlns="http://www.w3.org/2000/svg"
   xmlns:svg="http://www.w3.org/2000/svg"><defs
   id="defs1596" />


<path
   id="Dundee_City_1_"
   fill="#6C833C"
   d="m 2304.3035,1816.2391 -0.123,-1.085 -0.616,-2.554 -0.863,-0.573 -1.974,-1.246 h -3.207 l -2.143,-0.4 -1.681,1.646 c 0,0 -2.292,0.452 -2.955,0 -0.662,-0.452 -3.988,-1.463 -3.988,-1.463 l -2.43,-0.43 -4.934,-1.233 -3.206,1.11 -0.74,2.097 c 0,0 -3.207,-0.37 -3.965,-0.493 -0.758,-0.123 -3.99,0.863 -3.99,0.863 v 2.677 c 1.479,0.949 0.739,0.715 1.295,2.174 0.555,1.459 2.59,0.206 3.163,0.021 0.573,-0.186 3.918,0.925 3.918,0.925 l 2.334,1.85 h 0.575 c 1.48,0 1.296,1.11 2.961,1.11 1.664,0 4.44,-0.186 5.92,-0.37 1.479,-0.185 2.404,-2.22 3.885,-2.59 1.48,-0.37 2.96,-0.925 4.811,-0.925 1.85,0 3.145,-0.37 4.254,0.739 1.109,1.11 2.219,-0.74 3.699,-1.85 z"
   style="fill:#677821" /><rect
   style="fill:none;stroke:#000000;stroke-width:0.29998;stroke-linejoin:bevel;stroke-dasharray:none;paint-order:stroke fill markers"
   id="rect2"
   height="4390.293"
   x="0.19998971"
   y="0.19998971"
   ry="0.69917101"
   width="4353.8188" /></svg>
