<?xml version="1.0" encoding="UTF-8" standalone="no"?>
<!-- Generator: Adobe Illustrator 22.1.0, SVG Export Plug-In . SVG Version: 6.00 Build 0)  -->

<svg
   version="1.1"
   x="0px"
   y="0px"
   viewBox="0 0 4354.1187 4390.5933"
   enable-background="new 0 0 1995.865 2834.646"
   xml:space="preserve"
   id="svg1596"
   width="4354.1187"
   height="4390.5933"
   xmlns="http://www.w3.org/2000/svg"
   xmlns:svg="http://www.w3.org/2000/svg"><defs
   id="defs1596" />


<g
   id="East_Lothian__x3C_Group_x3E__1_"
   style="fill:#677821"
   transform="translate(1093.6405,660.66109)">
					<path
   fill="#8D9764"
   d="m 1237.554,1250.992 c 0,0 0.326,0.348 0,0.766 -0.327,0.418 -0.571,0.14 -0.734,0 -0.163,-0.139 -0.244,-0.418 0,-0.766 z"
   id="path1209"
   style="fill:#677821" />
					<path
   fill="#8D9764"
   d="m 1228.017,1252.379 c 0.242,0.092 0.313,-0.139 0.406,-0.401 0.092,-0.262 -0.139,-0.2 -0.277,-0.247 -0.14,-0.046 -0.384,0.155 -0.556,0.247 -0.231,0.126 0.185,0.309 0.427,0.401 z"
   id="path1210"
   style="fill:#677821" />
					<path
   fill="#8D9764"
   d="m 1218.294,1252.4 c 0.046,0.298 0.323,0.303 0.67,0.303 0.348,0 0.255,-0.277 0.255,-0.303 0,-0.026 -0.2,-0.322 -0.509,-0.422 -0.25,-0.081 -0.462,0.124 -0.416,0.422 z"
   id="path1211"
   style="fill:#677821" />
					<path
   fill="#8D9764"
   d="m 1223.844,1253.489 c 0.139,0.047 0.323,0.139 0.231,0 -0.093,-0.139 0.185,-0.416 0,-0.509 -0.186,-0.093 -0.231,0.093 -0.231,0.231 0,10e-4 -0.139,0.232 0,0.278 z"
   id="path1212"
   style="fill:#677821" />
					<path
   id="East_Lothian_1_"
   fill="#8D9764"
   d="m 1276.281,1283.776 c -0.724,-0.511 -1.58,-1.129 -2.533,-1.843 -2.96,-2.22 -2.774,-3.33 -2.96,-4.07 -0.185,-0.74 -3.145,-1.665 -4.625,-2.59 -1.479,-0.925 -1.109,-1.294 -2.22,-1.85 -1.109,-0.555 0,0 -1.295,0 -1.295,0 -1.11,-1.11 -0.925,-1.665 0.185,-0.555 -1.295,-0.739 -2.22,-0.739 -0.926,0 -2.775,-0.74 -3.146,-1.851 -0.37,-1.11 -1.11,-0.925 -1.11,-0.925 l -3.515,0.555 c 0,0 -0.185,1.295 -1.479,1.295 -1.294,0 -1.666,-1.11 -2.405,-1.85 -0.74,-0.74 -1.48,0.74 -2.405,1.665 -0.925,0.925 -0.555,1.11 -1.48,0.925 -0.925,-0.185 -0.925,-2.22 -0.555,-2.96 0.37,-0.74 1.48,-0.74 1.665,-1.665 0.185,-0.925 0.74,-0.925 0.74,-2.035 0,-1.11 -1.295,-0.37 -2.59,-1.11 -1.295,-0.74 -1.11,-1.85 -1.665,-3.145 -0.555,-1.295 -1.665,-1.85 -3.33,-2.59 -1.665,-0.74 -2.221,-1.295 -3.33,-1.295 -1.11,0 -3.33,-0.185 -4.439,0 -1.11,0.185 -2.221,-0.185 -3.516,-0.555 -1.295,-0.37 -2.96,0.37 -3.885,0.185 -0.926,-0.185 -4.07,-1.11 -4.995,-1.11 -0.925,0 -1.295,-0.185 -2.775,0.37 -1.479,0.556 -1.109,1.85 -2.034,2.405 -0.926,0.555 -0.74,1.665 -1.48,2.405 -0.74,0.74 -2.22,1.295 -2.96,1.11 -0.74,-0.185 -0.185,2.22 -0.185,3.33 0,1.11 1.479,1.665 1.664,2.59 0.186,0.926 -1.295,0.37 -2.22,-0.185 -0.925,-0.555 -1.85,0 -2.59,0.555 -0.74,0.556 -0.185,1.85 0.74,2.775 0.925,0.925 -0.74,2.035 -1.295,2.775 -0.556,0.739 -0.74,1.295 -1.851,2.589 -1.109,1.295 -2.035,0.74 -3.33,0.555 -1.295,-0.185 -2.404,0.37 -3.885,1.11 -1.48,0.739 -2.775,2.22 -4.255,3.699 -1.479,1.48 -3.33,1.295 -4.81,0.74 -1.48,-0.555 -2.221,0.74 -3.146,1.295 -0.925,0.556 -2.775,0.925 -3.7,0.556 l -0.067,-0.03 c -0.064,-0.545 0.681,5.571 1.004,6.541 0.323,0.968 3.131,2.027 3.131,2.027 l 3.979,1.848 c 0,0 1.324,-0.484 2.064,-1.422 0.74,-0.938 4.193,-0.032 4.193,-0.032 0,0 0.987,0.485 1.48,1.091 0.494,0.605 2.098,4.144 2.098,4.144 0,0 1.109,2.639 1.479,3.607 0.37,0.968 0.74,1.575 1.234,2.24 0.493,0.666 2.467,1.151 3.225,1.272 0.758,0.121 0.599,0.969 1.092,1.453 0.493,0.484 2.221,1.211 3.273,1.696 1.054,0.484 0.808,1.574 0.808,1.574 0,0 0.606,1.695 1.239,2.62 0,0 1.094,1.032 1.71,1.032 0.617,0 3.33,-0.511 3.577,-1.304 0.247,-0.793 2.12,-2.149 2.849,-2.396 0.729,-0.246 2.471,-0.986 2.895,-0.863 0.424,0.123 2.027,1.9 2.521,1.937 0.493,0.036 2.22,0.333 3.329,0 1.11,-0.334 6.414,-2.677 7.154,-2.924 0.739,-0.246 3.203,-0.616 3.267,0 0.064,0.616 1.05,1.603 1.543,1.85 0.493,0.247 5.674,1.074 5.674,1.074 0,0 1.402,-0.334 1.935,-1.074 0.531,-0.74 0.408,-2.278 1.271,-2.187 0.863,0.091 1.727,1.323 2.59,0.707 0.863,-0.616 3.265,-3.946 3.051,-5.304 -0.214,-1.356 -1.941,-3.033 -2.804,-3.921 -0.863,-0.889 -2.411,-2.25 -2.069,-2.864 0.343,-0.614 1.205,-1.231 1.452,-2.218 0.247,-0.987 -0.191,-1.727 1.199,-2.22 1.392,-0.494 4.276,-0.124 5.671,0.616 1.393,0.74 2.504,3.079 2.874,3.821 0.37,0.742 1.356,2.293 1.973,1.888 0.617,-0.405 4.193,-2.749 4.934,-3.365 0.74,-0.617 4.158,-3.687 4.158,-3.687 l 1.392,-3.75 3.952,-2.928"
   style="fill:#677821" />
				</g><rect
   style="fill:none;stroke:#000000;stroke-width:0.29998;stroke-linejoin:bevel;stroke-dasharray:none;paint-order:stroke fill markers"
   id="rect2"
   height="4390.293"
   x="0.19998971"
   y="0.19998971"
   ry="0.69917101"
   width="4353.8188" /></svg>
