<?xml version="1.0" encoding="UTF-8" standalone="no"?>
<!-- Generator: Adobe Illustrator 22.1.0, SVG Export Plug-In . SVG Version: 6.00 Build 0)  -->

<svg
   version="1.1"
   x="0px"
   y="0px"
   viewBox="0 0 4354.1187 4390.5933"
   enable-background="new 0 0 1995.865 2834.646"
   xml:space="preserve"
   id="svg1596"
   width="4354.1187"
   height="4390.5933"
   xmlns="http://www.w3.org/2000/svg"
   xmlns:svg="http://www.w3.org/2000/svg"><defs
   id="defs1596" />


<path
   id="East_Dunbartonshire_1_"
   fill="#4B5A26"
   d="m 2098.0215,1951.1181 c -0.302,-0.754 -1.188,-2.111 -0.929,-2.974 0.257,-0.863 -0.381,-1.627 0,-2.232 0.381,-0.604 -0.011,-1.945 0,-2.077 0.011,-0.131 0.112,-0.377 0,-1.241 -0.113,-0.863 -0.498,-0.11 -0.922,-1.535 -0.424,-1.426 -0.351,-3.652 -0.278,-3.682 1.883,-0.706 1.396,-1.073 2.354,-1.444 0.958,-0.37 3.112,0.925 3.865,1.444 0.753,0.519 1.651,2.812 1.987,2.812 0.335,0 3.734,0.555 5.582,0.87 1.848,0.314 1.852,-1.795 2.351,-3.152 0.498,-1.356 0.057,-6.783 0,-6.968 -0.058,-0.186 -2.348,-3.885 -1.914,-5.979 0.434,-2.094 1.971,-0.497 3.323,0 1.352,0.494 1.977,0.987 2.718,1.727 0.74,0.74 3.33,0 4.378,0 1.048,0 2.096,1.239 2.096,1.239 0,0 2.405,-0.869 2.96,-1.239 0.555,-0.37 1.11,-2.405 1.851,-2.865 0.74,-0.461 1.295,0.275 1.199,1.142 -0.095,0.866 0.61,2.962 0.61,2.962 0,0 0.657,1.968 0.287,3.016 -0.37,1.048 1.726,1.542 2.713,2.528 0.987,0.986 0.987,1.727 1.579,2.343 0.592,0.617 0.641,1.48 0,2.096 -0.641,0.616 -0.469,1.604 -1.085,2.591 -0.617,0.986 0.232,2.22 0.494,2.096 0.261,-0.124 3.33,-2.097 3.33,-2.097 l 3.429,-1.603 h 2.083 l 0.518,0.676 c 0,0 0.383,1.051 0.506,1.574 0.124,0.522 -0.37,0.957 -1.024,1.696 -0.654,0.74 -0.95,0.617 -1.264,0.994 -0.315,0.378 -0.056,2.09 0.068,2.953 0.123,0.863 0.37,1.479 -0.068,1.541 -0.438,0.062 -2.275,0.679 -3.262,0.448 -0.987,-0.231 -1.727,0.108 -1.974,0.601 -0.246,0.493 -0.863,1.233 -1.727,1.655 -0.864,0.422 -1.479,-0.176 -2.713,0.085 -1.233,0.261 -2.713,0.479 -3.577,0.604 -0.863,0.123 -1.356,-0.124 -2.343,-0.604 -0.987,-0.48 -0.617,1.22 -0.617,1.22 0,0 -0.123,0.739 0,1.233 0.124,0.493 0,0.828 0,0.828 -0.493,-0.158 -2.837,1.021 -4.934,1.021 -2.096,0 -3.206,-1.727 -3.775,-2.925 -0.569,-1.199 -1.157,-1.146 -1.651,-2.009 -0.493,-0.863 -1.234,-1.727 -2.215,-2.37 -0.982,-0.644 -1.361,-0.343 -2.151,0.212 -0.789,0.555 -0.326,0.559 -0.197,2.158 0.128,1.601 0.369,1.357 0,2.073 -0.37,0.717 -1.411,0.807 -2.591,1.64 -1.179,0.833 -2.22,0.357 -2.96,-0.506 -0.74,-0.863 -0.944,-2.576 -0.944,-2.576 0,0 -2.139,-0.63 -2.613,-0.631 -0.473,0 -2.553,0.635 -2.553,0.635"
   style="fill:#677821" /><rect
   style="fill:none;stroke:#000000;stroke-width:0.29998;stroke-linejoin:bevel;stroke-dasharray:none;paint-order:stroke fill markers"
   id="rect2"
   height="4390.293"
   x="0.19998971"
   y="0.19998971"
   ry="0.69917101"
   width="4353.8188" /></svg>
