<?xml version="1.0" encoding="UTF-8" standalone="no"?>
<!-- Generator: Adobe Illustrator 22.1.0, SVG Export Plug-In . SVG Version: 6.00 Build 0)  -->

<svg
   version="1.1"
   x="0px"
   y="0px"
   viewBox="0 0 4354.1187 4390.5933"
   enable-background="new 0 0 1995.865 2834.646"
   xml:space="preserve"
   id="svg1596"
   width="4354.1187"
   height="4390.5933"
   xmlns="http://www.w3.org/2000/svg"
   xmlns:svg="http://www.w3.org/2000/svg"><defs
   id="defs1596" />


<path
   id="East_Ayrshire_1_"
   fill="#606F38"
   d="m 2150.7535,2060.1311 c 0,0 -1.604,0.617 -2.001,0.704 -0.397,0.088 -0.712,1.516 -0.219,2.133 0.493,0.616 0,1.727 0,1.727 l -1.088,2.097 c 0,0 -3.353,1.85 -3.969,2.097 -0.617,0.246 -2.96,1.11 -3.7,1.604 -0.74,0.493 -1.727,0.863 -2.097,0.925 -0.37,0.062 -0.617,2.651 -0.695,3.016 -0.078,0.365 -0.908,3.459 -0.168,3.768 0.74,0.309 -1.233,3.515 -0.74,4.255 0.494,0.74 0.74,2.713 0.74,3.33 0,0.617 -0.123,1.85 -0.987,3.207 -0.863,1.356 -0.987,2.343 -1.11,2.96 -0.124,0.616 -0.863,2.22 -0.617,2.96 0.246,0.74 0,2.096 0,2.603 0,0.506 -1.11,0.974 -1.34,1.468 -0.23,0.493 -1.743,2.713 -1.743,2.713 h -1.48 c 0,0 -0.863,1.233 -3.33,-2.96 -2.467,-4.193 -4.933,-4.563 -5.88,-4.777 -0.948,-0.215 -2.263,-1.02 -2.911,-1.02 -0.646,0 -1.388,2.396 -1.568,2.837 -0.181,0.44 -1.48,-0.123 -1.48,-0.123 0,0 -3.453,-0.124 -4.44,0 -0.987,0.123 -1.233,0.616 -1.604,1.232 -0.37,0.617 -1.233,2.961 -1.739,3.312 -0.506,0.352 -1.837,3.102 -1.837,3.102 l -2.836,3.392 c 0,0 -0.863,0.925 -1.356,2.005 -0.494,1.08 0,2.003 0,2.003 l -0.863,3.946 c 0,0 -0.124,1.974 -0.247,3.33 -0.123,1.357 -0.617,1.728 -1.2,2.697 -0.583,0.971 -1.76,1.866 -2.076,2.606 -0.316,0.74 -0.794,1.233 -1.206,1.604 -0.411,0.37 -0.452,1.974 -0.082,3.083 0.37,1.11 -0.616,2.59 -0.863,3.577 -0.247,0.987 0,2.097 0,2.097 0,0 -1.11,1.233 -1.885,1.727 -0.775,0.493 -1.333,1.85 -2.121,0 -0.788,-1.85 -0.379,-6.291 -0.379,-6.291 0,0 -0.795,0 -1.165,0 -0.37,-10e-4 -1.357,0 -1.357,0 0,-0.494 0,-1.726 0.246,-3.005 0.247,-1.278 -0.74,-1.804 -0.921,-3.777 -0.181,-1.974 0.305,-2.22 0.798,-2.343 0.493,-0.124 0.987,-1.357 1.296,-2.098 0.31,-0.74 0.431,-2.343 0.801,-3.699 0.37,-1.357 0.74,-2.714 1.469,-2.96 0.728,-0.246 0.135,-1.851 0,-2.837 -0.135,-0.987 -0.482,-1.604 0,-3.33 0.482,-1.727 -0.482,-1.356 -0.853,-2.097 -0.37,-0.74 -0.74,-1.11 -0.863,-1.851 -0.123,-0.739 -0.493,-1.109 0.123,-2.22 0.617,-1.109 0.494,-0.986 0.74,-1.85 0.247,-0.863 0,-1.11 -0.246,-1.604 -0.247,-0.493 -1.11,-0.493 -1.826,-1.11 -0.716,-0.616 -1.439,-1.85 -1.439,-1.85 0,0 -3.025,0.123 -3.304,0 -0.279,-0.124 -0.831,-1.48 -1.325,-2.221 -0.493,-0.739 -1.356,-0.863 -2.097,-1.973 -0.74,-1.11 -1.11,-1.85 -1.11,-1.85 l -1.046,-1.357 c 0,0 -2.16,-0.616 -2.53,-0.616 -0.37,0 -0.987,-1.11 -1.049,-1.974 -0.062,-0.863 2.035,0 2.035,0 0,0 0.987,-1.233 1.544,-1.85 0.558,-0.617 0.43,-0.863 1.322,-1.974 0.893,-1.11 -0.513,-0.377 -0.552,-1.172 -0.04,-0.795 -0.217,-1.172 -0.771,-1.934 -0.552,-0.763 -1.478,0.01 -2.037,0.146 -0.56,0.14 -2.626,0.616 -3.434,0.583 -0.808,-0.033 -2.733,-0.627 -2.733,-0.627 v -1.184 c 0,0 1.48,-1.116 1.833,-1.485 0.354,-0.37 1.373,-1.48 2.236,-2.344 0.863,-0.863 0.74,-3.7 1.233,-3.083 0.494,0.616 1.233,1.109 2.343,1.233 1.11,0.124 1.604,0.987 2.141,1.85 0.537,0.863 0.572,1.727 1.754,1.727 1.181,0 0.668,0.617 1.751,1.604 1.082,0.986 1.138,0.247 2.005,0 0.868,-0.247 2.586,-1.604 3.882,-2.528 1.296,-0.926 0.185,-0.925 0,-2.282 -0.184,-1.356 -0.655,-2.096 -0.655,-2.096 0,0 -0.764,-0.617 -1.998,-0.987 -1.233,-0.37 -1.229,-2.343 -1.229,-2.343 0,0 -0.497,-1.974 -0.6,-2.873 -0.102,-0.899 0,-1.814 0,-1.814 0,0 -0.761,-2.466 -0.823,-3.083 -0.062,-0.616 1.491,-0.814 1.908,-1.001 0.416,-0.187 1.062,-0.611 2.101,-1.219 1.039,-0.607 2.344,-1.603 2.344,-1.603 l 1.222,-2.535 1.614,-0.055 c 0,0 0.864,0.123 1.689,0 0.825,-0.124 -0.332,-1.11 0,-1.48 0.332,-0.37 1.765,0.247 2.065,-0.616 0.301,-0.863 0.316,-0.863 0.686,-1.233 0.37,-0.37 -1.11,-1.727 -1.357,-2.344 -0.247,-0.616 -0.74,-0.986 -0.858,-1.356 -0.119,-0.37 -0.252,-3.206 -0.536,-3.576 -0.285,-0.37 -0.332,-1.974 -0.702,-2.591 -0.37,-0.616 -1.233,-0.616 -1.573,-0.986 -0.34,-0.37 -5.828,0.123 -6.691,-0.493 -0.863,-0.617 -2.837,0 -4.245,0 -1.409,0 -0.565,-0.493 -1.523,-1.418 -0.958,-0.926 -0.645,0.062 -1.016,-0.679 -0.371,-0.741 -0.37,-0.863 -1.226,-1.014 -0.856,-0.15 -0.377,-1.083 -0.116,-1.577 0.261,-0.492 0,-1.777 0,-1.777 0,0 -1.37,0.081 -1.742,0.181 -0.372,0.099 -2.011,-0.011 -2.415,-0.111 -0.404,-0.1 -0.792,-1.719 -0.792,-1.719 l -0.88,0.071 v -0.591 -1.85 c 0,0 0.14,-1.85 0,-2.467 -0.14,-0.616 1.497,-1.604 1.672,-2.22 0.175,-0.616 1.305,-3.083 2.045,-4.251 0.74,-1.167 1.973,-0.188 2.653,-0.128 0.682,0.062 4.376,-2.035 4.87,-2.528 0.493,-0.493 0,-1.85 0,-1.85 0,0 -1.727,0.863 -2.714,0.739 -0.986,-0.123 -2.713,-0.616 -3.7,-0.739 -0.986,-0.124 -2.035,1.357 -2.035,1.357 0,0 -1.418,1.109 -1.911,1.85 -0.493,0.739 -1.727,0.739 -2.552,1.171 -0.825,0.432 -0.778,-0.308 -1.264,-1.048 -0.486,-0.74 0.239,-1.727 -0.304,-1.85 -0.543,-0.124 -1.924,-1.357 -2.306,-1.48 -0.383,-0.124 -2.151,-1.233 -2.151,-1.233 0,0 1.546,-0.74 2.151,-1.25 0.604,-0.511 0.999,-0.477 1.357,-0.477 0.358,0 1.986,-1.604 1.986,-1.604 0,0 1.948,-3.509 2.836,-5.49 0.888,-1.98 2.387,-3.698 2.387,-3.698 l 3.351,-4.737 c 0,0 3.883,-4.698 4.006,-5.068 0.124,-0.37 1.48,0.124 1.649,0.493 0.169,0.37 0.201,0.987 0.016,1.974 -0.185,0.986 1.295,0 2.529,0 1.233,0 0.986,0.863 1.356,0.863 0.37,0 0.986,0.37 0.764,0.863 -0.222,0.494 -1.134,1.233 -1.435,2.281 -0.301,1.049 1.164,0.433 2.09,0.443 0.926,0.011 1.048,-0.134 1.788,0 0.74,0.134 1.48,0.606 2.617,0.729 1.137,0.124 0.59,0.617 1.169,1.356 0.578,0.74 -0.086,1.234 1.148,1.61 1.234,0.376 1.316,-0.097 1.663,-0.785 0.347,-0.688 1.791,-0.208 2.038,0.383 0.247,0.59 0.124,1.137 0.617,1.999 0.493,0.863 0.987,0.37 1.034,1.293 0.047,0.924 0.323,0.927 1.508,1.421 1.184,0.493 1.035,0.37 2.639,0.873 1.603,0.504 0.986,0.854 0.879,1.224 -0.107,0.37 2.204,0.986 3.19,1.95 0.986,0.964 1.233,-0.101 1.755,0.813 0.522,0.913 0.836,0.319 1.457,0.021 0.621,-0.3 1.229,-0.564 2.215,-0.812 0.987,-0.246 1.014,1.604 1.014,1.604 h 1.367 l 0.209,0.987 c 0.617,1.357 0.987,1.85 1.48,2.836 0.493,0.987 1.604,2.96 1.727,3.515 0.123,0.556 0.247,1.173 0.494,2.528 0.246,1.357 0.569,2.221 1.271,2.591 0.702,0.37 -0.455,1.604 0,2.22 0.455,0.617 1.442,3.135 1.319,4.096 -0.124,0.961 0.123,0.961 -0.617,2.502 -0.74,1.542 -3.207,2.899 -3.453,3.515 -0.247,0.616 -1.48,0.987 -0.986,2.221 0.493,1.232 1.727,3.33 2.466,2.836 0.74,-0.493 3.947,-2.466 4.933,-2.836 0.987,-0.37 3.25,-1.481 3.783,-1.542 0.534,-0.062 1.844,0.801 3.347,0.925 1.503,0.123 4.957,-0.74 5.944,-0.925 0.987,-0.186 1.603,-1.728 2.343,-2.312 0.74,-0.586 2.466,-1.696 2.836,-1.881 0.37,-0.185 1.667,0.309 2.314,1.048 0.646,0.74 1.255,0.864 1.999,2.097 0.744,1.233 0.374,1.603 2.841,2.59 2.466,0.986 4.001,-0.515 4.035,1.777 0.034,2.292 -1.075,5.008 -2.062,6.486 -0.986,1.479 -1.356,0.985 -1.727,2.219 -0.371,1.234 -0.479,1.851 -1.597,2.59 -1.116,0.74 -1.689,1.234 -2.081,2.837 -0.393,1.603 -0.595,1.603 0,3.331 0.595,1.726 0.854,2.96 2.081,3.946 1.227,0.987 2.69,2.15 4.161,1.973 h -2.933 z"
   style="fill:#677821" /><rect
   style="fill:none;stroke:#000000;stroke-width:0.29998;stroke-linejoin:bevel;stroke-dasharray:none;paint-order:stroke fill markers"
   id="rect2"
   height="4390.293"
   x="0.19998971"
   y="0.19998971"
   ry="0.69917101"
   width="4353.8188" /></svg>
