<?xml version="1.0" encoding="UTF-8" standalone="no"?>
<!-- Generator: Adobe Illustrator 22.1.0, SVG Export Plug-In . SVG Version: 6.00 Build 0)  -->

<svg
   version="1.1"
   x="0px"
   y="0px"
   viewBox="0 0 4354.1187 4390.5933"
   enable-background="new 0 0 1995.865 2834.646"
   xml:space="preserve"
   id="svg1596"
   width="4354.1187"
   height="4390.5933"
   xmlns="http://www.w3.org/2000/svg"
   xmlns:svg="http://www.w3.org/2000/svg"><defs
   id="defs1596" />


<path
   id="East_Renfrewshire_1_"
   fill="#8D9764"
   d="m 2117.7005,2007.1691 c 0.863,-0.792 1.479,-1.552 1.356,-3.277 -0.124,-1.727 0.74,-3.33 0.863,-5.304 0.124,-1.974 -0.617,-1.727 -0.987,-2.59 -0.37,-0.864 -1.11,-1.233 -2.097,-2.159 -0.986,-0.925 -1.58,-0.561 -1.577,-0.925 0,-0.364 -0.038,-0.74 -0.254,-1.727 -0.216,-0.986 -0.788,-0.82 -1.992,-2.22 -1.253,-1.458 -0.359,-5.807 0.974,-7.945 l 0.437,-0.122 c 0,0 0.28,-0.327 0.213,-1.183 -0.067,-0.855 0.227,-2.096 0.227,-2.096 0,0 0.37,-0.616 -0.37,-1.11 -0.74,-0.494 -0.494,-0.74 -1.481,-0.864 -0.986,-0.123 -1.793,0 -2.438,0 -0.645,0 -1.015,-0.479 -1.508,-0.055 -0.493,0.425 -1.356,1.257 -1.604,2.26 -0.246,1.002 -1.85,2.871 -2.466,3.17 -0.616,0.299 -2.836,0.614 -3.454,-0.099 -0.616,-0.712 -0.085,-0.22 -0.968,-1.207 -0.882,-0.986 -0.882,-1.5 -0.635,-2.477 0.247,-0.976 -1.694,-3.366 -1.694,-3.366 0,0 -0.033,-0.284 -0.649,0.066 -0.617,0.351 -1.48,1.214 -2.097,1.461 -0.617,0.246 -0.816,-0.247 -1.395,0.74 -0.579,0.986 -0.155,0.989 -1.169,1.42 -1.014,0.43 -2.617,-0.578 -3.604,-0.321 -0.986,0.258 -1.11,-0.973 -2.22,0.321 -1.11,1.293 -1.48,1.539 -2.59,1.293 -1.11,-0.247 -1.289,-0.371 -1.877,0.863 -0.589,1.234 0.028,-0.123 -0.589,1.234 -0.617,1.357 -1.357,0.461 -1.85,1.649 -0.494,1.188 -0.617,0.954 -1.233,1.564 -0.616,0.61 -0.863,0.487 -2.096,0.61 -1.234,0.123 -2.097,1.603 -2.097,1.603 0.37,-0.247 1.85,1.4 1.973,1.625 0.123,0.225 0.804,2.814 0.804,2.814 v 1.615 c 0,0 3.883,-4.698 4.006,-5.068 0.124,-0.37 1.48,0.124 1.649,0.493 0.169,0.37 0.201,0.987 0.016,1.974 -0.185,0.986 1.295,0 2.529,0 1.233,0 0.986,0.863 1.356,0.863 0.37,0 0.986,0.37 0.764,0.863 -0.222,0.494 -1.134,1.233 -1.435,2.281 -0.301,1.049 1.164,0.433 2.09,0.443 0.926,0.011 1.048,-0.134 1.788,0 0.74,0.134 1.48,0.606 2.617,0.729 1.137,0.124 0.59,0.617 1.169,1.356 0.578,0.74 -0.086,1.234 1.148,1.61 1.234,0.376 1.316,-0.097 1.663,-0.785 0.347,-0.688 1.791,-0.208 2.038,0.383 0.247,0.59 0.124,1.137 0.617,1.999 0.493,0.863 0.987,0.37 1.034,1.293 0.047,0.924 0.323,0.927 1.508,1.421 1.184,0.493 1.035,0.37 2.639,0.873 1.603,0.504 0.986,0.854 0.879,1.224 -0.107,0.37 2.204,0.986 3.19,1.95 0.986,0.964 1.233,-0.101 1.755,0.813 0.522,0.913 0.836,0.319 1.457,0.021 0.621,-0.3 1.229,-0.564 2.215,-0.812 0.987,-0.246 1.014,1.604 1.014,1.604 h 1.367 z"
   style="fill:#677821" /><rect
   style="fill:none;stroke:#000000;stroke-width:0.29998;stroke-linejoin:bevel;stroke-dasharray:none;paint-order:stroke fill markers"
   id="rect2"
   height="4390.293"
   x="0.19998971"
   y="0.19998971"
   ry="0.69917101"
   width="4353.8188" /></svg>
