<?xml version="1.0" encoding="UTF-8" standalone="no"?>
<!-- Generator: Adobe Illustrator 22.1.0, SVG Export Plug-In . SVG Version: 6.00 Build 0)  -->

<svg
   version="1.1"
   x="0px"
   y="0px"
   viewBox="0 0 4354.1187 4390.5933"
   enable-background="new 0 0 1995.865 2834.646"
   xml:space="preserve"
   id="svg1596"
   width="4354.1187"
   height="4390.5933"
   xmlns="http://www.w3.org/2000/svg"
   xmlns:svg="http://www.w3.org/2000/svg"><defs
   id="defs1596" />


<g
   id="Eilean_Siar__x2F__Western_Isles__x3C_Group_x3E__1_"
   style="fill:#677821"
   transform="translate(1093.6405,660.66109)">
					<path
   fill="#303B09"
   d="m 574.17,1056.881 c -0.74,-0.463 -0.648,-1.018 -0.555,-1.48 0.092,-0.462 -0.186,-1.11 0.555,-0.832 0.74,0.277 1.388,0.58 1.295,1.122 -0.093,0.542 -0.585,1.467 -0.662,1.56 -0.078,0.092 -0.633,-0.37 -0.633,-0.37 z"
   id="path1152"
   style="fill:#677821" />
					<path
   id="polygon1152"
   d="m 577.871,1055.882 h 0.531 l 0.532,-0.379 -0.416,-0.38 z" />
					<path
   fill="#303B09"
   d="m 574.514,1050.545 c 0,0 -0.066,1.063 0.289,1.341 0.354,0.278 0.755,0 1.503,-0.833 0.399,-0.445 -0.101,-0.648 -0.008,-1.203 0.092,-0.555 -0.647,-0.647 -0.824,-0.74 -0.176,-0.093 -0.934,0.462 -0.671,0.74 z"
   id="path1153"
   style="fill:#677821" />
					<path
   fill="#303B09"
   d="m 591.56,1046.891 v 0.925 c 0,0 0.648,0.185 1.018,0 0.37,-0.185 0.833,-1.11 1.11,-1.48 0.277,-0.37 0.37,-1.203 0,-1.387 -0.37,-0.186 -1.018,-0.093 -1.48,0 -0.462,0.092 -0.278,0.371 -0.648,0.647 -0.37,0.277 0,0.37 0,1.295 z"
   id="path1154"
   style="fill:#677821" />
					<path
   fill="#303B09"
   d="m 608.303,1024.783 c 0.277,0.185 -0.186,-0.74 -0.37,-1.388 -0.186,-0.648 -0.463,-0.555 -0.463,-1.11 0,-0.555 -0.462,-0.832 -1.387,-1.11 -0.925,-0.278 -1.11,-0.278 -1.848,0 -0.738,0.277 -0.649,0.462 -1.02,1.11 -0.37,0.648 0.463,0.555 1.02,0.925 0.557,0.37 1.386,0.185 2.033,0.463 0.648,0.277 0.925,0.833 1.202,1.11 0,0 0.555,-0.185 0.833,0 z"
   id="path1155"
   style="fill:#677821" />
					<path
   fill="#303B09"
   d="m 606.916,1020.967 c 0.647,0.254 0.832,0.301 1.232,0.763 0.4,0.463 0.896,0.832 1.543,1.157 0.647,0.324 0.278,-0.602 -0.398,-0.972 -0.676,-0.37 0.398,-0.37 -0.064,-0.948 -0.463,-0.578 0.277,-0.625 0,-1.179 -0.277,-0.555 -0.277,-0.555 -0.839,-0.647 -0.56,-0.092 -1.492,0.407 -2.121,0.647 -0.772,0.295 -10e-4,0.925 0.647,1.179 z"
   id="path1156"
   style="fill:#677821" />
					<path
   fill="#303B09"
   d="m 599.701,1015.44 c 0.466,-0.271 1.572,-0.832 1.665,-1.295 0.092,-0.462 0.185,-0.648 0.647,-1.11 0.462,-0.462 0.647,-1.11 0,-1.573 -0.647,-0.462 0.049,-0.58 -0.947,-0.892 -0.996,-0.31 -1.643,-0.892 -2.013,0 -0.37,0.892 0.647,1.262 0,1.632 -0.648,0.37 -1.11,-0.812 -1.11,0.565 0,1.377 0,2.949 0.555,2.672 0.555,-0.275 0.557,0.376 1.203,0 z"
   id="path1157"
   style="fill:#677821" />
					<path
   fill="#303B09"
   d="m 604.797,1006.006 c 0,0 0.546,-0.093 0.959,-0.408 0.414,-0.315 -0.599,-0.425 -0.969,-0.702 -0.37,-0.277 -0.648,0.277 -0.925,0.555 -0.277,0.278 0,0.925 0,0.925 z"
   id="path1158"
   style="fill:#677821" />
					<path
   fill="#303B09"
   d="m 592.664,1008.503 c 0.456,-0.093 0.469,-0.647 0.377,-1.018 -0.093,-0.37 -0.925,-0.463 -1.645,-0.648 -0.72,-0.185 -0.668,0.648 -0.928,1.108 -0.259,0.46 -0.851,0.834 -0.851,0.834 0,0 0.938,0.358 1.388,0.463 0.659,0.154 1.203,-0.646 1.659,-0.739 z"
   id="path1159"
   style="fill:#677821" />
					<path
   fill="#303B09"
   d="m 602.105,926.061 c 0.37,0.345 0.648,-0.253 0.772,-1.363 0.125,-1.11 0.245,-0.37 0.625,-1.11 0.379,-0.741 -0.102,-0.832 -0.009,-1.388 0.093,-0.555 -0.555,-0.092 -0.832,0.463 -0.278,0.554 -0.278,0.74 -0.555,1.48 -10e-4,10e-4 -0.371,1.573 -10e-4,1.918 z"
   id="path1160"
   style="fill:#677821" />
					<path
   fill="#303B09"
   d="m 622.178,929.693 c 0.577,0.097 1.757,0.185 2.312,0 0.555,-0.186 1.295,-0.463 1.757,-1.11 0.463,-0.648 0.306,-0.851 0.847,-1.396 0.541,-0.546 0.911,-1.193 0.541,-1.564 -0.37,-0.37 -0.619,0 -0.541,-0.925 0.079,-0.925 0.754,-1.11 0,-1.295 -0.754,-0.186 -1.256,-0.925 -1.514,0 -0.258,0.925 0.446,0.925 -0.6,1.017 -1.046,0.093 -0.49,-0.648 -1.046,0.093 -0.555,0.74 -0.647,1.153 -0.74,1.548 -0.092,0.395 0.092,1.024 -0.37,1.126 -0.463,0.102 -1.203,0.102 -1.388,0.656 -0.183,0.555 0.004,1.726 0.742,1.85 z"
   id="path1161"
   style="fill:#677821" />
					<path
   fill="#303B09"
   d="m 617.72,927.187 c -0.388,0.269 0.11,0.379 0.018,0.715 -0.092,0.335 0.185,0.589 0.647,1.144 0.463,0.555 1.018,0.462 1.942,0 0.925,-0.462 0,0 -0.143,-0.277 -0.144,-0.278 -0.041,-0.555 -0.041,-0.555 0,0 0.092,-0.647 0,-1.026 -0.093,-0.379 -1.11,-0.638 -1.758,-0.812 0,-10e-4 -0.277,0.542 -0.665,0.811 z"
   id="path1162"
   style="fill:#677821" />
					<path
   fill="#303B09"
   d="m 619.152,930.695 c 0,0 0.436,0.293 0.806,0.755 0.37,0.463 0.925,0.093 1.414,0 0.488,-0.092 -0.026,-0.555 -0.638,-1.202 -0.611,-0.647 -0.406,-0.093 -0.961,-0.447 -0.555,-0.354 -0.621,0.447 -0.621,0.447 z"
   id="path1163"
   style="fill:#677821" />
					<path
   fill="#303B09"
   d="m 615.241,929.428 c 0.37,0.568 1.202,0.266 1.942,0.374 0.74,0.108 0.647,0.077 0.832,-0.09 0.186,-0.167 -0.003,-1.108 -0.925,-1.313 -0.922,-0.204 -0.74,-0.555 -1.572,-0.854 -0.833,-0.3 -0.647,-0.534 -1.203,-0.358 -0.555,0.176 -0.053,0.137 -0.278,0.715 -0.277,0.714 0.834,0.959 1.204,1.526 z"
   id="path1164"
   style="fill:#677821" />
					<path
   fill="#303B09"
   d="m 593.225,884.646 c -0.063,0.286 -0.37,1.111 0,1.572 0.37,0.464 1.295,2.128 2.22,2.405 0.925,0.277 1.48,0.277 2.127,0 0.648,-0.277 0.648,-1.017 0,-1.11 -0.647,-0.093 0.048,-0.07 -0.901,-0.774 -0.948,-0.706 -0.835,-0.891 -1.123,-1.446 -0.288,-0.554 -0.381,-0.277 -0.843,-0.648 -0.462,-0.37 -1.296,-0.824 -1.48,10e-4 z"
   id="path1165"
   style="fill:#677821" />
					<path
   fill="#303B09"
   d="m 627.785,867.78 c 0,0.525 0.221,1.233 1.206,1.325 0.986,0.093 0.31,-0.74 0,-1.388 -0.31,-0.647 -0.245,-0.925 -1.206,-1.202 -0.961,-0.277 -0.334,0.37 0,0.741 z"
   id="path1166"
   style="fill:#677821" />
					<path
   fill="#303B09"
   d="m 629.506,870.268 c -0.165,0.328 0.904,0.503 1.274,0.781 0.37,0.277 1.572,0.74 2.729,0.74 1.157,0 -0.139,-0.925 0,-1.388 0.14,-0.462 -1.249,-0.462 -2.081,-1.288 -0.833,-0.825 -1.388,0 -1.388,0 0,0 -0.37,0.825 -0.534,1.155 z"
   id="path1167"
   style="fill:#677821" />
					<path
   fill="#303B09"
   d="m 644.378,863.371 c 0.37,0.092 1.11,0.278 1.85,0 0.74,-0.278 0.277,-0.648 0,-1.388 -0.277,-0.739 -0.093,-1.11 -0.74,-1.664 -0.648,-0.556 -0.648,0 -1.11,1.109 -0.462,1.11 0,0 -0.347,0.555 0,0 -0.023,1.296 0.347,1.388 z"
   id="path1168"
   style="fill:#677821" />
					<path
   fill="#303B09"
   d="m 641.048,861.335 c 0.462,0.278 0.74,0 1.203,0 0.462,0 0.37,0.74 0.462,0 0.092,-0.74 -0.185,-0.092 0.092,-0.74 0.278,-0.648 0.093,-0.648 0,-1.203 -0.092,-0.555 0.925,-0.37 -0.092,-0.555 -1.018,-0.185 -0.647,-0.925 -1.018,-0.185 -0.37,0.74 0.185,0.462 -0.37,0.74 -0.555,0.277 -0.833,0.027 -0.833,0.707 0.001,0.681 0.556,1.236 0.556,1.236 z"
   id="path1169"
   style="fill:#677821" />
					<path
   fill="#303B09"
   d="m 638.787,859.301 c 0.976,0.092 0.319,-0.186 0.688,-0.97 0.37,-0.785 -0.185,-0.695 -0.74,-1.065 -0.555,-0.37 -0.76,0.364 -0.74,1.065 0.012,0.409 -0.185,0.877 0.792,0.97 z"
   id="path1170"
   style="fill:#677821" />
					<path
   fill="#303B09"
   d="m 633.994,858.331 c 0,0 0.579,0.137 1.226,-0.088 0.647,-0.226 -0.277,-0.792 -0.832,-1.076 -0.555,-0.283 -0.647,-0.825 -1.295,-1.288 -0.648,-0.462 -1.018,0.093 -1.352,0.555 -0.334,0.462 0.704,0.925 1.352,1.809 z"
   id="path1171"
   style="fill:#677821" />
					<path
   fill="#303B09"
   d="m 641.51,856.618 c 0.37,0.74 0.648,-0.74 1.598,-0.793 0.951,-0.052 0.345,0.145 0.992,0.607 0.647,0.462 0,0 -0.069,-0.729 -0.07,-0.729 -0.208,-0.659 -0.862,-0.566 -0.654,0.093 -1.031,-0.058 -1.338,0 -0.418,0.082 -0.691,0.741 -0.321,1.481 z"
   id="path1172"
   style="fill:#677821" />
					<path
   fill="#303B09"
   d="m 596.671,862.631 c 0.764,0.092 0.809,-0.37 2.104,-0.777 1.295,-0.407 1.018,-0.056 1.757,-0.888 0.74,-0.833 0.925,-0.556 1.509,-1.648 0.583,-1.093 0.064,-0.757 -0.491,-0.479 -0.555,0.277 -1.295,-0.185 -2.497,0 -1.203,0.185 -1.203,0.185 -2.382,0.479 -1.179,0.295 -1.041,1.093 -1.874,1.278 -0.833,0.185 -1.295,0.462 -1.295,0.462 0,0 0.595,0.723 1.295,0.75 0.509,0.021 1.111,0.73 1.874,0.823 z"
   id="path1173"
   style="fill:#677821" />
					<path
   fill="#303B09"
   d="m 613.994,861.809 c 0.233,-0.082 0.877,-0.381 0.877,-1.206 0,-0.826 -0.37,-0.747 -1.388,-1.285 -1.018,-0.538 -1.11,0.631 -1.642,0.681 -0.532,0.049 -0.671,0.321 -0.715,0.604 -0.044,0.284 0.785,0.733 1.432,0.641 0,0 1.202,0.647 1.436,0.565 z"
   id="path1174"
   style="fill:#677821" />
					<path
   fill="#303B09"
   d="m 617.923,826 c 0,0 0.37,-0.462 0.74,-0.647 0.37,-0.185 1.295,-0.833 0.74,-1.109 -0.555,-0.278 -0.925,-1.018 -1.48,-0.463 -0.555,0.555 -0.647,0.447 -0.555,1.01 0.092,0.562 0.555,1.209 0.555,1.209 z"
   id="path1175"
   style="fill:#677821" />
					<path
   fill="#303B09"
   d="m 615.555,826.926 c -0.056,0.462 0.888,0.185 1.118,0 0.23,-0.186 0.664,-0.555 0.664,-0.555 0,0 -0.894,-0.555 -1.327,-0.37 -10e-4,-10e-4 -0.4,0.462 -0.455,0.925 z"
   id="path1176"
   style="fill:#677821" />
					<path
   fill="#303B09"
   d="m 646.135,847.275 c 0,0 0.833,1.018 0.925,1.572 0.093,0.556 1.851,0.185 1.11,-0.327 -0.74,-0.512 0.185,-1.153 0,-1.523 -0.185,-0.37 -0.555,-0.093 -1.11,0 z"
   id="path1177"
   style="fill:#677821" />
					<path
   fill="#303B09"
   d="m 648.818,844.182 c 0.37,0.326 1.018,1.059 1.388,1.151 0.37,0.093 0.277,-0.74 0,-1.295 -0.277,-0.555 -0.763,-0.824 -1.388,-1.018 -0.561,-0.172 -0.37,0.833 0,1.162 z"
   id="path1178"
   style="fill:#677821" />
					<path
   fill="#303B09"
   d="m 644.031,842.188 c -0.266,-0.663 0.088,-0.462 -1.17,-1.11 -1.258,-0.647 -0.219,-1.018 -1.524,-1.758 -1.306,-0.74 -2.046,-1.202 -2.139,0 -0.092,1.203 -0.223,1.359 0.398,2.206 0.62,0.847 0.842,0.992 1.979,1.475 1.138,0.482 2.2,0.944 2.456,0.574 0.255,-0.369 0.219,-0.841 0,-1.387 z"
   id="path1179"
   style="fill:#677821" />
					<path
   fill="#303B09"
   d="m 642.861,836.83 c 0.056,-0.456 -0.333,-1.117 -0.426,-2.135 -0.092,-1.018 -0.185,-1.11 -1.099,-2.127 -0.914,-1.018 -0.936,0.184 -0.864,1.387 0.072,1.202 -0.534,-0.278 -0.877,0 -0.343,0.277 -0.49,0.369 0,1.294 0.49,0.925 0.435,0.462 0.897,1.203 0.463,0.74 0.43,1.242 1.171,2.129 0.334,0.4 1.142,-1.295 1.198,-1.751 z"
   id="path1180"
   style="fill:#677821" />
					<path
   fill="#303B09"
   d="m 629.971,818.323 c 0.393,0.092 0.254,-0.37 0.439,-0.74 0.185,-0.37 -0.647,-0.277 -0.904,0 0,0 0.072,0.648 0.465,0.74 z"
   id="path1181"
   style="fill:#677821" />
					<path
   fill="#303B09"
   d="m 687.483,808.24 c 1.295,0 0,0 0.74,0.186 0.74,0.185 0.462,-0.37 0.555,-0.833 0.093,-0.462 -0.185,-0.555 -0.647,-1.197 -0.463,-0.643 -0.647,-0.56 -1.295,-0.55 -0.647,0.011 -0.555,0.36 -0.647,1.1 -10e-4,-10e-4 -10e-4,1.294 1.294,1.294 z"
   id="path1182"
   style="fill:#677821" />
					<path
   fill="#303B09"
   d="m 734.565,800.841 c 0.832,0.647 1.757,0.74 2.312,1.017 0.556,0.278 1.203,0.833 1.388,1.388 0.186,0.555 -1.295,1.295 0,1.757 1.295,0.463 1.388,0.37 1.481,0 0.092,-0.37 -0.186,-0.647 0,-1.295 0.185,-0.648 0.039,-0.833 0.019,-1.295 -0.019,-0.463 0.998,0.277 -0.019,-0.463 -1.018,-0.74 -1.665,-0.648 -1.388,-1.109 0.277,-0.463 0.74,-0.647 0.093,-0.925 -0.647,-0.278 0.453,-0.74 -1.068,-0.462 -1.523,0.277 -2.818,1.387 -2.818,1.387 z"
   id="path1183"
   style="fill:#677821" />
					<path
   fill="#303B09"
   d="m 740.198,797.973 c -0.031,0.945 -0.564,1.295 0,1.942 0.565,0.647 0.472,1.018 1.305,1.295 0.832,0.278 2.312,0.648 1.757,0 -0.555,-0.647 -0.277,-0.37 -1.018,-0.74 -0.74,-0.37 -1.295,-0.449 -1.11,-1.103 0.185,-0.655 -0.092,-1.117 0.092,-1.395 0.185,-0.278 1.287,-0.832 0.459,-0.925 -0.828,-0.091 -1.462,0.216 -1.485,0.926 z"
   id="path1184"
   style="fill:#677821" />
					<path
   fill="#303B09"
   d="m 731.513,803.06 c 0,0 1.109,-0.554 1.109,-0.718 0,-0.164 -0.74,-0.484 -1.109,0 z"
   id="path1185"
   style="fill:#677821" />
					<path
   fill="#303B09"
   d="m 726.148,775.682 c 0.428,0.328 0.462,0.554 1.202,0.554 0.74,0 1.203,-0.74 1.851,0 0.647,0.74 0.863,1.018 1.449,0.37 0.586,-0.648 0.247,-1.11 0,-1.665 -0.247,-0.555 1.696,-0.184 -0.247,-0.555 -1.942,-0.37 -2.683,0.278 -3.053,0 -0.37,-0.278 -1.672,0.933 -1.202,1.296 z"
   id="path1186"
   style="fill:#677821" />
					<path
   fill="#303B09"
   d="m 687.492,776.969 c 0.472,0.27 0.454,0.931 1.304,1.579 0.851,0.647 0.445,0.647 0.723,0 0.277,-0.648 0.74,-0.555 0.925,-1.579 0.185,-1.025 0.185,-0.641 0,-1.351 -0.185,-0.709 -0.277,-0.955 -0.833,-1.719 -0.555,-0.764 -0.555,-0.254 -1.387,-0.346 -0.833,-0.093 -0.686,0.06 -1.203,0.715 -0.479,0.607 0,2.43 0.471,2.701 z"
   id="path1187"
   style="fill:#677821" />
					<path
   fill="#303B09"
   d="m 666.855,706.583 c 0.185,-0.277 0.277,1.85 0.833,1.85 0.555,0 1.388,-0.278 2.035,0 0.648,0.277 1.572,0.925 1.665,0 0.092,-0.925 0.185,-1.203 -0.647,-1.388 -0.833,-0.185 -1.388,0.136 -1.943,-0.487 -0.555,-0.623 -1.943,0.025 -1.943,0.025 z"
   id="path1188"
   style="fill:#677821" />
					<path
   fill="#303B09"
   d="m 663.896,706.288 c -0.092,0.203 0,0.573 0.462,0.666 0.462,0.092 0.925,0.149 0.74,-0.666 -0.185,-0.815 -1.202,0 -1.202,0 z"
   id="path1189"
   style="fill:#677821" />
					<path
   fill="#303B09"
   d="m 663.863,703.531 c -0.153,0.369 0.504,1.109 0.638,0.832 0.134,-0.278 0.051,-0.37 0,-0.832 -0.05,-0.462 -0.638,0 -0.638,0 z"
   id="path1190"
   style="fill:#677821" />
					<path
   fill="#303B09"
   d="m 661.675,701.434 c -0.37,0.308 0.37,0.524 0.879,0.432 0.509,-0.092 0.693,-0.74 0.509,-0.74 -0.185,0 -0.74,-0.278 -1.018,0 0,-10e-4 0,-10e-4 -0.37,0.308 z"
   id="path1191"
   style="fill:#677821" />
					<path
   fill="#303B09"
   d="m 667.872,703.325 c 0.009,0.226 0,0.975 0.37,1.099 0.37,0.124 0.799,-0.113 0.908,-0.549 0.109,-0.437 -0.656,-0.549 -0.656,-0.549 0,0 -0.644,-0.622 -0.622,-10e-4 z"
   id="path1192"
   style="fill:#677821" />
					<path
   fill="#303B09"
   d="m 659.085,715.371 c 0.462,0.833 0.925,1.11 1.388,1.48 0.462,0.371 0.925,0.371 0.648,-0.74 -0.277,-1.11 0.176,-1.665 -0.976,-1.758 -1.152,-0.092 -1.337,-0.462 -1.523,0 -0.184,0.462 0.463,1.018 0.463,1.018 z"
   id="path1193"
   style="fill:#677821" />
					<path
   fill="#303B09"
   d="m 662.354,717.072 c 0.249,0.772 0.479,1.168 0.779,1.259 0.3,0.092 0.513,1.11 0.73,0 0.217,-1.109 0.615,-0.852 0,-1.259 -0.616,-0.406 -1.738,-0.711 -1.509,0 z"
   id="path1194"
   style="fill:#677821" />
					<path
   fill="#303B09"
   d="m 665.838,720.182 c -0.035,0.836 -0.278,1.109 0,1.941 0.278,0.833 -0.185,1.296 0.555,1.296 0.74,0 1.108,1.202 1.479,0 0.37,-1.203 0.462,-0.945 0,-1.352 -0.462,-0.406 -0.717,-0.498 -0.914,-1.053 -0.196,-0.555 -0.474,-0.832 -0.474,-0.832 0,0 -0.615,-0.751 -0.646,0 z"
   id="path1195"
   style="fill:#677821" />
					<path
   fill="#303B09"
   d="m 633.463,754.684 c 0.37,0.832 0.617,1.48 1.002,1.85 0.385,0.37 0.571,0.925 1.125,0.462 0.555,-0.462 0.925,0.545 0.925,-1.068 0,-1.614 0.37,-1.614 -0.555,-2.077 -0.925,-0.463 -1.665,0.093 -1.942,0 -0.277,-0.093 -0.555,0.833 -0.555,0.833 z"
   id="path1196"
   style="fill:#677821" />
					<path
   fill="#303B09"
   d="m 629.855,767.633 c 0.076,0.65 0.092,1.665 0.555,2.683 0.462,1.018 0.462,2.128 1.202,2.498 0.74,0.371 0.555,0.092 1.85,0.278 1.295,0.185 0.998,-0.349 1.563,0.38 0.564,0.729 0.525,1.377 1.562,1.192 1.037,-0.186 2.425,0.113 2.332,-1.192 -0.093,-1.306 -0.37,-2.415 -0.833,-3.803 -0.462,-1.388 -0.501,-1.758 -1.5,-2.683 -0.998,-0.925 0.185,-1.665 -1.562,-1.479 -1.748,0.185 -2.488,0.647 -3.228,0.832 -0.738,0.184 -2.084,0.068 -1.941,1.294 z"
   id="path1197"
   style="fill:#677821" />
					<path
   fill="#303B09"
   d="m 617.923,780.121 c 0.37,0.185 0.74,0.648 0.925,0 0.185,-0.648 -0.044,-0.602 -0.392,-1.087 -0.348,-0.486 -0.533,1.087 -0.533,1.087 z"
   id="path1198"
   style="fill:#677821" />
					<path
   fill="#303B09"
   d="m 572.064,703.049 c 0,0 -1.274,1.133 0,1.408 1.274,0.276 2.995,-0.019 2.875,-0.704 -0.121,-0.684 0.087,-3.152 -0.757,-2.751 -0.844,0.401 -2.118,0.639 -2.118,2.047 z"
   id="path1199"
   style="fill:#677821" />
					<path
   fill="#303B09"
   d="m 571.497,843.709 c -0.564,1.624 -1.163,3.099 -1.357,3.102 -0.194,0.003 0.442,0.738 1.357,0 0.915,-0.738 1.133,-4.519 0.566,-3.81 z"
   id="path1200"
   style="fill:#677821" />
					<path
   fill="#303B09"
   d="m 565.013,851.531 c 0,0 0.616,0.585 1.109,0 0.494,-0.587 0.494,-0.648 0.494,-0.771 0,-0.124 -0.987,0 -0.987,0 z"
   id="path1201"
   style="fill:#677821" />
					<path
   fill="#303B09"
   d="m 430.826,820.913 c 0,0 0.493,-0.493 0.987,-0.986 0.494,-0.494 0.74,0.369 0.74,-1.234 0,-1.604 1.233,-1.728 0,-1.604 -1.233,0.123 -0.37,0.863 -1.726,0.74 -1.357,-0.123 -1.727,0.124 -1.973,0.864 -0.248,0.74 1.972,2.22 1.972,2.22 z"
   id="path1202"
   style="fill:#677821" />
					<path
   fill="#303B09"
   d="m 449.819,809.443 c 0.617,0.616 1.357,1.973 1.85,1.356 0.493,-0.617 0.863,-0.123 0.74,-1.356 -0.124,-1.233 0.541,-0.987 0.023,-1.727 -0.517,-0.74 -0.787,-1.357 -1.207,-1.233 -0.42,0.123 -1.53,0.494 -1.407,1.11 0.125,0.617 0.001,1.85 0.001,1.85 z"
   id="path1203"
   style="fill:#677821" />
					<path
   fill="#303B09"
   d="m 571.025,1063.078 c 0.278,0.462 1.295,0.185 1.943,0.462 0.648,0.278 2.312,0 2.96,-0.462 0.647,-0.463 0.555,-0.093 1.572,0.555 1.018,0.647 0,0 0.093,0.37 0.092,0.37 1.017,0.925 1.202,1.11 0.185,0.185 0.185,-1.573 0,-2.22 -0.185,-0.647 -0.74,-0.555 -1.388,-0.833 -0.648,-0.277 0.463,-0.277 0,-1.075 -0.462,-0.798 -0.555,-0.59 -1.387,-0.867 -0.832,-0.277 -1.48,-0.277 -2.498,0 -1.018,0.277 -1.48,0.37 -1.572,1.11 -0.093,0.74 -0.925,0.832 -0.925,0.832 -0.633,0.281 -0.278,0.555 0,1.018 z"
   id="path1204"
   style="fill:#677821" />
					<path
   fill="#303B09"
   d="m 566.603,1080.931 c 0.851,0.277 1.277,-0.555 1.555,-0.74 0.277,-0.185 0.925,-0.74 1.388,-0.833 0.463,-0.093 0.37,-0.647 0,-0.775 -0.37,-0.128 -1.11,-0.705 -1.572,-0.651 -0.463,0.054 -1.203,-0.331 -2.035,0.039 -0.833,0.37 -1.572,-0.185 -1.85,0 -0.278,0.185 -0.74,0.832 -0.74,0.832 l 1.479,0.555 c 0,0 0.925,1.295 1.775,1.573 z"
   id="path1205"
   style="fill:#677821" />
					<path
   fill="#303B09"
   d="m 569.083,898.428 c 0.759,-0.219 1.295,0 1.295,-1.017 0,-1.017 0.647,-0.812 1.11,-1.839 0.463,-1.028 -0.277,-0.843 0,-1.953 0.277,-1.11 1.052,-1.942 0.156,-1.757 -0.896,0.185 0.05,0.37 -1.07,1.202 -1.121,0.833 -0.843,1.48 -1.491,1.203 -0.648,-0.277 -0.648,-0.463 -0.74,0.462 -0.093,0.925 0.185,1.203 0,1.757 -0.185,0.555 -0.315,2.246 0.74,1.942 z"
   id="path1206"
   style="fill:#677821" />
					<path
   fill="#303B09"
   d="m 567.233,896.485 c 0.333,0 0.555,-0.164 0,-0.915 -0.555,-0.751 -0.462,0.175 -1.11,-0.843 -0.647,-1.018 0.556,-2.127 -0.832,-2.127 -1.388,0 -0.37,0.555 -1.85,1.11 -1.48,0.555 -2.127,-1.017 -2.405,0.833 -0.278,1.85 -1.388,3.237 0,2.683 1.387,-0.555 1.295,-1.46 2.035,-1.655 0.74,-0.195 1.295,-0.832 1.757,-0.421 0.463,0.41 1.294,1.335 2.405,1.335 z"
   id="path1207"
   style="fill:#677821" />
					<path
   fill="#303B09"
   d="m 573.43,892.606 c -0.092,0.191 1.018,-0.098 1.388,-0.005 0.37,0.093 -0.185,-1.11 -0.647,-1.48 -0.462,-0.37 -0.74,0.092 -0.74,0.714 -0.001,0 0.092,0.581 -0.001,0.771 z"
   id="path1208"
   style="fill:#677821" />
					<path
   id="Vatersay__x2F__Bhatarsaigh_3_"
   fill="#303B09"
   d="m 581.902,1045.041 c -0.685,-0.092 -0.701,-0.555 -0.517,-1.759 0.185,-1.205 0.833,-0.275 2.312,-0.461 1.481,-0.185 0.833,0 1.573,0 0.74,0 2.775,1.573 2.775,1.573 0,0 0,0 0.277,0.277 0.277,0.278 1.018,0.555 1.481,0.925 0.462,0.37 0.462,-0.093 0.647,-0.463 0.185,-0.37 -1.11,-0.555 -1.11,-0.555 0,0 -0.555,-0.647 -0.74,-0.925 -0.185,-0.278 -0.832,-0.555 -1.58,-0.372 -0.187,0.045 -0.28,0.034 -0.315,-0.011 -0.103,-0.135 0.32,-0.565 0.315,-0.635 -0.007,-0.093 -1.01,-0.37 -1.935,-0.925 -0.925,-0.555 -0.74,-0.462 -1.78,-0.277 -1.04,0.185 -1.457,-0.092 -2.475,0 -1.018,0.092 -0.925,-0.37 -0.555,-0.833 0.37,-0.463 0.278,-0.925 0.185,-1.203 -0.093,-0.277 -1.665,-0.37 -2.59,-0.555 -0.925,-0.185 -1.11,-0.37 -1.85,-0.647 -0.74,-0.277 -0.37,-0.277 -1.295,0 -0.925,0.278 0,0 0.078,0.463 0.077,0.462 0.477,0.277 0.683,0.647 0.206,0.37 0.442,0.37 0.978,0.647 0.535,0.277 0.112,0.37 -0.258,0.833 -0.37,0.462 0,0 -0.277,0 -0.278,0 -0.74,0.092 -1.125,-0.278 -0.386,-0.37 -0.448,0.186 -1.25,0.555 -0.801,0.37 0.802,0.74 1.634,1.295 0.833,0.555 0,0 0.286,0.37 0.286,0.37 0.546,0.74 1.471,1.018 0.925,0.277 1.388,-0.278 1.989,0 0.602,0.277 -0.509,1.11 -1.063,1.11 -0.555,0 -0.925,0.093 -1.407,0.555 -0.482,0.462 0.39,0.925 0.944,1.582 0.555,0.657 -0.185,1.101 0.463,1.471 0.647,0.37 1.572,-0.278 2.59,-0.601 1.018,-0.324 1.018,-0.324 1.85,-0.138 0.833,0.185 1.203,0.185 1.481,0 0.277,-0.186 0.462,-0.926 0.74,-1.11 0.277,-0.186 0.555,-1.203 0.555,-1.203 0.159,-0.497 -2.499,-0.278 -3.185,-0.37 z"
   style="fill:#677821" />
					<path
   id="Taransay__x2F__Tarasaigh_3_"
   fill="#303B09"
   d="m 640.493,802.968 c 0,0 0.669,1.203 0.844,1.758 0.174,0.555 0.748,1.018 1.524,0.925 0.777,-0.092 1.332,0.74 1.979,-0.462 0.648,-1.203 0.648,-1.85 1.295,-2.22 0.648,-0.37 0.459,-0.74 1.108,0 0.649,0.74 0.592,0.971 1.222,1.226 0.63,0.255 1.766,0.81 1.984,0.995 0.218,0.185 0.218,0.833 0.773,-0.092 0.555,-0.925 1.018,-1.203 1.387,-2.128 0.37,-0.925 0.278,-1.018 0.833,-2.035 0.555,-1.018 0,-1.572 0,-2.775 0,-1.202 0.647,-1.11 -0.37,-2.312 -1.018,-1.202 -0.092,-1.664 -1.572,-1.11 -1.48,0.555 -1.758,0.833 -2.498,1.11 -0.74,0.277 -1.298,0.185 -1.759,1.11 -0.461,0.925 -0.831,0.092 -1.108,1.387 -0.277,1.295 0.33,1.758 -0.807,2.312 -1.136,0.555 -0.932,0.647 -2.468,0.555 -1.535,-0.092 -2.275,0.37 -2.368,0.648 -0.092,0.276 -0.348,0.452 0.001,1.108 z"
   style="fill:#677821" />
					<path
   id="St_Kilda_3_"
   fill="#303B09"
   d="m 433.786,819.803 c 0.337,0.611 0.493,1.11 0.617,2.22 0.123,1.11 -0.124,2.59 0.863,3.083 0.986,0.493 2.097,0.123 2.836,0.863 0.74,0.741 0.987,1.356 1.603,0.863 0.617,-0.493 -1.11,-1.85 0,-2.467 1.11,-0.617 1.603,0.863 2.466,-0.247 0.863,-1.11 0.863,-1.603 0,-2.343 -0.863,-0.741 0.987,-1.481 -0.986,-1.974 -1.974,-0.493 -2.837,0.987 -3.947,0 -1.11,-0.986 -2.836,-1.109 -2.836,-1.109 0,0 -1.034,0.353 -0.616,1.111 z"
   style="fill:#677821" />
					<path
   id="South_Uist__x2F__Uibhist_a_Deas_3_"
   fill="#303B09"
   d="m 622.826,999.253 c 0.37,-1.665 0.74,-0.647 1.109,-2.035 0.37,-1.387 -0.185,-0.74 -0.925,-1.85 -0.74,-1.11 -0.647,-1.018 -1.85,-1.665 -1.203,-0.648 -0.555,-1.111 -1.665,-2.313 -1.11,-1.203 -1.11,-0.925 -2.96,-1.295 -1.851,-0.37 -2.405,0.092 -3.885,0.648 -1.48,0.555 -2.405,0.925 -3.92,0.925 -1.516,0 -1.444,-0.37 -2,-1.758 -0.555,-1.387 -0.37,-0.648 -0.974,-1.387 -0.604,-0.74 -0.321,-0.555 1.344,-0.555 1.665,0 0.925,0.186 1.63,-0.092 0.705,-0.278 0.59,-0.185 1.297,0 0.707,0.185 0.588,0.462 0,1.11 -0.588,0.647 0.403,0.74 2.068,0.37 1.665,-0.37 0,0 -0.37,-0.462 -0.37,-0.462 -0.185,-0.555 -0.555,-1.018 -0.37,-0.463 -0.185,-0.647 0.37,-1.018 0.555,-0.37 0.647,0.925 1.882,1.48 1.234,0.555 2.65,0.37 3.515,0.185 0.863,-0.185 1.633,-1.665 2.188,-3.145 0.555,-1.48 0,-2.22 -0.093,-3.978 -0.092,-1.756 -0.925,-2.219 -2.096,-3.422 -1.172,-1.203 -0.309,-1.665 -0.401,-3.052 -0.093,-1.388 -0.37,-1.388 -1.295,-2.405 -0.925,-1.018 -2.128,0.093 -2.868,-0.185 -0.74,-0.277 -0.555,-0.925 -0.832,-1.48 -0.277,-0.555 -0.648,-1.11 -1.513,-1.758 -0.866,-0.648 -0.799,0.093 -1.638,0.278 -0.838,0.185 -1.196,0.092 -2.444,0.185 -1.248,0.093 -0.788,-0.462 -1.711,-1.387 -0.923,-0.925 -0.187,-0.832 0,-2.405 0.187,-1.573 0.738,0.647 1.711,1.757 0.972,1.11 1.248,0.185 2.785,0.463 1.537,0.277 1.7,0.092 4.013,-0.37 2.312,-0.463 0.647,0.37 0.68,1.295 0.032,0.925 -0.31,0.185 -0.772,-0.093 -0.462,-0.277 -0.462,-0.185 -1.018,0.186 -0.555,0.37 0.278,0.647 1.018,1.295 0.74,0.647 0.462,0.462 0.772,0.277 0.31,-0.185 2.28,-0.647 3.515,-0.925 1.233,-0.278 0.801,-0.463 0.893,-1.388 0.092,-0.925 0.277,-1.665 0.555,-2.497 0.277,-0.833 0.37,-1.11 1.203,-2.22 0.833,-1.11 0.092,-0.648 -0.185,-1.573 -0.277,-0.925 0.093,-1.11 0,-1.942 -0.093,-0.833 0.925,-0.462 1.758,-1.48 0.832,-1.018 0.185,-1.018 1.202,-2.127 1.018,-1.11 1.203,0.185 2.683,-0.37 1.48,-0.555 0.462,-0.925 0.647,-2.312 0.185,-1.388 0.463,-1.018 1.11,-2.221 0.647,-1.203 0.092,-0.555 -0.463,-1.387 -0.555,-0.833 -0.832,-0.463 -1.665,-0.463 -0.832,0 -0.832,0.463 -1.665,-0.092 -0.832,-0.555 -0.185,-0.648 -0.647,-1.757 -0.462,-1.11 0.185,-0.647 0,-1.85 -0.185,-1.203 -0.277,-0.462 -1.295,-0.278 -1.018,0.186 -0.462,-0.092 -0.74,-0.647 -0.277,-0.555 -0.277,-0.555 -1.202,-0.555 -0.925,0 -0.093,0.831 -0.925,0.831 -0.833,0 -1.851,-0.462 -1.758,-1.202 0.093,-0.74 0.277,-0.463 1.48,-0.74 1.203,-0.277 1.387,-0.185 2.59,-0.647 1.202,-0.463 0.74,-0.647 1.202,-1.11 0.463,-0.462 0.648,-0.647 1.758,-1.572 1.11,-0.925 -0.093,-0.555 -1.295,-1.018 -1.203,-0.462 -1.018,0.462 -2.22,0.833 -1.203,0.371 -1.11,0.185 -1.85,0.462 -0.74,0.278 -0.74,-0.092 -1.942,-0.277 -1.203,-0.185 -1.203,-0.462 -1.481,-0.925 -0.277,-0.463 0.74,-0.371 1.11,-0.463 0.37,-0.092 1.665,0.463 2.312,0.556 0.647,0.092 1.295,0 2.22,-0.186 0.925,-0.185 0.186,-0.648 -0.092,-0.925 -0.277,-0.278 -0.74,-0.185 -1.387,-0.555 -0.647,-0.371 -1.11,-0.648 -1.911,-1.942 -0.802,-1.294 -1.142,-0.833 -1.604,-1.294 -0.462,-0.463 -1.666,-0.741 -2.961,-1.204 -1.295,-0.462 -0.647,-0.555 0.186,-0.74 0.832,-0.185 0.925,-0.37 1.757,0 0.832,0.37 1.11,0.462 2.035,0.37 0.925,-0.092 0.093,-0.833 -0.462,-1.665 -0.555,-0.833 -1.203,-0.74 -2.466,-1.018 -1.263,-0.277 -1.512,-0.647 -2.252,-0.74 -0.74,-0.093 -1.572,-0.278 -1.262,-0.74 0.31,-0.462 -0.865,-0.833 -1.519,-1.665 -0.653,-0.833 -1.381,-1.018 -2.535,-0.731 -1.153,0.287 -2.269,0.269 -2.731,0.361 -0.462,0.092 -1.665,0.462 -2.221,-0.093 -0.555,-0.555 -0.925,-0.092 -2.035,0 -1.11,0.093 -0.37,1.017 -0.925,1.573 -0.555,0.555 -0.833,1.017 -1.295,0.803 -0.463,-0.215 -0.74,0.122 -1.203,0.029 -0.462,-0.093 0,0 -0.833,0.74 -0.832,0.74 0.185,0.925 0.833,1.942 0.648,1.017 1.018,1.572 2.035,3.053 1.017,1.479 0.833,4.07 1.11,5.55 0.277,1.48 0.277,4.07 0.185,5.365 -0.092,1.295 0,4.81 0,5.827 0,1.018 -1.11,1.11 -2.312,2.312 -1.203,1.203 -0.647,0.648 -0.833,2.22 -0.185,1.573 -0.37,1.387 -0.647,2.775 -0.277,1.388 0.37,0.925 0.277,2.312 -0.093,1.388 0,2.312 -0.093,2.867 -0.092,0.556 -1.202,1.481 -1.235,1.573 -0.034,0.092 -1.077,0 -1.909,0 -0.832,0 -1.203,0 -1.555,0.648 -0.352,0.648 0.26,0.833 0.928,0.833 0.668,0 1.367,-0.092 2.536,0.555 1.169,0.647 0.311,1.295 0.403,2.312 0.093,1.017 0.093,1.757 0.711,2.127 0.619,0.37 0.214,1.665 0.029,3.053 -0.186,1.387 0.555,5.643 1.109,6.567 0.556,0.925 0.556,1.48 1.068,2.497 0.513,1.018 0.135,1.388 0.042,2.312 -0.093,0.925 -0.093,2.498 0.647,3.238 0.74,0.74 0,1.757 0,3.145 0,1.388 0.555,1.018 1.2,1.758 0.646,0.74 0.28,1.11 0.188,1.85 -0.093,0.74 -0.37,0.647 0,1.203 0.37,0.555 1.572,1.11 2.128,1.529 0.555,0.419 1.017,0.969 2.282,1.246 1.264,0.278 1.511,0.74 4.247,0.367 2.736,-0.374 2.444,-0.367 3.832,-1.014 1.388,-0.647 0.833,-0.647 3.237,-0.554 2.405,0.091 0.74,0.554 1.388,1.479 0.647,0.925 1.572,0.925 2.405,1.11 0.832,0.185 2.187,0.506 2.683,0.555 1.081,0.107 0.925,-1.295 1.295,-2.96 z"
   style="fill:#677821" />
					<path
   id="Scalpay__x2F__Sgalpaigh_3_"
   fill="#303B09"
   d="m 692.663,807.149 c -0.065,0.908 -0.092,2.016 0.556,2.294 0.648,0.278 0.74,0.462 0.74,0.74 0,0.277 0.462,0.647 0,0.739 -0.462,0.093 -1.753,-1.018 -1.339,0 0.414,1.018 1.195,1.387 1.544,1.48 0.35,0.092 0.534,0.462 0.997,0 0.462,-0.463 -0.37,-1.203 0.462,-0.463 0.833,0.741 -0.092,0.733 1.203,0.69 1.295,-0.043 1.109,0.814 1.942,0.016 0.832,-0.799 1.295,-0.058 1.479,-1.261 0.186,-1.202 -0.185,-1.017 -0.647,-2.128 -0.462,-1.109 0.556,-1.109 -0.925,-1.665 -1.48,-0.555 -1.942,0.038 -2.775,-0.443 -0.833,-0.481 -1.203,0.667 -1.757,0 -0.555,-0.665 -1.441,-0.536 -1.48,10e-4 z"
   style="fill:#677821" />
					<path
   id="Sandray__x2F__Sanndraigh_3_"
   fill="#303B09"
   d="m 580.275,1054.105 c 0.647,0.647 0.833,0.647 1.387,1.397 0.556,0.75 0.833,1.008 1.295,1.76 0.462,0.753 0.647,-0.104 0.366,-0.578 -0.281,-0.473 0.651,-0.082 1.114,-0.082 0.462,0 0.37,0.185 0.833,0 0.463,-0.185 0.185,-0.925 0.185,-1.48 0,-0.554 0.185,-0.74 0.462,-0.622 0.278,0.119 0.463,-0.118 0.926,0 0.462,0.119 -0.093,-0.95 -0.37,-1.228 -0.278,-0.277 -0.37,-0.555 -0.647,-1.284 -0.278,-0.728 -0.278,-0.566 -0.833,-1.42 -0.555,-0.854 -1.018,-0.626 -2.127,-0.719 -1.11,-0.093 -1.481,-0.463 -2.312,0 -0.833,0.462 -0.836,1.023 -0.925,1.665 -0.113,0.809 -10e-4,1.944 0.646,2.591 z"
   style="fill:#677821" />
					<path
   id="Ronay__x2F__Ronaigh_3_"
   fill="#303B09"
   d="m 624.578,901.295 c -0.082,0.321 -0.19,1.398 0,1.624 0.19,0.226 -0.18,0.573 0.467,0.908 0.647,0.336 -0.018,0.52 0.731,0.798 0.749,0.278 1.332,0.185 1.317,0.74 -0.014,0.555 -0.171,0.74 0,1.481 0.171,0.74 -0.178,0.925 0.69,1.572 0.868,0.647 0.684,1.017 1.423,0.555 0.74,-0.462 0.925,0.462 0.74,-0.462 -0.185,-0.925 0.226,-1.017 0.067,-1.388 -0.159,-0.37 -0.529,0.462 -0.159,-0.37 0.37,-0.833 0.74,-1.088 0.833,-1.516 0.093,-0.427 0.74,-0.704 0,-0.89 -0.74,-0.184 -0.463,-0.023 -0.463,-0.52 0,-0.497 -0.092,-0.672 0.278,-0.908 0.37,-0.236 1.203,-0.514 1.48,-0.514 0.277,0 0.647,0.555 0.925,-0.647 0.277,-1.202 1.203,-1.202 0,-1.295 -1.202,-0.092 -1.018,-0.647 -1.85,0 -0.833,0.648 0.37,0.648 -0.833,0.648 -1.202,0 -0.185,0.647 -1.202,0 -1.018,-0.648 -1.267,-0.62 -1.929,-0.957 -0.661,-0.338 -1.142,0.524 -1.317,0 -0.177,-0.522 -0.546,-0.985 -0.824,-0.708 -0.277,0.277 -0.832,0.555 0,1.11 0.833,0.555 0,-0.185 0.833,0.555 0.832,0.74 1.854,1.076 1.309,1.11 -1.494,0.092 -0.887,-0.278 -1.514,-0.371 -0.627,-0.092 -0.882,-1.022 -1.002,-0.555 z"
   style="fill:#677821" />
					<path
   id="Pabbay__x2F__Pabaigh_4_"
   fill="#303B09"
   d="m 619.958,836.823 c 0.92,-0.09 2.035,-0.278 2.405,-0.74 0.37,-0.462 2.184,-1.018 2.109,-1.295 -0.074,-0.277 -0.846,-0.925 0.003,-1.388 0.848,-0.462 2.103,-0.555 1.106,-1.48 -0.997,-0.925 -1.275,-1.017 -1.737,-1.757 -0.463,-0.741 -1.048,-0.741 -2.328,-0.833 -1.28,-0.092 -0.077,0.647 -1.557,0.74 -1.48,0.093 -1.11,-0.185 -2.22,0.555 -1.11,0.74 -2.128,0.278 -1.572,1.943 0.555,1.664 1.018,2.682 1.48,3.052 0.461,0.37 1.329,1.299 2.311,1.203 z"
   style="fill:#677821" />
					<path
   id="North_Uist__x2F__Uibhista_Tuath_3_"
   fill="#303B09"
   d="m 627.094,897.873 c 0.569,0.185 0.911,0.462 1.897,0.833 0.986,0.37 0.865,0.37 1.79,-0.185 0.925,-0.555 1.017,-0.462 2.035,-0.925 1.018,-0.463 0.278,-0.74 0.694,-2.025 0.417,-1.285 0.139,-0.565 0.786,-1.675 0.647,-1.11 0.277,-0.648 0.093,-2.127 -0.186,-1.48 -0.555,-1.11 -0.278,-1.85 0.278,-0.74 0.462,-0.462 0.833,-1.491 0.37,-1.028 -0.277,-0.544 -1.434,-0.914 -1.156,-0.369 -1.156,0.092 -2.267,0.277 -1.11,0.185 -1.11,0.37 -1.202,1.041 -0.093,0.671 -0.463,0.532 -1.05,0.439 -0.587,-0.093 -0.708,-0.648 -1.206,-0.843 -0.498,-0.196 -1.629,0.289 -3.206,0 -1.578,-0.289 -1.568,0.011 -2.4,0 -0.833,-0.011 -0.278,-0.452 -0.186,-1.099 0.093,-0.647 0,0 0.74,-0.821 0.74,-0.822 1.018,-0.103 1.845,-0.474 0.828,-0.37 1.485,0.462 3.206,0.474 1.722,0.011 0.498,-0.474 1.206,-0.566 0.708,-0.093 1.05,0.37 1.604,0.566 0.555,0.197 1.48,0.451 2.914,0 1.435,-0.451 0.786,-0.197 1.804,-0.566 1.018,-0.37 0.74,-0.832 1.48,-1.758 0.74,-0.926 0.37,-1.017 0.648,-2.404 0.278,-1.388 0.462,-1.296 1.295,-3.238 0.833,-1.943 -0.185,-0.74 -0.925,-1.387 -0.74,-0.647 -1.109,-0.186 -1.942,0 -0.832,0.185 -0.555,0.925 -1.202,1.109 -0.648,0.185 -1.388,0.463 -2.405,0.463 -1.018,0 -0.647,-0.37 -0.647,-1.48 0,-1.11 0.185,-1.018 -0.277,-1.675 -0.463,-0.657 -0.185,-0.823 -0.277,-1.563 -0.093,-0.74 0.555,-0.277 0.37,-1.295 -0.186,-1.018 -0.74,-0.462 -2.438,-0.74 -1.697,-0.278 -2.28,-0.462 -3.214,-1.203 -0.934,-0.739 -0.269,-0.739 0.841,-1.202 1.11,-0.463 0.555,-0.925 0.477,-1.665 -0.078,-0.74 -1.586,-0.278 -2.516,-0.463 -0.93,-0.184 -0.55,-0.277 -0.106,-1.295 0.444,-1.017 0.666,-0.277 1.684,-0.37 1.017,-0.092 1.479,-0.185 2.835,-0.092 1.355,0.092 0.957,0.555 0.772,1.109 -0.186,0.555 0.37,1.11 1.295,1.48 0.925,0.371 1.387,0.833 2.451,1.018 1.064,0.185 1.156,0.185 1.619,-0.647 0.462,-0.834 0.74,-0.556 1.573,-0.556 0.832,0 0,0 0.37,0.37 0.37,0.37 -0.37,0.555 -0.833,0.833 -0.462,0.278 -1.018,0.37 -1.202,1.11 -0.185,0.74 0,0 0.185,1.11 0.185,1.11 0,0 -0.648,0.74 -0.647,0.74 0.185,1.295 1.573,1.573 1.387,0.277 0.277,-0.925 1.017,-0.833 0.74,0.093 0.556,0.925 2.405,0.925 1.85,0 0,0 0.463,-1.018 0.462,-1.017 0.277,-1.387 0.925,-2.127 0.648,-0.739 0.832,-1.202 1.388,-2.405 0.555,-1.202 1.109,-1.387 1.572,-2.59 0.462,-1.202 -0.555,-1.018 -1.481,-1.572 -0.925,-0.555 -1.018,0 -1.942,0 -0.924,0 -0.462,-0.371 -0.555,-1.018 -0.093,-0.647 -0.647,-1.017 -0.925,-1.665 -0.278,-0.648 -0.925,-0.833 -1.573,-1.295 -0.648,-0.463 -0.74,0 -1.203,0.647 -0.462,0.648 0.185,0.925 0.463,1.572 0.277,0.647 0.462,0.37 0,0.925 -0.463,0.555 -1.203,-0.278 -1.665,-0.278 -0.463,0 -0.463,-0.462 -0.278,-0.925 0.185,-0.462 0.092,-0.74 0.555,-1.48 0.462,-0.74 0.093,-0.832 -1.388,-0.647 -1.48,0.185 -0.462,0.832 -0.925,1.757 -0.463,0.925 -0.463,1.018 -1.625,1.11 -1.162,0.092 -0.781,-0.277 -1.521,0.092 -0.74,0.37 -0.555,0.462 -1.665,0.648 -1.11,0.185 -0.925,-0.185 -1.096,-1.017 -0.171,-0.833 -0.384,-1.018 0.69,-1.11 1.074,-0.093 1.516,0 2.626,-0.093 1.11,-0.092 -0.37,-0.555 -0.925,-1.387 -0.555,-0.833 0.278,-0.555 1.11,-0.833 0.833,-0.277 0.833,-0.185 0.74,-1.665 -0.093,-1.48 -0.555,-0.925 -1.11,-1.11 -0.555,-0.185 -0.37,-0.925 -1.234,-1.572 -0.864,-0.648 -1.17,-0.555 -1.897,-1.388 -0.726,-0.832 0.357,-0.74 0.69,-1.573 0.334,-0.832 -0.889,0 -2.008,0 -1.119,0 -0.731,1.018 -0.824,1.758 -0.092,0.74 -1.109,0.092 -2.127,0 -1.018,-0.093 -0.647,1.387 -1.454,1.757 -0.807,0.37 -1.229,1.018 -1.784,2.035 -0.555,1.018 -1.295,1.388 -2.018,1.665 -0.723,0.278 -1.498,0.37 -2.052,0.925 -0.555,0.555 0.185,0.925 0.519,1.387 0.334,0.463 1.331,0.555 1.054,1.481 -0.277,0.925 0,0 -1.295,0.092 -1.295,0.092 0,0 -0.74,0 -0.74,0 -0.74,0 -1.062,0.555 -0.321,0.555 0.137,1.202 0,1.573 -0.137,0.37 -0.696,-0.648 -0.696,-1.203 0,-0.555 -0.555,-0.833 -0.74,-1.203 -0.186,-0.37 -0.463,-0.185 -1.018,0.185 -0.555,0.371 -0.648,-0.093 -1.203,-0.925 -0.555,-0.833 0,0 -0.647,-0.462 -0.648,-0.462 -0.925,0 -2.127,-0.648 -1.203,-0.647 0,0 0.37,-1.295 0.37,-1.295 0.462,-0.74 1.665,-0.833 1.202,-0.092 0,0 0,0.648 0,0.647 0.185,0.555 0.832,0.37 0.647,-0.185 0,0 0,-0.74 0,-0.74 -0.092,-0.925 -0.74,-1.665 -0.648,-0.74 -0.092,-0.833 0.185,-2.22 0.277,-1.387 0,0 1.202,-0.185 1.203,-0.185 0,0 0.048,-1.388 0.048,-1.388 -0.326,-0.555 -1.436,-0.925 -1.11,-0.37 -0.648,0.555 -1.018,1.294 -0.37,0.741 0,0 -0.462,0.648 -0.463,0.648 -0.832,0.833 -1.85,1.758 -1.017,0.925 0.277,0.462 0.647,1.109 0.37,0.648 -0.185,1.203 -0.647,1.943 -0.461,0.74 -1.388,0.647 -2.221,1.203 -0.832,0.555 -1.295,0.37 -2.199,1.11 -0.904,0.739 -0.483,0.647 0.854,1.479 1.337,0.833 -0.042,0.926 -0.754,1.48 -0.711,0.556 0.156,0.556 -0.422,1.665 -0.578,1.11 -0.717,1.11 -1.364,0.926 -0.647,-0.185 -1.295,-0.741 -2.197,-0.926 -0.902,-0.185 -0.763,-0.462 -1.387,-1.018 -0.623,-0.555 -0.764,-0.555 -1.119,-1.295 -0.355,-0.739 -0.107,-0.555 -0.939,-0.833 -0.832,-0.277 -1.388,-0.647 -1.567,-1.294 -0.179,-0.647 -0.19,-0.925 -0.838,-1.572 -0.648,-0.648 -1.203,-0.186 -1.842,0 -0.64,0.184 -1.58,0.369 -2.783,0.554 -1.203,0.185 -1.573,0.74 -1.295,1.388 0.278,0.647 0.463,0.739 -0.185,1.294 -0.648,0.555 0,1.11 -0.277,1.757 -0.278,0.647 -0.833,1.11 -0.833,1.943 0,0.832 0,0.739 -0.462,1.849 -0.463,1.11 -0.648,0.37 -1.295,1.203 -0.647,0.833 -0.555,0 -1.387,0 -0.833,0 -0.185,0.555 1.018,1.48 1.202,0.925 0,0 -0.278,0.925 -0.278,0.925 -0.092,1.11 -0.37,1.758 -0.278,0.648 -0.37,0.74 -1.665,0.462 -1.295,-0.278 0,0 -0.556,-0.648 -0.555,-0.648 -0.74,-0.185 -1.295,0.555 -0.555,0.74 -0.555,1.017 0,1.387 0.555,0.37 1.11,0 2.128,0.555 1.018,0.555 -0.093,1.295 0,1.85 0.092,0.555 0.925,0.186 2.128,0.093 1.203,-0.093 0.74,0.74 1.48,1.388 0.74,0.648 0.833,0.555 1.217,0 0.385,-0.555 0.263,-0.74 0.038,-1.851 -0.225,-1.109 0.595,-0.277 1.242,0 0.648,0.278 0.648,0.37 0.37,1.464 -0.277,1.094 -1.018,0.664 -1.479,1.311 -0.463,0.647 0.37,0.925 1.202,1.295 0.833,0.371 0.277,1.388 0.833,1.85 0.555,0.462 1.665,0.556 2.505,0.74 0.84,0.185 0.64,-0.184 1.194,-0.74 0.556,-0.556 1.018,-0.277 1.486,-1.109 0.468,-0.833 1.197,-1.017 1.475,-1.85 0.277,-0.832 -0.833,-0.925 0,-1.387 0.833,-0.462 0.74,0.648 1.573,1.48 0.832,0.833 0.37,-0.37 1.109,0 0.74,0.37 -0.092,0.555 -0.531,1.203 -0.438,0.647 0.717,1.295 1.387,1.664 0.67,0.369 1.734,0.74 2.751,0.926 1.018,0.185 2.128,1.757 2.84,2.351 0.712,0.593 1.601,0.424 2.433,0.147 0.833,-0.277 2.127,-0.092 3.052,0 0.925,0.093 0.37,0.463 0.093,0.822 -0.277,0.359 -1.203,0.104 -1.85,0 -0.648,-0.103 -1.203,0.289 -1.757,1.121 -0.555,0.833 0.092,0.462 0.74,0.925 0.648,0.462 0.185,1.11 0.832,2.128 0.647,1.018 0.74,-0.277 1.537,0 0.797,0.277 -0.334,1.018 0,1.572 0.335,0.555 0.313,0.277 0.775,0.925 0.463,0.648 -0.185,0.556 -0.775,0.925 -0.59,0.37 -0.334,0.463 -0.52,1.665 -0.185,1.203 0.648,1.11 1.295,1.675 0.647,0.564 1.572,-0.288 2.317,-0.38 0.745,-0.092 0.088,-0.277 0.088,-0.925 0,-0.648 -0.463,-1.018 0.74,-0.739 1.203,0.277 0.925,0.647 2.035,0.753 1.11,0.106 1.481,-0.291 1.943,0 0.462,0.292 1.573,1.097 2.524,1.292 0.952,0.194 1.546,0.083 2.22,0 0.673,-0.083 -0.489,-0.842 0.194,-1.212 0.683,-0.37 0.797,0.648 0.89,1.212 0.092,0.564 1.388,-0.01 2.017,0 0.63,0.009 0.466,-0.92 0.48,-1.212 0.03,-0.556 1.574,-0.461 2.143,-0.276 z"
   style="fill:#677821" />
					<path
   id="Mingulay__x2F__Mùghlaigh_3_"
   fill="#303B09"
   d="m 564.643,1076.028 c 0,0 2.312,-0.463 2.867,-0.74 0.555,-0.277 1.481,-0.185 1.295,-1.388 -0.185,-1.202 -0.092,0.093 -0.185,-1.202 -0.093,-1.295 -0.045,-1.017 0.209,-1.85 0.253,-0.833 -0.161,-0.648 0,-1.665 0.161,-1.018 0.346,-0.926 0.623,-1.573 0.278,-0.648 0.186,-0.926 -0.74,-0.832 -0.925,0.092 -1.907,-0.186 -2.11,0.832 -0.203,1.018 -0.85,1.573 -1.498,1.573 -0.647,0 -1.757,-0.555 -1.757,0.462 0,1.018 0.648,0.908 0.462,1.749 -0.185,0.841 0,0.287 -0.462,1.304 -0.463,1.018 -0.555,0.833 -0.647,1.572 -0.093,0.74 -0.555,1.85 0,1.758 0.555,-0.093 1.129,0.173 1.943,0 z"
   style="fill:#677821" />
					<path
   id="Lewis_and_Harris__x2F__Leòdhais_agus_na_Hearadh_4_"
   fill="#303B09"
   d="m 674.763,723.463 c -0.503,0.063 -0.738,0.86 -1.203,1.052 -0.364,0.151 -1.34,0.018 -1.433,0.569 -0.093,0.554 -0.832,0.369 -1.479,0.924 -0.647,0.555 -0.093,0.647 -0.185,1.942 -0.092,1.295 0.092,1.018 -0.74,0.463 -0.833,-0.555 -0.463,-0.74 -1.388,-1.48 -0.925,-0.74 0,0 -0.37,1.11 -0.37,1.11 0.185,1.48 1.295,3.237 1.11,1.758 -0.555,0.74 -1.295,0.74 -0.74,0 -0.74,1.202 -0.74,0.833 0,-0.37 -0.092,-1.203 -0.185,-2.127 -0.093,-0.925 -0.37,-1.48 -0.833,-2.405 -0.462,-0.925 -1.11,-0.555 -1.943,-0.462 -0.832,0.092 -1.572,-0.092 -2.405,-0.277 -0.833,-0.185 -1.387,-0.648 -2.405,-1.573 -1.018,-0.925 -1.48,-1.202 -0.74,-1.018 0.74,0.186 0.833,-0.277 1.665,-1.295 0.833,-1.018 2.127,-0.277 3.792,-0.37 1.665,-0.092 0.37,-1.202 0.092,-2.59 -0.277,-1.388 -1.018,-0.554 -2.22,-0.37 -1.202,0.186 -1.85,-0.277 -1.85,-1.202 0,-0.924 -1.11,-1.11 -1.48,-1.666 -0.37,-0.555 -0.185,-0.832 -0.74,-1.48 -0.555,-0.648 -1.387,0.277 -1.387,1.48 0,1.202 -0.278,1.295 -0.647,1.758 -0.37,0.461 -1.48,-0.463 -2.22,-0.926 -0.74,-0.462 -1.018,-1.387 -1.665,-2.405 -0.647,-1.018 -1.202,-0.277 -2.312,-0.37 -1.11,-0.093 -0.462,-1.481 -1.202,-1.942 -0.74,-0.463 -1.481,0 -1.942,1.202 -0.463,1.203 -0.093,0.74 -1.11,1.203 -1.017,0.463 -0.185,0.647 -0.37,1.573 -0.185,0.925 -0.092,1.202 -0.092,2.035 0,0.833 -0.555,1.11 -0.185,2.406 0.37,1.294 -0.555,0.646 -0.832,1.85 -0.277,1.202 -0.185,1.85 1.11,2.127 1.295,0.278 0.925,0.463 1.48,0.833 0.555,0.37 0.925,-0.186 2.127,0 1.203,0.185 0.37,0.647 -0.185,0.925 -0.555,0.277 -0.463,0.185 -0.925,0.647 -0.463,0.462 -0.925,0.925 -1.665,1.295 -0.74,0.37 -0.278,-0.555 -0.555,-1.388 -0.278,-0.832 -0.833,-0.092 -1.203,0.37 -0.37,0.463 -1.202,0 -2.035,-0.37 -0.832,-0.37 -0.925,-0.925 -2.127,-1.018 -1.203,-0.092 -1.295,0.37 -1.851,0.925 -0.555,0.555 -0.37,1.203 -0.092,2.128 0.278,0.925 0.647,0.832 1.11,1.758 0.463,0.925 0.555,1.109 0.398,1.572 -0.158,0.463 -0.12,0.926 -0.476,1.573 -0.356,0.647 -0.106,0.926 -0.329,1.482 -0.223,0.554 -0.981,0 -1.628,0.739 -0.648,0.74 0.647,1.11 0.824,1.387 0.176,0.279 -1.008,0.74 -2.026,0.925 -1.018,0.185 -0.925,0.185 -1.283,1.573 -0.358,1.387 -0.197,2.22 0,3.33 0.196,1.109 2.116,1.85 2.208,2.127 0.093,0.277 0.648,2.22 1.101,3.053 0.454,0.833 0.194,1.296 0.379,2.22 0.185,0.925 0.185,2.591 0.425,4.092 0.24,1.503 0.407,1.459 0.805,2.198 0.397,0.74 2.562,1.48 3.573,1.295 1.011,-0.184 0.377,-0.925 1.217,-1.664 0.84,-0.74 1.01,-0.648 3.785,-1.48 2.775,-0.833 0,0 0.295,0.74 0.295,0.74 -0.202,0.648 -0.665,1.11 -0.462,0.463 -1.202,0.555 -2.472,1.111 -1.269,0.555 -0.488,0.37 -0.943,2.25 -0.455,1.88 1.102,0.339 2.858,0.224 1.756,-0.115 0.927,-0.439 1.759,0 0.832,0.439 -0.648,0.763 -1.759,0.578 -1.112,-0.185 -0.553,0.37 -1.915,0.833 -1.361,0.463 -1.043,0.37 -0.943,1.203 0.1,0.832 0.918,1.757 2.242,1.757 1.325,0 1.82,-0.462 3.208,-1.11 1.388,-0.647 1.665,-0.555 3.607,-1.48 1.942,-0.925 1.018,-0.832 3.978,-0.832 2.96,0 1.665,-0.462 3.515,-0.74 1.851,-0.278 1.758,-0.278 3.238,0 1.48,0.277 0.185,0.74 -0.462,0.917 -0.647,0.176 -1.942,0.101 -2.683,0.008 -0.74,-0.093 -1.665,0.647 -2.035,0.647 -0.37,0 -1.295,0.648 -1.85,1.627 -0.555,0.98 -1.758,-0.055 -2.59,0.131 -0.833,0.185 -1.481,-0.37 -2.128,0 -0.648,0.37 -1.758,0.74 -2.968,1.017 -1.211,0.278 -1.75,1.203 -2.214,1.665 -0.464,0.462 -1.293,1.387 -1.915,2.463 -0.621,1.075 0.159,1.885 -0.943,2.625 -1.102,0.74 -0.655,-0.74 -1.217,-1.665 -0.562,-0.926 -0.825,-1.203 -2.095,-0.74 -1.27,0.462 -0.581,0.833 -0.581,1.758 0,0.925 -0.555,1.202 -0.897,2.312 -0.343,1.11 -0.952,0.37 -1.609,0.741 -0.657,0.369 -1.101,1.109 -1.008,2.219 0.092,1.11 1.48,1.203 2.141,-0.369 0.661,-1.573 0.634,-0.278 1.374,0 0.74,0.277 0.647,1.294 0.844,2.034 0.195,0.74 -0.011,2.22 0.494,3.749 0.505,1.53 1.16,0.321 2.378,0.043 1.219,-0.277 0.817,0.833 1.927,1.943 1.11,1.109 0.833,1.018 2.683,0.838 1.85,-0.178 2.405,0.272 3.607,0.087 1.203,-0.185 0.833,-0.093 2.128,0.462 1.295,0.556 1.665,0.37 2.96,0.925 1.295,0.555 2.404,0.74 3.515,1.479 1.11,0.74 0.833,0.186 1.572,1.203 0.74,1.018 0.556,-0.277 1.388,-1.017 0.833,-0.741 0.555,-0.926 1.48,-0.556 0.925,0.37 -0.556,0.926 -1.388,1.758 -0.833,0.832 -0.185,0.741 0.832,1.017 1.018,0.277 1.48,0.462 2.59,0.555 1.11,0.092 0.832,0.555 2.035,1.018 1.203,0.462 1.758,-0.185 3.146,0 1.387,0.185 0.37,0.739 -0.555,1.294 -0.925,0.555 -1.203,-0.092 -2.22,0.463 -1.018,0.555 0.74,0.741 1.295,1.666 0.555,0.924 1.295,1.202 2.405,1.775 1.11,0.572 2.127,1.462 1.85,1.925 -0.278,0.462 -1.018,-0.37 -2.405,-0.556 -1.388,-0.185 0,0.463 -1.481,0.463 -1.479,0 -2.035,0.277 -2.867,-0.185 -0.833,-0.462 -0.925,-1.018 -2.312,-1.11 -1.388,-0.093 -1.018,-0.185 -3.237,-0.463 -2.221,-0.277 -1.203,0.278 -1.758,0.647 -0.555,0.371 -0.74,0.74 -2.405,1.295 -1.665,0.555 0,1.387 -1.387,2.035 -1.387,0.647 -0.462,1.295 0.74,2.035 1.203,0.74 1.295,0.74 2.868,1.665 1.573,0.925 1.573,1.202 2.96,1.854 1.387,0.652 -0.185,0.829 -1.017,1.106 -0.833,0.277 -1.203,-0.277 -2.128,-0.895 -0.925,-0.617 -1.48,0.34 -2.497,0.062 -1.018,-0.278 -0.648,0.462 -1.851,0.596 -1.202,0.133 -1.572,0.699 -2.405,0.699 -0.833,0 -0.555,-0.925 -1.573,-0.648 -1.018,0.278 0.093,1.665 -0.462,2.498 -0.556,0.832 -0.74,1.851 -1.791,2.867 -1.051,1.017 -0.521,1.11 -0.992,2.128 -0.471,1.018 -1.935,0.647 -2.83,1.051 -0.896,0.403 -1.417,2.002 -2.419,2.464 -1.001,0.463 -1.496,0.186 -1.348,1.018 0.148,0.833 -0.056,1.388 -1.03,1.573 -0.975,0.185 -0.135,-1.018 0,-1.943 0.136,-0.925 -0.135,-1.295 -0.167,-2.613 -0.032,-1.318 -1.356,-1.549 -2.545,-2.012 -1.189,-0.462 -1.771,-0.369 -2.326,0 -0.555,0.37 -1.48,0.556 -1.943,1.514 -0.462,0.959 0.093,2.742 0.592,4.037 0.499,1.295 2.091,1.757 3.677,2.405 1.586,0.647 1.189,0.555 1.955,1.295 0.766,0.74 0.622,0.648 0.757,1.481 0.136,0.832 0.513,1.48 1.03,2.59 0.519,1.111 0.777,1.572 2.468,2.155 1.691,0.583 0.622,0.805 1.299,1.916 0.677,1.109 0.988,0.37 1.838,-0.37 0.85,-0.74 0.63,-1.11 1.984,-1.481 1.354,-0.37 -0.244,0.925 -0.992,1.573 -0.748,0.647 0.008,0.74 -0.455,1.943 -0.462,1.202 0.74,1.48 1.447,2.497 0.706,1.018 0.588,0.37 1.235,1.264 0.648,0.895 0.556,1.048 1.665,1.233 1.11,0.185 0.37,0.462 0.833,1.545 0.462,1.081 -0.37,0.398 0,0.953 0.37,0.555 1.665,1.797 1.665,1.797 0,0 0.462,0.052 0.37,-0.461 -0.093,-0.513 -0.556,-0.966 -0.463,-2.289 0.093,-1.323 0.37,-0.527 1.018,-0.275 0.648,0.253 1.11,0.303 2.775,0 1.665,-0.302 0.648,-1.362 1.018,-3.212 0.37,-1.85 0.278,-0.833 1.85,-1.48 1.572,-0.647 1.757,-0.37 2.96,-1.48 1.202,-1.11 -0.463,-0.648 -1.11,-1.479 -0.647,-0.833 -0.277,-0.925 0.37,-1.309 0.648,-0.382 0.833,0.013 1.85,0.384 1.018,0.369 1.295,0.647 2.405,0 1.11,-0.648 -0.37,-1.943 -0.925,-3.146 -0.555,-1.202 0.093,-1.387 0.925,-1.757 0.833,-0.37 0.74,0.463 2.035,0.185 1.295,-0.277 0,-0.74 -0.555,-1.295 -0.555,-0.555 -0.093,-0.925 -0.186,-1.481 -0.092,-0.555 0.833,-1.572 1.851,-1.85 1.018,-0.277 -0.093,1.942 0.185,2.59 0.277,0.647 0.925,-0.185 1.295,-1.109 0.37,-0.926 -0.185,-2.221 -0.277,-3.886 -0.092,-1.665 -0.555,-1.572 -0.277,-2.497 0.277,-0.925 0.925,1.295 1.85,2.497 0.925,1.203 0.278,3.146 1.11,3.793 0.833,0.648 1.202,0.185 1.665,-1.11 0.462,-1.295 0.925,0.277 2.035,0.647 1.11,0.37 0,0 0.463,-1.295 0.463,-1.295 -0.186,-1.202 0,-2.128 0.185,-0.925 -0.278,-1.665 0.555,-2.405 0.832,-0.74 1.665,1.202 2.774,1.572 1.11,0.37 2.128,0.462 2.96,0 0.833,-0.462 0.463,-3.33 0,-4.718 -0.462,-1.387 -1.109,-0.74 -1.757,-1.479 -0.648,-0.74 -0.556,-2.035 -0.925,-3.33 -0.37,-1.295 -2.127,-1.018 -3.422,-1.11 -1.295,-0.092 -1.942,-1.018 -2.312,-2.683 -0.37,-1.665 -0.185,-1.202 0.462,-1.665 0.648,-0.462 0.833,0.74 1.851,0.833 1.018,0.092 0.185,-0.648 -0.277,-1.943 -0.463,-1.295 -0.37,-0.741 -0.463,-2.128 -0.093,-1.387 1.388,-0.092 2.775,-0.277 1.387,-0.185 1.202,0.093 1.942,0.74 0.74,0.648 1.018,0.74 1.665,1.572 0.648,0.833 1.479,0.462 2.774,0.74 1.295,0.277 2.312,1.202 3.978,1.296 1.665,0.092 3.977,-0.556 4.81,-1.296 0.832,-0.74 -0.463,-0.925 -0.925,-2.405 -0.462,-1.48 -0.925,-1.295 -1.665,-1.757 -0.74,-0.462 -1.48,-1.11 -2.682,-2.683 -1.203,-1.572 0.555,-0.74 2.497,-1.203 1.942,-0.462 0.555,-0.647 0.37,-2.405 -0.185,-1.757 -0.37,-1.295 -2.22,-3.608 -1.851,-2.312 -1.018,-1.572 -2.22,-2.682 -1.203,-1.11 -1.665,0.277 -2.498,0 -0.833,-0.278 -0.647,-0.926 0.185,-1.758 0.832,-0.833 0.647,-0.463 0.925,-1.48 0.277,-1.018 0,-0.925 -0.833,-2.96 -0.832,-2.035 -0.648,-1.757 -1.757,-4.07 -1.11,-2.312 -0.462,-1.11 -0.833,-3.145 -0.37,-2.035 0.74,-1.109 1.942,-1.757 1.203,-0.648 1.295,-1.295 1.85,-1.85 0.555,-0.554 1.665,-1.479 2.498,-2.682 0.833,-1.202 1.758,-2.497 2.96,-2.867 1.203,-0.37 0.833,-0.185 0.555,0.185 -0.277,0.37 -1.295,1.48 -1.757,2.312 -0.463,0.833 0,0.463 -0.278,0.647 -0.278,0.186 -0.833,0.833 -1.387,1.203 -0.555,0.37 -1.203,0.833 -1.573,2.221 -0.37,1.387 0.37,1.572 0.74,2.774 0.37,1.204 0,2.775 0,2.775 0,0 -0.462,1.203 -0.555,2.59 0,0 -0.093,1.851 0.833,3.515 0.925,1.665 0.74,1.573 1.573,2.128 0.832,0.555 0.37,1.11 0.925,2.683 0.555,1.572 1.018,2.405 1.665,3.516 0.647,1.109 0.555,1.202 0.925,2.034 0.37,0.833 1.018,1.388 1.758,1.942 0.74,0.556 1.387,0.371 1.479,-0.37 0.093,-0.74 0.647,0 1.11,-0.185 0.462,-0.185 0.648,0.093 1.018,1.017 0.37,0.925 0.74,0.093 2.405,0.371 1.665,0.277 -0.37,-1.111 -0.462,-2.312 -0.093,-1.204 -0.648,-0.741 -1.203,-1.851 -0.555,-1.109 -0.462,-0.925 -1.184,-1.85 -0.722,-0.925 0.074,-0.925 -0.943,-2.867 -1.018,-1.943 -1.018,-1.48 0.093,-2.035 1.109,-0.555 1.202,1.295 2.127,2.128 0.925,0.832 1.665,1.017 1.665,1.017 0,0 -0.555,1.017 -0.277,2.498 0.277,1.479 1.48,1.572 1.572,1.942 0.093,0.37 0.37,1.018 0.648,1.85 0.278,0.833 0.647,1.481 1.018,1.85 0.37,0.37 0.647,-0.37 1.388,-1.11 0.74,-0.74 0.37,0.647 0.555,0.925 0.186,0.278 0.556,0 1.943,-0.646 1.387,-0.648 1.573,0 2.405,-1.111 0.833,-1.11 0.093,-1.017 -0.37,-2.867 -0.462,-1.85 -0.648,-1.018 -1.109,-2.313 -0.463,-1.295 -0.186,-0.74 0.74,-1.295 0.925,-0.555 0.462,1.48 0.74,1.942 0.277,0.463 1.11,0.556 1.11,1.481 0,0.925 0.74,1.11 2.128,1.388 1.387,0.277 1.387,-0.741 2.405,-2.869 1.018,-2.126 0.925,0.556 2.775,0.37 1.85,-0.185 0.925,0 1.387,-1.479 0.462,-1.481 0.555,-1.573 0.833,-3.516 0.277,-1.942 0.925,-0.092 1.202,-1.572 0.278,-1.48 0.093,-1.202 -0.462,-3.515 -0.556,-2.312 -0.185,-1.203 -0.093,-3.238 0.093,-2.035 -0.833,-1.665 -2.775,-2.59 -1.943,-0.925 -1.203,0.278 -3.052,0.462 -1.851,0.185 -2.035,0.371 -4.625,0 -2.59,-0.37 -1.943,0 -3.516,-0.554 -1.572,-0.556 0.556,-0.556 2.312,-1.111 1.758,-0.555 1.203,-0.833 2.775,-0.648 1.572,0.186 1.202,0.277 3.515,-0.37 2.312,-0.648 1.388,-0.278 3.053,-0.093 1.665,0.186 0.833,-0.74 1.388,-1.573 0.555,-0.832 1.572,1.666 2.683,2.128 1.109,0.462 1.387,0.648 2.774,0.277 1.388,-0.37 0.833,0.092 2.498,0.371 1.665,0.277 0.462,1.665 1.942,1.757 1.48,0.093 0.277,-0.462 1.202,-2.867 0.925,-2.406 1.203,-1.388 2.035,-3.146 0.833,-1.757 0.74,-2.035 1.203,-3.977 0.462,-1.943 -0.74,-0.648 -2.035,-1.018 -1.295,-0.37 -3.237,0.092 -4.995,-0.463 -1.758,-0.555 0.647,-0.277 1.942,-0.74 1.295,-0.462 1.85,0 2.775,-0.555 0.925,-0.555 0.37,-0.74 1.017,-2.405 0.648,-1.665 -0.185,-1.017 -1.109,-1.942 -0.925,-0.925 0.185,-0.647 0.739,-1.757 0.556,-1.11 -0.092,-0.832 -0.925,-0.925 -0.832,-0.092 -0.185,-0.555 -0.185,-2.035 0,-1.48 -0.463,-0.462 -1.11,-0.74 -0.648,-0.277 -0.648,-0.37 -0.185,-1.11 0.462,-0.74 0.185,-0.647 -0.37,-1.388 -0.555,-0.74 0,0 -0.925,-1.202 -0.925,-1.203 0,0 0.092,-1.018 0.092,-1.018 0,-0.462 -2.22,-0.37 -2.22,0.093 -0.648,0.555 -1.48,1.295 -0.832,0.74 -1.202,1.018 -1.387,2.312 -0.186,1.295 0,0 0,0 0,0 0,0 -1.573,0.277 -1.572,0.278 -1.109,-0.277 -3.052,-0.185 -1.942,0.093 -3.7,-0.185 -5.458,0 -1.757,0.185 -1.017,0.741 -1.665,1.295 -0.647,0.555 -2.867,0.371 -3.885,0.555 -1.018,0.185 -1.48,0.278 -2.867,0.556 -1.388,0.278 -0.555,-0.925 0.462,-1.295 1.017,-0.37 1.387,-0.556 2.22,-0.74 0.832,-0.185 2.22,-0.647 3.237,-1.11 1.018,-0.463 1.388,-0.554 2.775,-0.832 1.387,-0.278 2.775,-0.647 3.7,-0.74 0.925,-0.093 2.868,-0.647 3.423,-0.832 0.555,-0.185 0.74,-1.11 1.018,-2.22 0.277,-1.11 1.202,-0.463 2.497,-1.387 1.295,-0.925 0.278,-0.462 -0.185,-1.48 -0.463,-1.018 -0.647,-0.371 -1.573,-0.555 -0.925,-0.185 -1.48,0 -2.22,-0.092 -0.74,-0.093 -0.925,-0.555 -1.479,-1.11 -0.555,-0.555 -0.186,-1.017 0.555,-1.11 0.74,-0.092 1.572,0.74 2.405,0.74 0.832,0 2.127,1.203 2.96,1.203 0.832,0 1.757,-0.093 3.053,-0.278 1.295,-0.185 2.22,0.555 3.237,0.37 1.018,-0.185 0.925,-0.37 1.572,-2.127 0.648,-1.757 0,-0.463 -0.832,-0.925 -0.833,-0.462 -0.462,-0.276 -1.665,-0.462 -1.203,-0.185 -1.758,0.74 -2.96,0.925 -1.203,0.186 -0.462,-0.555 0.37,-0.832 0.832,-0.278 1.573,-1.018 3.7,-1.387 2.128,-0.371 0.648,-0.186 0.833,-2.22 0.185,-2.035 0,-1.295 -0.37,-2.775 -0.37,-1.481 -0.37,-1.666 -0.74,-3.146 -0.37,-1.48 0.185,-0.925 0.555,-2.497 0.37,-1.572 -0.278,-0.462 -1.48,-0.555 -1.203,-0.093 -0.74,-0.74 -1.203,-2.775 -0.462,-2.035 0.648,-0.462 1.665,0.093 1.018,0.555 0.833,0.74 1.757,-0.093 0.925,-0.832 1.018,0.093 1.11,0.74 0.092,0.648 -0.093,1.203 0.648,2.59 0.74,1.388 1.202,0.555 2.775,-0.185 1.573,-0.74 0.74,-1.573 1.573,-2.683 0.832,-1.11 1.665,-0.925 3.145,-0.37 1.48,0.555 1.295,0.647 2.683,1.573 1.388,0.925 0.463,1.665 1.85,2.312 1.387,0.647 0.925,1.203 2.22,1.942 1.295,0.74 1.387,-0.37 3.422,-1.757 2.035,-1.387 1.942,-0.833 2.775,-2.59 0.833,-1.757 0.925,-0.462 2.035,-1.665 1.11,-1.203 1.479,-0.647 2.683,-1.85 1.202,-1.202 0.925,-1.388 1.85,-3.053 0.925,-1.665 -0.555,-0.832 -0.093,-2.682 0.463,-1.85 0.463,-0.462 1.48,-1.48 1.018,-1.018 -0.463,-0.555 -0.647,-2.312 -0.185,-1.758 0.74,-0.463 1.85,-1.203 1.11,-0.74 0.093,-0.463 0,-2.035 -0.092,-1.573 -0.74,-0.37 -2.22,-0.555 -1.481,-0.185 -1.202,-0.37 -2.128,0.648 -0.925,1.017 -0.647,1.295 -1.943,1.479 -1.295,0.185 -1.387,0.185 -2.22,1.295 -0.833,1.11 -1.388,2.035 -2.22,2.775 -0.833,0.74 -1.018,1.295 -1.758,2.59 -0.74,1.294 -1.11,1.109 -3.053,1.479 -1.942,0.371 -1.295,1.018 -2.127,1.851 -0.833,0.832 -2.22,1.109 -3.793,1.387 -1.572,0.278 -0.925,-0.555 -2.035,-1.387 -1.11,-0.833 -0.833,-1.018 -2.312,-1.758 -1.48,-0.74 -1.943,-0.093 -3.792,-0.093 -1.851,0 -0.925,-0.185 -1.11,-0.925 -0.185,-0.74 -0.277,-0.462 0.277,-1.942 0.556,-1.48 1.295,-0.833 2.405,-0.833 1.11,0 2.22,-0.185 3.145,-2.035 0.925,-1.851 0.092,-0.833 -0.648,-1.758 -0.74,-0.925 -0.185,-1.202 -0.092,-2.775 0.092,-1.572 0.648,-1.018 2.404,-1.295 1.758,-0.277 2.035,0 3.238,-0.74 1.202,-0.74 0.74,-0.463 0.37,-3.238 -0.37,-2.775 0,-1.387 1.479,-2.404 1.481,-1.017 1.665,-0.278 3.793,-1.573 2.127,-1.296 0.555,-1.11 0.462,-2.775 -0.093,-1.664 0.37,-0.925 1.11,-2.128 0.74,-1.202 1.11,-0.185 2.22,-1.85 1.11,-1.665 1.388,-1.481 1.85,-2.683 0.462,-1.203 1.295,-1.203 2.405,-1.572 1.11,-0.37 1.665,-0.37 2.498,-1.018 0.832,-0.648 -0.555,-0.648 -1.203,-1.018 -0.648,-0.37 -1.11,-0.833 -2.128,-0.647 -1.018,0.184 -1.018,-0.833 -2.405,-1.943 -1.388,-1.11 -0.832,-2.22 -0.74,-3.515 0.093,-1.295 0.463,-1.665 1.665,-4.163 1.203,-2.497 0.833,-2.035 1.942,-4.625 1.11,-2.59 1.203,-2.035 1.851,-3.237 0.648,-1.203 0.555,-2.312 0,-3.793 -0.555,-1.478 -1.018,-1.202 -2.128,-1.757 -1.109,-0.555 -0.555,-2.312 -0.37,-3.699 0.185,-1.388 0.647,-1.295 1.387,-2.683 0.74,-1.388 -0.555,-1.018 -1.757,-2.22 -1.203,-1.203 -1.018,-1.48 -1.295,-2.22 -0.278,-0.74 -1.943,-0.74 -2.775,-1.757 -0.833,-1.018 0.462,-0.925 0,-1.943 -0.463,-1.018 -1.203,-1.942 -2.59,-2.312 -1.388,-0.369 -0.925,-1.203 -2.59,-2.035 -1.665,-0.833 -1.665,0.093 -2.22,1.295 -0.555,1.203 0,0 0,1.203 0,1.202 0.37,1.85 0,2.682 -0.37,0.833 -2.127,1.942 -3.237,2.867 -1.11,0.925 -1.572,1.11 -3.053,1.203 -1.479,0.092 -1.018,0.925 -2.127,2.497 -1.11,1.572 -1.295,1.85 -2.868,2.683 -1.572,0.833 -1.202,0.277 -2.035,1.11 -0.832,0.832 -1.479,1.017 -3.052,1.664 -1.573,0.648 -2.405,1.573 -3.607,2.405 -1.203,0.833 -2.035,1.573 -2.591,3.053 -0.555,1.48 -1.664,1.666 -2.682,2.682 -1.018,1.018 -1.758,1.018 -2.868,1.573 -1.109,0.555 -1.387,2.035 -2.22,2.498 -0.832,0.462 -1.48,0.462 -2.405,0.74 -0.925,0.277 -1.109,2.22 -1.387,2.961 -0.277,0.739 -1.48,3.237 -2.035,4.625 -0.555,1.387 -1.203,0.647 -1.851,0.555 -0.648,-0.093 -2.405,0.74 -3.792,1.296 -1.388,0.554 -1.665,1.85 -2.22,2.496 -0.555,0.648 -2.59,1.018 -3.978,0.833 -1.387,-0.185 -1.387,-0.462 -2.405,-1.295 -1.018,-0.833 -1.203,0.462 -2.497,1.295 -1.295,0.832 0.277,1.202 0,2.127 -0.278,0.925 -0.648,0.463 -1.665,1.028 -1.018,0.565 -1.295,0.267 -2.22,0.082 -0.925,-0.185 -0.647,-0.093 -2.021,0.648 -1.375,0.74 -1.031,1.295 -2.048,2.312 -1.018,1.018 -2.22,3.885 -2.59,3.752 -0.37,-0.134 -1.202,0.78 -2.312,0.226 -1.109,-0.554 -0.555,0.092 -1.85,0.009 -1.295,-0.083 -0.647,0.453 -1.665,0.175 -1.018,-0.278 -0.277,-0.185 -1.48,0 -1.202,0.185 -0.462,0.74 0,2.127 0.463,1.388 -0.092,1.388 -0.555,2.128 -0.462,0.74 -0.925,0.278 -1.665,0.647 -0.74,0.371 -1.11,0.925 -1.018,2.195 0.093,1.27 1.11,0.026 2.498,0.21 1.387,0.186 2.774,-0.555 3.33,0 0.555,0.555 -1.203,0.648 -2.22,1.295 -1.017,0.648 -2.035,0.648 -2.22,2.128 -0.185,1.48 0.37,0.925 0.74,2.405 0.37,1.479 0.462,0.554 1.109,1.202 0.648,0.648 0.648,1.202 0.833,2.498 0.185,1.294 0.833,1.202 2.035,1.757 1.202,0.555 1.387,1.11 2.035,2.128 0.648,1.018 0.37,1.387 0.74,1.942 0.37,0.555 0.925,0.37 2.128,1.387 1.202,1.018 -0.37,0.462 -1.48,0.648 -1.11,0.184 -0.278,0.832 -0.833,2.034 -0.555,1.203 0.37,1.11 1.388,1.665 1.018,0.555 1.757,0.832 3.052,1.017 1.295,0.185 0.832,0.37 1.665,1.203 0.833,0.832 -0.37,1.942 0.185,3.145 0.555,1.203 -0.093,1.111 -1.481,1.758 -1.387,0.647 -1.109,-0.925 -1.479,-2.405 -0.37,-1.479 -1.295,-2.497 -2.497,-2.96 -1.203,-0.462 -1.203,0.185 -2.22,0 -1.018,-0.185 -2.128,-1.202 -2.96,-1.85 -0.57,-0.443 -1.592,-0.587 -2.268,-0.777 -0.464,-0.131 -1.062,-0.17 -1.49,-0.361 -0.084,-0.038 -0.166,-0.098 -0.248,-0.166 -0.238,-0.194 -0.472,-0.446 -0.764,-0.41 z"
   style="fill:#677821" />
					<path
   id="Grimsay__x2F__Griomasaigh_3_"
   fill="#303B09"
   d="m 617.57,905.365 c 0.11,0.279 0.908,0.74 1.581,1.204 0.675,0.462 0.991,0.184 1.582,-0.371 0.591,-0.554 0.057,-0.647 0.832,-0.554 0.775,0.091 0.149,0.369 0.612,1.016 0.462,0.648 0.925,0.74 1.942,0.925 1.018,0.185 0.832,-0.092 1.46,-0.832 0.627,-0.74 -0.442,-0.647 -0.535,-1.571 -0.093,-0.925 -0.648,-0.741 -1.466,-1.389 -0.818,-0.648 -0.292,-0.185 -0.107,-0.874 0.185,-0.689 0.092,-0.606 0,-1.016 -0.093,-0.409 -0.463,-1.533 -1.295,-1.831 -0.833,-0.298 -0.925,0.668 -1.444,0.206 -0.519,-0.463 -0.776,0 -1.582,0 -0.806,0 -1.044,0.739 -2.339,0.647 -1.295,-0.093 -1.295,0.185 -1.295,0.647 0,0.462 0,0.925 0.519,1.346 0.519,0.421 0.221,0.874 0.776,0.874 0.002,10e-4 0.649,1.296 0.759,1.573 z"
   style="fill:#677821" />
					<path
   id="Great_Bernera__x2F__Beàrnaraigh_Mòr_3_"
   fill="#303B09"
   d="m 671.064,723.233 c 0,0 0.324,-0.046 1.804,0 1.48,0.046 2.174,0 2.729,-0.231 0.555,-0.232 1.203,-0.278 1.989,0 0.786,0.277 1.202,1.109 1.896,1.248 0.693,0.139 0.971,0.694 1.341,0 0.37,-0.694 0.509,-1.51 0.555,-2.351 0.046,-0.84 0.509,-1.164 0,-1.858 -0.509,-0.694 -0.37,-0.589 -1.249,-1.196 -0.879,-0.606 -1.295,-0.951 -1.804,-1.773 -0.509,-0.823 -0.047,-1.516 -1.156,-1.748 -1.11,-0.231 -1.156,0.04 -1.896,0.274 -0.74,0.234 -0.925,0.428 -1.249,-0.362 -0.323,-0.791 -0.555,-1.716 -0.555,-2.502 0,-0.786 0.185,-1.573 -0.463,-2.22 -0.647,-0.648 -1.85,-0.508 -2.774,-0.694 -0.925,-0.185 -1.804,-0.139 -2.683,0 -0.879,0.139 -1.249,-0.046 -1.249,0.925 0,0.971 0.602,1.295 0.555,2.081 -0.046,0.787 -0.324,1.248 0.277,1.619 0.601,0.37 0.718,-0.139 1.053,0.879 0.335,1.018 -0.035,1.09 0.427,1.748 0.463,0.657 0.416,-0.036 1.249,0.935 0.832,0.971 1.572,1.018 0.971,1.387 -0.601,0.37 -1.19,-0.508 -1.682,-0.046 -0.492,0.462 -0.908,-0.046 -0.399,1.203 0.509,1.248 1.11,2.127 1.295,2.22 0.186,0.092 0.417,0.482 1.018,0.462 z"
   style="fill:#677821" />
					<path
   id="Eriskay__x2F__Eirisgeigh_3_"
   fill="#303B09"
   d="m 611.633,1012.828 c 0,0 1.757,0.115 2.683,0 0.925,-0.115 0.74,-1.549 1.018,-2.731 0.277,-1.182 0,-0.67 0.185,-1.317 0.185,-0.647 0,-1.387 0,-2.405 0,-1.018 0.37,-0.74 0.832,-1.555 0.463,-0.816 0.463,-0.387 0.556,-1.22 0.092,-0.832 0,0 -0.556,-0.44 -0.555,-0.439 -0.74,0.254 -1.295,0.069 -0.555,-0.185 -0.925,0 -1.85,0.555 -0.925,0.555 -1.388,-0.092 -1.758,0 -0.37,0.092 -1.018,0.555 -1.42,1.812 -0.403,1.257 0.311,1.517 0.731,2.165 0.42,0.648 0.227,1.203 0.042,1.758 -0.14,0.421 0.091,1.318 0.372,1.85 0.09,0.171 0.208,0.28 0.275,0.37 0.275,0.372 0.185,1.089 0.185,1.089 z"
   style="fill:#677821" />
					<path
   id="Boreray__x2F__Boraraigh_3_"
   fill="#303B09"
   d="m 615.518,850.328 c 0.185,-0.463 -0.37,-0.833 -0.647,-1.815 -0.277,-0.984 0.462,-0.405 0.647,-1.238 0.185,-0.832 -0.925,-0.832 -2.185,-1.388 -1.261,-0.555 -1.33,0.463 -1.432,1.203 -0.103,0.74 -0.175,0.832 0,1.573 0.175,0.74 0.103,0.462 0.01,1.109 -0.093,0.648 0.462,0.833 1.087,1.296 0.624,0.462 1.144,0.157 1.873,0 0.814,-0.176 0.462,-0.277 0.647,-0.74 z"
   style="fill:#677821" />
					<path
   id="Berneray__x2F__Beárnaraigh_3_"
   fill="#303B09"
   d="m 624.578,850.595 c 0,0 2.78,-0.174 3.206,-0.544 0.427,-0.369 0.684,-0.741 0.605,-1.53 -0.078,-0.79 0.633,-0.321 1.558,-0.69 0.925,-0.37 -0.185,-0.462 -0.459,-1.387 -0.273,-0.925 -0.003,-0.37 0.829,-0.383 0.833,-0.012 0.74,0.475 1.758,1.031 1.018,0.555 0,0 0.092,-1.031 0.093,-1.029 0.093,-0.542 0.463,-1.097 0.37,-0.555 0.37,-1.018 0,-2.219 -0.37,-1.203 -1.018,-0.925 -2.498,-1.111 -1.48,-0.185 -1.757,-0.092 -2.859,0 -1.102,0.093 -1.766,0.74 -2.695,1.758 -0.93,1.018 -0.273,1.388 -0.643,2.338 -0.37,0.951 -0.555,1.64 -1.018,2.792 -0.462,1.153 -1.017,0.697 -1.352,1.53 -0.335,0.832 1.076,0.513 1.722,0.462 0.652,-0.052 1.291,0.081 1.291,0.081 z"
   style="fill:#677821" />
					<path
   id="Benbecula__x2F__Beinn_na_Faoghla_3_"
   fill="#303B09"
   d="m 603.215,902.96 c -0.832,0.093 -0.37,0.925 -0.832,2.035 -0.462,1.11 -0.925,1.018 -1.757,2.59 -0.833,1.573 -0.647,0.463 -1.48,0.278 -0.833,-0.186 -0.74,-0.093 -1.943,0.647 -1.202,0.74 0,0 0.093,1.665 0.093,1.665 0.37,0.647 0.833,1.295 0.462,0.648 -0.185,0.925 -0.833,1.11 -0.648,0.185 -0.37,0.092 0,1.757 0.37,1.665 0.37,0.463 1.48,1.388 1.11,0.925 0.37,1.388 0.647,3.423 0.278,2.035 0.092,1.202 1.665,1.109 1.573,-0.092 1.018,0.371 1.708,0.926 0.69,0.555 1.53,0.277 2.403,0.37 0.874,0.092 1.162,0.186 1.439,1.203 0.277,1.017 0.647,0.647 1.387,1.298 0.74,0.651 1.11,1.014 2.035,2.104 0.925,1.09 1.388,1.222 2.128,0.817 0.74,-0.403 0,-0.428 -0.647,-0.916 -0.648,-0.487 -0.277,-0.992 1.11,-1.178 1.387,-0.185 0.647,-0.185 2.22,1.178 1.572,1.363 0.925,0.117 1.942,0.637 1.018,0.521 0.74,0.312 0.647,-0.637 -0.093,-0.95 -0.647,-0.53 -2.071,-1.455 -1.423,-0.924 -0.982,-0.555 -1.352,-1.11 -0.37,-0.555 0,0 1.943,0.559 1.942,0.559 0.833,0.736 2.22,1.014 1.387,0.277 0.555,0.462 1.572,0.992 1.018,0.53 0.555,0.117 2.035,0.487 1.479,0.37 0,0 0.647,-0.487 0.648,-0.487 0.092,-0.901 0.092,-0.901 0,0 0,0 -0.462,-0.277 -0.463,-0.277 -0.463,-0.555 -1.203,-0.828 -0.74,-0.274 -0.185,-0.282 -0.185,-1.021 0,-0.74 0,0 1.018,0.312 1.018,0.312 0.37,-0.128 1.202,-0.015 0.833,0.113 0.74,-0.483 1.851,-0.113 1.11,0.371 0.555,-0.185 0.462,-1.387 -0.092,-1.202 0,0 -0.278,-1.109 -0.277,-1.11 0,0 0.463,-1.11 0.462,-1.11 -0.093,-0.926 -1.11,-2.036 -1.018,-1.109 -1.665,-0.37 -3.145,-0.277 -1.48,0.093 -1.11,0.277 -1.942,0.647 -0.833,0.37 -0.74,-0.277 -1.943,-0.555 -1.203,-0.277 -0.462,-0.463 -1.203,-2.004 -0.74,-1.542 -0.092,-0.401 0.833,-1.327 0.925,-0.924 0.74,0.555 2.312,1.147 1.572,0.592 0.277,-0.499 1.295,-0.129 1.018,0.37 1.387,-0.093 2.96,-0.925 1.572,-0.833 0,0 -1.203,-0.463 -1.203,-0.462 -0.648,-0.555 -1.48,-1.388 -0.833,-0.832 0,0 0.832,0.093 0.833,0.093 0.925,-0.093 1.665,-0.462 0.74,-0.37 1.203,-0.185 1.573,-1.11 0.37,-0.925 -0.462,-0.647 -2.22,-1.665 -1.757,-1.018 -1.202,-0.648 -2.035,-0.925 -0.833,-0.277 -1.11,-0.462 -2.22,-1.017 -1.11,-0.556 -0.74,-0.278 -1.388,-0.733 -0.647,-0.456 -0.462,-0.654 -1.295,-0.838 -0.832,-0.186 -0.832,0.184 -1.757,0.369 -0.925,0.185 -0.648,0 -1.48,-0.925 -0.832,-0.925 0,0 -0.555,0.093 -0.555,0.091 -1.758,0.462 -2.035,0.832 -0.277,0.37 -1.018,-0.093 -1.572,0.37 -0.556,0.463 -0.463,-0.832 -1.018,-1.018 -0.555,-0.184 -1.018,-0.184 -1.758,-0.74 -0.74,-0.555 0,-1.665 0,-1.665 0,0 -1.477,-0.091 -2.31,0.001 z"
   style="fill:#677821" />
					<path
   id="Barra__x2F__Barraigh_3_"
   fill="#303B09"
   d="m 590.349,1011.556 c -0.102,0.37 0.009,0.832 0.119,1.388 0.111,0.555 1.185,1.295 1.648,2.127 0.462,0.833 -0.093,1.85 -0.278,2.589 -0.185,0.74 -1.018,1.665 -1.489,2.683 -0.472,1.018 -2.211,1.388 -3.329,1.573 -1.118,0.185 -1.842,0.185 -2.86,0.185 -1.018,0 -1.851,0.185 -3.146,0.74 -1.295,0.555 0,0 0.093,0.555 0.093,0.555 1.018,0.277 2.197,0.555 1.18,0.278 0.393,0.647 0,1.018 -0.393,0.37 -0.255,0.925 0,1.48 0.255,0.555 0.022,1.202 0,1.572 -0.022,0.37 -0.162,0.555 -0.81,0.462 -0.648,-0.092 -0.463,-0.185 -1.203,0.555 -0.74,0.741 0.648,0.462 1.017,0.925 0.37,0.463 0.278,1.11 0.186,1.758 -0.093,0.647 -1.295,0.37 -2.906,0.462 -1.61,0.092 -1.349,0 -1.719,0.739 -0.37,0.741 -0.925,1.018 -0.555,2.128 0.37,1.109 -0.833,1.018 -0.852,1.85 -0.02,0.833 1.5,1.018 3.126,1.087 1.628,0.069 1.333,0.671 1.888,0.671 0.555,0 1.572,0.555 2.497,0.647 0.925,0.092 0.647,-0.371 1.11,-1.318 0.462,-0.947 0.277,-0.717 1.388,-0.81 1.11,-0.092 0.832,0.371 0.547,1.295 -0.285,0.925 0.655,0.555 1.95,1.11 1.295,0.555 0,0 0.647,0.093 0.647,0.092 0.74,0.185 1.778,0 1.038,-0.186 0.257,-0.278 1.268,-0.463 1.011,-0.185 0.284,0.093 1.395,1.018 1.109,0.925 0,0 0.74,-0.462 0.74,-0.462 -0.092,-0.74 0,-1.018 0.092,-0.277 0.092,-0.74 -0.092,-1.942 -0.185,-1.203 -0.463,-0.37 -0.555,-1.11 -0.092,-0.74 0,0 1.203,0.185 1.202,0.186 0,0 0.37,-0.462 0.37,-0.462 0,-0.462 -0.37,-1.11 -0.37,-0.646 0,0 0,-0.739 0,-0.74 0.277,-0.648 1.11,-1.11 0.833,-0.462 0.462,-0.185 1.203,-0.832 0.74,-0.648 0,0 0.15,-1.11 0.15,-1.11 -0.335,-0.739 0,-1.018 0.335,-0.278 0.22,0.462 0.59,1.098 0.37,0.635 0.277,0.197 1.479,-0.08 1.203,-0.278 1.018,0.277 2.035,0 1.018,-0.278 0,0 -0.185,-0.739 -0.185,-0.741 0,-0.648 -0.092,-1.125 -0.093,-0.477 -0.093,-0.356 -0.74,-0.911 -0.647,-0.555 -1.018,-0.463 -1.665,-0.833 -0.648,-0.37 -0.277,-0.74 -0.37,-1.572 -0.092,-0.832 0,0 1.11,-0.462 1.11,-0.462 0,0 1.295,0.462 1.295,0.463 0,0 0.185,0.74 0.185,0.741 0,0 0.555,1.018 0.555,1.018 0,0 0.74,0.647 0.74,0.647 0.925,1.202 1.295,0.74 0.37,-0.462 0.092,-0.462 0,-1.017 -0.092,-0.556 0,-0.925 0,-1.48 0,-0.555 -0.925,-1.11 -1.665,-1.665 -0.74,-0.555 -1.11,0.37 -1.85,0 -0.74,-0.37 -0.925,-0.185 -1.295,-0.925 -0.37,-0.74 -1.295,-0.462 -1.942,-0.74 -0.648,-0.277 -1.295,-0.37 -1.942,-0.462 -0.648,-0.093 -1.85,-1.11 -2.689,-1.573 -0.839,-0.462 -0.178,-1.018 0,-1.572 0.179,-0.555 0.469,-0.371 1.285,-0.371 0.816,0 1.219,0 2.159,-0.74 0.939,-0.74 -0.107,-0.832 -0.014,-1.573 0.092,-0.74 -0.278,-1.017 -0.556,-1.757 -0.277,-0.74 -0.74,-0.648 -1.605,-0.925 -0.866,-0.278 -0.707,-0.462 -0.799,-1.203 -0.092,-0.74 -0.462,-0.832 -0.469,-1.388 -0.006,-0.555 -1.104,-0.647 -1.268,-0.37 -0.001,0 -0.946,0.461 -1.048,0.832 z"
   style="fill:#677821" />
					<path
   id="Baleshare__x2F__Baile_Sear_3_"
   fill="#303B09"
   d="m 598.059,888.831 c -0.234,0.741 -0.625,2.011 0,2.289 0.625,0.277 1.364,1.017 1.827,1.757 0.463,0.74 0.648,1.018 1.11,1.942 0.462,0.925 0.873,0.925 0.945,1.942 0.072,1.018 0.897,2.618 0.854,3.252 -0.042,0.634 -0.377,1.929 0.854,2.021 1.23,0.093 2.341,1.48 1.785,0 -0.555,-1.48 -0.832,-0.805 -0.74,-2.021 0.092,-1.216 0.849,-0.476 0.887,-1.679 0.038,-1.203 0.13,-1.573 -0.425,-2.127 -0.555,-0.555 -1.387,-1.295 -0.462,-1.942 0.925,-0.647 1.757,-1.018 1.48,-1.572 -0.277,-0.556 0.74,0.462 -0.277,-0.556 -1.018,-1.017 -0.925,-1.109 -1.572,-1.109 -0.647,0 -0.833,0.37 -1.11,-0.37 -0.277,-0.74 -0.008,-0.463 -0.42,-1.203 -0.413,-0.74 -10e-4,-1.526 -0.854,-0.624 -0.853,0.901 -0.761,1.179 -1.038,2.011 -0.277,0.833 0.648,1.48 -0.277,0.833 -0.925,-0.647 -1.48,-0.925 -1.572,-1.388 -0.094,-0.462 -0.716,-2.342 -0.995,-1.456 z"
   style="fill:#677821" />
				</g><rect
   style="fill:none;stroke:#000000;stroke-width:0.29998;stroke-linejoin:bevel;stroke-dasharray:none;paint-order:stroke fill markers"
   id="rect2"
   height="4390.293"
   x="0.19998971"
   y="0.19998971"
   ry="0.69917101"
   width="4353.8188" /></svg>
