<?xml version="1.0" encoding="UTF-8" standalone="no"?>
<!-- Generator: Adobe Illustrator 22.1.0, SVG Export Plug-In . SVG Version: 6.00 Build 0)  -->

<svg
   version="1.1"
   x="0px"
   y="0px"
   viewBox="0 0 4354.1187 4390.5933"
   enable-background="new 0 0 1995.865 2834.646"
   xml:space="preserve"
   id="svg1596"
   width="4354.1187"
   height="4390.5933"
   xmlns="http://www.w3.org/2000/svg"
   xmlns:svg="http://www.w3.org/2000/svg"><defs
   id="defs1596" />


<path
   id="Falkirk_1_"
   fill="#4B5A26"
   d="m 2146.3595,1924.0481 v 2.144 l 0.57,1.7 c 0,0 -0.01,1.138 1.106,0.952 1.114,-0.186 1.607,-0.391 2.347,0.02 0.74,0.411 1.357,0.296 1.85,0.97 0.493,0.674 0.123,1.408 0,2.089 -0.123,0.682 -0.241,0.805 0.249,1.545 0.491,0.74 1.107,0.825 1.848,0.659 0.74,-0.166 3.298,-0.727 3.207,0 -0.092,0.727 -0.494,1.561 -0.494,2.301 0,0.74 -0.493,2.219 0.494,2.466 0.986,0.248 1.971,0.494 3.39,0.74 1.42,0.247 2.16,0.617 3.393,0.494 1.233,-0.123 2.076,-1.431 2.703,0.024 0.627,1.455 0.134,0.839 -1.223,1.949 -1.356,1.109 -2.097,0.015 -2.097,1.733 0,1.72 -0.863,1.35 0.617,2.706 1.48,1.356 4.687,2.959 5.673,3.946 0.986,0.987 2.837,2.59 2.837,2.59 0,0 1.603,0.794 2.343,1.322 0.74,0.528 2.344,0.211 3.207,0 0.863,-0.212 2.097,-1.568 2.837,-2.678 0.74,-1.11 3.083,-3.371 3.083,-3.968 0,-0.596 1.034,-1.337 2.243,-1.459 1.21,-0.124 3.677,-1 3.677,-1 l 1.727,0.384 c 0,0 1.377,-0.914 1.816,-1.24 0.439,-0.326 1.106,-1.288 1.162,-1.628 0.056,-0.34 -0.095,-0.894 0.229,-1.325 0.323,-0.432 1.568,-2.197 1.996,-2.59 0.428,-0.393 2.32,-1.973 2.32,-1.973 l 0.787,-1.11 -0.503,-1.238 c 0,0 0.427,-0.612 0.503,-0.982 0.076,-0.369 0.816,-0.867 1.433,-0.988 0.617,-0.121 1.48,-0.036 2.097,-0.511 0.617,-0.475 1.85,0 1.85,0 0,0 0.863,-0.228 1.233,0.143 0.37,0.37 1.67,-0.25 1.945,0.368 0.274,0.619 1.261,-0.372 2.001,0 0.74,0.372 1.652,1.02 2.553,0.511 0.901,-0.509 2.325,-2.113 2.325,-2.113 -1.022,-0.688 -0.562,-0.986 -0.932,-1.541 -0.37,-0.555 -1.109,-0.185 -2.404,-0.555 -1.295,-0.37 -1.48,-0.185 -3.885,-0.925 -2.405,-0.74 -0.925,-1.48 -3.33,-2.035 -2.405,-0.555 -1.11,-0.74 -2.59,-0.37 -1.479,0.37 -1.665,0.74 -3.145,1.11 -1.48,0.37 -1.665,1.295 -3.33,0.74 -1.665,-0.555 -1.665,0 -2.035,-0.74 -0.37,-0.74 -0.74,-0.925 -0.555,-2.035 0.185,-1.11 0.37,-1.295 0,-2.22 -0.37,-0.926 -1.11,-0.556 -2.405,-0.371 -1.295,0.186 -0.74,1.48 -2.405,2.775 -1.665,1.295 0,0 -1.479,-0.555 -1.48,-0.555 -0.925,-2.405 -0.925,-4.44 0,-2.034 -0.925,-4.069 -2.22,-5.18 -1.295,-1.11 -1.665,-0.925 -3.7,-3.145 -2.035,-2.22 -2.59,-3.33 -3.515,-4.81 -0.925,-1.48 -1.11,-1.11 -1.665,-0.925 -0.555,0.185 -0.555,0.925 -1.479,0.925 0,0 -0.247,2.22 -0.863,2.96 -0.617,0.74 -0.802,2.035 0.863,2.59 1.665,0.556 2.209,1.643 2.122,2.486 -0.088,0.844 -2.492,4.051 -2.985,3.928 -0.493,-0.124 -1.776,-0.055 -4.249,0 -2.473,0.059 -7.358,1.122 -7.385,0.494 -0.027,-0.628 -3.846,-0.744 -5.017,-0.497 -1.172,0.246 -2.404,1.104 -3.823,1.97 -1.418,0.866 -2.83,1.393 -2.83,1.393 0,0 -1.765,2.017 -3.168,2.017"
   style="fill:#677821" /><rect
   style="fill:none;stroke:#000000;stroke-width:0.29998;stroke-linejoin:bevel;stroke-dasharray:none;paint-order:stroke fill markers"
   id="rect2"
   height="4390.293"
   x="0.19998971"
   y="0.19998971"
   ry="0.69917101"
   width="4353.8188" /></svg>
