<?xml version="1.0" encoding="UTF-8" standalone="no"?>
<!-- Generator: Adobe Illustrator 22.1.0, SVG Export Plug-In . SVG Version: 6.00 Build 0)  -->

<svg
   version="1.1"
   x="0px"
   y="0px"
   viewBox="0 0 4354.1187 4390.5933"
   enable-background="new 0 0 1995.865 2834.646"
   xml:space="preserve"
   id="svg1596"
   width="4354.1187"
   height="4390.5933"
   xmlns="http://www.w3.org/2000/svg"
   xmlns:svg="http://www.w3.org/2000/svg"><defs
   id="defs1596" />


<g
   id="Fife__x3C_Group_x3E__1_"
   style="fill:#677821"
   transform="translate(1093.6405,660.66109)">
					<path
   id="Isle_of_May_3_"
   fill="#8D9764"
   d="m 1248.68,1223.195 c 0.278,-0.37 0.556,0 0.925,0.37 0.37,0.37 0.648,0.74 1.018,1.018 0.37,0.277 0.37,1.11 0.648,1.068 0.277,-0.042 -0.371,0.967 -0.833,1.06 -0.463,0.092 -1.018,-0.556 -1.202,-0.833 -0.186,-0.277 -0.556,-1.295 -0.556,-1.295 -0.182,-0.48 -0.277,-1.018 0,-1.388 z"
   style="fill:#677821" />
					<path
   id="Inchkeith_3_"
   fill="#8D9764"
   d="m 1169.732,1261.369 c 0.185,0.341 0.416,-0.018 0.864,0.399 0.448,0.416 0.847,1.018 1.032,0.832 0.186,-0.186 -1.248,-2.498 -1.248,-2.498 l -0.833,0.601 c -0.21,0.152 -10e-4,0.325 0.185,0.666 z"
   style="fill:#677821" />
					<path
   fill="#8D9764"
   d="m 1149.613,1263.387 c 0,0 0.416,-0.277 0.763,-0.357 0.347,-0.08 0.347,0.08 0.625,-0.059 0.278,-0.139 0.509,0.185 0.509,0 0,-0.185 -0.324,-0.509 -0.647,-0.647 -0.324,-0.139 -0.694,-0.046 -0.972,0 -0.278,0.046 -0.601,0.463 -0.647,0.647 z"
   id="path1151"
   style="fill:#677821" />
					<path
   id="Fife_1_"
   fill="#8D9764"
   d="m 1090.968,1250.853 c 1.109,0.555 0.555,1.295 1.295,1.85 0.74,0.555 1.295,2.035 2.22,2.59 0.925,0.555 1.11,2.035 2.035,2.405 0.925,0.37 2.59,0.925 3.885,1.479 1.295,0.555 1.85,-0.925 3.515,-1.665 1.666,-0.74 1.85,-0.369 3.516,-0.925 1.665,-0.555 1.11,1.295 1.665,2.035 0.555,0.74 1.295,0.185 2.035,-1.85 0.74,-2.035 0,0 1.48,-0.555 1.48,-0.555 1.48,0.186 2.035,1.11 0.555,0.925 1.85,1.85 2.96,2.96 1.11,1.109 2.22,-0.37 3.33,-0.555 1.11,-0.185 0.925,1.295 2.035,1.48 1.11,0.185 2.22,0.74 3.33,1.295 1.109,0.555 2.96,1.295 4.439,1.48 1.48,0.185 2.775,1.665 3.7,2.035 0.925,0.37 1.85,1.295 2.405,1.666 0.555,0.37 1.11,-1.11 1.11,-2.035 0,-0.925 -0.555,-1.295 0.555,-2.035 1.109,-0.74 2.22,-0.37 3.885,-0.555 1.665,-0.185 2.035,0 2.035,-0.74 0,-0.74 0.74,-1.48 1.295,-1.665 0.555,-0.186 1.295,0.555 2.59,0.37 1.295,-0.186 0.925,-0.37 0.74,-1.48 -0.186,-1.109 0.74,-1.665 2.22,-2.22 1.48,-0.555 0.925,-0.185 3.145,-1.11 2.22,-0.925 1.48,-0.739 2.775,-0.37 1.295,0.369 1.48,1.11 2.775,1.11 1.295,0 1.11,-1.295 1.85,-1.665 0.74,-0.37 1.11,0.37 2.96,0 1.85,-0.37 3.146,-0.925 3.515,-1.665 0.369,-0.74 0.37,-2.035 0.925,-3.33 0.555,-1.295 0.185,-5.735 0.74,-7.77 0.555,-2.035 1.665,-1.48 3.7,-2.22 2.035,-0.74 0.925,-1.11 1.851,-1.85 0.925,-0.74 1.665,-1.295 2.96,-2.035 1.295,-0.739 2.22,-2.404 2.96,-3.515 0.74,-1.11 2.59,-2.22 3.699,-3.33 1.11,-1.11 1.11,0.185 2.221,-1.295 1.109,-1.48 1.295,-1.48 2.59,-2.96 1.295,-1.48 2.22,-2.775 3.145,-4.255 0.926,-1.48 2.221,-1.851 4.44,-2.22 2.219,-0.369 4.44,0.37 5.92,0.925 1.48,0.555 2.775,0.925 3.33,2.59 0.556,1.665 0.185,1.479 1.665,2.22 1.48,0.741 0,0 2.22,0.555 2.22,0.556 0,0 2.035,0.556 2.035,0.555 0,0 0.37,-1.11 0.37,-1.11 0.925,0.186 2.22,0.74 1.296,0.555 1.48,-0.74 2.591,-2.405 1.109,-1.665 0.925,-1.295 3.33,-2.035 2.404,-0.739 3.515,-1.665 6.475,-2.404 2.96,-0.74 1.665,-1.48 2.59,-2.035 0.925,-0.556 2.405,-0.37 3.145,-1.851 0.74,-1.479 1.11,-0.925 2.221,-1.85 1.109,-0.925 1.85,-1.11 2.96,-2.405 1.11,-1.295 1.85,-1.85 3.33,-3.7 1.479,-1.85 0,0 0.925,-0.555 0.925,-0.555 2.404,-1.665 2.59,-3.33 0.186,-1.665 -1.109,-1.48 -2.22,-2.22 -1.11,-0.74 -0.925,0.185 -1.851,-0.925 -0.925,-1.11 -1.664,-0.37 -2.404,-1.295 -0.74,-0.925 -1.48,-1.48 -2.59,-3.33 -1.11,-1.85 -0.556,-1.665 -1.851,-2.405 -1.295,-0.74 -1.665,-0.37 -1.665,-0.37 l -1.109,-0.555 -1.851,-0.925 -1.479,-0.556 c 0,0 -1.48,0.74 -2.961,-0.185 -1.479,-0.925 -3.699,-0.925 -4.625,-0.925 -0.925,0 -1.479,-1.294 -2.034,-2.035 -0.556,-0.74 -2.22,-0.556 -2.22,-0.556 0,0 -0.74,-1.85 -0.556,-2.774 0.185,-0.925 -0.185,-1.85 -1.295,-2.59 -1.11,-0.74 -1.295,1.295 -2.035,2.774 -0.739,1.48 -1.665,-0.185 -2.774,-1.11 -1.11,-0.925 -1.666,0 -2.775,-0.185 -1.11,-0.185 -1.85,-0.37 -1.85,-1.665 0,-1.295 2.22,-0.37 3.515,-0.555 1.295,-0.185 2.774,-0.555 4.255,-1.11 1.48,-0.555 1.11,-2.034 1.48,-3.145 0.369,-1.11 1.109,-1.295 1.109,-2.22 0,-0.925 0.37,-3.885 0.926,-5.55 0.555,-1.665 0.184,-3.33 -0.186,-5.18 -0.37,-1.85 -1.295,-1.11 -2.59,-0.74 -1.295,0.37 -2.035,0.925 -3.885,1.295 -1.851,0.37 -1.851,-0.925 -2.775,-2.034 -0.925,-1.11 -1.48,-1.296 -3.145,-1.296 -1.666,0 -2.775,0 -4.256,0.556 -1.48,0.555 -0.74,2.035 -1.48,2.59 -0.74,0.555 -1.665,1.479 -2.775,1.85 -1.11,0.371 -1.85,0.74 -3.145,1.295 -1.295,0.555 -3.515,2.035 -6.29,2.591 -2.775,0.555 -2.035,1.665 -3.33,2.404 -1.295,0.74 -4.07,2.59 -5.55,2.96 -1.48,0.37 -2.96,0.925 -4.44,1.48 -1.48,0.555 -3.515,2.774 -4.995,3.145 -1.479,0.37 -2.96,2.59 -4.255,3.515 -1.295,0.925 -4.995,1.85 -7.585,2.035 0,0 -0.185,1.85 0.247,2.218 0.432,0.369 -1.172,1.667 -2.558,3.669 -1.386,2.002 -1.02,0.958 -2.083,2.438 -1.064,1.48 -0.231,3.146 -0.65,4.489 -0.419,1.343 -0.691,2.171 -2.458,3.096 -1.767,0.926 -3.442,0 -3.442,0 0,0 -2.931,2.035 -3.446,2.583 -0.515,0.547 -1.476,2.036 -1.476,2.036 0,0 0.596,0.445 1.913,1.282 1.318,0.837 1.003,0.865 1.003,0.865 0,0 -1.109,3.778 0.37,3.907 1.48,0.129 5.92,0.981 8.187,0.45 2.266,-0.531 0.879,3.121 0.879,4.406 0,1.284 2.035,-0.36 2.774,1.312 0.74,1.672 -0.555,1.657 -0.185,2.952 0.37,1.295 1.172,2.712 1.172,2.712 l -6.907,2.625 c 0,0 1.665,1.509 1.616,2.375 -0.05,0.864 -1.801,0.244 -4.062,0.306 -2.261,0.062 -4.584,0.864 -5.285,1.233 -0.7,0.37 -0.964,4.811 -2.164,5.048 -1.199,0.238 -6.015,0.873 -7.632,0 -1.616,-0.872 -2.85,-0.237 -2.85,-0.237 0,0 -7.929,0.37 -9.274,0.237 -1.345,-0.132 -2.54,-2.272 -3.921,-2.995 -1.381,-0.723 -1.394,-0.018 -2.442,1.672 -1.049,1.688 -1.912,2.944 -1.912,2.944 l -5.735,1.656 c 0,0 -3.145,0.947 -3.515,1.769 -0.37,0.822 4.07,2.191 3.515,2.802 -0.555,0.611 -2.871,0.795 -4.858,1.165 -1.987,0.37 -2.6,1.033 -2.6,1.033 h -3.896 v 2.852 z"
   style="fill:#677821" />
				</g><rect
   style="fill:none;stroke:#000000;stroke-width:0.29998;stroke-linejoin:bevel;stroke-dasharray:none;paint-order:stroke fill markers"
   id="rect2"
   height="4390.293"
   x="0.19998971"
   y="0.19998971"
   ry="0.69917101"
   width="4353.8188" /></svg>
