<?xml version="1.0" encoding="UTF-8" standalone="no"?>
<!-- Generator: Adobe Illustrator 22.1.0, SVG Export Plug-In . SVG Version: 6.00 Build 0)  -->

<svg
   version="1.1"
   x="0px"
   y="0px"
   viewBox="0 0 4354.1187 4390.5933"
   enable-background="new 0 0 1995.865 2834.646"
   xml:space="preserve"
   id="svg1596"
   width="4354.1187"
   height="4390.5933"
   xmlns="http://www.w3.org/2000/svg"
   xmlns:svg="http://www.w3.org/2000/svg"><defs
   id="defs1596" />


<path
   id="Glasgow_City_1_"
   fill="#303B09"
   d="m 2098.0215,1951.1181 c 0,0 2.08,-0.631 2.554,-0.631 0.475,0 2.613,0.631 2.613,0.631 0,0 0.204,1.713 0.944,2.576 0.74,0.863 1.781,1.339 2.96,0.506 1.18,-0.833 2.221,-0.923 2.591,-1.64 0.369,-0.716 0.128,-0.473 0,-2.073 -0.129,-1.6 -0.593,-1.604 0.197,-2.158 0.79,-0.555 1.169,-0.855 2.151,-0.212 0.981,0.644 1.722,1.507 2.215,2.37 0.494,0.863 1.082,0.81 1.651,2.009 0.569,1.198 1.679,2.925 3.775,2.925 2.097,0 4.44,-1.18 4.934,-1.021 0.494,0.159 1.974,1.388 3.33,2.932 1.356,1.543 3.33,0.557 4.81,0.927 1.48,0.37 3.419,0.704 4.053,0.599 0.633,-0.106 1.781,-0.027 2.009,0.489 0.228,0.516 0.351,0.708 0.598,1.537 0.247,0.828 1.2,2.857 0,2.814 -1.201,-0.043 -0.247,0.48 -0.863,1.344 -0.616,0.864 0.125,1.906 -0.741,2.545 -0.865,0.64 -1.872,4.277 -1.872,4.277 -0.251,-0.379 -0.372,-0.627 -0.595,-0.532 -0.482,0.206 -0.591,0.777 -1.874,0.366 -1.283,-0.411 -2.339,-0.704 -2.946,-0.535 -0.607,0.169 -3.812,1.541 -4.06,1.533 -0.247,-0.01 -1.237,-1.611 -1.85,-1.85 -0.614,-0.238 -1.14,1.509 -1.48,-0.01 -0.34,-1.517 -0.497,-2.438 -0.86,-2.259 -0.363,0.18 -0.507,2.043 -1.729,1.271 -1.222,-0.771 -0.752,0.031 -0.987,-0.37 -0.235,-0.4 -0.971,-0.374 -1.48,-0.863 -0.509,-0.488 -0.37,1.407 0,2.308 0.371,0.899 0.864,2.515 0.864,2.94 0,0.425 0,0.796 1.11,1.659 1.11,0.863 1.803,1.356 1.765,2.467 -0.038,1.11 -1.025,1.85 -1.765,2.713 -0.74,0.863 -1.404,1.448 -2.305,1.896 -0.901,0.448 -2.782,-1.753 -3.315,-1.7 0,0 0.28,-0.327 0.213,-1.183 -0.067,-0.855 0.227,-2.096 0.227,-2.096 0,0 0.37,-0.616 -0.37,-1.11 -0.74,-0.494 -0.494,-0.74 -1.481,-0.864 -0.986,-0.123 -1.793,0 -2.438,0 -0.645,0 -1.015,-0.479 -1.508,-0.055 -0.493,0.425 -1.356,1.257 -1.604,2.26 -0.246,1.002 -1.85,2.871 -2.466,3.17 -0.616,0.299 -2.836,0.614 -3.454,-0.099 -0.616,-0.712 -0.085,-0.22 -0.968,-1.207 -0.882,-0.986 -0.882,-1.5 -0.635,-2.477 0.247,-0.976 -1.694,-3.366 -1.694,-3.366 l 0.707,-2.011 v -3.325 -2.018 l -0.354,-0.825 c 0,0 1.872,0.407 1.976,0 0.104,-0.407 -0.512,-4.08 -0.512,-4.08 l -0.646,-1.631 v -1.127 l -1.396,-0.824 c 0,0 0.078,-1.416 0.225,-2.119 0.146,-0.702 -0.046,-2.221 -0.225,-2.837 -0.179,-0.616 0.303,-1.204 10e-4,-1.958 z"
   style="fill:#677821" /><rect
   style="fill:none;stroke:#000000;stroke-width:0.29998;stroke-linejoin:bevel;stroke-dasharray:none;paint-order:stroke fill markers"
   id="rect2"
   height="4390.293"
   x="0.19998971"
   y="0.19998971"
   ry="0.69917101"
   width="4353.8188" /></svg>
