<?xml version="1.0" encoding="UTF-8" standalone="no"?>
<!-- Generator: Adobe Illustrator 22.1.0, SVG Export Plug-In . SVG Version: 6.00 Build 0)  -->

<svg
   version="1.1"
   x="0px"
   y="0px"
   viewBox="0 0 4354.1187 4390.5933"
   enable-background="new 0 0 1995.865 2834.646"
   xml:space="preserve"
   id="svg1596"
   width="4354.1187"
   height="4390.5933"
   xmlns="http://www.w3.org/2000/svg"
   xmlns:svg="http://www.w3.org/2000/svg"><defs
   id="defs1596" />


<g
   id="Highland__x3C_Group_x3E__1_"
   style="fill:#677821"
   transform="translate(1093.6405,660.66109)">
					<path
   fill="#6C833C"
   d="m 1025.293,902.684 c 1.295,0 1.85,0.739 2.59,1.294 0.74,0.555 1.48,1.666 2.59,1.11 1.11,-0.555 3.33,-2.22 3.885,-2.59 0.555,-0.37 1.665,-1.48 1.295,-2.59 -0.37,-1.11 -0.37,-2.96 0.555,-2.96 0.925,0 1.85,0.371 2.405,0.371 0.555,0 2.405,-1.111 2.405,-1.111 0,0 -0.37,-1.11 0,-1.85 0.37,-0.74 2.22,-3.33 3.885,-4.44 1.665,-1.11 4.07,-2.96 4.44,-3.7 0.37,-0.74 1.665,-2.22 0.37,-3.7 -1.295,-1.48 -3.145,-2.035 -3.145,-2.035 l -1.11,-0.555 c 0,0 1.295,-1.295 2.405,-1.665 1.11,-0.37 2.775,0.185 3.7,0.185 0.925,0 1.85,-0.37 2.405,-0.925 0.555,-0.555 1.85,-0.925 1.85,-0.925 0,0 0.555,-0.555 2.96,0.556 2.405,1.109 4.995,1.85 6.29,2.035 1.295,0.185 3.885,-0.185 6.845,-0.74 2.96,-0.555 4.44,-1.48 5.55,-1.48 1.11,0 2.22,-1.11 3.885,-2.22 1.665,-1.11 4.625,-4.07 5.365,-4.81 l 1.455,-1.657 2.214,6.426 c 0,0 -0.412,4.019 0,4.542 0.411,0.524 3.117,3.475 3.176,4.379 0.059,0.903 -0.319,0.661 0,4.159 0.318,3.498 0.318,4.731 0.936,5.759 0.616,1.028 0.607,-1.056 1.644,1.312 1.037,2.368 -1.645,1.835 0,4.271 1.645,2.436 3.549,3.809 2.7,5.589 -0.85,1.78 -1.02,5.579 -1.346,7.071 -0.326,1.493 -1.353,2.892 -0.325,4.557 1.027,1.665 0.983,2.849 3.064,2.304 2.082,-0.545 2.844,2.694 5.645,0 2.802,-2.694 1.774,-4.134 4.651,-4.134 2.879,0 7.196,-0.411 8.635,-1.233 1.439,-0.822 3.838,-1.85 5.105,0.206 1.268,2.056 0.857,3.382 5.585,5.597 4.729,2.215 6.1,2.325 6.374,2.942 0.273,0.618 1.027,2.974 1.233,4.618 0.205,1.644 2.754,1.438 1.583,2.877 -1.171,1.44 -0.966,-0.617 -1.171,1.44 -0.206,2.055 -0.206,0.792 -1.233,3.068 -1.028,2.276 -1.223,2.283 -3.182,5.055 -1.958,2.772 -3.191,5.804 -4.014,6.241 -0.822,0.437 -1.028,-1.143 -2.878,1.497 -1.85,2.641 -3.358,2.999 -2.296,4.669 1.062,1.671 2.707,0.936 3.941,2.743 1.233,1.807 1.233,1.567 1.027,3.331 -0.205,1.765 0.206,0.326 0.412,2.998 0.205,2.673 -0.412,1.233 -0.412,4.317 0,3.083 -0.206,2.056 1.233,3.906 1.439,1.85 1.851,0.266 1.233,2.805 -0.616,2.54 0.823,1.596 0.412,4.227 -0.412,2.63 -0.206,5.098 -2.262,5.714 -2.055,0.617 -1.645,-0.617 -3.701,0 -2.055,0.617 -1.997,2.468 -3.979,3.083 -1.982,0.617 -1.366,-1.85 -3.216,0 -1.85,1.85 -3.7,4.896 -3.906,5.531 -0.206,0.636 1.526,0.431 -1.293,2.075 -2.818,1.644 -2.818,0.822 -3.641,3.083 -0.822,2.262 0.76,3.61 -1.676,2.833 -2.436,-0.776 -0.866,-2.215 -3.399,-0.776 -2.532,1.438 -1.504,-0.385 -3.149,1.452 -1.645,1.837 -2.001,1.631 -3.057,3.276 -1.055,1.645 -1.055,0.734 -3.111,2.835 -2.056,2.099 -1.232,-0.013 -3.494,1.352 -2.263,1.364 -4.769,-0.723 -3.002,2.274 1.768,2.996 2.795,0.118 1.768,2.996 -1.028,2.878 -2.096,2.056 -1.768,4.728 0.328,2.672 -0.739,0.788 0,5.122 0.739,4.334 1.973,0.839 0.739,4.334 -1.233,3.495 0.017,2.878 -1.122,5.14 -1.139,2.262 -1.755,1.668 -2.989,3.918 -1.233,2.25 -2.467,2.044 -2.467,4.922 0,2.878 1.99,3.29 -0.855,2.673 -2.845,-0.617 -3.721,-2.589 -4.928,0.247 -1.207,2.836 -0.555,2.426 -3.039,2.426 -2.484,0 -3.322,1.686 -4.137,0.021 -0.814,-1.666 0.83,-1.667 -2.048,-2.283 -2.878,-0.617 -0.677,-0.805 -3.011,-2.252 -2.334,-1.447 -2.794,-2.87 -3.797,0 -1.004,2.869 -1.826,1.914 -1.209,5.27 0.617,3.356 0.234,3.766 -0.911,5.514 -1.145,1.748 -0.996,2.39 -2.818,1.349 -1.821,-1.04 -0.794,1.631 -2.85,0.501 -2.056,-1.13 -0.206,-2.981 -3.495,-1.85 -3.289,1.131 -6.783,1.13 -10.073,0 -3.289,-1.131 -3.78,-3.97 -6.31,-3.167 -2.529,0.804 -2.062,-0.468 -3.529,2.224 -1.468,2.691 -3.242,3.179 -1.943,5.094 1.298,1.914 2.402,2.255 0,3.112 -2.402,0.858 -2.097,3.013 -3.483,3.478 -1.386,0.463 0.21,-0.377 -4.494,1.071 -4.704,1.449 -3.623,0.01 -6.219,2.888 -2.596,2.878 -2.185,3.884 -4.446,3.072 -2.261,-0.811 -3.799,-1.341 -3.799,-1.341 l -7.969,13.678 c 0,0 -4.614,1.137 -5.88,-1.483 -1.266,-2.62 -1.06,-6.007 -3.526,-5.547 -2.468,0.46 -1.905,0.356 -3.728,2.258 -1.823,1.903 -2.029,2.313 -2.44,4.164 -0.411,1.85 1.44,0.029 -1.85,2.276 -3.29,2.246 -3.29,-1.454 -3.29,2.246 0,3.7 1.028,3.379 0,5.698 -1.027,2.319 0.009,1.497 -1.023,3.553 -1.032,2.056 -1.648,0.822 -1.032,2.056 0.617,1.234 1.032,2.03 1.032,2.03 0,0 0.621,1.253 0,2.079 -0.621,0.825 -0.659,0.033 -2.49,1.046 -1.831,1.013 -1.546,1.631 -3.95,2.761 -2.404,1.13 -2.988,1.109 -5.266,1.223 -2.278,0.112 -1.906,-1.347 -3.736,0 -1.831,1.347 -2.56,0.193 -1.99,3.339 0.57,3.146 -0.981,3.348 0,3.864 0.981,0.516 4.896,1.956 7.359,1.338 2.462,-0.617 3.901,-2.466 3.901,-2.466 0,0 2.679,1.946 2.265,2.618 -0.415,0.671 -2.059,2.933 -2.059,3.755 0,0.822 1.193,2.462 1.193,2.462 0,0 -3.651,0.417 -5.3,1.238 -1.649,0.822 -2.883,2.112 -3.911,1.981 -1.028,-0.131 -1.466,-1.29 -2.275,0.01 -0.809,1.299 -1.193,2.727 -2.542,3.35 -1.35,0.622 -3.539,2.114 -5.117,1.471 -1.578,-0.643 -3.223,-0.786 -4.25,0.828 -1.028,1.612 -4.181,1.345 -5.586,1.479 -1.405,0.134 -2.569,0.799 -3.837,1.392 -1.268,0.593 -1.679,1.463 -3.735,0 -2.056,-1.463 -4.285,0.023 -5.432,0 -1.147,-0.024 0.498,-2.276 -2.586,0.803 -3.084,3.079 -3.93,1.27 -4.638,3.305 -0.708,2.036 -0.807,2.788 -3.532,3.337 -2.726,0.549 -2.091,1.241 -4.67,1.717 -2.579,0.476 -3.974,0.757 -4.921,0 -0.947,-0.757 -1.975,-0.616 -2.592,-2.229 -0.616,-1.612 -0.411,-1.982 0,-2.826 0.411,-0.842 1.542,-1.519 1.594,-2.826 0.051,-1.306 0.771,-0.136 0,-2.674 -0.771,-2.538 -0.463,-3.899 0,-4.349 0.462,-0.451 0.095,-1.628 0.998,-2.787 0.903,-1.159 1.358,-1.569 0,-2.187 -1.358,-0.617 -2.293,-1.062 -4.293,-0.942 -1.999,0.12 -1.36,2.372 -3.119,-0.091 -1.758,-2.462 -2.594,-4.43 -3.615,-4.062 -1.021,0.367 -3.488,-0.573 -4.516,0 -1.028,0.573 -0.593,2.208 -0.81,4.062 -0.218,1.855 0.919,2.782 -1.088,3.963 -2.008,1.182 -3.558,-0.153 -5.25,0 -1.691,0.154 -1.595,1.697 -4.11,0 -2.515,-1.696 -4.982,-7.001 -4.982,-7.001 l 1.185,-0.94 c 2.035,-1.48 3.7,-2.775 2.591,-3.7 -1.11,-0.925 -2.775,0.555 -2.775,-1.11 0,-1.665 1.11,-2.774 2.405,-3.515 1.295,-0.74 2.405,-1.665 3.515,-2.035 1.11,-0.37 2.59,-0.185 2.775,0 0.185,0.185 1.11,-0.185 1.479,-1.11 0.37,-0.925 1.295,-2.034 2.405,-2.405 1.11,-0.37 3.144,0.185 4.07,0 0.925,-0.185 1.85,-1.85 1.85,-1.85 0,0 0.74,-0.74 -0.37,-1.295 -1.11,-0.555 -0.925,-1.48 -2.775,-1.11 -1.85,0.37 -2.22,-0.355 -3.7,-0.085 -1.481,0.27 -3.146,0.27 -2.035,-1.025 1.11,-1.295 0.925,-2.96 2.22,-4.255 1.295,-1.295 2.22,-3.145 3.146,-4.069 0.925,-0.925 2.22,-2.96 2.774,-3.885 0.556,-0.926 1.851,-2.96 2.59,-4.071 0.74,-1.11 1.11,-2.775 1.85,-3.33 0.74,-0.555 2.22,-3.515 3.144,-4.44 0.925,-0.925 2.775,-3.145 3.33,-3.885 0.555,-0.74 2.035,-0.925 1.481,-2.035 -0.555,-1.11 -0.37,-1.294 -1.481,-2.22 -1.109,-0.925 -1.109,0.37 -2.59,0 -1.48,-0.37 -3.145,-1.235 -2.035,-0.34 1.11,0.895 2.22,0.895 2.405,1.45 0.185,0.555 0.555,1.295 -0.555,2.775 -1.11,1.48 -1.037,2.774 -2.738,4.069 -1.702,1.295 -2.072,1.295 -3.737,3.515 -1.665,2.22 -1.85,3.145 -4.255,4.625 -2.405,1.48 -3.515,0.926 -3.7,1.665 -0.185,0.74 1.11,1.11 0.556,2.59 -0.556,1.48 -1.295,2.405 -2.22,3.7 -0.925,1.296 -2.035,2.59 -1.295,2.96 0.74,0.37 2.22,-0.185 1.295,1.48 -0.925,1.665 -0.925,0.74 -1.85,1.665 -0.925,0.925 -1.665,2.035 -2.59,2.96 -0.925,0.925 -0.185,0.74 -1.11,-0.555 -0.925,-1.295 1.11,-3.7 -0.925,-1.295 -2.035,2.405 -1.11,1.85 -4.07,4.256 -2.96,2.405 -4.069,1.479 -4.069,3.33 0,1.85 -2.59,3.7 -3.885,5.92 -1.295,2.219 -2.961,3.884 -3.515,3.329 -0.555,-0.555 -0.925,-1.85 -2.405,0.37 -1.479,2.22 -3.145,4.07 -4.44,5.365 -1.295,1.295 -1.295,0.186 -2.59,0.925 -1.295,0.74 -1.295,0.555 -2.775,0.37 -1.48,-0.185 -1.665,-1.109 -2.405,-0.555 -0.74,0.555 -0.37,1.295 1.11,1.48 1.479,0.185 1.11,-2.034 1.479,0.185 0.37,2.22 0,2.035 -1.109,4.07 -1.11,2.036 -1.11,2.22 -2.035,4.255 -0.925,2.035 -1.48,1.665 -2.22,3.33 -0.74,1.665 -3.146,4.069 -4.44,5.18 -1.295,1.11 -3.145,2.406 -4.625,3.7 -1.48,1.295 -1.295,1.48 -2.96,2.59 -1.665,1.109 -3.145,2.589 -4.255,2.774 -1.11,0.185 -2.22,2.59 -3.146,1.295 -0.925,-1.295 1.295,-2.589 -0.925,-2.96 -2.22,-0.37 -4.439,-0.185 -5.18,-0.925 -0.74,-0.74 -0.74,-3.7 -2.035,-2.775 -1.295,0.925 -1.11,1.48 -2.22,0.37 -1.11,-1.11 -1.295,-2.775 -0.925,-3.33 0.37,-0.555 1.295,-1.48 1.479,-2.22 0.185,-0.74 0.925,-1.48 1.295,-2.405 0.37,-0.925 1.665,-2.22 0.37,-2.035 -1.295,0.185 -1.11,-0.925 -2.035,1.295 -0.925,2.22 -0.185,0.185 -0.925,2.22 -0.74,2.035 -0.925,3.33 -1.85,3.515 -0.925,0.185 -2.405,0.185 -3.7,0 -1.295,-0.185 -1.851,-1.48 -3.515,-1.664 -1.665,-0.186 -3.7,-0.371 -5.18,-1.111 -1.479,-0.74 -2.59,-0.37 -3.885,-1.48 -1.295,-1.11 -4.81,-3.515 -4.81,-3.515 0,0 0,-1.48 -1.109,-2.59 -1.11,-1.11 -1.665,-1.11 -2.035,-2.035 -0.37,-0.925 -1.48,-1.48 -1.665,-2.405 -0.185,-0.926 0.37,-1.851 -1.295,-3.146 -1.665,-1.295 -1.85,-0.555 -2.59,-2.219 -0.74,-1.666 -0.74,-2.776 -0.925,-4.811 -0.185,-2.035 -0.37,-2.22 1.295,-2.59 1.665,-0.37 3.145,0.555 4.255,-0.185 1.109,-0.74 1.665,-2.035 2.59,-1.664 0.925,0.369 1.665,1.294 2.775,0.739 1.11,-0.555 1.665,-1.295 2.775,-0.185 1.11,1.11 0.74,2.22 1.665,2.775 0.925,0.555 1.11,1.48 2.22,0.925 1.11,-0.555 0.37,-0.555 0.555,-2.22 0.185,-1.665 -0.555,-1.85 1.295,-2.405 1.85,-0.554 1.295,0.371 2.96,-0.554 1.665,-0.926 2.035,-1.296 2.96,-2.036 0.925,-0.74 1.295,-0.74 2.59,-1.851 1.295,-1.109 1.48,-1.665 2.775,-2.775 1.295,-1.11 2.22,-0.925 3.33,-1.48 1.11,-0.555 1.85,-1.48 3.145,-0.925 1.295,0.555 2.22,1.48 2.775,2.405 0.555,0.925 0.739,0.555 1.85,1.11 1.11,0.556 1.48,0.74 2.775,1.111 1.295,0.37 3.7,0.37 4.625,0.37 0.925,0 3.885,0.185 4.439,-0.186 0.555,-0.37 0.925,-0.925 2.22,-0.925 1.295,0 4.44,-0.37 4.44,-0.37 l 2.96,-0.555 -3.33,-0.925 c 0,0 0.925,-0.925 -1.295,-0.555 -2.22,0.37 -2.59,-0.185 -4.625,0.185 -2.035,0.37 -1.665,0.925 -3.7,1.295 -2.035,0.37 -2.035,0.37 -4.069,-0.185 -2.035,-0.555 -0.74,0.185 -2.96,-1.85 -2.22,-2.035 -2.405,-2.59 -3.885,-3.33 -1.479,-0.74 -0.925,-1.295 -3.885,-0.925 -2.96,0.37 -3.33,0 -4.81,0.925 -1.481,0.925 -2.405,2.59 -4.255,3.885 -1.85,1.295 -2.22,3.146 -3.885,3.515 -1.665,0.37 -1.665,-1.11 -2.96,-0.925 -1.295,0.185 -4.07,2.405 -4.995,1.48 -0.925,-0.925 -0.925,-0.555 -2.775,-0.741 -1.85,-0.184 0,-1.109 -2.035,-1.479 -2.035,-0.37 -2.775,0.555 -3.7,0.555 -0.925,0 0,0.37 -1.11,1.48 -1.11,1.11 -1.665,0.74 -2.035,-0.186 -0.37,-0.925 2.22,-0.554 -0.37,-0.925 -2.59,-0.37 -2.96,-0.185 -4.625,0 -1.665,0.185 -0.74,-0.37 -2.22,-1.109 -1.48,-0.741 -0.37,-1.11 -2.405,-1.48 -2.035,-0.37 -1.665,-1.11 -2.96,-0.555 -1.295,0.555 -1.665,1.48 -2.59,1.11 -0.925,-0.37 -2.22,-1.665 -3.33,-1.11 -1.11,0.555 -0.74,1.665 -2.405,2.22 -1.665,0.555 -0.925,-0.74 -3.33,-0.555 -2.405,0.185 -1.48,-1.295 -3.145,-1.295 -1.665,0 -2.405,-1.48 -3.515,-2.59 -1.11,-1.11 -2.405,-2.035 -2.22,-3.33 0.185,-1.295 -2.07,-1.85 -0.018,-2.405 2.053,-0.555 3.163,-0.74 3.163,-1.48 0,-0.74 -0.185,-0.925 1.11,-0.925 1.295,0 1.665,-0.37 1.85,-1.295 0.186,-0.925 1.295,0.74 0.186,-0.925 -1.11,-1.665 -4.07,-0.74 -1.11,-1.665 2.96,-0.925 2.96,0.37 4.07,-0.925 1.11,-1.294 0.185,-1.85 2.22,-2.035 2.035,-0.185 3.146,-0.555 4.81,-0.37 1.665,0.185 0.74,0.555 2.96,0.74 2.22,0.185 2.96,-0.185 4.995,0 2.035,0.185 1.48,0.185 2.96,-0.185 1.48,-0.37 2.405,-0.74 2.22,-1.295 -0.185,-0.554 -0.37,0.185 1.665,-0.37 2.035,-0.555 2.96,-0.37 3.7,-1.11 0.74,-0.74 -0.185,-2.775 1.109,-2.59 1.295,0.186 2.035,1.48 2.96,2.59 0.925,1.11 2.59,2.59 3.146,3.145 0.555,0.555 0.185,2.96 1.295,2.775 1.11,-0.185 1.295,-0.925 1.665,-1.85 0.37,-0.925 1.665,-2.22 1.479,-2.775 -0.185,-0.555 0.74,1.11 -0.185,-0.555 -0.925,-1.665 -1.48,-2.775 -0.186,-2.775 1.295,0 1.666,0.185 2.405,0.555 0.74,0.37 1.295,0.37 2.22,0.37 0.925,0 1.48,-0.185 2.035,0.37 0.556,0.555 -0.74,2.22 0.556,0.555 1.295,-1.665 -0.185,-0.74 1.295,-1.665 1.479,-0.925 1.665,-1.295 2.405,-1.295 0.74,0 0.37,-1.48 1.11,-1.11 0.74,0.37 0.555,1.295 1.85,1.665 1.295,0.37 2.59,0.555 3.33,0.37 0.74,-0.185 1.48,-1.295 0.555,-1.479 -0.925,-0.186 -2.221,-0.556 -3.7,-1.11 -1.48,-0.555 -3.33,-1.11 -4.255,-1.48 -0.925,-0.37 -1.85,-1.48 -3.33,-2.034 -1.481,-0.556 -3.885,-0.186 -3.7,-1.296 0.185,-1.109 0.74,-2.405 0.925,-3.33 0.186,-0.925 0.37,-2.035 1.851,-2.22 1.479,-0.186 2.22,0 3.144,0.185 0.924,0.185 2.59,-0.555 3.33,-0.555 0.74,0 2.405,-1.095 3.145,-1.288 0.74,-0.192 1.11,-1.117 2.035,-0.933 0.925,0.186 1.85,0.37 2.96,0.925 1.11,0.555 1.11,-0.604 2.59,-0.95 1.48,-0.346 1.295,-1.825 2.035,-2.75 0.74,-0.925 0.74,-2.035 1.851,-2.22 1.109,-0.185 2.22,-0.925 2.22,-1.479 0,-0.555 0,-1.85 -0.74,-1.85 -0.74,0 -1.85,0.555 -2.404,1.295 -0.556,0.74 -2.035,1.665 -2.221,2.59 -0.185,0.925 -0.555,2.96 -1.109,2.774 -0.555,-0.185 -1.665,-0.555 -2.775,-0.37 -1.11,0.185 -1.295,0 -2.405,-0.37 -1.11,-0.37 -2.405,0.185 -2.775,-0.925 -0.37,-1.109 -0.186,-2.22 0.925,-2.774 1.11,-0.555 1.665,-1.851 2.96,-2.22 1.295,-0.37 3.515,-0.555 3.515,-1.295 0,-0.74 -0.185,-1.48 -0.74,-1.665 -0.556,-0.185 -2.221,0.185 -3.885,0 -1.666,-0.185 -2.405,0.37 -5.55,0.74 -3.145,0.37 -3.33,0.37 -4.44,0.925 -1.11,0.556 -2.96,0.37 -3.7,0.74 -0.74,0.37 -1.85,0.37 -2.035,1.11 -0.185,0.74 -0.37,0.555 -2.22,0.185 -1.851,-0.371 -2.035,-0.185 -3.146,-1.295 -1.11,-1.109 -1.479,-2.142 -0.74,-2.458 0.74,-0.317 2.22,1.611 2.405,0 0.185,-1.611 0,-2.722 1.11,-2.722 1.109,0 0.74,-0.555 2.22,0 1.48,0.555 1.85,1.295 2.405,1.295 0.555,0 2.59,-0.863 2.035,-1.542 -0.556,-0.678 1.109,-0.123 -0.556,-0.678 -1.664,-0.556 -1.664,-0.556 -1.664,-0.556 0,0 -0.555,-0.555 -1.665,-0.925 -1.11,-0.37 -1.48,-0.555 -0.925,-1.849 0.555,-1.296 1.295,-0.371 1.851,-1.851 0.555,-1.479 1.109,-2.774 1.295,-3.885 0.185,-1.11 1.109,-2.96 1.295,-3.514 0.185,-0.556 0.74,-1.666 1.109,-2.036 0.37,-0.37 1.11,1.111 1.666,0.925 0.555,-0.185 0.74,-1.85 0.74,-1.85 0,0 -0.925,0.555 -1.665,0 -0.74,-0.555 -1.665,-0.74 -1.479,-1.665 0.185,-0.925 0.37,-1.48 0.739,-2.59 0.37,-1.11 1.11,-0.74 1.295,-2.034 0.185,-1.296 0.185,-2.036 0.555,-2.591 0.37,-0.555 0.37,-1.665 1.85,-1.665 1.48,0 1.851,0.185 3.33,0 1.481,-0.185 1.481,0.925 2.59,0 1.11,-0.925 1.665,-1.295 2.59,-1.295 0.926,0 1.11,-0.925 2.591,0 1.479,0.925 1.85,2.59 2.22,3.33 0.37,0.74 2.96,4.44 2.96,4.44 0,0 0.37,1.11 1.85,1.666 1.481,0.554 3.516,1.109 3.516,1.109 l 2.035,0.555 h 2.035 c 0,0 0.555,-0.185 0.555,-1.295 0,-1.11 0.185,-0.555 -1.295,-2.035 -1.48,-1.48 -1.851,-0.37 -3.146,-1.295 -1.295,-0.924 -0.555,-1.85 -2.035,-2.96 -1.479,-1.11 -2.035,-1.481 -1.85,-2.96 0.185,-1.48 -0.74,-0.185 0.185,-1.48 0.925,-1.294 0.74,1.11 0.925,-1.294 0.185,-2.404 -0.555,-2.22 -1.85,-2.59 -1.295,-0.37 -2.22,0.186 -3.7,0 -1.479,-0.185 -1.295,0.555 -1.85,1.111 -0.555,0.554 -1.665,0.924 -2.405,0.369 -0.74,-0.555 -0.555,-0.075 -1.11,-1.61 -0.555,-1.535 0.74,-2.275 -0.185,-3.015 -0.925,-0.74 -0.925,1.48 -1.85,1.295 -0.925,-0.185 -0.556,-0.488 -1.665,-1.447 -1.11,-0.957 -0.925,-1.143 -1.665,-2.253 -0.74,-1.11 -2.59,0.74 -0.74,-1.11 1.85,-1.85 1.85,-1.295 2.775,-2.775 0.925,-1.48 1.109,-1.665 2.405,-2.775 1.294,-1.11 2.59,-0.74 3.515,-2.22 0.925,-1.48 0.739,-2.59 1.479,-3.884 0.74,-1.296 0.37,-1.111 2.59,-1.666 2.221,-0.555 2.775,1.11 4.255,0 1.48,-1.11 1.48,-2.035 2.96,-2.035 1.48,0 1.295,-1.11 2.405,0 1.11,1.11 0.925,1.479 2.775,1.479 1.85,0 2.035,0.185 3.33,1.48 1.295,1.295 1.11,1.665 2.035,2.59 0.925,0.925 -0.925,0 0.925,0.925 1.85,0.925 2.22,1.85 3.144,2.405 0.925,0.555 1.851,1.11 2.59,1.295 0.74,0.184 0.556,-1.85 1.666,-2.22 1.11,-0.37 1.11,-0.37 2.22,-0.74 1.11,-0.37 4.255,-0.925 4.81,-1.11 0.555,-0.185 3.7,-1.11 3.7,-1.11 l 2.59,-0.555 h 3.146 c 0,0 -2.775,-1.665 -3.516,-1.665 -0.74,0 -1.295,0 -3.33,0.555 -2.035,0.555 -4.439,1.48 -6.104,1.48 -1.665,0 -4.255,0.74 -5.365,0.555 -1.11,-0.185 -2.775,-0.739 -3.145,-1.85 -0.37,-1.11 -0.74,-2.405 -1.11,-3.145 -0.37,-0.74 -0.74,-1.48 -1.295,-2.034 -0.555,-0.556 0.185,2.034 -1.295,0 -1.481,-2.036 -3.146,-2.036 -4.255,-2.406 -1.11,-0.37 -2.775,0.185 -4.255,0 -1.48,-0.185 -3.33,1.22 -4.255,-0.13 -0.925,-1.35 -1.666,-1.165 -2.035,-3.015 -0.37,-1.85 -1.11,-3.33 0,-4.625 1.11,-1.295 1.85,-2.959 3.33,-3.885 1.48,-0.925 2.775,-1.665 3.33,-2.589 0.556,-0.925 -0.37,-1.85 0.556,-2.59 0.925,-0.74 1.479,-1.665 0.925,-2.219 -0.555,-0.556 -0.74,-1.481 -1.85,-1.665 -1.11,-0.186 -2.035,-0.925 -1.295,-2.035 0.74,-1.11 1.665,-3.885 2.405,-3.885 0.74,0 2.22,0.925 2.96,0 0.74,-0.925 1.295,-2.405 1.851,-2.22 0.555,0.185 2.22,0.708 3.515,-0.016 1.295,-0.724 2.96,-1.833 2.96,-1.833 0,0 2.035,0.37 2.775,0 0.74,-0.371 1.85,0.554 2.22,1.665 0.37,1.11 1.11,2.775 2.59,4.625 1.48,1.85 3.33,2.22 4.44,3.145 1.109,0.925 2.22,2.221 2.59,2.775 0.37,0.555 1.109,1.85 1.665,1.11 0.555,-0.74 1.479,-2.775 2.035,-2.775 0.555,0 2.405,-1.48 2.405,-1.48 0,0 1.11,-1.665 0.556,-1.665 -0.556,0 -2.96,0.925 -4.44,0.555 -1.48,-0.37 -2.22,-0.555 -3.7,-1.295 -1.479,-0.74 -1.85,-3.7 -3.144,-4.07 -1.295,-0.37 -2.59,-1.461 -3.7,-2.673 -1.11,-1.212 -1.85,-2.507 -1.665,-3.062 0.185,-0.555 3.515,-4.995 3.515,-4.995 0,0 -4.625,2.035 -4.07,3.515 0.555,1.48 -0.555,3.146 -0.926,2.59 -0.369,-0.555 1.295,-1.666 -0.369,-1.48 -1.665,0.185 0,-0.556 -1.665,0.185 -1.665,0.74 -1.851,0 -2.96,0.371 -1.11,0.37 -1.48,-0.185 -2.221,0.74 -0.74,0.925 -1.479,1.665 -1.85,0.74 -0.37,-0.926 1.295,-0.371 -0.37,-0.926 -1.665,-0.554 -1.665,0.555 -2.59,0 -0.925,-0.554 0,-1.109 -1.295,-1.665 -1.295,-0.555 1.295,-1.11 -1.295,-0.555 -2.59,0.555 -4.625,1.11 -6.29,1.11 -1.665,0 -2.59,0.185 -4.44,0 -1.85,-0.185 -1.85,-0.185 -1.85,-0.185 0,0 0.74,-1.295 0.555,-2.219 -0.185,-0.925 -1.295,-1.111 -0.37,-2.221 0.925,-1.11 0,-0.74 0.37,-2.035 0.37,-1.295 0.185,-1.11 1.295,-1.851 1.11,-0.74 1.11,-2.035 2.035,-2.22 0.925,-0.185 1.665,0.555 2.22,0 0.556,-0.555 0.186,-0.37 0.186,-1.665 0,-1.295 -1.295,0.185 0,-1.295 1.295,-1.48 1.295,-1.11 2.22,-1.665 0.925,-0.554 2.22,-0.925 2.22,-0.925 l 0.37,0.925 c 0,0 -1.665,0.74 -1.665,1.295 0,0.556 1.665,-0.185 2.405,-0.185 0.74,0 2.775,-0.37 3.33,-0.556 0.555,-0.184 2.22,-1.109 3.145,-1.479 0.925,-0.37 1.11,-1.295 2.775,-1.481 1.665,-0.184 3.7,0.741 4.44,0 0.74,-0.739 2.035,-2.22 3.145,-2.774 1.11,-0.555 3.145,-3.33 4.255,-4.255 1.11,-0.925 2.96,-1.85 3.515,-3.145 0.556,-1.295 -0.185,-1.48 0.74,-2.96 0.925,-1.48 1.295,-1.48 0.74,-2.775 -0.555,-1.294 1.48,-1.294 -0.555,-1.294 -2.035,0 -1.665,0 -2.96,2.034 -1.295,2.035 -1.481,1.11 -2.59,2.59 -1.11,1.48 -0.925,0.186 -1.11,1.48 -0.186,1.295 0.185,1.85 -1.11,2.59 -1.295,0.74 -1.85,2.22 -2.96,3.145 -1.11,0.925 -2.035,2.405 -3.145,2.96 -1.11,0.555 -1.665,0.185 -3.146,0.37 -1.479,0.185 -2.59,0.37 -3.515,0.555 -0.925,0.185 -1.295,-0.185 -1.295,-0.925 0,-0.739 0,-0.555 -1.11,-0.925 -1.11,-0.37 -1.665,-0.925 -2.035,-1.48 -0.37,-0.555 -0.555,-1.48 0.37,-2.22 0.925,-0.74 1.85,-0.555 2.775,-1.11 0.925,-0.555 1.479,-1.11 1.479,-1.665 0,-0.555 0,-1.11 -0.74,-1.665 -0.74,-0.555 -1.48,-0.185 -0.74,-1.48 0.74,-1.294 1.11,-1.665 0.925,-2.405 -0.185,-0.74 -1.11,0.37 -1.665,1.111 -0.555,0.739 -0.925,2.034 -1.85,2.774 -0.926,0.74 -2.035,1.295 -3.33,2.22 -1.295,0.925 -4.44,2.775 -5.55,3.885 -1.11,1.11 -3.145,3.885 -3.7,4.44 -0.555,0.555 -3.7,1.666 -4.625,1.666 -0.925,0 -2.775,1.11 -3.7,0.185 -0.925,-0.925 -2.405,-1.48 -2.59,-2.405 -0.185,-0.925 -0.74,-2.22 -0.37,-2.775 0.37,-0.555 -0.37,-1.665 -0.37,-1.665 l -0.74,2.96 -1.11,-0.74 c 0,0 0,-2.59 -0.185,-3.515 -0.185,-0.925 -0.185,-1.85 0.37,-2.405 0.555,-0.555 -0.37,-1.665 0.555,-1.85 0.925,-0.185 0.925,0.925 0.925,-0.185 0,-1.11 0.185,-1.85 -0.555,-2.589 -0.74,-0.741 -1.11,-2.96 -0.925,-2.96 0.185,0 0.74,-3.146 0.74,-3.146 0,0 2.22,-0.555 1.479,-1.665 -0.74,-1.11 -1.109,0.555 -2.774,0 -1.665,-0.554 -3.33,1.439 -3.885,-0.391 -0.555,-1.829 -0.555,-3.31 -0.74,-4.789 -0.186,-1.481 -0.555,-1.851 -1.11,-3.145 -0.555,-1.295 -0.37,-1.665 -0.185,-3.145 0.185,-1.48 0.555,-1.11 0.369,-2.405 -0.185,-1.294 0.371,-3.33 0.556,-4.07 0.185,-0.74 0.925,-2.774 1.11,-3.33 0.185,-0.555 0.185,-2.59 0.185,-3.145 0,-0.555 0,-2.405 0.185,-2.959 0.186,-0.556 0.556,-2.221 0.556,-2.221 l 0.37,-1.664 c 0,0 0.925,2.036 1.295,1.109 0.37,-0.925 -0.37,-1.479 -0.556,-2.589 -0.185,-1.11 -0.37,-1.666 0.74,-1.666 1.11,0 1.11,-1.48 2.59,-1.295 1.48,0.185 0.925,1.111 2.22,1.48 1.295,0.37 1.851,0.555 2.221,1.295 0.37,0.74 0.555,1.479 1.479,2.404 0.925,0.925 1.48,1.11 2.22,1.48 0.74,0.37 0.74,1.295 1.11,1.85 0.37,0.555 0.925,0.555 1.48,0.555 0.555,0 2.405,0.185 2.405,0.185 1.295,0.555 0.925,-0.74 0.74,-1.48 -0.185,-0.74 2.035,-0.369 2.035,0.185 0,0.555 0.185,0.74 0,1.665 -0.185,0.925 -0.185,2.59 0.74,2.775 0.925,0.185 0.74,1.11 1.295,1.295 0.555,0.185 2.405,1.11 2.405,1.11 l 1.109,2.035 c 0,0 1.11,2.035 1.481,1.11 0.37,-0.925 -0.186,-2.405 -0.37,-3.146 -0.185,-0.74 -0.555,-2.59 -0.555,-2.59 l -0.185,-1.85 c 0,0 0.74,-0.555 1.11,0.185 0.37,0.74 1.85,1.295 1.85,1.295 l 0.37,2.035 c 0,0 1.295,1.11 1.295,0.37 0,-0.74 0,-0.74 0,-0.74 0,0 0.37,-1.665 1.665,-1.665 1.295,0 0.925,0.74 2.22,0.74 1.295,0 0,0.925 1.295,0 1.295,-0.925 1.48,0 2.22,-0.185 0.74,-0.185 0.925,-0.925 1.85,-0.555 0.925,0.37 1.11,0.925 2.59,0.74 1.48,-0.185 1.295,0 2.035,-1.295 0.74,-1.295 1.295,-2.59 0,-2.775 -1.295,-0.184 -2.775,0.186 -3.885,-0.555 -1.11,-0.74 -3.146,-0.185 -4.44,-0.554 -1.295,-0.371 -2.404,-0.371 -3.33,-0.556 -0.925,-0.185 -2.035,0 -2.96,0 -0.925,0 1.294,-0.925 -0.925,0 -2.22,0.925 -1.85,2.22 -3.145,1.85 -1.295,-0.37 -0.926,-0.74 -2.405,-1.48 -1.481,-0.739 -1.295,-0.37 -2.405,-1.294 -1.109,-0.925 -2.96,-1.295 -1.85,-1.85 1.11,-0.555 1.665,0 2.59,-0.371 0.925,-0.37 0.925,-0.925 0.185,-1.665 -0.739,-0.741 -2.22,0 -2.96,-0.741 -0.739,-0.74 -1.665,0.153 -2.035,-1.311 -0.37,-1.464 -1.665,-2.759 -1.665,-3.869 0,-1.11 0.74,-1.85 -0.185,-2.96 -0.925,-1.11 -5.365,-5.92 -6.104,-6.475 -0.74,-0.555 -1.665,-1.664 -2.775,-1.109 -1.11,0.554 -2.405,3.33 -2.22,0.925 0.185,-2.406 0.74,-2.96 0.925,-3.701 0.185,-0.74 0,-2.035 0.555,-3.515 0.556,-1.48 0.925,-1.665 1.665,-3.146 0.74,-1.479 1.481,-0.184 0.74,-1.479 -0.74,-1.295 -0.925,-3.515 -0.185,-3.515 0.74,0 0,0.186 1.48,0 1.48,-0.185 1.11,-1.295 2.035,-1.664 0.925,-0.371 1.85,0 3.145,0 1.294,0 1.294,-1.254 2.405,-0.165 1.11,1.09 1.665,1.83 2.22,2.199 0.556,0.371 2.035,1.11 2.035,1.11 0,0 0.74,0.185 1.11,-0.555 0.37,-0.739 -0.186,0.37 0.37,-0.739 0.555,-1.111 0.555,-1.404 -0.186,-2.461 -0.74,-1.055 -1.295,-1.24 -0.925,-1.98 0.37,-0.74 0.925,-0.74 0,-2.035 -0.925,-1.295 -0.925,-1.665 -2.405,-1.48 -1.479,0.185 -2.959,1.021 -4.995,-0.044 -2.035,-1.066 -3.145,-1.066 -4.255,-2.361 -1.109,-1.295 -0.37,-1.665 -2.404,-1.665 -2.035,0 -2.035,-0.185 -2.405,-1.479 -0.37,-1.295 1.295,-1.665 0.74,-2.775 -0.555,-1.11 -0.37,-1.85 0.185,-3.515 0.555,-1.665 0.185,-3.145 0.185,-4.07 0,-0.925 -0.556,-4.625 -0.556,-4.625 0,0 -1.295,-0.74 -1.295,-1.48 0,-0.74 0.37,-1.11 0.37,-1.85 0,-0.74 0.37,0.925 0,-0.74 -0.37,-1.665 0.555,-2.775 0.555,-3.7 0,-0.925 0,-1.664 -0.555,-2.775 -0.555,-1.11 -0.925,-2.774 0.37,-2.59 1.295,0.185 1.479,0.371 2.59,0.74 1.11,0.37 1.665,1.081 2.59,-0.754 0.925,-1.836 1.295,-2.761 2.59,-2.391 1.295,0.37 1.295,0.925 2.591,0.925 1.295,0 0.925,-1.455 3.145,-1.005 2.22,0.45 3.145,-0.29 3.515,1.375 0.37,1.665 0,1.665 -0.555,2.59 -0.555,0.925 -0.444,2.21 0,2.59 1.295,1.11 0.74,2.22 1.295,3.145 0.555,0.925 1.48,1.295 1.851,2.035 0.369,0.74 0.74,2.035 0.555,3.33 -0.185,1.296 -0.555,3.7 -0.37,4.44 0.185,0.741 1.295,2.405 2.775,3.701 1.479,1.294 2.035,2.22 2.405,2.775 0.37,0.555 2.22,0.555 2.22,0.555 l 1.479,-0.37 c 0,0 0.555,-2.035 -0.185,-1.665 -0.74,0.37 -0.925,0.555 -1.48,-0.739 -0.555,-1.296 -1.295,-2.591 -1.295,-2.591 0,0 0.185,-1.48 0.925,-1.48 0.74,0 0,-1.85 0.74,0 0.74,1.85 1.665,2.035 1.665,2.035 l 1.48,-1.48 v -1.85 c 0,0 -1.665,1.294 -1.665,-0.186 0,-1.479 0.369,-2.035 0.925,-2.96 0.555,-0.925 1.479,-6.104 0.74,-6.845 -0.74,-0.74 -1.85,-0.555 -2.035,-1.11 -0.185,-0.555 0.739,-2.034 -0.74,-2.22 -1.481,-0.185 -2.22,0 -3.145,-0.555 -0.925,-0.556 -2.22,-0.186 -1.85,-1.295 0.37,-1.11 1.48,-0.925 0.37,-2.035 -1.11,-1.11 -2.035,-1.294 -1.85,-2.22 0.185,-0.925 1.48,-0.925 0.925,-1.85 -0.555,-0.925 -0.74,0 -0.555,-0.925 0.185,-0.925 1.295,-0.925 1.11,-1.85 -0.185,-0.925 -0.74,-0.925 0.185,-2.22 0.925,-1.295 1.85,-1.665 2.035,-2.59 0.185,-0.924 -0.185,-1.11 0.555,-2.035 0.739,-0.925 1.85,-1.294 3.33,0 1.479,1.295 2.035,1.665 2.774,2.22 0.74,0.555 -1.295,0.185 0.74,0.555 2.035,0.37 1.665,0.925 2.035,1.665 0.37,0.74 0.74,1.85 0.555,2.59 -0.185,0.74 -0.37,2.035 0.185,2.96 0.555,0.925 0.555,2.775 1.11,3.515 0.555,0.741 3.515,0.556 4.07,1.296 0.555,0.739 3.515,0.555 3.515,0.555 l 2.405,1.665 c 0,0 1.11,0.555 1.665,0.555 0.555,0 1.11,-0.185 0.925,-1.48 -0.185,-1.294 -0.925,-1.665 -0.37,-2.22 0.555,-0.554 1.665,-1.109 1.665,-1.109 0,0 -0.37,-0.926 -0.185,-1.48 0.185,-0.555 -0.925,0.74 0.185,-0.555 1.11,-1.294 0.555,-0.74 0.74,-2.22 0.185,-1.48 1.295,-4.44 1.295,-4.44 0,0 0.555,-0.37 1.48,0 0.925,0.37 2.775,1.11 3.885,1.85 1.11,0.74 5.734,4.441 6.29,4.995 0.555,0.555 0,2.775 2.22,3.886 2.22,1.109 4.625,1.85 4.625,1.85 0,0 0.925,0.37 2.96,1.111 2.035,0.739 5.92,2.774 6.475,2.034 0.555,-0.74 0.555,-2.034 -0.74,-2.034 -1.295,0 -2.035,-0.926 -2.405,-1.666 -0.37,-0.739 1.11,-2.035 -0.925,-2.59 -2.035,-0.555 -6.29,-0.555 -7.4,-1.479 -1.11,-0.925 -0.555,-2.035 -1.295,-3.146 -0.74,-1.109 -2.22,-2.774 -2.775,-3.7 -0.555,-0.925 0,-1.665 -1.48,-1.85 -1.48,-0.185 -4.44,0.74 -5.365,0.185 -0.925,-0.555 -0.925,-2.22 -1.479,-3.145 -0.555,-0.925 -2.035,0.728 -1.48,-1.208 0.555,-1.937 0.74,-2.122 1.665,-1.752 0.925,0.371 1.665,0.06 2.035,-0.155 0.37,-0.215 -0.886,-1.695 1.314,-0.955 2.201,0.739 2.386,1.48 2.57,2.22 0.186,0.741 0.74,2.22 1.851,2.59 1.109,0.37 1.85,2.035 3.7,2.035 1.85,0 3.7,-0.37 4.624,-0.925 0.926,-0.555 3.331,-0.925 4.626,-0.185 1.295,0.74 4.624,3.515 6.66,5.365 2.035,1.85 3.7,2.961 4.255,3.33 0.556,0.37 0.926,1.295 1.666,1.479 0.74,0.186 1.294,-0.74 2.59,0.925 1.295,1.665 6.105,12.95 6.845,12.765 0.74,-0.185 1.665,-1.665 1.665,-2.22 0,-0.555 -1.11,-3.515 -2.035,-4.81 -0.925,-1.295 -1.85,-2.775 -2.035,-3.33 -0.185,-0.555 -0.925,-2.775 -0.925,-2.775 l -3.145,-1.665 -1.295,-1.48 c 0,0 -1.295,-1.85 -1.85,-2.405 -0.555,-0.555 -1.11,0.37 -1.85,-0.37 -0.74,-0.74 0,-1.295 -1.11,-2.22 -1.11,-0.925 -2.96,-2.035 -3.7,-2.59 -0.74,-0.555 -1.11,-0.37 -2.22,-1.665 -1.11,-1.295 -1.11,-2.22 -0.555,-2.405 0.555,-0.184 1.48,0.185 2.22,-0.739 0.74,-0.925 0.925,0.329 2.22,-1.131 1.295,-1.459 0.74,-1.644 0.925,-2.569 0.186,-0.925 -0.555,0.371 -1.109,0 -0.556,-0.37 -0.556,-0.74 -0.925,-1.664 -0.37,-0.925 -1.666,-0.186 -2.775,-1.111 -1.11,-0.925 -2.405,-0.185 -3.146,-1.11 -0.74,-0.925 -0.185,-2.22 -1.295,-2.405 -1.109,-0.185 -5.55,-1.481 -6.475,-1.85 -0.925,-0.37 -2.405,0.925 -2.775,0 -0.37,-0.925 0.37,-2.59 0.37,-2.59 0,0 -1.665,-2.034 -1.85,-2.589 -0.185,-0.555 0.555,-2.405 -0.925,-2.22 -1.48,0.185 -3.33,1.824 -2.96,-0.013 0.37,-1.837 0.74,-2.947 0.185,-3.872 -0.555,-0.925 -0.886,-2.405 -2.016,-2.405 -1.129,0 -2.239,0.185 -2.98,0 -0.74,-0.185 -1.295,0.741 -2.405,0 h -0.863 c -0.555,-0.247 -0.925,-0.616 -0.986,-0.863 -0.061,-0.247 -0.061,-0.493 0,-1.294 0.062,-0.802 1.479,-0.247 1.11,-1.357 -0.37,-1.11 0.74,0.37 -0.37,-1.11 -1.11,-1.48 -1.851,-1.85 -2.775,-2.405 -0.925,-0.555 -2.405,-1.665 -2.405,-2.59 0,-0.925 1.11,-1.11 0.74,-2.405 -0.37,-1.295 -0.74,-2.22 0.185,-3.331 0.925,-1.109 1.11,-4.625 4.81,-1.295 3.7,3.33 4.81,4.626 4.995,5.181 0.185,0.555 0.224,1.295 0.944,2.405 0.721,1.11 1.275,2.775 1.461,2.22 0.185,-0.555 0,-2.405 0.185,-3.515 0.185,-1.109 1.11,-1.295 1.85,-1.109 0.74,0.185 0.74,1.109 2.035,1.664 1.295,0.555 2.59,0.925 3.146,0.74 0.555,-0.185 0.185,-0.74 1.295,-1.11 1.11,-0.37 0.74,-0.74 0.74,-1.665 0,-0.926 -0.185,-2.406 0.555,-1.851 0.74,0.556 0.555,-0.37 0.555,-1.295 0,-0.924 0.74,-1.11 0.37,-2.035 -0.37,-0.925 -0.37,-0.925 -0.37,-0.925 0,0 -0.185,-1.85 -0.74,-2.22 -0.555,-0.37 -0.925,1.11 -1.48,0 -0.555,-1.11 -1.11,-1.665 -0.555,-2.035 0.555,-0.37 1.479,0 2.774,0 1.295,0 2.405,0.041 3.146,-0.164 0.739,-0.206 -0.37,-0.391 -1.295,-0.946 -0.926,-0.555 -1.481,-0.37 -2.59,-1.11 -1.11,-0.74 -2.96,-1.11 -2.22,-1.85 0.74,-0.739 0.74,-0.185 2.035,0 1.295,0.186 1.48,0.362 2.405,-0.374 0.925,-0.736 -0.74,0.929 0.925,-0.736 1.665,-1.665 2.22,-1.85 2.59,-2.59 0.37,-0.74 1.665,-0.74 0.37,-0.74 -1.295,0 -2.22,0.925 -2.96,0.925 -0.74,0 -1.11,-0.37 -1.85,0 -0.74,0.371 -0.925,-0.925 -2.59,-0.925 -1.665,0 -2.959,1.665 -2.22,0 0.74,-1.665 1.665,-0.37 0.74,-1.665 -0.925,-1.295 -2.405,-1.481 -1.851,-2.035 0.556,-0.555 -0.555,0.37 0.556,-0.555 1.11,-0.925 1.85,-2.035 0.74,-2.035 -1.11,0 0.74,0.741 -1.11,0 -1.85,-0.74 -2.22,-1.11 -2.775,-2.035 -0.555,-0.925 0,-2.405 -0.74,-2.96 -0.74,-0.555 -2.035,-1.11 -2.22,-1.664 -0.185,-0.555 -0.331,-1.11 -0.905,-2.775 -0.574,-1.666 -1.869,-3.516 -3.35,-4.256 -1.479,-0.739 -2.22,-0.925 -1.85,-1.85 0.37,-0.925 1.11,-1.11 1.11,-2.219 0,-1.111 -0.37,-1.665 0.555,-2.406 0.925,-0.74 0.925,-2.405 1.665,-2.035 0.74,0.37 0.74,1.85 0.74,1.85 0,0 0.594,1.295 1.129,1.295 0.535,0 3.311,0.185 3.311,0.185 0,0 -0.74,0.74 0.185,1.48 0.926,0.74 2.035,1.295 2.591,2.035 0.555,0.74 0.185,2.221 1.109,2.59 0.925,0.371 2.405,-1.665 2.96,-1.85 0.556,-0.184 0.925,0.555 1.665,-0.37 0.74,-0.924 0.37,-1.479 1.295,-1.849 0.925,-0.371 2.59,-1.111 2.59,-1.111 l 1.48,-0.74 c 0,0 1.295,-1.665 1.665,-0.925 0.37,0.74 0.74,-0.74 1.665,-0.185 0.925,0.555 1.295,1.479 2.775,1.11 1.48,-0.37 0.37,-1.295 1.48,-0.37 1.11,0.925 2.59,0.74 2.405,0 -0.186,-0.74 0,-2.035 0.555,-2.035 0.555,0 1.85,0 1.85,0 l 1.295,-1.163 c 0,0 1.11,0.977 1.11,1.533 0,0.555 0.74,1.665 0.74,1.665 l 0.74,-2.035 c 0,0 -1.11,-0.105 -0.74,-1.163 0.37,-1.057 1.295,-1.797 2.035,-1.057 0.74,0.74 1.479,1.48 2.035,2.22 0.555,0.74 1.109,1.479 2.22,1.665 1.11,0.185 2.405,1.479 2.405,1.479 0,0 0.555,-1.11 1.479,-0.925 0.925,0.185 2.035,0.74 2.59,-0.185 0.556,-0.925 2.59,-0.555 2.59,-0.555 0,0 0.37,1.665 0.925,2.405 0.555,0.74 2.035,3.7 2.774,4.44 0.74,0.74 2.59,0.74 2.59,0.74 l 2.775,1.665 -0.74,-2.22 c 0,0 0.185,-1.48 -1.109,-2.219 -1.295,-0.741 -2.405,-1.666 -3.516,-2.591 -1.109,-0.925 -1.85,-1.48 -0.925,-2.035 0.925,-0.556 2.035,0.185 2.59,0.185 0.555,0 2.775,-0.185 2.775,-0.185 l 2.96,-0.556 c 0,0 -1.85,-1.295 -2.22,-1.295 -0.37,0 -2.59,1.11 -3.33,0.74 -0.74,-0.37 -0.926,-0.925 -2.035,-0.925 -1.11,0 -1.665,0.37 -3.145,-0.185 -1.48,-0.555 -2.961,0 -4.07,0.185 -1.11,0.184 -2.035,0.555 -3.516,0 -1.479,-0.555 -2.59,-1.338 -3.7,-2.149 -1.11,-0.811 -0.37,-1.366 -2.035,-1.736 -1.665,-0.37 -2.22,1.48 -3.146,0 -0.925,-1.48 -1.11,-1.85 -0.555,-2.775 0.555,-0.925 1.665,0.555 0.555,-0.925 -1.11,-1.48 0.186,-0.74 -1.11,-1.48 -1.295,-0.74 -2.22,-2.405 -0.925,-2.405 1.294,0 1.85,1.295 1.294,0 -0.555,-1.295 -1.294,-1.11 -0.925,-2.221 0.37,-1.109 1.851,-0.925 1.481,-1.85 -0.37,-0.925 -0.556,-1.85 -1.665,-0.925 -1.11,0.925 -1.48,2.035 -2.22,0.925 -0.74,-1.11 -0.555,-2.035 -0.555,-2.775 0,-0.74 0.925,0.555 0,-0.74 -0.925,-1.295 -0.555,-0.925 -1.295,-2.22 -0.74,-1.294 -1.295,-2.59 -1.295,-2.59 0,0 1.48,-0.37 2.405,0 0.925,0.37 2.96,0.966 2.035,-0.164 -0.926,-1.131 -1.48,-0.761 -2.405,-1.501 -0.925,-0.741 -1.11,0 0,-2.035 1.11,-2.035 1.665,-2.59 2.405,-3.515 0.74,-0.925 0.37,-1.294 0.185,-2.59 -0.185,-1.295 -0.555,-2.59 0.185,-3.7 0.74,-1.11 1.48,-0.37 2.405,0 0.925,0.37 0.555,2.22 1.851,2.22 1.295,0 2.404,0.925 3.145,1.295 0.74,0.37 1.295,0.37 2.59,0.925 1.295,0.556 1.295,1.481 2.22,1.665 0.925,0.185 1.85,1.11 1.85,1.11 0,0 2.035,0.925 2.22,0.185 0.186,-0.74 -2.22,-1.48 -2.22,-2.405 0,-0.925 -1.295,-2.221 -1.295,-2.221 -1.295,-0.37 -2.22,-1.11 -2.22,-1.665 0,-0.555 0.37,-1.727 -1.11,-1.696 -1.48,0.031 -2.035,1.077 -3.7,-10e-4 -1.665,-1.078 -1.479,-1.633 -0.185,-1.818 1.295,-0.185 4.995,1.665 2.774,0 -2.22,-1.665 -2.774,-1.479 -3.515,-2.59 -0.74,-1.109 0,-2.22 0.74,-2.405 0.74,-0.184 2.774,-0.555 2.22,-0.925 -0.555,-0.37 -1.11,-1.479 0,-1.85 1.11,-0.37 2.96,1.48 2.405,0 -0.555,-1.48 1.479,-1.665 2.774,-1.48 1.295,0.186 -2.96,-1.295 -2.96,-1.295 0,0 1.851,-0.37 1.295,-1.11 -0.555,-0.74 -1.295,-1.85 -2.22,-2.035 -0.925,-0.186 0.555,-1.295 -1.295,-1.851 -1.85,-0.555 -1.85,-0.184 -3.146,-1.85 -1.294,-1.665 -1.479,-0.37 -1.109,-3.33 0.37,-2.959 0.37,-3.515 1.109,-5.55 0.74,-2.035 1.48,-2.035 2.221,-3.146 0.74,-1.109 -0.74,-0.37 0.74,-1.109 1.48,-0.741 2.22,-0.556 3.33,-1.111 1.11,-0.555 2.405,-2.035 2.591,-2.775 0.185,-0.74 1.85,-1.85 2.035,-2.59 0.185,-0.74 0,-3.33 0.74,-3.699 0.74,-0.371 0.74,-0.556 0.555,-1.851 -0.185,-1.295 0.555,-0.37 0.74,-2.22 0.185,-1.85 -0.185,-2.22 -0.185,-3.329 0,-1.111 0.37,-1.666 0.185,-2.961 -0.185,-1.295 0.37,-2.96 1.48,-3.515 1.109,-0.555 1.85,1.295 2.775,2.035 0.925,0.74 2.775,0.555 3.145,1.11 0.37,0.555 1.11,1.85 1.665,1.295 0.555,-0.555 -0.186,-0.925 2.405,-0.925 2.59,0 4.07,0.185 4.995,0.185 0.925,0 1.11,-0.37 2.59,0.74 1.479,1.111 2.22,2.22 3.33,2.22 1.11,0 2.035,0.555 2.59,2.59 0.555,2.035 0.74,4.255 0.925,6.105 0.185,1.85 -0.37,2.22 0.74,3.33 1.109,1.11 1.665,-0.925 2.035,1.85 0.37,2.775 -0.555,1.295 -1.295,3.146 -0.739,1.85 -0.739,2.035 -0.739,3.885 0,1.851 0.739,-0.185 1.479,-1.11 0.74,-0.925 1.665,-2.96 2.405,-3.515 0.74,-0.555 1.48,-0.555 0.74,-2.59 -0.74,-2.035 -1.11,-1.481 -2.22,-2.775 -1.11,-1.294 -0.555,-2.774 -0.555,-3.699 0,-0.926 0.185,-0.556 1.665,-0.926 1.48,-0.37 2.59,0 2.405,-1.295 -0.185,-1.294 -0.185,-2.775 -1.295,-2.96 -1.11,-0.184 -2.775,-1.48 -1.665,-2.035 1.109,-0.555 1.295,-1.295 2.22,-0.925 0.925,0.37 0.74,0.741 1.295,2.22 0.555,1.481 0.925,2.035 1.85,2.59 0.925,0.555 1.11,0.74 1.48,2.035 0.37,1.296 0.555,2.035 1.295,2.221 0.74,0.184 2.405,-0.925 2.775,0.184 0.37,1.11 -0.74,0.741 0.37,2.035 1.11,1.295 1.85,1.295 2.775,1.665 0.925,0.37 0.925,0.925 2.035,0.925 1.11,0 1.295,-0.185 2.035,1.11 0.74,1.295 1.479,2.22 0.555,3.331 -0.925,1.109 -1.295,0.184 -2.035,1.85 -0.74,1.664 -1.479,1.11 -2.035,2.589 -0.555,1.482 -1.85,2.96 -2.405,3.886 -0.555,0.925 -1.851,2.589 -2.221,3.699 -0.37,1.11 -1.664,3.146 -2.59,4.811 -0.925,1.665 -1.295,3.145 -1.85,3.7 -0.555,0.555 -0.185,2.22 0.74,2.22 0.925,0 2.405,-1.11 2.405,-2.22 0,-1.109 0.925,-2.59 1.48,-2.96 0.555,-0.37 1.48,-0.185 1.85,-0.925 0.37,-0.74 0.556,-1.85 1.295,-2.22 0.74,-0.37 1.48,-0.925 2.035,-1.295 0.555,-0.37 1.665,-0.185 1.665,-0.185 0,0 -0.37,-2.774 -0.37,-3.33 0,-0.555 0.37,-1.11 0.74,-2.22 0.37,-1.109 1.11,-1.85 1.48,-2.589 0.37,-0.741 0.555,-1.11 1.48,-1.48 0.925,-0.37 1.11,-0.926 2.035,-1.11 0.925,-0.185 -0.555,-0.37 0.925,-0.185 1.481,0.185 2.59,-0.185 2.775,-2.034 0.185,-1.851 0.185,-3.146 -0.185,-4.441 -0.37,-1.295 0.556,-1.48 0.37,-3.145 -0.185,-1.664 -0.555,-1.664 0.555,-2.775 1.11,-1.11 1.11,-1.48 2.96,-1.11 1.85,0.37 3.145,0 4.44,0.185 1.295,0.185 2.035,0 3.515,0.37 1.481,0.37 2.035,0.555 2.96,1.665 0.926,1.109 3.33,1.109 4.07,2.034 0.74,0.925 0.185,1.85 1.11,2.035 0.925,0.185 0.74,-0.925 2.035,0.37 1.295,1.295 0.925,1.85 1.479,2.96 0.555,1.11 -0.185,-0.37 0,1.665 0.185,2.036 0.185,2.036 0.185,2.036 0,0 2.035,-0.741 2.035,0.185 0,0.926 -0.555,1.11 -1.48,2.405 -0.925,1.295 -2.775,0.74 -3.146,2.59 -0.37,1.85 -1.109,1.48 -1.294,2.96 -0.185,1.48 -0.37,2.405 -0.74,4.07 -0.37,1.665 -0.926,2.59 -0.926,4.07 0,1.479 -1.665,2.96 -1.295,3.885 0.37,0.925 1.851,-0.925 2.59,-2.22 0.74,-1.294 1.11,-4.44 2.22,-4.811 1.11,-0.37 2.59,-0.74 2.035,-1.665 -0.556,-0.925 -1.11,-2.589 -0.37,-2.774 0.739,-0.186 2.405,-1.85 2.405,-1.85 l 1.295,-1.665 c 0,0 1.665,-0.555 1.85,-1.108 0.185,-0.556 1.665,-3.701 2.22,-4.441 0.555,-0.74 1.851,-1.85 2.96,-2.59 1.11,-0.74 1.851,-1.295 3.146,-1.11 1.295,0.185 1.479,0.37 2.96,0.37 1.479,0 1.85,0 3.144,0.555 1.295,0.555 1.481,2.221 1.481,2.221 l 1.479,1.479 1.48,-0.37 c 0,0 1.665,1.11 1.479,0.185 -0.185,-0.925 -0.925,-2.775 -0.925,-2.775 0,0 1.295,-0.74 1.85,-0.185 0.555,0.555 1.48,1.295 1.48,0.741 0,-0.556 -0.555,-0.556 0,-1.481 0.555,-0.925 -1.48,-1.295 0,-2.035 1.48,-0.74 2.035,-0.74 2.59,-0.184 0.555,0.555 1.48,0.555 2.22,0.74 0.74,0.185 1.665,0.185 2.22,-0.37 0.555,-0.555 1.665,0 1.479,-1.11 -0.185,-1.11 -0.514,-1.85 0.021,-2.405 0.534,-0.555 1.089,-1.11 1.829,-0.74 0.74,0.37 1.479,0.74 1.85,0 0.37,-0.739 1.48,-1.11 1.665,-0.555 0.185,0.555 0.74,0.925 1.48,1.11 0.74,0.185 -0.555,0 0.74,0.185 1.295,0.185 1.665,0.925 1.851,1.48 0.185,0.555 0.925,1.665 1.479,0.74 0.555,-0.925 0.555,-2.22 0.925,-2.961 0.37,-0.739 1.665,-1.11 2.22,-1.664 0.555,-0.556 0,-2.591 0,-2.591 0,0 -0.432,-0.925 0.247,-1.85 0.679,-0.925 1.233,-0.555 1.973,-0.925 0.74,-0.371 1.48,0.184 1.665,-0.741 0.185,-0.925 -1.11,-1.48 0.185,-0.925 1.295,0.555 1.48,1.666 1.295,2.405 -0.185,0.74 -0.248,2.96 0.062,3.701 0.309,0.739 -0.062,1.664 0.864,1.85 0.925,0.184 2.035,-0.371 3.145,-0.556 1.11,-0.185 1.85,-0.74 2.96,-0.925 1.11,-0.185 0,0.556 1.295,1.11 1.295,0.555 0.925,-2.22 2.035,-0.925 1.11,1.296 2.22,1.11 2.035,1.85 -0.185,0.74 0.185,1.48 1.295,1.294 1.11,-0.185 0.925,-2.22 2.59,-1.294 1.665,0.925 3.885,0.555 3.885,0.555 0,0 2.405,-1.295 3.145,-1.295 0.74,0 1.85,-0.555 2.405,-0.555 0.555,0 1.665,-0.184 2.59,-0.184 0.925,0 0.37,1.109 1.295,1.294 0.925,0.185 1.85,1.11 2.22,0 0.37,-1.11 0.74,-2.59 1.48,-2.59 0.739,0 2.035,-0.74 2.59,-1.295 0.555,-0.555 2.22,-2.59 3.145,-3.515 0.925,-0.925 3.145,-2.219 3.885,-2.59 0.74,-0.37 1.85,-0.37 2.59,-0.554 0.739,-0.186 1.11,-2.776 1.11,-2.776 0,0 1.11,-1.11 1.665,-0.925 0.556,0.184 1.295,0.925 2.035,1.11 0.74,0.185 4.44,0.37 5.735,0.185 1.295,-0.185 3.7,-1.48 4.44,-1.48 0.74,0 2.59,-0.185 3.145,-0.185 0.555,0 0.185,0.37 0,1.295 -0.185,0.925 -0.925,0.555 -1.11,1.85 -0.185,1.295 -0.37,2.035 0.555,2.22 0.925,0.185 2.22,0.555 2.96,0.555 0.74,0 1.295,-0.371 2.035,-0.555 0.74,-0.186 1.48,0 1.85,-0.925 0.37,-0.925 0.74,-0.925 2.59,-1.11 1.85,-0.185 3.33,-0.37 3.885,-0.37 0.555,0 1.295,-0.37 1.48,0.37 0.185,0.741 1.11,1.48 2.035,1.85 0.925,0.37 1.295,-0.37 2.59,0 1.295,0.37 2.22,0.186 2.774,0.925 0.556,0.74 1.11,1.11 2.221,0 1.109,-1.109 2.034,-2.775 2.034,-2.775 0,0 0.37,-2.59 0,-2.59 -0.37,0 -1.109,-0.925 -2.22,-0.925 -1.11,0 -0.37,-1.129 -2.035,-1.397 -1.665,-0.268 -2.96,-0.638 -3.515,-1.747 -0.555,-1.11 -0.555,-2.22 -0.37,-4.071 0.185,-1.85 0.185,-3.33 1.48,-3.699 1.295,-0.37 1.295,-1.85 2.96,-1.48 1.665,0.37 2.405,1.48 2.774,2.405 0.37,0.925 1.09,3.7 1.09,3.7 0,0 2.61,0.185 3.905,0.371 1.295,0.184 2.775,0.554 3.33,0 0.555,-0.556 1.665,-2.036 2.405,-1.666 0.74,0.37 3.515,-0.185 3.515,-0.185 0,0 1.48,0 2.035,0.371 0.555,0.37 1.85,-0.186 1.85,-0.186 0,0 1.665,-0.925 2.22,-0.925 0.555,0 0.925,-1.666 2.22,-0.925 1.295,0.74 1.48,1.294 2.035,2.405 0.555,1.111 0.555,2.961 1.479,3.33 0.925,0.37 2.405,-0.925 3.516,-0.925 1.109,0 1.85,0.185 2.59,-0.369 0.74,-0.556 3.885,-1.296 4.995,-0.925 1.109,0.369 2.405,0 3.33,0 0.925,0 1.295,0 2.22,0.184 0.925,0.185 1.665,0.555 1.11,1.85 -0.556,1.295 -1.666,2.405 -1.295,4.625 0.369,2.22 0.739,4.625 -0.74,5.735 -1.48,1.11 -2.775,-0.37 -3.146,1.48 -0.37,1.85 1.11,0.555 0.74,2.775 -0.37,2.22 -0.555,3.145 -1.295,4.81 -0.74,1.665 -1.48,2.775 -2.22,4.07 -0.74,1.295 -2.221,2.405 -2.59,3.146 -0.37,0.739 -1.85,0.739 -2.035,1.664 -0.185,0.925 -2.035,5.55 -1.295,7.586 0.74,2.034 0.185,5.364 2.405,5.919 2.22,0.555 4.255,0.555 4.995,-0.186 0.74,-0.74 2.22,-1.479 3.33,-0.925 1.11,0.555 1.295,1.11 0.74,2.405 -0.556,1.295 -0.74,2.775 -0.74,4.07 0,1.295 1.665,-0.555 0,1.295 -1.665,1.85 -2.59,1.109 -3.145,2.22 -0.555,1.11 1.48,1.479 0.74,2.776 -0.74,1.294 -2.22,2.219 -2.404,3.884 -0.185,1.665 0,2.405 -0.74,4.069 -0.74,1.665 -0.74,3.516 -1.11,4.44 -0.37,0.924 -1.11,2.22 -1.85,3.701 -0.74,1.478 -2.22,2.219 -3.145,2.959 -0.925,0.74 -2.96,2.96 -4.069,4.07 -1.11,1.11 -2.775,3.885 -4.07,5.735 -1.295,1.85 -2.775,4.255 -4.995,4.44 -2.22,0.185 -4.995,0.37 -6.29,1.11 -1.295,0.74 -1.85,2.405 -2.96,2.405 -1.11,0 -1.85,0.555 -2.775,0.925 -0.925,0.37 -3.145,1.111 -3.885,1.48 -0.74,0.37 -2.96,2.035 -3.885,2.59 -0.925,0.555 -2.22,1.85 -2.775,3.145 -0.555,1.295 -0.925,2.221 -1.665,2.59 -0.739,0.37 -1.294,-0.369 -2.034,1.11 -0.74,1.481 -2.405,4.625 -2.775,5.18 -0.37,0.555 -2.405,3.145 -2.59,4.07 -0.185,0.925 -0.925,2.775 -1.665,3.33 -0.74,0.555 -3.33,4.255 -3.7,5.366 -0.37,1.109 -0.555,1.109 -2.035,2.035 -1.479,0.925 -3.145,2.774 -4.439,3.885 -1.295,1.109 -3.885,2.219 -4.995,3.145 -1.11,0.925 -3.33,2.59 -3.7,3.145 -0.37,0.555 -0.74,2.035 -1.665,2.405 -0.925,0.37 -1.85,-0.37 -2.96,0.925 -1.11,1.295 -3.145,2.22 -4.07,3.33 -0.925,1.109 -2.404,3.145 -3.145,3.515 -0.74,0.37 -1.295,-0.185 -2.405,0.925 -1.11,1.11 -1.11,1.85 -2.035,2.591 -0.925,0.739 -2.035,1.294 -2.96,1.294 -0.925,0 -1.85,-0.74 -2.59,0 -0.74,0.74 -1.11,1.481 -2.035,1.85 -0.925,0.37 -1.109,2.59 -2.22,3.33 -1.11,0.74 -2.405,1.479 -2.775,2.405 -0.37,0.925 -0.555,2.405 -0.74,4.256 -0.185,1.85 -2.59,3.699 -3.33,4.254 -0.74,0.555 -2.96,1.48 -3.33,2.405 -0.37,0.925 -2.775,1.85 -4.44,2.22 -1.665,0.37 -4.255,1.479 -5.55,2.22 -1.295,0.74 -2.22,2.035 -2.775,3.145 -0.555,1.11 -1.479,2.775 -1.479,4.256 0,1.479 -0.185,2.405 -1.295,2.589 -1.11,0.185 -3.145,0.555 -2.96,-0.555 0.185,-1.109 0.925,-1.295 1.295,-2.034 0.37,-0.741 0.555,-1.481 -0.555,-0.926 -1.11,0.555 -2.035,0.74 -2.96,0.74 -0.925,0 -1.11,-0.555 -1.11,-1.479 0,-0.925 -0.37,0.185 -1.11,0 -0.74,-0.186 -1.295,-1.294 -1.85,-0.74 -0.556,0.555 -1.48,0.74 -0.556,2.406 0.926,1.665 2.221,2.405 2.775,2.405 0.554,0 1.48,1.664 2.775,1.85 1.295,0.185 1.85,-0.74 2.96,-0.555 1.11,0.186 1.295,0 1.665,1.666 0.37,1.664 0.37,2.589 0.74,3.329 0.37,0.74 1.295,2.405 0.555,2.59 -0.74,0.185 -1.295,0.555 -1.85,1.665 -0.555,1.11 -0.925,1.665 -0.74,3.145 0.185,1.48 0.555,-0.74 0.185,1.48 -0.37,2.22 -0.37,3.7 -0.37,4.255 0,0.555 0,0 -1.295,-1.11 -1.295,-1.11 -2.035,-1.48 -4.07,-1.11 -2.035,0.37 -3.145,-0.739 -3.885,0.37 -0.74,1.11 -2.405,1.481 -2.775,2.035 -0.37,0.555 -1.11,1.851 -1.11,1.851 0,0 -0.555,-1.48 -1.48,-1.296 -0.925,0.185 -3.145,0.37 -2.959,0 0.185,-0.37 1.11,-1.109 1.295,-1.85 0.185,-0.74 0.74,-2.035 0,-2.219 -0.74,-0.186 -1.295,0.37 -1.295,1.109 0,0.741 0,1.666 -1.295,1.666 -1.295,0 -2.59,-0.185 -2.59,-0.185 0,0 -0.37,-1.11 -0.925,-1.481 -0.555,-0.37 -2.775,-0.739 -2.775,-0.739 0,0 -1.48,-1.295 -2.96,-0.74 -1.479,0.555 -3.7,0.925 -4.44,0.925 -0.74,0 -2.775,0.371 -2.775,0.371 0,0 0.925,1.665 0.37,1.665 -0.555,0 -2.96,-0.74 -2.96,-0.74 0,0 -0.74,-1.85 -1.481,-2.036 -0.739,-0.185 -1.479,-0.185 -2.59,-1.295 -1.109,-1.11 -2.22,-1.479 -2.59,-2.035 -0.37,-0.555 -1.295,-0.74 -1.665,0.37 -0.37,1.111 0,1.665 0.74,2.775 0.74,1.11 2.035,1.11 2.775,2.035 0.74,0.925 2.775,1.295 2.775,1.295 h 1.11 v 1.665 l 1.295,0.925 c 0,0 0.37,-0.925 1.295,-1.11 0.925,-0.185 0,0.926 1.665,0.74 1.665,-0.185 2.775,-1.294 3.515,-1.294 0.74,0 3.516,-0.555 4.07,-0.741 0.555,-0.184 1.85,-0.739 2.59,-0.555 0.74,0.185 0.74,0 1.11,1.11 0.37,1.11 1.11,1.11 1.665,2.405 0.555,1.295 0.555,2.405 1.295,2.96 0.74,0.555 1.665,0.925 2.404,1.48 0.74,0.555 2.035,0.37 2.035,0.37 l 1.851,-0.186 -1.48,-1.85 -1.665,-1.85 1.11,-0.555 2.405,2.22 c 0,0 1.665,0.37 3.515,1.295 1.85,0.925 3.145,3.7 4.625,3.7 1.48,0 2.775,0 7.03,-3.145 4.255,-3.146 4.255,-4.254 5.92,-3.515 1.665,0.74 2.775,1.85 3.885,2.405 1.11,0.555 3.145,-0.185 2.035,1.295 -1.11,1.48 -0.925,1.665 -2.22,2.22 -1.295,0.555 -2.96,1.11 -2.22,1.665 0.74,0.555 1.851,-0.37 2.775,-0.74 0.925,-0.37 1.479,-1.48 2.405,-1.48 0.925,0 1.665,0.925 2.96,0.37 1.295,-0.555 2.774,0 3.885,-0.925 1.11,-0.925 3.515,-2.96 3.515,-2.96 0,0 2.035,-2.405 2.405,-3.885 0.37,-1.48 0,-2.22 0.925,-2.405 0.925,-0.185 3.33,-0.925 3.33,-0.925 0,0 2.22,-0.925 1.85,0 -0.37,0.925 0.185,1.11 -0.925,3.145 -1.109,2.035 -7.215,11.47 -7.215,11.47 0,0 -2.59,3.33 -2.775,3.885 -0.185,0.555 -1.11,2.035 -2.775,3.701 -1.665,1.664 -2.22,2.959 -2.96,3.699 -0.74,0.74 -1.665,1.851 -2.59,3.146 -0.925,1.295 -1.295,2.774 -2.035,3.885 -0.74,1.11 -1.11,2.775 -2.035,4.255 -0.925,1.48 -2.405,4.254 -2.96,4.81 -0.555,0.556 -1.85,2.22 -3.33,1.85 -1.48,-0.37 -2.96,0 -4.44,-0.37 -1.48,-0.37 -1.85,-1.849 -1.295,-2.22 0.556,-0.37 0.74,-0.925 0.926,-2.59 0.185,-1.665 0.555,-1.48 1.295,-2.775 0.739,-1.295 1.665,-3.885 -0.37,-3.7 -2.035,0.186 -3.7,2.22 -4.625,2.035 -0.925,-0.185 -2.035,-1.11 -2.96,-0.37 -0.925,0.74 -2.59,1.295 -3.33,2.406 -0.74,1.109 -2.775,3.33 -3.515,4.254 -0.74,0.924 -2.775,2.22 -3.515,3.33 -0.74,1.11 -1.665,1.85 -3.33,1.11 -1.665,-0.74 -2.22,-1.665 -3.7,-1.295 -1.48,0.37 -2.405,0.925 -4.07,1.665 -1.665,0.74 -1.295,1.295 -3.146,1.665 -1.85,0.37 -1.295,-0.74 -2.96,-0.555 -1.665,0.185 -3.33,1.11 -2.96,2.22 0.37,1.11 1.295,2.035 -0.37,3.33 -1.664,1.295 -2.96,1.11 -3.7,1.665 -0.74,0.556 -1.295,2.405 -2.22,3.33 -0.925,0.925 -1.479,1.295 -2.96,2.59 -1.479,1.295 -2.774,2.96 -3.885,3.7 -1.11,0.74 -2.59,1.85 -2.775,2.775 -0.185,0.925 0.74,0.925 0.925,1.85 0.185,0.925 -0.185,1.295 -0.74,2.035 -0.556,0.74 -1.85,2.775 -0.925,2.406 0.925,-0.371 2.96,-1.481 3.33,-2.221 0.37,-0.739 3.7,-2.59 4.255,-3.7 0.555,-1.11 4.069,-4.81 5.364,-6.289 1.295,-1.48 6.476,-5.551 7.585,-6.476 1.11,-0.925 3.7,-3.33 4.995,-4.07 1.295,-0.74 3.516,-1.295 4.811,-1.295 1.295,0 4.255,-0.555 4.81,0 0.555,0.555 0,1.48 -0.185,2.22 -0.186,0.74 -0.74,1.479 0.925,1.665 1.665,0.185 6.29,-0.37 7.215,-0.925 0.925,-0.555 4.07,-2.035 5.365,-2.775 1.295,-0.74 3.515,-2.035 4.255,-1.85 0.74,0.185 0.925,0.74 2.405,0.74 1.479,0 2.59,-0.74 2.59,0.37 0,1.11 -1.665,3.146 -2.405,4.071 -0.74,0.924 -1.85,1.664 -3.885,3.885 -2.035,2.219 -4.995,6.29 -6.105,7.584 -1.11,1.295 -2.96,4.255 -2.96,5.735 0,1.479 2.405,2.775 1.85,3.885 -0.556,1.11 -0.556,0.185 -2.96,-0.185 -2.405,-0.37 -4.255,0 -4.995,0.925 -0.74,0.925 -1.11,0.74 -1.851,2.035 -0.739,1.295 -0.37,2.22 -1.294,3.515 -0.925,1.295 -2.22,0.925 -3.33,0.555 -1.11,-0.37 -1.48,-1.295 -3.515,-1.109 -2.035,0.184 -2.775,1.294 -2.775,1.294 0,0 1.85,0.555 2.775,0.925 0.925,0.37 3.145,0.37 3.145,0.37 0,0 1.665,-0.74 1.48,0.74 -0.185,1.48 -1.665,2.775 -2.035,3.7 -0.37,0.925 -1.665,1.48 -1.665,2.59 0,1.11 -0.925,1.85 -1.665,2.775 -0.74,0.925 -1.295,0.555 -2.59,0.555 -1.295,0 -1.295,-1.295 -2.59,-1.11 -1.295,0.185 -3.33,1.479 -4.81,0.925 -1.48,-0.554 -4.255,-1.11 -5.365,-1.48 -1.11,-0.37 -1.85,-1.665 -4.255,-1.109 -2.405,0.554 -3.885,1.109 -4.625,1.664 -0.74,0.555 -1.665,1.11 -2.035,2.035 -0.37,0.925 -0.185,1.85 0.555,1.295 0.74,-0.555 1.665,-1.851 1.85,-1.295 0.185,0.555 2.59,2.035 2.96,2.59 0.37,0.555 -0.556,2.036 1.479,1.665 2.035,-0.37 2.775,-0.37 5.18,-0.74 2.405,-0.37 4.44,-0.185 6.105,-0.37 1.665,-0.185 2.22,-0.741 3.7,-1.11 1.479,-0.37 2.405,-0.739 2.405,0.555 z"
   id="path1093"
   style="fill:#677821" />
					<path
   fill="#6C833C"
   d="m 960.074,653.55 c -0.099,-0.493 0.716,-1.356 0.963,-2.22 0.246,-0.863 -0.494,-0.247 -1.11,0 -0.616,0.247 -0.743,1.481 -0.863,2.22 -0.11,0.676 1.109,0.493 1.01,0 z"
   id="path1094"
   style="fill:#677821" />
					<path
   fill="#6C833C"
   d="m 971.525,639.366 c 0.746,-0.122 1.104,-0.493 1.228,-0.757 0.123,-0.263 -0.74,-0.477 -1.48,0 -0.74,0.477 -0.986,0 -0.986,0 0,0 0.492,0.88 1.238,0.757 z"
   id="path1095"
   style="fill:#677821" />
					<path
   fill="#6C833C"
   d="m 962.023,629.746 c 0,0 1.727,-0.37 1.856,-0.739 0.128,-0.37 1.721,-0.863 1.845,-1.301 0.123,-0.437 -0.864,-0.427 -1.727,-0.55 -0.864,-0.123 -1.543,0.765 -1.974,1.11 -0.616,0.495 0,1.48 0,1.48 z"
   id="path1096"
   style="fill:#677821" />
					<path
   fill="#6C833C"
   d="m 1016.906,634.94 c 0,0 1.357,0.726 1.603,0.48 0.247,-0.247 0.37,-1.11 0,-1.898 -0.37,-0.788 -0.74,-0.322 -1.48,-0.61 -0.74,-0.288 -0.37,0.781 -0.617,1.269 z"
   id="path1097"
   style="fill:#677821" />
					<path
   id="Rabbit_Islands_3_"
   fill="#6C833C"
   d="m 1001.613,636.036 c -0.74,0.124 -1.604,0.741 -1.233,1.481 0.371,0.74 0.617,1.48 1.233,0.864 0.616,-0.618 1.356,-0.988 1.356,-1.728 0,-0.74 0.863,-2.59 0,-2.467 -0.863,0.124 -1.356,1.85 -1.356,1.85 z"
   style="fill:#677821" />
					<path
   id="Eilean_Nan_Ron_3_"
   fill="#6C833C"
   d="m 1006.891,632.336 c -0.395,0.37 0.271,1.357 0.025,1.85 -0.247,0.493 1.356,0.616 3.025,0.741 1.67,0.123 0.797,-0.617 0.797,-1.358 0,-0.74 1.234,-0.493 1.357,-1.109 0.124,-0.617 -1.11,-0.863 -2.22,-1.357 -1.11,-0.494 -1.357,0 -2.097,0 10e-4,0 -0.491,0.864 -0.887,1.233 z"
   style="fill:#677821" />
					<path
   fill="#6C833C"
   d="m 1199.193,600.731 c 0.986,0.214 1.48,0.279 2.097,0 0.617,-0.279 0.616,-0.832 0.74,-1.202 0.124,-0.37 -0.124,-1.109 -0.864,-1 -0.739,0.109 -1.109,0.137 -1.726,0.014 -0.616,-0.123 -1.356,0.617 -1.851,0.986 0,0 0.618,0.988 1.604,1.202 z"
   id="path1098"
   style="fill:#677821" />
					<path
   fill="#6C833C"
   d="m 1201.537,604.6 1.233,-0.63 v -0.863 c 0,0 -0.864,0.493 -1.233,0.863 z"
   id="path1099"
   style="fill:#677821" />
					<path
   id="Stroma_3_"
   fill="#6C833C"
   d="m 1172.121,604.093 c -0.246,0.925 1.728,0.37 2.601,0 0.874,-0.37 1.531,-0.924 2.271,-0.924 0.74,0 0,-2.406 0,-4.071 0,-1.665 0,0 -1.11,-0.74 -1.11,-0.74 -0.925,-1.295 -1.48,-1.48 -0.555,-0.185 -0.925,1.295 -0.925,2.405 0,1.11 -0.555,1.11 -1.11,2.036 -0.555,0.925 0,1.85 0,1.85 0,1.849 0,0 -0.247,0.924 z"
   style="fill:#677821" />
					<path
   fill="#6C833C"
   d="m 905.413,636.395 c 0.617,0.359 0.74,-0.605 0.617,-0.924 -0.124,-0.318 0,-1.304 0,-1.304 0,0 -1.11,0.39 -1.233,0.773 -10e-4,0 -10e-4,1.096 0.616,1.455 z"
   id="path1100"
   style="fill:#677821" />
					<path
   fill="#6C833C"
   d="m 900.973,653.346 c 0.863,-0.574 2.22,-0.289 3.206,-0.043 0.987,0.247 0.987,-0.616 0.617,-1.682 -0.37,-1.065 -1.604,-0.292 -2.22,-0.736 -0.617,-0.445 -1.851,1.061 -2.098,1.553 0.001,0 -0.369,1.482 0.495,0.908 z"
   id="path1101"
   style="fill:#677821" />
					<path
   fill="#6C833C"
   d="m 903.439,667.363 c 0.493,0.37 0.987,0.246 1.995,0.493 1.009,0.247 -0.021,-0.987 -0.41,-1.603 -0.389,-0.617 -1.091,-0.246 -1.585,0 0,0 -0.493,0.741 0,1.11 z"
   id="path1102"
   style="fill:#677821" />
					<path
   fill="#6C833C"
   d="m 909.132,673.777 c 0.637,0.246 1.091,-0.371 1.337,-0.987 0.247,-0.617 -0.74,-0.863 -1.356,-0.863 -0.616,0 -1.357,0.863 -1.357,0.863 0,0 0.741,0.739 1.376,0.987 z"
   id="path1103"
   style="fill:#677821" />
					<path
   fill="#6C833C"
   d="m 911.703,674.544 c 0,0 0.366,1.328 1.604,0.712 1.237,-0.616 0,-0.863 0,-0.863 0,0 -1.002,-0.41 -1.604,-0.561 -0.668,-0.168 0,0.712 0,0.712 z"
   id="path1104"
   style="fill:#677821" />
					<path
   id="Handa_Island_3_"
   fill="#6C833C"
   d="m 898.506,679.573 c 0,0 1.11,-1.233 0.986,-1.85 -0.123,-0.616 -0.123,-1.233 -0.986,-1.727 -0.863,-0.493 -1.11,0 -2.22,0 -1.11,0 -1.604,-0.123 -2.097,0.494 -0.494,0.617 -1.356,1.973 -0.617,2.343 0.74,0.371 2.559,0.74 2.821,0.74 0.263,0 2.113,0 2.113,0 z"
   style="fill:#677821" />
					<path
   fill="#6C833C"
   d="m 899.502,675.419 c 0,0 0.854,-0.533 0.898,-0.804 0.044,-0.271 -0.045,-1.209 -0.898,-1.736 -0.853,-0.527 -0.626,0.65 -0.503,1.736 z"
   id="path1105"
   style="fill:#677821" />
					<path
   id="Oldany_Island_3_"
   fill="#6C833C"
   d="m 888.516,710.653 c 0,0 -0.616,-0.987 0,-1.604 0.617,-0.617 -0.863,-0.37 -1.233,-0.74 -0.37,-0.371 0.247,-1.727 -0.74,-1.85 -0.987,-0.124 -0.247,0.369 -1.604,0.863 -1.356,0.493 -2.466,0.474 -1.973,1.224 0.493,0.75 0.986,0.626 1.233,1.489 0.246,0.863 -0.123,1.481 0.986,1.481 1.111,0.001 3.331,-0.863 3.331,-0.863 z"
   style="fill:#677821" />
					<path
   fill="#6C833C"
   d="m 898.04,694.417 c 0.351,0.187 0.213,-0.31 0.465,-0.621 0.25,-0.312 -0.126,-0.25 -0.377,-0.56 -0.252,-0.311 -0.493,0.253 -0.636,0.56 -0.129,0.28 0.197,0.435 0.548,0.621 z"
   id="path1106"
   style="fill:#677821" />
					<path
   fill="#6C833C"
   d="m 899.146,695.786 c 0.077,0 0.425,-0.373 0.385,-0.685 -0.04,-0.311 -0.273,-0.559 -0.457,-0.643 -0.184,-0.084 -0.444,0.394 -0.318,0.643 0,0 0.314,0.685 0.39,0.685 z"
   id="path1107"
   style="fill:#677821" />
					<path
   fill="#6C833C"
   d="m 897.493,696.469 c -0.008,0.186 0.573,0.124 0.808,0 0.234,-0.124 0.205,-0.373 0.287,-0.684 0.083,-0.311 -0.71,-0.187 -0.562,0 0,10e-4 -0.525,0.497 -0.533,0.684 z"
   id="path1108"
   style="fill:#677821" />
					<path
   fill="#6C833C"
   d="m 900.009,700.786 c -0.369,0.424 0.296,0.442 0.46,0.758 0.164,0.314 0.798,0.314 1.055,0.471 0.256,0.157 0.335,-0.314 0.483,-0.63 0.148,-0.315 0.148,-0.551 0,-0.867 -0.148,-0.314 -0.295,-0.551 -0.518,-0.866 -0.164,-0.232 -0.368,-0.122 -0.48,0.111 -0.04,0.082 -0.068,0.18 -0.079,0.282 -10e-4,0.002 -0.551,0.318 -0.921,0.741 z"
   id="path1109"
   style="fill:#677821" />
					<path
   fill="#6C833C"
   d="m 897.568,700.283 c 0.074,0.236 0.296,0.473 0.444,1.102 0.147,0.63 0.443,0.159 1.137,0 0.692,-0.157 -0.027,-0.315 0,-0.6 0.026,-0.285 -0.776,-0.963 -1.137,-1.262 -0.361,-0.296 -0.518,0.524 -0.444,0.76 z"
   id="path1110"
   style="fill:#677821" />
					<path
   fill="#6C833C"
   d="m 891.964,701.124 c 0,0 0.493,-0.212 0.657,-0.588 0.164,-0.377 0,-0.635 0,-0.635 0,0 -0.473,0.195 -0.657,0.635 z"
   id="path1111"
   style="fill:#677821" />
					<path
   fill="#6C833C"
   d="m 890.312,699.901 c -0.05,0.135 0.188,0.383 0.271,0.383 0.083,0 0.609,-0.235 0.713,-0.383 0.103,-0.148 0.452,-0.276 0.668,-0.663 0.216,-0.387 -0.401,0.01 -0.632,0 -0.231,-0.011 -0.185,-0.084 -0.416,-0.147 -0.231,-0.062 -0.37,0.063 -0.323,0.31 -10e-4,-10e-4 -0.232,0.365 -0.281,0.5 z"
   id="path1112"
   style="fill:#677821" />
					<path
   fill="#6C833C"
   d="m 896.246,695.116 c 0,0.203 0.376,0.218 0.683,0 0.307,-0.217 0.353,-0.248 0.259,-0.435 -0.094,-0.186 -0.471,-0.14 -0.518,0 -10e-4,10e-4 -0.424,0.234 -0.424,0.435 z"
   id="path1113"
   style="fill:#677821" />
					<path
   fill="#6C833C"
   d="m 894.775,710.098 c 0.462,0 0.278,-0.37 0,-0.648 -0.278,-0.277 -0.648,-0.185 -0.925,0 0,0 0.463,0.648 0.925,0.648 z"
   id="path1114"
   style="fill:#677821" />
					<path
   fill="#6C833C"
   d="m 880.569,712.226 c 0.87,0.093 0.424,-0.185 0.702,-0.709 0.277,-0.524 -0.278,-0.401 -0.462,-0.771 -0.186,-0.37 -0.648,0.04 -1.018,0.771 -0.258,0.507 -0.093,0.616 0.778,0.709 z"
   id="path1115"
   style="fill:#677821" />
					<path
   fill="#6C833C"
   d="m 875.906,739.865 c 0.277,0.105 0.894,0.018 1.325,-0.044 0.432,-0.061 0.802,0.123 1.295,0 0.494,-0.123 1.265,-0.123 1.153,-0.493 -0.11,-0.37 -1.554,-0.277 -2.017,-0.463 -0.462,-0.184 -1.479,0.463 -1.757,0.463 10e-4,0 -0.278,0.432 10e-4,0.537 z"
   id="path1116"
   style="fill:#677821" />
					<path
   fill="#6C833C"
   d="m 872.914,743.09 c 0.432,0 0.987,-0.061 1.233,-0.44 0.247,-0.378 -0.185,-0.238 -0.493,-0.052 -0.309,0.183 -0.802,-0.186 -1.233,0 0,0 0.062,0.492 0.493,0.492 z"
   id="path1117"
   style="fill:#677821" />
					<path
   fill="#6C833C"
   d="m 880.081,748.393 c 0.401,0 0.541,-0.124 0.432,-0.37 -0.11,-0.246 -0.26,-0.37 -0.507,-0.37 -0.247,0 -0.432,0.37 -0.327,0.74 z"
   id="path1118"
   style="fill:#677821" />
					<path
   fill="#6C833C"
   d="m 879.649,750.356 c 0,0 0.418,0.195 0.9,0.318 0.481,0.123 0.797,0.247 0.797,0.247 0,0 0.016,-0.494 0,-0.802 -0.016,-0.308 -0.539,-0.37 -0.797,-0.308 -0.259,0.061 -0.606,0.012 -0.859,0 -0.253,-0.011 -0.041,0.545 -0.041,0.545 z"
   id="path1119"
   style="fill:#677821" />
					<path
   fill="#6C833C"
   d="m 882.596,749.299 c 0.062,-0.204 -0.247,-0.351 -0.74,-0.474 -0.493,-0.123 0,0.494 0,0.965 0,0 0.679,-0.287 0.74,-0.491 z"
   id="path1120"
   style="fill:#677821" />
					<path
   fill="#6C833C"
   d="m 882.847,750.921 c 0.374,-0.123 0.674,0.37 0.859,0 0.185,-0.37 0.123,-0.616 0,-0.565 -0.123,0.05 -0.617,-0.298 -0.859,0 0,0 -0.374,0.689 0,0.565 z"
   id="path1121"
   style="fill:#677821" />
					<path
   fill="#6C833C"
   d="m 862.125,765.788 c 0.296,-0.173 0.946,-0.062 1.42,-0.003 0.474,0.058 0.414,-0.593 0.532,-1.007 0.118,-0.414 0.178,-0.71 0.237,-1.183 0.059,-0.473 -0.341,-0.773 -0.341,-0.773 -0.925,-0.925 -1.11,-0.37 -2.22,0 -1.11,0.37 -0.668,1.804 -0.185,2.642 0.247,0.429 0.262,0.498 0.557,0.324 z"
   id="path1122"
   style="fill:#677821" />
					<path
   fill="#6C833C"
   d="m 859.048,763.063 c -0.059,-0.295 -0.71,0.06 -1.124,0.356 -0.414,0.295 0,0.947 0,1.36 0,0.415 0.355,0.829 0.71,1.098 0.355,0.269 0.77,-0.27 0.829,-0.447 0.059,-0.177 0,-0.651 0,-0.651 -0.024,-0.295 -0.355,-1.42 -0.415,-1.716 z"
   id="path1123"
   style="fill:#677821" />
					<path
   fill="#6C833C"
   d="m 858.121,770.104 c 0.434,-0.119 0.396,-0.237 0.494,-0.474 0.099,-0.237 0.256,-0.591 0.256,-1.065 0,-0.473 -0.532,-0.355 -1.13,-0.296 -0.599,0.06 -0.29,0.888 -0.29,1.361 0,10e-4 0.237,0.592 0.67,0.474 z"
   id="path1124"
   style="fill:#677821" />
					<path
   fill="#6C833C"
   d="m 862.125,774.423 c 0.71,0.06 0.888,-0.354 1.184,-0.768 0.296,-0.415 -0.119,-0.711 -0.619,-1.122 -0.5,-0.411 -0.564,0.115 -0.742,-0.299 -0.178,-0.414 -0.414,-0.651 -0.592,-0.77 -0.178,-0.118 -0.532,0 -1.094,0 -0.562,0 -0.444,0.296 -0.444,0.888 0,0.592 0.393,0.789 0.888,1.302 0.262,0.272 0.71,0.71 1.419,0.769 z"
   id="path1125"
   style="fill:#677821" />
					<path
   fill="#6C833C"
   d="m 862.289,771.412 c 0.342,0.186 0.428,-0.716 0.4,-0.953 -0.027,-0.237 0.086,-0.651 -0.328,-0.947 -0.414,-0.296 -0.473,0.651 -0.473,0.947 10e-4,0 0.06,0.77 0.401,0.953 z"
   id="path1126"
   style="fill:#677821" />
					<path
   fill="#6C833C"
   d="m 863.408,772.412 c 0.159,0.12 0.729,0.474 0.913,0 0.183,-0.473 -0.125,-0.414 0,-0.975 0.124,-0.561 -0.243,-0.268 -0.913,-0.504 -0.67,-0.237 0.094,0.222 -0.084,0.518 0,-10e-4 -0.074,0.842 0.084,0.961 z"
   id="path1127"
   style="fill:#677821" />
					<path
   fill="#6C833C"
   d="m 865.083,774.429 c 0.296,0.125 0.592,0.823 1.302,1.059 0.71,0.237 1.657,0 2.544,-0.473 0.888,-0.474 1.125,-0.651 1.716,-1.065 0.591,-0.415 -0.119,-0.71 -0.592,-1.03 -0.474,-0.318 -1.065,0.142 -1.361,0.32 -0.296,0.177 -0.769,-0.178 -0.888,-0.589 -0.118,-0.412 0,-0.653 0.237,-1.386 0.236,-0.732 0,-0.569 0,-0.818 0,-0.25 -0.651,-1.23 -1.065,-1.703 -0.414,-0.474 -0.65,0.177 -0.887,0.712 -0.237,0.535 -0.237,1.24 -0.473,1.411 -0.237,0.171 -0.711,0.775 -0.711,1.249 0,0.473 -0.072,1.497 0,1.834 0.076,0.353 -0.117,0.355 0.178,0.479 z"
   id="path1128"
   style="fill:#677821" />
					<path
   fill="#6C833C"
   d="m 874.492,778.447 c 0,0.296 0.118,0.533 0.059,1.006 -0.059,0.474 -0.473,0.474 -0.617,1.005 -0.143,0.533 0.084,0.829 0.287,0.829 0.202,0 1.217,-0.711 1.56,-1.184 0.344,-0.474 0.012,-0.828 0,-1.834 -0.011,-1.006 -0.343,-0.946 -0.58,-1.42 -0.236,-0.474 -0.414,-0.71 -0.98,-0.592 -0.567,0.118 -0.144,0.65 0,1.184 0,0 0.271,0.71 0.271,1.006 z"
   id="path1129"
   style="fill:#677821" />
					<path
   fill="#6C833C"
   d="m 889.757,789.808 c 0.237,0.295 0.532,0.118 0.65,0.457 0.118,0.339 0.355,0.667 1.042,1.318 0.686,0.651 0.438,0.533 0.852,0.415 0.414,-0.119 0.533,-0.177 0.828,-0.651 0.296,-0.473 0.119,-0.829 0.296,-1.42 0.177,-0.592 0.355,-0.474 0.295,-1.124 -0.059,-0.651 -0.71,-0.237 -1.183,-0.178 -0.473,0.06 -1.183,-0.177 -1.716,-0.177 -0.533,0 -1.381,0.246 -1.657,0.355 -0.47,0.184 0.357,0.709 0.593,1.005 z"
   id="path1130"
   style="fill:#677821" />
					<path
   fill="#6C833C"
   d="m 871.356,785.484 c 0.118,0.114 0.354,0.477 0.651,0.596 0.296,0.118 0.473,-0.355 0.415,-0.71 -0.059,-0.355 -0.06,-0.414 -0.355,-0.473 -0.296,-0.06 -0.474,0 -0.474,0 0,0 -0.356,0.473 -0.237,0.587 z"
   id="path1131"
   style="fill:#677821" />
					<path
   fill="#6C833C"
   d="m 860.646,785.192 c 0,0.322 0.592,0.059 0.962,0 0.369,-0.059 1.05,-0.355 1.519,-0.71 0.47,-0.355 0.063,-0.533 0.626,-0.932 0.564,-0.399 -0.268,-0.489 -0.346,-1.021 -0.078,-0.532 -0.632,-0.236 -1.116,0 -0.484,0.237 -0.699,0.533 -0.684,1.006 0.015,0.473 -0.844,0.71 -0.962,1.335 10e-4,0 10e-4,0 10e-4,0.322 z"
   id="path1132"
   style="fill:#677821" />
					<path
   fill="#6C833C"
   d="m 854.256,787.5 c 0.533,-0.236 0.947,-0.533 1.125,-0.769 0.177,-0.236 0.828,-0.828 0.473,-0.888 -0.355,-0.059 -0.487,-0.141 -0.746,0.255 -0.259,0.396 -0.555,0.692 -0.851,0.869 -0.297,0.177 -10e-4,0.533 -10e-4,0.533 z"
   id="path1133"
   style="fill:#677821" />
					<path
   fill="#6C833C"
   d="m 854.1,786.098 c 0.317,-0.454 0.511,-0.195 0.689,-0.748 0.178,-0.553 -0.237,-0.335 -0.664,-0.479 -0.427,-0.145 -0.631,0.738 -0.756,1.228 -0.097,0.378 0.414,0.454 0.731,-0.001 z"
   id="path1134"
   style="fill:#677821" />
					<path
   fill="#6C833C"
   d="m 852.61,785.484 c 0.424,-0.418 0.285,-0.528 0.747,-0.93 0.461,-0.4 -0.225,-0.546 -0.816,-0.765 -0.591,-0.219 -0.622,0.801 -0.829,1.56 -0.082,0.298 0.473,0.554 0.898,0.135 z"
   id="path1135"
   style="fill:#677821" />
					<path
   fill="#6C833C"
   d="m 849.759,788.091 c 0.473,-0.118 0.828,0 1.36,-0.591 0.532,-0.592 0.06,-0.533 0,-0.854 -0.059,-0.321 -0.65,0.084 -1.36,0.439 0,10e-4 -0.473,1.125 0,1.006 z"
   id="path1136"
   style="fill:#677821" />
					<path
   fill="#6C833C"
   d="m 782.903,906.665 c 0.181,-0.296 0.47,-0.886 0.707,-1.36 0.237,-0.474 0.295,-1.184 0.355,-1.953 0.06,-0.769 -0.296,-0.829 -0.474,-1.065 -0.177,-0.237 -0.769,0.473 -1.065,0.769 -0.296,0.296 -0.592,0.769 -0.592,1.42 0,0.65 0.305,1.953 0.335,2.188 0.044,0.355 0.553,0.297 0.734,10e-4 z"
   id="path1137"
   style="fill:#677821" />
					<path
   fill="#6C833C"
   d="m 806.803,941.752 c 0.119,0.415 0.296,0.473 1.184,0.592 0.888,0.119 0.532,0.591 1.716,0.829 1.184,0.236 0.77,-0.177 1.006,-0.829 0.237,-0.651 0.296,-0.947 0,-1.834 -0.296,-0.888 -0.65,-0.769 -1.065,-1.28 -0.414,-0.512 -0.236,-0.79 -0.768,-1.146 -0.533,-0.355 -1.243,0.06 -1.657,0.414 -0.415,0.356 -0.355,1.184 -0.415,2.012 -10e-4,0 -0.119,0.828 -10e-4,1.242 z"
   id="path1138"
   style="fill:#677821" />
					<path
   fill="#6C833C"
   d="m 803.667,957.55 c 0,0.474 0.236,0.711 1.065,1.362 0.828,0.651 0.828,0.237 2.018,0 1.19,-0.237 0.467,-0.592 0.704,-1.243 0.236,-0.651 -0.355,-0.414 -0.704,-1.005 -0.348,-0.592 -0.658,-0.533 -1.368,-0.77 -0.71,-0.237 -1.006,0.355 -1.42,0.77 10e-4,0 -0.295,0.413 -0.295,0.886 z"
   id="path1139"
   style="fill:#677821" />
					<path
   fill="#6C833C"
   d="m 800.16,950.273 c 0.398,0.237 0.608,-0.591 0.845,-1.124 0.237,-0.532 0.119,-0.71 0,-1.42 -0.119,-0.71 -0.769,-0.236 -1.301,0 -0.533,0.237 -0.592,0.888 -0.474,1.42 0,-10e-4 0.532,0.887 0.93,1.124 z"
   id="path1140"
   style="fill:#677821" />
					<path
   fill="#6C833C"
   d="m 716.959,943.965 c 0,0 1.11,-0.282 1.604,0 0.493,0.281 1.48,0.703 1.974,-0.063 0.493,-0.765 0.616,-1.382 0.616,-2.246 0,-0.863 -0.246,-0.521 -0.863,-1.062 -0.617,-0.54 -0.617,-0.322 -1.233,0 -0.616,0.323 -0.493,1.186 -0.986,1.062 -0.493,-0.123 -1.11,0.645 -1.11,0.645 0,0 -0.707,1.777 -0.002,1.664 z"
   id="path1141"
   style="fill:#677821" />
					<path
   fill="#6C833C"
   d="m 721.153,937.948 c 0,0 0.37,-0.855 0,-0.982 -0.37,-0.127 -0.616,-0.983 -1.11,-0.983 -0.494,0 -0.247,1.357 0,1.965 z"
   id="path1142"
   style="fill:#677821" />
					<path
   fill="#6C833C"
   d="m 698.83,898.49 c 0.493,1.11 0.863,0.247 2.097,-0.697 1.233,-0.944 -0.247,-0.537 -0.863,-1.276 -0.617,-0.74 -0.247,-0.987 -0.74,-1.85 -0.493,-0.864 -0.986,0.37 -1.11,1.234 -0.001,-10e-4 0.122,1.479 0.616,2.589 z"
   id="path1143"
   style="fill:#677821" />
					<path
   fill="#6C833C"
   d="m 712.889,877.4 c 0.37,0.616 0.74,0.493 1.233,0.861 0.494,0.368 0.494,0.865 0.461,1.359 -0.033,0.493 0.773,0.863 1.39,0.974 0.616,0.111 0.123,-0.974 0,-1.467 -0.123,-0.494 -0.247,-1.357 -0.494,-2.466 -0.247,-1.11 -1.357,0 -1.727,0 -0.37,0 -0.864,-0.74 -0.864,-0.74 -0.862,-0.741 -0.369,0.862 10e-4,1.479 z"
   id="path1144"
   style="fill:#677821" />
					<path
   fill="#6C833C"
   d="m 746.581,846.196 c 0.515,0.123 0.842,-0.493 1.088,-1.285 0.247,-0.791 -0.616,-0.812 -1.233,-1.468 -0.616,-0.656 -0.841,0.536 -0.986,1.468 -0.086,0.549 0.616,1.162 1.131,1.285 z"
   id="path1145"
   style="fill:#677821" />
					<path
   fill="#6C833C"
   d="m 726.95,843.077 c 0,0 1.233,0.036 1.85,0.366 0.617,0.33 0.494,1.273 1.11,1.29 0.616,0.017 0.74,-0.141 0.74,-0.511 0,-0.37 -1.357,-1.479 -1.973,-2.247 -0.616,-0.769 -1.604,-0.713 -1.727,0 z"
   id="path1146"
   style="fill:#677821" />
					<path
   fill="#6C833C"
   d="m 695.068,1035.698 c 0.185,0.277 0.647,-0.185 1.388,-0.378 0.74,-0.192 0.37,-0.639 0.518,-0.176 0.148,0.461 1.148,-0.093 1.148,-0.371 0,-0.277 0.647,-0.925 0.74,-1.777 0.092,-0.852 -0.185,-0.442 -0.925,-1.46 -0.74,-1.018 -0.74,0.74 -0.74,0.74 l -1.11,1.018 c 0,0 -0.832,0.74 -1.018,1.48 -10e-4,-10e-4 -0.186,0.646 -10e-4,0.924 z"
   id="path1147"
   style="fill:#677821" />
					<path
   id="Gruinard_Island_3_"
   fill="#6C833C"
   d="m 856.978,805.132 c 0.177,0.474 0.473,0.77 1.133,1.184 0.661,0.414 0.878,0.296 1.378,-0.355 0.5,-0.651 0.329,-0.769 0.318,-1.834 -0.01,-1.064 -0.108,-0.887 -0.318,-1.782 -0.21,-0.894 -0.559,-0.762 -1.369,-1.294 -0.809,-0.532 -0.729,0.177 -1.438,0.473 -0.71,0.296 -0.049,1.419 0,2.308 0.023,0.409 0.118,0.827 0.296,1.3 z"
   style="fill:#677821" />
					<path
   id="Isle_of_Ewe_3_"
   fill="#6C833C"
   d="m 838.043,820.338 c 0.401,0.157 1.184,0.592 1.775,0.415 0.592,-0.178 0.947,-0.71 0.829,-1.48 -0.119,-0.769 -1.042,-1.479 -1.291,-1.834 -0.248,-0.355 -0.78,-0.532 -1.313,-1.065 -0.532,-0.533 -1.124,-0.887 -1.36,-1.48 -0.237,-0.592 -0.236,-1.361 -0.769,-1.302 -0.533,0.06 -0.592,0.178 -0.829,0.888 -0.236,0.71 -0.474,0.828 -0.296,1.538 0.178,0.71 0.178,0.651 0.651,1.598 0.473,0.946 0.828,1.419 1.064,1.656 0.239,0.238 0.952,0.836 1.539,1.066 z"
   style="fill:#677821" />
					<path
   id="Longa_Island_3_"
   fill="#6C833C"
   d="m 810.59,843.443 c 0.295,0.503 0.296,0.621 0.769,0.74 0.474,0.118 1.124,0.591 1.803,0.709 0.68,0.119 1.393,-0.354 1.748,-0.709 0.355,-0.355 0.473,-0.651 0.769,-1.42 0.296,-0.77 -0.651,-0.355 -1.184,-0.395 -0.532,-0.039 -1.006,0.395 -1.302,0.395 -0.296,0 -1.006,-0.06 -1.36,-0.533 -0.356,-0.474 -1.006,-0.177 -1.243,0 0,10e-4 -0.297,0.71 0,1.213 z"
   style="fill:#677821" />
					<path
   id="Rona__x2F__Ronaigh_3_"
   fill="#6C833C"
   d="m 788.342,883.175 c -0.177,0.356 -0.059,0.533 0.237,1.065 0.295,0.532 0,0.533 0,1.006 0,0.474 -0.296,0.355 -0.119,0.888 0.177,0.533 0.177,0.77 0.177,1.301 0,0.533 0,0.651 0.296,0.947 0.296,0.296 0.71,0.296 0.789,0.812 0.079,0.515 -0.671,0.313 -1.085,0.668 -0.414,0.355 -0.591,0.355 -1.064,0.179 -0.474,-0.179 -0.533,-0.119 -0.829,0.531 -0.295,0.651 0,0.947 0.71,1.42 0.71,0.474 0.473,-0.414 1.243,-0.414 0.77,0 0.414,0.296 -0.118,0.651 -0.533,0.354 -0.474,0.296 -1.006,0.591 -0.533,0.296 -0.474,0.473 -0.474,1.124 0,0.651 0.059,0.828 0.775,1.302 0.717,0.473 0.408,0.473 0.23,0.768 -0.178,0.296 -0.414,0.71 0,1.125 0.414,0.414 1.302,0.591 1.834,0.65 0.533,0.059 0.71,-0.947 0.935,-1.953 0.225,-1.005 0.071,-1.539 0,-2.603 -0.071,-1.065 0.485,-1.775 0.545,-2.603 0.06,-0.829 0.592,-1.953 0.769,-2.84 0.177,-0.887 0.473,-2.012 0.533,-2.781 0.06,-0.77 0.178,-1.716 0,-2.604 -0.178,-0.888 -0.533,-1.065 -0.888,-1.479 -0.355,-0.414 -1.006,-0.474 -1.184,0 -0.177,0.473 0.296,0.887 0.533,1.124 0.236,0.237 0.059,0.887 -0.533,1.124 -0.591,0.237 -0.474,-0.414 -0.65,-0.651 -0.178,-0.236 -0.789,-0.106 -1.065,0 -0.341,0.133 -0.413,0.297 -0.591,0.652 z"
   style="fill:#677821" />
					<path
   id="Raasay_3_"
   fill="#6C833C"
   d="m 786.272,899.092 c 0.118,0.178 0.532,0.178 1.006,1.361 0.474,1.183 0.118,1.716 -0.118,2.781 -0.237,1.065 -1.42,0.355 -1.953,0.414 -0.533,0.059 -0.829,1.007 -1.006,1.834 -0.178,0.828 -0.473,1.716 -0.829,2.485 -0.354,0.77 -0.414,0.71 0.178,1.361 0.592,0.651 0.769,0.71 0.592,1.834 -0.178,1.125 -1.302,0.237 -1.973,0.119 -0.671,-0.119 -1.755,-0.355 -2.998,-0.297 -1.242,0.06 -1.183,1.42 -1.834,2.368 -0.651,0.946 -1.242,2.071 -1.538,4.082 -0.296,2.012 -0.474,4.201 -0.415,5.503 0.06,1.302 0.296,5.029 0.592,5.858 0.296,0.828 0.711,2.78 0.591,3.372 -0.118,0.592 -0.946,1.361 -1.42,2.072 -0.474,0.709 -0.059,2.78 0,3.667 0.06,0.888 0.415,1.125 1.243,1.421 0.828,0.295 0.473,1.479 0.71,2.308 0.236,0.828 0.354,1.834 1.42,2.13 1.064,0.296 1.184,0.236 2.899,0 1.715,-0.237 1.774,-0.651 2.426,-1.42 0.651,-0.769 1.006,-1.361 1.656,-2.248 0.651,-0.887 0.829,-0.473 1.953,-1.479 1.124,-1.005 0.473,-2.248 0.473,-3.018 0,-0.769 -0.06,-1.538 -0.414,-2.012 -0.354,-0.472 -0.887,-0.236 -1.477,-0.828 -0.589,-0.592 -0.949,-1.124 -1.304,-1.953 -0.355,-0.828 -0.533,-1.775 -0.77,-2.958 -0.236,-1.183 0.118,-2.189 0,-3.254 -0.118,-1.065 0.118,-1.953 -0.355,-2.781 -0.473,-0.828 -0.887,-1.597 -0.828,-2.604 0.06,-1.005 -0.296,-1.538 0,-2.248 0.296,-0.71 0.296,-0.769 1.42,-1.479 1.125,-0.71 1.539,-1.42 2.012,-1.775 0.474,-0.354 1.302,-1.716 1.775,-2.9 0.473,-1.183 0.414,-2.07 0.592,-3.017 0.177,-0.947 0.65,-1.539 0.769,-3.137 0.118,-1.597 0.118,-1.952 -0.355,-3.195 -0.474,-1.243 -0.947,-1.479 -1.302,-2.426 -0.355,-0.946 -0.592,-1.124 -1.061,-1.597 -0.469,-0.474 -1.602,-0.118 -1.898,0.358 -0.295,0.476 0.651,0.53 0.947,0.648 0.002,-10e-4 0.476,0.472 0.594,0.65 z"
   style="fill:#677821" />
					<path
   id="Scalpay_3_"
   fill="#6C833C"
   d="m 783.728,947.906 c -0.06,0.71 -0.178,2.012 0,3.373 0.177,1.361 0.769,1.183 1.42,2.012 0.65,0.829 1.006,1.361 1.483,1.953 0.478,0.591 1.002,1.301 2.126,2.306 1.124,1.006 1.716,0.119 3.076,0 1.361,-0.118 2.485,-0.295 3.727,-0.769 1.243,-0.473 1.48,-0.414 1.657,-1.42 0.178,-1.006 -0.414,-1.184 0.236,-2.071 0.651,-0.887 0.533,-0.592 0.414,-1.894 -0.118,-1.302 -0.591,-1.42 -1.42,-2.426 -0.828,-1.005 -1.124,-1.597 -2.544,-2.07 -1.42,-0.473 -2.308,-0.236 -3.609,-0.651 -1.302,-0.414 -2.071,-0.355 -3.664,-0.355 -1.593,0 -1.643,-0.086 -2.253,0.355 -0.442,0.32 -0.59,0.947 -0.649,1.657 z"
   style="fill:#677821" />
					<path
   id="Skye_3_"
   fill="#6C833C"
   d="m 785.903,1020.713 c 0,0 0.863,0 1.727,-0.74 0.863,-0.74 0.987,-0.494 2.094,-1.233 1.107,-0.74 1.36,-0.246 2.47,0 1.11,0.247 1.233,-1.233 2.344,-1.973 1.109,-0.74 1.479,-0.987 2.713,-2.344 1.233,-1.357 1.48,-2.097 3.892,-3.823 2.412,-1.727 0.548,-2.097 1.535,-4.193 0.986,-2.097 0.37,-0.863 0.991,-1.973 0.621,-1.11 1.599,-2.22 1.921,-3.206 0.321,-0.987 1.158,-2.22 1.92,-2.589 0.762,-0.371 1.458,0.37 2.321,0.493 0.863,0.123 1.85,-1.603 2.59,-3.33 0.74,-1.727 1.11,-1.974 1.974,-3.823 0.863,-1.85 0.617,-1.233 0.986,-2.837 0.37,-1.604 -0.123,-0.986 -0.74,-1.85 -0.617,-0.864 -0.494,-1.48 -0.987,-2.714 -0.493,-1.233 -0.616,-1.356 0.247,-1.603 0.863,-0.246 0.863,1.233 2.097,1.357 1.233,0.124 2.836,-1.232 4.07,-1.973 1.233,-0.74 2.713,-1.48 3.577,-2.097 0.863,-0.617 3.453,-1.727 4.44,-2.96 0.987,-1.233 2.343,-1.974 3.083,-3.207 0.74,-1.233 0.246,-1.727 0.493,-3.33 0.247,-1.603 0.37,-3.206 0.74,-4.44 0.37,-1.234 0.986,-1.233 1.603,-2.467 0.617,-1.234 0,-1.85 -0.74,-2.712 -0.74,-0.865 -1.851,-0.371 -3.083,-0.618 -1.233,-0.247 -2.59,0.493 -3.947,0.493 -1.357,0 -3.207,-0.247 -2.467,-0.74 0.74,-0.493 1.48,-0.863 1.85,-1.726 0.37,-0.864 -1.11,-0.617 -1.603,-1.003 -0.494,-0.386 -1.727,-0.106 -2.22,0 -0.494,0.107 -1.85,0.387 -2.96,0.475 -1.11,0.088 -1.727,0.159 -2.713,1.236 -0.986,1.077 -1.85,1.142 -2.59,1.883 -0.74,0.739 -2.097,1.109 -2.621,1.233 -0.523,0.123 -1.202,0.74 -1.572,0.74 -0.37,0 -2.22,1.604 -1.828,0.863 0.392,-0.74 0.347,-0.37 0.39,-1.11 0.042,-0.74 -0.782,-0.37 -1.147,0 -0.365,0.37 -1.731,1.11 -2.225,1.603 -0.493,0.494 -0.986,1.48 -1.357,1.727 -0.37,0.247 -2.836,-0.247 -3.991,-0.494 -1.153,-0.246 0.168,-1.233 0,-1.973 -0.167,-0.739 -0.079,-1.11 -0.572,-1.85 -0.493,-0.739 -1.603,-1.233 -2.96,-1.479 -1.357,-0.247 -1.479,0.123 -2.831,-0.124 -1.352,-0.246 -1.485,-1.356 -2.017,-1.018 -0.532,0.337 -2.429,-0.091 -3.539,-0.708 -1.11,-0.617 -1.357,-1.48 -2.22,-2.713 -0.863,-1.233 -1.479,-1.603 -2.137,-1.48 -0.657,0.124 -1.686,2.097 -2.18,3.19 -0.494,1.094 -1.357,-0.106 -1.974,0.475 -0.616,0.581 -1.974,1.885 -2.96,1.236 -0.986,-0.649 0,-1.078 0.986,-1.711 0.987,-0.633 1.851,-1.833 2.467,-2.697 0.617,-0.863 1.727,-1.604 1.604,-2.897 -0.123,-1.294 -0.37,-1.666 -0.863,-3.122 -0.493,-1.456 -1.233,-0.641 -2.837,-0.641 -1.603,0 -2.836,0 -4.563,-0.124 -1.727,-0.122 -1.85,0.124 -2.836,0.765 -0.987,0.642 -2.097,1.456 -2.59,2.195 -0.494,0.74 -1.727,0.494 -2.096,0.927 -0.37,0.433 1.603,-2.036 2.59,-3.122 0.986,-1.086 0.74,-1.504 2.713,-1.998 1.974,-0.493 2.467,-0.863 2.59,-1.973 0.124,-1.11 -0.123,-1.11 -0.123,-1.624 0,-0.513 0.123,-1.46 -0.37,-2.646 -0.493,-1.185 -1.233,0.323 -1.356,0 -0.124,-0.322 -1.481,-2.144 -2.097,-2.646 -0.617,-0.501 -1.48,-4.185 -0.863,-5.049 0.616,-0.863 0.863,-0.986 1.11,-2.22 0.247,-1.233 0.74,-1.85 0.247,-3.577 -0.493,-1.727 -0.863,-1.48 -1.974,-2.59 -1.109,-1.11 -1.357,-0.369 -3.083,-0.369 -1.727,0 -1.727,0.616 -2.343,1.602 -0.617,0.987 -1.85,1.727 -2.343,0.987 -0.493,-0.739 0,-1.48 0.616,-2.96 0.617,-1.48 1.11,-0.74 2.097,-0.987 0.987,-0.246 1.357,-0.122 1.85,-1.109 0.493,-0.988 1.11,-0.741 1.85,-1.727 0.74,-0.987 1.233,-2.713 1.233,-3.577 0,-0.863 0.617,-2.59 0.617,-3.946 0,-1.357 0.123,-4.318 0,-5.517 -0.124,-1.199 -0.74,-0.773 -0.864,-2.336 -0.123,-1.561 0.124,-0.411 0.124,-1.521 0,-1.11 -0.37,-1.604 -0.493,-2.343 -0.124,-0.741 0.37,-1.974 0.493,-2.917 0.123,-0.944 0.37,-4.236 0.37,-4.977 0,-0.74 -0.617,-4.07 -0.863,-6.167 -0.247,-2.096 0.863,-4.687 0.986,-6.056 0.123,-1.369 -0.74,-1.221 -1.356,-1.591 -0.617,-0.37 -0.863,-1.48 -1.604,-2.836 -0.74,-1.357 -1.48,-2.097 -1.727,-2.837 -0.247,-0.74 -0.37,-2.343 -1.851,-4.316 -1.479,-1.973 -2.22,-1.727 -3.206,-1.727 -0.987,0 -2.467,0.493 -3.083,0.247 -0.617,-0.247 -0.494,-3.083 -0.494,-3.947 0,-0.863 -0.863,-2.097 -1.233,-3.454 -0.37,-1.356 -0.74,-2.466 -2.467,-3.946 -1.727,-1.48 -1.85,-1.11 -2.713,-2.22 -0.863,-1.11 -1.233,-0.987 -1.479,-1.357 -0.247,-0.37 0.37,-1.233 0.493,-1.603 0.123,-0.37 -0.863,-1.603 -1.851,-1.546 -0.986,0.057 -1.727,0.436 -2.097,0.057 -0.37,-0.378 -1.727,1.242 -2.713,1.12 -0.987,-0.124 -0.863,-0.988 -1.727,-1.111 -0.863,-0.123 0.246,1.111 0,1.727 -0.247,0.617 0.246,0.987 0.986,2.22 0.74,1.233 -0.123,0.987 0,1.974 0.123,0.986 -0.247,1.233 -1.233,2.22 -0.986,0.987 -1.85,2.096 -3.083,2.466 -1.233,0.37 -2.22,0.617 -3.207,0.617 -0.986,0 -0.493,0.987 -0.74,2.22 -0.247,1.234 -0.494,0.986 -0.987,0.986 -0.493,0 -1.356,0.247 -1.48,1.11 -0.123,0.863 0,1.727 0.864,3.083 0.863,1.357 2.096,2.344 2.343,3.577 0.247,1.234 0.863,1.356 0.863,2.343 0,0.987 -0.123,1.851 -0.246,2.59 -0.124,0.74 0,0.987 0.37,1.727 0.37,0.74 -0.247,0.74 0.247,1.479 0.493,0.74 1.85,-0.37 2.097,-0.74 0.247,-0.37 0.987,-0.37 1.851,-0.124 0.863,0.247 0.37,1.233 0.123,1.591 -0.247,0.357 -1.11,1.986 -1.85,2.603 -0.74,0.617 -0.863,1.11 -1.603,1.11 -0.74,0 -0.74,-0.123 -1.11,0.74 -0.37,0.864 0.37,2.591 0.74,3.577 0.37,0.986 0.74,1.11 0.37,1.974 -0.37,0.863 0.986,1.232 1.356,1.602 0.37,0.37 0.123,1.973 0.74,2.713 0.616,0.74 0.74,2.22 2.096,2.88 1.357,0.659 1.357,1.807 2.22,2.547 0.863,0.74 1.727,1.727 2.343,2.837 0.617,1.109 0.74,0.986 0.124,1.397 -0.617,0.413 -0.494,0.329 -0.37,1.07 0.123,0.739 0.863,1.726 0.986,2.465 0.124,0.74 0,1.974 0.515,3.084 0.515,1.109 -1.378,0.246 -1.748,-0.247 -0.37,-0.494 -0.123,-2.097 0,-3.083 0.124,-0.987 -0.493,-1.357 -0.74,-2.219 -0.247,-0.865 -0.124,-0.988 -0.247,-1.851 -0.123,-0.863 -0.74,0.371 -1.11,0.781 -0.37,0.413 -0.37,0.699 -0.616,0 -0.247,-0.698 -0.37,-1.768 -0.863,-2.335 -0.494,-0.566 -1.233,-1.16 -2.467,-1.776 -1.233,-0.616 -0.987,-0.493 -0.987,-1.48 0,-0.987 -0.617,-2.466 -1.48,-3.947 -0.863,-1.479 -1.727,-0.74 -1.727,0.493 0,1.233 0.616,1.11 0.37,2.264 -0.247,1.152 -0.74,1.56 -1.604,1.93 -0.863,0.37 -0.74,0.74 -1.11,1.727 -0.37,0.986 -0.74,1.357 -1.479,1.604 -0.74,0.247 -0.247,1.48 0,2.466 0.246,0.986 -0.493,1.357 -0.987,1.39 -0.494,0.033 -0.74,-1.143 -1.233,-2.336 -0.494,-1.191 0.247,-0.534 1.233,-1.645 0.987,-1.11 0.864,-1.357 1.604,-2.59 0.74,-1.233 0.617,-1.48 0.617,-2.547 0,-1.067 -0.617,-1.647 -1.233,-1.647 -0.617,0 -1.604,1.48 -1.85,2.467 -0.247,0.986 -1.48,1.85 -2.343,1.85 -0.863,0 -0.617,-1.357 -2.097,-2.67 -1.48,-1.315 -0.987,-2.264 -2.097,-3.127 -1.11,-0.863 -0.37,-0.987 -1.48,-1.85 -1.11,-0.863 -1.357,-0.987 -2.097,-1.356 -0.74,-0.371 -0.987,-0.863 -1.85,-1.604 -0.863,-0.74 -1.48,0.123 -1.727,0.493 -0.247,0.37 -1.48,-0.123 -2.22,-1.156 -0.74,-1.033 -0.74,-0.94 -0.617,-2.049 0.124,-1.111 -0.246,-2.714 -0.37,-4.194 -0.123,-1.48 -0.986,-1.48 -1.479,-2.356 -0.494,-0.876 -1.11,-2.824 -1.727,-3.44 -0.617,-0.617 -1.48,-0.987 -2.467,-1.726 -0.987,-0.741 -1.851,-0.864 -2.96,-0.741 -1.11,0.123 -0.247,1.973 -0.124,2.836 0.124,0.864 -0.124,3.33 -0.37,3.947 -0.247,0.616 -0.37,2.96 -0.124,4.07 0.247,1.109 -0.74,1.357 -1.479,1.727 -0.74,0.371 -0.494,1.973 0.37,1.927 0.863,-0.047 1.233,-0.817 1.727,0 0.493,0.816 1.973,1.773 2.59,2.39 0.616,0.617 1.479,0.74 2.22,1.48 0.74,0.74 1.604,2.097 1.85,2.836 0.247,0.74 1.48,1.604 2.59,2.441 1.109,0.839 0.493,1.012 0.247,1.999 -0.247,0.986 0.37,0.986 0.123,1.9 -0.247,0.913 -0.617,0.938 -1.356,0 -0.74,-0.937 -1.11,-1.529 -1.85,-2.27 -0.74,-0.74 -1.233,-1.233 -2.59,-0.74 -1.356,0.493 -0.863,1.11 -1.48,1.85 -0.616,0.74 -1.109,-0.369 -1.85,-0.493 -0.74,-0.124 -0.74,0.37 -0.247,1.653 0.493,1.283 0.74,1.554 0.987,3.28 0.246,1.727 0.493,1.48 1.356,2.713 0.863,1.234 0.247,1.727 -0.247,2.097 -0.493,0.37 -0.863,1.233 0.37,1.604 1.233,0.37 1.233,-0.247 2.344,0.247 1.11,0.493 0.37,1.233 0.863,2.713 0.493,1.48 1.11,2.22 1.85,2.713 0.74,0.493 0.124,1.727 -0.246,2.982 -0.37,1.254 -1.357,-0.762 -1.604,-1.625 -0.247,-0.863 0.37,-1.357 0.123,-1.973 -0.247,-0.617 -1.233,-1.357 -2.097,-1.85 -0.863,-0.494 -0.986,0.37 -0.986,0.863 0,0.493 -0.74,1.233 -1.233,1.11 -0.493,-0.124 -1.357,-1.233 -2.467,-2.22 -1.11,-0.987 -1.727,-2.22 -1.85,-3.084 -0.124,-0.863 -1.357,-0.493 -1.727,-1.11 -0.37,-0.617 -0.37,-2.22 -0.987,-3.206 -0.616,-0.987 -1.11,-1.974 -1.479,-2.919 -0.37,-0.944 -1.233,-1.397 -1.851,-2.335 -0.616,-0.937 -0.37,-1.776 -1.109,-2.763 -0.74,-0.987 -1.604,-1.481 -2.714,-0.863 -1.11,0.616 -1.48,1.479 -1.974,2.466 -0.493,0.987 0,2.467 -0.246,4.07 -0.247,1.604 0,2.22 0.616,3.454 0.617,1.233 0.494,1.85 1.851,3.33 1.357,1.48 1.727,1.11 1.357,1.603 -0.37,0.494 -1.727,0 -2.96,-0.37 -1.233,-0.37 -1.603,-0.987 -2.467,-1.604 -0.863,-0.616 -1.85,-0.494 -3.083,0 -1.233,0.494 -0.123,1.85 0,3.577 0.123,1.727 -0.494,0.987 -0.74,1.85 -0.247,0.863 -0.123,1.973 -0.493,2.59 -0.37,0.617 0.123,1.727 1.11,1.009 0.987,-0.719 0.987,-1.625 1.85,-1.502 0.863,0.124 0.986,1.233 2.22,1.502 1.233,0.268 1.356,1.211 1.727,2.445 0.371,1.234 0.493,2.097 0.617,3.083 0.123,0.987 0.37,1.974 0.863,2.713 0.493,0.74 -0.74,1.233 0,2.343 0.74,1.11 0.74,1.727 1.479,2.22 0.74,0.494 2.59,0.74 2.96,0.863 0.37,0.124 1.11,1.233 1.85,1.85 0.74,0.617 1.727,1.233 3.206,1.842 1.481,0.608 1.357,0.378 2.714,0 1.356,-0.377 1.233,0.378 2.097,1.365 0.864,0.987 2.22,2.097 3.576,2.466 1.357,0.37 1.48,1.358 2.59,1.46 1.11,0.103 1.233,-1.46 1.356,-1.954 0.124,-0.493 0.124,-2.22 0.37,-3.338 0.247,-1.118 -0.247,-3.075 -0.74,-4.555 -0.494,-1.48 0,-2.713 0,-4.564 0,-1.851 0.74,0 1.479,0.124 0.74,0.123 1.357,0.37 2.077,-0.37 0.72,-0.74 -0.104,-0.74 0.883,-1.233 0.987,-0.493 -0.246,-0.74 -0.74,-2.712 -0.494,-1.974 0.37,-0.741 1.357,0.799 0.986,1.54 0.37,0.803 1.357,2.406 0.986,1.604 -0.247,0.987 -0.617,1.974 -0.37,0.987 0,0.74 0,1.727 0,0.986 0.37,0.863 0.987,0.74 0.616,-0.123 1.233,-0.987 1.727,-1.727 0.493,-0.74 0.863,-1.11 1.11,-1.974 0.247,-0.863 0.124,-2.713 0.864,-3.083 0.739,-0.37 0.246,0.987 0.873,1.357 0.625,0.37 0.205,1.727 0.205,1.727 0,0 -0.461,1.85 0,2.344 0.461,0.493 1.266,0.739 1.019,1.849 -0.247,1.11 -0.74,0.493 -0.942,1.356 -0.202,0.863 -0.045,0.74 0.942,1.225 0.987,0.485 0.864,0.009 2.343,0.749 1.48,0.74 0.247,1.11 0.124,2.467 -0.123,1.357 -0.864,1.357 -0.37,2.59 0.493,1.233 0.616,-0.124 0.986,-1.11 0.37,-0.987 0.986,-0.247 2.59,-0.247 1.604,0 0.124,-0.987 1.85,-1.233 1.727,-0.247 0.74,-0.74 1.604,-1.85 0.863,-1.109 1.357,-1.233 2.343,-1.357 0.986,-0.122 -0.863,1.11 -0.863,1.11 0,0 -0.863,1.11 -1.11,1.472 -0.246,0.362 -0.123,1.241 -0.123,2.646 0,1.404 0.74,0.816 1.974,1.812 1.233,0.996 0.863,0.239 1.603,1.56 0.74,1.321 1.727,0.775 2.343,1.923 0.617,1.148 0.74,1.195 0.986,2.306 0.247,1.109 1.604,1.479 2.714,2.121 1.109,0.642 1.479,1.642 1.479,1.642 0,0 -1.973,-0.31 -2.59,0 -0.616,0.31 -1.479,-0.68 -2.097,-1.642 -0.616,-0.962 -0.986,-0.642 -1.356,-1.481 -0.37,-0.838 -1.11,-1.874 -1.974,-2.946 -0.863,-1.072 -1.604,-1.024 -2.343,-1.923 -0.74,-0.899 -2.344,-1.321 -3.207,-1.445 -0.863,-0.123 -1.11,-0.37 -1.356,0.72 -0.247,1.09 0.617,1.254 0.617,1.993 0,0.74 -1.11,0.74 -1.85,0.655 -0.74,-0.086 -1.604,0.21 -2.22,0.949 -0.617,0.74 -1.604,0.987 -2.467,1.48 -0.864,0.493 -0.493,1.974 -0.493,3.64 0,1.667 -0.124,2.28 1.356,2.403 1.479,0.124 1.479,0.247 1.357,1.11 -0.123,0.863 -0.123,0.986 0,2.08 0.123,1.094 0.863,1.99 1.233,2.483 0.37,0.493 0.74,1.48 1.604,2.097 0.863,0.616 1.85,2.343 2.22,3.207 0.37,0.863 1.11,1.85 1.604,2.466 0.493,0.618 2.837,0.247 3.33,0 0.493,-0.246 1.604,-0.123 2.59,-0.246 0.986,-0.123 1.85,-0.863 1.85,-1.85 0,-0.986 0.37,-2.219 1.233,-1.973 0.864,0.247 0,1.48 -0.246,1.973 -0.247,0.494 0,1.727 0,2.96 0,1.234 -1.85,0.781 -1.85,0.781 0,0 -1.973,0.329 -2.59,0.049 -0.616,-0.278 -0.986,0.649 -0.986,2.129 0,1.48 0.247,1.85 1.727,3.33 1.48,1.48 3.823,4.193 4.563,4.688 0.74,0.493 2.343,-0.865 2.836,-1.48 0.494,-0.617 1.603,-1.234 2.343,-1.974 0.74,-0.74 1.48,-0.493 2.344,0.123 0.863,0.617 0.493,1.48 -0.37,2.59 -0.863,1.11 -0.494,2.096 -1.481,2.713 -0.986,0.617 -2.22,1.604 -2.836,2.467 -0.617,0.864 -0.864,1.233 0,1.974 0.864,0.74 1.48,-0.123 2.59,-0.37 1.11,-0.247 2.22,-0.74 3.33,-1.11 1.109,-0.37 1.479,-1.109 2.96,-1.233 1.479,-0.123 2.59,-0.123 3.576,-0.616 0.987,-0.493 2.22,-1.11 2.59,-0.987 0.37,0.123 3.207,0.987 4.07,0.863 0.863,-0.124 1.48,-0.616 1.727,-1.604 0.247,-0.986 0,-2.343 -0.493,-3.7 -0.493,-1.357 0.37,-0.74 1.356,-0.493 0.987,0.247 0.74,0.493 1.357,0.863 0.617,0.37 0.37,1.109 1.11,1.233 0.74,0.123 0.74,0.123 1.604,0 0.863,-0.124 0.74,-1.48 0.863,-0.863 0.123,0.616 1.233,0.616 1.598,1.233 0.365,0.617 0.499,2.097 0.093,2.836 -0.406,0.74 0.653,1.11 0.776,2.097 0.123,0.987 -0.247,1.11 -0.632,2.097 -0.385,0.987 0.139,2.837 0.015,4.564 -0.123,1.727 0.494,1.11 1.481,1.48 0.986,0.37 1.233,1.357 1.354,1.973 0.121,0.617 0.865,-0.123 0.988,-0.616 0.123,-0.493 0.863,-1.851 1.851,-2.59 0.986,-0.74 0,-1.48 0,-2.344 0,-0.863 0.863,-0.616 1.233,-1.603 0.37,-0.987 0.123,-1.604 0.986,-2.22 0.863,-0.617 0,-1.48 0,-2.59 0,-1.11 0.863,-0.74 1.518,-0.74 0.654,0 1.441,-0.986 2.133,-1.603 0.69,-0.617 -0.321,-2.59 -0.732,-4.687 -0.41,-2.097 -0.946,-1.603 -1.166,-2.467 -0.219,-0.863 -0.398,-2.466 0,-3.206 0.397,-0.74 1.083,1.357 1.897,2.096 0.814,0.74 0.542,2.343 0.337,2.961 -0.206,0.616 1.685,0.986 2.66,1.973 0.975,0.986 0.258,1.85 0.628,2.466 0.37,0.617 -0.123,3.454 0.123,4.44 0.247,0.986 2.467,0.247 3.415,0.123 0.948,-0.123 1.765,-0.616 3.245,-1.233 1.48,-0.617 1.85,-0.37 2.343,-0.123 0.493,0.247 1.11,0.863 2.097,0.986 0.986,0.124 1.48,-0.37 1.677,-1.233 0.197,-0.863 1.653,-0.37 2.886,-0.246 1.233,0.124 1.727,-0.864 2.542,-1.357 0.815,-0.494 1.034,-0.617 1.92,-0.494 0.886,0.124 0.101,0.986 -0.758,1.11 -0.859,0.123 -1.238,1.48 -1.978,1.85 -0.74,0.37 -1.85,1.11 -2.59,1.357 -0.74,0.247 -2.467,0.74 -3.7,0.74 -1.233,0 -1.11,0.987 -1.48,1.481 -0.37,0.493 -0.863,0.247 -1.727,1.233 -0.863,0.986 -1.109,1.604 -2.461,1.727 -1.352,0.123 -0.745,0.863 -1.485,1.233 -0.74,0.37 -1.48,0.37 -1.607,0.986 -0.126,0.616 0.497,0.863 -0.309,1.233 -0.806,0.37 -1.662,0.987 -2.783,1.481 -1.122,0.493 -0.481,0.986 -0.729,2.22 -0.247,1.233 0.247,0.863 1.604,0.986 1.357,0.123 0.616,0.617 0.493,1.604 -0.123,0.987 -1.357,0.493 -1.368,1.11 -0.012,0.616 -0.111,1.604 -1.006,2.466 -0.895,0.863 -0.216,1.604 -0.093,2.467 0.123,0.864 0.123,1.727 0,2.96 -0.123,1.233 -1.85,0.247 -2.63,1.48 -0.78,1.233 -1.07,0.986 -1.068,2.22 0.001,1.233 -0.372,1.233 0.335,2.714 0.706,1.479 0.403,0.986 0.733,1.974 0.33,0.986 0.903,0.863 1.068,2.096 0.164,1.233 -0.288,1.11 0.575,1.973 z"
   style="fill:#677821" />
					<path
   id="Soay_3_"
   fill="#6C833C"
   d="m 755.933,993.333 c 0.616,-0.247 1.727,-0.247 2.343,-0.617 0.617,-0.37 1.11,-0.863 1.234,-1.727 0.124,-0.863 -0.617,-0.74 -0.74,-1.85 -0.124,-1.11 0.616,-0.37 1.602,-0.522 0.987,-0.154 1.357,0.029 1.727,-1.204 0.37,-1.233 0.37,-1.233 -0.494,-2.343 -0.863,-1.109 -1.727,-0.247 -2.836,0 -1.11,0.247 -1.233,0.493 -1.601,0.863 -0.367,0.37 -0.25,0.987 -0.743,0.617 -0.493,-0.37 -1.233,0.123 -1.974,0.863 -0.74,0.74 -1.479,0.863 -1.85,1.48 -0.37,0.617 -0.123,1.603 0,2.097 0.123,0.494 1.11,1.727 1.11,1.727 0,0 1.605,0.863 2.222,0.616 z"
   style="fill:#677821" />
					<path
   id="Muck_3_"
   fill="#6C833C"
   d="m 748.718,1066.224 c 0,0 0.185,1.48 1.017,2.034 0.833,0.555 2.128,0.555 2.128,0.555 0,0 -0.092,-1.202 0.647,-1.295 0.74,-0.092 1.295,1.203 1.573,1.295 0.277,0.092 0.925,0.833 1.387,0.555 0.463,-0.277 1.018,-1.511 0.833,-1.542 -0.186,-0.031 -0.575,-0.309 0.036,-0.401 0.611,-0.093 0.519,0 1.073,0 0.556,0 0.74,0.185 0.647,-1.202 -0.092,-1.388 -0.37,-2.036 -0.74,-2.313 -0.369,-0.278 1.203,-0.185 -0.369,-0.278 -1.573,-0.092 -1.851,-0.647 -2.591,0 -0.739,0.647 -1.109,0.74 -1.572,0.463 -0.285,-0.171 -0.171,-0.581 -0.437,-0.734 -0.423,-0.242 -0.978,0.183 -1.41,0.049 -0.959,-0.295 -1.1,-1.679 -2.295,-1.647 -1.368,0.035 -0.763,1.623 0.331,1.422 0.508,0.411 0.577,1.193 1.096,1.484 -0.409,0.383 -0.91,0.723 -1.354,1.092"
   style="fill:#677821" />
					<path
   id="Eigg_3_"
   fill="#6C833C"
   d="m 761.667,1046.706 c -0.37,0 -1.109,0.185 -1.942,0.833 -0.832,0.647 -1.017,1.388 -0.925,1.942 0.093,0.555 0.555,0.37 0.37,1.48 -0.185,1.11 -0.691,0.925 -0.392,1.943 0.299,1.017 1.316,1.11 2.334,2.128 1.018,1.017 2.683,2.497 3.885,2.404 1.203,-0.092 1.851,-0.454 2.498,0 0.647,0.458 1.85,0.744 2.22,0 0.37,-0.744 0.37,-2.131 0,-2.131 -0.37,0 0.093,-0.092 0.277,-0.925 0.186,-0.832 0.833,-0.371 1.018,-2.082 0.185,-1.71 -0.462,-4.3 0,-5.318 0.463,-1.017 0.161,-3.052 0.034,-4.07 -0.127,-1.018 -0.311,-2.035 -1.514,-2.498 -1.203,-0.462 -1.48,-1.295 -2.868,-0.462 -1.387,0.833 -2.035,0.833 -2.22,1.757 -0.185,0.925 0.833,1.388 0.925,2.035 0.093,0.647 0.093,1.017 0,1.665 -0.092,0.647 -0.185,1.572 -0.925,1.572 -0.74,0 -2.035,-0.185 -2.035,-0.185 z"
   style="fill:#677821" />
					<path
   id="Rum_3_"
   fill="#6C833C"
   d="m 724.945,1023.95 c 0,0 2.405,2.59 2.498,2.96 0.093,0.37 0.463,0.925 2.22,1.758 1.758,0.833 2.035,2.036 2.683,2.96 0.647,0.925 0.647,0.277 2.128,1.294 1.479,1.018 1.942,2.221 1.942,3.146 0,0.924 -0.925,1.202 0.74,2.034 1.664,0.832 3.237,1.85 3.422,2.127 0.186,0.277 0.555,2.035 1.481,2.127 0.925,0.092 2.96,0.092 3.792,-0.74 0.833,-0.833 1.758,-2.775 2.59,-3.515 0.832,-0.74 2.035,-1.11 2.775,-1.757 0.74,-0.647 0.996,-2.312 1.192,-2.589 0.195,-0.278 0.004,-6.476 0.562,-6.568 0.558,-0.092 1.761,-1.203 1.39,-2.22 -0.369,-1.018 -0.483,-1.572 -1.952,-1.665 -1.47,-0.092 -2.857,0.74 -3.505,0 -0.647,-0.74 0.093,-1.85 0.833,-1.665 0.74,0.185 2.861,-0.092 3.234,-0.462 0.373,-0.37 0.465,-3.423 -1.569,-4.255 -2.035,-0.832 -4.717,-3.145 -4.717,-3.145 0,0 -1.942,-1.202 -2.22,-1.295 -0.278,-0.093 -1.48,-0.648 -1.48,-0.648 0,0 -0.648,0.278 -1.48,0 -0.833,-0.277 -1.757,0.833 -2.22,0.925 -0.463,0.093 -2.22,-0.277 -2.867,0.093 -0.648,0.371 -3.793,2.406 -4.163,2.96 -0.37,0.555 -0.185,1.665 -0.925,2.406 -0.74,0.74 -1.387,1.479 -2.127,1.942 -0.74,0.462 -1.11,0.925 -1.665,1.572 -0.557,0.648 -3.076,1.693 -2.592,2.22 z"
   style="fill:#677821" />
					<path
   id="Canna_3_"
   fill="#6C833C"
   d="m 704.133,1014.423 c 0.092,0.277 1.11,0.555 2.22,1.128 1.11,0.573 2.59,-0.294 3.885,-0.942 1.295,-0.648 2.128,-1.573 2.775,-2.128 0.647,-0.555 1.295,0.185 2.404,0.093 1.11,-0.093 1.11,0.462 0.833,0.832 -0.277,0.37 0.093,1.018 0.833,1.203 0.74,0.185 2.497,0.185 3.515,0.462 1.018,0.277 1.942,0.555 2.96,0.462 1.018,-0.093 0.277,-1.11 0,-1.942 -0.277,-0.833 -1.85,-0.647 -2.972,-1.11 -1.121,-0.462 -0.358,-0.832 -0.081,-1.783 0.277,-0.951 -0.185,-0.807 -0.925,-1.917 -0.74,-1.11 -2.775,-0.092 -4.07,0 -1.295,0.093 -3.33,0 -4.07,0 -0.74,0 -1.387,1.481 -1.757,1.481 -0.37,0 -3.053,1.202 -3.516,1.527 -0.462,0.326 -2.035,1.34 -2.035,1.34 -0.903,0.586 -0.091,1.017 0.001,1.294 z"
   style="fill:#677821" />
					<path
   fill="#6C833C"
   d="m 805.588,1077.939 c 1.309,0 2.638,-0.246 4.271,-1.233 1.635,-0.986 1.895,-1.48 0,-1.396 -1.893,0.084 -2.127,-0.083 -3.109,0.04 -0.982,0.124 -3.458,-1.85 -5.206,-1.356 -1.748,0.494 0,2.713 0,2.713 0,0 2.735,1.232 4.044,1.232 z"
   id="path1148"
   style="fill:#677821" />
					<path
   fill="#6C833C"
   d="m 795.399,1109.267 c 0,0 2.96,-0.247 3.779,-1.513 0.82,-1.266 -1.312,-0.954 -2.792,-0.213 -1.481,0.739 -1.727,-0.74 -2.22,0 z"
   id="path1149"
   style="fill:#677821" />
					<path
   fill="#6C833C"
   d="m 800.768,1110.585 c 1.352,-0.045 1.452,0 1.452,0 0,0 1.319,-2.306 1.447,-3.691 0.128,-1.386 -2.102,0.152 -2.899,1.186 0,0 -1.352,2.552 0,2.505 z"
   id="path1150"
   style="fill:#677821" />
				</g><rect
   style="fill:none;stroke:#000000;stroke-width:0.29998;stroke-linejoin:bevel;stroke-dasharray:none;paint-order:stroke fill markers"
   id="rect2"
   height="4390.293"
   x="0.19998971"
   y="0.19998971"
   ry="0.69917101"
   width="4353.8188" /></svg>
