<?xml version="1.0" encoding="UTF-8" standalone="no"?>
<!-- Generator: Adobe Illustrator 22.1.0, SVG Export Plug-In . SVG Version: 6.00 Build 0)  -->

<svg
   version="1.1"
   x="0px"
   y="0px"
   viewBox="0 0 4354.1187 4390.5933"
   enable-background="new 0 0 1995.865 2834.646"
   xml:space="preserve"
   id="svg1596"
   width="4354.1187"
   height="4390.5933"
   xmlns="http://www.w3.org/2000/svg"
   xmlns:svg="http://www.w3.org/2000/svg"><defs
   id="defs1596" />


<path
   id="Inverclyde_1_"
   fill="#6C833C"
   d="m 2029.9465,1960.4301 h 1.667 c 0,0 4.07,0.171 4.44,0 0.37,-0.171 4.317,-2.912 5.181,-3.268 0.863,-0.355 0.863,2.822 0.74,3.544 -0.124,0.722 1.357,1.128 1.85,1.621 0.493,0.494 3.33,3.368 3.33,3.368 l 1.357,1.891 -0.144,-0.201 3.103,-0.617 1.85,-0.042 c 0,0 1.973,1.152 2.72,1.398 0.747,0.247 1.967,1.11 2.583,0.655 0.616,-0.455 4.81,0.578 4.867,0 0.057,-0.578 1.67,-1.765 2.151,-3.046 0.48,-1.28 0.382,-1.556 0.752,-1.666 0.37,-0.109 1.858,-0.37 1.858,-0.37 l -0.304,-2.082 c 0,0 0.79,-1.508 1.037,-2.21 0.246,-0.702 -1.11,-1.147 -1.879,-1.395 -0.768,-0.247 -0.218,-1.604 0,-2.097 0.218,-0.493 -0.465,-1.85 -0.711,-2.097 -0.247,-0.246 -1.727,-0.863 -1.727,-2.097 0,-1.234 1.48,-2.944 1.48,-2.944 0,0 0.269,-0.392 0.668,-0.991 l 0.134,-0.233 c -0.69,-0.081 0,-0.148 -1.581,-0.148 -1.58,0 -2.859,0 -3.969,0 -1.11,0 -3.33,-0.555 -5.55,-1.295 -2.22,-0.74 -2.775,-1.48 -3.331,-2.035 -0.555,-0.555 -2.774,-0.185 -5.55,-2.035 -2.774,-1.85 -2.405,-1.109 -3.33,-1.7 -0.925,-0.59 -2.59,0 -2.59,0 0,0 -1.11,0.22 -1.85,0.035 -0.74,-0.185 -1.85,0.37 -2.96,1.295 -1.11,0.925 -3.7,1.665 -4.625,2.59 -0.925,0.925 -0.37,2.22 0.185,3.145 0.555,0.925 -0.185,2.22 -0.185,2.22 l -0.37,2.221 0.185,1.85 c 0,0 -1.479,2.22 -2.22,2.59 -0.74,0.37 0,2.22 0.555,3.146 -10e-4,0 0.197,0.768 0.183,1 z"
   style="fill:#677821" /><rect
   style="fill:none;stroke:#000000;stroke-width:0.29998;stroke-linejoin:bevel;stroke-dasharray:none;paint-order:stroke fill markers"
   id="rect2"
   height="4390.293"
   x="0.19998971"
   y="0.19998971"
   ry="0.69917101"
   width="4353.8188" /></svg>
