<?xml version="1.0" encoding="UTF-8" standalone="no"?>
<!-- Generator: Adobe Illustrator 22.1.0, SVG Export Plug-In . SVG Version: 6.00 Build 0)  -->

<svg
   version="1.1"
   x="0px"
   y="0px"
   viewBox="0 0 4354.1187 4390.5933"
   enable-background="new 0 0 1995.865 2834.646"
   xml:space="preserve"
   id="svg1596"
   width="4354.1187"
   height="4390.5933"
   xmlns="http://www.w3.org/2000/svg"
   xmlns:svg="http://www.w3.org/2000/svg"><defs
   id="defs1596" />


<path
   id="Midlothian_1_"
   fill="#4B5A26"
   d="m 2303.8265,1972.5181 c -0.633,-0.924 -1.239,-2.62 -1.239,-2.62 0,0 0.246,-1.089 -0.808,-1.574 -1.053,-0.485 -2.78,-1.212 -3.273,-1.696 -0.493,-0.484 -0.334,-1.332 -1.092,-1.453 -0.758,-0.121 -2.731,-0.606 -3.225,-1.272 -0.494,-0.665 -0.864,-1.271 -1.234,-2.24 -0.37,-0.969 -1.479,-3.607 -1.479,-3.607 0,0 -1.604,-3.538 -2.098,-4.144 -0.493,-0.605 -1.48,-1.091 -1.48,-1.091 0,0 -3.453,-0.906 -4.193,0.032 -0.74,0.938 -2.064,1.422 -2.064,1.422 l -3.979,-1.848 c 0,0 -2.808,-1.06 -3.131,-2.027 -0.323,-0.97 -0.877,-5.738 -0.877,-5.738 l -1.416,1.632 c 0,0 -1.109,-0.864 -1.356,0 -0.247,0.863 -1.603,2.466 -1.479,2.96 0.123,0.493 -0.263,1.726 -0.01,2.466 0.254,0.74 1.118,2.837 1.118,2.837 0,0 -0.987,-0.493 -2.467,0.74 -1.48,1.233 -3.968,1.739 -4.944,1.733 -0.977,-0.01 -4.472,-0.93 -5.808,-0.037 -1.335,0.894 -2.612,1.067 -4.44,2.152 -1.828,1.084 -3.027,1.948 -4.093,2.318 -1.065,0.369 -3.07,-0.371 -3.609,0.986 -0.539,1.356 -10.137,11.62 -10.639,11.411 0.512,0.445 1.096,1.168 1.096,1.168 0,0 0.986,1.48 1.233,1.975 0.247,0.493 1.035,2.712 1.035,2.712 0,0 1.925,0.741 2.85,0.494 0.925,-0.246 3.392,-0.987 3.762,-0.494 0.37,0.494 0.74,2.805 0.617,2.883 -0.123,0.078 0.74,1.188 1.727,1.311 0.986,0.123 4.093,-0.617 4.093,-0.617 0,0 4.43,-1.356 4.732,-1.973 0.301,-0.617 1.658,-3.701 2.397,-3.33 0.74,0.37 1.356,1.973 1.48,2.713 0.124,0.74 0.124,1.85 0.986,2.59 0.863,0.74 1.182,2.59 1.455,3.083 0.272,0.494 1.424,2.097 1.465,3.577 0.041,1.48 1.274,1.48 1.274,2.467 0,0.987 0.247,3.084 0,3.453 -0.246,0.37 0.494,1.974 0.987,2.591 0.493,0.616 2.097,1.018 2.466,0.878 0.371,-0.139 1.604,-0.755 2.344,-1.373 0.74,-0.616 1.48,-1.356 0.74,-2.343 -0.74,-0.987 -0.25,-1.48 0.306,-3.083 0.557,-1.604 3.494,-4.152 4.307,-5.098 0.813,-0.945 8.636,-6.002 9.103,-6.742 0.467,-0.739 3.798,-4.12 3.921,-4.896 0.123,-0.776 1.479,-0.531 1.85,-0.777 0.37,-0.246 1.267,0.864 1.312,1.48 0.045,0.617 0,3.207 0,3.207 0,0 1.278,1.11 2.266,0 0.986,-1.11 2.503,-2.589 3.102,-2.959 0.598,-0.37 1.674,0 2.431,-0.37 0.757,-0.37 2.247,-2.447 1.934,-2.766 -0.317,-0.316 2.042,-1.103 2.042,-1.103 z"
   style="fill:#677821" /><rect
   style="fill:none;stroke:#000000;stroke-width:0.29998;stroke-linejoin:bevel;stroke-dasharray:none;paint-order:stroke fill markers"
   id="rect2"
   height="4390.293"
   x="0.19998971"
   y="0.19998971"
   ry="0.69917101"
   width="4353.8188" /></svg>
