<?xml version="1.0" encoding="UTF-8" standalone="no"?>
<!-- Generator: Adobe Illustrator 22.1.0, SVG Export Plug-In . SVG Version: 6.00 Build 0)  -->

<svg
   version="1.1"
   x="0px"
   y="0px"
   viewBox="0 0 4354.1187 4390.5933"
   enable-background="new 0 0 1995.865 2834.646"
   xml:space="preserve"
   id="svg1596"
   width="4354.1187"
   height="4390.5933"
   xmlns="http://www.w3.org/2000/svg"
   xmlns:svg="http://www.w3.org/2000/svg"><defs
   id="defs1596" />


<path
   id="Moray_1_"
   fill="#303B09"
   d="m 2311.4525,1512.5781 c 0,0 -0.305,6.18 -0.489,7.661 -0.185,1.48 0.74,1.295 1.851,2.22 1.109,0.925 2.035,2.22 2.035,2.775 0,0.555 -1.296,3.7 -2.035,5.365 -0.74,1.665 -1.666,2.405 -1.851,3.885 -0.185,1.479 0.37,1.11 1.851,1.85 1.479,0.74 1.281,1.265 1.069,2.59 -0.212,1.326 2.075,2.96 3.519,3.33 1.444,0.37 1.517,2.22 2.996,2.96 1.48,0.74 1.48,2.035 1.961,3.234 0.48,1.199 1,3.795 1.151,5.275 0.15,1.48 1.145,0.74 1.983,0.587 0.839,-0.152 1.011,-1.821 1.011,-1.821 0,0 1.559,0.388 2.467,0.987 0.907,0.6 1.479,0.57 2.933,0.802 1.453,0.231 -2.994,2.191 -2.994,2.191 l -3.515,1.22 c 0,0 -1.666,3.063 -3.035,3.434 -1.371,0.37 -3.44,-0.925 -3.81,-1.274 -0.37,-0.35 -2.629,-2.634 -2.629,-2.634 0,0 -0.758,0.735 -3.105,2.634 -2.348,1.9 -4.811,-7.051 -6.291,-7.235 -1.479,-0.185 -3.145,1.85 -4.416,1.48 -1.271,-0.37 -2.429,0.925 -3.019,1.425 -0.591,0.501 -1.444,3.385 -1.444,3.385 0,0 -3.33,3.7 -5.333,4.15 -2.003,0.451 -4.288,0.474 -5.027,2.275 -0.74,1.801 -0.556,2.825 -2.452,4.331 -1.897,1.508 -1.434,1.823 -2.249,3.673 -0.816,1.85 1.187,2.405 1.711,2.96 0.525,0.555 3.36,-0.185 4.049,0 0.689,0.186 2.026,1.219 0.791,2 -1.235,0.78 -3.33,2.071 -4.84,3.248 -1.51,1.178 -2.375,2.522 -1.711,4.188 0.663,1.664 1.556,0.554 2.249,1.479 0.692,0.925 2.207,2.253 2.822,3.818 0.615,1.565 2.035,0.622 2.419,1.547 0.385,0.925 -2.419,2.775 -2.974,3.863 -0.556,1.087 1.479,3.167 1.243,3.907 -0.235,0.739 0.421,3.885 0,4.775 -0.421,0.892 1.531,2.254 1.716,3.179 0.186,0.925 -1.479,2.405 -1.716,3.856 -0.235,1.451 -0.504,2.989 -1.059,4.839 -0.556,1.851 -2.775,2.035 -4.701,2.96 -1.927,0.925 -1.774,-0.554 -2.001,-1.357 -0.227,-0.802 -3.104,-0.679 -4.213,-0.369 -1.11,0.31 -2.59,-1.234 -4.89,-1.234 -2.3,0 -5.285,0.74 -6.619,1.234 -1.335,0.495 -1.626,2.466 -2.736,2.65 -1.11,0.186 -4.44,1.851 -5.55,2.59 -1.11,0.74 -2.22,3.7 -3.8,5.735 -1.58,2.035 -1.011,4.81 -1.232,6.105 -0.221,1.295 -2.183,1.295 -3.293,1.172 -1.11,-0.123 -0.925,1.418 -1.665,2.343 -0.74,0.925 -1.295,0 -3.33,0 -2.035,0 -6.105,2.589 -6.631,3.885 -0.526,1.294 -0.214,2.405 0,3.7 0.214,1.295 1.081,1.11 1.646,2.693 0.565,1.583 0.729,2.302 1.654,4.218 0.925,1.916 0.925,3.08 -0.697,4.189 -1.622,1.11 -3.188,3.146 -4.477,3.639 -1.289,0.493 -5.001,0.431 -6.851,0 -1.85,-0.432 -2.22,1.356 -3.33,2.042 -1.11,0.687 -3.7,0.054 -5.181,0 -1.48,-0.054 -3.7,1.719 -4.612,2.398 -0.913,0.677 -2.048,-0.494 -3.342,0.255 -1.295,0.749 -1.295,-1.489 -2.035,-2.653 -0.74,-1.164 -2.96,0.608 -3.772,0.979 -0.812,0.37 -3.813,1.295 -5.293,1.419 -1.48,0.123 -2.96,0.061 -3.611,0.768 -0.651,0.706 -1.014,2.993 -2.229,3.548 -1.215,0.555 -0.622,-3.33 -0.622,-3.33 l -1.394,-3.821 c 1.056,-1.644 1.412,-1.439 3.057,-3.276 1.645,-1.837 0.617,-0.014 3.149,-1.452 2.532,-1.439 0.963,0 3.399,0.776 2.436,0.777 0.854,-0.571 1.676,-2.833 0.823,-2.261 0.823,-1.439 3.641,-3.083 2.818,-1.645 1.087,-1.439 1.293,-2.075 0.206,-0.635 2.056,-3.681 3.906,-5.531 1.85,-1.85 1.234,0.617 3.216,0 1.982,-0.616 1.924,-2.467 3.979,-3.083 2.056,-0.617 1.645,0.617 3.701,0 2.056,-0.617 1.85,-3.084 2.262,-5.714 0.411,-2.631 -1.028,-1.687 -0.412,-4.227 0.617,-2.539 0.206,-0.955 -1.233,-2.805 -1.439,-1.85 -1.233,-0.823 -1.233,-3.906 0,-3.084 0.617,-1.644 0.412,-4.317 -0.206,-2.672 -0.617,-1.233 -0.412,-2.998 0.206,-1.764 0.206,-1.524 -1.027,-3.331 -1.233,-1.806 -2.878,-1.072 -3.941,-2.743 -1.062,-1.671 0.445,-2.029 2.296,-4.669 1.85,-2.64 2.056,-1.061 2.878,-1.497 0.822,-0.437 2.056,-3.469 4.014,-6.241 1.958,-2.771 2.153,-2.778 3.182,-5.055 1.027,-2.276 1.027,-1.013 1.233,-3.068 0.206,-2.057 0,0 1.171,-1.44 1.171,-1.439 -1.377,-1.233 -1.583,-2.877 -0.206,-1.645 -0.96,-4 -1.233,-4.618 -0.274,-0.618 -1.645,-0.727 -6.374,-2.942 -4.728,-2.215 -4.317,-3.541 -5.585,-5.597 -1.267,-2.056 -3.666,-1.028 -5.105,-0.206 -1.439,0.822 -5.756,1.233 -8.635,1.233 -2.877,0 -1.85,1.44 -4.651,4.134 -2.802,2.694 -3.564,-0.545 -5.645,0 -2.082,0.545 -2.037,-0.639 -3.064,-2.304 -1.027,-1.664 -0,-3.063 0.325,-4.557 0.326,-1.493 0.496,-5.291 1.346,-7.071 0.85,-1.78 -1.055,-3.153 -2.7,-5.589 -1.645,-2.435 1.037,-1.902 0,-4.271 -1.037,-2.368 -1.028,-0.284 -1.644,-1.312 -0.617,-1.028 -0.617,-2.261 -0.936,-5.759 -0.319,-3.498 0.059,-3.256 0,-4.159 -0.059,-0.904 -2.765,-3.855 -3.176,-4.379 -0.412,-0.523 0,-4.542 0,-4.542 l -2.214,-6.426 c 0.74,-0.74 1.136,-1.488 1.69,-1.673 0.555,-0.185 2.22,-1.295 2.22,-1.295 l -1.109,2.035 c 0,0 1.295,-0.184 2.035,-0.739 0.74,-0.555 2.22,-2.405 2.775,-2.59 0.555,-0.185 1.665,-1.11 1.11,-1.665 -0.555,-0.555 0.185,-1.109 1.665,-1.109 1.479,0 3.885,-0.556 4.625,-0.186 0.739,0.37 1.295,-0.555 2.22,0.186 0.925,0.739 1.665,1.479 1.295,2.589 -0.37,1.11 -2.035,1.851 -2.035,1.851 0,0 -0.37,1.48 0.37,1.85 0.74,0.37 0.74,-0.37 2.405,-0.185 1.665,0.185 2.035,1.48 3.145,1.11 1.11,-0.37 2.035,-1.85 1.48,-2.774 -0.555,-0.926 -1.11,-1.296 -2.035,-2.221 -0.925,-0.925 -2.22,-2.405 -2.22,-2.405 0,0 1.109,-1.11 4.255,-0.555 3.145,0.555 5.55,0.555 6.475,0.37 0.925,-0.185 1.85,-1.11 2.405,-1.11 0.555,0 3.145,-1.85 3.33,-2.59 0.185,-0.74 0.185,-1.665 0.555,-2.775 0.37,-1.11 0.185,-1.665 0,-2.404 -0.185,-0.741 -1.295,-1.481 -1.295,-1.481 0,0 1.48,-0.555 2.775,-0.555 1.295,0 1.665,0.186 2.96,-0.185 1.295,-0.37 2.035,-0.74 3.33,-1.295 1.295,-0.555 0.74,-0.925 2.22,-0.739 1.48,0.184 2.22,-0.371 4.625,-1.11 2.405,-0.741 3.885,-1.11 4.995,-1.11 1.11,0 2.404,-0.555 3.33,-0.185 0.925,0.371 1.85,0.185 2.96,0 1.11,-0.185 2.404,0.185 2.404,0.185 0,0 0.556,0.37 1.11,1.11 0.555,0.74 1.48,2.219 2.59,2.589 1.11,0.371 5.18,2.776 6.476,2.96 1.295,0.186 2.034,0.925 4.995,2.405 2.96,1.48 4.995,1.85 6.105,2.035 1.11,0.184 1.48,0 2.035,0.74 0.555,0.74 0.555,2.22 1.11,2.22 0.555,0 0.74,-1.48 1.295,-1.665 0.555,-0.185 1.295,0.37 2.59,0.74 1.295,0.37 2.404,0.74 3.515,1.109 1.11,0.37 2.96,0.37 4.255,-0.555 1.295,-0.925 2.221,-2.035 3.7,-2.59 1.479,-0.555 3.885,-1.481 4.995,-2.22 1.109,-0.74 2.96,-2.22 4.07,-2.775 1.109,-0.554 0.925,-0.925 2.404,-0.925 1.48,0 1.11,-0.74 2.775,-0.74 1.665,0 2.775,-0.37 3.33,0.186 0.555,0.554 0.37,1.479 0.925,1.664 0.556,0.186 0.37,1.11 1.851,0.925 1.479,-0.185 2.59,-0.37 3.699,-0.555 z"
   style="fill:#677821" /><rect
   style="fill:none;stroke:#000000;stroke-width:0.29998;stroke-linejoin:bevel;stroke-dasharray:none;paint-order:stroke fill markers"
   id="rect2"
   height="4390.293"
   x="0.19998971"
   y="0.19998971"
   ry="0.69917101"
   width="4353.8188" /></svg>
