<?xml version="1.0" encoding="UTF-8" standalone="no"?>
<!-- Generator: Adobe Illustrator 22.1.0, SVG Export Plug-In . SVG Version: 6.00 Build 0)  -->

<svg
   version="1.1"
   x="0px"
   y="0px"
   viewBox="0 0 4354.1187 4390.5933"
   enable-background="new 0 0 1995.865 2834.646"
   xml:space="preserve"
   id="svg1596"
   width="4354.1187"
   height="4390.5933"
   xmlns="http://www.w3.org/2000/svg"
   xmlns:svg="http://www.w3.org/2000/svg"><defs
   id="defs1596" />


<path
   id="North_Lanarkshire_1_"
   fill="#606F38"
   d="m 2129.2535,1927.9231 h 3.347 l 2.134,-2.063 4.076,-1.812 c 0,0 6.147,0 7.55,0 v 2.144 l 0.57,1.7 c 0,0 -0.01,1.138 1.106,0.952 1.114,-0.186 1.607,-0.391 2.347,0.02 0.74,0.411 1.357,0.296 1.85,0.97 0.493,0.674 0.123,1.408 0,2.089 -0.123,0.682 -0.241,0.805 0.249,1.545 0.491,0.74 1.107,0.825 1.848,0.659 0.74,-0.166 3.298,-0.727 3.207,0 -0.092,0.727 -0.494,1.561 -0.494,2.301 0,0.74 -0.493,2.219 0.494,2.466 0.986,0.248 1.971,0.494 3.39,0.74 1.42,0.247 2.16,0.617 3.393,0.494 1.233,-0.123 2.076,-1.431 2.703,0.024 0.627,1.455 0.134,0.839 -1.223,1.949 -1.356,1.109 -2.097,0.015 -2.097,1.733 0,1.72 -0.863,1.35 0.617,2.706 1.48,1.356 4.687,2.959 5.673,3.946 0.986,0.987 2.837,2.59 2.837,2.59 0,0 1.603,0.794 2.343,1.322 l -0.444,-0.29 c 0,0 1.405,1.065 0,1.435 -1.405,0.37 -1.898,0.959 -1.898,0.959 0,0 -0.74,1.578 0,1.666 0.74,0.088 1.716,0.395 2.523,0.981 0.807,0.587 0.437,1.114 1.423,1.159 0.986,0.045 2.122,0.792 2.479,0.12 0.357,-0.672 2.086,-1.413 2.455,-0.621 0.37,0.793 0.631,1.074 1.425,0.501 0.795,-0.572 2.028,-0.978 2.769,-1.453 0.74,-0.476 2.137,-1.022 2.795,-0.687 0.658,0.335 -0.165,1.349 0,2.26 0.165,0.911 -1.762,3.527 -2.155,3.268 -0.393,-0.26 -1.627,-0.48 -2.243,0.37 -0.617,0.851 -1.466,1.713 -1.165,2.453 0.302,0.741 0.548,0.94 1.165,2.259 0.616,1.318 0.246,2.507 1.233,3.084 0.986,0.578 1.11,1.623 1.974,1.902 0.863,0.279 -0.111,-0.133 0.362,0.875 0.473,1.007 1.325,1.132 0,1.377 -1.326,0.246 -0.355,0.207 -1.326,0.246 -0.97,0.04 -1.102,0.012 -1.616,0.271 -0.514,0.261 0.36,1.332 0.113,2.319 -0.247,0.987 -0.863,1.603 -0.74,1.85 0.123,0.247 -0.115,1.993 -0.616,2.59 0,0 -1.604,2.098 -2.96,2.467 -1.357,0.37 -7.523,0.493 -7.894,0.616 -0.371,0.123 -6.317,1.604 -6.317,1.604 l -5.586,3.207 h -1.396 c 0,0 -1.377,-0.75 -1.994,-0.992 -0.617,-0.242 -1.671,-1.968 -2.625,-2.215 -0.952,-0.247 -1.815,-2.22 -1.815,-2.22 0,0 -1.994,0.259 -2.59,0 -0.597,-0.259 0.739,-1.85 -0.74,-2.343 -1.48,-0.494 -1.932,-0.634 -2.321,-1.072 -0.389,-0.438 -0.909,-1.499 -1.408,-1.712 -0.5,-0.213 -2.701,-1.251 -2.701,-1.251 0,0 -1.668,0.586 -2.551,0.334 -0.883,-0.25 -1.135,-0.855 -1.625,-1.233 -0.491,-0.378 -1.773,-0.512 -1.974,-1.11 -0.201,-0.599 -0.318,-2.948 -0.468,-3.509 -0.149,-0.561 -0.922,-2.788 -1.383,-2.534 l 0.595,0.532 c 0,0 1.007,-3.638 1.872,-4.277 0.865,-0.639 0.124,-1.682 0.741,-2.545 0.617,-0.863 -0.337,-1.387 0.863,-1.344 1.2,0.043 0.247,-1.986 0,-2.814 -0.247,-0.829 -0.37,-1.021 -0.598,-1.537 -0.228,-0.516 -1.376,-0.595 -2.009,-0.489 -0.634,0.105 -2.573,-0.229 -4.053,-0.599 -1.48,-0.37 -3.454,0.616 -4.81,-0.927 -1.356,-1.544 -2.837,-2.773 -3.33,-2.932 0,0 0.124,-0.335 0,-0.828 -0.123,-0.494 0,-1.233 0,-1.233 0,0 -0.37,-1.699 0.617,-1.22 0.987,0.479 1.48,0.727 2.343,0.604 0.863,-0.124 2.344,-0.343 3.577,-0.604 1.234,-0.261 1.85,0.337 2.713,-0.085 0.863,-0.422 1.48,-1.162 1.727,-1.655 0.247,-0.493 0.987,-0.832 1.974,-0.601 0.987,0.231 2.823,-0.386 3.262,-0.448 0.439,-0.062 0.191,-0.678 0.068,-1.541 -0.124,-0.863 -0.383,-2.575 -0.068,-2.953 0.314,-0.377 0.61,-0.254 1.264,-0.994 0.654,-0.739 1.147,-1.174 1.024,-1.696 -0.123,-0.523 -0.506,-1.574 -0.506,-1.574 l -0.518,-0.676 h -2.083 l -3.429,1.603 c 0,0 -3.069,1.973 -3.33,2.097 -0.262,0.124 -1.11,-1.109 -0.494,-2.096 0.617,-0.987 0.444,-1.975 1.085,-2.591 0.641,-0.616 0.592,-1.479 0,-2.096 -0.592,-0.617 -0.592,-1.357 -1.579,-2.343 -0.986,-0.986 -3.083,-1.48 -2.713,-2.528 0.37,-1.048 -0.29,-3.016 -0.29,-3.016 z"
   style="fill:#677821" /><rect
   style="fill:none;stroke:#000000;stroke-width:0.29998;stroke-linejoin:bevel;stroke-dasharray:none;paint-order:stroke fill markers"
   id="rect2"
   height="4390.293"
   x="0.19998971"
   y="0.19998971"
   ry="0.69917101"
   width="4353.8188" /></svg>
