<?xml version="1.0" encoding="UTF-8" standalone="no"?>
<!-- Generator: Adobe Illustrator 22.1.0, SVG Export Plug-In . SVG Version: 6.00 Build 0)  -->

<svg
   version="1.1"
   x="0px"
   y="0px"
   viewBox="0 0 4354.1187 4390.5933"
   enable-background="new 0 0 1995.865 2834.646"
   xml:space="preserve"
   id="svg1596"
   width="4354.1187"
   height="4390.5933"
   xmlns="http://www.w3.org/2000/svg"
   xmlns:svg="http://www.w3.org/2000/svg"><defs
   id="defs1596" />


<path
   id="North_Ayrshire_1_"
   fill="#8D9764"
   d="m 2060.2355,2031.7371 0.977,-0.713 0.74,5.303 7.562,-8.387 1.672,-1.727 v -1.85 c 0,0 0.14,-1.85 0,-2.467 -0.14,-0.616 1.497,-1.604 1.672,-2.22 0.175,-0.616 1.305,-3.083 2.045,-4.251 0.74,-1.167 1.973,-0.188 2.653,-0.128 0.682,0.062 4.376,-2.035 4.87,-2.528 0.493,-0.493 0,-1.85 0,-1.85 0,0 -1.727,0.863 -2.714,0.739 -0.986,-0.123 -2.713,-0.616 -3.7,-0.739 -0.986,-0.124 -2.035,1.357 -2.035,1.357 0,0 -1.418,1.109 -1.911,1.85 -0.493,0.739 -1.727,0.739 -2.552,1.171 -0.825,0.432 -0.778,-0.308 -1.264,-1.048 -0.486,-0.74 0.239,-1.727 -0.304,-1.85 -0.543,-0.124 -1.924,-1.357 -2.306,-1.48 -0.383,-0.124 -2.151,-1.233 -2.151,-1.233 0,0 1.546,-0.74 2.151,-1.25 0.604,-0.511 0.999,-0.477 1.357,-0.477 0.358,0 1.986,-1.604 1.986,-1.604 0,0 1.948,-3.509 2.836,-5.49 0.888,-1.98 2.387,-3.698 2.387,-3.698 l 3.351,-4.737 v -1.615 c 0,0 -0.681,-2.59 -0.804,-2.814 -0.124,-0.226 -1.603,-1.872 -1.973,-1.625 -0.37,0.247 -1.727,-2.343 -1.921,-2.836 -0.195,-0.494 -1.655,0.247 -2.127,0.369 -0.473,0.124 -3.352,3.084 -3.845,3.454 -0.494,0.37 -3.397,-0.987 -3.397,-0.987 0,0 -1.783,2.097 -2.277,1.527 -0.493,-0.57 -2.713,-5.474 -2.713,-6.09 0,-0.617 -0.987,-2.96 -1.711,-3.577 -0.724,-0.616 -1.619,-0.616 -1.989,-0.997 -0.37,-0.38 -2.22,-0.482 -2.96,-0.976 -0.74,-0.494 -0.123,-2.343 -0.123,-2.39 0,-0.047 -1.357,-0.94 -2.221,-1.434 -0.863,-0.493 -4.933,-3.479 -4.933,-3.479 l 0.617,-0.467 3.187,-1.109 v 0 l -1.213,-1.689 c 0,0 -2.837,-2.874 -3.33,-3.368 -0.493,-0.493 -1.974,-0.899 -1.85,-1.621 0.123,-0.722 0.123,-3.899 -0.74,-3.544 -0.863,0.355 -4.81,3.097 -5.181,3.268 -0.37,0.171 -4.44,0 -4.44,0 h -1.667 c -0.08,0.915 -0.553,1.589 0.187,2.699 0.74,1.11 0,4.625 -0.185,5.551 -0.186,0.925 -0.186,4.439 0,5.55 0.185,1.109 0.925,2.59 1.295,3.329 0.37,0.74 0.37,2.221 0.555,3.146 0.185,0.925 1.665,2.035 2.22,2.96 0.556,0.925 0.186,7.215 0,7.77 -0.185,0.555 -1.109,0.371 -2.034,0.925 -0.926,0.555 -0.74,2.59 -0.74,2.59 0,0 -0.925,0.74 -2.405,1.48 -1.479,0.739 -0.185,3.145 -1.058,4.439 -0.873,1.295 0.874,2.405 1.798,3.145 0.924,0.74 2.405,1.295 2.405,1.295 0,0 1.109,1.109 1.85,2.59 0.74,1.479 2.22,1.85 2.775,2.96 0.555,1.11 2.035,3.145 2.22,3.885 0.185,0.74 -1.11,1.48 -0.37,2.96 0.74,1.48 1.11,-0.185 2.405,0 1.295,0.186 1.11,0.925 0.925,0.901 -0.185,-0.024 1.11,1.134 2.22,0.949 1.11,-0.185 0.925,-1.11 2.035,-0.925 1.11,0.186 2.405,1.11 3.33,1.665 0.925,0.556 2.96,2.22 5.92,4.625 2.959,2.405 4.756,6.263 4.941,6.818 z"
   style="fill:#677821" /><rect
   style="fill:none;stroke:#000000;stroke-width:0.29998;stroke-linejoin:bevel;stroke-dasharray:none;paint-order:stroke fill markers"
   id="rect2"
   height="4390.293"
   x="0.19998971"
   y="0.19998971"
   ry="0.69917101"
   width="4353.8188" /></svg>
