<?xml version="1.0" encoding="UTF-8" standalone="no"?>
<!-- Generator: Adobe Illustrator 22.1.0, SVG Export Plug-In . SVG Version: 6.00 Build 0)  -->

<svg
   version="1.1"
   x="0px"
   y="0px"
   viewBox="0 0 4354.1187 4390.5933"
   enable-background="new 0 0 1995.865 2834.646"
   xml:space="preserve"
   id="svg1596"
   width="4354.1187"
   height="4390.5933"
   xmlns="http://www.w3.org/2000/svg"
   xmlns:svg="http://www.w3.org/2000/svg"><defs
   id="defs1596" />


<g
   id="Orkney__x3C_Group_x3E__1_"
   style="fill:#677821"
   transform="translate(1093.6405,660.66109)">
					<path
   fill="#303B09"
   d="m 1168.73,561.173 c -1.11,-0.616 -0.617,-0.987 -1.233,-1.726 -0.616,-0.741 -1.109,-0.864 -0.986,-1.727 0.123,-0.863 -0.408,-0.605 -0.02,-1.412 0.39,-0.808 0.472,-0.685 1.047,-0.931 0.575,-0.247 0.576,-0.37 1.192,0.37 0.616,0.74 0.246,0.795 0.863,1.261 0.616,0.466 1.248,0.029 1.179,1.172 -0.068,1.143 -0.562,1.76 -0.686,2.253 -0.123,0.494 -1.356,0.74 -1.356,0.74 z"
   id="path1075"
   style="fill:#677821" />
					<path
   fill="#303B09"
   d="m 1167.003,549.223 c 0.37,0.014 0.739,1.097 1.219,1.837 0.479,0.74 0.878,-0.371 1.618,-1.233 0.74,-0.864 -0.247,-0.987 -1.278,-1.85 -1.032,-0.863 -0.325,0 -0.942,-0.617 -0.617,-0.616 -0.836,0.137 -1.274,0.617 -0.485,0.532 0.287,1.233 0.657,1.246 z"
   id="path1076"
   style="fill:#677821" />
					<path
   fill="#303B09"
   d="m 1148.75,535.463 c 0,0.437 0.493,2.031 1.48,2.276 0.987,0.247 1.974,0.864 2.713,0.987 0.74,0.123 1.727,-0.617 1.973,-1.604 0.246,-0.986 0.37,-1.604 0,-2.265 -0.37,-0.661 -0.986,-0.818 -1.604,-0.325 -0.616,0.494 -0.863,0.37 -1.479,0 -0.617,-0.369 -0.74,-0.617 -1.11,-1.356 -0.37,-0.741 -1.233,-0.247 -1.973,0 0,10e-4 0,1.851 0,2.287 z"
   id="path1077"
   style="fill:#677821" />
					<path
   fill="#303B09"
   d="m 1193.643,557.007 c 0,0 0.617,-0.386 1.11,-0.7 0.493,-0.314 1.604,0.29 1.356,-1.122 -0.247,-1.412 -0.211,-1.658 -1.216,-1.041 -1.004,0.616 -1.498,0.449 -1.99,1.273 -0.493,0.822 -0.37,2.291 0.74,1.59 z"
   id="path1078"
   style="fill:#677821" />
					<path
   fill="#303B09"
   d="m 1203.88,548.223 c 0,0 0.246,0.617 1.109,0 0.863,-0.616 2.221,-0.094 1.48,-1.096 -0.74,-1 -1.48,-1 -1.85,-0.754 -0.371,0.247 -0.74,0.138 -0.74,0.994"
   id="path1079"
   style="fill:#677821" />
					<path
   fill="#303B09"
   d="m 1232.74,544.153 c -0.047,0.387 -0.37,2.563 0.617,2.083 0.986,-0.48 0.739,-0.302 1.727,-1.008 0.986,-0.706 1.11,-1.692 0.616,-2.185 -0.493,-0.493 -2.84,0.126 -2.96,1.11 z"
   id="path1080"
   style="fill:#677821" />
					<path
   fill="#303B09"
   d="m 1246.676,508.017 c -0.048,0.506 -0.37,1.11 0,2.097 0.37,0.986 0.247,2.343 0.987,1.48 0.74,-0.864 0.616,-1.329 1.232,-1.651 0.617,-0.323 0.494,-1.062 0,-1.556 -0.492,-0.494 -1.232,-0.987 -1.603,-0.987 -0.371,0 -0.545,-0.134 -0.616,0.617 z"
   id="path1081"
   style="fill:#677821" />
					<path
   fill="#303B09"
   d="m 1191.423,494.573 c 0.123,0.616 -1.11,1.974 0,2.343 1.109,0.37 1.727,0.863 2.467,1.11 0.74,0.246 2.186,0.247 2.203,0 0.017,-0.248 1.25,0.863 1.496,0.186 0.247,-0.679 1.109,-1.011 0,-1.708 -1.109,-0.698 -0.175,-1.438 -1.443,-1.931 -1.27,-0.494 -3.055,-0.57 -3.519,-0.594 -0.464,-0.024 -1.204,0.594 -1.204,0.594 z"
   id="path1082"
   style="fill:#677821" />
					<path
   fill="#303B09"
   d="m 1189.45,487.913 c 0.899,0.749 1.915,-0.493 3.178,0 1.263,0.493 2.585,0.427 3.466,-0.156 0.88,-0.584 1.496,-0.707 1.496,-1.94 10e-4,-1.233 -0.175,-2.59 -1.443,-1.973 -1.27,0.617 -2.191,0.863 -3.519,1.604 -1.328,0.738 -3.918,1.849 -3.178,2.465 z"
   id="path1083"
   style="fill:#677821" />
					<path
   fill="#303B09"
   d="m 1202.153,481.253 c -0.124,-1.234 -0.123,-2.466 0.562,-4.48 0.685,-2.015 0.426,-2.179 0,-3.043 -0.426,-0.863 -1.671,-0.616 -2.89,-1.727 -1.218,-1.11 -0.878,0.741 -1.683,1.48 -0.804,0.74 0.064,2.221 0,3.29 -0.063,1.068 0.558,2.877 1.372,4.11 0.814,1.234 1.529,3.33 2.022,3.7 10e-4,0 0.741,-2.096 0.617,-3.33 z"
   id="path1084"
   style="fill:#677821" />
					<path
   fill="#303B09"
   d="m 1213.376,461.766 c 0.124,1.973 0.863,1.973 1.069,2.097 0.206,0.123 0.904,-0.987 1.027,-2.344 0.123,-1.355 0,-0.616 -0.74,-1.479 -0.739,-0.864 -0.37,-0.987 -0.739,-1.727 -0.37,-0.74 -0.247,-1.109 -0.617,-0.957 0,0 -0.123,2.437 0,4.41 z"
   id="path1085"
   style="fill:#677821" />
					<path
   fill="#303B09"
   d="m 1225.216,451.899 c -0.374,0.549 -1.479,1.479 -0.863,2.59 0.617,1.11 0.986,1.85 2.221,2.097 1.233,0.247 2.343,0.247 2.22,-0.74 -0.123,-0.986 -0.456,-2.219 -1.153,-2.836 -0.698,-0.617 -1.866,-1.928 -2.425,-1.111 z"
   id="path1086"
   style="fill:#677821" />
					<path
   fill="#303B09"
   d="m 1164.29,553.825 c 0.37,0.669 1.233,0.441 1.11,0 -0.124,-0.44 0.124,-0.916 0,-1.532 -0.124,-0.617 -0.617,-0.617 -1.11,-0.961 0,0 -0.371,1.824 0,2.493 z"
   id="path1087"
   style="fill:#677821" />
					<path
   fill="#303B09"
   d="m 1174.702,480.894 c 0.792,-0.235 1.181,0.359 1.606,-0.381 0.425,-0.74 0,-0.986 0,-0.986 0,0 -1.165,-0.74 -1.606,-1.407 -0.441,-0.667 -1.096,0.785 -1.163,1.899 -0.045,0.758 0.371,1.111 1.163,0.875 z"
   id="path1088"
   style="fill:#677821" />
					<path
   fill="#303B09"
   d="m 1195.863,475.333 c 0.74,0.247 0.37,-0.616 0.65,-1.054 0.279,-0.438 -0.157,-1.043 -0.42,-1.29 -0.264,-0.246 -0.641,0.423 -0.971,1.29 -0.39,1.027 10e-4,0.808 0.741,1.054 z"
   id="path1089"
   style="fill:#677821" />
					<path
   fill="#303B09"
   d="m 1213.322,481.623 c 0,0 -0.587,0.978 -0.266,2.092 0.32,1.114 1.048,2.224 1.362,1.484 0.314,-0.739 0.808,-1.973 0.561,-2.713 -0.246,-0.739 -1.333,-1.815 -1.657,-0.863 z"
   id="path1090"
   style="fill:#677821" />
					<path
   fill="#303B09"
   d="m 1232.652,482.733 c 0.447,0.869 0.898,1.973 1.665,1.85 0.767,-0.123 1.084,0.236 1.665,-1.239 0.581,-1.474 0.652,-2.932 0,-2.45 -0.652,0.483 -0.488,1.469 -1.434,1.223 -0.945,-0.247 -2.191,0.043 -1.896,0.616 z"
   id="path1091"
   style="fill:#677821" />
					<path
   fill="#303B09"
   d="m 1244.086,477.952 c 0.616,0.095 1.869,0.712 2.415,0.712 0.545,0 0.422,-0.124 0.545,-1.234 0.123,-1.11 0.636,-2.873 -0.545,-2.053 -1.181,0.819 -2.415,2.575 -2.415,2.575 z"
   id="path1092"
   style="fill:#677821" />
					<path
   id="Westray_3_"
   fill="#303B09"
   d="m 1182.914,433.399 c 0.862,1.11 1.479,1.357 3.229,1.85 1.749,0.495 1.211,1.357 1.581,2.467 0.37,1.11 -0.123,2.468 0,3.948 0.123,1.48 -0.616,1.849 0.247,2.835 0.863,0.988 1.233,1.11 2.986,1.851 1.752,0.74 0.96,1.85 1.671,2.59 0.711,0.74 1.016,-0.863 0.827,-2.096 -0.188,-1.234 1.176,-0.37 1.792,-0.864 0.617,-0.493 1.974,-0.123 2.552,-0.616 0.579,-0.494 -0.701,-0.864 -1.705,-1.604 -1.004,-0.74 -0.599,-1.603 0,-2.466 0.6,-0.863 0.264,-0.37 1.496,-0.124 1.233,0.247 1.357,0.74 1.925,0.74 0.568,0 0.789,0.864 1.899,1.974 1.109,1.111 0.863,0.246 1.301,1.233 0.438,0.986 0.549,1.233 1.906,2.59 1.356,1.356 0.369,1.727 1.232,1.973 0.863,0.247 0.494,0 1.242,0 0.748,0 0.484,1.48 0,2.098 -0.484,0.616 -0.132,0.986 -0.412,1.602 -0.279,0.617 -0.83,1.604 -0.83,3.084 0,1.48 0.494,0.863 1.242,0 0.748,-0.863 0.608,-1.233 0.731,-1.85 0.124,-0.617 0.863,-1.728 1.51,-2.799 0.646,-1.072 0.464,-0.531 1.45,-0.285 0.987,0.248 1.604,0.494 1.727,0 0.123,-0.493 -0.74,-1.603 -1.356,-2.713 -0.616,-1.11 -0.986,-1.48 -1.82,-2.467 -0.834,-0.986 -1.387,0 -2.241,0 -0.855,0 -0.412,0 -0.412,0 0,0 -0.09,-2.097 0,-3.331 0.09,-1.233 -0.706,-1.479 -1.401,-2.22 -0.695,-0.739 -0.661,-0.616 -0.661,-1.233 0,-0.617 -0.371,-1.233 -0.74,-1.973 -0.37,-0.74 -0.74,-0.248 -1.166,0.122 -0.426,0.37 -0.561,0.864 -1.301,0.493 -0.74,-0.37 -0.617,-0.74 -1.899,-0.74 -1.282,0 -0.567,-0.37 -0.69,-1.233 -0.124,-0.864 -0.494,-0.863 -1.992,-0.617 -1.498,0.246 -0.969,-0.493 -0.738,-0.863 0.23,-0.371 -0.847,-0.863 -1.544,-1.479 -0.698,-0.618 -1.029,0.616 -1.922,0.616 -0.893,0 -0.711,-0.616 0,-1.357 0.711,-0.74 0.152,-0.987 0.827,-0.887 0.675,0.1 0.929,-0.224 1.669,-0.025 0.739,0.199 1.356,-0.815 1.495,-1.677 0.139,-0.865 0.231,-1.604 -0.473,-1.851 -0.705,-0.247 -0.652,-0.37 -0.529,-1.109 0.124,-0.741 0,0 0.529,-0.988 0.528,-0.986 0.951,0 1.652,-0.493 0.703,-0.493 0.162,-0.616 -0.209,-0.862 -0.37,-0.248 -0.616,-1.604 -0.971,-2.098 -0.354,-0.493 -1.125,0.247 -1.495,0.618 -0.37,0.369 -0.863,0.615 -1.403,0.739 -0.539,0.123 -0.323,1.11 -1.093,1.727 -0.769,0.617 0.152,0.74 0.827,1.604 0.675,0.863 -0.058,1.48 -0.827,2.048 -0.769,0.568 -0.464,0.295 -1.204,0.027 -0.74,-0.268 -1.356,1.501 -2.59,1.158 -1.234,-0.344 -1.356,-0.15 -2.097,0.712 -0.74,0.864 -1.11,0.247 -1.604,0 -0.493,-0.246 -1.356,-0.74 -2.343,-1.48 -0.987,-0.74 -0.71,0 -1.727,0 -1.728,0.001 0.986,2.591 1.85,3.701 z"
   style="fill:#677821" />
					<path
   id="Swona_3_"
   fill="#303B09"
   d="m 1181.248,586.518 c 0,0 1.665,0.925 2.221,0 0.555,-0.925 1.295,-1.665 1.109,-2.405 -0.185,-0.74 0.029,-1.851 0.029,-1.851 0,0 -1.481,0.185 -1.68,0.74 -0.199,0.555 -0.939,1.593 -0.939,1.593 z"
   style="fill:#677821" />
					<path
   id="Stronsay_3_"
   fill="#303B09"
   d="m 1235.083,497.41 c 0.616,0 1.973,0.37 2.59,-0.123 0.616,-0.494 0.123,-1.603 0.369,-3.307 0.247,-1.703 -0.616,-1.38 -0.986,-1.75 -0.37,-0.37 -0.123,-0.986 0.247,-1.727 0.37,-0.74 1.109,-0.74 2.466,-0.74 1.357,0 0.74,0.247 1.11,1.481 0.37,1.233 1.233,0 2.267,0.616 1.033,0.617 0.57,1.357 0.57,2.837 0,1.481 -0.493,2.22 -0.57,3.738 -0.076,1.518 0.94,0.579 2.297,-0.769 1.357,-1.346 1.48,0.114 2.465,-1.459 0.984,-1.572 1.111,-0.399 2.592,0 1.479,0.401 0.863,1.573 2.344,1.45 1.48,-0.123 0,-1.109 -0.37,-3.083 -0.37,-1.974 0.616,-0.37 1.356,-1.233 0.74,-0.864 -0.986,-0.863 -2.59,-2.096 -1.604,-1.234 -0.863,-1.851 0,-3.577 0.863,-1.727 0.739,-1.11 0,-2.228 -0.74,-1.116 -1.357,0.377 -1.926,1.069 -0.568,0.69 -1.651,-0.075 -3.378,0 -1.727,0.074 -1.603,0.295 -2.343,-1.069 -0.74,-1.364 -0.247,-1.472 0,-3.076 0.246,-1.604 0.74,-0.864 2.096,-1.397 1.357,-0.533 1.358,-0.207 2.219,-0.7 0.861,-0.493 -0.121,-0.863 -1.406,-0.808 -1.286,0.057 -0.195,0.56 -0.935,0.56 -0.74,0 -1.727,-0.122 -3.072,-0.56 -1.345,-0.438 -1.244,-0.18 -1.49,-1.339 -0.247,-1.16 -0.617,-1.431 0.123,-1.348 0.74,0.082 1.233,0.534 1.357,0 0.124,-0.535 -0.863,-1.562 -1.81,-1.396 -0.945,0.167 -1.521,-0.043 -2.384,0 -0.864,0.044 -1.48,1.56 -2.308,1.93 -0.827,0.371 -1.146,-0.74 -1.665,0 -0.52,0.74 0.767,0.863 2.163,1.603 1.397,0.74 1.069,0.987 1.562,1.984 0.494,0.998 0.37,1.593 1.357,2.796 0.986,1.203 1.109,0.893 1.232,1.749 0.124,0.856 0,1.734 -0.863,2.664 -0.863,0.931 -1.232,0.303 -1.85,0.14 -0.617,-0.164 -1.481,-0.207 -1.938,0 -0.457,0.205 -1.516,1.273 -1.665,2.137 -0.149,0.863 -0.468,1.355 -0.838,1.849 -0.37,0.494 -0.739,1.974 -0.827,2.467 -0.088,0.493 -0.453,1.685 0,2.96 0.353,0.993 1.815,-0.245 2.432,-0.245 z"
   style="fill:#677821" />
					<path
   id="South_Walls_3_"
   fill="#303B09"
   d="m 1161.083,574.039 c 0.983,-0.367 0.74,0.455 1.85,0.824 1.11,0.37 0.986,0.74 1.726,1.481 0.74,0.74 1.109,0.246 2.22,-1.234 1.11,-1.48 0.493,0 1.683,0 1.188,0 1.647,-0.37 3.004,-1.071 1.357,-0.701 0.863,-0.286 0.566,-1.272 -0.297,-0.986 -0.443,0.123 -1.306,-0.247 -0.863,-0.37 0,0 -0.049,-0.37 -0.049,-0.37 1.159,-1.109 1.323,-2.22 0.163,-1.11 -0.287,-1.603 -1.328,-1.603 -1.04,0 -1.549,0.37 -2.628,1.445 -1.078,1.075 -0.771,-0.211 -2.621,0 -1.85,0.211 -1.85,0.282 -2.837,0.035 -0.987,-0.246 -0.987,0.863 -0.987,1.85 0,0.986 -1.48,1.11 -1.48,1.11 -0.865,0.242 -0.12,1.638 0.864,1.272 z"
   style="fill:#677821" />
					<path
   id="South_Ronaldsay_3_"
   fill="#303B09"
   d="m 1199.825,587.566 c 1.249,0 1.958,-0.37 2.235,-1.233 0.277,-0.863 0.463,-1.727 0.71,-3.083 0.246,-1.357 -0.616,-2.466 -2.097,-3.206 -1.48,-0.74 -0.863,-2.22 -0.849,-2.892 0.015,-0.671 1.096,-1.548 1.712,-3.356 0.615,-1.808 -0.863,-1.646 -0.986,-2.632 -0.123,-0.986 1.479,-1.234 2.22,-2.22 0.739,-0.987 0,-1.233 0.74,-2.434 0.739,-1.2 1.356,-0.897 2.343,0 0.987,0.897 1.11,-1.143 1.233,-2.253 0.123,-1.11 -1.11,-0.864 -0.986,-1.974 0.124,-1.11 -0.124,-1.481 -1.974,-2.004 -1.849,-0.524 -1.726,-0.093 -2.066,0 -0.34,0.092 -2.373,0.523 -3.36,0.894 -0.986,0.37 -1.233,0.864 -1.85,0.586 -0.616,-0.278 -0.37,-0.832 -0.863,-1.202 -0.494,-0.371 -0.987,-0.371 -1.727,0 -0.74,0.371 -1.728,0.616 -2.467,1.202 -0.74,0.585 -1.11,-0.462 -2.344,-0.586 -1.233,-0.123 -1.727,0.494 -2.467,1.48 -0.739,0.986 -1.109,2.22 -0.616,3.206 0.493,0.986 1.479,-0.123 2.59,-0.986 1.109,-0.863 1.109,-0.863 2.22,-0.74 1.11,0.124 0.494,0.987 0.581,2.241 0.088,1.254 1.27,-0.021 2.133,0.136 0.863,0.157 -0.37,1.57 -0.74,1.817 -0.37,0.246 -1.109,0.74 -1.393,1.109 -0.282,0.371 -1.074,-0.493 -0.951,-1.48 0.123,-0.986 -0.493,-0.863 -1.603,-1.446 -1.11,-0.583 -1.233,0.83 -1.604,1.94 -0.37,1.11 0.74,1.48 2.22,2.097 1.48,0.617 0.986,0.863 1.958,1.85 0.972,0.987 0.632,1.11 1.249,1.603 0.616,0.494 0.493,4.194 -0.247,5.673 -0.739,1.48 -0.863,0.494 -0.986,1.48 -0.123,0.986 0.493,1.109 1.356,2.22 0.863,1.11 0.74,0.247 0.74,1.223 0,0.976 0.74,0.874 1.48,1.121 0.739,0.246 0.434,1.081 0.616,1.85 0.261,1.094 2.592,-10e-4 3.84,-10e-4 z"
   style="fill:#677821" />
					<path
   id="Shapinsay_3_"
   fill="#303B09"
   d="m 1202.77,509.497 c 0.986,-0.494 0.616,-0.616 1.11,-0.37 0.493,0.246 2.343,0.493 4.58,0.493 2.238,0 0.97,0.124 1.586,0.74 0.616,0.617 0.863,0.863 1.85,0.74 0.986,-0.124 0.494,1.233 1.604,1.48 1.11,0.247 0.74,-0.369 0.987,-0.986 0.246,-0.617 1.479,-0.494 1.727,-1.357 0.248,-0.863 0.37,-1.727 -0.123,-2.837 -0.493,-1.109 -1.11,-1.727 -1.851,-2.713 -0.74,-0.986 0.247,-0.863 0.986,-1.603 0.74,-0.74 0.494,-0.863 0.864,-2.096 0.37,-1.234 0.863,-0.864 1.128,-1.357 0.266,-0.494 0.352,-1.111 -0.141,-2.22 -0.493,-1.11 0.493,-2.59 0,-3.206 -0.493,-0.617 -1.727,0.123 -1.974,1.232 -0.246,1.111 -0.74,1.111 -1.973,1.234 -1.233,0.123 -1.357,1.233 -1.234,2.097 0.124,0.863 -0.492,1.233 -0.616,2.22 -0.123,0.986 -0.616,0.863 -1.943,0.986 -1.327,0.125 -0.894,0.37 -1.263,0.125 -0.37,-0.248 -1.11,-0.495 -1.391,-0.865 -0.279,-0.37 -1.816,-1.603 -2.062,-2.589 -0.247,-0.988 -0.987,0 -1.851,0.863 -0.864,0.863 -0.616,0.987 -0.71,1.603 -0.094,0.617 -0.646,1.974 -1.14,2.59 -0.494,0.616 -0.494,2.343 -1.096,3.454 -0.602,1.109 -0.174,2.048 0,2.466 0.277,0.661 1.959,0.368 2.946,-0.124 z"
   style="fill:#677821" />
					<path
   id="Sanday_3_"
   fill="#303B09"
   d="m 1232.652,468.426 c 0.274,-1.405 0.211,-2.852 0.458,-3.584 0.247,-0.732 -0.863,-2.213 0.247,-0.732 1.109,1.48 1.109,2.575 1.48,0.732 0.369,-1.843 -0.054,-2.829 1.145,-3.198 1.198,-0.371 1.075,-0.372 1.938,-1.728 0.862,-1.356 0.493,-2.836 1.727,-4.193 1.233,-1.356 1.356,-2.344 2.59,-1.541 1.233,0.801 0.616,2.555 1.356,2.541 0.74,-0.014 1.604,-1 1.727,-1.616 0.123,-0.617 -0.123,-1.194 0.617,-1.214 0.74,-0.02 1.352,-0.266 1.971,-0.514 0.619,-0.246 2.317,0.37 1.406,0.803 -0.91,0.432 -0.916,-0.925 -1.406,0.801 -0.491,1.726 -1.107,1.17 -0.737,2.374 0.37,1.204 -0.129,3.053 0.737,1.819 0.865,-1.232 1.701,-1.699 1.406,-2.453 -0.294,-0.753 -0.906,-1.37 0.264,-1.74 1.169,-0.37 1.663,-0.617 2.279,0 0.616,0.617 0.37,0.617 1.233,-0.801 0.863,-1.419 1.233,-1.693 0.616,-2.542 -0.616,-0.85 -0.99,-2.947 0.307,-2.083 1.297,0.863 2.283,-0.619 1.79,1.417 -0.493,2.036 -1.233,3.393 -0.863,4.256 0.37,0.864 0.987,3.824 1.851,3.083 0.863,-0.74 0.863,-1.233 0,-2.097 -0.863,-0.863 -1.727,1.11 -0.863,-2.034 0.863,-3.146 2.096,-4.379 2.466,-5.612 0.37,-1.233 0.74,-1.85 1.604,-3.083 0.863,-1.234 2.467,-2.714 3.823,-2.714 1.357,0 2.59,-0.863 3.33,0 0.74,0.863 0.74,1.357 1.85,1.48 1.11,0.124 0.74,0.493 2.344,0.246 1.604,-0.246 2.22,-0.37 0.74,-1.233 -1.48,-0.863 -2.467,-1.11 -2.467,-2.467 0,-1.356 -1.233,-0.863 -0.74,-2.466 0.494,-1.604 2.59,-4.193 0.123,-3.454 -2.467,0.741 -3.329,0.002 -3.822,1.974 -0.494,1.973 0.616,1.716 -0.987,3.016 -1.603,1.3 -1.109,-0.55 -3.083,0.807 -1.974,1.357 -3.207,1.974 -4.193,3.207 -0.986,1.233 -1.727,0.863 -2.837,1.974 -1.11,1.109 0,0.739 -1.974,1.603 -1.973,0.864 -3.828,2.714 -4.195,1.11 -0.367,-1.604 -0.491,-2.59 0.742,-3.7 1.233,-1.11 1.11,0 1.85,-2.342 0.74,-2.343 1.123,-1.615 2.289,-2.658 1.165,-1.043 4.494,-1.906 1.535,-2.276 -2.961,-0.371 -2.098,-2.467 -3.7,-1.11 -1.604,1.356 -0.868,2.467 -2.716,2.96 -1.848,0.493 -1.725,-0.135 -3.204,0.426 -1.48,0.56 -0.987,-1.917 -1.727,0 -0.74,1.917 -1.728,1.917 -0.124,3.275 1.604,1.355 2.96,1.479 2.221,2.712 -0.74,1.233 -0.617,-0.247 -1.357,0.247 -0.739,0.493 -1.355,1.726 -0.369,1.356 0.986,-0.37 0.986,-0.493 0.74,0.74 -0.247,1.234 -0.371,0.494 -1.975,1.48 -1.603,0.987 -2.22,0.589 -3.083,1.96 -0.863,1.37 -1.233,1 -1.85,2.542 -0.617,1.541 -0.987,2.644 -1.727,3.142 -0.74,0.496 -0.053,-1.292 -1.137,0.033 -1.084,1.327 -1.26,2.066 -1.665,1.819 -0.405,-0.247 -0.035,-3.33 -0.776,0.37 -0.739,3.7 -0.739,3.808 -0.739,5.296 0,1.487 -0.247,1.981 0,2.721 0.245,0.74 1.247,2.226 1.514,0.863 z"
   style="fill:#677821" />
					<path
   id="Rousay_3_"
   fill="#303B09"
   d="m 1180.57,481.377 c 0.864,0.74 3.453,2.096 7.894,2.312 4.44,0.216 5.18,-0.957 6.66,-2.19 1.479,-1.233 0.123,-2.343 0,-3.207 -0.124,-0.863 -1.356,-2.466 -1.669,-3.7 -0.312,-1.234 0.436,-1.604 0.932,-2.471 0.497,-0.867 0.86,-0.241 1.707,0 0.847,0.243 0.88,-0.735 0.526,-1.723 -0.354,-0.986 -0.473,-0.986 -0.473,-0.986 0,0 -0.283,-0.74 -1.597,-1.356 -1.315,-0.617 -1.399,0 -2.509,1.11 -1.11,1.11 -1.48,0.617 -2.721,0.987 -1.24,0.37 -3.323,-0.247 -4.709,-0.987 -1.387,-0.739 -0.094,-2.713 0,-3.577 0.09,-0.864 -1.447,-0.37 -2.187,-0.123 -0.74,0.246 -1.357,-0.494 -2.59,-0.617 -1.233,-0.124 -0.987,1.233 -2.508,2.713 -1.521,1.48 -1.068,1.85 -1.014,2.714 0.055,0.863 -1.535,1.11 -1.598,2.59 -0.063,1.48 0.186,1.11 1.598,2.466 1.412,1.357 0.932,0.986 1.014,2.22 0.082,1.233 1.009,1.257 1.769,1.85 0.609,0.477 0.616,1.235 1.479,1.975 z"
   style="fill:#677821" />
					<path
   id="Papa_Westray_3_"
   fill="#303B09"
   d="m 1203.88,431.426 c 0.227,-0.317 -0.123,-1.726 0.616,-0.863 0.74,0.863 0.494,2.219 1.48,0.863 0.986,-1.357 1.003,-1.726 1.118,-3.083 0.115,-1.357 0.295,-2.344 -0.412,-3.208 -0.706,-0.863 -0.033,-1.48 0,-2.22 0.033,-0.74 -0.279,-1.233 0,-1.85 0.28,-0.617 0.157,0.37 1.144,-0.862 0.986,-1.234 1.294,-1.234 0.647,-2.467 -0.647,-1.233 -0.715,-2.837 -1.791,-2.343 -1.076,0.493 -1.816,0.74 -1.939,2.096 -0.123,1.357 -0.986,0.74 -0.863,2.097 0.123,1.357 1.086,1.521 -0.012,2.796 -1.099,1.274 -0.963,0.781 -1.154,2.384 -0.191,1.603 0.191,2.837 0,4.193 -0.191,1.357 -0.549,2.877 0,3.042 0.549,0.165 0.549,0.288 1.166,-0.575 z"
   style="fill:#677821" />
					<path
   id="North_Ronaldsay_3_"
   fill="#303B09"
   d="m 1264.93,423.04 c 0.37,0.493 0.616,-0.617 1.479,0 0.863,0.616 0.74,1.232 1.233,1.726 0.494,0.493 0.247,1.11 1.604,0 1.356,-1.11 3.207,0.355 2.714,-1.056 -0.494,-1.411 -1.48,-1.535 -1.604,-2.891 -0.124,-1.356 -0.493,-2.097 0.37,-3.083 0.863,-0.987 2.097,-2.097 2.836,-1.727 0.74,0.37 1.974,0.471 1.974,-0.073 0,-0.543 -0.37,-1.776 -1.356,-2.023 -0.987,-0.247 -0.493,-0.247 -1.851,0.74 -1.356,0.987 -1.85,1.42 -2.096,0.648 -0.247,-0.772 0.369,-1.758 -0.863,-0.772 -1.233,0.987 -0.987,-0.43 -1.974,0.772 -0.987,1.202 -0.247,1.202 -0.617,2.312 -0.37,1.11 -0.37,1.348 -0.739,1.969 -0.37,0.622 -1.11,0.744 -1.11,1.361 0,0.617 0,2.097 0,2.097 z"
   style="fill:#677821" />
					<path
   id="Mainland_3_"
   fill="#303B09"
   d="m 1213.13,551.303 c 1.301,-0.752 1.85,-0.356 1.727,-2.088 -0.124,-1.732 -0.709,-2.991 0.016,-2.978 0.724,0.013 0.848,0.63 1.588,-0.85 0.739,-1.481 0.986,-3.084 1.727,-3.454 0.739,-0.37 0.739,-1.233 1.727,-1.727 0.986,-0.493 1.356,1.11 2.59,0 1.233,-1.108 0.74,-2.836 2.097,-2.467 1.356,0.37 1.603,1.014 3.206,1 1.603,-0.013 2.221,-0.136 1.974,-1.863 -0.247,-1.728 -1.604,-2.344 -0.986,-3.577 0.616,-1.233 1.356,-1.727 1.603,-3.083 0.247,-1.357 0.124,-2.467 0,-3.824 -0.123,-1.357 -0.369,-2.467 -1.85,-1.603 -1.48,0.863 -0.493,1.603 -2.22,1.973 -1.727,0.37 -2.097,0.618 -3.206,1.481 -1.11,0.863 -2.098,0.739 -2.714,1.356 -0.616,0.617 -1.603,-0.246 -2.467,0.617 -0.863,0.863 -1.85,0.616 -1.479,1.479 0.369,0.864 1.603,0.698 2.096,1.089 0.494,0.392 0.864,1.624 0.247,1.871 -0.616,0.247 -0.987,-0.253 -0.37,1.107 0.617,1.36 1.11,0.003 1.48,0.497 0.369,0.493 -0.123,1.634 -0.123,1.634 0,0 -0.37,0.489 -0.74,0.846 -0.37,0.358 -0.986,0.383 -1.48,0 -0.493,-0.383 -0.37,-0.63 -0.493,-1.493 -0.123,-0.864 -0.247,-1.981 -0.863,-1.484 -0.617,0.497 -1.356,0.375 -1.727,0.99 -0.37,0.617 -0.74,1.788 -1.356,1.141 -0.617,-0.647 0.986,-1.518 0.74,-2.131 -0.247,-0.613 -0.494,-0.736 -0.371,-1.723 0.124,-0.987 -0.037,-1.48 -0.512,-2.467 -0.475,-0.986 -1.092,-0.247 -1.461,-1.233 -0.37,-0.987 -0.617,-1.85 0,-1.973 0.616,-0.123 1.973,-0.986 2.59,-1.48 0.616,-0.494 2.343,-0.864 2.96,-0.864 0.616,0 0.986,-1.356 1.11,-2.96 0.123,-1.603 0.493,-3.33 -0.617,-3.33 -1.109,0 -0.986,0.494 -1.604,1.234 -0.616,0.739 -0.74,1.109 -1.604,1.233 -0.863,0.123 -3.218,0.37 -3.212,0 0.01,-0.37 0.129,-1.974 -0.734,-1.11 -0.863,0.863 -0.435,2.096 -1.08,2.713 -0.646,0.618 -0.771,1.233 -1.51,1.357 -0.74,0.123 -1.177,0.74 -1.144,1.48 0.033,0.741 0.033,1.604 -0.583,1.233 -0.617,-0.37 -2.591,-0.37 -3.33,-0.492 -0.74,-0.124 -0.804,-0.618 -0.71,-2.344 0.094,-1.727 -0.771,-2.96 0.093,-3.331 0.864,-0.369 1.851,0 2.591,-0.739 0.739,-0.74 0.459,-1.48 0.538,-1.727 0.078,-0.246 -1.032,0.494 -1.401,0.617 -0.37,0.123 -2.345,0.025 -1.728,-0.667 0.617,-0.69 0.247,-1.676 0.617,-2.171 0.37,-0.492 0.863,-0.122 1.11,-0.986 0.246,-0.863 -0.988,-1.11 -1.728,-0.863 -0.739,0.247 -1.727,0.559 -1.85,-0.09 -0.123,-0.65 -0.247,-1.513 -1.11,-0.526 -0.863,0.987 -0.74,0 -0.986,1.974 -0.246,1.973 1.109,2.096 0,2.96 -1.11,0.863 -1.884,1.48 -2.113,1.111 -0.23,-0.371 -0.847,0.492 -0.97,-0.865 -0.124,-1.356 -0.124,-1.48 -1.604,-2.096 -1.479,-0.618 -0.987,-0.864 -1.974,-1.973 -0.986,-1.111 -0.863,-2.374 -1.973,-1.558 -1.11,0.817 -0.864,0.817 -2.098,0.817 -1.232,0 -1.109,-0.616 -2.096,0.37 -0.987,0.986 0.057,1.48 -0.773,2.344 -0.831,0.862 -0.502,0.616 -2.763,0.493 -2.261,-0.123 -2.138,-0.494 -3.618,-1.111 -1.48,-0.616 -2.48,-1.603 -1.918,-2.219 0.562,-0.616 1.056,-1.604 1.672,-1.973 0.616,-0.371 0.863,-1.603 2.097,-1.48 1.233,0.123 1.068,0.74 1.768,-0.494 0.699,-1.233 -0.136,-2.713 1.083,-2.96 1.219,-0.247 2.083,0 0.726,-1.233 -1.357,-1.233 -2.192,-1.974 -0.726,-2.22 1.466,-0.246 2.25,-1.357 3.215,0 0.965,1.357 0.965,2.714 1.704,2.59 0.74,-0.123 0.74,-0.616 0.987,-1.602 0.246,-0.988 -0.371,-0.954 0.493,-1.648 0.863,-0.696 0.863,-0.573 0.739,-1.806 -0.123,-1.234 -0.616,-3.329 -0.862,-4.563 -0.247,-1.233 0.37,-1.11 -0.863,-1.357 -1.233,-0.247 -2.533,-2.343 -3.733,-2.713 -1.2,-0.37 -3.832,-0.247 -2.763,-1.233 1.069,-0.987 2.606,-0.863 2.763,-1.604 0.156,-0.74 -0.803,-1.356 -1.68,-1.85 -0.877,-0.494 -1.741,-0.74 -1.68,-1.851 0.062,-1.109 0.433,-2.342 -0.924,-2.22 -1.357,0.123 -1.234,0.986 -1.727,1.233 -0.493,0.247 -1.07,0.123 -2.446,-0.617 -1.377,-0.739 -5.052,-1.973 -5.373,-2.836 -0.321,-0.864 -0.321,-1.604 -1.431,-2.097 -1.109,-0.494 -2.301,-0.248 -3,-1.11 -0.7,-0.863 -1.316,-1.85 -2.426,-2.22 -1.11,-0.37 -2.961,0 -3.947,0 -0.986,0 -1.233,0.494 -2.343,0.864 -1.11,0.37 -1.728,0 -3.084,1.11 -1.356,1.109 -0.63,0.37 -2.597,0.863 -1.967,0.494 -1.72,-0.617 -3.2,1.234 -1.48,1.85 -0.74,0.987 -1.48,2.96 -0.74,1.973 -0.37,1.356 -1.727,2.96 -1.357,1.602 -2.837,0.863 -2.344,2.96 0.494,2.096 -0.44,1.85 -0.097,4.069 0.344,2.221 -0.623,1.604 -0.078,3.454 0.545,1.85 0.668,2.343 1.038,3.454 0.37,1.11 1.11,0.986 1.11,2.22 0,1.234 -0.494,0.74 -1.357,1.11 -0.863,0.37 -1.307,1.356 -0.961,2.343 0.345,0.986 -0.334,2.466 -0.118,2.836 0.216,0.371 -0.524,1.11 -0.647,1.85 -0.124,0.74 -0.124,1.727 0,3.577 0.123,1.85 -0.679,3.083 -0.093,5.18 0.586,2.098 0.709,2.098 0.833,4.193 0.124,2.096 0.247,2.343 0.986,2.837 0.74,0.493 0.618,-0.247 1.974,1.11 1.356,1.357 1.85,2.097 2.96,2.097 1.11,0 2.343,1.356 2.466,-0.123 0.124,-1.48 -1.246,-2.712 0.733,-2.837 1.98,-0.124 2.693,0 3.2,-0.37 0.507,-0.37 0.507,0.123 0.63,-1.11 0.124,-1.234 -0.247,-1.974 0.493,-1.85 0.74,0.123 0.864,0.493 1.727,0.863 0.863,0.37 1.11,-0.37 1.48,1.357 0.37,1.727 -0.37,2.59 -0.247,3.947 0.124,1.356 0.987,3.454 1.357,4.44 0.369,0.986 1.356,2.466 1.603,3.206 0.247,0.74 0,2.467 1.357,2.344 1.356,-0.123 3.33,-1.343 3.33,-1.343 0,0 -0.925,-0.727 1.264,0 2.189,0.727 2.393,0.85 3.956,0.604 1.563,-0.246 2.671,0.767 2.61,-0.604 -0.061,-1.37 -0.184,-1.74 0.68,-2.233 0.863,-0.494 1.15,-1.734 1.932,-0.744 0.781,0.99 0.905,1.607 1.769,1.114 0.863,-0.494 1.973,0.009 1.233,-1.414 -0.74,-1.423 -1.48,-2.452 -0.37,-2.677 1.109,-0.225 -0.37,0.268 2.467,0.884 2.836,0.617 3.7,-0.412 4.933,-0.884 1.233,-0.473 2.467,-1.089 3.084,-2.075 0.616,-0.988 1.175,-1.234 2.19,-2.344 1.016,-1.11 2.003,-1.604 2.372,-0.247 0.371,1.357 -1.109,5.189 0.371,7.343 1.479,2.154 1.726,3.14 2.219,4.127 0.494,0.987 1.357,2.096 1.727,2.96 0.371,0.863 0.03,1.973 0.509,2.713 0.479,0.74 1.835,0.247 3.562,-0.37 1.727,-0.616 1.99,-0.74 3.709,0 1.718,0.74 3.445,1.247 4.185,2.474 0.74,1.225 1.216,4.301 1.85,3.935 z"
   style="fill:#677821" />
					<path
   id="Hoy_3_"
   fill="#303B09"
   d="m 1160.959,576.713 c -0.54,-2.162 -0.594,-2.507 -2.576,-3.31 -1.12,-0.455 -0.979,-0.718 -1.494,-1.747 -0.492,-0.985 0,-0.739 0.987,-1.972 0.986,-1.234 1.233,-0.371 2.59,-0.617 1.356,-0.247 1.85,-0.617 3.084,-0.863 1.233,-0.247 0.37,-0.741 0.74,-1.357 0.37,-0.617 1.11,-0.247 2.096,-0.494 0.986,-0.247 0.617,-1.109 1.356,-1.604 0.74,-0.493 0,-1.356 -1.109,-1.603 -1.11,-0.247 -0.987,-0.124 -1.547,-0.247 -0.56,-0.122 -0.92,-0.74 -0.303,-1.109 0.617,-0.37 0.124,-0.987 0,-1.604 -0.123,-0.617 -1.11,-0.617 -1.973,-0.986 -0.863,-0.37 -0.494,-0.863 0.246,-1.11 0.74,-0.246 0.864,-0.37 1.11,-1.233 0.246,-0.863 -0.493,-1.727 -1.036,-2.343 -0.543,-0.616 -1.061,-0.74 -0.814,-1.849 0.247,-1.111 0,0 -0.123,-0.617 -0.124,-0.617 -0.37,-0.74 0.493,-1.111 0.863,-0.37 0.247,-0.74 0,-1.603 -0.247,-0.863 -2.343,-2.466 -3.33,-2.836 -0.987,-0.37 -0.986,-0.37 -1.85,-1.11 -0.863,-0.74 -1.85,-1.11 -2.343,-1.727 -0.493,-0.617 -2.097,-1.233 -3.33,-1.48 -1.233,-0.247 -2.467,0.123 -2.96,-0.123 -0.493,-0.246 -0.247,-1.11 0.123,-1.603 0.37,-0.493 -0.247,-1.355 -0.986,-1.604 -0.74,-0.247 -0.864,-1.11 -0.864,-1.603 0,-0.494 -0.74,-0.864 -1.323,-1.48 -0.583,-0.617 -2.007,-0.123 -3.364,0 -1.356,0.123 -1.356,0.616 -2.22,1.595 -0.863,0.978 -1.604,0.132 -2.714,0.008 -1.109,-0.124 -0.986,1.11 -1.479,1.728 -0.493,0.615 -1.48,2.342 -1.603,3.823 -0.124,1.479 -0.37,2.961 -0.987,3.699 -0.617,0.74 -0.863,1.603 -1.11,3.207 -0.246,1.603 0.37,0.863 0.987,1.233 0.616,0.37 2.22,0.493 2.96,0.987 0.74,0.493 1.973,-0.494 3.33,0 1.356,0.493 0.493,1.48 0.616,1.972 0.124,0.494 -0.123,3.084 0,3.579 0.124,0.492 0.617,2.219 1.727,3.329 1.11,1.109 2.467,2.219 3.207,2.836 0.74,0.618 1.11,0.864 1.48,1.727 0.37,0.863 -0.987,1.11 0,1.727 0.987,0.616 0.863,0.616 0.617,1.973 -0.246,1.356 -0.617,-0.123 -0.617,0.988 0,1.109 0.617,0.37 1.357,0.986 0.74,0.616 0.863,1.48 1.603,2.466 0.74,0.986 1.11,1.233 1.85,2.153 0.74,0.92 1.233,-0.057 2.343,0.005 1.11,0.062 1.48,-1.049 2.714,-0.925 1.233,0.124 1.48,0 1.727,0.863 0.246,0.863 0.741,0.659 1.11,0.986 1.109,0.987 1.602,0 1.602,0 z"
   style="fill:#677821" />
					<path
   id="Flotta_3_"
   fill="#303B09"
   d="m 1172.472,566.202 c 0.535,0.094 1.438,0.645 2.918,0 1.48,-0.646 1.356,0.151 1.932,-0.835 0.575,-0.986 0.165,-0.494 0.905,0.123 0.74,0.617 0.617,0.864 1.48,0.617 0.863,-0.247 0.493,-0.493 0.124,-0.987 -0.371,-0.494 0.124,-1.11 0,-1.973 -0.124,-0.863 0.617,-0.863 0.493,-2.083 -0.124,-1.22 -0.864,0.603 -1.603,0.85 -0.74,0.247 -1.974,0 -2.412,-0.37 -0.438,-0.37 0.192,-0.863 1.014,-0.48 0.821,0.384 0.411,-0.507 0.535,-1.247 0.124,-0.739 0.74,0 1.48,-0.617 0.74,-0.617 0.74,-0.617 1.911,-0.739 1.172,-0.124 0.309,-0.741 0,-1.234 -0.308,-0.493 -1.788,0 -2.281,0 -0.493,0 -1.974,0.74 -2.96,0.74 -0.986,0 -1.85,0.739 -2.343,1.11 -0.493,0.37 -1.233,1.726 -2.2,2.22 -0.967,0.493 -0.637,1.356 -0.637,2.096 0,0.74 0.617,1.234 1.273,1.727 0,0 -0.164,0.986 0.371,1.082 z"
   style="fill:#677821" />
					<path
   id="Eday_3_"
   fill="#303B09"
   d="m 1213.322,467.069 c -0.095,1.146 -0.548,2.22 0,2.96 0.549,0.74 0.165,1.282 1.097,1.628 0.932,0.346 0.809,0.099 1.672,1.087 0.863,0.986 0.589,-0.135 1.343,1.535 0.754,1.67 0.507,0.726 0.507,2.494 0,1.768 -0.786,1.643 0.039,2.631 0.824,0.986 1.071,1.973 1.688,1.232 0.616,-0.74 1.11,-1.232 2.591,-1.232 1.479,0 1.109,0.863 2.466,0.124 1.356,-0.741 2.714,-1.809 1.11,-2.754 -1.604,-0.946 -1.974,0.288 -2.221,-1.563 -0.246,-1.85 -0.369,-1.925 -0.369,-3.552 0,-1.628 0.247,-2.244 -0.247,-3.478 -0.493,-1.232 -0.863,-1.356 -0.123,-1.973 0.739,-0.617 1.851,-1.338 1.604,-2.334 -0.247,-0.996 -1.356,-1.243 -0.247,-1.613 1.11,-0.37 1.604,0.13 1.85,-1.662 0.247,-1.791 3.058,-1.298 0.48,-2.654 -2.577,-1.357 -3.44,-0.494 -3.687,-1.85 -0.247,-1.357 -0.124,-2.344 0.37,-3.208 0.493,-0.863 2.344,-2.22 0.493,-1.85 -1.85,0.37 -1.767,0.247 -3.35,1.727 -1.584,1.481 -2.323,0.37 -1.83,2.344 0.493,1.973 1.356,1.726 0.493,2.96 -0.863,1.233 -1.974,0.37 -0.987,1.85 0.987,1.48 2.674,0.863 2.324,2.467 -0.351,1.604 0.967,2.046 0,3.551 -0.967,1.505 -1.091,2.369 -2.324,2.245 -1.233,-0.123 -2.137,0 -2.548,-1.11 -0.413,-1.112 -2.01,-2.226 -2.194,-0.002 z"
   style="fill:#677821" />
					<path
   id="Burray_3_"
   fill="#303B09"
   d="m 1198.577,558.744 c 1.11,0.53 3.083,-0.038 4.687,-0.038 1.604,0 2.713,0.247 3.832,-0.526 1.119,-0.774 2.458,-1.447 2.211,-1.872 -0.246,-0.427 -1.232,-0.931 -2.211,-0.799 -0.979,0.132 -0.749,-0.009 -1.199,-0.323 -0.451,-0.314 -0.289,-2.152 -0.413,-3.138 -0.123,-0.987 0.987,-1.111 0,-1.728 -0.986,-0.616 -2.22,0.741 -3.33,1.728 -1.11,0.986 0.493,1.972 -0.093,3.138 -0.586,1.167 -1.017,-0.302 -2.235,-0.919 -1.218,-0.617 -1.371,0.247 -2.235,0.919 -0.863,0.673 -1.443,1.822 -1.443,1.822 -0.375,0.619 1.318,1.205 2.429,1.736 z"
   style="fill:#677821" />
				</g><rect
   style="fill:none;stroke:#000000;stroke-width:0.29998;stroke-linejoin:bevel;stroke-dasharray:none;paint-order:stroke fill markers"
   id="rect2"
   height="4390.293"
   x="0.19998971"
   y="0.19998971"
   ry="0.69917101"
   width="4353.8188" /></svg>
