<?xml version="1.0" encoding="UTF-8" standalone="no"?>
<!-- Generator: Adobe Illustrator 22.1.0, SVG Export Plug-In . SVG Version: 6.00 Build 0)  -->

<svg
   version="1.1"
   x="0px"
   y="0px"
   viewBox="0 0 4354.1187 4390.5933"
   enable-background="new 0 0 1995.865 2834.646"
   xml:space="preserve"
   id="svg1596"
   width="4354.1187"
   height="4390.5933"
   xmlns="http://www.w3.org/2000/svg"
   xmlns:svg="http://www.w3.org/2000/svg"><defs
   id="defs1596" />


<path
   id="Perth_and_Kinross_2_"
   fill="#4B5A26"
   d="m 2065.1575,1781.3671 c 0,0 -1.193,-1.64 -1.193,-2.462 0,-0.822 1.644,-3.083 2.059,-3.755 0.414,-0.671 -2.265,-2.618 -2.265,-2.618 0,0 -1.439,1.85 -3.901,2.466 -2.462,0.618 -6.378,-0.822 -7.359,-1.338 -0.981,-0.517 0.57,-0.718 0,-3.864 -0.569,-3.146 0.159,-1.992 1.99,-3.339 1.83,-1.347 1.458,0.112 3.736,0 2.278,-0.113 2.862,-0.093 5.266,-1.223 2.404,-1.129 2.119,-1.748 3.95,-2.761 1.831,-1.013 1.87,-0.221 2.49,-1.046 0.621,-0.826 0,-2.079 0,-2.079 0,0 -0.415,-0.796 -1.032,-2.03 -0.616,-1.233 0,0 1.032,-2.056 1.032,-2.056 -0,-1.233 1.023,-3.553 1.028,-2.319 0,-1.998 0,-5.698 0,-3.7 0,0 3.29,-2.246 3.289,-2.247 1.439,-0.426 1.85,-2.276 0.411,-1.851 0.617,-2.26 2.44,-4.164 1.823,-1.902 1.26,-1.798 3.728,-2.258 2.467,-0.46 2.261,2.927 3.526,5.547 1.266,2.62 5.88,1.483 5.88,1.483 l 7.969,-13.678 c 0,0 1.538,0.53 3.799,1.341 2.261,0.812 1.85,-0.194 4.446,-3.072 2.596,-2.878 1.516,-1.439 6.219,-2.888 4.704,-1.448 3.108,-0.607 4.494,-1.071 1.387,-0.465 1.081,-2.62 3.483,-3.478 2.402,-0.857 1.298,-1.198 0,-3.112 -1.298,-1.915 0.476,-2.403 1.943,-5.094 1.467,-2.691 1,-1.42 3.529,-2.224 2.53,-0.803 3.021,2.036 6.31,3.167 3.29,1.13 6.784,1.131 10.073,0 3.29,-1.131 1.439,0.72 3.495,1.85 2.056,1.13 1.028,-1.541 2.85,-0.501 1.822,1.041 1.673,0.398 2.818,-1.349 1.145,-1.748 1.528,-2.158 0.911,-5.514 -0.617,-3.356 0.206,-2.4 1.209,-5.27 1.003,-2.87 1.463,-1.447 3.797,0 2.334,1.448 0.133,1.635 3.011,2.252 2.878,0.616 1.233,0.617 2.048,2.283 0.814,1.665 1.652,-0.021 4.137,-0.021 2.485,0 1.832,0.411 3.039,-2.426 1.207,-2.836 2.083,-0.864 4.928,-0.247 1.423,0.309 1.397,0.245 1.397,0.245 0,0 0.188,2.054 1.483,1.539 1.295,-0.516 4.625,-2.376 5.365,-1.539 0.74,0.837 1.665,3.428 3.33,3.797 1.665,0.37 4.084,0.186 4.725,-1.109 0.641,-1.296 0.986,-3.768 2.016,-2.902 1.03,0.866 2.052,1.838 3.483,2 1.432,0.161 2.523,0.822 4.105,-0.248 1.582,-1.071 3.431,-0.225 3.894,0 0.462,0.224 1.572,3.184 1.942,4.664 0.37,1.48 -1.11,3.752 0,4.466 1.11,0.714 2.405,-0.528 3.145,0 0.74,0.529 3.169,1.454 3.712,1.084 0.543,-0.37 1.838,-0.029 2.763,1.096 0.925,1.125 2.22,0.643 3.7,0.976 1.479,0.333 1.613,-0.621 3.304,-0.976 1.691,-0.355 4.649,-0.015 5.853,0 1.204,0.015 3.282,0.976 3.282,0.976 l -0.174,-0.078 c -0.376,1.157 0.13,1.213 -0.515,2.214 -0.645,1.001 -0.342,2.082 -1.205,3.478 -0.864,1.394 -1.11,1.194 -1.356,2.427 -0.247,1.233 0.986,1.48 2.241,2.22 1.256,0.74 1.335,1.48 2.922,2.383 1.587,0.904 0.757,0.823 0,1.281 -0.756,0.458 -0.107,1.146 0,2.133 0.107,0.986 0.017,2.22 -0.438,3.291 -0.453,1.071 -0.532,1.766 -0.902,2.506 -0.37,0.74 -0.987,1.851 -1.421,3.33 -0.434,1.48 0.064,4.071 0.848,5.057 0.784,0.987 2.053,1.233 1.913,1.974 -0.14,0.741 0.017,2.22 0,2.837 -0.016,0.616 1.373,1.85 1.99,1.605 0.616,-0.245 1.726,3.451 2.202,4.068 0.475,0.617 1.621,0.493 2.484,0.863 0.863,0.37 0.616,0.987 0.986,2.237 0.37,1.25 0.123,2.819 0.863,3.081 0.74,0.26 1.357,1.219 1.604,2.329 0.247,1.11 0.493,1.727 1.233,1.718 0.74,-0.01 1.48,0.133 2.343,0.01 0.863,-0.124 1.604,0.987 2.246,1.719 0.642,0.733 3.428,1.241 4.292,1.612 0.863,0.372 3.453,0.492 4.317,0.137 0.864,-0.355 1.85,0.108 2.868,0 1.018,-0.108 1.354,0 1.676,0.591 0.322,0.59 0.014,1.113 0.049,1.524 0.035,0.411 0.24,1.182 0.117,1.751 -0.124,0.569 -1.371,0.595 -1.842,0.729 -0.471,0.134 -1.475,0.445 -1.967,0.8 -0.491,0.354 -0.33,0.681 -0.901,1.318 -0.571,0.638 -0.37,0.671 -0.37,1.411 0,0.74 0.493,0.986 1.727,0.987 1.233,0 1.604,0 2.343,0 0.74,0 0.124,1.479 0.124,2.096 0,0.617 0.235,1.069 -0.314,1.195 -0.549,0.125 -1.791,0.518 -2.021,0.665 -0.23,0.147 0.604,1.107 1.379,0.861 0.775,-0.246 0.731,0.183 1.2,0.614 0.469,0.432 1.191,0.19 1.945,-0.368 0.754,-0.558 1.114,-1.62 1.114,-1.62 0,0 0.438,-0.433 1.024,-0.837 0.586,-0.404 0.894,-1.319 0.894,-1.319 0,0 1.44,-1.042 2.751,-1.268 1.311,-0.226 -0.018,1.708 -0.467,2.263 -0.449,0.554 -0.476,2.219 -1.03,2.781 -0.555,0.562 -3.146,3.139 -4.126,3.611 -0.981,0.473 -4.014,3.042 -5.864,4.337 -1.85,1.295 -1.295,0.925 -0.74,2.675 0.555,1.75 0.925,1.95 2.256,3.245 1.332,1.296 -0.961,2.405 -3.724,3.156 -2.763,0.75 -2.047,1.284 -0.937,2.58 1.11,1.294 1.665,1.294 0.937,2.124 -0.728,0.83 1.098,1.761 2.393,2.5 1.295,0.74 3.885,2.22 4.642,2.775 0.757,0.555 0.723,1.48 2.204,2.43 1.479,0.949 0.739,0.715 1.295,2.174 0.555,1.459 2.59,0.206 3.163,0.021 0.573,-0.186 3.918,0.925 3.918,0.925 l 2.334,1.85 c -1.328,0.385 -0.72,0.37 -2.569,0.925 -1.85,0.556 -1.48,-0.185 -3.145,0.925 -1.665,1.11 -2.59,2.22 -3.7,3.145 -1.11,0.925 -2.775,4.439 -4.625,5.365 -1.85,0.925 -3.33,2.405 -4.44,3.7 -1.109,1.295 -2.405,1.85 -2.774,2.96 -0.37,1.11 1.109,0.925 -1.295,2.22 -2.404,1.295 -2.775,1.665 -4.625,2.035 -1.85,0.37 -1.48,0.925 -3.145,1.479 -2.771,0.924 -4.773,1.509 -6.9,-0.778 -1.404,-1.51 -3.087,-3.661 -5.388,-3.647 0,0.023 0,0.226 0,0.248 1.438,0.418 2.416,1.801 3.452,2.791 0.51,0.487 0.737,1.372 1.25,1.786 0.471,0.381 1.18,0.229 1.638,0.62 0.629,0.538 0.442,1.12 1.506,1.386 1.48,0.37 3.515,0.37 6.105,0.185 0,0 -0.185,1.85 0.247,2.218 0.432,0.369 -1.172,1.667 -2.558,3.669 -1.386,2.002 -1.02,0.958 -2.083,2.438 -1.064,1.48 -0.231,3.146 -0.65,4.489 -0.419,1.343 -0.691,2.171 -2.458,3.096 -1.767,0.926 -3.442,0 -3.442,0 0,0 -2.931,2.035 -3.446,2.583 -0.515,0.547 -1.476,2.036 -1.476,2.036 0,0 0.596,0.445 1.913,1.282 1.318,0.837 1.003,0.865 1.003,0.865 0,0 -1.109,3.778 0.37,3.907 1.48,0.129 5.92,0.981 8.187,0.45 2.266,-0.531 0.879,3.121 0.879,4.406 0,1.284 2.035,-0.36 2.774,1.312 0.74,1.672 -0.555,1.657 -0.185,2.952 0.37,1.295 1.172,2.712 1.172,2.712 l -6.907,2.625 c 0,0 1.665,1.509 1.616,2.375 -0.05,0.864 -1.801,0.244 -4.062,0.306 -2.261,0.062 -4.584,0.864 -5.285,1.233 -0.7,0.37 -0.964,4.811 -2.164,5.048 -1.199,0.238 -6.015,0.873 -7.632,0 -1.616,-0.872 -2.85,-0.237 -2.85,-0.237 0,0 -7.929,0.37 -9.274,0.237 -1.345,-0.132 -2.54,-2.272 -3.921,-2.995 -1.381,-0.723 -1.394,-0.018 -2.442,1.672 -1.049,1.688 -1.912,2.944 -1.912,2.944 l -5.735,1.656 -1.85,-2.318 -0.166,-3.954 1.694,-0.778 c 0,0 4.392,-2.754 4.669,-3.188 0.278,-0.433 1.573,-1.787 2.405,-3.369 0.832,-1.583 0,-2.531 0,-2.531 l -2.405,-0.146 -0.934,-1.453 -1.625,0.543 -1.789,1.056 c 0,0 -1.85,-0.326 -2.501,0 -0.651,0.327 -1.568,1.339 -2.229,1.503 -0.66,0.165 -1.005,-0.164 -2.016,-0.82 -1.01,-0.656 -2.689,0.656 -3.735,0.656 -1.045,0 -3.949,0.37 -4.443,0 -0.493,-0.37 -1.429,-4.045 -1.429,-4.045 l -2.621,-0.95 c 0,0 -2.487,1.295 -4.434,2.035 -1.947,0.74 -3.722,2.201 -3.722,2.201 0,0 -1.546,-5.346 -2.081,-6.281 -0.535,-0.935 -3.35,1.12 -4.817,1.384 -1.467,0.264 -2.603,-2.629 -2.603,-2.629 l -2.29,1.245 -5.188,-4.854 c 0,0 -1.587,-2.905 -3.511,-4.756 -1.924,-1.85 -2.887,-1.85 -3.568,-2.22 -0.682,-0.37 -2.623,-1.117 -2.623,-1.117 0,0 -1.875,0.562 -2.449,0 -0.574,-0.562 -3.05,-2.213 -3.05,-2.213 0,0 -1.371,0.925 -1.92,1.323 -0.548,0.397 -2.781,-0.212 -3.923,-0.953 -1.141,-0.74 -2.003,-2.774 -4.205,-3.836 -2.202,-1.062 -4.088,-1.344 -5.722,-2.174 -1.633,-0.83 -4.842,-2.686 -5.55,-3.942 -0.708,-1.258 0,-3.643 0,-3.643 l -0.418,-3.425 v -7.771 l 5.845,-0.748 c 0,0 -1.573,-16.087 -1.019,-17.567 0.554,-1.48 1.295,1.295 2.22,1.85 0.925,0.555 2.22,1.665 3.247,1.228 1.027,-0.437 2.673,-2.707 3.154,-3.078 0.481,-0.37 5.176,-0.74 5.176,-0.74 0,0 -1.587,-3.515 -1.15,-4.563 0.437,-1.048 -3.027,-3.577 -4.026,-4.53 -0.999,-0.954 -5.167,-1.732 -5.167,-1.732 0,0 -3.269,1.576 -4.621,1.732 -1.352,0.157 -11.055,5.948 -11.055,5.948 l -2.578,-5.948 c 0,0 -0.74,-2.932 -0.909,-4.042 -0.169,-1.11 -1.866,-3.699 -3.195,-4.58 -1.33,-0.88 -2.556,-2.079 -3.984,-1.525 -1.429,0.555 -1.716,1.851 -3.381,3.242 -1.665,1.393 -2.221,0.458 -3.797,0.469 -1.576,0.01 -4.528,2.024 -6.995,2.209 -2.467,0.185 -2.898,0.74 -3.885,-0.652 -0.987,-1.393 -1.604,-0.272 -2.525,0 -0.922,0.272 -0,2.688 -1.975,3.147 -1.971,0.46 -3.948,0.835 -5.83,1.732 -1.881,0.897 -3.483,0.953 -4.287,1.508 -0.804,0.555 -1.602,2.405 -2.282,3.021 -0.682,0.617 -1.667,1.418 -1.667,1.418 0,0 -2.769,0.925 -3.633,0 -0.864,-0.925 -0.921,0.31 -1.633,-1.418 -0.711,-1.727 -0.954,-2.097 0,-3.392 0.954,-1.295 1.509,-1.856 2.249,-2.871 0.74,-1.015 0.612,-2.134 0.676,-3.147 0.063,-1.012 -0.919,-2.958 -2.925,-3.743 -2.006,-0.785 -2.561,-2.374 -2.006,-3.337 0.555,-0.963 2.653,-3.023 3.639,-2.826 0.986,0.198 5.039,-3.325 6.158,-2.674 1.118,0.651 6.834,-0.258 6.844,-0.081 0.01,0.177 -0.977,-1.299 -1.132,-2.226 -0.153,-0.927 0.332,-3.552 -1.113,-4.83 -1.444,-1.271 -2.801,-3.646 -5.455,-3.213 z"
   style="fill:#677821" /><rect
   style="fill:none;stroke:#000000;stroke-width:0.29998;stroke-linejoin:bevel;stroke-dasharray:none;paint-order:stroke fill markers"
   id="rect2"
   height="4390.293"
   x="0.19998971"
   y="0.19998971"
   ry="0.69917101"
   width="4353.8188" /></svg>
