<?xml version="1.0" encoding="UTF-8" standalone="no"?>
<!-- Generator: Adobe Illustrator 22.1.0, SVG Export Plug-In . SVG Version: 6.00 Build 0)  -->

<svg
   version="1.1"
   x="0px"
   y="0px"
   viewBox="0 0 4354.1187 4390.5933"
   enable-background="new 0 0 1995.865 2834.646"
   xml:space="preserve"
   id="svg1596"
   width="4354.1187"
   height="4390.5933"
   xmlns="http://www.w3.org/2000/svg"
   xmlns:svg="http://www.w3.org/2000/svg"><defs
   id="defs1596" />


<path
   id="Renfrewshire_1_"
   fill="#4B5A26"
   d="m 2074.7805,1986.3771 c -0.37,0.247 -1.727,-2.343 -1.921,-2.836 -0.195,-0.494 -1.655,0.247 -2.127,0.369 -0.473,0.124 -3.352,3.084 -3.845,3.454 -0.494,0.37 -3.397,-0.987 -3.397,-0.987 0,0 -1.783,2.097 -2.277,1.527 -0.493,-0.57 -2.713,-5.474 -2.713,-6.09 0,-0.617 -0.987,-2.96 -1.711,-3.577 -0.724,-0.616 -1.619,-0.616 -1.989,-0.997 -0.37,-0.38 -2.22,-0.482 -2.96,-0.976 -0.74,-0.494 -0.123,-2.343 -0.123,-2.39 0,-0.047 -1.357,-0.94 -2.221,-1.434 -0.863,-0.493 -4.933,-3.479 -4.933,-3.479 l 0.617,-0.467 2.837,-0.908 3.453,-0.818 1.85,-0.042 c 0,0 1.973,1.152 2.72,1.398 0.747,0.247 1.967,1.11 2.583,0.655 0.616,-0.455 4.81,0.578 4.867,0 0.057,-0.578 1.67,-1.765 2.151,-3.046 0.48,-1.28 0.382,-1.556 0.752,-1.666 0.37,-0.109 1.858,-0.37 1.858,-0.37 l -0.304,-2.082 c 0,0 0.79,-1.508 1.037,-2.21 0.246,-0.702 -1.11,-1.147 -1.879,-1.395 -0.768,-0.247 -0.218,-1.604 0,-2.097 0.218,-0.493 -0.465,-1.85 -0.711,-2.097 -0.247,-0.246 -1.727,-0.863 -1.727,-2.097 0,-1.234 1.498,-2.834 1.498,-2.834 0,0 0.269,-0.393 0.668,-0.99 l 0.12,-0.344 c 1.268,0.204 1.661,0.406 3.141,0.591 1.481,0.185 2.775,0.185 3.885,0.185 1.11,0 2.775,0.556 3.516,0.74 0.74,0.185 1.295,-0.185 1.85,-0.185 0.555,0 1.481,0.555 2.22,0.369 0.74,-0.185 1.665,-1.11 1.665,-1.11 l 3.146,0.987 2.96,3.577 3.604,1.492 1.931,1.972 4.55,2.685 v 1.127 l 0.646,1.631 c 0,0 0.617,3.673 0.512,4.08 -0.104,0.407 -1.976,0 -1.976,0 l 0.354,0.825 v 2.018 3.325 l -0.707,2.011 c 0,0 -0.033,-0.284 -0.649,0.066 -0.617,0.351 -1.48,1.214 -2.097,1.461 -0.617,0.246 -0.816,-0.247 -1.395,0.74 -0.579,0.986 -0.155,0.989 -1.169,1.42 -1.014,0.43 -2.617,-0.578 -3.604,-0.321 -0.986,0.258 -1.11,-0.973 -2.22,0.321 -1.11,1.293 -1.48,1.539 -2.59,1.293 -1.11,-0.247 -1.289,-0.371 -1.877,0.863 -0.589,1.234 0.028,-0.123 -0.589,1.234 -0.617,1.357 -1.357,0.461 -1.85,1.649 -0.494,1.188 -0.617,0.954 -1.233,1.564 -0.616,0.61 -0.863,0.487 -2.096,0.61 -1.238,0.126 -2.101,1.606 -2.101,1.606 z"
   style="fill:#677821" /><rect
   style="fill:none;stroke:#000000;stroke-width:0.29998;stroke-linejoin:bevel;stroke-dasharray:none;paint-order:stroke fill markers"
   id="rect2"
   height="4390.293"
   x="0.19998971"
   y="0.19998971"
   ry="0.69917101"
   width="4353.8188" /></svg>
