<?xml version="1.0" encoding="UTF-8" standalone="no"?>
<!-- Generator: Adobe Illustrator 22.1.0, SVG Export Plug-In . SVG Version: 6.00 Build 0)  -->

<svg
   version="1.1"
   x="0px"
   y="0px"
   viewBox="0 0 4354.1187 4390.5933"
   enable-background="new 0 0 1995.865 2834.646"
   xml:space="preserve"
   id="svg1596"
   width="4354.1187"
   height="4390.5933"
   xmlns="http://www.w3.org/2000/svg"
   xmlns:svg="http://www.w3.org/2000/svg"><defs
   id="defs1596" />


<path
   id="Scottish_Borders_1_"
   fill="#606F38"
   d="m 2215.7505,2070.4911 c 0.37,-0.247 0.863,1.233 2.466,1.727 1.603,0.494 5.427,-0.247 5.427,-0.247 0,0 3.083,-1.604 4.317,-1.356 1.233,0.247 3.453,0.124 4.933,0 1.48,-0.123 2.836,0.493 3.7,-0.123 0.863,-0.617 1.604,-3.083 2.344,-3.947 0.74,-0.863 1.479,-2.713 2.713,-2.467 1.233,0.247 1.726,2.097 2.714,1.912 0.986,-0.185 3.611,-0.309 4.396,0 0.784,0.309 2.881,1.542 2.388,2.282 -0.493,0.74 -1.693,1.727 -2.388,2.343 -0.696,0.616 -1.625,1.85 -2.702,2.59 -1.077,0.74 -2.68,1.233 -2.557,2.344 0.123,1.11 0.123,2.343 -0.124,3.33 -0.246,0.986 -0.247,1.727 -0.74,2.467 -0.493,0.739 -1.11,2.096 -0.74,2.836 0.37,0.74 -0.986,1.357 0.616,1.851 1.604,0.493 1.728,0.986 2.837,0.37 1.11,-0.617 2.995,-2.098 3.409,-2.714 0.414,-0.616 2.042,-1.604 2.461,-1.788 0.419,-0.186 0.279,-1.542 2.569,-1.295 2.291,0.246 4.881,0.863 5.374,1.85 0.493,0.987 2.343,3.083 2.343,3.083 0,0 3.454,-1.356 3.824,-1.356 0.37,0 3.33,0.247 3.7,0.493 0.37,0.247 2.096,1.851 2.096,2.837 0,0.986 0.617,3.576 1.48,4.316 0.863,0.74 3.021,4.193 3.299,4.316 0.278,0.124 0.894,3.454 0.894,3.454 0,0 -0.555,3.823 0.956,3.823 1.511,0 3.035,-0.37 3.814,0 0.779,0.37 1.396,1.727 2.506,1.48 1.11,-0.247 2.96,-2.467 3.577,-2.961 0.616,-0.493 2.836,-1.356 3.207,-1.356 0.369,0 2.45,0.493 3.074,0.863 0.625,0.37 2.512,-0.123 3.48,0.124 0.968,0.246 2.537,2.219 2.431,2.836 -0.106,0.617 -1.462,1.892 -1.956,2.734 -0.493,0.843 -1.974,2.692 -1.912,3.433 0.062,0.74 -0.432,1.851 0.679,2.097 1.11,0.246 2.319,0.863 3.194,0.616 0.876,-0.246 1.985,-1.726 2.355,-0.246 0.37,1.48 0.863,1.604 0,2.96 -0.863,1.356 -1.761,2.59 -2.36,4.193 -0.599,1.604 -2.993,3.327 -2.351,5.179 0.642,1.851 0.642,3.824 0.642,5.181 0,1.357 -0.369,2.714 0.74,3.947 1.11,1.233 3.797,0.406 3.811,1.807 0.014,1.399 1.196,5.915 0.799,6.228 l 1.064,-0.511 c 1.357,-0.863 1.233,-1.727 2.22,-2.837 0.987,-1.11 0.74,-2.22 1.357,-2.96 0.616,-0.74 0.739,0 2.467,0 1.727,0 1.85,-0.617 2.836,-1.604 0.986,-0.987 1.356,-1.109 2.22,-1.727 0.864,-0.618 2.344,-1.604 3.33,-2.344 0.986,-0.739 1.727,-1.603 3.084,-2.097 1.356,-0.493 2.344,-0.986 2.344,-0.986 l 1.665,-2.083 c 0,0 0.801,-1.74 1.417,-3.59 0.617,-1.85 1.11,-3.453 1.851,-4.934 0.741,-1.481 0.74,0 2.22,0 1.48,0 1.357,-0.246 1.974,-1.233 0.617,-0.987 0.37,-1.479 0.124,-2.713 -0.247,-1.233 0.492,-1.728 1.603,-1.851 1.111,-0.123 0.74,-0.74 0.617,-1.233 -0.124,-0.493 -1.851,-0.616 -2.714,-1.233 -0.863,-0.616 0.617,-1.479 1.603,-2.713 0.986,-1.233 0.37,-1.109 1.357,-2.59 0.987,-1.48 0.987,-0.986 2.097,-2.344 1.11,-1.356 1.604,-0.986 2.96,-2.59 1.356,-1.604 1.233,-0.74 2.22,-2.344 0.986,-1.603 0.74,-1.232 2.221,-2.097 1.479,-0.863 2.097,-1.109 3.453,-2.22 1.356,-1.109 1.48,-1.85 2.221,-2.96 0.739,-1.11 1.479,-2.343 2.343,-2.713 0.863,-0.37 2.343,-1.11 3.207,-1.11 0.863,0 2.097,-0.247 3.453,-0.617 1.356,-0.369 2.59,-0.246 3.7,0.494 1.109,0.74 1.109,1.85 2.22,1.85 1.111,0 1.233,-0.123 2.097,-0.74 0.863,-0.616 1.356,-0.986 2.344,-1.85 0.986,-0.863 1.727,-0.74 2.22,-1.48 0.493,-0.739 0.718,-1.479 0.718,-1.479 v -1.727 c 0,0 0.762,-1.604 0.234,-3.083 -0.527,-1.48 0,-1.357 0,-1.357 0,0 0.034,-0.74 0,-1.233 -0.034,-0.494 0.896,-1.234 2.5,-1.234 1.603,0 1.356,-0.246 1.85,-0.863 0.493,-0.616 1.233,-1.479 1.728,-1.973 0.492,-0.494 1.727,-1.234 2.343,-1.604 0.616,-0.37 0.986,-0.863 1.974,-0.842 0.986,0.021 1.727,-0.515 2.96,-0.145 1.233,0.37 1.603,0 2.713,-0.74 1.11,-0.74 1.233,-1.233 1.974,-1.727 0.74,-0.494 0.863,-1.48 1.233,-2.467 0.37,-0.987 0.37,-1.727 0.827,-2.344 0.458,-0.616 1.022,-0.493 1.393,-0.739 0.37,-0.247 0.37,-0.987 0.246,-1.357 -0.123,-0.37 -0.492,-0.616 -0.863,-1.11 -0.369,-0.494 -1.973,-0.247 -2.59,-1.356 -0.616,-1.11 -0.739,-3.331 -1.109,-4.07 -0.37,-0.74 -1.357,-1.48 -2.097,-2.714 -0.74,-1.233 -0.124,-3.206 -0.493,-4.316 -0.37,-1.11 -0.74,-2.96 -0.617,-4.07 0.123,-1.11 -1.48,-2.713 -1.973,-3.33 -0.494,-0.617 -2.961,-2.837 -4.44,-3.824 -1.479,-0.986 -1.479,-1.973 -1.604,-2.96 -0.123,-0.986 0.247,-3.946 -0.247,-5.303 -0.492,-1.356 -2.096,-1.233 -2.343,-2.22 -0.246,-0.986 0.123,-2.097 -0.247,-2.713 -0.369,-0.616 -2.097,0.246 -2.59,0 -0.493,-0.247 -0.526,-1.897 -0.526,-1.897 0.116,0.065 0.246,0.109 0.403,0.109 0.648,0 0.369,-0.833 0.648,-1.412 0.277,-0.58 -0.093,-0.438 0.462,-0.078 0.555,0.36 1.572,-0.638 2.035,-0.823 0.463,-0.185 0.925,0.093 1.85,0.186 0.926,0.093 2.035,0 2.961,-0.093 0.925,-0.093 2.22,0.37 3.237,0.555 1.018,0.185 1.202,0.278 1.665,0 0.462,-0.277 0,-1.018 -0.555,-1.387 -0.556,-0.37 -0.74,-0.186 -0.648,-0.926 0.093,-0.739 0.463,-0.925 0.926,-1.479 0.462,-0.555 0.646,-0.555 1.202,-1.202 0.555,-0.647 1.11,0.277 1.572,0 0.463,-0.278 0,-2.498 0,-3.238 0,-0.74 0.463,-0.74 0.925,-1.387 0.463,-0.648 0.926,-0.74 1.388,-1.11 0.463,-0.37 0.37,-0.647 0.463,-1.295 0.093,-0.648 0.462,-0.832 0.925,-1.295 0.463,-0.463 0.74,-0.925 1.295,-1.203 0.555,-0.277 1.388,-0.369 1.85,-0.647 0.463,-0.278 -0.092,-1.018 -0.462,-1.48 -0.37,-0.463 -0.647,-1.295 -0.556,-1.758 0.093,-0.462 1.11,-0.555 1.758,-0.647 0.648,-0.092 1.48,-0.277 1.942,-0.739 0.463,-0.463 -0.093,-2.405 0,-3.045 0.093,-0.64 0.925,-0.471 1.573,-0.563 0.646,-0.092 1.572,0.647 2.22,0.555 0.648,-0.093 0.462,-1.203 0.462,-1.665 0,-0.463 0.37,-0.463 0.878,-0.555 0.507,-0.093 0.232,-1.018 0.048,-1.388 -0.185,-0.37 0.185,-1.388 0.832,-1.665 0.647,-0.278 1.647,0 1.647,0 0,0 0.635,-0.37 0.758,-1.974 0.124,-1.603 0,-4.193 0,-4.193 0,0 0.37,-1.356 1.357,-2.22 0.987,-0.863 2.837,-1.974 2.837,-1.974 l 2.306,-1.937 0.531,0.642 c -0.74,-1.11 -1.851,-1.48 -2.035,-2.59 -0.186,-1.11 -0.37,-2.035 -1.48,-2.96 -1.109,-0.925 -1.109,-2.96 -1.479,-4.07 -0.37,-1.11 -0.556,-4.625 -0.925,-5.92 -0.371,-1.295 -1.666,-0.37 -2.961,-1.11 -1.295,-0.74 -0.925,0.186 -2.404,0 -1.48,-0.185 -1.48,-0.925 -1.851,-1.85 -0.371,-0.925 -0.185,-1.295 0,-2.035 0.186,-0.74 0,-1.665 -0.37,-3.145 -0.369,-1.48 -1.109,-1.665 -2.035,-1.48 -0.924,0.185 -1.479,0.556 -2.59,0.37 -1.109,-0.185 -1.664,-1.479 -2.404,-1.85 -0.74,-0.371 -2.59,-0.37 -3.33,-1.11 -0.74,-0.74 -1.48,-1.11 -2.59,-1.11 -1.11,0 -2.035,0.186 -2.59,0.74 -0.556,0.556 -2.591,0.74 -3.886,0.185 -1.295,-0.555 -1.479,-0.37 -2.22,-0.37 -0.741,0 -2.59,-0.925 -3.885,-0.74 -1.295,0.185 -1.665,-0.555 -1.665,-0.555 l -1.48,-0.74 c 0,0 0.499,0.548 -2.462,-1.672 l -3.951,2.931 -1.392,3.75 c 0,0 -3.418,3.069 -4.158,3.687 -0.74,0.616 -4.316,2.96 -4.934,3.365 -0.616,0.405 -1.603,-1.146 -1.973,-1.888 -0.37,-0.742 -1.481,-3.081 -2.874,-3.821 -1.395,-0.74 -4.279,-1.11 -5.671,-0.616 -1.391,0.493 -0.952,1.232 -1.199,2.22 -0.247,0.986 -1.109,1.604 -1.452,2.218 -0.342,0.614 1.206,1.976 2.069,2.864 0.863,0.888 2.59,2.564 2.804,3.921 0.214,1.357 -2.188,4.688 -3.051,5.304 -0.863,0.616 -1.727,-0.616 -2.59,-0.707 -0.863,-0.092 -0.74,1.447 -1.271,2.187 -0.532,0.74 -1.935,1.074 -1.935,1.074 0,0 -5.181,-0.827 -5.674,-1.074 -0.493,-0.247 -1.479,-1.233 -1.543,-1.85 -0.064,-0.617 -2.527,-0.246 -3.267,0 -0.74,0.247 -6.044,2.59 -7.154,2.924 -1.109,0.333 -2.836,0.036 -3.329,0 -0.493,-0.037 -2.097,-1.814 -2.521,-1.937 -0.424,-0.124 -2.166,0.617 -2.895,0.863 -0.729,0.247 -2.602,1.604 -2.849,2.396 -0.247,0.792 -2.96,1.304 -3.577,1.304 -0.616,0 -1.71,-1.032 -1.71,-1.032 0,0 -2.359,0.786 -2.047,1.104 0.313,0.318 -1.177,2.396 -1.934,2.766 -0.757,0.37 -1.833,0 -2.431,0.37 -0.599,0.37 -2.115,1.85 -3.102,2.959 -0.987,1.11 -2.266,0 -2.266,0 0,0 0.045,-2.589 0,-3.207 -0.045,-0.617 -0.941,-1.727 -1.312,-1.48 -0.37,0.247 -1.727,0 -1.85,0.777 -0.123,0.776 -3.454,4.157 -3.921,4.896 -0.467,0.74 -8.289,5.797 -9.103,6.742 -0.814,0.946 -3.75,3.495 -4.307,5.098 -0.557,1.603 -1.046,2.096 -0.306,3.083 0.74,0.986 0,1.727 -0.74,2.343 -0.74,0.617 -1.973,1.233 -2.344,1.373 -0.369,0.139 -1.973,-0.262 -2.466,-0.878 -0.494,-0.617 -1.233,-2.221 -0.987,-2.591 0.247,-0.369 0,-2.466 0,-3.453 0,-0.987 -1.233,-0.986 -1.274,-2.467 -0.041,-1.479 -1.192,-3.083 -1.465,-3.577 -0.273,-0.494 -0.591,-2.343 -1.455,-3.083 -0.863,-0.74 -0.863,-1.85 -0.986,-2.59 -0.124,-0.74 -0.74,-2.343 -1.48,-2.713 -0.74,-0.371 -2.096,2.713 -2.397,3.33 -0.302,0.616 -4.732,1.973 -4.732,1.973 0,0 -3.107,0.74 -4.093,0.617 -0.987,-0.123 -1.851,-1.233 -1.727,-1.311 0.124,-0.078 -0.247,-2.389 -0.617,-2.883 -0.37,-0.494 -2.837,0.248 -3.762,0.494 -0.925,0.247 -2.85,-0.494 -2.85,-0.494 0,0 -0.788,-2.219 -1.035,-2.712 -0.247,-0.494 -1.233,-1.975 -1.233,-1.975 0,0 -0.986,-1.726 -2.22,-1.355 -1.233,0.37 -3.084,0.863 -4.563,1.355 -1.48,0.493 -2.344,1.728 -2.344,1.728 0,0 -1.109,1.233 -1.123,2.097 -0.014,0.862 -0.233,2.467 0,3.33 0.233,0.863 -2.33,1.356 -3.248,1.973 -0.919,0.617 -0.223,1.48 -0.223,1.48 l 0.454,1.809 0.81,1.274 c 0,0 1.11,2.713 1.6,3.701 l 0.607,2.343 c 0,0 0.507,1.109 0,2.404 -0.507,1.295 1.635,2.031 1.635,2.031 0,0 2.202,0.621 3.929,0.143 1.727,-0.478 0.123,0.354 0,0.848 -0.123,0.494 -1.233,2.343 -1.604,2.59 -0.37,0.247 -1.479,1.109 -2.325,1.604 -0.847,0.493 -1.128,1.85 -1.251,2.784 -0.124,0.934 -0.74,1.162 -1.233,1.532 -0.493,0.37 -1.604,1.727 -2.399,2.097 -0.795,0.37 -0.932,1.233 -0.932,1.603 0,0.37 -2.344,4.193 -2.344,4.193 0,0 0.987,2.343 0.863,2.836 -0.123,0.493 -0.123,1.357 -0.616,2.097 -0.493,0.74 -1.851,1.357 -2.96,2.22 -1.11,0.863 -2.22,-0.37 -2.887,0 -0.667,0.369 -0.197,1.85 0.136,3.242 0.333,1.392 2.381,3.048 2.751,4.127 0.37,1.078 1.85,3.483 1.973,3.977 0.124,0.494 -0.123,2.343 -0.945,2.96 -0.822,0.616 -0.041,2.96 0,4.439 0.042,1.48 0.945,1.851 0.945,3.083 0,1.234 -0.493,2.098 -0.945,2.714 -0.452,0.617 -1.645,2.097 -1.891,3.482 -0.247,1.386 -0.617,2.685 -1.354,4.534 -0.737,1.85 -1.236,3.823 -1.612,4.527 -0.377,0.704 -0.24,3.489 0,3.859 0.24,0.37 0.623,1.727 1.079,1.974 0.456,0.247 1.641,1.603 1.641,2.097 0,0.495 0.737,1.728 0.737,1.728"
   style="fill:#677821" /><rect
   style="fill:none;stroke:#000000;stroke-width:0.29998;stroke-linejoin:bevel;stroke-dasharray:none;paint-order:stroke fill markers"
   id="rect2"
   height="4390.293"
   x="0.19998971"
   y="0.19998971"
   ry="0.69917101"
   width="4353.8188" /></svg>
