<?xml version="1.0" encoding="UTF-8" standalone="no"?>
<!-- Generator: Adobe Illustrator 22.1.0, SVG Export Plug-In . SVG Version: 6.00 Build 0)  -->

<svg
   version="1.1"
   x="0px"
   y="0px"
   viewBox="0 0 4354.1187 4390.5933"
   enable-background="new 0 0 1995.865 2834.646"
   xml:space="preserve"
   id="svg1596"
   width="4354.1187"
   height="4390.5933"
   xmlns="http://www.w3.org/2000/svg"
   xmlns:svg="http://www.w3.org/2000/svg"><defs
   id="defs1596" />


<g
   id="Shetland__x3C_Group_x3E__1_"
   style="fill:#677821"
   transform="translate(1093.6405,660.66109)">
					<path
   fill="#4B5A26"
   d="m 1453.958,211.21 c 0.436,-0.971 0.473,-2.092 1.027,-1.413 0.555,0.678 -0.616,0.925 0.802,0.925 1.419,0 0.802,-0.824 2.158,-0.319 1.357,0.504 1.726,-0.678 1.665,0.808 -0.061,1.484 0.506,1.361 0.01,2.286 -0.499,0.925 -0.684,-0.062 -0.746,1.172 -0.061,1.233 1.233,2.035 -0.185,1.725 -1.418,-0.308 -0.802,0.062 -1.541,-0.924 -0.74,-0.987 -1.233,-1.418 -1.542,-2.159 -0.309,-0.74 -0.124,-0.247 -0.802,-0.924 -0.677,-0.679 -1.119,-0.557 -0.842,-1.177 z"
   id="path1032"
   style="fill:#677821" />
					<path
   fill="#4B5A26"
   d="m 1454.678,215.176 c 0.247,0.446 0.185,0.602 1.356,1.285 1.172,0.683 0.186,-0.498 0,-1.175 -0.185,-0.679 -0.308,-0.803 -0.494,-1.296 -0.185,-0.494 -0.555,-0.308 -1.109,0 0,0 0,0.74 0.247,1.186 z"
   id="path1033"
   style="fill:#677821" />
					<path
   fill="#4B5A26"
   d="m 1379.013,198.819 c 0.555,0.925 1.604,0.679 2.836,0.617 1.234,-0.062 1.296,-0.062 2.097,-0.924 0.802,-0.863 -0.37,-1.049 -0.862,-2.035 -0.494,-0.987 -0.679,-0.802 -1.666,-1.295 -0.986,-0.494 -1.109,0 -1.85,0.432 -0.74,0.432 -0.851,0.755 -1.048,1.542 -0.169,0.674 -0.062,0.738 0.493,1.663 z"
   id="path1034"
   style="fill:#677821" />
					<path
   fill="#4B5A26"
   d="m 1383.256,194.976 c 0.297,0.534 0.505,-0.411 0.628,-1.15 0.124,-0.741 -0.062,-0.741 -0.369,-1.11 -0.309,-0.37 -0.556,0.493 -0.556,0.493 0.124,-0.185 -0.37,0.617 -0.37,0.617 -0.204,0.333 0.37,0.615 0.667,1.15 z"
   id="path1035"
   style="fill:#677821" />
					<path
   fill="#4B5A26"
   d="m 1417.184,195.952 c 0.309,-0.401 -0.062,-0.4 -0.925,-0.339 -0.863,0.062 0,0.432 0,0.678 0,0.001 0.617,0.062 0.925,-0.339 z"
   id="path1036"
   style="fill:#677821" />
					<path
   fill="#4B5A26"
   d="m 1414.903,198.864 c 0.062,0.352 0.986,-0.291 1.325,-0.87 0.339,-0.579 0.217,0.579 0.771,0.838 0.555,0.26 0.062,-1.184 -0.416,-1.588 -0.477,-0.404 -0.875,0.283 -1.372,1.083 -0.262,0.421 -0.37,0.185 -0.308,0.537 z"
   id="path1037"
   style="fill:#677821" />
					<path
   fill="#4B5A26"
   d="m 1415.399,201.903 c 0.495,0.062 0.244,-0.925 0.477,-1.294 0.233,-0.369 -0.726,-0.617 -0.989,-0.555 -10e-4,-0.001 0.016,1.788 0.512,1.849 z"
   id="path1038"
   style="fill:#677821" />
					<path
   fill="#4B5A26"
   d="m 1414.186,207.577 c 0.578,0.185 0.47,0.061 0.7,-0.371 0.229,-0.432 -0.231,-0.739 -0.354,-1.048 -0.123,-0.309 -0.848,0.324 -1.109,0.555 -0.326,0.287 0.185,0.679 0.763,0.864 z"
   id="path1039"
   style="fill:#677821" />
					<path
   fill="#4B5A26"
   d="m 1410.401,211.21 c -0.123,0.056 -0.308,0.806 -0.247,2.101 0.062,1.295 0.124,1.234 1.975,1.111 1.85,-0.123 0.678,0.308 1.418,-0.737 0.74,-1.045 -0.247,-0.312 -0.802,-0.66 -0.556,-0.348 0.123,-0.885 0,-1.814 -0.124,-0.931 -0.675,-0.905 -1.727,-0.674 -0.283,0.062 -0.493,0.616 -0.617,0.673 z"
   id="path1040"
   style="fill:#677821" />
					<path
   fill="#4B5A26"
   d="m 1409.248,209.858 c 0.162,-0.519 0.202,-1.234 0,-1.726 -0.203,-0.494 -0.449,-1.048 -0.635,0 -0.185,1.048 -0.185,1.911 0,1.726 0.185,-0.185 0.519,0.368 0.635,0 z"
   id="path1041"
   style="fill:#677821" />
					<path
   fill="#4B5A26"
   d="m 1415.399,214.175 c 0.063,0.246 -0.064,0.802 0,1.48 0.063,0.678 0.614,0.247 0.667,-0.479 0.053,-0.726 0.316,-1.186 -0.19,-2.151 -10e-4,0 -0.542,0.903 -0.477,1.15 z"
   id="path1042"
   style="fill:#677821" />
					<path
   fill="#4B5A26"
   d="m 1408.474,217.566 c -0.139,0.74 0.57,0.617 1.668,0 1.098,-0.617 0.197,-0.802 0,-1.973 -0.197,-1.171 -0.728,0.308 -1.213,0.401 0,0 -0.316,0.833 -0.455,1.572 z"
   id="path1043"
   style="fill:#677821" />
					<path
   fill="#4B5A26"
   d="m 1408.929,219.664 c 0.01,0.308 -0.131,1.232 0.638,2.219 0.769,0.987 0.896,-0.986 1.821,-1.911 0.925,-0.925 0.369,-0.679 -0.432,-1.418 -0.803,-0.74 -0.617,-0.247 -1.709,0 10e-4,-0.001 -0.326,0.801 -0.318,1.11 z"
   id="path1044"
   style="fill:#677821" />
					<path
   fill="#4B5A26"
   d="m 1411.869,218.275 c 0.358,0.464 1.369,1.079 3.018,0.956 1.647,-0.123 0.448,-0.987 -0.751,-1.155 -1.198,-0.169 -1.026,-0.191 -2.158,-0.757 -0.368,-0.182 -0.467,0.494 -0.109,0.956 z"
   id="path1045"
   style="fill:#677821" />
					<path
   fill="#4B5A26"
   d="m 1422.673,215.994 c -0.888,0.67 -1.728,0.462 -2.467,1.018 -0.74,0.555 -0.679,0.216 -0.556,2.236 0.124,2.019 0.247,1.755 -0.37,2.904 -0.616,1.15 -1.603,2.753 -0.616,2.445 0.986,-0.31 1.911,0.739 2.281,-1.42 0.37,-2.159 0.309,-2.681 0.556,-3.93 0.246,-1.25 0.555,-1.434 0.863,-1.959 0.309,-0.523 0.678,-1.573 0.309,-1.294 z"
   id="path1046"
   style="fill:#677821" />
					<path
   fill="#4B5A26"
   d="m 1416.583,220.896 c -0.045,0.802 0.293,1.295 -0.518,1.788 -0.811,0.493 -0.731,0 -1.931,-0.74 -1.198,-0.74 -0.527,0.309 -0.814,1.173 -0.286,0.862 0.533,1.171 2.06,1.232 1.525,0.062 0.263,0.555 -0.318,2.098 -0.58,1.541 -0.468,0.739 -1.394,1.237 -0.926,0.498 -0.185,0.797 -0.348,1.475 -0.163,0.678 -1.132,0.987 -1.344,1.85 -0.213,0.863 0.397,0.678 0,1.418 -0.397,0.741 0.089,0.864 0.521,2.405 0.432,1.541 0.74,0.74 1.638,0.617 0.897,-0.124 0.829,-1.603 0.813,-3.083 -0.015,-1.48 -0.17,-1.665 0.432,-2.96 0.6,-1.295 1.249,-1.974 1.865,-3.454 0.615,-1.48 0.186,-0.863 0.525,-1.974 0.339,-1.11 0.277,-1.048 0.475,-2.281 0.198,-1.233 -0.176,-1.317 -1,-2.096 -0.444,-0.419 -0.616,0.494 -0.662,1.295 z"
   id="path1047"
   style="fill:#677821" />
					<path
   fill="#4B5A26"
   d="m 1417.246,227.632 c -0.248,0.508 -0.925,1.59 -1.334,2.453 -0.409,0.863 -0.084,0.555 0.154,1.296 0.237,0.739 -0.115,1.294 -0.285,2.651 -0.17,1.358 0.726,1.11 1.096,0.801 0.369,-0.309 0.678,-0.555 1.369,-2.281 0.691,-1.727 0.233,-1.419 1.035,-3.269 0.803,-1.85 0.432,-0.74 0.863,-2.159 0.432,-1.418 0.016,-1.168 -1.109,-1.418 -0.615,-0.135 -1.542,1.418 -1.789,1.926 z"
   id="path1048"
   style="fill:#677821" />
					<path
   fill="#4B5A26"
   d="m 1414.886,237.547 c -0.018,0.555 -0.6,0.74 -0.751,1.972 -0.151,1.234 0.336,1.48 1.557,0.618 1.222,-0.864 -0.173,-0.556 0,-1.419 0.173,-0.863 0.259,-0.678 0.892,-2.344 0.633,-1.664 -0.173,-0.794 -0.672,-0.606 -0.502,0.188 -1.009,1.224 -1.026,1.779 z"
   id="path1049"
   style="fill:#677821" />
					<path
   fill="#4B5A26"
   d="m 1411.063,237.177 c -0.448,0.308 -0.169,0.801 -1.496,0.833 -1.327,0.032 -0.522,0.584 -0.319,1.879 0.202,1.295 0.66,0.802 2.141,0 1.479,-0.801 0.493,-0.678 1.479,-0.987 0.987,-0.308 0,-1.11 0,-1.911 0,-0.802 -0.891,-1.224 -0.891,-1.224 -0.421,-0.29 -0.466,1.101 -0.914,1.41 z"
   id="path1050"
   style="fill:#677821" />
					<path
   fill="#4B5A26"
   d="m 1411.063,244.812 c 0.662,0.915 0.51,1.245 1.99,1.491 1.479,0.247 0.246,-0.679 0.615,-1.85 0.369,-1.171 -0.185,-0.802 -1.109,-0.555 -0.925,0.246 -0.425,0.098 -1.233,-0.616 -0.53,-0.468 -0.925,0.616 -0.263,1.53 z"
   id="path1051"
   style="fill:#677821" />
					<path
   fill="#4B5A26"
   d="m 1409.384,246.343 c -0.152,0.472 0.77,0.7 1.332,0 0.561,-0.699 -0.068,-1.15 0,-1.15 0,0 -1.178,0.679 -1.332,1.15 z"
   id="path1052"
   style="fill:#677821" />
					<path
   fill="#4B5A26"
   d="m 1411.977,258.328 c 0.157,0.925 -0.22,0.432 -1.026,0.487 -0.807,0.056 -0.303,0.5 0.695,1.61 0.998,1.11 0.852,0.432 2.165,0 1.313,-0.431 0.476,-0.802 -0.143,-2.097 -0.617,-1.295 -0.241,-0.933 -1.409,-1.726 -0.419,-0.286 -0.439,0.801 -0.282,1.726 z"
   id="path1053"
   style="fill:#677821" />
					<path
   fill="#4B5A26"
   d="m 1411.063,264.288 c -0.325,0.348 0.017,0.207 0,0.578 -0.017,0.37 1.126,0.493 1.805,0 0.679,-0.494 -0.33,-1.128 -0.999,-1.48 -0.478,-0.254 -0.481,0.554 -0.806,0.902 z"
   id="path1054"
   style="fill:#677821" />
					<path
   fill="#4B5A26"
   d="m 1415.462,287.249 c 0.621,-0.122 0.551,-0.368 0.719,-0.934 0.169,-0.567 -0.045,-0.36 -0.489,-0.36 -0.444,0 -0.604,0 -0.743,0.432 -0.139,0.432 -0.441,0.246 -0.441,0.246 -0.443,0.248 0.333,0.74 0.954,0.616 z"
   id="path1055"
   style="fill:#677821" />
					<path
   fill="#4B5A26"
   d="m 1358.231,160.74 c -0.123,0.216 0.679,0.771 1.295,0.524 0.617,-0.247 -0.142,-0.852 -0.739,-1.048 -0.293,-0.096 -0.433,0.308 -0.556,0.524 z"
   id="path1056"
   style="fill:#677821" />
					<path
   fill="#4B5A26"
   d="m 1371.613,167.925 c 0.124,0.37 0.678,0.308 0.925,-0.493 0.247,-0.802 -0.435,-0.504 -0.925,-0.371 -0.37,0.103 -0.123,0.494 0,0.864 z"
   id="path1057"
   style="fill:#677821" />
					<path
   fill="#4B5A26"
   d="m 1381.603,171.255 c 0.062,1.11 0.678,0.493 1.632,0 0.954,-0.494 0.341,-0.493 -0.688,-1.727 -10e-4,0 -1.006,0.616 -0.944,1.727 z"
   id="path1058"
   style="fill:#677821" />
					<path
   fill="#4B5A26"
   d="m 1407.071,164.842 c 0.608,-0.426 1.388,-0.617 1.403,-1.665 0.016,-1.049 0.094,-0.803 0.455,-1.604 0.361,-0.802 1.075,-0.802 0.318,-1.604 -0.758,-0.801 0.705,-1.726 -0.921,-1.418 -1.626,0.308 -2.921,0.493 -2.181,0.986 0.74,0.494 2.221,0.925 1.11,1.295 -1.11,0.371 -1.229,0.063 -1.323,0.833 -0.096,0.77 -0.584,0.708 0,1.634 0.584,0.926 0.618,1.906 1.139,1.543 z"
   id="path1059"
   style="fill:#677821" />
					<path
   fill="#4B5A26"
   d="m 1410.142,154.956 c -0.136,0.412 0.383,1.128 1.406,1.375 1.024,0.247 0.58,-0.493 0.703,-1.911 0.123,-1.419 -0.617,-0.741 -1.418,-0.618 0,0.001 -0.555,0.741 -0.691,1.154 z"
   id="path1060"
   style="fill:#677821" />
					<path
   fill="#4B5A26"
   d="m 1399.61,146.527 c -0.309,0.247 -0.617,0.801 -0.864,2.034 -0.246,1.234 -0.801,1.112 -2.096,0.741 -1.295,-0.37 -0.802,0.493 -0.494,2.096 0.309,1.604 1.234,1.788 1.295,3.022 0.062,1.232 0.679,1.232 2.221,3.514 1.541,2.281 1.665,0 4.687,0 3.022,0 1.788,-0.678 3.259,-1.912 1.47,-1.233 0.441,-1.295 1.312,-2.775 0.872,-1.48 0.177,-2.097 -0.455,-3.021 -0.632,-0.925 -1.218,-0.494 -2.143,-0.925 -0.926,-0.432 -1.666,-1.11 -2.528,-1.665 -0.863,-0.556 -1.172,-0.618 -2.158,-1.604 -0.987,-0.986 -0.701,-0.472 -1.419,0 -0.444,0.293 -0.31,0.248 -0.617,0.495 z"
   id="path1061"
   style="fill:#677821" />
					<path
   fill="#4B5A26"
   d="m 1435.129,138.387 c 0.432,0.494 0.802,-0.123 2.22,-0.864 1.418,-0.74 0.37,-0.678 0,-1.788 -0.37,-1.111 -0.185,-0.617 -0.925,-1.788 -0.74,-1.173 -0.679,0.061 -1.295,0.431 -0.617,0.37 -0.616,0.308 -0.986,1.172 -0.37,0.863 0,0.576 0.37,1.542 0.118,0.311 0.185,0.801 0.616,1.295 z"
   id="path1062"
   style="fill:#677821" />
					<path
   fill="#4B5A26"
   d="m 1438.398,132.651 c 0.186,0.926 0.616,0.493 1.665,0 1.049,-0.493 0,-0.925 0,-2.22 0,-1.294 -0.74,-0.494 -1.356,0.432 0,0 -0.495,0.864 -0.309,1.788 z"
   id="path1063"
   style="fill:#677821" />
					<path
   fill="#4B5A26"
   d="m 1438.83,134.439 c -0.186,-0.061 -0.123,0.802 0.613,1.233 0.736,0.432 0.35,-0.542 0,-1.233 -0.176,-0.346 -0.429,0.062 -0.613,0 z"
   id="path1064"
   style="fill:#677821" />
					<path
   fill="#4B5A26"
   d="m 1442.067,130.74 c 0.771,-0.061 0.647,-0.741 0.401,-2.159 -0.247,-1.417 -0.709,0.374 -0.803,1.174 -0.029,0.253 -0.369,1.047 0.402,0.985 z"
   id="path1065"
   style="fill:#677821" />
					<path
   fill="#4B5A26"
   d="m 1438.357,125.436 c 0.39,0.432 1.274,0.741 3.209,0.617 1.935,-0.123 -0.208,-0.493 -1.703,-1.604 -1.496,-1.11 -0.108,-1.172 -1.121,-1.48 -1.014,-0.309 0.088,1.11 -0.672,1.48 0,0.001 -0.104,0.556 0.287,0.987 z"
   id="path1066"
   style="fill:#677821" />
					<path
   fill="#4B5A26"
   d="m 1453.753,154.956 c 0.123,0.288 0.492,1.499 1.973,0.327 1.48,-1.172 -0.186,-0.863 0.308,-2.22 0.493,-1.357 0.432,-0.801 0.493,-1.973 0.062,-1.171 -0.802,-0.123 -1.911,0.74 -1.029,0.8 -0.84,1.176 -0.855,2.159 0,0.079 0,0.161 -0.01,0.247 0,-10e-4 -0.124,0.43 0,0.72 z"
   id="path1067"
   style="fill:#677821" />
					<path
   fill="#4B5A26"
   d="m 1432.478,116.155 c 0.092,0.555 0.555,1.295 0.74,2.312 0.185,1.018 1.109,1.018 2.812,1.388 1.703,0.37 -0.037,-0.74 -0.407,-2.035 -0.369,-1.295 -0.925,-0.925 -1.633,-1.85 -0.707,-0.925 -0.533,-0.32 -0.772,-0.463 -0.772,-0.462 -0.833,0.094 -0.74,0.648 z"
   id="path1068"
   style="fill:#677821" />
					<path
   fill="#4B5A26"
   d="m 1424.616,116.304 c -0.093,-0.406 -0.093,-0.333 -0.463,-0.968 -0.37,-0.635 -1.295,-0.291 -1.572,0 -0.277,0.29 0.889,1.779 2.035,2.295 0.493,0.223 0.092,-0.921 0,-1.327 z"
   id="path1069"
   style="fill:#677821" />
					<path
   fill="#4B5A26"
   d="m 1420.453,112.548 c 0.829,-0.379 1.018,-0.463 1.388,-0.925 0.37,-0.462 1.11,-1.941 0,-1.665 -1.11,0.277 -1.572,0.277 -1.942,0.832 -0.37,0.556 -0.832,0.833 -0.463,1.295 0.369,0.463 0.489,0.705 1.017,0.463 z"
   id="path1070"
   style="fill:#677821" />
					<path
   fill="#4B5A26"
   d="m 1428.593,112.644 c 0.092,0.834 0.832,0.275 2.22,0 1.388,-0.276 -0.463,-0.836 -0.74,-1.761 -0.277,-0.925 -0.925,-0.647 -1.48,0 0,0 -0.093,0.925 0,1.761 z"
   id="path1071"
   style="fill:#677821" />
					<path
   fill="#4B5A26"
   d="m 1433.033,112.644 c 0.435,0.897 0.435,2.217 0.957,1.477 0.523,-0.74 0.495,-0.643 0,-1.477 -0.494,-0.836 -0.772,-2.163 -0.957,-1.361 -0.185,0.802 -0.257,0.83 0,1.361 z"
   id="path1072"
   style="fill:#677821" />
					<path
   fill="#4B5A26"
   d="m 1471.513,68.148 c 0.767,1.394 0.185,1.573 1.479,2.682 1.295,1.11 1.665,2.313 2.312,1.295 0.647,-1.017 -0.462,-0.725 0.463,-1.796 0.925,-1.071 1.48,-0.608 0,-1.441 -1.48,-0.832 -0.401,-1.388 -2.051,-1.85 -1.65,-0.462 -1.742,-1.11 -2.204,0 -0.462,1.11 -0.425,0.338 10e-4,1.11 z"
   id="path1073"
   style="fill:#677821" />
					<path
   fill="#4B5A26"
   d="m 1462.479,87.327 c 0.587,-0.74 1.141,-1.233 0.647,-2.96 -0.494,-1.727 0,0 0.893,-2.467 0.894,-2.467 -1.14,-0.74 -1.767,0 -0.628,0.74 -1.84,0.987 -2.579,2.714 -0.74,1.727 0,0 0.151,1.239 0.151,1.24 0,0.117 0,1.475 10e-4,1.473 2.069,0.738 2.655,-0.001 z"
   id="path1074"
   style="fill:#677821" />
					<path
   id="Yell_3_"
   fill="#4B5A26"
   d="m 1446.076,118.283 c -0.277,-1.665 -0.926,-0.648 -1.943,-1.295 -1.017,-0.648 -0.369,-0.833 0.74,-2.035 1.11,-1.203 0,0 0.833,1.366 0.832,1.366 0.462,0.576 2.497,0 2.035,-0.577 0.833,0.576 2.128,1.964 1.295,1.387 0.832,0.555 2.128,-0.623 1.295,-1.178 0.462,-0.21 1.863,0.715 1.401,0.926 0.634,-0.37 1.188,-2.057 0.556,-1.687 -0.277,-0.533 0.185,-1.342 0.463,-0.808 0.556,-0.949 0.278,-2.333 -0.278,-1.386 0.462,-0.559 1.018,-1.608 0.555,-1.051 -0.278,-0.707 -0.46,-1.726 -0.182,-1.017 0.553,-0.646 -0.096,-2.405 -0.647,-1.757 0,0 -1.387,0.648 -1.388,0.648 0,0 -0.74,-1.295 -0.74,-1.295 0,0 0.807,-0.925 0.807,-0.925 -0.252,-0.648 -1.417,-1.018 -1.165,-0.37 -0.223,-1.018 0.624,-1.85 0.846,-0.833 0.727,0.278 2.209,0.462 1.483,0.186 1.108,-0.092 1.755,-1.572 0.647,-1.48 -0.278,-0.647 -1.755,-1.942 -1.476,-1.295 0.645,0.185 1.477,-0.555 0.833,-0.74 0.74,-0.277 1.203,-1.757 0.463,-1.48 -0.093,-0.647 0.277,-1.48 0.37,-0.832 -0.185,-0.555 0.093,-2.405 0.277,-1.85 -1.295,0 -1.85,-1.48 -0.555,-1.48 -1.479,0.37 -1.199,-0.925 0.28,-1.294 0.09,-1.294 -1.416,-1.387 -1.506,-0.092 -1.917,-0.462 -3.119,-1.018 -1.203,-0.555 -0.74,-0.647 -1.942,-1.387 -1.203,-0.74 -1.018,0 -0.37,-0.833 0.647,-0.832 0.647,-0.554 1.942,-0.388 1.295,0.168 0.555,0.204 1.484,1.961 0.929,1.758 0.921,0.278 2.678,-0.462 1.758,-0.74 0,0 0.743,-1.942 0.743,-1.942 0.737,-1.573 0.83,-3.7 0.092,-2.127 -1.018,-1.017 -2.246,-1.202 -1.229,-0.185 -0.252,-1.11 -0.793,-2.22 -0.541,-1.11 -1.309,-1.11 -1.212,-2.774 0.097,-1.666 -0.93,-1.942 -1.3,-2.961 -0.369,-1.018 0,-0.831 0.74,-1.573 0.74,-0.739 0,0 1.147,1.11 1.147,1.111 0.61,1.111 0,2.405 -0.609,1.295 1.165,1.295 2.183,2.405 1.018,1.11 1.85,0.74 3.423,0.555 1.572,-0.185 0.277,1.11 0.37,2.035 0.092,0.925 1.018,0.647 1.479,-0.74 0.463,-1.387 1.11,-0.278 1.295,-1.572 0.185,-1.295 -0.462,-0.186 -1.572,0 -1.11,0.185 0,0 -0.277,-1.11 -0.278,-1.11 0,-1.203 0.528,-2.497 0.529,-1.296 -0.158,-1.943 -0.528,-3.238 -0.37,-1.295 -0.556,-3.33 -0.647,-4.81 -0.093,-1.48 -0.277,-1.85 -0.093,-3.237 0.185,-1.388 0.462,-0.647 1.11,-1.757 0.648,-1.11 -0.833,-0.74 -1.758,-1.203 -0.925,-0.462 -0.186,-1.11 0.277,-2.405 0.463,-1.294 0.555,-0.925 0,-2.128 -0.555,-1.202 -0.37,-0.463 -1.388,-0.74 -1.017,-0.278 -1.572,-0.74 -3.778,-1.573 -2.206,-0.832 0.818,0.648 0.793,1.85 -0.026,1.203 -1.547,0 -2.379,-0.647 -0.833,-0.647 -1.11,-1.017 -2.683,-2.035 -1.573,-1.018 0,0 -0.278,1.665 -0.277,1.665 0.463,2.59 0,4.44 -0.462,1.85 -0.462,-1.202 -0.739,-2.312 -0.278,-1.11 -0.463,-1.85 -2.035,-2.59 -1.572,-0.74 -2.868,0 -4.345,1.11 -1.476,1.111 0.737,1.111 0,2.312 -0.736,1.203 0,1.018 -1.09,2.405 -1.087,1.387 0.532,2.405 0.77,3.792 0.238,1.388 0.04,0.925 0.32,3.331 0.281,2.405 -0.188,1.48 -0.545,2.867 -0.357,1.387 -0.383,0.832 -0.938,2.682 -0.556,1.851 0,2.405 -0.645,3.515 -0.644,1.11 0.274,4.163 0.459,6.197 0.186,2.035 0.647,0.555 1.668,1.11 1.022,0.555 0.367,0.925 1.199,1.85 0.833,0.925 0.556,1.296 0.186,2.59 -0.37,1.295 0,0 -0.555,-0.278 -0.556,-0.277 -1.295,-1.758 -1.375,-2.96 -0.079,-1.203 -1.493,-1.017 -2.248,-1.203 -0.756,-0.184 -0.633,-1.85 -0.561,-3.33 0.071,-1.48 0.021,-3.422 0.141,-5.457 0.12,-2.035 -0.12,-1.11 -1.086,0 -0.967,1.11 -0.977,1.295 -1.592,3.053 -0.616,1.757 -1.512,1.295 -1.79,2.867 -0.277,1.572 -0.185,2.867 -1.356,3.607 -1.171,0.74 0.524,1.11 -0.753,3.422 -1.276,2.313 0.075,1.387 0,3.053 -0.074,1.665 1.277,2.683 1.739,3.978 0.461,1.295 -0.832,-0.185 -1.739,1.665 -0.907,1.85 -0.018,1.757 0,3.422 0.019,1.665 0.63,0.556 1.456,-1.109 0.826,-1.665 -0.086,-1.203 1.209,0 1.295,1.203 -0.185,1.109 -0.556,2.774 -0.37,1.666 0.278,0.833 -0.37,1.851 -0.648,1.017 0,1.48 0.556,3.422 0.555,1.942 0.832,1.572 0.37,2.869 -0.463,1.294 0,0 -0.926,0.646 -0.926,0.647 0.648,0.555 1.425,1.076 0.777,0.521 0.426,0.312 0.735,3.16 0.309,2.847 0.801,2.147 1.293,3.627 0.491,1.48 0.433,0.925 1.385,2.591 0.952,1.664 0.713,0.924 3.213,0.626 2.501,-0.298 1.578,-0.186 2.68,0.483 0.721,0.437 1.018,-0.463 0.741,-2.128 z"
   style="fill:#677821" />
					<path
   id="Whalsay_3_"
   fill="#4B5A26"
   d="m 1457.7,154.111 c -0.37,0.925 -0.37,1.11 -0.124,2.59 0.247,1.48 -0.246,1.109 -1.045,1.48 -0.799,0.37 -0.743,-0.062 -1.791,0.768 -1.049,0.828 0.061,1.575 1.295,2.069 1.233,0.493 1.172,0.555 3.083,1.48 1.912,0.925 0.802,0.741 3.453,-0.793 2.652,-1.532 0.802,-0.749 1.11,-2.476 0.309,-1.726 0.247,-0.247 1.048,-0.28 0.802,-0.035 0.802,-1.261 2.097,-2.571 1.295,-1.309 0.74,-1.712 1.172,-2.845 0.432,-1.134 1.418,-2.443 2.405,-3.307 0.987,-0.863 1.727,-0.987 2.96,-2.158 1.233,-1.173 -1.049,-0.247 -2.344,-1.05 -1.295,-0.8 -0.74,0.433 -1.295,0.988 -0.555,0.554 -0.925,0.492 -1.911,1.048 -0.986,0.555 -1.665,0 -2.22,-0.986 -0.556,-0.988 -0.987,-0.371 -1.726,0.616 -0.74,0.987 -0.062,1.418 -0.74,2.384 -0.679,0.965 -1.11,0.206 -2.221,0.021 -1.109,-0.185 -1.488,0.803 -2.22,1.727 -0.612,0.773 -0.616,0.37 -0.986,1.295 z"
   style="fill:#677821" />
					<path
   id="Unst_3_"
   fill="#4B5A26"
   d="m 1468.553,68.094 c 1.604,0.409 1.109,-2.721 2.626,-4.386 1.518,-1.665 0.889,0 2.538,1.11 1.649,1.11 1.495,1.11 3.757,2.406 2.262,1.294 1.994,0.739 3.104,-0.798 1.11,-1.538 1.48,-0.682 2.035,-3.458 0.555,-2.775 -1.109,-0.37 -2.22,-0.555 -1.11,-0.185 -1.48,-1.11 -0.975,-2.96 0.504,-1.85 -0.689,-3.515 1.9,-4.439 2.59,-0.925 1.295,-2.221 3.7,-3.83 2.405,-1.609 0.739,-2.461 0,-4.496 -0.74,-2.035 -1.48,-0.185 -3.886,-0.37 -2.404,-0.185 -1.664,-0.185 -0.555,-1.295 1.11,-1.11 2.59,-0.185 6.29,-0.555 3.7,-0.37 0,0 -0.083,-1.665 -0.084,-1.665 -2.507,-0.925 -1.767,-1.665 0.739,-0.74 -0.184,-1.665 -0.556,-4.069 -0.369,-2.405 0,0 2.322,0.554 2.32,0.555 1.748,1.48 2.488,-0.185 0.74,-1.665 0.555,-1.849 0.37,-3.699 -0.184,-1.851 -0.37,-2.036 -2.858,-2.036 -2.489,0 0.083,-0.741 1.934,-1.851 1.85,-1.109 2.22,-0.555 3.546,-1.665 1.326,-1.11 -0.586,-0.74 -3.177,-0.74 -2.59,0 0.556,-1.295 0,-2.96 -0.555,-1.665 0,0 -2.303,-0.555 -2.305,-0.555 -1.027,0 -3.986,-0.74 -2.961,-0.74 0,0 -1.295,-1.48 -1.295,-1.48 -0.74,1.85 -2.086,4.44 -1.347,2.591 -0.875,5.365 -2.736,5.92 -1.861,0.555 0.197,-2.96 1.122,-5.92 0.925,-2.96 -0.556,-2.59 -1.122,-5.55 -0.566,-2.959 -2.764,-0.555 -2.964,3.33 -0.201,3.885 -0.909,0.37 -1.279,1.665 -0.37,1.295 -0.74,1.85 -2.035,2.59 -1.295,0.74 -0.925,0.185 -1.993,1.481 -1.069,1.294 0.514,1.294 0,2.96 -0.515,1.665 -0.597,0.37 -1.462,3.145 -0.865,2.775 0.125,1.85 1.05,2.775 0.926,0.925 0,2.775 0,4.44 0,1.665 0,0 -0.647,0.555 -0.647,0.555 0,0.925 0.186,1.295 0.185,0.37 0.555,1.295 0,2.035 -0.556,0.74 -0.647,0.185 -0.588,1.388 0.06,1.202 -1.077,0.647 -1.725,1.757 -0.647,1.11 0.093,0.555 -0.623,2.868 -0.716,2.313 0.9,0.462 1.455,1.758 0.556,1.294 -0.185,1.202 -1.455,0.925 -1.271,-0.279 -1.319,-1.296 -2.121,0.832 -0.801,2.127 0.709,1.758 1.54,3.423 0.832,1.665 0.094,1.665 -0.461,2.775 -0.555,1.11 -1.018,1.666 0,2.775 1.018,1.11 0.925,0.277 0.461,1.851 -0.463,1.572 1.223,0.735 2.929,0.461 1.468,-0.236 0,-0.001 1.605,0.408 z"
   style="fill:#677821" />
					<path
   id="Papa_Stour_3_"
   fill="#4B5A26"
   d="m 1367.234,166.321 c 0.379,-0.362 0.309,-0.184 0.803,-0.925 0.492,-0.739 -0.124,-0.987 0.925,-0.925 1.048,0.062 1.171,0.493 1.727,-0.37 0.555,-0.863 0.925,-1.234 0,-1.296 -0.925,-0.062 -1.842,0.123 -1.445,-0.678 0.396,-0.802 0.767,-0.493 1.137,-0.864 0.37,-0.371 1.419,-0.864 0.309,-1.665 -1.11,-0.802 -1.295,-1.911 -1.851,-1.048 -0.555,0.863 -0.37,0.37 -0.678,1.48 -0.308,1.11 -0.679,2.035 -0.926,1.357 -0.246,-0.679 0.309,-0.679 0,-1.727 -0.308,-1.048 -0.308,-1.851 -0.616,-1.172 -0.309,0.679 0.123,1.11 -0.493,0.987 -0.617,-0.124 -0.555,-0.308 -0.432,-0.679 0.123,-0.37 0.641,-0.811 -0.08,-0.559 -0.722,0.25 -0.043,1.607 -0.783,0.867 -0.74,-0.74 -0.432,-0.342 -0.863,-0.942 -0.432,-0.6 0.432,-0.97 -0.432,-0.6 -0.863,0.37 -0.863,-1.221 -1.789,-0.148 -0.925,1.074 10e-4,0.643 -0.678,1.69 -0.679,1.048 -1.356,0.37 -0.432,1.727 0.925,1.357 1.233,0.863 1.542,2.22 0.308,1.356 -0.494,2.22 0.493,2.036 0.986,-0.186 0.37,1.048 0.986,-0.186 0.617,-1.233 0.246,-1.603 1.233,-1.788 0.987,-0.185 2.159,-0.617 1.356,0.37 -0.802,0.987 -1.172,-0.246 -1.418,0.987 -0.246,1.233 -0.31,1.788 0.555,1.85 0.864,0.063 1.402,0.431 1.85,0.001 z"
   style="fill:#677821" />
					<path
   id="Out_Skerries_3_"
   fill="#4B5A26"
   d="m 1487.423,141.131 c 0.925,0.37 0,0 0.555,-0.37 0.555,-0.371 0.647,-0.278 1.665,-1.573 1.018,-1.295 1.202,-0.555 2.709,-1.11 1.507,-0.555 1.083,0.092 4.044,-0.277 2.959,-0.371 0,0 0.832,-1.792 0.832,-1.793 -0.648,-0.151 -2.035,0 -1.388,0.15 0.093,-0.428 -0.555,-0.969 -0.647,-0.542 -0.74,-0.2 -1.665,0 -0.925,0.197 -0.37,0.078 -1.018,-0.741 -0.647,-0.82 -1.388,0.634 -1.665,1.481 -0.277,0.847 -0.925,0.356 -1.295,1.096 -0.37,0.74 0,0.832 -0.74,1.295 -0.74,0.463 -1.055,1.215 -1.295,2.128 -0.156,0.592 -0.462,0.462 0.463,0.832 z"
   style="fill:#677821" />
					<path
   id="Mousa_3_"
   fill="#4B5A26"
   d="m 1434.019,250.064 c 0.061,0.555 0.062,1.11 0.926,1.689 0.864,0.579 0.185,0.593 0.369,1.826 0.186,1.233 0.987,0.74 2.344,0.37 1.357,-0.37 0,-0.556 1.48,-0.678 1.479,-0.123 0.308,-0.802 -0.74,-1.48 -1.049,-0.678 -0.925,-0.432 -1.974,-1.172 -1.049,-0.739 -0.6,-0.984 -1.788,-1.48 -0.593,-0.246 -0.678,0.371 -0.617,0.925 z"
   style="fill:#677821" />
					<path
   id="Mainland_4_"
   fill="#4B5A26"
   d="m 1418.48,289.593 c 0.369,-1.11 0.246,-0.617 0.986,-1.85 0.74,-1.234 0,0 0.246,-1.48 0.247,-1.48 0,0 0.617,-0.494 0.617,-0.492 0,0 0.74,1.48 0.74,1.48 0,0 0.74,1.11 0.74,1.11 0.493,1.85 0.74,2.714 0.246,0.863 0.369,0.74 0.739,0.74 0.37,0 0.123,-2.22 0.247,-3.823 0.123,-1.604 -0.371,-1.48 -0.494,-2.96 -0.123,-1.48 -0.616,-0.123 -0.986,-1.357 -0.37,-1.233 -0.123,-0.74 1.233,-1.11 1.356,-0.37 0,-0.986 -0.247,-2.096 -0.246,-1.11 0.863,-2.59 0.617,-4.194 -0.246,-1.603 -1.233,-0.986 -2.097,-2.22 -0.863,-1.234 -0.123,-1.48 0.74,-1.11 0.862,0.37 1.233,0.124 1.602,-1.726 0.37,-1.85 -0.246,-1.11 0.987,-1.727 1.233,-0.617 0.493,-1.973 -0.493,-3.947 -0.986,-1.974 0.123,-0.986 0.986,-1.48 0.863,-0.494 0,-1.357 -0.123,-3.454 -0.123,-2.096 0.369,-1.479 0.123,-2.837 -0.247,-1.356 -0.616,0.371 -0.986,-0.616 -0.37,-0.987 -0.617,-1.974 -1.357,-2.468 -0.739,-0.493 0,-0.74 1.604,-0.247 1.604,0.493 0.617,-0.37 1.11,-1.726 0.493,-1.357 0.493,0.493 1.479,1.233 0.986,0.74 0,1.48 1.234,2.59 1.233,1.109 0.616,-0.987 0.863,-2.59 0.246,-1.604 0.616,-1.11 1.232,0.37 0.617,1.48 0.494,1.11 0.247,2.838 -0.247,1.726 0.863,2.466 1.974,1.603 1.109,-0.864 -0.124,-1.973 -0.494,-3.7 -0.369,-1.727 0.74,-0.124 0.74,-1.727 0,-1.603 -1.357,-1.48 -2.097,-2.589 -0.74,-1.111 -0.616,-1.48 -1.233,-3.207 -0.616,-1.727 -0.246,-2.713 0.123,-4.687 0.37,-1.973 0.74,-0.986 2.344,-1.11 1.604,-0.124 2.467,-0.246 4.193,0 1.727,0.247 1.357,-0.617 -0.123,-1.357 -1.48,-0.739 -1.48,-0.246 -3.33,-1.11 -1.849,-0.863 0.123,-1.603 0.123,-2.96 0,-1.357 -0.74,-1.357 -1.232,-2.96 -0.494,-1.604 -0.494,-1.48 -0.371,-2.343 0.124,-0.864 0.371,-1.11 0.494,-3.33 0.123,-2.22 -0.863,-1.357 -1.604,-2.467 -0.74,-1.11 0.37,-0.986 1.48,-1.604 1.109,-0.616 1.479,-0.986 1.973,-2.713 0.493,-1.727 -0.493,-1.604 -1.357,-2.96 -0.863,-1.356 1.234,-0.986 1.975,-0.617 0.739,0.37 0.986,1.728 2.466,1.48 1.48,-0.247 0.247,-1.48 -0.739,-2.096 -0.987,-0.617 0.123,-1.604 0.863,-2.837 0.74,-1.233 0.616,0 0.986,1.233 0.37,1.233 -0.123,1.48 0.863,1.357 0.986,-0.123 0.493,-0.616 -0.123,-2.343 -0.617,-1.727 0,-1.356 0.739,-2.467 0.74,-1.11 0.987,0.122 1.974,0.863 0.987,0.739 0.863,-0.741 0.74,-2.097 -0.123,-1.357 -1.109,-1.357 -2.467,-1.974 -1.356,-0.616 0,0 -0.986,-1.357 -0.987,-1.356 -0.247,-1.85 -0.247,-1.85 0,0 0.986,1.233 0.493,0.616 -0.493,-0.616 0.247,-0.74 0.617,-2.22 0.37,-1.48 0.246,-0.986 1.233,-2.713 0.986,-1.727 -0.247,-0.863 -1.11,-1.233 -0.863,-0.371 0.123,-0.987 -0.247,-3.084 -0.37,-2.096 -1.85,1.85 -3.329,3.33 -1.48,1.48 -3.577,3.453 -3.454,2.22 0.124,-1.233 0.987,-0.985 2.097,-2.343 1.11,-1.357 0.123,-0.74 0.617,-2.097 0.493,-1.357 0.369,-0.616 0.616,-2.961 0.247,-2.343 0,0 1.48,-1.48 1.479,-1.479 0,0 -0.493,-1.972 -0.493,-1.974 -1.357,0.863 -2.098,2.096 -0.739,1.233 -1.85,2.22 -3.453,3.083 -1.603,0.863 0.247,-0.863 1.357,-2.22 1.109,-1.357 0.246,-0.74 0.246,-2.836 0,-2.097 0,0 0.987,-1.234 0.986,-1.233 0.739,-0.739 -0.124,-2.096 -0.863,-1.356 -1.604,0.863 -3.946,1.48 -2.343,0.617 0,0 0.123,-0.986 0.123,-0.987 0.493,-0.863 1.851,-1.48 1.356,-0.616 1.479,-1.233 2.22,-2.836 0.739,-1.603 -0.123,-1.727 -1.974,-1.603 -1.85,0.122 0.37,-0.741 0.123,-2.468 -0.246,-1.727 0.37,-1.11 1.85,-0.74 1.48,0.371 0.123,0.987 1.233,1.974 1.109,0.986 1.357,-0.37 1.973,0.247 0.617,0.616 -0.739,0.987 -1.85,2.219 -1.109,1.233 -0.123,2.343 1.727,2.59 1.85,0.246 1.357,0.37 2.837,-0.864 1.48,-1.234 -0.123,-0.986 0.37,-2.22 0.493,-1.233 0.37,-0.863 2.22,-1.85 1.851,-0.987 0,0 0.987,0 0.986,0 0,0 2.466,0.494 2.467,0.493 1.728,-0.74 1.356,-3.823 -0.369,-3.084 0,0 -1.603,0.863 -1.603,0.863 0,0 -0.864,-1.85 -0.863,-1.85 -0.492,0.617 -1.232,0.617 -0.74,0 -0.617,0 -2.344,-0.74 -1.727,-0.74 -1.479,0.986 -1.604,0 -0.123,-0.987 0.124,-0.617 0.124,-2.467 0,-1.85 0,0 1.603,-1.85 1.604,-1.85 1.233,-1.111 3.453,-3.084 2.221,-1.973 1.11,0.37 2.714,0.987 1.604,0.617 1.11,-0.123 0.986,-1.973 -0.123,-1.85 0,0 -0.246,-1.85 -0.246,-1.85 0.986,-0.739 0.493,-3.33 -0.493,-2.591 -1.109,-0.37 -2.097,1.11 -0.987,1.48 -0.74,0 -0.986,-1.974 -0.247,-1.974 0,0 -1.603,0.616 -1.604,0.616 0,0 -1.604,-0.74 -1.603,-0.741 -0.987,0.123 -2.22,0.123 -1.233,0 0.123,-0.987 -1.48,-2.467 -1.604,-1.48 -0.616,1.356 -1.604,3.453 -0.986,2.097 0,0 -0.369,-1.851 -0.37,-1.85 -0.494,-1.85 -0.494,-3.7 0,-1.851 -1.604,-1.727 -0.493,-2.097 1.11,-0.37 1.233,0.124 3.577,0.246 2.344,0.125 2.096,0.864 4.562,1.851 2.466,0.987 1.974,-1.48 4.44,-2.836 2.467,-1.357 0.863,0 1.851,-2.22 0.986,-2.22 -0.123,-1.85 -0.987,-3.823 -0.863,-1.973 0.617,-0.493 0.864,-2.467 0.246,-1.973 -1.11,0 -1.604,0.124 -0.493,0.122 -0.986,-1.11 -3.206,-1.727 -2.22,-0.617 -0.494,1.11 -1.357,2.467 -0.862,1.356 -0.492,2.589 -1.727,3.453 -1.233,0.863 0.124,-1.357 0.247,-2.96 0.123,-1.603 -0.74,-0.247 -1.233,-0.986 -0.493,-0.741 1.11,-1.851 2.713,-3.825 1.604,-1.973 0.494,-0.863 2.591,-1.726 2.097,-0.864 0.986,-0.864 1.727,-2.344 0.74,-1.48 1.479,-1.356 2.96,-3.206 1.481,-1.85 0.74,-1.11 1.233,-3.083 0.493,-1.973 0.739,-2.096 0,-3.453 -0.74,-1.357 -1.356,0.37 -2.22,1.356 -0.863,0.986 -0.863,1.356 -2.467,1.85 -1.604,0.493 -0.494,1.604 -1.357,2.22 -0.862,0.617 -0.123,1.974 -1.217,3.331 -1.094,1.356 -0.879,-0.371 -0.263,-1.357 0.617,-0.986 0.123,-1.357 -1.233,-2.221 -1.357,-0.863 -0.246,0.864 -0.74,2.713 -0.493,1.85 -0.616,0.987 -1.727,2.097 -1.109,1.11 0.493,0.986 0,3.207 -0.493,2.219 -0.616,0.123 -1.479,-0.741 -0.863,-0.863 -0.864,1.973 -1.11,3.207 -0.246,1.233 -0.74,3.453 -0.789,1.849 -0.05,-1.603 -0.567,-2.219 -0.197,-4.192 0.369,-1.974 0.246,-1.48 -0.603,-3.083 -0.85,-1.604 -2.604,1.356 -3.714,1.85 -1.11,0.493 -1.603,0.616 -2.22,0.123 -0.617,-0.493 0.986,-1.234 2.097,-1.973 1.11,-0.741 0.987,-0.617 0.493,-2.221 -0.493,-1.603 0,0 -1.233,0.741 -1.233,0.739 -2.22,1.356 -3.453,2.096 -1.233,0.74 -2.714,1.727 -3.33,2.344 -0.616,0.616 6.413,-7.031 8.634,-8.634 2.22,-1.603 2.097,-0.37 2.467,-1.726 0.37,-1.357 0.616,-0.864 -1.234,-1.85 -1.85,-0.988 -1.479,0.124 -1.85,-0.617 -0.37,-0.739 1.357,-0.739 2.59,-1.357 1.233,-0.616 0,-1.232 -1.973,-2.959 -1.974,-1.727 -1.11,0.617 -1.851,1.233 -0.739,0.617 0,0 -0.028,-0.246 -0.028,-0.247 -0.342,-1.357 -0.095,-2.837 0.247,-1.48 0,-1.11 -0.616,-4.193 -0.617,-3.084 -1.604,-1.357 -4.07,-1.727 -2.467,-0.37 -0.863,0.74 -1.357,2.22 -0.493,1.48 -1.355,0.493 -1.928,1.603 -0.571,1.11 -0.785,-1.603 -2.265,-2.097 -1.48,-0.494 -1.357,1.603 -1.604,3.453 -0.246,1.85 -1.11,0 -1.233,2.097 -0.124,2.098 0.617,0.987 2.713,1.974 2.098,0.987 0.617,0.37 1.48,1.356 0.863,0.986 0.863,0.863 0.863,2.713 0,1.85 0,0 -0.74,-0.492 -0.74,-0.494 -0.863,-0.124 -1.973,0.986 -1.11,1.11 0,0 -0.494,-0.494 -0.493,-0.493 -1.232,-0.492 -2.467,0.494 -1.232,0.987 -1.479,1.233 -2.59,0.987 -1.109,-0.246 -2.097,0.863 -2.467,4.07 -0.369,3.206 -0.492,2.96 -0.616,4.44 -0.124,1.48 -1.233,2.097 -1.974,2.467 -0.74,0.37 -1.232,0.247 -1.973,0 -0.74,-0.247 -0.124,-1.11 0.616,-1.357 0.74,-0.246 0.124,-0.74 -0.123,-1.85 -0.247,-1.11 0.123,-0.616 1.479,-0.493 1.357,0.123 0.74,-0.494 0.123,-1.727 -0.616,-1.233 -0.123,-1.233 -0.246,-2.219 -0.123,-0.987 0.74,-0.123 0.863,-1.481 0.123,-1.356 0.247,-1.11 1.233,-1.973 0.986,-0.864 0.37,-0.864 0.739,-2.22 0.371,-1.357 0.124,-0.617 -0.123,-2.097 -0.246,-1.479 0.74,-0.122 0.987,1.11 0.247,1.234 0.123,1.357 1.727,0.739 1.603,-0.616 0.616,-1.48 -0.74,-3.329 -1.357,-1.851 0,0 0,-1.234 0,-1.232 0,0 0.493,-1.232 0.494,-1.234 0,-1.48 -0.493,-1.727 -0.493,-0.247 0.493,0.247 0.74,-0.74 0.246,-0.987 0,0 0.739,-0.247 0.74,-0.246 0.494,0 1.234,-0.617 0.74,-0.617 -0.247,-1.233 -0.617,-2.713 -0.37,-1.48 0.617,-0.247 0.493,-1.357 -0.123,-1.11 -0.739,-0.37 -1.974,0.125 -1.232,0.493 -0.616,1.356 -1.232,2.342 -0.617,0.987 -0.247,0.988 0.246,1.728 0.493,0.74 -0.493,0.863 -0.986,0.493 -0.493,-0.37 -0.986,0.124 -1.356,-0.863 -0.37,-0.987 0.493,-0.74 1.356,-1.85 0.863,-1.111 0.123,-0.617 0.74,-1.974 0.617,-1.355 0.863,-1.233 0.863,-1.233 0,0 0,-0.74 0.246,-1.972 0.247,-1.234 0.123,-0.618 -0.863,-1.975 -0.986,-1.357 -1.109,-0.493 -2.343,-1.233 -1.233,-0.74 0,0 0.862,-0.371 0.863,-0.37 1.727,0.125 2.591,-1.355 0.863,-1.48 -0.616,-0.371 -2.22,-0.741 -1.604,-0.37 -1.357,0.124 -2.714,0.493 -1.356,0.371 0.617,-0.369 1.728,-2.836 1.109,-2.466 0,0 1.726,0.247 1.727,0.246 0,0 1.728,-0.617 1.727,-0.616 0.739,-0.74 0.369,-3.946 -0.369,-3.208 0.74,-1.851 0.617,-4.811 -0.123,-2.959 -0.74,-0.494 -1.48,-1.11 -0.739,-0.617 -0.123,-0.74 0,-3.083 0.124,-2.344 0,0 1.604,0.247 1.604,0.246 0.617,-0.493 1.11,-2.837 0.493,-2.343 0.123,-1.603 0.123,-3.823 0,-2.22 0.247,-2.59 -0.247,-4.44 -0.492,-1.85 0,0 -0.246,-0.617 -0.247,-0.617 0.37,-1.11 -0.123,-2.467 -0.493,-1.357 -1.234,0.37 -2.221,2.282 -0.986,1.913 0,1.048 -1.85,0.308 -1.849,-0.74 -1.233,-0.123 -1.849,1.604 -0.617,1.727 0,1.48 1.109,3.083 1.11,1.604 0.74,1.11 -0.369,0.74 -1.11,-0.37 -0.617,0 -2.344,-0.37 -1.728,-0.37 -0.986,-0.246 -2.221,-0.123 -1.233,0.123 -1.109,-0.987 -2.343,-1.233 -1.233,-0.247 -1.11,-0.617 -2.097,-0.74 -0.987,-0.124 -0.863,-1.356 -3.084,0 -2.22,1.356 1.357,0.371 1.728,0.863 0.37,0.493 -0.124,1.233 -1.233,1.727 -1.11,0.493 -0.617,0.987 0.123,1.85 0.74,0.863 0.246,0.864 -1.356,1.603 -1.604,0.741 -0.124,2.714 0,3.701 0.123,0.986 0.739,1.603 -0.124,2.096 -0.863,0.493 -0.616,0.124 -1.85,1.48 -1.233,1.357 -0.986,1.11 -2.221,2.097 -1.233,0.987 0.371,0.74 -0.616,2.343 -0.986,1.604 -1.109,0.74 -2.467,2.097 -1.356,1.357 -0.123,2.097 0.863,3.206 0.986,1.111 0.987,1.111 2.591,2.837 1.603,1.726 1.109,2.221 4.069,2.96 2.96,0.74 0.74,-0.863 2.714,-0.739 1.974,0.123 1.604,0.124 3.206,0.616 1.604,0.494 0,0 -1.603,0.494 -1.604,0.493 -1.48,0.617 -3.084,0.987 -1.604,0.37 -1.479,0.616 -2.96,0 -1.479,-0.616 -1.85,-1.11 -2.714,-1.85 -0.863,-0.741 -1.479,-1.603 -3.083,-2.59 -1.603,-0.985 -1.356,-1.233 -2.22,-2.22 -0.863,-0.986 -0.986,-1.726 -1.109,-4.193 -0.124,-2.467 -0.124,-2.22 -2.098,-2.59 -1.974,-0.37 -1.232,0.493 -2.836,1.973 -1.604,1.48 -0.987,1.48 -1.48,3.577 -0.493,2.097 -0.246,1.974 -0.246,3.577 0,1.604 0.123,1.234 -0.494,2.644 -0.616,1.411 -0.369,0.192 0.494,1.55 0.863,1.356 0.492,1.11 -0.987,1.233 -1.479,0.123 -1.11,-0.617 -2.343,-2.097 -1.233,-1.48 -1.357,-0.123 -2.344,0 -0.986,0.123 -2.22,3.454 -3.33,5.09 -1.109,1.637 -0.369,1.2 0.74,3.296 1.11,2.097 -0.74,2.097 2.713,1.727 3.453,-0.37 0.123,-1.11 2.961,-1.48 2.836,-0.37 1.85,0.37 3.329,-1.726 1.48,-2.097 1.11,-1.233 2.714,-0.741 1.603,0.495 0.74,1.851 3.083,2.467 2.344,0.617 0.863,-0.37 3.083,-1.355 2.221,-0.987 0,0 -0.369,1.602 -0.37,1.603 0,0 -1.11,0.987 -1.11,0.986 0,0 -0.74,1.11 -0.739,1.11 -0.247,1.233 0.74,1.727 0.987,0.493 0.493,1.109 1.233,2.96 0.74,1.851 1.109,0.247 1.356,-1.233 0.247,-1.48 0.37,-0.986 1.04,-2.467 0.67,-1.48 0.316,-0.987 0,-1.973 -0.317,-0.987 -0.053,-0.74 0.811,-2.097 0.863,-1.357 1.232,-1.11 1.973,-2.097 0.74,-0.986 0.863,-1.109 1.11,0.74 0.246,1.85 -1.233,1.85 -1.851,3.084 -0.616,1.232 -0.123,0.739 0.247,1.356 0.37,0.617 0.74,-0.123 2.837,0 2.097,0.124 0,0 -1.233,0.863 -1.233,0.863 0,0 -0.987,0.247 -0.986,0.246 -0.616,0.246 -0.863,0.864 -0.246,0.617 -0.246,1.604 0.494,2.836 0.74,1.233 1.479,0.124 3.946,0.617 2.466,0.492 0,0 -1.11,0.616 -1.109,0.617 -0.863,0.494 -1.604,1.11 -0.739,0.617 -0.616,0.494 -0.863,2.22 -0.246,1.727 0.247,1.11 0.371,3.577 0.123,2.467 0,0.987 1.85,2.097 1.85,1.11 1.356,-0.124 3.576,-0.753 2.221,-0.63 0.986,0.137 2.59,0.014 1.604,-0.123 0.37,0.616 0.247,1.235 -0.123,0.618 -0.37,0.491 -2.22,0.122 -1.851,-0.371 0,0 0,2.589 0,2.59 0,0 0.986,0.863 0.987,0.864 1.233,0.247 2.097,1.033 0.863,0.786 -0.616,0.324 -1.356,0.077 -0.74,-0.246 -1.357,0.123 -1.357,0.726 0,0.603 0,-0.602 -0.123,1.248 -0.123,1.85 1.604,1.973 3.33,2.837 1.727,0.862 1.48,0.862 2.221,-1.728 0.74,-2.59 0.246,-0.617 2.096,-1.85 1.851,-1.233 0,0 0.864,1.357 0.863,1.356 0.123,0.741 -0.864,2.59 -0.986,1.85 0,0 -0.986,2.065 -0.986,2.066 0.493,0.154 1.851,1.387 1.356,1.234 1.233,0 2.713,-0.862 1.479,-0.864 1.233,-0.371 3.33,-0.494 2.097,-0.123 0.987,0.494 1.974,1.727 0.986,1.233 0.739,0.863 2.343,1.727 1.604,0.863 0.863,0.863 0,1.85 -0.862,0.986 -0.493,-0.618 -1.356,-1.604 -0.863,-0.987 -1.357,-0.493 -2.467,-1.145 -1.11,-0.651 -0.863,-0.089 -1.973,0 -1.11,0.089 -1.604,0.404 -2.838,0.034 -1.233,-0.37 0.124,2.344 0.124,3.148 0,0.805 0,1.292 0.493,2.895 0.493,1.603 -0.616,0.863 -1.233,0.616 -0.616,-0.247 -0.862,-0.74 -1.479,-2.713 -0.617,-1.974 -0.863,0.124 -2.344,1.85 -1.48,1.727 -0.123,2.714 0,5.18 0.124,2.467 0,1.727 0.494,4.194 0.492,2.467 0,1.604 -0.987,3.947 -0.987,2.343 -1.604,0.37 -1.727,-1.233 -0.123,-1.604 -0.616,-1.85 -0.247,-3.454 0.37,-1.604 -0.123,-1.233 -1.727,-2.713 -1.604,-1.48 -1.727,0.248 -2.59,0.493 -0.863,0.247 -0.74,-0.739 -1.11,-3.083 -0.37,-2.344 -0.862,-0.37 -1.356,0.616 -0.493,0.987 -0.863,-0.616 -0.493,-2.097 0.37,-1.48 -0.986,-0.493 -2.097,-0.863 -1.109,-0.37 -0.74,-0.247 -1.109,-0.863 -0.37,-0.617 -1.357,-1.234 -3.577,0 -2.22,1.233 -0.74,1.233 0.616,2.96 1.357,1.727 1.604,0.124 0.547,1.233 -1.057,1.11 0.439,1.11 1.674,2.712 1.233,1.604 0.986,-0.492 0.986,1.11 0,1.604 0,0 -0.986,0.988 -0.986,0.986 0,0 -1.674,0 -1.674,0 0.316,0.985 0,2.342 -0.317,1.357 0.439,1.11 1.797,1.974 1.356,0.864 0.37,0.617 -0.986,1.727 -1.357,1.109 -0.74,0.37 -0.811,-0.863 -0.07,-1.233 -0.67,-1.85 -1.04,-3.577 -0.37,-1.727 -0.246,-1.602 -0.246,-3.083 0,-1.48 -0.74,-0.248 -0.37,-1.728 0.37,-1.48 -0.863,-0.987 -2.467,-0.617 -1.604,0.371 -1.604,1.234 -3.207,2.216 -1.604,0.982 -0.493,-0.859 -2.096,0 -1.604,0.858 0.369,0.62 0.492,0.99 0.123,0.37 0.247,1.357 1.233,2.22 0.986,0.863 0,0 -0.986,0.493 -0.986,0.493 -1.479,0 -2.344,0.247 -0.863,0.247 -1.233,1.604 -1.726,1.357 -0.494,-0.247 0.986,0.493 0.492,0.246 -0.492,-0.246 -1.727,-1.357 -3.453,-2.096 -1.727,-0.741 0.494,-1.728 -1.233,-2.96 -1.727,-1.233 -1.973,0.123 -3.33,0.863 -1.356,0.74 -1.479,-0.247 -3.7,0 -2.22,0.247 -2.59,0.494 -4.439,2.343 -1.85,1.85 -0.616,1.234 -0.37,3.7 0.247,2.466 0,0 1.604,1.233 1.603,1.233 -0.37,0.863 -0.863,1.973 -0.493,1.11 -0.37,1.48 -1.1,2.961 -0.73,1.48 -0.626,1.233 0.854,2.589 1.48,1.357 0,0 -0.616,1.48 -0.617,1.48 0,1.973 1.479,2.713 1.48,0.74 1.48,0.986 3.084,1.48 1.603,0.493 1.85,0.124 3.083,0.74 1.233,0.617 -0.986,0.987 -1.604,2.097 -0.616,1.109 0.74,1.604 3.33,2.343 2.59,0.741 -0.246,1.48 1.479,1.233 0,0 1.48,-0.37 2.591,-1.973 1.111,-1.603 -0.616,-0.864 1.356,-1.85 1.974,-0.986 0,0 0.863,0.74 0.863,0.74 0.986,-0.74 2.813,-2.836 1.827,-2.097 -0.717,1.233 0.64,2.59 1.357,1.357 -0.493,1.726 -0.616,3.946 -0.123,2.22 0.247,1.727 1.206,0.864 0.959,-0.864 0.027,-1.357 1.261,-2.96 1.233,-1.604 0.74,-1.234 2.713,-1.234 1.974,0 0.247,-0.986 0.863,-1.973 0.616,-0.987 -0.246,-1.603 -1.356,-2.22 -1.109,-0.617 -0.986,-1.11 -0.617,-3.453 0.371,-2.343 0.74,0.247 2.098,0.987 1.356,0.74 -0.494,0.246 -0.247,1.604 0.247,1.356 1.604,0.37 2.467,1.11 0.863,0.739 -0.616,0.492 -0.863,1.603 -0.247,1.11 -0.37,2.343 0.616,2.343 0.987,0 3.577,-0.74 2.344,0.246 -1.234,0.987 -1.604,0.371 -2.713,1.234 -1.11,0.864 0.862,1.233 -0.124,1.357 -0.986,0.123 -1.479,-0.74 -3.33,-0.986 -1.85,-0.247 -1.727,1.357 -2.714,3.454 -0.986,2.097 -0.123,2.837 2.467,4.317 2.591,1.479 1.11,0.123 2.098,0.616 0.986,0.493 -0.494,2.097 0.616,4.933 1.11,2.837 0.616,-0.124 2.22,-0.987 1.604,-0.863 -0.37,0.987 1.11,1.11 1.479,0.123 0.493,-0.369 1.85,0.247 1.356,0.617 0.74,3.947 2.344,2.59 1.604,-1.356 0.616,-1.11 0.616,-5.426 0,-4.317 -0.616,-1.974 0.987,-1.728 1.603,0.247 0.247,-2.835 1.479,-1.726 1.233,1.11 -1.479,1.726 0.74,4.194 2.22,2.467 1.357,-0.494 3.453,-3.577 2.097,-3.083 0,0 -0.37,-3.083 -0.37,-3.083 -0.246,-1.233 -0.246,-3.083 0,-1.851 0.37,-2.467 0.986,-3.824 0.616,-1.356 0.247,1.85 0.74,4.564 0.493,2.714 0,0 1.603,-0.986 1.604,-0.987 0.493,-1.233 1.357,-1.233 0.864,0 -0.123,3.329 -0.123,4.81 0,1.48 0.986,0.617 1.48,-1.48 0.493,-2.097 -0.493,-2.714 -0.37,-4.07 0.123,-1.356 -1.232,-1.356 -1.727,-2.59 -0.493,-1.233 -0.123,-3.083 -0.37,-4.07 -0.247,-0.987 -0.739,-0.246 -1.356,0.123 -0.616,0.37 -0.986,-0.864 -1.727,-1.727 -0.74,-0.863 -1.727,-2.343 -3.823,-2.96 -2.097,-0.616 0.37,-1.11 1.479,-0.864 1.11,0.248 2.097,0.864 2.221,2.344 0.123,1.48 0.986,0.739 2.343,0.247 1.356,-0.493 0.124,-0.988 1.356,-0.493 1.234,0.493 0.987,0.369 2.714,0.863 1.727,0.493 0,0 0.37,1.356 0.37,1.357 -1.357,-0.37 -2.221,1.11 -0.863,1.48 1.11,1.48 0.74,3.577 -0.369,2.096 0.37,1.232 1.851,1.479 1.479,0.247 0,1.85 0.123,4.07 0.123,2.22 0.739,-0.123 1.727,-1.85 0.987,-1.727 1.604,-2.467 2.59,-4.563 0.987,-2.097 1.48,-4.07 2.837,-6.043 1.357,-1.974 0.123,1.726 -0.863,3.002 -0.987,1.276 -0.617,1.808 0,3.412 0.616,1.603 0,0 -0.617,1.232 -0.616,1.233 -0.493,2.221 -0.616,4.07 -0.123,1.85 -0.987,3.083 -1.357,4.687 -0.37,1.602 -0.74,2.343 -1.091,4.563 -0.35,2.22 -0.266,1.603 0.721,0.37 0.987,-1.233 0.986,-4.316 1.85,-7.03 0.863,-2.713 0.862,-1.114 0.74,-2.713 -0.122,-1.599 0.74,-0.74 1.727,-2.097 0.987,-1.357 0.617,-0.987 1.603,-2.96 0.986,-1.974 0.493,-2.344 1.479,-3.33 0.986,-0.987 0.124,1.85 0,3.33 -0.123,1.48 -1.109,2.343 -1.973,3.577 -0.863,1.233 -1.604,1.233 -2.344,2.343 -0.74,1.11 -0.616,2.343 -0.863,3.33 -0.247,0.986 -1.109,3.083 -1.233,4.687 -0.123,1.603 -0.37,2.219 0,3.083 0.37,0.863 0.617,-0.986 0.987,-2.343 0.369,-1.357 0.986,-1.974 1.604,-4.44 0.616,-2.467 0.369,-1.974 1.727,-1.727 1.356,0.246 -0.124,1.85 -0.74,3.577 -0.616,1.726 -0.494,2.219 -0.986,4.069 -0.494,1.85 -0.617,2.344 0.369,3.701 0.987,1.357 0.37,0.862 0,1.974 -0.369,1.109 -1.232,1.355 -0.616,2.466 0.616,1.109 1.233,0.493 2.714,-0.74 1.479,-1.233 0.615,-0.124 1.603,-0.493 0.988,-0.369 0,1.604 -0.74,2.96 -0.739,1.357 0,0 -0.493,0.987 -0.493,0.986 0.493,3.084 0,4.809 -0.493,1.727 -0.246,2.713 -0.863,4.193 -0.617,1.48 -0.986,3.33 -1.604,4.934 -0.616,1.603 -0.74,3.083 -1.859,4.687 -1.119,1.603 -0.113,3.33 -0.113,3.33 0,0 0,0 0.108,1.974 0.108,1.973 -1.466,2.836 -1.959,5.056 -0.493,2.22 -0.739,2.344 -1.356,2.838 -0.617,0.492 -1.233,0.986 -1.727,3.205 -0.494,2.22 0.986,1.727 1.356,3.083 0.37,1.356 0.863,1.974 0.37,2.96 -0.493,0.986 -0.123,2.22 -0.617,3.947 -0.493,1.726 0,0 0.37,2.096 0.37,2.096 0,0 -1.356,0.864 -1.356,0.863 0,0 -0.986,0.247 -0.987,0.247 0,0 -0.863,-0.247 -0.863,-0.247 -0.617,0.247 -0.617,1.11 0,0.863 -0.863,1.48 -0.74,2.343 0.124,0.863 -0.123,1.357 0,2.59 0.124,1.233 0.247,1.11 -0.492,1.727 -0.74,0.617 -1.48,0.493 -2.467,0.74 -0.987,0.247 -0.247,0.863 0,2.22 0.246,1.356 0.616,1.11 0.739,2.343 0.124,1.234 -0.493,1.603 0.863,2.344 1.356,0.74 0.987,-0.37 2.467,-0.494 1.48,-0.123 0.37,0.618 0.74,1.603 0.37,0.987 0.123,0.987 1.603,-0.247 1.48,-1.233 0,-1.11 0,-3.33 0,-2.22 0.987,-0.247 2.927,0 1.94,0.247 0.403,0.37 0.062,1.603 -0.343,1.233 0.836,1.603 1.452,3.207 0.616,1.603 -0.123,0.863 -0.739,2.836 -0.617,1.974 0,0.494 0,2.22 0,1.727 0,0 -0.494,1.357 -0.493,1.356 -0.241,0.775 0,1.603 0.217,0.755 0.986,-1.103 1.356,-2.214 z"
   style="fill:#677821" />
					<path
   id="Foula_3_"
   fill="#4B5A26"
   d="m 1309.406,215.994 c -0.049,1.484 1.527,0.586 3.008,1.295 1.479,0.709 0.74,0.771 1.232,1.959 0.494,1.188 1.233,1.032 2.467,1.044 1.234,0.012 0.494,1.468 1.727,1.861 1.233,0.393 0.987,-3.105 1.871,-4.076 0.884,-0.97 -0.637,-2.236 -0.391,-2.932 0.246,-0.696 0.74,-2.018 0,-3.19 -0.74,-1.172 -0.74,-2.034 -1.727,-2.365 -0.986,-0.33 -1.726,-0.162 -3.453,0 -1.728,0.163 -2.221,1.318 -3.207,2.853 -0.986,1.535 -0.662,0.925 -1.479,2.067 -1.481,2.067 0,-0.001 -0.048,1.484 z"
   style="fill:#677821" />
					<path
   id="Fetlar_3_"
   fill="#4B5A26"
   d="m 1471.605,97.008 c 0.463,0.555 1.203,0.647 2.112,2.035 0.909,1.388 0.94,0.093 2.421,-1.388 1.479,-1.479 1.202,-0.185 2.682,-0.919 1.48,-0.734 -0.462,-0.838 -1.295,-1.855 -0.832,-1.018 -1.202,-1.387 -2.867,-2.683 -1.665,-1.295 -0.185,-0.647 1.203,-1.017 1.387,-0.372 0.832,-0.279 2.59,-0.279 1.758,0 0,0.741 2.22,2.035 2.22,1.295 0,0 1.295,-0.277 1.295,-0.278 0,0.555 0.925,1.942 0.926,1.387 0.647,0.278 1.943,1.11 1.295,0.833 0.739,1.388 2.404,0.74 1.665,-0.647 0.463,-0.463 1.203,-2.59 0.739,-2.128 0.369,-0.74 1.295,-2.128 0.925,-1.387 0.646,-1.11 1.757,-3.422 1.111,-2.312 -0.37,-0.925 -1.479,-2.035 -1.11,-1.109 0.555,-1.109 0,-2.22 -0.555,-1.11 -1.018,0.648 -2.128,0.833 -1.11,0.185 -0.462,2.405 -1.665,3.607 -1.202,1.204 -0.37,-0.647 -0.832,-1.665 -0.463,-1.018 -0.555,0.74 -1.295,-0.462 -0.74,-1.202 -0.185,-1.664 -0.463,-3.515 -0.277,-1.85 -0.832,-1.665 -2.59,-2.405 -1.758,-0.74 -1.665,-0.278 -3.516,-0.648 -1.85,-0.37 -1.664,0.925 -2.959,2.868 -1.295,1.943 -1.203,-0.555 -2.498,-1.942 -1.295,-1.388 -1.202,-0.185 -3.022,-1.11 -1.82,-0.925 -0.771,0.37 -1.232,1.665 -0.463,1.295 -0.277,0.555 -0.74,3.607 -0.462,3.052 0.463,0.833 1.11,1.942 0.647,1.11 0.555,1.48 0.832,2.96 0.277,1.48 0.463,0.555 1.553,1.389 1.089,0.832 0.391,1.201 -0.258,2.219 -0.647,1.018 -0.277,1.943 0.833,3.053 -10e-4,0 -10e-4,0 0.461,0.555 z"
   style="fill:#677821" />
					<path
   id="Fair_Isle_3_"
   fill="#4B5A26"
   d="m 1373.339,381.847 c 0.494,0 0.986,0.247 2.062,0 1.074,-0.247 0.035,-0.986 0,-1.85 -0.036,-0.863 0.652,-1.233 1.022,-1.233 0.369,0 0.986,0.493 1.479,0 0.493,-0.494 -0.123,-1.11 -0.74,-2.055 -0.616,-0.946 0.493,-0.781 0.987,-1.151 0.493,-0.371 0.246,0.864 0.863,1.151 0.616,0.288 0.246,-1.398 0,-2.261 -0.247,-0.864 -0.863,0 -1.48,-0.371 -0.617,-0.37 0.617,-1.109 0.37,-1.726 -0.247,-0.617 0.617,-0.863 0,-0.757 -0.616,0.106 -0.863,0.018 -1.85,0.14 -0.987,0.123 -1.11,-0.37 -2.22,0 -1.11,0.37 -0.124,0.987 -0.74,2.22 -0.617,1.233 0,0 -0.111,0.494 -0.11,0.493 -0.012,1.849 0,2.466 0.012,0.617 -0.136,0.864 -0.012,1.48 0.123,0.617 -0.74,0.74 -1.234,1.11 -0.493,0.37 -0.945,1.713 0,2.344 0.741,0.492 1.111,-0.001 1.604,-0.001 z"
   style="fill:#677821" />
					<path
   id="Bressay_3_"
   fill="#4B5A26"
   d="m 1440.433,203.876 c -0.493,0.802 0.062,1.233 0.493,2.282 0.432,1.048 0.247,0.801 2.22,2.281 1.974,1.481 0.986,1.604 0.986,4.317 0,2.713 -0.616,0.74 -1.479,3.206 -0.863,2.467 0.123,1.727 0.987,3.577 0.863,1.85 1.479,1.479 3.33,2.22 1.85,0.739 1.232,1.234 3.206,1.727 1.974,0.493 0.124,-0.864 0.37,-3.33 0.246,-2.468 0.123,-1.48 0.74,-4.44 0.616,-2.96 0,-1.234 1.823,-1.85 1.823,-0.618 -0.344,-0.74 0,-2.714 0.344,-1.973 0.52,-1.726 0.52,-2.975 0,-1.249 0.74,-1.219 0,-2.452 -0.739,-1.233 -0.863,0.123 -1.604,1.48 -0.739,1.357 -0.616,1.233 -1.726,0 -1.11,-1.232 0.615,-1.357 0.615,-1.825 0,-0.468 -0.246,-1.382 -0.934,-3.274 -0.688,-1.893 0.564,-1.067 0,-2.671 -0.564,-1.603 -0.669,0.371 -1.779,1.48 -1.109,1.11 0,0.741 0.247,2.726 0.247,1.986 0.74,0.357 1.356,1.221 0.616,0.863 -0.493,0.493 -1.727,0 -1.233,-0.494 -0.986,-1.233 -1.604,-1.604 -0.567,-0.341 -1.312,-0.083 -1.913,-0.395 -0.6,-0.313 -0.901,-0.91 -1.655,-0.917 -0.227,-0.002 -0.45,0.052 -0.666,0.146 -0.756,0.334 -1.422,1.16 -1.806,1.784 z"
   style="fill:#677821" />
				</g><rect
   style="fill:none;stroke:#000000;stroke-width:0.29998;stroke-linejoin:bevel;stroke-dasharray:none;paint-order:stroke fill markers"
   id="rect2"
   height="4390.293"
   x="0.19998971"
   y="0.19998971"
   ry="0.69917101"
   width="4353.8188" /></svg>
