<?xml version="1.0" encoding="UTF-8" standalone="no"?>
<!-- Generator: Adobe Illustrator 22.1.0, SVG Export Plug-In . SVG Version: 6.00 Build 0)  -->

<svg
   version="1.1"
   x="0px"
   y="0px"
   viewBox="0 0 4354.1187 4390.5933"
   enable-background="new 0 0 1995.865 2834.646"
   xml:space="preserve"
   id="svg1596"
   width="4354.1187"
   height="4390.5933"
   xmlns="http://www.w3.org/2000/svg"
   xmlns:svg="http://www.w3.org/2000/svg"><defs
   id="defs1596" />


<path
   id="South_Ayrshire_1_"
   fill="#4B5A26"
   d="m 2009.2275,2168.2941 c 0,0 3.762,-1.356 4.625,-1.384 0.864,-0.027 2.713,-0.589 3.824,-1.206 1.109,-0.617 0.246,-1.233 0.616,-1.85 0.37,-0.617 1.233,0 1.727,0 0.493,0 0.863,-2.098 1.48,-2.977 0.617,-0.88 2.22,-2.697 2.836,-4.547 0.617,-1.85 0,-1.974 1.324,-3.33 1.324,-1.356 1.019,-0.123 2.623,0.848 1.604,0.971 0.986,1.249 1.479,1.988 0.494,0.74 0.37,2.098 1.125,2.687 0.755,0.589 1.712,0.521 2.329,0 0.616,-0.521 1.93,0.185 2.832,0 0.902,-0.186 1.237,0 1.237,0 0,0 1.48,0.644 2.343,0 0.864,-0.645 1.727,0 1.727,0 l 0.998,0.207 0.332,2.147 h 0.52 c 0,0 1.356,-0.847 2.343,-1.342 0.986,-0.494 1.479,0.125 2.59,0 1.11,-0.124 0.493,-1.232 1.604,-1.013 1.11,0.219 1.603,0.274 3.206,0.768 1.604,0.493 1.48,0.246 3.09,-0.768 1.61,-1.015 0.98,-0.466 1.829,-1.041 0.848,-0.575 2.111,-1.275 3.345,-1.646 1.233,-0.369 0.986,0.37 2.071,0.615 1.084,0.244 0.459,0 0.459,0 0,0 0.2,-1.314 0.809,-2.604 0.608,-1.29 0.175,-2.365 -0.334,-2.885 -0.51,-0.52 -2.391,-1.172 -2.391,-1.172 0,0 -0.803,-1.557 -1,-1.821 -0.197,-0.266 -0.97,0.22 -0.714,-1.26 0.256,-1.479 0,-3.445 0,-3.946 -0,-0.502 1.266,-3.23 1.458,-3.48 0.192,-0.25 2.262,-1.287 2.972,-2.07 0.71,-0.783 0.804,-0.94 1.961,-1.356 1.157,-0.416 1.207,-0.493 1.207,-0.493 0,0 1.767,0.123 2.629,-0.01 0.864,-0.134 1.75,-1.958 2.554,-3.073 0.806,-1.116 1.269,-0.37 2.873,-0.617 1.604,-0.247 1.973,0.37 3.374,0.617 1.401,0.247 2.546,0.493 3.505,0.616 0.959,0.123 2.371,-0.986 3.111,-1.48 0.74,-0.493 1.357,-1.85 1.357,-2.344 0,-0.494 0,-1.726 0.246,-3.005 0.247,-1.278 -0.74,-1.804 -0.921,-3.777 -0.181,-1.974 0.305,-2.22 0.798,-2.343 0.493,-0.124 0.987,-1.357 1.296,-2.098 0.31,-0.74 0.431,-2.343 0.801,-3.699 0.37,-1.357 0.74,-2.714 1.469,-2.96 0.728,-0.246 0.135,-1.851 0,-2.837 -0.135,-0.987 -0.482,-1.604 0,-3.33 0.482,-1.727 -0.482,-1.356 -0.853,-2.097 -0.37,-0.74 -0.74,-1.11 -0.863,-1.851 -0.123,-0.739 -0.493,-1.109 0.123,-2.22 0.617,-1.109 0.494,-0.986 0.74,-1.85 0.247,-0.863 0,-1.11 -0.246,-1.604 -0.247,-0.493 -1.11,-0.493 -1.826,-1.11 -0.716,-0.616 -1.439,-1.85 -1.439,-1.85 0,0 -3.025,0.123 -3.304,0 -0.279,-0.124 -0.831,-1.48 -1.325,-2.221 -0.493,-0.739 -1.356,-0.863 -2.097,-1.973 -0.74,-1.11 -1.11,-1.85 -1.11,-1.85 l -1.046,-1.357 c 0,0 -2.16,-0.616 -2.53,-0.616 -0.37,0 -0.987,-1.11 -1.049,-1.974 -0.062,-0.863 2.035,0 2.035,0 0,0 0.987,-1.233 1.544,-1.85 0.558,-0.617 0.43,-0.863 1.322,-1.974 0.893,-1.11 -0.513,-0.377 -0.552,-1.172 -0.04,-0.795 -0.217,-1.172 -0.771,-1.934 -0.552,-0.763 -1.478,0.01 -2.037,0.146 -0.56,0.14 -2.626,0.616 -3.434,0.583 -0.808,-0.033 -2.733,-0.627 -2.733,-0.627 v -1.184 c 0,0 1.48,-1.116 1.833,-1.485 0.354,-0.37 1.373,-1.48 2.236,-2.344 0.863,-0.863 0.74,-3.7 1.233,-3.083 0.494,0.616 1.233,1.109 2.343,1.233 1.11,0.124 1.604,0.987 2.141,1.85 0.537,0.863 0.572,1.727 1.754,1.727 1.181,0 0.668,0.617 1.751,1.604 1.082,0.986 1.138,0.247 2.005,0 0.868,-0.247 2.586,-1.604 3.882,-2.528 1.296,-0.926 0.185,-0.925 0,-2.282 -0.184,-1.356 -0.655,-2.096 -0.655,-2.096 0,0 -0.764,-0.617 -1.998,-0.987 -1.233,-0.37 -1.229,-2.343 -1.229,-2.343 0,0 -0.497,-1.974 -0.6,-2.873 -0.102,-0.899 0,-1.814 0,-1.814 0,0 -0.761,-2.466 -0.823,-3.083 -0.062,-0.616 1.491,-0.814 1.908,-1.001 0.416,-0.187 1.062,-0.611 2.101,-1.219 1.039,-0.607 2.344,-1.603 2.344,-1.603 l 1.222,-2.535 1.614,-0.055 c 0,0 0.864,0.123 1.689,0 0.825,-0.124 -0.332,-1.11 0,-1.48 0.332,-0.37 1.765,0.247 2.065,-0.616 0.301,-0.863 0.316,-0.863 0.686,-1.233 0.37,-0.37 -1.11,-1.727 -1.357,-2.344 -0.247,-0.616 -0.74,-0.986 -0.858,-1.356 -0.119,-0.37 -0.252,-3.206 -0.536,-3.576 -0.285,-0.37 -0.332,-1.974 -0.702,-2.591 -0.37,-0.616 -1.233,-0.616 -1.573,-0.986 -0.34,-0.37 -5.828,0.123 -6.691,-0.493 -0.863,-0.617 -2.837,0 -4.245,0 -1.409,0 -0.565,-0.493 -1.523,-1.418 -0.958,-0.926 -0.645,0.062 -1.016,-0.679 -0.371,-0.741 -0.37,-0.863 -1.226,-1.014 -0.856,-0.15 -0.377,-1.083 -0.116,-1.577 0.261,-0.492 0,-1.777 0,-1.777 0,0 -1.37,0.081 -1.742,0.181 -0.372,0.099 -2.011,-0.011 -2.415,-0.111 -0.404,-0.1 -0.792,-1.719 -0.792,-1.719 l -0.88,0.071 v -0.591 l -1.672,1.727 -7.562,8.387 -0.74,-5.303 -0.977,0.713 0.423,0.952 c 0.185,0.555 -0.185,4.07 -0.185,5.891 0,1.822 -1.295,0.583 -2.035,0.213 -0.74,-0.37 -0.925,-0.185 -1.48,0 -0.555,0.186 0.185,1.295 0.925,1.85 0.74,0.555 1.295,0.37 2.22,0.925 0.925,0.555 1.11,0.74 2.405,2.405 1.295,1.666 0,0 0.74,0.555 0.74,0.555 1.85,2.035 1.665,3.145 -0.185,1.11 1.11,2.22 0,3.516 -1.11,1.295 0,1.665 0,1.665 0,0 0,1.665 -1.11,3.7 -1.109,2.035 0,0 -0.37,1.11 -0.37,1.11 -0.555,2.405 -1.295,3.33 -0.74,0.925 0.37,1.11 0,2.775 -0.37,1.665 0,0 -0.925,0.925 -0.925,0.925 -2.22,0 -2.775,0 -0.555,0 -1.295,1.11 -1.85,1.665 -0.555,0.555 -1.665,-0.186 -2.22,0 -0.555,0.185 -1.481,1.295 -2.035,1.295 -0.555,0 -2.035,0.74 -2.96,1.11 -0.925,0.37 -1.295,1.85 -1.85,2.96 -0.555,1.11 -1.295,0.555 -1.48,1.666 -0.185,1.109 -0.185,6.104 -1.11,8.324 -0.925,2.221 0,1.295 0,1.295 0,0 -1.48,1.48 -2.22,2.035 -0.74,0.555 -2.405,1.11 -2.405,1.11 v 2.59 c 0,0 -1.295,0.74 -2.404,1.11 -1.11,0.369 -1.665,0.74 -1.665,2.22 0,1.48 0.37,1.11 0.513,2.405 0.143,1.295 0.597,2.22 -0.143,3.699 -0.74,1.48 0.555,3.886 0,4.995 -0.556,1.11 -0.925,2.22 -1.851,3.516 -0.925,1.295 -0.555,1.479 -0.925,2.405 -0.37,0.924 0,4.81 -0.185,6.289 -0.185,1.48 -1.11,1.48 -2.22,2.035 -1.109,0.555 -2.035,2.59 -4.069,4.995 -2.035,2.405 -2.591,3.515 -2.96,4.995 -0.37,1.48 -1.11,1.85 -1.85,2.405 -0.74,0.555 -1.85,1.295 -2.405,1.665 -0.555,0.369 -2.405,2.035 -3.33,3.33 -0.925,1.295 -0.74,1.85 -0.925,3.885 -0.185,2.035 -0.185,2.775 -0.74,3.699 -0.555,0.926 -0.925,2.035 -1.48,2.775 -0.555,0.74 0.185,2.035 0.185,2.035 0,0 -1.85,2.035 -2.405,2.59 -0.555,0.555 -0.555,2.59 -1.11,3.33 -0.555,0.74 -1.11,1.295 -1.85,2.96 -0.74,1.665 -0.37,2.775 -0.925,4.625 -0.555,1.851 0.185,2.775 0.185,4.035 0,1.264 0.745,2.258 1.484,3.553 z"
   style="fill:#677821" /><rect
   style="fill:none;stroke:#000000;stroke-width:0.29998;stroke-linejoin:bevel;stroke-dasharray:none;paint-order:stroke fill markers"
   id="rect2"
   height="4390.293"
   x="0.19998971"
   y="0.19998971"
   ry="0.69917101"
   width="4353.8188" /></svg>
