<?xml version="1.0" encoding="UTF-8" standalone="no"?>
<!-- Generator: Adobe Illustrator 22.1.0, SVG Export Plug-In . SVG Version: 6.00 Build 0)  -->

<svg
   version="1.1"
   x="0px"
   y="0px"
   viewBox="0 0 4354.1187 4390.5933"
   enable-background="new 0 0 1995.865 2834.646"
   xml:space="preserve"
   id="svg1596"
   width="4354.1187"
   height="4390.5933"
   xmlns="http://www.w3.org/2000/svg"
   xmlns:svg="http://www.w3.org/2000/svg"><defs
   id="defs1596" />


<path
   id="South_Lanarkshire_1_"
   fill="#4B5A26"
   d="m 2221.6345,1984.8971 c 0,0 -2.061,0.37 -2.8,0 -0.74,-0.369 -5.934,-2.127 -6.543,-2.297 -0.61,-0.168 -2.456,-0.292 -3.444,-0.786 -0.989,-0.493 -2.223,-2.714 -3.332,-3.823 -1.11,-1.11 -2.96,-0.124 -3.947,0 -0.986,0.123 -4.313,0.739 -6.226,0.863 -1.913,0.123 -5.243,0.863 -5.243,0.863 0,0 -2.544,2.312 -3.554,2.883 -1.01,0.572 -2.859,0.694 -2.859,0.694 0,0 -1.604,2.098 -2.96,2.467 -1.357,0.37 -7.523,0.493 -7.894,0.616 -0.371,0.123 -6.317,1.604 -6.317,1.604 l -5.586,3.207 h -1.396 c 0,0 -1.377,-0.75 -1.994,-0.992 -0.617,-0.242 -1.671,-1.968 -2.625,-2.215 -0.952,-0.247 -1.815,-2.22 -1.815,-2.22 0,0 -1.994,0.259 -2.59,0 -0.597,-0.259 0.739,-1.85 -0.74,-2.343 -1.48,-0.494 -1.932,-0.634 -2.321,-1.072 -0.389,-0.438 -0.909,-1.499 -1.408,-1.712 -0.5,-0.213 -2.701,-1.251 -2.701,-1.251 0,0 -1.668,0.586 -2.551,0.334 -0.883,-0.25 -1.135,-0.855 -1.625,-1.233 -0.491,-0.378 -1.773,-0.512 -1.974,-1.11 -0.201,-0.599 -0.318,-2.948 -0.468,-3.509 -0.149,-0.561 -0.922,-2.788 -1.383,-2.534 -0.46,0.253 -0.591,0.777 -1.874,0.366 -1.283,-0.411 -2.339,-0.704 -2.946,-0.535 -0.607,0.169 -3.812,1.541 -4.06,1.533 -0.247,-0.01 -1.237,-1.611 -1.85,-1.85 -0.614,-0.238 -1.14,1.509 -1.48,-0.01 -0.34,-1.517 -0.497,-2.438 -0.86,-2.259 -0.363,0.18 -0.507,2.043 -1.729,1.271 -1.222,-0.771 -0.752,0.031 -0.987,-0.37 -0.235,-0.4 -0.971,-0.374 -1.48,-0.863 -0.509,-0.488 -0.37,1.407 0,2.308 0.371,0.899 0.864,2.515 0.864,2.94 0,0.425 0,0.796 1.11,1.659 1.11,0.863 1.803,1.356 1.765,2.467 -0.038,1.11 -1.025,1.85 -1.765,2.713 -0.74,0.863 -1.404,1.448 -2.305,1.896 -0.901,0.448 -3.245,-2.389 -3.751,-1.578 -1.333,2.138 -2.227,6.487 -0.974,7.945 1.204,1.4 1.776,1.234 1.992,2.22 0.216,0.986 0.257,1.362 0.254,1.727 0,0.364 0.591,0 1.577,0.925 0.987,0.926 1.727,1.295 2.097,2.159 0.37,0.863 1.11,0.616 0.987,2.59 -0.123,1.974 -0.987,3.577 -0.863,5.304 0.123,1.726 -0.493,2.485 -1.356,3.277 -0.864,0.792 -1.48,0.422 -0.864,1.779 0.617,1.357 0.987,1.85 1.48,2.836 0.493,0.987 1.604,2.96 1.727,3.515 0.123,0.556 0.247,1.173 0.494,2.528 0.246,1.357 0.569,2.221 1.271,2.591 0.702,0.37 -0.455,1.604 0,2.22 0.455,0.617 1.442,3.135 1.319,4.096 -0.124,0.961 0.123,0.961 -0.617,2.502 -0.74,1.542 -3.207,2.899 -3.453,3.515 -0.247,0.616 -1.48,0.987 -0.986,2.221 0.493,1.232 1.727,3.33 2.466,2.836 0.74,-0.493 3.947,-2.466 4.933,-2.836 0.987,-0.37 3.25,-1.481 3.783,-1.542 0.534,-0.062 1.844,0.801 3.347,0.925 1.503,0.123 4.957,-0.74 5.944,-0.925 0.987,-0.186 1.603,-1.728 2.343,-2.312 0.74,-0.586 2.466,-1.696 2.836,-1.881 0.37,-0.185 1.667,0.309 2.314,1.048 0.646,0.74 1.255,0.864 1.999,2.097 0.744,1.233 0.374,1.603 2.841,2.59 2.466,0.986 4.001,-0.515 4.035,1.777 0.034,2.292 -1.075,5.008 -2.062,6.486 -0.986,1.479 -1.356,0.985 -1.727,2.219 -0.371,1.234 -0.479,1.851 -1.597,2.59 -1.116,0.74 -1.689,1.234 -2.081,2.837 -0.393,1.603 -0.595,1.603 0,3.331 0.595,1.726 0.854,2.96 2.081,3.946 1.227,0.987 2.69,2.15 4.161,1.973 0.026,0 2.986,-0.493 3.479,0 0.493,0.493 4.934,-0.22 4.934,-0.22 0,0 3.77,0.518 4.413,0.924 0.643,0.406 4.405,1.393 5.177,2.01 0.771,0.616 1.942,3.946 2.281,4.315 0.339,0.371 2.929,2.838 3.422,3.454 0.493,0.616 2.343,2.097 2.651,2.467 0.309,0.37 1.419,2.713 1.666,3.823 0.246,1.11 1.973,2.96 2.466,3.946 0.493,0.986 2.713,1.356 3.33,1.604 0.617,0.248 -0.494,3.33 0,4.687 0.494,1.356 1.604,5.797 1.604,5.797 0,0 2.836,1.233 3.453,1.604 0.617,0.371 1.603,1.603 1.603,2.343 0,0.74 0.74,1.48 1.85,2.098 1.109,0.616 3.453,-0 4.069,-0.124 0.617,-0.123 0.37,0.37 1.11,-1.974 0.74,-2.343 -0.123,-4.601 1.049,-4.891 1.171,-0.289 1.665,-0.042 2.405,-0.289 0.74,-0.247 0.808,-0.123 1.576,-1.109 0.768,-0.987 0.767,-1.604 0.521,-2.961 -0.246,-1.356 0.146,-3.083 0.146,-3.083 0,0 1.087,-1.974 0.841,-3.206 -0.247,-1.234 -0.791,-2.961 0.036,-3.886 0.827,-0.925 5.421,-3.515 5.529,-3.638 0.108,-0.124 1.218,-1.851 1.218,-1.851 0,0 0.863,-1.233 1.233,-1.479 0,0 -0.74,-1.233 -0.74,-1.727 0,-0.494 -1.185,-1.85 -1.641,-2.097 -0.456,-0.247 -0.839,-1.604 -1.079,-1.974 -0.24,-0.37 -0.377,-3.156 0,-3.859 0.376,-0.704 0.875,-2.677 1.612,-4.527 0.737,-1.85 1.108,-3.148 1.354,-4.534 0.246,-1.386 1.439,-2.866 1.891,-3.482 0.452,-0.616 0.945,-1.479 0.945,-2.714 0,-1.232 -0.904,-1.603 -0.945,-3.083 -0.041,-1.479 -0.822,-3.823 0,-4.439 0.822,-0.617 1.069,-2.467 0.945,-2.96 -0.123,-0.494 -1.603,-2.899 -1.973,-3.977 -0.37,-1.079 -2.418,-2.735 -2.751,-4.127 -0.333,-1.393 -0.803,-2.873 -0.136,-3.242 0.667,-0.37 1.776,0.863 2.887,0 1.109,-0.863 2.467,-1.48 2.96,-2.22 0.493,-0.74 0.493,-1.604 0.616,-2.097 0.124,-0.493 -0.863,-2.836 -0.863,-2.836 0,0 2.344,-3.823 2.344,-4.193 0,-0.37 0.137,-1.233 0.932,-1.603 0.795,-0.37 1.905,-1.727 2.399,-2.097 0.493,-0.37 1.11,-0.598 1.233,-1.532 0.123,-0.935 0.404,-2.291 1.251,-2.784 0.846,-0.494 1.955,-1.357 2.325,-1.604 0.37,-0.247 1.481,-2.097 1.604,-2.59 0.123,-0.493 1.727,-1.326 0,-0.848 -1.727,0.478 -3.929,-0.143 -3.929,-0.143 0,0 -2.142,-0.736 -1.635,-2.031 0.507,-1.295 0,-2.404 0,-2.404 l -0.607,-2.343 c -0.49,-0.988 -1.6,-3.701 -1.6,-3.701 l -0.81,-1.274 -0.454,-1.809 z"
   style="fill:#677821" /><rect
   style="fill:none;stroke:#000000;stroke-width:0.29998;stroke-linejoin:bevel;stroke-dasharray:none;paint-order:stroke fill markers"
   id="rect2"
   height="4390.293"
   x="0.19998971"
   y="0.19998971"
   ry="0.69917101"
   width="4353.8188" /></svg>
