<?xml version="1.0" encoding="UTF-8" standalone="no"?>
<!-- Generator: Adobe Illustrator 22.1.0, SVG Export Plug-In . SVG Version: 6.00 Build 0)  -->

<svg
   version="1.1"
   x="0px"
   y="0px"
   viewBox="0 0 4354.1187 4390.5933"
   enable-background="new 0 0 1995.865 2834.646"
   xml:space="preserve"
   id="svg1596"
   width="4354.1187"
   height="4390.5933"
   xmlns="http://www.w3.org/2000/svg"
   xmlns:svg="http://www.w3.org/2000/svg"><defs
   id="defs1596" />


<path
   id="Stirling_1_"
   fill="#8D9764"
   d="m 2173.6935,1906.7041 c 0,0 -0.247,2.22 -0.863,2.96 -0.617,0.74 -0.802,2.035 0.863,2.59 1.665,0.556 2.209,1.643 2.122,2.486 -0.088,0.844 -2.492,4.051 -2.985,3.928 -0.493,-0.124 -1.776,-0.055 -4.249,0 -2.473,0.059 -7.358,1.122 -7.385,0.494 -0.027,-0.628 -3.846,-0.744 -5.017,-0.497 -1.172,0.246 -2.404,1.104 -3.823,1.97 -1.418,0.866 -2.83,1.393 -2.83,1.393 0,0 -1.765,2.018 -3.167,2.018 -1.403,0 -7.55,0 -7.55,0 l -4.076,1.812 -2.134,2.063 h -3.347 c 0,0 -0.705,-2.096 -0.61,-2.962 0.096,-0.867 -0.46,-1.603 -1.199,-1.142 -0.74,0.46 -1.295,2.495 -1.851,2.865 -0.555,0.37 -2.96,1.239 -2.96,1.239 0,0 -1.048,-1.239 -2.096,-1.239 -1.048,0 -3.639,0.74 -4.378,0 -0.74,-0.74 -1.366,-1.233 -2.718,-1.727 -1.353,-0.493 -2.89,-2.09 -3.323,0 -0.434,2.093 1.857,5.793 1.914,5.979 0.057,0.185 0.498,5.611 0,6.968 -0.498,1.357 -0.503,3.467 -2.351,3.152 -1.848,-0.315 -5.247,-0.87 -5.582,-0.87 -0.336,0 -1.234,-2.293 -1.987,-2.812 -0.753,-0.519 -2.907,-1.813 -3.865,-1.444 -0.958,0.371 -3.187,3.145 -5.31,0.555 -2.124,-2.59 -3.233,-4.995 -3.604,-5.55 -0.37,-0.555 -2.898,0.01 -3.392,-1.105 -0.493,-1.115 -1.233,-3.974 -1.233,-3.974 l -1.48,-3.348 v -3.348 l 2.714,-1.361 v -0.854 l -2.137,-1.05 c 0,0 -0.69,-0.35 -1.217,-0.337 -0.526,0.014 0.523,0.162 -0.207,0.519 -0.729,0.357 -1.349,0 -1.349,0 l -1.66,-1.037 -8.185,-1.557 c 0,0 -2.25,-2.466 -1.672,-3.206 0.578,-0.74 0.285,-3.577 0,-4.07 -0.285,-0.493 -0.64,-2.59 -1.264,-3.453 -0.625,-0.864 -1.39,-0.95 -2.61,-1.4 -1.22,-0.45 -2.824,-1.93 -2.824,-1.93 l -0.986,-4.193 c 0,0 -0.494,-1.604 -0.617,-3.083 -0.123,-1.48 -1.356,-2.96 -1.356,-2.96 l -3.817,-7.029 c 0,0 0.641,-0.74 0.749,-3.7 0.108,-2.96 -1.378,-7.523 -1.378,-7.523 v -5.858 c 0,0 0.643,-0.987 1.194,-1.117 0,0 2.822,-0.548 3.253,-1.657 0.431,-1.11 0.369,-1.419 -0.618,-2.005 -0.986,-0.586 -1.148,-1.695 -0.882,-2.806 0.266,-1.109 0.018,-2.22 0.882,-2.96 0.864,-0.74 3.141,-2.145 1.91,-2.367 -1.232,-0.223 -0.919,0.037 -2.925,0 -2.006,-0.038 -3.061,0.479 -3.736,-0.52 -0.675,-0.998 -1.419,-2.108 -3.359,-1.368 -1.941,0.74 -0.523,1.257 -3.359,1.368 -2.836,0.112 -3.762,1.739 -4.132,0 -0.37,-1.738 -0.37,-2.104 0,-3.123 0.37,-1.021 -3.33,-3.166 -4.439,-4.775 -1.11,-1.609 -3.146,-0.599 -3.7,-2.121 -0.555,-1.523 2.694,-2.448 2.365,-3.743 -0.33,-1.296 0,-2.527 0,-2.527 0,0 1.52,0.477 2.075,-1.181 0.555,-1.658 0,-2.953 0.555,-3.508 0.555,-0.555 2.59,-2.611 3.144,-3.155 0.556,-0.544 0.32,-1.476 1.733,-1.38 1.412,0.096 2.275,-1.015 2.398,-1.2 0.124,-0.185 3.08,0.555 3.359,0 0.279,-0.555 2.09,-1.176 1.369,-2.53 -0.72,-1.355 -0.224,-3.39 -0.224,-3.39 0,0 1.958,-1.85 3.136,-1.295 1.178,0.555 4.447,1.295 4.447,1.295 l 3.633,-3.885 c 0,0 0.986,-0.801 1.667,-1.418 0.681,-0.617 1.479,-2.467 2.282,-3.021 0.804,-0.555 2.406,-0.611 4.287,-1.508 1.882,-0.897 3.859,-1.272 5.83,-1.732 1.972,-0.459 1.053,-2.875 1.975,-3.147 0.922,-0.272 1.539,-1.393 2.525,0 0.986,1.393 1.418,0.837 3.885,0.652 2.467,-0.185 5.419,-2.199 6.995,-2.209 1.576,-0.011 2.132,0.924 3.797,-0.469 1.665,-1.392 1.952,-2.688 3.381,-3.242 1.429,-0.554 2.654,0.645 3.984,1.525 1.329,0.881 3.026,3.47 3.195,4.58 0.169,1.11 0.909,4.042 0.909,4.042 l 2.578,5.948 c 0,0 9.703,-5.791 11.055,-5.948 1.352,-0.157 4.621,-1.732 4.621,-1.732 0,0 4.168,0.779 5.167,1.732 0.999,0.953 4.463,3.482 4.026,4.53 -0.437,1.048 1.15,4.563 1.15,4.563 0,0 -4.695,0.37 -5.176,0.74 -0.481,0.371 -2.127,2.641 -3.154,3.078 -1.026,0.438 -2.322,-0.673 -3.247,-1.228 -0.925,-0.555 -1.666,-3.33 -2.22,-1.85 -0.554,1.48 1.019,17.567 1.019,17.567 l -5.845,0.748 v 7.771 l 0.418,3.425 c 0,0 -0.708,2.385 0,3.643 0.708,1.257 3.917,3.112 5.55,3.942 1.634,0.83 3.521,1.112 5.722,2.174 2.202,1.062 3.064,3.096 4.205,3.836 1.142,0.74 3.374,1.35 3.923,0.953 0.549,-0.398 1.92,-1.323 1.92,-1.323 0,0 2.477,1.65 3.05,2.213 0.573,0.563 2.449,0 2.449,0 0,0 1.941,0.747 2.623,1.117 0.682,0.37 1.644,0.37 3.568,2.22 1.924,1.851 3.511,4.756 3.511,4.756 l 5.188,4.854 2.29,-1.245 c 0,0 1.136,2.893 2.603,2.629 1.467,-0.264 4.282,-2.319 4.817,-1.384 0.535,0.935 2.081,6.281 2.081,6.281 0,0 -1.916,3.534 -2.081,5.173 -0.165,1.638 -1.432,5.785 -1.432,5.785 h -1.843 c 0,0 0.85,1.271 1.843,2.282 0.993,1.011 0.23,0.767 0.23,0.767 l 1.201,3.32 0.351,0.821 -0.74,1.295 c 0,0 1.066,-0.438 1.295,0.37 0.229,0.809 -0.641,1.085 0.185,2.035 0.826,0.95 1.132,1.438 2.59,1.66 z"
   style="fill:#677821" /><rect
   style="fill:none;stroke:#000000;stroke-width:0.29998;stroke-linejoin:bevel;stroke-dasharray:none;paint-order:stroke fill markers"
   id="rect2"
   height="4390.293"
   x="0.19998971"
   y="0.19998971"
   ry="0.69917101"
   width="4353.8188" /></svg>
