<?xml version="1.0" encoding="UTF-8" standalone="no"?>
<!-- Generator: Adobe Illustrator 22.1.0, SVG Export Plug-In . SVG Version: 6.00 Build 0)  -->

<svg
   version="1.1"
   x="0px"
   y="0px"
   viewBox="0 0 4354.1187 4390.5933"
   enable-background="new 0 0 1995.865 2834.646"
   xml:space="preserve"
   id="svg1596"
   width="4354.1187"
   height="4390.5933"
   xmlns="http://www.w3.org/2000/svg"
   xmlns:svg="http://www.w3.org/2000/svg"><defs
   id="defs1596" />


<path
   id="West_Lothian_1_"
   fill="#6C833C"
   d="m 2183.6835,1983.2941 c 0,0 1.849,-0.122 2.859,-0.694 1.01,-0.571 3.554,-2.883 3.554,-2.883 0,0 3.33,-0.74 5.243,-0.863 1.913,-0.124 5.24,-0.74 6.226,-0.863 0.987,-0.124 2.837,-1.11 3.947,0 1.109,1.109 2.343,3.33 3.332,3.823 0.988,0.493 2.834,0.617 3.444,0.786 0.609,0.169 5.804,1.928 6.543,2.297 0.74,0.37 2.8,0 2.8,0 0,0 -0.444,-0.123 0.474,-0.739 0.918,-0.617 3.482,-1.11 3.248,-1.973 -0.234,-0.863 -0.014,-2.468 0,-3.33 0.014,-0.863 1.123,-2.097 1.123,-2.097 0,0 0.863,-1.234 2.344,-1.728 1.479,-0.492 1.604,-0.486 2.837,-0.856 -0.37,-0.746 -0.487,-1.504 -0.49,-1.927 0,-0.423 -0.358,-0.496 -1.105,-1.322 -0.748,-0.827 -1.364,-2.184 -1.364,-2.184 l -0.617,-1.974 c 0,0 0.433,-2.221 1.204,-3.022 0.77,-0.801 1.14,-2.527 0.585,-2.651 -0.555,-0.124 -1.048,-1.666 -0.678,-1.943 0.37,-0.277 1.977,-1.82 1.977,-1.82 l 1.23,-2.403 -0.74,-0.987 h -3.577 c 0,0 -2.123,0.37 -2.727,-0.74 -0.604,-1.11 0.11,-1.575 0,-2.083 -0.11,-0.507 0,-1.987 0,-1.987 l 1.315,-2.713 -3.029,-2.583 c 0,0 -0.124,-2.274 0,-2.744 0.123,-0.47 -0.48,-4.17 -0.055,-4.663 0.426,-0.493 1.769,-1.854 1.769,-1.854 l 0.877,-2.339 v 0 c -1.665,-0.186 -2.96,-0.925 -2.96,-0.925 0,0 -4.81,0.37 -6.66,0 -1.851,-0.37 -0.549,0.246 -0.919,-0.31 0,0 -1.425,1.604 -2.325,2.113 -0.9,0.509 -1.812,-0.139 -2.553,-0.511 -0.74,-0.372 -1.726,0.619 -2.001,0 -0.275,-0.618 -1.575,0 -1.945,-0.368 -0.37,-0.37 -1.233,-0.143 -1.233,-0.143 0,0 -1.233,-0.475 -1.85,0 -0.617,0.475 -1.48,0.39 -2.097,0.511 -0.617,0.121 -1.357,0.619 -1.433,0.988 -0.076,0.37 -0.503,0.982 -0.503,0.982 l 0.503,1.238 -0.787,1.11 c 0,0 -1.893,1.58 -2.32,1.973 -0.428,0.393 -1.673,2.159 -1.996,2.59 -0.324,0.432 -0.174,0.985 -0.229,1.325 -0.055,0.34 -0.722,1.302 -1.162,1.628 -0.439,0.326 -1.816,1.24 -1.816,1.24 l -1.727,-0.384 c 0,0 -2.467,0.877 -3.677,1 -1.209,0.123 -2.243,0.863 -2.243,1.459 0,0.597 -2.343,2.857 -3.083,3.968 -0.74,1.109 -1.974,2.466 -2.837,2.678 -0.863,0.211 -2.467,0.528 -3.207,0 l -0.444,-0.29 c 0,0 1.405,1.065 0,1.435 -1.405,0.37 -1.898,0.959 -1.898,0.959 0,0 -0.74,1.578 0,1.666 0.74,0.088 1.716,0.395 2.523,0.981 0.807,0.587 0.437,1.114 1.423,1.159 0.986,0.045 2.122,0.792 2.479,0.12 0.357,-0.672 2.086,-1.413 2.455,-0.621 0.37,0.793 0.631,1.074 1.425,0.501 0.795,-0.572 2.028,-0.978 2.769,-1.453 0.74,-0.476 2.137,-1.022 2.795,-0.687 0.658,0.335 -0.165,1.349 0,2.26 0.165,0.911 -1.762,3.527 -2.155,3.268 -0.393,-0.26 -1.627,-0.48 -2.243,0.37 -0.617,0.851 -1.466,1.713 -1.165,2.453 0.302,0.741 0.548,0.94 1.165,2.259 0.616,1.318 0.246,2.507 1.233,3.084 0.986,0.578 1.11,1.623 1.974,1.902 0.863,0.279 -0.111,-0.133 0.362,0.875 0.473,1.007 1.325,1.132 0,1.377 -1.326,0.246 -0.355,0.207 -1.326,0.246 -0.97,0.04 -1.102,0.012 -1.616,0.271 -0.514,0.261 0.36,1.332 0.113,2.319 -0.247,0.987 -0.863,1.603 -0.74,1.85 0.122,0.25 -0.117,1.996 -0.618,2.593"
   style="fill:#677821" /><rect
   style="fill:none;stroke:#000000;stroke-width:0.29998;stroke-linejoin:bevel;stroke-dasharray:none;paint-order:stroke fill markers"
   id="rect2"
   height="4390.293"
   x="0.19998971"
   y="0.19998971"
   ry="0.69917101"
   width="4353.8188" /></svg>
