<?xml version="1.0" encoding="UTF-8" standalone="no"?>
<!-- Generator: Adobe Illustrator 22.1.0, SVG Export Plug-In . SVG Version: 6.00 Build 0)  -->

<svg
   version="1.1"
   x="0px"
   y="0px"
   viewBox="0 0 4354.1187 4390.5933"
   enable-background="new 0 0 1995.865 2834.646"
   xml:space="preserve"
   id="svg1596"
   width="4354.1187"
   height="4390.5933"
   xmlns="http://www.w3.org/2000/svg"
   xmlns:svg="http://www.w3.org/2000/svg"><defs
   id="defs1596" />


<path
   id="West_Dunbartonshire_1_"
   fill="#606F38"
   d="m 2082.6455,1947.8901 3.728,1.24 2.96,3.577 3.604,1.492 1.931,1.972 3.154,1.861 c 0,0 0.078,-1.416 0.225,-2.119 0.146,-0.702 -0.046,-2.221 -0.225,-2.837 -0.179,-0.616 0.302,-1.205 0,-1.959 -0.302,-0.754 -1.188,-2.111 -0.929,-2.974 0.257,-0.863 -0.381,-1.627 0,-2.232 0.381,-0.604 -0.011,-1.945 0,-2.077 0.011,-0.131 0.112,-0.377 0,-1.241 -0.113,-0.863 -0.498,-0.11 -0.922,-1.535 -0.424,-1.426 -0.21,-3.723 -0.278,-3.682 -1.733,1.064 -2.956,-0.889 -2.956,-0.889 -2.124,-2.59 -3.233,-4.995 -3.604,-5.55 -0.37,-0.555 -2.898,0.01 -3.392,-1.105 -0.493,-1.115 -1.233,-3.974 -1.233,-3.974 l -1.48,-3.348 v -3.348 l 2.714,-1.361 v -0.854 l -2.137,-1.05 c 0,0 -0.69,-0.35 -1.217,-0.337 -0.526,0.014 0.523,0.162 -0.207,0.519 -0.729,0.357 -1.349,0 -1.349,0 l -1.66,-1.037 -8.185,-1.557 -0.455,-0.534 c 0,0 -2.218,0.596 -2.785,1.059 -0.567,0.462 -2.319,1.696 -2.306,2.806 0.013,1.11 -0.259,3.7 0,4.316 0.259,0.617 2.306,4.811 2.306,4.811 0,0 -2.072,1.614 -2.306,1.979 -0.234,0.364 -2.341,1.114 -2.151,1.911 0.19,0.797 0.19,1.654 0.683,2.089 0.493,0.435 1.85,1.384 2.097,2.204 0.247,0.82 -0.493,2.104 0.124,3.251 0.617,1.147 3.577,3.859 3.824,4.477 0.089,0.224 -0.423,1.198 -1.112,2.349 0,0 3.833,2.276 6.354,2.09 2.174,0.115 1.526,0.556 4.81,1.11 1.604,0.259 1.47,0.186 2.375,0.487 z"
   style="fill:#677821" /><rect
   style="fill:none;stroke:#000000;stroke-width:0.29998;stroke-linejoin:bevel;stroke-dasharray:none;paint-order:stroke fill markers"
   id="rect2"
   height="4390.293"
   x="0.19998971"
   y="0.19998971"
   ry="0.69917101"
   width="4353.8188" /></svg>
