<?xml version="1.0" encoding="UTF-8" standalone="no"?>
<!-- Generator: Adobe Illustrator 22.1.0, SVG Export Plug-In . SVG Version: 6.00 Build 0)  -->

<svg
   version="1.1"
   x="0px"
   y="0px"
   viewBox="0 0 4354.1187 4390.5933"
   enable-background="new 0 0 1995.865 2834.646"
   xml:space="preserve"
   id="svg1596"
   width="4354.1187"
   height="4390.5933"
   xmlns="http://www.w3.org/2000/svg"
   xmlns:svg="http://www.w3.org/2000/svg"><defs
   id="defs1596" />


<g
   id="Antrim__x3C_Group_x3E_"
   style="fill:#677821"
   transform="translate(1093.6405,660.66109)">
					<path
   id="Rathlin_Island_2_"
   fill="#323A1B"
   d="m 749.273,1440 c 0,0 2.405,-0.077 4.255,-0.909 1.85,-0.833 0.74,-0.093 1.897,-0.463 1.156,-0.37 1.804,0 2.728,0 0.925,0 1.85,0.74 2.22,1.452 0.37,0.713 -0.185,1.138 -0.74,1.41 -0.555,0.272 -0.555,2.133 0,3.242 0.555,1.11 0.185,2.035 1.48,1.296 1.295,-0.74 1.11,-1.11 1.11,-3.047 0,-1.937 0.37,-0.653 0.791,-1.491 0.42,-0.838 -0.051,-1.752 -0.42,-2.631 -0.37,-0.879 1.109,-1.896 0,-2.611 -1.11,-0.716 -1.851,-0.395 -3.33,0 -1.48,0.395 -2.59,-0.95 -3.33,-1.875 -0.74,-0.925 -1.665,-0.37 -2.405,0 -0.74,0.37 -1.665,0.555 -2.22,0.925 -0.555,0.37 -2.035,0.925 -3.146,1.573 -1.109,0.646 0,1.757 0,1.757 0,1.758 1.11,1.372 1.11,1.372 z"
   style="fill:#677821" />
					<path
   id="Antrim"
   fill="#323A1B"
   d="m 719.858,1583.945 3.24,-16.569 0.715,-2.546 0.67,-1.697 0.508,-1.975 c 0,0 -1.525,-1.367 -2.266,-1.962 -0.74,-0.596 -0.555,-2.631 -0.37,-4.296 0.185,-1.665 1.532,-2.693 1.532,-2.693 l 1.104,-0.803 c 0,0 -0.631,-2.331 -0.878,-3.07 -0.247,-0.74 -0.863,-2.221 -0.986,-2.714 -0.123,-0.494 -0.771,-3.7 -0.771,-3.7 0,0 -0.833,-2.714 -1.449,-3.577 -0.616,-0.863 -0.617,-2.713 -0.863,-3.083 -0.247,-0.37 -0.74,-2.467 -0.74,-3.453 0,-0.987 -0.864,-2.097 -0.864,-2.714 0,-0.616 0.37,-1.85 0,-3.083 -0.37,-1.233 -1.603,-2.714 -2.343,-4.07 -0.74,-1.355 -1.85,-1.973 -2.59,-3.33 -0.74,-1.355 -0.493,-1.479 -0.73,-2.836 -0.237,-1.357 -0.133,-1.728 -0.01,-2.344 0.123,-0.616 -0.986,-0.123 -1.973,-0.863 -0.987,-0.74 -1.48,-2.467 -1.85,-3.946 -0.37,-1.48 -0.493,-2.467 -0.247,-3.084 0.247,-0.616 0.617,-2.097 0.863,-3.946 0.247,-1.85 -0.37,-2.714 -0.986,-4.132 -0.616,-1.418 0,-2.158 0,-2.651 0,-0.494 -0.863,-2.221 -0.863,-2.221 0,0 -1.727,-1.356 -2.343,-2.22 l -0.628,-1.021 c 0,0 1.43,-1.754 1.8,-2.047 0.37,-0.293 2.128,-1.311 2.683,-3.161 0.555,-1.85 0.925,-4.532 0.925,-5.642 0,-1.11 0.093,-3.979 -1.803,-6.753 -1.897,-2.775 -4.857,-6.383 -6.244,-7.4 -1.388,-1.018 -4.07,-3.7 -4.07,-3.7 l -0.74,-3.141 h 0.74 l 1.295,2.031 c 0,0 0,-0.37 1.481,-0.37 1.479,0 1.295,1.11 4.069,0.555 2.775,-0.555 3.33,-1.656 4.811,-2.216 1.479,-0.559 3.33,-1.114 3.33,-1.114 l 1.665,-0.739 c 0,0 -1.295,-1.295 0,-2.035 1.295,-0.74 2.405,-1.851 2.405,-1.851 l 2.22,-1.479 c 0,0 1.295,-1.85 2.405,-1.665 1.11,0.185 2.405,0.739 2.405,0.739 0,0 0.37,1.851 1.11,2.221 0.74,0.37 3.515,0.37 4.255,0.37 0.74,0 1.11,0.925 1.85,1.11 0.74,0.185 1.665,-0.186 2.96,-1.11 1.295,-0.925 2.22,-1.295 2.22,-1.295 0,0 1.295,0.37 2.22,0.555 0.925,0.185 3.33,0.925 3.33,0.925 l 3.7,1.48 c 0,0 2.59,0.74 3.7,1.665 1.11,0.925 1.11,1.488 2.22,2.224 1.109,0.736 2.22,2.401 3.144,2.401 0.924,0 2.405,-1.296 3.515,-1.48 1.11,-0.185 2.405,-0.731 3.7,-0.921 1.295,-0.189 1.48,-2.039 2.96,-2.594 1.481,-0.555 1.295,-1.11 3.33,0.74 2.035,1.85 1.481,2.404 3.146,2.774 1.665,0.37 2.22,1.665 2.774,1.665 0.556,0 2.035,0.74 2.035,0.74 l 1.48,0.74 c 0,0 0.925,1.85 1.295,2.96 0.37,1.109 0.555,2.774 1.479,3.329 0.925,0.556 3.33,2.591 2.405,6.291 0,0 -0.925,2.22 -1.665,2.774 -0.74,0.556 -0.37,1.665 -0.37,1.665 0,0 1.11,0.555 0.925,3.145 -0.185,2.591 -1.48,4.44 -1.666,5.181 -0.185,0.74 -0.555,4.255 -0.739,4.995 -0.186,0.74 -0.37,2.22 -0.37,2.22 0,0 0.74,1.851 2.59,1.295 1.85,-0.555 4.44,-0.925 5.55,-0.739 1.11,0.185 2.22,-0.186 2.96,0.739 0.74,0.925 2.22,2.775 1.11,5.181 -1.11,2.404 -2.035,6.289 -2.035,6.289 l -1.665,4.256 c 0,0 0.37,1.479 1.295,1.85 0.925,0.371 2.463,0 2.804,0 0.341,0 0,1.665 0,1.665 0,0 0.526,0.925 1.821,1.11 1.295,0.185 0.37,-1.11 3.33,1.664 2.96,2.775 3.7,5.92 3.885,6.66 0.186,0.74 0.925,3.146 0.925,3.146 l 1.295,2.405 c 0,0 1.295,2.22 1.85,2.035 0.555,-0.186 3.145,0.01 3.145,0.01 0,0 0.74,2.024 0.926,3.689 0.185,1.665 1.109,1.48 2.034,2.59 0.926,1.11 2.591,4.07 2.591,4.07 v 2.22 c 0,0 -1.295,0 -1.48,0 -0.185,0 0,2.96 0,2.96 l 1.48,2.405 2.774,1.11 c 0,0 0.925,0 1.48,0 0.555,0 2.22,0 2.22,0 l 1.48,1.295 v 1.109 H 820.5 c 0,0 0.556,0.926 0.925,2.221 0.37,1.295 1.85,3.699 1.85,3.699 l 1.11,1.48 v -4.439 l -1.295,-2.961 -0.925,-2.035 c 0,0 -1.109,-0.555 -1.295,-1.295 -0.185,-0.739 -0.185,-1.664 -1.295,-2.034 -1.11,-0.37 -0.555,0 -2.035,-1.48 -1.479,-1.479 -2.405,-2.405 -2.22,-2.96 0.185,-0.555 0.185,-0.925 0.74,-1.665 0.555,-0.739 0.37,0.925 1.109,0.925 0.74,0 1.666,0.556 1.666,-0.185 0,-0.741 0.555,-1.295 1.48,-0.74 0.925,0.556 1.665,1.11 2.59,1.48 0.925,0.37 0.925,1.109 2.775,4.255 1.85,3.145 2.96,4.81 2.774,5.55 -0.185,0.74 0.021,6.66 0.021,6.66 v 3.145 c 0,0 -0.575,1.296 -1.13,2.035 -0.556,0.74 -1.11,2.22 -1.665,2.775 -0.556,0.555 -1.295,0.185 -1.851,0.925 -0.555,0.74 -1.479,2.59 -2.96,3.145 -1.479,0.556 -2.405,-0.369 -4.439,1.11 -2.035,1.479 -3.516,2.035 -3.516,2.035 0,0 -0.555,1.11 -1.665,1.479 -1.109,0.37 -2.59,-0.925 -2.96,0 -0.37,0.926 0.37,1.851 -0.555,2.59 -0.925,0.74 -3.146,2.035 -3.515,2.591 -0.37,0.555 -2.775,2.22 -3.146,2.774 -0.37,0.556 0,2.035 -0.74,3.885 -0.74,1.851 -2.22,2.591 -2.22,3.33 0,0.74 0,2.035 -0.37,3.516 -0.37,1.48 -2.035,6.66 -1.295,6.845 l 0.93,-0.283 c 0,0 1.229,0.469 0.982,1.085 -0.247,0.617 -1.102,0.494 -0.982,1.11 0.119,0.616 0.722,1.232 -0.012,1.727 -0.733,0.493 -0.609,-1.11 -0.733,0.493 -0.123,1.604 0.123,1.727 0,2.221 -0.123,0.492 0.422,0 -0.036,1.051 -0.458,1.045 -0.334,-0.064 -0.458,1.045 -0.123,1.11 0.74,0.218 -0.864,1.219 -1.603,1.002 -0.246,-0.108 -1.603,1.002 -1.356,1.109 -2.343,0.059 -2.096,1.262 0.246,1.205 0.54,0.834 -0.038,1.697 -0.579,0.864 0.038,1.48 -1.195,1.234 -1.233,-0.247 -0.494,-0.617 -1.727,-1.11 -1.233,-0.493 -1.233,-0.987 -2.22,-0.247 -0.986,0.74 0,-0.246 -0.986,0.74 -0.987,0.986 -0.617,1.604 -1.233,2.097 -0.616,0.493 -1.973,1.48 -0.986,1.974 0.986,0.493 0.74,0.616 0,1.232 -0.74,0.617 -1.357,-0.355 -1.974,1.18 -0.617,1.534 -0.74,2.18 -1.727,2.412 -0.987,0.232 -1.233,-1.864 -2.714,-1.248 -1.479,0.617 -2.22,0.893 -2.959,1.248 -0.74,0.355 -0.494,0.787 -2.097,1.003 -1.604,0.216 -1.973,-0.719 -2.59,-0.01 -0.616,0.715 -3.33,1.932 -4.193,2.864 l -1.781,0.698 -2.134,-1.122 -4.533,-2.44 -2.405,0.38 c 0,0 -2.22,-0.098 -2.74,-0.01 -0.519,0.093 -2.718,-1.203 -3.088,-1.373 -0.37,-0.171 -4.162,-1.864 -4.44,-1.957 -0.278,-0.093 -2.066,-0.455 -2.066,-0.455 l -2.906,-0.74 0.687,0.671 -14.137,-13.813 z"
   style="fill:#677821" />
				</g><rect
   style="fill:none;stroke:#000000;stroke-width:0.29998;stroke-linejoin:bevel;stroke-dasharray:none;paint-order:stroke fill markers"
   id="rect2"
   height="4390.293"
   x="0.19998971"
   y="0.19998971"
   ry="0.69917101"
   width="4353.8188" /></svg>
