<?xml version="1.0" encoding="UTF-8" standalone="no"?>
<!-- Generator: Adobe Illustrator 22.1.0, SVG Export Plug-In . SVG Version: 6.00 Build 0)  -->

<svg
   version="1.1"
   x="0px"
   y="0px"
   viewBox="0 0 4354.1187 4390.5933"
   enable-background="new 0 0 1995.865 2834.646"
   xml:space="preserve"
   id="svg1596"
   width="4354.1187"
   height="4390.5933"
   xmlns="http://www.w3.org/2000/svg"
   xmlns:svg="http://www.w3.org/2000/svg"><defs
   id="defs1596" />


<path
   id="Armagh"
   fill="#606F38"
   d="m 1841.0645,2374.6311 c -0.739,-0.123 -2.098,-3.083 -2.098,-3.378 0,-0.295 -1.357,-3.405 -1.357,-3.405 0,0 -2.59,-3.946 -3.083,-4.44 -0.493,-0.493 0.123,-3.823 0,-5.673 -0.123,-1.851 0,0 -0.74,-1.356 -0.74,-1.357 -0.74,-0.74 -1.357,-2.837 -0.616,-2.097 0.247,-0.987 0,-2.96 -0.247,-1.974 -0.493,-1.48 -0.678,-2.837 -0.184,-1.356 -1.049,-1.727 -1.542,-2.837 -0.493,-1.109 0.247,-1.233 1.194,-2.96 0.947,-1.727 -0.331,-2.097 -0.399,-3.206 -0.069,-1.11 0.932,-2.467 0,-3.7 -0.932,-1.233 -0.055,-1.356 -0.055,-3.454 0,-2.097 0.123,-0.863 0,-3.206 -0.123,-2.343 0,-0.987 0,-4.316 0,-3.33 -0.124,-1.728 -0.74,-3.33 -0.617,-1.604 -0.37,-1.48 -0.987,-3.083 l -0.499,-1.022 -0.519,-1.691 -1.11,-3.916 c 0,0 1.388,-2.59 2.415,-3.423 1.028,-0.832 0.268,-2.404 0.019,-3.82 -0.247,-1.415 1.913,-2.1 2.653,-2.746 0.74,-0.648 1.573,-1.11 3.083,-1.943 1.511,-0.832 2.189,-0.369 3.186,-0.555 0.997,-0.186 1.038,-1.48 1.038,-1.48 l -0.185,-2.774 0.647,-1.758 c 0,0 1.48,-1.388 1.48,-1.757 0,-0.371 0.462,-1.11 0,-1.728 -0.462,-0.617 -6.167,-3.438 -6.167,-3.438 l -2.097,-2.481 -14.137,-13.813 -15.587,13.883 c -1.604,-0.377 -0.309,0.891 -3.083,1.182 -2.775,0.291 -2.405,-1.771 -3.885,0 -1.48,1.771 -0.986,2.017 -2.158,4.669 -1.172,2.652 -1.788,1.356 -2.96,3.577 -1.172,2.22 -1.172,1.33 -2.282,3.439 -1.11,2.11 -3.403,1 -2.904,3.775 0.499,2.775 1.188,4.07 -0.266,6.105 -1.455,2.035 -2.08,3.4 -3.34,1.978 0,0 0.405,-0.868 -0.52,-1.331 -0.925,-0.462 -2.058,-1.047 -3.237,-0.893 -1.18,0.153 -2.405,-1.512 -2.96,-1.604 -0.555,-0.092 -2.373,0.185 -2.482,0.74 -0.108,0.555 -0.478,1.572 -0.385,2.312 0.092,0.74 0.433,0.74 -0.015,2.128 -0.448,1.387 -0.448,2.404 -1.189,3.792 -0.74,1.388 -1.572,1.944 -1.757,2.591 -0.185,0.646 -1.11,3.422 -1.11,3.422 0,0 -0.74,1.387 -1.388,2.59 -0.647,1.202 -1.572,2.127 -2.035,2.035 -0.462,-0.093 -1.528,0.01 -1.528,0.01 l -0.995,0.74 0.103,0.754 c 0,1.547 1.341,2.785 1.444,4.229 0.103,1.444 1.134,1.754 0,3.301 -1.134,1.548 -1.65,0.723 -2.063,1.857 -0.413,1.134 -0.619,3.197 0.722,4.125 1.341,0.93 2.579,0.62 3.404,1.136 0.825,0.516 1.547,1.649 1.444,2.682 -0.104,1.031 0.516,2.167 1.031,3.404 0.516,1.237 0.516,2.372 0.619,2.784 0.103,0.413 2.063,0.929 2.27,1.96 0.206,1.032 1.031,2.27 2.888,3.404 1.856,1.135 2.476,1.237 2.991,1.547 0.516,0.31 0.723,2.476 2.167,2.476 1.444,0 2.991,-1.134 3.404,-2.166 0.413,-1.031 0.929,-1.547 2.476,-0.928 1.547,0.618 7.014,4.435 7.53,7.116 0.516,2.683 1.032,4.849 0.413,5.983 -0.619,1.135 -1.753,2.991 -2.476,3.713 -0.722,0.723 -0.929,1.548 -0.413,2.992 0.516,1.443 1.341,2.681 0.516,3.609 -0.825,0.929 -1.547,1.032 -1.238,2.683 0.31,1.649 -0.206,2.991 0.722,4.435 0.928,1.444 1.238,2.373 2.476,3.611 1.238,1.237 2.166,1.856 3.094,1.959 0.929,0.104 2.373,0.723 2.373,-0.619 0,-1.34 0.413,-2.27 2.372,-2.166 1.96,0.104 4.332,0 5.055,-0.309 0.722,-0.311 2.166,-0.929 3.094,-0.517 0.929,0.413 1.444,0 2.683,-0.825 1.237,-0.824 1.547,-2.269 3.094,-2.784 1.547,-0.517 3.404,-0.207 3.713,0.516 0.31,0.722 0.206,1.65 1.341,1.856 1.135,0.206 3.817,-0.31 4.539,-0.516 0.722,-0.207 1.649,0 2.785,-0.619 1.135,-0.619 2.373,1.65 2.269,-1.547 -0.103,-3.198 0.013,-5.57 0.01,-7.324 -0.01,-1.754 -0.831,-3.301 1.128,-2.372 1.96,0.929 2.476,0 2.889,1.96 0.412,1.96 -0.413,2.888 1.237,2.785 1.65,-0.104 2.579,-0.517 3.61,-1.961 1.032,-1.443 2.579,-2.166 2.579,-2.166 z"
   style="fill:#677821" /><rect
   style="fill:none;stroke:#000000;stroke-width:0.29998;stroke-linejoin:bevel;stroke-dasharray:none;paint-order:stroke fill markers"
   id="rect2"
   height="4390.293"
   x="0.19998971"
   y="0.19998971"
   ry="0.69917101"
   width="4353.8188" /></svg>
