<?xml version="1.0" encoding="UTF-8" standalone="no"?>
<!-- Generator: Adobe Illustrator 22.1.0, SVG Export Plug-In . SVG Version: 6.00 Build 0)  -->

<svg
   version="1.1"
   x="0px"
   y="0px"
   viewBox="0 0 4354.1187 4390.5933"
   enable-background="new 0 0 1995.865 2834.646"
   xml:space="preserve"
   id="svg1596"
   width="4354.1187"
   height="4390.5933"
   xmlns="http://www.w3.org/2000/svg"
   xmlns:svg="http://www.w3.org/2000/svg"><defs
   id="defs1596" />


<g
   id="Down__x3C_Group_x3E_"
   style="fill:#677821"
   transform="translate(1093.6405,660.66109)">
					<path
   fill="#4B5A26"
   d="m 847.877,1583.809 c 0,0 0.74,-1.621 1.481,-1.806 0.74,-0.185 1.479,0.556 2.22,1.295 0.74,0.74 -0.37,1.665 -1.295,2.22 -0.925,0.556 -1.85,-0.925 -1.85,-0.925 z"
   id="path936"
   style="fill:#677821" />
					<path
   fill="#4B5A26"
   d="m 849.849,1577.008 c -0.121,0.74 -1.231,0.74 -0.121,0.74 1.109,0 1.109,-0.74 1.109,-0.74 0,0 -0.867,-0.74 -0.988,0 z"
   id="path937"
   style="fill:#677821" />
					<path
   fill="#4B5A26"
   d="m 852.734,1576.453 c -0.231,0.092 -0.231,0.761 -0.231,0.761 l 0.647,-0.381 0.231,-0.611 -0.439,-0.231 z"
   id="path938"
   style="fill:#677821" />
					<path
   fill="#4B5A26"
   d="m 836.038,1620.113 c -0.462,0.185 -0.832,0.369 -1.109,0.832 -0.278,0.463 -0.648,0.74 -0.648,1.295 0,0.555 0,1.48 0,1.48 0,0 -0.185,1.109 0.462,1.202 0.647,0.093 2.035,-0.277 2.498,-0.647 0.462,-0.37 0.925,-1.558 0.647,-1.75 -0.278,-0.192 -0.647,-0.641 -0.925,0 -0.278,0.641 -0.125,0.918 -0.849,1.195 -0.724,0.277 -0.446,0.925 -0.724,0.277 -0.277,-0.647 -0.185,-1.003 0,-1.473 0.186,-0.47 -0.033,-0.84 0.724,-1.303 0.757,-0.462 0.664,-1.109 0.664,-1.109 h -0.74 z"
   id="path939"
   style="fill:#677821" />
					<path
   fill="#4B5A26"
   d="m 837.425,1632.045 c 0.37,0.463 1.018,0.093 1.018,-0.555 0,-0.648 -1.388,0.093 -1.018,0.555 z"
   id="path940"
   style="fill:#677821" />
					<path
   fill="#4B5A26"
   d="m 836.114,1628.068 c -0.261,0.462 0.076,1.109 0,1.572 -0.076,0.463 0.664,0.925 0.849,0 0.185,-0.925 -0.092,-1.758 0,-2.128 0.092,-0.37 -0.849,0.556 -0.849,0.556 z"
   id="path941"
   style="fill:#677821" />
					<path
   fill="#4B5A26"
   d="m 835.483,1626.311 c -0.37,0.186 -0.37,1.115 -0.37,1.115 l 1.001,-0.558 v -0.928 z"
   id="path942"
   style="fill:#677821" />
					<path
   fill="#4B5A26"
   d="m 836.521,1642.221 -0.407,1.479 c 0,0 -0.036,1.203 0.407,0.925 0.442,-0.277 0.872,-1.109 0.842,-1.572 -0.03,-0.462 0,-1.572 0,-1.572 z"
   id="path943"
   style="fill:#677821" />
					<path
   fill="#4B5A26"
   d="m 849.403,1671.021 c -0.511,-0.244 -1.111,0.264 -1.047,0.784 0.124,0.108 0.43,0.979 0.557,1.014 0.739,0.205 1.291,-1.414 0.49,-1.798 z"
   id="path944"
   style="fill:#677821" />
					<path
   id="Down"
   fill="#4B5A26"
   d="m 751.308,1717.423 c 0,-1.295 0.925,-0.37 0.925,-0.37 0,0 1.11,0.186 1.665,-0.185 0.555,-0.371 3.7,0.185 3.7,0.185 0,0 1.665,0.555 2.59,0.74 0.925,0.185 0.925,1.665 0.925,3.145 0,1.48 1.295,2.035 1.85,1.851 0.555,-0.185 1.295,1.665 2.405,1.85 1.11,0.186 3.515,0.186 4.07,0.186 0.555,0 1.665,0.739 2.22,0.739 0.555,0 2.59,0.926 2.59,0.926 l 1.11,1.109 0.74,1.48 -1.665,-0.37 c 0,0 -1.11,0 -0.925,0.555 0.185,0.556 -1.11,1.296 -1.11,1.296 0,0 1.85,0.739 2.405,1.479 0.555,0.74 1.295,1.11 2.22,0.925 0.925,-0.185 0.74,1.665 1.665,1.48 0.925,-0.186 1.479,-0.926 2.22,-2.035 0.74,-1.11 2.035,-1.11 2.775,-1.665 0.74,-0.556 0.925,-0.925 0.925,-1.851 0,-0.925 1.665,-0.925 2.96,-2.22 1.295,-1.295 3.145,-0.739 4.07,-0.925 0.925,-0.186 0.739,-2.59 1.295,-3.516 0.555,-0.924 2.775,-1.85 4.995,-3.699 2.22,-1.85 2.405,-2.221 2.96,-3.7 0.555,-1.479 0.37,-2.035 0.555,-2.96 0.185,-0.925 0.925,-0.186 0.555,-1.11 -0.37,-0.925 -0.74,-1.295 -0.37,-2.405 0.37,-1.109 2.035,-4.994 2.035,-4.994 0.556,-7.03 -0.925,-7.4 -1.665,-8.881 -0.74,-1.479 -0.37,-1.85 -0.37,-2.959 0,-1.11 1.11,-1.11 2.405,-2.405 1.295,-1.295 2.405,-2.405 2.405,-2.405 0,0 2.035,-0.925 2.775,-1.85 0.74,-0.926 -0.555,-2.035 -1.11,-2.221 -0.555,-0.185 -1.665,-0.185 -1.665,-0.185 0,0 1.85,-2.774 2.22,-3.33 0.37,-0.555 1.11,-2.22 1.11,-2.22 l 0.925,-1.85 0.37,1.109 -0.37,2.775 0.37,1.85 -1.665,0.186 0.925,2.404 2.96,0.186 c 0,0 5.735,-0.186 6.66,-0.74 0.925,-0.555 0.555,-1.11 0.555,-1.11 0,0 1.11,0.186 2.405,-0.37 1.295,-0.555 1.48,0.926 1.48,0.926 l 4.81,0.185 c 0,0 1.665,2.035 2.035,3.146 0.37,1.109 0.925,1.479 1.48,2.22 0.555,0.739 1.295,-1.11 1.85,-1.851 0.555,-0.74 0.74,-1.664 0.555,-2.591 -0.185,-0.926 -0.37,-2.403 0.74,-2.959 1.11,-0.555 0,0 1.11,0.74 1.11,0.74 0.925,0.74 0.555,1.665 -0.37,0.925 1.295,0.74 1.85,-0.925 0.555,-1.665 0.37,-1.296 -0.185,-2.035 -0.556,-0.74 0,-0.925 0.925,-1.295 0.925,-0.37 1.11,0.739 1.665,0 0.555,-0.74 1.48,-1.665 3.33,-3.33 1.85,-1.665 1.11,-2.405 1.48,-3.33 0.37,-0.925 1.48,-2.035 2.22,-3.146 0.74,-1.109 1.295,-0.369 1.665,-0.925 0.369,-0.555 -0.74,-1.295 -1.665,-1.85 -0.926,-0.556 -0.37,-1.851 -0.74,-2.528 -0.37,-0.677 -0.37,-4.132 -0.37,-5.797 0,-1.665 -0.74,-1.85 -1.11,-2.775 -0.37,-0.925 -1.11,-0.555 -2.035,-0.925 -0.925,-0.37 0,-1.295 -0.37,-1.85 -0.37,-0.556 -1.295,-0.37 -2.405,-0.74 -1.11,-0.37 -1.85,0.185 -2.59,0.925 -0.74,0.74 -1.11,0 -1.85,0.555 -0.74,0.556 -0.925,0.74 -2.59,1.296 -1.665,0.555 -1.295,0.739 -2.96,1.109 -1.665,0.37 -1.11,-0.185 -2.22,-1.109 -1.11,-0.925 0,0 0.74,-0.925 0.74,-0.926 1.479,-1.295 2.59,-1.851 1.11,-0.555 1.11,-1.85 1.665,-3.146 0.555,-1.295 0.37,-2.034 0.37,-3.885 0,-1.85 0,-1.664 0.739,-3.699 0.74,-2.035 0,0 0.926,-0.926 0.925,-0.925 0.185,-0.925 0,-2.404 -0.185,-1.48 0,0 1.479,-0.556 1.481,-0.555 0,0 0,-1.665 0,-1.664 0,0 -1.479,-1.85 -1.48,-1.85 0,0 -0.74,0.555 -0.74,0.555 -0.74,1.48 -0.74,1.48 0,0 -0.185,-1.665 -0.74,-2.035 -0.555,-0.37 -0.555,-1.48 0.186,-2.035 0.74,-0.555 0,-1.295 -0.74,-2.775 -0.74,-1.479 0.185,-1.479 0.185,-2.59 0,-1.109 -1.295,-0.185 -1.295,-0.185 0,0 -0.925,0.74 -1.85,0.555 -0.925,-0.185 -0.185,-0.925 -0.37,-2.405 -0.185,-1.479 0.37,-1.295 2.035,-1.85 1.665,-0.555 0,0 0.925,-0.74 0.925,-0.74 -0.37,-1.295 -0.37,-1.295 0,0 -1.665,-0.185 -2.22,-0.555 -0.555,-0.37 -1.481,-0.74 -1.665,-1.295 -0.185,-0.555 -1.295,-1.11 -2.405,-1.665 -1.109,-0.556 -1.665,-0.556 -1.665,-0.556 l 0.556,-1.109 c 0,0 1.109,-0.74 1.85,-0.925 0.74,-0.186 0.185,-1.295 0,-2.035 -0.185,-0.74 -0.185,-1.851 0.37,-3.146 0.555,-1.295 1.295,-2.959 1.295,-2.959 l 1.665,-0.186 c 0,0 1.479,2.405 1.665,2.96 0.185,0.555 2.96,1.11 3.515,1.851 0.556,0.739 2.405,0.555 3.33,1.479 0.925,0.925 1.11,1.11 1.11,1.11 0,0 0.74,1.295 0.74,1.85 0,0.555 1.109,1.109 1.479,1.665 0.37,0.555 0.74,2.59 0.74,2.59 l 0.37,-1.665 c 0,0 1.295,-0.555 2.405,-0.555 1.11,0 -0.185,1.109 0.185,2.59 0.37,1.481 0.925,0.74 0.925,1.85 0,1.11 -0.185,1.295 0.555,2.405 0.74,1.11 0.186,1.295 0.926,2.22 0.74,0.926 0,2.035 0,2.035 0,0 0.37,1.48 -0.186,3.516 -0.555,2.035 -1.295,1.479 -0.74,2.22 0.556,0.739 1.666,1.11 1.295,2.96 -0.37,1.85 0,0 -0.185,0.925 -0.185,0.925 0,1.295 0.185,1.851 0.185,0.555 -1.11,1.479 -1.11,1.479 0,0 0,0 -0.37,-1.11 -0.37,-1.109 0,0 -1.48,0.74 0,0 -1.48,0.555 -2.035,1.295 -0.556,0.74 -0.37,0.926 -0.37,1.85 0,0.926 0.185,2.221 -0.186,3.146 -0.37,0.925 0,1.851 0.37,2.405 0.37,0.555 1.295,0.555 2.22,1.479 0.925,0.924 2.405,4.07 2.405,4.07 0,0 1.295,1.851 1.851,2.59 0.555,0.74 0.185,2.405 0,3.33 -0.185,0.925 1.479,0.37 2.035,0.37 0.555,0 0,2.22 0,2.22 0,0 1.11,0.556 1.665,0 0.556,-0.555 0.74,-1.479 0.74,-2.96 0,-1.479 0.185,-2.775 0.185,-2.775 h 1.109 v -1.109 l -1.109,-1.48 c 0,0 0,0 0.555,-1.109 0.555,-1.11 0.925,-1.85 1.85,-2.775 0.925,-0.925 1.481,0.926 1.851,0 0.37,-0.925 -0.37,-2.404 -0.37,-2.404 0,0 -0.37,-2.961 -0.555,-4.07 -0.185,-1.11 -0.74,-1.48 -1.11,-2.405 -0.37,-0.925 -0.186,-1.295 0.555,-2.405 0.74,-1.109 2.405,-0.74 2.405,-1.664 0,-0.926 1.11,-2.775 1.85,-3.516 0.74,-0.74 0.186,-1.295 0.556,-2.035 0.37,-0.74 -0.74,-1.479 -0.925,-2.22 -0.185,-0.741 1.11,-1.295 1.665,-2.405 0.556,-1.109 -1.109,-1.479 -1.109,-1.479 0,0 -1.295,0 -1.85,0 -0.555,0 -0.925,-1.296 -1.48,-3.146 -0.555,-1.85 -0.74,-4.439 -1.423,-4.995 -0.683,-0.555 -0.612,-0.555 -1.167,-1.479 -0.555,-0.926 0,-4.07 0.739,-5.365 0.74,-1.295 0.37,-1.48 0,-2.405 -0.37,-0.925 -1.85,-2.034 -1.85,-2.034 l -1.295,-0.926 c -0.555,-2.774 -2.22,-3.145 -2.775,-4.236 -0.555,-1.092 -1.295,-3.903 -1.295,-5.014 0,-1.109 0.37,-1.85 0,-4.07 -0.37,-2.22 -0.925,-1.85 -1.109,-2.774 -0.186,-0.925 -1.11,-1.479 -2.59,-2.405 -1.48,-0.925 -1.85,-2.774 -2.405,-3.515 -0.555,-0.74 -2.221,-0.37 -4.255,-0.74 -2.035,-0.37 -1.665,-0.37 -1.665,-0.37 0,0 -1.851,-0.369 -2.035,0.555 -0.186,0.926 0.555,2.221 0,2.035 -0.555,-0.185 -2.22,-0.185 -2.96,-0.369 -0.74,-0.186 -1.295,0.925 -2.405,1.295 -1.11,0.369 -2.015,-0.556 -2.015,-0.556 l -2.98,-0.37 -1.665,-0.185 c 0,0 -1.665,-1.479 -2.405,-1.479 -0.74,0 -1.48,0.739 -5.92,2.59 -4.44,1.85 -5.18,3.699 -5.18,3.699 l -1.11,0.37 -2.59,2.775 -1.664,0.37 -2.405,2.59 c 0,0 -1.851,1.48 -2.775,1.48 -0.925,0 -1.48,2.959 -1.48,2.959 0,0 -1.11,1.295 -1.85,1.11 l 0.93,-0.283 c 0,0 1.229,0.469 0.982,1.085 -0.247,0.617 -1.102,0.494 -0.982,1.11 0.119,0.616 0.722,1.232 -0.012,1.727 -0.733,0.493 -0.609,-1.11 -0.733,0.493 -0.123,1.604 0.123,1.727 0,2.221 -0.123,0.492 0.422,0.01 -0.036,1.051 -0.458,1.045 -0.334,-0.064 -0.458,1.045 -0.123,1.11 0.74,0.218 -0.864,1.219 -1.603,1.002 -0.246,-0.108 -1.603,1.002 -1.356,1.109 -2.343,0.059 -2.096,1.262 0.246,1.205 0.54,0.834 -0.038,1.697 -0.579,0.864 0.038,1.48 -1.195,1.234 -1.233,-0.247 -0.494,-0.617 -1.727,-1.11 -1.233,-0.493 -1.233,-0.987 -2.22,-0.247 -0.986,0.74 0,-0.246 -0.986,0.74 -0.987,0.986 -0.617,1.604 -1.233,2.097 -0.616,0.493 -1.973,1.48 -0.986,1.974 0.986,0.493 0.74,0.616 0,1.232 -0.74,0.617 -1.357,-0.355 -1.974,1.18 -0.617,1.534 -0.74,2.18 -1.727,2.412 -0.987,0.232 -1.233,-1.864 -2.714,-1.248 -1.479,0.617 -2.22,0.893 -2.959,1.248 -0.74,0.355 -0.494,0.787 -2.097,1.003 -1.604,0.216 -1.973,-0.719 -2.59,0 -0.616,0.715 -3.33,1.932 -4.193,2.864 l -1.781,0.698 -2.134,-1.122 -4.533,-2.44 -2.405,0.38 c 0,0 -2.22,-0.098 -2.74,0 -0.519,0.093 -2.718,-1.203 -3.088,-1.373 -0.37,-0.171 -4.162,-1.864 -4.44,-1.957 -0.278,-0.093 -2.066,-0.455 -2.066,-0.455 l -2.906,-0.74 0.687,0.671 2.097,2.481 c 0,0 5.704,2.821 6.167,3.438 0.462,0.617 0,1.356 0,1.728 0,0.369 -1.48,1.757 -1.48,1.757 l -0.647,1.758 0.185,2.774 c 0,0 -0.041,1.295 -1.038,1.48 -0.997,0.186 -1.675,-0.277 -3.186,0.555 -1.511,0.833 -2.344,1.295 -3.083,1.943 -0.74,0.646 -2.9,1.331 -2.653,2.746 0.248,1.416 1.008,2.988 -0.019,3.82 -1.027,0.833 -2.415,3.423 -2.415,3.423 l 1.11,3.916 0.519,1.691 0.499,1.022 c 0.617,1.603 0.37,1.479 0.987,3.083 0.616,1.603 0.74,0 0.74,3.33 0,3.329 -0.123,1.974 0,4.316 0.123,2.343 0,1.109 0,3.206 0,2.098 -0.877,2.221 0.055,3.454 0.932,1.233 -0.069,2.59 0,3.7 0.068,1.109 1.347,1.479 0.399,3.206 -0.948,1.727 -1.688,1.851 -1.194,2.96 0.493,1.11 1.358,1.48 1.542,2.837 0.185,1.356 0.431,0.863 0.678,2.837 0.247,1.973 -0.616,0.863 0,2.96 0.617,2.097 0.617,1.479 1.357,2.837 0.74,1.356 0.617,-0.494 0.74,1.356 0.123,1.85 -0.493,5.18 0,5.673 0.493,0.494 3.083,4.44 3.083,4.44 0,0 1.357,3.11 1.357,3.405 0,0.295 1.358,3.255 2.098,3.378 0.738,0.123 3.919,3.086 3.919,3.086 z"
   style="fill:#677821" />
				</g><rect
   style="fill:none;stroke:#000000;stroke-width:0.29998;stroke-linejoin:bevel;stroke-dasharray:none;paint-order:stroke fill markers"
   id="rect2"
   height="4390.293"
   x="0.19998971"
   y="0.19998971"
   ry="0.69917101"
   width="4353.8188" /></svg>
