<?xml version="1.0" encoding="UTF-8" standalone="no"?>
<!-- Generator: Adobe Illustrator 22.1.0, SVG Export Plug-In . SVG Version: 6.00 Build 0)  -->

<svg
   version="1.1"
   x="0px"
   y="0px"
   viewBox="0 0 4354.1187 4390.5933"
   enable-background="new 0 0 1995.865 2834.646"
   xml:space="preserve"
   id="svg1596"
   width="4354.1187"
   height="4390.5933"
   xmlns="http://www.w3.org/2000/svg"
   xmlns:svg="http://www.w3.org/2000/svg"><defs
   id="defs1596" />


<path
   id="Fermanagh"
   fill="#606F38"
   d="m 1720.6745,2323.3371 c -0.928,0.413 0.413,4.332 0.206,5.158 -0.206,0.825 -1.547,0.928 -2.785,1.856 -1.238,0.928 -0.104,2.476 1.031,3.403 1.135,0.929 1.547,0.826 1.341,1.651 -0.206,0.825 0.619,1.753 1.238,1.96 0.619,0.206 2.372,0.618 2.785,1.959 0.413,1.342 0.928,4.127 0.207,5.055 -0.723,0.928 0.102,1.135 0.722,3.095 0.619,1.96 -0.516,1.547 -2.063,2.476 -1.547,0.928 -1.857,0.206 -2.888,-0.207 -1.031,-0.412 -2.166,0.619 -3.095,1.135 -0.928,0.516 -3.816,1.857 -4.642,2.27 -0.825,0.413 -0.103,1.96 -1.237,2.785 -1.135,0.825 -0.31,4.642 -0.413,6.602 -0.103,1.96 -0.722,4.642 -1.753,6.602 -1.031,1.96 -1.753,3.404 -3.094,3.385 -1.341,-0.021 -2.269,0.122 -2.579,-1.012 -0.309,-1.135 0.825,-1.032 2.063,-1.238 1.237,-0.206 1.237,-0.928 0.516,-2.27 -0.723,-1.341 -0.722,-0.722 -0.206,-1.856 0.516,-1.135 0.722,-1.444 1.135,-2.682 0.413,-1.238 0.207,-0.929 -0.826,-1.96 -1.031,-1.031 -1.857,0.104 -3.197,1.444 -1.341,1.341 -1.753,2.062 -2.476,4.332 -0.722,2.27 0.722,1.96 1.753,3.197 1.032,1.237 -0.824,1.857 -1.959,2.012 -1.135,0.154 -2.27,-0.258 -2.991,-1.187 -0.723,-0.928 -0.723,-0.413 -2.167,-0.206 -1.444,0.206 -1.444,0.825 -2.888,0.516 -1.444,-0.31 0.206,-1.237 0.825,-1.856 0.619,-0.619 1.237,-1.032 0.516,-1.444 -0.723,-0.413 -1.857,0 -3.095,0.412 -1.237,0.413 -2.166,0 -2.27,-0.928 -0.102,-0.929 0.929,-1.341 1.857,-2.063 0.928,-0.723 -0.207,-0.722 -1.444,-0.516 -1.238,0.206 -2.269,0.619 -3.507,1.238 -1.238,0.619 -2.579,1.753 -3.404,3.301 -0.825,1.547 -1.444,2.372 -2.579,2.682 -1.135,0.309 -2.476,-0.825 -3.919,-1.65 -1.444,-0.825 -2.167,-0.929 -3.198,0 -1.031,0.929 -1.547,0.516 -2.682,0 -1.135,-0.516 -1.857,-2.27 -2.682,-2.476 -0.826,-0.206 -2.682,-0.516 -3.817,-1.341 -1.135,-0.826 -2.166,-3.095 -2.166,-3.816 0,-0.723 -1.444,-1.754 -2.269,-2.785 -0.826,-1.031 -1.96,-1.857 -3.198,-1.65 -1.237,0.206 -1.547,-0.516 -1.753,-1.238 -0.206,-0.722 -0.928,-3.507 -1.96,-3.79 -1.031,-0.283 -4.642,-0.13 -5.776,-0.011 -1.135,0.119 -3.404,-0.841 -4.435,-0.738 -1.032,0.104 -5.88,0.517 -7.118,0.723 -1.238,0.206 -3.198,-1.65 -4.435,-2.682 -1.238,-1.032 -1.134,-3.198 -1.134,-3.816 0,-0.619 -0.31,-3.817 -0.31,-4.849 0,-1.032 -1.341,-4.229 -1.135,-5.982 0.206,-1.754 -0.722,-3.714 -1.547,-4.122 -0.826,-0.407 -1.341,-0.623 -2.269,-0.313 -0.929,0.31 -1.96,0.516 -2.167,0 -0.207,-0.517 -1.857,-1.135 -3.404,-1.237 -1.547,-0.104 -2.166,-0.93 -2.579,-1.857 -0.412,-0.928 -1.237,-3.507 -2.269,-5.261 -1.032,-1.753 -2.682,-2.372 -2.888,-3.095 -0.206,-0.722 -0.104,-2.372 -0.825,-2.888 -0.723,-0.516 -3.507,-0.413 -5.055,-0.619 -1.547,-0.206 -3.095,-4.022 -3.816,-5.261 -0.722,-1.237 -3.713,-5.054 -5.055,-6.602 -1.341,-1.547 -6.189,-4.848 -6.498,-5.673 -0.309,-0.825 0.722,-2.579 0.928,-3.301 0.207,-0.722 -1.547,-1.548 -2.372,-2.166 -0.825,-0.619 -0.928,-0.929 0,-1.65 0.929,-0.722 2.579,0 4.642,0 2.064,0 3.095,-0.825 3.095,-0.825 0,0 2.682,-2.477 3.198,-3.198 0.516,-0.722 4.642,0.206 5.673,0 1.031,-0.206 0.516,-2.166 0.928,-3.61 0.413,-1.443 1.135,-3.609 1.857,-5.054 0.722,-1.444 1.96,-4.126 3.197,-4.642 1.238,-0.516 3.61,-0.104 4.849,0.516 1.237,0.619 3.713,1.65 4.848,1.771 1.135,0.121 4.023,-0.328 5.57,-0.073 1.547,0.255 2.785,-0.255 4.332,-0.049 1.547,0.206 2.372,-0.206 3.507,-1.96 1.135,-1.754 -0.31,-2.062 0.31,-3.301 0.619,-1.237 1.238,-1.237 2.579,-2.269 1.341,-1.031 0.722,-1.651 1.134,-2.476 0.413,-0.826 1.135,-0.723 2.167,-0.929 1.031,-0.206 1.857,-0.723 2.476,-1.548 0.619,-0.824 0.825,-1.856 1.753,-2.476 0.928,-0.618 1.65,-0.516 2.682,-0.618 1.031,-0.104 3.403,-1.135 4.229,-1.548 0,0 1.831,0.89 2.448,1.458 0.617,0.567 1.233,3.158 2.22,4.145 0.987,0.986 3.805,1.4 3.978,1.283 0.173,-0.117 2.593,0.443 3.809,1.43 1.217,0.986 2.327,1.356 3.56,1.727 1.233,0.371 3.577,-0.123 4.564,0 0.987,0.123 1.973,0.971 2.589,1.78 0.617,0.81 1.234,1.057 0,1.796 -1.232,0.74 -1.85,-0.493 -2.466,1.11 -0.617,1.604 -1.356,3.206 -1.974,5.181 -0.617,1.973 -0.373,4.562 -1.79,5.426 -1.417,0.863 -3.357,2.101 -4.484,2.9 -1.126,0.8 -2.236,1.91 -2.236,1.91 0,0 0.977,2.959 1.722,3.823 0.745,0.863 0.489,0.863 0,2.097 -0.488,1.233 -1.238,0.617 0,2.467 1.238,1.85 2.905,2.74 4.184,3.031 1.279,0.291 2.583,0.403 2.851,-0.014 0.268,-0.417 0.617,-0.674 1.233,-0.798 0.617,-0.123 1.11,-0.598 1.11,0.812 0,1.408 -0.493,0.922 0.863,2.213 1.357,1.292 2.343,2.279 3.33,2.525 0.987,0.247 2.957,-0.123 4.377,-0.986 1.42,-0.863 5.613,-2.59 5.613,-2.59 0,0 2.097,-1.85 2.837,-2.96 0.74,-1.11 4.81,-0.617 6.228,0.37 1.418,0.986 2.035,1.973 2.282,2.713 0.247,0.74 -0.123,1.48 1.11,2.344 1.233,0.864 2.22,1.905 2.22,3.049 0,1.145 -0.954,2.377 -0.662,3.364 0.292,0.987 0.785,3.64 1.772,4.04 0.987,0.4 1.888,-0.03 2.793,0 0.906,0.03 3.866,0.646 4.236,1.757 0.37,1.11 -0.144,3.083 1.901,5.55 2.045,2.467 3.032,3.021 4.512,2.559 1.481,-0.462 2.467,-1.257 3.207,-1.97 0.739,-0.714 1.173,-0.101 2.203,-0.208 z"
   style="fill:#677821" /><rect
   style="fill:none;stroke:#000000;stroke-width:0.29998;stroke-linejoin:bevel;stroke-dasharray:none;paint-order:stroke fill markers"
   id="rect2"
   height="4390.293"
   x="0.19998971"
   y="0.19998971"
   ry="0.69917101"
   width="4353.8188" /></svg>
