<?xml version="1.0" encoding="UTF-8" standalone="no"?>
<!-- Generator: Adobe Illustrator 22.1.0, SVG Export Plug-In . SVG Version: 6.00 Build 0)  -->

<svg
   version="1.1"
   x="0px"
   y="0px"
   viewBox="0 0 4354.1187 4390.5933"
   enable-background="new 0 0 1995.865 2834.646"
   xml:space="preserve"
   id="svg1596"
   width="4354.1187"
   height="4390.5933"
   sodipodi:docname="Maproom-Counties12..svg"
   inkscape:version="1.3.2 (091e20e, 2023-11-25, custom)"
   xmlns:inkscape="http://www.inkscape.org/namespaces/inkscape"
   xmlns:sodipodi="http://sodipodi.sourceforge.net/DTD/sodipodi-0.dtd"
   xmlns="http://www.w3.org/2000/svg"
   xmlns:svg="http://www.w3.org/2000/svg"><sodipodi:namedview
   id="namedview1"
   pagecolor="#ffffff"
   bordercolor="#000000"
   borderopacity="0.25"
   inkscape:showpageshadow="2"
   inkscape:pageopacity="0.0"
   inkscape:pagecheckerboard="0"
   inkscape:deskcolor="#d1d1d1"
   inkscape:zoom="0.5"
   inkscape:cx="3916"
   inkscape:cy="217"
   inkscape:window-width="1920"
   inkscape:window-height="991"
   inkscape:window-x="-9"
   inkscape:window-y="-9"
   inkscape:window-maximized="1"
   inkscape:current-layer="svg1596" /><defs
   id="defs1596" />


<path
   id="Londonderry"
   fill="#606F38"
   d="m 1791.6685,2121.3041 -1.295,0.37 c 0,0 -2.405,0.925 -4.07,1.11 -1.665,0.186 -2.405,1.109 -2.405,1.109 l -1.11,1.48 c 0,0 0.555,1.665 0,2.405 -0.555,0.739 -1.85,1.11 -1.85,1.11 0,0 0.555,1.479 0,1.664 -0.555,0.186 -1.295,0.186 -2.96,-0.185 -1.665,-0.37 -1.85,-1.665 -1.85,-1.665 0,0 -12.025,0.74 -14.06,0.186 -2.035,-0.556 -6.476,-2.591 -8.511,-4.625 -2.035,-2.035 -2.59,-0.926 -2.959,-0.556 -0.37,0.37 0.555,2.59 0.555,4.255 0,1.665 -0.74,5.92 -0.74,5.92 l -1.85,4.44 -1.11,4.625 c 0,0 -1.665,0.555 -3.7,1.85 -2.035,1.296 0.185,4.995 0.37,5.55 0.185,0.556 -2.775,3.886 -2.775,3.886 l -1.11,2.22 c 0,0 -2.59,1.11 -3.885,1.665 -1.295,0.555 -6.475,0.925 -8.695,0 -2.22,-0.925 -1.48,-1.295 -1.665,-2.22 -0.186,-0.926 -0.74,-1.48 -1.979,-1.295 -1.239,0.185 -1.536,-0.556 -4.127,0.185 -2.59,0.74 -2.59,-0.185 -3.515,-0.37 -0.925,-0.185 -1.48,0.555 -1.665,1.665 -0.185,1.11 0,2.035 0,2.035 h -2.405 l -0.37,-3.33 0.045,-2.479 c 0,0 -1.413,0.677 -1.722,0.701 -0.31,0.024 -1.547,0.54 -1.856,0.952 -0.31,0.413 0.104,1.444 -0.929,1.857 -1.031,0.412 -2.476,-0.516 -3.094,0 -0.618,0.516 -0.722,1.548 -2.063,1.031 0,0 -0.928,-0.619 -1.856,-0.619 -0.929,0 -1.857,0.828 -2.683,1.601 -0.826,0.773 -2.269,2.526 -2.888,3.351 -0.619,0.825 -1.547,1.237 -2.063,2.372 -0.516,1.135 -1.238,1.96 -1.341,3.198 -0.103,1.237 0.516,2.166 0,3.301 -0.516,1.135 -1.341,2.063 -1.031,3.714 0.31,1.65 -0.238,2.888 -0.067,4.538 0.171,1.65 -0.034,2.579 -0.034,2.579 0,0 0.823,-0.207 -0.414,0 h 0.414 l 4.378,2.764 c 0,0 0.72,0.925 1.239,2.774 0.519,1.851 -0.127,2.22 1.537,2.868 1.664,0.647 4.254,0.832 4.994,0 0.74,-0.833 2.035,-1.665 3.053,-1.758 1.018,-0.093 4.347,0.74 4.347,0.74 0,0 1.295,0.559 0.832,1.574 -0.462,1.016 -1.85,1.848 -1.665,2.773 0.185,0.925 0.277,2.498 1.018,2.544 0.74,0.046 2.59,-0.231 3.885,-0.509 1.295,-0.278 3.7,0.094 4.533,0.509 0.833,0.415 -0.185,1.433 0,1.988 0.185,0.555 -0.076,1.572 0.333,2.683 0.407,1.109 0.777,2.96 2.072,3.237 1.295,0.277 2.946,0 2.946,0 0,0 0.939,-0.925 1.217,-0.556 0.277,0.371 -0.278,1.573 0.832,2.405 1.11,0.833 2.035,2.035 3.146,3.053 1.109,1.018 3.052,1.638 3.145,2.622 0.093,0.985 0.463,1.263 2.405,1.633 1.942,0.37 3.052,0.463 4.995,0 1.942,-0.463 3.792,-1.508 4.902,-1.633 1.11,-0.125 0.832,-1.203 2.59,-1.496 1.758,-0.293 2.405,0.201 4.255,0 1.85,-0.201 2.868,-0.725 3.885,0 1.017,0.725 2.293,1.649 2.257,2.204 -0.037,0.555 0.684,1.665 0,2.867 -0.684,1.203 -0.481,1.942 0.296,2.868 0.776,0.925 1.239,2.578 0.869,2.815 -0.37,0.237 -1.572,0.422 -2.22,1.347 -0.647,0.925 -1.203,1.572 -0.37,2.312 0.832,0.74 2.72,1.572 2.72,1.572 h 1.073 c 0,0 2.045,0.602 2.618,0.719 0.573,0.116 1.361,0.139 1.361,0.139 0,0 0.095,0.079 0,1.138 -0.094,1.058 -0.377,2.907 0.042,3.37 0.419,0.463 0.604,0.832 1.437,0.555 0.832,-0.277 2.96,-1.202 3.422,-1.018 0.462,0.186 0.462,1.943 0.925,2.775 0.462,0.832 1.942,2.683 2.312,3.607 0.37,0.925 1.85,1.48 2.682,2.128 0.832,0.647 1.388,2.59 1.757,3.329 0.37,0.74 0.463,1.389 1.665,2.405 1.203,1.018 2.405,1.48 3.885,2.96 1.48,1.48 2.59,2.221 3.052,3.146 0.463,0.925 0.555,1.572 0,2.128 -0.555,0.555 -1.018,1.295 -0.462,2.127 l 0.648,1.572 c 2.774,-0.555 0,0 2.96,-0.37 2.96,-0.37 2.59,0.186 5.92,0 3.33,-0.185 0,0 0.555,-1.85 0.555,-1.851 0,0 1.665,-1.665 1.665,-1.665 0,0 1.11,-1.665 1.109,-1.665 0,0 0.975,-1.616 0.975,-1.617 0.69,0.506 2.17,-0.11 1.48,-0.616 1.665,-1.233 3.33,-0.309 1.665,0.925 0,0 2.775,0.185 2.774,0.186 0,0 1.665,-0.924 1.665,-0.926 1.606,-1.633 1.418,-2.221 l 3.762,-1.018 3.24,-16.569 0.715,-2.546 0.67,-1.697 0.508,-1.975 c 0,0 -1.525,-1.367 -2.266,-1.962 -0.74,-0.596 -0.555,-2.631 -0.37,-4.296 0.185,-1.665 1.532,-2.693 1.532,-2.693 l 1.104,-0.803 c 0,0 -0.631,-2.331 -0.878,-3.07 -0.247,-0.74 -0.863,-2.221 -0.986,-2.714 -0.123,-0.494 -0.771,-3.7 -0.771,-3.7 0,0 -0.833,-2.714 -1.449,-3.577 -0.616,-0.863 -0.617,-2.713 -0.863,-3.083 -0.247,-0.37 -0.74,-2.467 -0.74,-3.453 0,-0.987 -0.864,-2.097 -0.864,-2.714 0,-0.616 0.37,-1.85 0,-3.083 -0.37,-1.233 -1.603,-2.714 -2.343,-4.07 -0.74,-1.355 -1.85,-1.973 -2.59,-3.33 -0.74,-1.355 -0.493,-1.479 -0.73,-2.836 -0.237,-1.357 -0.133,-1.728 -0.01,-2.344 0.123,-0.616 -0.986,-0.123 -1.973,-0.863 -0.987,-0.74 -1.48,-2.467 -1.85,-3.946 -0.37,-1.48 -0.493,-2.467 -0.247,-3.084 0.247,-0.616 0.617,-2.097 0.863,-3.946 0.247,-1.85 -0.37,-2.714 -0.986,-4.132 -0.616,-1.418 0,-2.158 0,-2.651 0,-0.494 -0.863,-2.221 -0.863,-2.221 0,0 -1.727,-1.356 -2.343,-2.22 l -0.628,-1.021 c 0,0 1.43,-1.754 1.8,-2.047 0.37,-0.293 2.128,-1.311 2.683,-3.161 0.555,-1.85 0.925,-4.532 0.925,-5.642 0,-1.11 0.093,-3.979 -1.803,-6.753 -1.897,-2.775 -4.857,-6.383 -6.244,-7.4 -1.391,-1.014 -4.073,-3.696 -4.073,-3.696 z"
   style="fill:#677821"
   inkscape:label="Londonderry" /><rect
   style="fill:none;stroke:#000000;stroke-width:0.29998;stroke-linejoin:bevel;stroke-dasharray:none;paint-order:stroke fill markers"
   id="rect2"
   height="4390.293"
   x="0.19998971"
   y="0.19998971"
   ry="0.69917101"
   width="4353.8188" /></svg>
