<?xml version="1.0" encoding="UTF-8" standalone="no"?>
<!-- Generator: Adobe Illustrator 22.1.0, SVG Export Plug-In . SVG Version: 6.00 Build 0)  -->

<svg
   version="1.1"
   x="0px"
   y="0px"
   viewBox="0 0 4354.1187 4390.5933"
   enable-background="new 0 0 1995.865 2834.646"
   xml:space="preserve"
   id="svg1596"
   width="4354.1187"
   height="4390.5933"
   xmlns="http://www.w3.org/2000/svg"
   xmlns:svg="http://www.w3.org/2000/svg"><defs
   id="defs1596" />


<path
   id="Tyrone"
   fill="#4B5A26"
   d="m 1819.0335,2269.3041 -5.535,-24.697 -3.762,1.018 c 0.188,0.588 0.247,1.295 -1.418,2.221 -1.665,0.924 1.109,1.109 -1.665,0.924 -2.775,-0.185 -1.11,0.74 -2.775,-0.185 -1.665,-0.925 -1.85,-0.308 -3.33,0.309 -1.479,0.616 -1.195,-1.507 -2.17,0.11 -0.975,1.616 0.135,-0.049 -0.975,1.616 -1.11,1.665 0.555,0 -1.11,1.665 -1.665,1.665 -1.11,-0.186 -1.665,1.665 -0.555,1.85 2.775,1.665 -0.555,1.85 -3.33,0.186 -2.96,-0.37 -5.92,0 -2.96,0.37 -0.186,-0.185 -2.96,0.37 l -0.648,-1.572 c -0.556,-0.832 -0.093,-1.572 0.462,-2.127 0.555,-0.556 0.463,-1.203 0,-2.128 -0.462,-0.925 -1.572,-1.665 -3.052,-3.146 -1.48,-1.479 -2.683,-1.942 -3.885,-2.96 -1.202,-1.017 -1.295,-1.665 -1.665,-2.405 -0.37,-0.739 -0.925,-2.682 -1.757,-3.329 -0.833,-0.647 -2.312,-1.203 -2.682,-2.128 -0.37,-0.925 -1.851,-2.775 -2.312,-3.607 -0.463,-0.832 -0.463,-2.59 -0.925,-2.775 -0.462,-0.185 -2.59,0.74 -3.422,1.018 -0.833,0.277 -1.018,-0.092 -1.437,-0.555 -0.419,-0.463 -0.136,-2.312 -0.042,-3.37 0.095,-1.059 0,-1.138 0,-1.138 0,0 -0.788,-0.022 -1.361,-0.139 -0.573,-0.117 -2.618,-0.719 -2.618,-0.719 h -1.073 c 0,0 -1.888,-0.832 -2.72,-1.572 -0.833,-0.74 -0.277,-1.388 0.37,-2.312 0.648,-0.925 1.85,-1.109 2.22,-1.347 0.37,-0.237 -0.093,-1.891 -0.869,-2.815 -0.777,-0.926 -0.981,-1.665 -0.296,-2.868 0.684,-1.202 -0.037,-2.312 0,-2.867 0.037,-0.555 -1.24,-1.479 -2.257,-2.204 -1.018,-0.725 -2.035,-0.201 -3.885,0 -1.85,0.201 -2.497,-0.293 -4.255,0 -1.758,0.293 -1.48,1.371 -2.59,1.496 -1.11,0.125 -2.96,1.17 -4.902,1.633 -1.943,0.463 -3.053,0.37 -4.995,0 -1.942,-0.37 -2.312,-0.647 -2.405,-1.633 -0.092,-0.984 -2.035,-1.604 -3.145,-2.622 -1.11,-1.018 -2.035,-2.22 -3.146,-3.053 -1.11,-0.832 -0.555,-2.034 -0.832,-2.405 -0.278,-0.369 -1.217,0.556 -1.217,0.556 0,0 -1.651,0.277 -2.946,0 -1.295,-0.277 -1.665,-2.128 -2.072,-3.237 -0.408,-1.11 -0.147,-2.128 -0.333,-2.683 -0.185,-0.556 0.833,-1.573 0,-1.988 -0.833,-0.415 -3.238,-0.787 -4.533,-0.509 -1.295,0.277 -3.144,0.555 -3.885,0.509 -0.74,-0.046 -0.833,-1.619 -1.018,-2.544 -0.185,-0.926 1.203,-1.758 1.665,-2.773 0.463,-1.016 -0.832,-1.574 -0.832,-1.574 0,0 -3.33,-0.833 -4.347,-0.74 -1.018,0.093 -2.312,0.925 -3.053,1.758 -0.74,0.832 -3.33,0.647 -4.994,0 -1.664,-0.648 -1.018,-1.018 -1.537,-2.868 -0.519,-1.85 -1.239,-2.774 -1.239,-2.774 l -4.378,-2.764 c 0,0 0.823,-0.207 -0.414,0 -1.238,0.206 -2.27,-0.207 -3.507,0.825 -1.238,1.031 -1.959,0.618 -2.166,2.166 -0.206,1.547 -0.206,2.062 0,4.126 0.207,2.062 -0.722,3.301 -0.155,4.951 0.567,1.65 1.03,1.238 1.108,3.713 0.079,2.476 -0.5,0.619 -1.294,3.611 -0.793,2.991 -1,5.054 -1.412,5.569 -0.413,0.517 -11.037,10.521 -11.037,10.521 0,0 0.103,1.753 0,4.229 -0.103,2.476 -0.619,4.642 0,5.57 0.619,0.928 2.166,1.855 0.619,2.475 -1.548,0.619 -1.238,0.825 -2.889,0 -1.65,-0.824 -0.825,-1.237 -2.682,-0.722 -1.857,0.516 -2.476,1.238 -4.745,0.206 -2.269,-1.031 -2.579,-1.443 -4.333,0 -1.753,1.444 -2.889,2.889 -4.023,3.302 -1.135,0.413 -3.507,1.444 -4.951,1.96 -1.444,0.516 -0.31,0.516 -2.476,2.372 -2.166,1.856 -2.166,2.683 -4.126,1.65 -1.96,-1.031 -0.516,-2.682 -2.579,-2.991 -2.063,-0.31 -2.888,0.104 -3.61,-1.443 -0.722,-1.548 -2.269,-2.683 -4.023,-1.445 -1.754,1.238 -3.198,2.373 -3.817,3.714 -0.619,1.341 -0.825,2.137 -1.959,2.616 -1.135,0.479 -2.785,0.169 -3.404,0.994 -0.619,0.825 0.206,1.342 0.516,2.579 0.31,1.237 -0.861,1.237 -0.74,3.197 0.122,1.96 1.05,3.713 3.422,4.332 2.373,0.619 3.198,1.032 3.507,2.476 0.31,1.444 0,2.889 2.062,3.095 2.064,0.206 3.404,-1.753 4.126,-1.753 0.723,0 2.579,1.34 4.126,2.682 1.547,1.341 4.229,2.062 5.364,1.856 1.135,-0.206 3.197,-2.372 4.229,-2.269 1.032,0.103 1.651,0.894 1.753,2.303 0.104,1.41 0.516,2.235 -0.309,2.647 0,0 1.831,0.89 2.448,1.458 0.617,0.567 1.233,3.158 2.22,4.145 0.987,0.986 3.805,1.4 3.978,1.283 0.173,-0.117 2.593,0.443 3.809,1.43 1.217,0.986 2.327,1.356 3.56,1.727 1.233,0.371 3.577,-0.123 4.564,0 0.987,0.123 1.973,0.971 2.589,1.78 0.617,0.81 1.234,1.057 0,1.796 -1.232,0.74 -1.85,-0.493 -2.466,1.11 -0.617,1.604 -1.356,3.206 -1.974,5.181 -0.617,1.973 -0.373,4.562 -1.79,5.426 -1.417,0.863 -3.357,2.101 -4.484,2.9 -1.126,0.8 -2.236,1.91 -2.236,1.91 0,0 0.977,2.959 1.722,3.823 0.745,0.863 0.489,0.863 0,2.097 -0.488,1.233 -1.238,0.617 0,2.467 1.238,1.85 2.905,2.74 4.184,3.031 1.279,0.291 2.583,0.403 2.851,-0.014 0.268,-0.417 0.617,-0.674 1.233,-0.798 0.617,-0.123 1.11,-0.598 1.11,0.812 0,1.408 -0.493,0.922 0.863,2.213 1.357,1.292 2.343,2.279 3.33,2.525 0.987,0.247 2.957,-0.123 4.377,-0.986 1.42,-0.863 5.613,-2.59 5.613,-2.59 0,0 2.097,-1.85 2.837,-2.96 0.74,-1.11 4.81,-0.617 6.228,0.37 1.418,0.986 2.035,1.973 2.282,2.713 0.247,0.74 -0.123,1.48 1.11,2.344 1.233,0.864 2.22,1.905 2.22,3.049 0,1.145 -0.954,2.377 -0.662,3.364 0.292,0.987 0.785,3.64 1.772,4.04 0.987,0.4 1.888,-0.03 2.793,0 0.906,0.03 3.866,0.646 4.236,1.757 0.37,1.11 -0.144,3.083 1.901,5.55 2.045,2.467 3.032,3.021 4.512,2.559 1.481,-0.462 2.467,-1.257 3.207,-1.97 0.74,-0.712 1.175,-0.099 2.204,-0.206 0.929,-0.412 2.889,0.413 3.714,-0.103 0.825,-0.517 2.888,-1.96 4.023,-2.889 1.135,-0.929 2.373,-0.618 2.579,-1.856 0.206,-1.238 1.444,-3.92 2.476,-4.951 1.031,-1.031 2.991,-5.261 3.301,-5.57 0.31,-0.31 2.682,-4.022 3.404,-3.92 0.722,0.104 2.062,-0.206 3.61,0.929 1.547,1.135 6.395,2.991 6.808,4.022 0.413,1.032 3.095,2.785 4.229,4.229 1.134,1.444 2.269,2.786 2.372,3.817 0.103,1.031 -0.104,2.784 0.929,2.784 1.031,0 2.372,-0.515 2.991,0.929 0.619,1.443 1.96,2.888 1.96,4.436 l -0.103,-0.754 0.995,-0.74 c 0,0 1.066,-0.099 1.528,-0.01 0.463,0.092 1.388,-0.833 2.035,-2.035 0.648,-1.203 1.388,-2.59 1.388,-2.59 0,0 0.925,-2.775 1.11,-3.422 0.185,-0.646 1.018,-1.203 1.757,-2.591 0.74,-1.388 0.74,-2.405 1.189,-3.792 0.447,-1.388 0.106,-1.388 0.015,-2.128 -0.093,-0.74 0.277,-1.758 0.385,-2.312 0.108,-0.556 1.927,-0.833 2.482,-0.74 0.555,0.093 1.78,1.758 2.96,1.604 1.18,-0.154 2.312,0.431 3.237,0.893 0.925,0.463 0.52,1.331 0.52,1.331 1.26,1.423 1.885,0.058 3.34,-1.978 1.455,-2.035 0.765,-3.33 0.266,-6.105 -0.499,-2.775 1.794,-1.665 2.904,-3.775 1.11,-2.109 1.11,-1.22 2.282,-3.439 1.172,-2.221 1.788,-0.925 2.96,-3.577 1.172,-2.652 0.678,-2.897 2.158,-4.669 1.48,-1.772 1.11,0.291 3.885,0 2.774,-0.291 1.479,-1.559 3.083,-1.182 z"
   style="fill:#677821" /><rect
   style="fill:none;stroke:#000000;stroke-width:0.29998;stroke-linejoin:bevel;stroke-dasharray:none;paint-order:stroke fill markers"
   id="rect2"
   height="4390.293"
   x="0.19998971"
   y="0.19998971"
   ry="0.69917101"
   width="4353.8188" /></svg>
