<?xml version="1.0" encoding="UTF-8" standalone="no"?>
<!-- Generator: Adobe Illustrator 22.1.0, SVG Export Plug-In . SVG Version: 6.00 Build 0)  -->

<svg
   version="1.1"
   x="0px"
   y="0px"
   viewBox="0 0 4354.1187 4390.5933"
   enable-background="new 0 0 1995.865 2834.646"
   xml:space="preserve"
   id="svg1596"
   width="4354.1187"
   height="4390.5933"
   xmlns="http://www.w3.org/2000/svg"
   xmlns:svg="http://www.w3.org/2000/svg"><defs
   id="defs1596" />


<path
   id="Blaenau_Gwent_2_"
   fill="#8D9764"
   d="m 2267.9125,2917.4591 0.593,-1.415 0.925,-2.292 c 0,0 0.185,-1.851 0.647,-2.285 0.462,-0.436 0,-2.618 0,-3.635 0,-1.018 -0.277,-2.96 -0.406,-3.423 -0.129,-0.463 -0.334,-2.312 -0.057,-3.053 0.278,-0.74 -0.555,-1.699 -0.555,-1.699 l -3.103,-3.666 c 0,0 0.05,-0.369 0,-0.857 -0.05,-0.488 -0.408,-1.917 -0.408,-1.917 0,0 -1.115,-0.463 -1.3,-0.833 -0.184,-0.369 -0.739,-0.647 -0.739,-0.647 v -3.052 l -5.643,0.707 -1.942,-0.43 -3.7,0.43 -6.845,-3.383 -3.484,4.988 v 1.776 l 0.802,-0.39 c 0,0 1.496,0.874 1.951,1.316 0.454,0.441 1.317,1.027 1.317,1.027 0,0 -0.031,-0.309 0.432,0.524 0.462,0.832 1.665,1.171 1.665,2.065 0,0.894 0.37,2.34 0.37,2.34 0,0 0.648,0.73 0.925,1.262 0.277,0.53 0.74,1.641 0.74,1.641 v 0.417 l 1.203,1.247 0.555,0.622 0.837,0.488 1.105,1.295 0.74,-0.647 0.451,-0.691 -0.53,-0.98 0.53,-0.918 0.937,-0.415 0.939,1.433 1.65,1.758 1.11,2.867 1.451,1.665 1.986,-0.555 1.003,0.555 v 1.295 l 1.485,1.026 1.443,2.168 c 0,0 -0.495,1.153 0,1.801 z"
   style="fill:#677821" /><rect
   style="fill:none;stroke:#000000;stroke-width:0.29998;stroke-linejoin:bevel;stroke-dasharray:none;paint-order:stroke fill markers"
   id="rect2"
   height="4390.293"
   x="0.19998971"
   y="0.19998971"
   ry="0.69917101"
   width="4353.8188" /></svg>
