<?xml version="1.0" encoding="UTF-8" standalone="no"?>
<!-- Generator: Adobe Illustrator 22.1.0, SVG Export Plug-In . SVG Version: 6.00 Build 0)  -->

<svg
   version="1.1"
   x="0px"
   y="0px"
   viewBox="0 0 4354.1187 4390.5933"
   enable-background="new 0 0 1995.865 2834.646"
   xml:space="preserve"
   id="svg1596"
   width="4354.1187"
   height="4390.5933"
   xmlns="http://www.w3.org/2000/svg"
   xmlns:svg="http://www.w3.org/2000/svg"><defs
   id="defs1596" />


<path
   id="Bridgend__x2F__Pen-y-Bont_ar_Ogwr_2_"
   fill="#606F38"
   d="m 2197.9935,2964.1021 2.131,-1.702 1.443,-1.073 1.154,-0.447 2.052,-0.601 1.439,-0.556 1.645,-0.739 h 2.004 l 1.203,0.832 0.925,-1.307 2.213,-1.19 2.689,-1.758 2.59,-3.828 1.078,-2.185 1.05,-1.267 v -1.23 l -0.557,-1.85 -1.2,-2.683 -0.185,-0.74 -0.016,-0.956 c 0,0 0.741,-0.165 0.825,-0.992 0.084,-0.827 0.128,-1.565 0.128,-1.565 l 0.375,-1.57 c 0,0 0.446,-0.253 0.013,-0.761 -0.432,-0.507 -2.774,-1.864 -2.774,-1.864 l -0.884,-0.765 -0.596,-1.085 -1.418,-2.004 -1.117,-1.48 -2.491,-2.59 -1.909,-0.581 h -1.944 v 0.674 h -2.621 l -1.665,0.787 -3.7,-0.88 -4.625,-0.531 -2.177,4.111 v 1.692 l 0.512,1.758 -0.512,1.388 -1.615,0.925 -0.093,2.775 1.708,1.986 1.385,1.528 c 0,0 1.36,1.202 1.308,1.85 -0.052,0.648 0,2.29 0,2.29 v 1.965 l -1.995,0.926 -2.59,1.387 h -1.48 l -1.572,-0.647 -3.7,-0.185 -2.683,-0.049 c 0.925,1.295 0.093,2.824 0.833,4.119 0.74,1.295 0.555,1.85 0.555,2.59 0,0.74 1.85,1.665 2.59,2.035 0.74,0.369 1.11,2.774 1.48,3.699 0.37,0.926 2.405,0.556 4.255,0.37 1.85,-0.185 1.665,-0.555 2.96,-0.925 1.295,-0.37 1.85,0.37 2.775,1.295 0.925,0.925 0.801,0.784 0.801,1.604 z"
   style="fill:#677821" /><rect
   style="fill:none;stroke:#000000;stroke-width:0.29998;stroke-linejoin:bevel;stroke-dasharray:none;paint-order:stroke fill markers"
   id="rect2"
   height="4390.293"
   x="0.19998971"
   y="0.19998971"
   ry="0.69917101"
   width="4353.8188" /></svg>
