<?xml version="1.0" encoding="UTF-8" standalone="no"?>
<!-- Generator: Adobe Illustrator 22.1.0, SVG Export Plug-In . SVG Version: 6.00 Build 0)  -->

<svg
   version="1.1"
   x="0px"
   y="0px"
   viewBox="0 0 4354.1187 4390.5933"
   enable-background="new 0 0 1995.865 2834.646"
   xml:space="preserve"
   id="svg1596"
   width="4354.1187"
   height="4390.5933"
   xmlns="http://www.w3.org/2000/svg"
   xmlns:svg="http://www.w3.org/2000/svg"><defs
   id="defs1596" />


<path
   id="Caerphilly__x2F__Caerffili_2_"
   fill="#8D9764"
   d="m 2239.0025,2893.4941 c 0,0 0.829,0.463 1.568,0 0.74,-0.462 2.128,-1.11 2.128,-1.11 0,0 1.496,0.874 1.951,1.316 0.454,0.441 1.317,1.027 1.317,1.027 0,0 -0.031,-0.309 0.432,0.524 0.462,0.832 1.665,1.171 1.665,2.065 0,0.894 0.37,2.34 0.37,2.34 0,0 0.648,0.73 0.925,1.262 0.277,0.53 0.74,1.641 0.74,1.641 v 0.417 l 1.203,1.247 0.555,0.622 0.837,0.488 1.105,1.295 0.74,-0.647 0.451,-0.691 -0.53,-0.98 0.53,-0.918 0.937,-0.415 0.939,1.433 1.65,1.758 1.11,2.867 1.451,1.665 1.986,-0.555 1.003,0.555 v 1.295 l 1.485,1.026 1.443,2.168 c 0,0 -0.495,1.153 0,1.801 0.495,0.648 2.067,0.555 2.067,0.555 l 1.942,0.01 c 0,0 0.833,-0.837 1.758,-0.375 0.925,0.463 1.757,0.833 1.757,1.48 0,0.647 0.186,2.59 0,3.33 -0.185,0.739 -0.832,2.563 -0.832,2.563 l -1.853,2.07 c 0,0 -0.553,0.576 -0.553,1.116 0,0.54 0.193,1.835 0.929,2.39 0.736,0.555 1.014,2.097 1.014,2.097 l 0.833,1.141 1.572,0.833 v 1.205 l -1.665,0.535 -0.921,0.726 -1.669,0.479 h -1.388 l -1.85,-0.448 -0.696,0.448 -0.641,0.8 1.374,1.196 c 0,0 0.561,0.512 1.187,0.846 0.626,0.333 1.259,0.682 1.517,0.838 0.259,0.156 1.005,0.49 0.957,0.96 -0.048,0.47 -0.117,0.97 -0.213,1.418 -0.097,0.448 -0.368,1.211 -0.832,1.637 -0.464,0.426 -1.31,1.244 -1.31,1.244 h -2.039 c 0,0 -1.155,-0.414 -1.482,-0.691 -0.327,-0.277 -2.725,-0.925 -3.492,-0.925 -0.767,0 -2.143,0 -2.143,0 0,0 -2.732,0.555 -3.01,0.925 -0.278,0.37 -2.498,0.532 -2.498,0.532 l -2.59,0.159 v -1.616 l -0.555,-1.388 c 0,0 -0.556,-1.665 -0.648,-2.035 -0.092,-0.37 -2.775,-2.774 -2.775,-2.774 h -2.282 l -1.317,-2.33 -0.749,-2.11 v -1.604 -3.206 l -0.626,-1.28 -0.607,-1.192 -0.154,-0.303 -0.616,-1.172 0.315,-0.52 1.062,-0.583 h 0.441 l 1.479,-1.148 0.771,-1.757 v -1.665 c 0,0 0.801,-1.018 1.079,-1.573 0.277,-0.555 0,-2.59 0,-2.59 l -1.758,-4.532 -1.203,-3.7 h -2.189 v -2.312 l -1.696,-2.827 z"
   style="fill:#677821" /><rect
   style="fill:none;stroke:#000000;stroke-width:0.29998;stroke-linejoin:bevel;stroke-dasharray:none;paint-order:stroke fill markers"
   id="rect2"
   height="4390.293"
   x="0.19998971"
   y="0.19998971"
   ry="0.69917101"
   width="4353.8188" /></svg>
