<?xml version="1.0" encoding="UTF-8" standalone="no"?>
<!-- Generator: Adobe Illustrator 22.1.0, SVG Export Plug-In . SVG Version: 6.00 Build 0)  -->

<svg
   version="1.1"
   x="0px"
   y="0px"
   viewBox="0 0 4354.1187 4390.5933"
   enable-background="new 0 0 1995.865 2834.646"
   xml:space="preserve"
   id="svg1596"
   width="4354.1187"
   height="4390.5933"
   xmlns="http://www.w3.org/2000/svg"
   xmlns:svg="http://www.w3.org/2000/svg"><defs
   id="defs1596" />


<path
   id="Cardiff__x2F__Caerdydd_2_"
   fill="#303B09"
   d="m 2260.3235,2967.1651 c 0,0 -0.096,-0.534 -0.05,-1.521 0.043,-0.942 0.185,-1.48 1.295,-1.665 1.109,-0.186 0,1.479 0.739,2.404 0.74,0.926 1.11,0.37 2.035,0 0.925,-0.369 1.295,-1.295 1.665,-2.59 0.37,-1.295 -0.185,-1.109 0.186,-2.404 0.37,-1.295 0.925,-0.556 0.925,-2.405 0,-1.851 0,0 1.109,-0.186 1.11,-0.185 2.221,-0.37 3.516,-0.555 1.295,-0.185 1.665,-2.22 2.405,-2.59 l -0.648,-0.925 1.018,-1.449 c 0,0 0,-0.494 0,-1.049 0,-0.555 -0.739,-1.479 -1.202,-2.035 -0.462,-0.555 -1.48,-2.127 -1.482,-2.22 0,-0.093 -1.57,-1.898 -1.57,-1.898 h -2.823 c 0,0 -1.155,-0.414 -1.482,-0.691 -0.327,-0.277 -2.725,-0.925 -3.492,-0.925 -0.767,0 -2.143,0 -2.143,0 0,0 -2.732,0.555 -3.01,0.925 -0.278,0.37 -2.498,0.532 -2.498,0.532 l -2.59,0.159 c 0,0 -1.11,1.066 -1.388,1.344 -0.278,0.278 -1.11,1.388 -1.11,1.388 l -1.607,0.011 -0.259,-1.045 -0.631,-0.446 -0.555,-1.251 c 0,0 -0.555,-0.044 -1.203,0 -0.648,0.044 -2.312,0.696 -3.577,1.158 -1.265,0.463 -2.158,1.758 -2.895,2.96 -0.735,1.203 -0.189,1.943 0.296,3.084 0.485,1.141 0.309,1.449 0.309,1.449 v 1.103 c 1.021,0.128 1.521,0.049 2.29,-0.159 0.769,-0.208 1.233,-0.389 1.233,-0.389 0,0 0.88,1.11 1.519,2.683 0.639,1.573 1.472,2.312 1.749,3.515 0.278,1.203 0.833,2.561 1.573,2.621 0.739,0.062 0.185,0.802 1.665,0.617 1.479,-0.186 1.757,-1.018 2.127,-1.203 0.37,-0.185 1.851,-0.647 1.851,-0.647 l 1.476,-0.365 1.688,1.599 c 0,0 0.089,-0.125 0.089,0.646 0,0.771 0,1.181 0,1.181 l 1.816,1.046 1.098,0.543 z"
   style="fill:#677821" /><rect
   style="fill:none;stroke:#000000;stroke-width:0.29998;stroke-linejoin:bevel;stroke-dasharray:none;paint-order:stroke fill markers"
   id="rect2"
   height="4390.293"
   x="0.19998971"
   y="0.19998971"
   ry="0.69917101"
   width="4353.8188" /></svg>
