<?xml version="1.0" encoding="UTF-8" standalone="no"?>
<!-- Generator: Adobe Illustrator 22.1.0, SVG Export Plug-In . SVG Version: 6.00 Build 0)  -->

<svg
   version="1.1"
   x="0px"
   y="0px"
   viewBox="0 0 4354.1187 4390.5933"
   enable-background="new 0 0 1995.865 2834.646"
   xml:space="preserve"
   id="svg1596"
   width="4354.1187"
   height="4390.5933"
   xmlns="http://www.w3.org/2000/svg"
   xmlns:svg="http://www.w3.org/2000/svg"><defs
   id="defs1596" />


<path
   id="Carmarthenshire__x2F__Sir_Gaerfyrddin_2_"
   fill="#8D9764"
   d="m 2182.4095,2820.6041 c 0,0 -2.303,3.206 -2.724,3.65 -0.421,0.444 -1.275,0.234 -1.275,0.234 l -1.343,-1.018 -2.241,-1.881 c 0,0 -2.613,-1.912 -4.093,-2.854 -1.48,-0.943 -3.608,-1.001 -3.608,-1.001 0,0 -2.405,2.221 -2.883,3.053 -0.479,0.833 -2.481,0.463 -2.759,0.802 -0.278,0.339 -2.128,-1.912 -3.015,-2.651 -0.887,-0.74 -2.56,0.37 -2.56,0.37 l -1.362,1.757 -2.498,2.749 c 0,0 -2.59,1.599 -3.33,2.339 -0.74,0.74 -2.774,0.093 -3.145,0 -0.371,-0.093 -1.295,-1.388 -1.942,-1.851 -0.648,-0.462 -1.734,-0.488 -1.734,-0.488 -1.604,1.479 -2.12,1.475 -4.041,2.709 -1.92,1.233 -4.122,1.356 -6.343,1.604 -2.22,0.246 -1.603,0.986 -2.96,3.083 -1.356,2.097 -1.356,2.59 -3.229,3.453 -1.872,0.864 -1.951,1.233 -3.554,1.101 -1.604,-0.133 -0.863,1.982 -2.467,1.982 -1.603,0 -0.74,1.357 -2.466,2.586 -1.727,1.229 -3.084,-0.488 -5.104,-0.859 -2.019,-0.369 -0.693,-1.233 -2.297,-1.141 -1.604,0.094 -1.11,1.265 -2.713,2 -1.604,0.736 -1.85,0 -2.961,0.621 -1.109,0.617 -1.85,1.48 -3.515,1.233 -1.665,-0.247 -1.418,-1.48 -3.021,-1.854 -1.604,-0.373 -1.727,0.251 -2.96,0 -1.233,-0.25 -2.467,0 -4.07,-1.19 -1.603,-1.194 -2.343,0.825 -4.563,0 -2.22,-0.824 -2.096,-0.038 -4.743,0 -2.646,0.035 -1.547,-0.158 -3.026,-0.806 -1.48,-0.646 -1.48,0.524 -3.039,0.771 l -0.554,0.034 c 0,0 1.372,1.353 1.372,1.538 0,0.185 0,2.312 0,2.312 l 1.11,1.541 1.758,1.049 1.295,2.577 2.312,1.678 1.018,0.463 c 0,0 1.202,2.774 0.647,4.625 -0.556,1.85 -1.48,1.695 -2.498,2.188 -1.018,0.494 -4.255,0.863 -4.255,0.863 0,0 -0.832,0.494 -1.479,0.494 -0.647,0 -1.388,0.894 -1.665,1.541 -0.277,0.648 -0.833,2.683 -1.481,2.775 -0.647,0.093 -2.127,0 -2.127,0 l -1.765,-1.363 -1.879,1.172 -1.939,1.64 -1.254,1.243 c 0,0 -1.577,-0.286 -2.227,-0.934 -0.65,-0.648 -2.222,-2.035 -2.222,-2.035 l -1.356,1.758 -1.604,1.211 h -1.908 l -1.545,1.397 v 1.091 c 0,0 -0.216,1.488 0,1.623 0.216,0.135 -0.096,1.152 -0.096,1.152 l 2.161,0.74 v 1.377 l 0.37,2.692 -0.37,1.296 0.185,0.462 v 1.988 l 0.092,1.157 -0.277,1.657 -0.81,1.395 2.863,0.37 1.802,0.37 1.479,-0.123 1.033,0.618 1.026,0.355 c 0,0 0.507,0.127 0.766,0.933 0.258,0.807 0.845,1.985 0.845,1.985 l 0.986,0.425 1.387,0.802 0.185,1.106 c 0,0 -1.11,0.937 -1.48,1.117 -0.369,0.182 -1.572,1.014 -1.572,1.014 l 0.463,1.48 -0.277,1.85 v 1.665 l 1.85,1.06 0.277,2.271 -0.277,1.388 -0.092,1.572 0.14,1.721 1.711,-0.703 c 1.665,-0.185 3.144,0.74 4.439,0.555 1.295,-0.185 2.221,-0.739 3.885,-1.11 1.665,-0.369 5.365,0.74 7.585,1.11 2.22,0.37 5.18,0.925 5.92,0.556 0.739,-0.37 1.85,-0.556 2.96,-1.851 1.11,-1.295 -0.37,-1.295 -1.48,-2.035 -1.11,-0.739 -1.295,-1.479 -2.405,-2.034 -1.11,-0.556 -0.555,-1.48 0.74,-2.775 1.295,-1.295 0,0 -0.37,-1.48 -0.37,-1.479 -1.295,-2.035 -1.295,-2.035 0,0 1.851,0.37 2.59,1.295 0.74,0.926 0.556,1.48 0.186,2.591 -0.37,1.109 0.37,1.109 1.295,1.85 0.925,0.741 1.295,0.556 2.405,0.925 1.109,0.37 1.665,0.556 2.96,-1.665 1.295,-2.22 0,0 1.295,-1.109 1.295,-1.11 0.74,-1.665 1.295,-2.591 0.555,-0.925 1.295,-1.479 1.295,-1.479 0,0 -0.185,2.59 -0.74,3.33 -0.555,0.74 -0.74,2.22 -1.295,3.885 -0.555,1.665 0.74,2.775 1.295,3.886 0.555,1.109 2.035,0.185 3.33,0.185 1.295,0 2.22,0.925 2.775,1.11 0.555,0.185 0.74,1.109 1.11,1.85 0.37,0.74 -1.85,0.37 -2.59,0 -0.74,-0.37 -1.295,-0.925 -1.295,-0.925 0,0 -1.479,0.185 -2.96,0 -1.48,-0.186 -2.22,0.185 -2.96,0.37 -0.74,0.185 1.48,1.85 1.665,2.59 0.185,0.74 2.96,4.07 3.885,4.995 0.925,0.925 4.811,4.625 6.106,4.995 1.295,0.369 1.479,0.555 2.404,0.369 0.926,-0.185 1.666,-0.185 2.591,0 0.925,0.186 -0.556,-1.479 -0.556,-1.479 0,0 0.925,-0.556 2.405,-0.74 1.48,-0.185 1.48,0 3.33,-0.925 1.85,-0.925 1.665,-0.186 3.7,0.185 2.035,0.37 1.295,-0.185 2.22,0.74 0.925,0.925 0.185,2.035 0.74,2.775 0.555,0.739 0.555,-1.851 0.555,-1.851 0,0 0.74,1.11 1.48,1.48 0.74,0.37 -0.37,1.479 -0.37,1.479 0,0 1.295,1.48 2.404,1.665 1.11,0.186 1.666,-1.109 2.775,-1.109 1.11,0 3.885,-0.74 4.625,-0.74 l 0.978,0.25 c 0,0 1.428,-1.422 1.428,-2.008 0,-0.586 -0.148,-1.807 -0.346,-2.278 -0.198,-0.472 -0.395,-1.001 0.346,-1.534 0.74,-0.533 2.553,-2.357 2.714,-2.693 0.161,-0.336 0.544,-0.49 0.642,-1.725 0.098,-1.235 0.036,-2.595 0.325,-3.428 0.29,-0.833 1.932,-2.999 3,-4.326 1.069,-1.328 2.113,-2.694 2.394,-3.25 0.281,-0.555 0.679,-2.058 0.827,-2.594 0.147,-0.537 1.383,0.093 1.66,0 0.277,-0.094 1.665,1.386 1.665,1.386 0,0 1.757,0.556 2.405,0.277 0.647,-0.277 2.22,-1.026 2.59,-1.16 0.37,-0.135 1.757,0 1.757,0 l -0.795,-0.053 1.073,-0.67 h 1.203 l 2.312,0.67 1.388,0.053 0.555,-1.214 v -2.065 l -0.925,-1.758 -0.556,-1.942 0.188,-0.76 1.293,-0.093 1.803,-0.275 1.47,-0.167 1.166,-0.188 1.583,0.526 2.117,0.863 1.388,0.37 1.018,0.925 0.72,1.249 -0.309,-0.764 0.309,-1.225 c 0.761,-2.098 0.678,-0.864 1.768,-2.467 1.09,-1.604 0.967,-2.391 1.213,-3.539 0.247,-1.148 -0.37,-2.258 0.863,-3.738 0,0 1.356,-2.004 2.467,-2.744 1.11,-0.74 3.052,-2.59 3.885,-4.162 0.833,-1.572 1.572,-2.22 1.572,-3.7 0,-1.479 0.186,-1.942 -0.462,-2.867 -0.648,-0.925 -0.74,-1.942 -0.648,-2.868 0.092,-0.925 0.462,-2.312 0.462,-2.312 l 0.093,-2.034 1.85,-1.6 -0.555,-0.415 c 0,0 0,-1.823 0.093,-2.032 0.092,-0.208 0.462,-2.059 0.462,-2.059 l 1.203,-1.572 0.37,-1.365 h -0.748 c 0,0 0.378,-1.04 0.748,-1.503 0.37,-0.462 1.381,-1.202 2.17,-2.22 0.79,-1.018 1.424,-1.251 1.385,-2.521 -0.04,-1.271 -0.873,-2.196 -0.873,-2.196 0,0 0.175,-1.146 0.874,-1.868 0.699,-0.722 1.624,-1.897 1.624,-1.897 0,0 1.295,-0.396 0.647,-1.229 -0.647,-0.833 -1.956,-2.128 -2.272,-2.405 -0.317,-0.277 -1.249,-0.277 -1.385,-0.74 -0.135,-0.462 -0.327,-1.534 0,-2.201 0.327,-0.666 -0.783,-1.961 -0.783,-1.961 l -2.96,-1.573 c 0,0 -1.295,-0.369 -2.035,-1.202 -0.74,-0.832 -1.813,-0.555 -0.86,-1.572 0.952,-1.018 1.989,-1.851 1.563,-2.775 -0.426,-0.924 -1.782,-1.942 -2.584,-2.59 -0.803,-0.65 -3.002,-1.482 -3.002,-1.482 z"
   style="fill:#677821" /><rect
   style="fill:none;stroke:#000000;stroke-width:0.29998;stroke-linejoin:bevel;stroke-dasharray:none;paint-order:stroke fill markers"
   id="rect2"
   height="4390.293"
   x="0.19998971"
   y="0.19998971"
   ry="0.69917101"
   width="4353.8188" /></svg>
