<?xml version="1.0" encoding="UTF-8" standalone="no"?>
<!-- Generator: Adobe Illustrator 22.1.0, SVG Export Plug-In . SVG Version: 6.00 Build 0)  -->

<svg
   version="1.1"
   x="0px"
   y="0px"
   viewBox="0 0 4354.1187 4390.5933"
   enable-background="new 0 0 1995.865 2834.646"
   xml:space="preserve"
   id="svg1596"
   width="4354.1187"
   height="4390.5933"
   xmlns="http://www.w3.org/2000/svg"
   xmlns:svg="http://www.w3.org/2000/svg"><defs
   id="defs1596" />


<path
   id="Ceredigion_2_"
   fill="#4B5A26"
   d="m 2157.2275,2725.6991 c 0.556,0.925 -1.665,1.11 -2.96,1.85 -1.294,0.74 -1.294,2.035 -2.774,2.405 -1.48,0.37 -1.48,1.665 -2.96,2.405 -1.48,0.739 -1.48,0.925 -4.255,0.739 -2.775,-0.185 0,0 -0.555,-0.555 -0.555,-0.555 -0.74,-1.295 -1.48,-1.479 -0.74,-0.186 -0.555,1.109 -0.74,1.665 -0.185,0.555 0.555,2.22 0.74,3.699 0.185,1.48 0,2.405 -0.186,3.886 -0.185,1.479 0,2.22 -0.925,3.33 -0.925,1.109 -0.555,1.479 -1.11,2.774 -0.555,1.295 -1.11,4.255 -1.48,5.735 -0.37,1.479 0,1.665 -0.925,2.96 -0.925,1.295 0,1.665 -0.555,2.405 -0.555,0.739 0.185,2.59 0,4.255 -0.185,1.665 -1.295,2.035 -2.035,3.145 -0.74,1.11 -1.11,3.885 -1.851,6.105 -0.74,2.22 -0.185,2.035 -1.109,3.33 -0.925,1.295 -0.74,1.665 -0.925,2.96 -0.185,1.295 -0.925,1.295 -2.035,2.22 -1.11,0.925 -1.48,2.035 -1.85,3.7 -0.37,1.665 -1.85,0.925 -2.59,1.295 -0.74,0.37 -0.74,2.22 -1.85,3.515 -1.11,1.295 -1.48,2.96 -2.591,3.7 -1.109,0.74 -2.96,2.035 -4.44,2.035 -1.48,0 -2.22,0.925 -2.775,1.665 -0.555,0.74 -1.85,1.85 -3.144,2.59 -1.295,0.74 -2.405,2.775 -3.885,3.33 -1.48,0.555 -1.665,0.37 -2.775,0.555 -1.11,0.186 -1.295,0.186 -2.59,-1.109 -1.295,-1.295 0,0 -1.481,0.369 -1.479,0.37 -1.479,0.74 -1.85,1.851 -0.371,1.111 -0.74,2.035 -2.035,2.774 -1.295,0.74 -2.035,2.035 -2.775,2.405 -0.739,0.37 -2.034,1.11 -2.404,1.851 -0.37,0.739 -1.11,1.109 -2.59,0.925 -1.48,-0.186 -0.926,0.37 -1.11,1.479 -0.185,1.11 -0.925,0.926 -2.405,2.035 -1.479,1.11 -0.185,1.665 -1.479,2.59 -1.295,0.926 -2.96,1.48 -4.07,1.665 -1.11,0.186 -1.85,0 -2.775,0 -0.925,0 -0.925,-1.109 -0.74,-1.665 0.185,-0.555 -1.48,-0.369 -2.775,0.186 -1.295,0.555 -1.48,0.925 -2.775,0.925 -1.295,0 -2.405,0 -4.625,0.37 -2.22,0.37 -2.59,0.74 -3.515,1.109 -0.925,0.37 -3.144,0.37 -4.07,0.556 -0.925,0.185 -0.555,1.11 -0.185,2.59 0.37,1.479 0.185,1.665 1.11,2.035 0.925,0.37 0.555,1.85 0.555,2.59 0,0.74 -1.11,1.85 -1.11,1.85 l 0.124,-0.13 c 0,0 0.04,0.888 0.863,1.179 l -0.432,0.802 -0.56,0.832 c 0,0 -0.146,0.37 -0.81,0.833 -0.665,0.462 -1.775,0.647 -1.312,1.295 0.462,0.647 3.515,0.925 3.515,0.925 h 1.942 l 0.373,-4.077 0.738,0.377 c 1.233,0.863 0.74,0.987 1.85,2.96 1.11,1.974 0.247,2.713 1.974,2.837 1.727,0.123 1.413,-1.851 3.852,-1.233 2.438,0.617 3.426,0.135 3.672,1.239 0.247,1.104 0.092,1.851 0.971,2.002 l 0.554,-0.034 c 1.558,-0.247 1.558,-1.418 3.039,-0.771 1.479,0.647 0.38,0.841 3.026,0.806 2.647,-0.034 2.523,-0.82 4.743,0 2.22,0.825 2.96,-1.194 4.563,0 1.603,1.194 2.837,0.94 4.07,1.19 1.233,0.251 1.357,-0.373 2.96,0 1.603,0.374 1.356,1.607 3.021,1.854 1.665,0.247 2.405,-0.616 3.515,-1.233 1.11,-0.617 1.357,0.115 2.961,-0.621 1.604,-0.735 1.11,-1.906 2.713,-2 1.604,-0.093 0.277,0.771 2.297,1.141 2.02,0.371 3.377,2.089 5.104,0.859 1.726,-1.229 0.863,-2.586 2.466,-2.586 1.604,0 0.863,-2.115 2.467,-1.982 1.603,0.133 1.683,-0.236 3.554,-1.101 1.872,-0.863 1.872,-1.356 3.229,-3.453 1.357,-2.097 0.74,-2.837 2.96,-3.083 2.221,-0.247 4.422,-0.37 6.343,-1.604 1.921,-1.234 2.438,-1.229 4.041,-2.709 0,0 1.087,0.026 1.734,0.488 0.647,0.463 1.572,1.758 1.942,1.851 0.37,0.093 2.404,0.74 3.145,0 0.741,-0.74 3.33,-2.339 3.33,-2.339 l 2.498,-2.749 1.362,-1.757 c 0,0 1.673,-1.11 2.56,-0.37 0.887,0.739 2.737,2.99 3.015,2.651 0.277,-0.339 2.28,0.031 2.759,-0.802 0.478,-0.832 2.883,-3.053 2.883,-3.053 0,0 2.127,0.058 3.608,1.001 1.48,0.941 4.093,2.854 4.093,2.854 l 2.241,1.881 1.343,1.018 c 0,0 0.854,0.21 1.275,-0.234 0.421,-0.444 2.724,-3.65 2.724,-3.65 l 1.232,-1.867 -0.011,-1.278 0.119,-12.857 -0.12,-1.759 0.12,-4.491 -0.012,-2.784 c 0,0 0.264,-0.863 0.012,-1.695 -0.252,-0.833 -0.303,-1.758 0,-2.405 0.303,-0.647 1.259,-1.572 1.66,-1.942 0.4,-0.37 1.788,0 1.788,0 l 1.542,-0.164 0.585,-0.485 -0.585,-0.493 -1.197,-1.587 -0.456,-0.675 -1.678,-0.591 0.164,-1.833 c 0,0 0.668,-1.295 0.822,-1.572 0.154,-0.277 -0.271,-0.607 0.034,-0.997 0.305,-0.391 -0.446,-0.761 -0.856,-1.038 -0.411,-0.277 -1.244,-0.647 -1.151,-1.202 0.093,-0.555 0.493,-1.665 0.987,-2.128 0.493,-0.462 1.788,-1.572 1.788,-1.572 l 1.542,-1.295 4.193,-1.018 0.987,-0.555 1.48,-0.555 -0.072,-0.928 0.223,-0.736 c 0,0 -0.221,-0.287 -0.582,-0.272 -0.361,0.015 -1.049,0.086 -1.049,0.086 l -1.591,-0.086 -1.739,-2.011 -0.221,-1.095 -0.896,-1.365 -0.228,-4.694 -0.505,-1.849 -1.912,-2.035 -1.254,-0.833 v -0.739 l -3.165,-2.591 -1.594,-0.832 -0.277,-2.22 c 0,0 -0.37,-0.886 0.185,-2.339 0.555,-1.454 0.925,-2.429 0.925,-2.429 0,0 1.758,-0.29 2.036,-0.906 0.276,-0.616 1.109,-1.356 1.109,-2.188 0,-0.833 -0.185,-1.904 -0.185,-1.904 0,0 0.821,-0.687 0.966,-1.426 0.144,-0.74 -0.781,-2.005 -0.781,-2.005 0,0 -1.11,0.524 -1.85,0.71 -0.74,0.185 -1.388,1.018 -1.388,1.018 0,0 -0.925,1.558 -1.11,1.703 -0.185,0.146 0.01,1.441 -1.199,1.349 -1.206,-0.093 -1.977,-0.462 -1.977,-0.462 l -0.146,1.206 -1.58,1.26 c 0,0 -1.295,-0.246 -2.313,-1.634 -1.018,-1.388 -1.757,-3.793 -1.757,-3.793 l -0.648,-1.757 c 0,0 0.278,-2.312 0.463,-3.793 0.185,-1.479 0.093,-4.81 -0.463,-5.364 -0.555,-0.556 -1.683,-1.943 -2.553,-2.128 -0.869,-0.185 -8.64,0 -8.64,0 l -1.679,-0.082 z"
   style="fill:#677821" /><rect
   style="fill:none;stroke:#000000;stroke-width:0.29998;stroke-linejoin:bevel;stroke-dasharray:none;paint-order:stroke fill markers"
   id="rect2"
   height="4390.293"
   x="0.19998971"
   y="0.19998971"
   ry="0.69917101"
   width="4353.8188" /></svg>
