<?xml version="1.0" encoding="UTF-8" standalone="no"?>
<!-- Generator: Adobe Illustrator 22.1.0, SVG Export Plug-In . SVG Version: 6.00 Build 0)  -->

<svg
   version="1.1"
   x="0px"
   y="0px"
   viewBox="0 0 4354.1187 4390.5933"
   enable-background="new 0 0 1995.865 2834.646"
   xml:space="preserve"
   id="svg1596"
   width="4354.1187"
   height="4390.5933"
   xmlns="http://www.w3.org/2000/svg"
   xmlns:svg="http://www.w3.org/2000/svg"><defs
   id="defs1596" />


<path
   id="Conwy_2_"
   fill="#4B5A26"
   d="m 2149.8285,2570.1141 c 0.647,-0.463 1.388,-0.647 2.035,-1.203 0.647,-0.555 1.665,-1.295 2.774,-1.479 1.11,-0.185 2.035,-0.277 3.238,-0.462 1.203,-0.186 1.943,-0.74 2.96,-1.573 1.018,-0.832 1.943,-0.929 2.405,-1.574 0.463,-0.646 0.647,-1.663 1.665,-2.033 1.018,-0.37 1.388,0.093 2.405,0 1.017,-0.093 0.925,-0.277 1.388,-0.74 0.462,-0.462 1.479,-0.739 1.757,-0.555 0.278,0.185 -0.462,0.833 0.462,1.388 0.924,0.555 1.388,0.555 1.758,1.388 0.37,0.832 1.018,0.832 1.572,1.942 0.555,1.109 0.833,1.665 0.555,2.22 -0.277,0.555 -0.647,1.202 -1.109,1.479 -0.463,0.278 -1.11,0.556 -1.11,1.203 0,0.647 0.463,1.018 0.925,1.295 0.463,0.277 1.018,0.186 0.647,-0.277 -0.371,-0.463 -0.74,-0.555 0.278,-1.572 1.017,-1.018 1.295,-0.926 1.665,-2.128 0.37,-1.202 0.277,-2.035 0,-2.774 -0.278,-0.74 -0.925,-1.018 -1.665,-1.573 -0.74,-0.555 -1.203,-0.925 -1.85,-1.757 -0.647,-0.833 -1.48,-0.648 -1.665,-1.48 -0.185,-0.832 0,-2.498 -0.185,-2.96 -0.185,-0.463 -0.463,-1.295 -0.926,-2.128 -0.462,-0.832 -0.647,-0.647 -1.757,-1.202 -1.11,-0.555 -1.758,-0.37 -2.312,-1.018 -0.555,-0.647 -0.925,-1.479 -0.278,-2.035 0.648,-0.555 1.388,-0.739 2.405,-0.555 1.018,0.185 2.035,0.277 2.868,0.37 0.832,0.092 1.387,0.185 1.85,0.74 0.463,0.555 0,0.832 0.37,1.664 0.37,0.833 1.017,1.018 2.22,1.296 1.203,0.277 1.573,-0.186 2.498,-0.37 0.925,-0.186 1.295,-0.74 2.127,-0.093 0.833,0.647 0.74,1.388 1.573,1.665 0.833,0.277 1.11,0.463 2.22,0.832 1.109,0.37 1.572,0.278 2.22,1.018 0.647,0.74 0.185,1.295 0.925,2.128 0.74,0.833 1.48,1.018 2.868,1.295 1.388,0.277 3.33,0.463 5.18,0.463 1.85,0 4.717,-0.278 5.273,-0.186 0.555,0.093 1.479,0.833 3.515,0.093 2.036,-0.74 4.718,-1.48 5.18,-1.85 0.463,-0.37 2.498,-1.11 2.96,-1.388 0.463,-0.278 2.313,-0.556 3.146,-0.556 l 0.716,-0.162 1.365,1.625 c 0,0 0.324,0.727 0,1.22 -0.323,0.493 -0.68,0.74 -1.365,1.85 -0.686,1.11 0.301,0.74 -0.686,1.11 -0.987,0.37 -1.479,-0.617 -1.603,0.74 -0.124,1.356 1.24,4.811 1.113,5.303 -0.127,0.494 -0.636,0.863 -1.121,1.727 -0.486,0.864 0,1.659 0,1.659 l 1.121,-0.109 c 0,0 0.677,0.263 0.841,0.56 0.163,0.297 0.335,0.943 0.335,0.943 0,0 1.744,0.398 2.891,1.019 1.148,0.62 2.22,1.356 3.453,2.713 0,0 0,-0.21 -0.123,1.067 -0.124,1.275 -0.493,4.112 -0.493,4.112 0,0 -0.494,1.987 -0.37,2.844 0.123,0.856 1.11,2.953 0.986,3.692 -0.123,0.74 -1.356,1.597 -1.85,2.094 -0.493,0.496 -3.947,1.977 -3.947,1.977 l -1.723,0.986 -1.981,1.728 c 0,0 -0.983,1.336 -1.353,1.347 -0.37,0.01 -0.147,1.367 -0.628,1.613 -0.481,0.246 -1.904,1.439 -1.904,1.439 0,0 0.181,1.644 0,2.014 -0.181,0.37 0,1.264 0,1.264 0,0 -2.77,1.944 -3.88,2.561 -1.11,0.615 -1.436,0.43 -1.079,1.664 0.357,1.234 0.079,0.641 0.357,1.234 0.277,0.594 0.845,-0.309 2.079,-1.234 1.233,-0.925 3.453,-1.664 3.453,-1.664 l 1.337,0.438 3.504,0.402 c 0,0 1.463,0.146 1.271,0.823 -0.192,0.679 0,2.035 0,2.035 0,0 1.531,0.246 1.903,-0.493 0.372,-0.74 1.235,-1.11 1.358,-0.617 0.123,0.493 0.37,3.127 0.37,3.127 v 1.683 c 0,0 1.603,0.617 1.973,1.234 0.37,0.616 0.74,1.727 0.74,1.727 l -1.11,0.616 h -1.603 c 0,0 -1.356,0.863 -1.11,1.233 0.247,0.37 1.356,2.229 1.356,2.229 l 0.909,2.119 c 0,0 -0.059,1.299 0.368,1.892 0.428,0.592 1.457,0.995 1.457,0.995 l 0.464,1.399 v 1.399 2.243 l -1.348,0.492 c 0,0 -0.123,0.603 -0.987,1.317 -0.864,0.714 -2.838,0.915 -2.838,0.915 0,0 -0.738,1.032 -1.231,1.032 -0.494,0 -1.357,-1.201 -2.344,-1.032 -0.987,0.169 -3.106,0.169 -3.465,0.416 -0.359,0.247 -3.935,0.986 -4.428,0.616 -0.494,-0.369 -2.775,-2.841 -2.436,-3.147 0.339,-0.306 -1.018,-3.259 -0.894,-3.57 0.123,-0.312 -0.01,-1.546 -0.01,-1.546 v -0.708 l -3.723,0.062 c 0,0 -1.254,0.737 -2.215,1.062 -0.961,0.324 -2.441,0.209 -2.935,1.13 -0.493,0.921 -4.069,1.671 -5.118,2.282 -1.048,0.612 -3.638,1.156 -5.118,2.488 -1.48,1.331 -1.604,2.688 -2.343,2.935 -0.739,0.247 -2.96,1.541 -3.947,1.695 -0.986,0.154 -1.255,0.832 -2.971,0 -1.716,-0.832 -4.553,-4.63 -4.553,-4.63 0,0 -2.589,-2.369 -3.453,-2.862 -0.863,-0.493 -1.974,-1.908 -1.974,-1.908 0,0 -0.124,-1.729 0,-2.254 0.124,-0.524 -1.356,-2.868 -1.356,-2.868 0,0 -2.293,-0.124 -2.997,0 -0.703,0.123 -2.923,1.252 -4.403,1.551 -1.479,0.299 -1.418,0.793 -3.237,0.423 -1.819,-0.37 -1.572,-1.097 -1.696,-2.028 -0.123,-0.932 -0.617,-4.139 -0.617,-4.632 0,-0.493 0.37,-2.466 1.11,-3.206 0.74,-0.74 1.049,-2.039 1.202,-2.438 0.154,-0.399 -0.956,-2.249 -0.956,-2.249 l -0.37,-1.603 -2.559,-1.781 c 0,0 0.369,-1.427 -0.509,-1.919 -0.879,-0.494 -2.112,-1.651 -2.112,-1.651 l 0.617,-1.815 0.612,-1.46 h 5.788 l 0.63,-0.01 c 0,0 0.987,-1.675 0.617,-1.886 -0.37,-0.211 -3.7,0 -3.7,0 h -2.451 c 0,0 0.015,0.405 0,-0.951 -0.016,-1.356 0.848,-3.483 2.081,-3.899 1.233,-0.418 2.823,-1.157 2.823,-1.157 l 1.37,-0.62 c 0,0 0.247,-3.697 0.493,-4.807 0.247,-1.11 0.866,-3.083 1.975,-3.576 1.109,-0.494 2.437,-3.577 1.28,-4.317 -1.158,-0.74 -3.748,-2.608 -4.364,-2.846 -0.616,-0.238 -2.343,-1.995 -2.343,-1.995 l -1.48,-2.404 h -0.861 z"
   style="fill:#677821" /><rect
   style="fill:none;stroke:#000000;stroke-width:0.29998;stroke-linejoin:bevel;stroke-dasharray:none;paint-order:stroke fill markers"
   id="rect2"
   height="4390.293"
   x="0.19998971"
   y="0.19998971"
   ry="0.69917101"
   width="4353.8188" /></svg>
