<?xml version="1.0" encoding="UTF-8" standalone="no"?>
<!-- Generator: Adobe Illustrator 22.1.0, SVG Export Plug-In . SVG Version: 6.00 Build 0)  -->

<svg
   version="1.1"
   x="0px"
   y="0px"
   viewBox="0 0 4354.1187 4390.5933"
   enable-background="new 0 0 1995.865 2834.646"
   xml:space="preserve"
   id="svg1596"
   width="4354.1187"
   height="4390.5933"
   xmlns="http://www.w3.org/2000/svg"
   xmlns:svg="http://www.w3.org/2000/svg"><defs
   id="defs1596" />


<path
   id="Denbighshire__x2F__Sir_Ddinbych_2_"
   fill="#606F38"
   d="m 2233.9115,2651.7921 c 0,0 0.386,-1.831 0.609,-2.211 0.224,-0.379 -0.187,-0.563 0.896,-1.396 1.084,-0.833 1.454,-1.018 1.64,-2.128 0.185,-1.11 -0.277,-1.479 1.018,-2.128 1.295,-0.646 2.312,-1.347 2.867,-2.477 0.555,-1.131 0.833,-1.85 1.48,-1.999 0.648,-0.149 2.312,0.242 4.625,0 2.312,-0.241 7.4,-0.889 7.4,-0.889 l 4.625,0.462 3.978,-0.462 5.735,-1.388 2.775,-0.647 0.648,-1.295 v -0.463 h 0.399 1.227 l -0.731,-0.523 -0.96,-0.469 -0.428,-0.156 -0.683,-0.408 1.084,-0.94 v -1.175 c 0,0 -0.516,-0.081 -2.108,-0.609 -1.592,-0.528 -2.333,-0.344 -3.442,-0.898 -1.11,-0.556 -2.035,-1.258 -2.127,-2.062 -0.093,-0.806 0.154,-2.378 0.4,-2.747 0.247,-0.371 1.635,-1.856 1.635,-2.686 0,-0.83 -1.439,-3.42 -1.46,-4.067 -0.021,-0.647 -0.482,-1.233 0.442,-2.651 0.925,-1.419 1.295,-2.621 1.295,-2.621 l 0.093,-2.405 c 0,0 -0.525,-0.278 -0.895,-0.895 -0.37,-0.616 -1.973,-2.22 -1.973,-2.59 0,-0.37 -0.124,-1.974 0,-2.59 0.123,-0.616 -0.565,-0.616 -1.948,-1.727 -1.382,-1.11 -1.876,-4.81 -1.876,-4.81 v -3.947 -1.604 c 0,0 -0.388,0.118 -1.85,0 -1.461,-0.117 -3.7,-0.493 -3.7,-0.493 0,0 -1.727,0.863 -3.577,0.74 -1.85,-0.123 -3.207,-0.616 -3.453,-1.356 -0.247,-0.74 -0.864,-2.719 -0.864,-2.719 v -1.475 -0.986 l -1.233,-0.61 -0.74,-1.067 -1.313,-0.912 h -0.66 c 0,0 -0.123,-0.492 0,-1.295 0.123,-0.803 -0.055,-1.84 -0.055,-1.84 l -1.425,-0.936 c 0,0 -0.74,-1.356 0,-1.851 0.74,-0.493 0.863,-2.22 0.863,-2.22 l -1.192,-1.635 -1.768,-0.955 -1.603,-1.141 c 0,0 -2.354,-1.449 -2.164,-1.635 0.19,-0.185 2.287,-1.665 2.287,-1.665 l 1.931,-2.22 -0.451,-1.344 -1.11,-0.753 c 0,0 -1.357,0.863 -1.357,0 0,-0.863 0.247,-2.834 0.247,-2.834 0,0 -0.617,-0.355 -0.986,-0.487 -0.37,-0.132 -1.419,1.229 -2.066,0.487 -0.648,-0.743 -1.634,-1.421 -1.634,-1.421 l -0.493,-1.318 0.863,-1.342 c 0,0 -1.357,0.271 -1.357,-0.909 0,-1.18 -1.357,-2.043 0,-2.166 1.357,-0.123 2.529,0.062 2.621,-1.018 0.092,-1.08 0.609,-1.819 0.609,-1.819 l -0.609,-2.466 c -1.665,0.185 -2.22,0.585 -3.052,1.349 -0.833,0.763 -3.238,0.347 -3.977,0.717 -0.74,0.37 -3.053,2.22 -3.516,2.312 -0.462,0.093 -2.312,0.647 -3.052,1.018 -0.74,0.371 -2.405,1.295 -2.868,1.758 -0.462,0.462 -1.088,0.989 -1.874,1.225 l 1.365,1.625 c 0,0 0.324,0.727 0,1.22 -0.323,0.493 -0.68,0.74 -1.365,1.85 -0.686,1.11 0.301,0.74 -0.686,1.11 -0.987,0.37 -1.479,-0.617 -1.603,0.74 -0.124,1.356 1.24,4.811 1.113,5.303 -0.127,0.494 -0.636,0.863 -1.121,1.727 -0.486,0.864 0,1.659 0,1.659 l 1.121,-0.109 c 0,0 0.677,0.263 0.841,0.56 0.163,0.297 0.335,0.943 0.335,0.943 0,0 1.744,0.398 2.891,1.019 1.148,0.62 2.22,1.356 3.453,2.713 0,0 0,-0.21 -0.123,1.067 -0.124,1.275 -0.493,4.112 -0.493,4.112 0,0 -0.494,1.987 -0.37,2.844 0.123,0.856 1.11,2.953 0.986,3.692 -0.123,0.74 -1.356,1.597 -1.85,2.094 -0.493,0.496 -3.947,1.977 -3.947,1.977 l -1.723,0.986 -1.981,1.728 c 0,0 -0.983,1.336 -1.353,1.347 -0.37,0.01 -0.147,1.367 -0.628,1.613 -0.481,0.246 -1.904,1.439 -1.904,1.439 0,0 0.181,1.644 0,2.014 -0.181,0.37 0,1.264 0,1.264 0,0 -2.77,1.944 -3.88,2.561 -1.11,0.615 -1.436,0.43 -1.079,1.664 0.357,1.234 0.079,0.641 0.357,1.234 0.277,0.594 0.845,-0.309 2.079,-1.234 1.233,-0.925 3.453,-1.664 3.453,-1.664 l 1.337,0.438 3.504,0.402 c 0,0 1.463,0.146 1.271,0.823 -0.192,0.679 0,2.035 0,2.035 0,0 1.531,0.246 1.903,-0.493 0.372,-0.74 1.235,-1.11 1.358,-0.617 0.123,0.493 0.37,3.127 0.37,3.127 v 1.683 c 0,0 1.603,0.617 1.973,1.234 0.37,0.616 0.74,1.727 0.74,1.727 l -1.11,0.616 h -1.603 c 0,0 -1.356,0.863 -1.11,1.233 0.247,0.37 1.356,2.229 1.356,2.229 l 0.909,2.119 c 0,0 -0.059,1.299 0.368,1.892 0.428,0.592 1.457,0.995 1.457,0.995 l 0.464,1.399 v 1.399 2.243 c 0,0 -0.548,0.04 0.653,0.267 1.201,0.226 1.201,0.226 1.201,0.226 l -0.612,1.317 c 0,0 -0.808,-0.148 -0.589,1.578 0.219,1.726 -0.028,1.787 -1.138,3.052 -1.11,1.265 -2.837,3.145 -3.083,3.562 -0.247,0.416 -0.37,1.649 -0.124,2.266 0.247,0.617 1.11,1.11 1.11,1.11 h 1.233 c 0,0 0.37,1.003 0.37,1.611 0,0.608 -1.603,0.856 -2.096,2.706 -0.494,1.85 -0.371,1.295 -0.124,3.607 0.247,2.312 0.617,1.971 0.494,3.189 -0.124,1.219 -0.463,2.233 -0.463,2.233 0,0 2.59,0.341 4.718,-0.09 2.127,-0.431 6.752,-1.355 7.77,-2.28 1.017,-0.926 1.572,-2.869 1.943,-3.053 z"
   style="fill:#677821" /><rect
   style="fill:none;stroke:#000000;stroke-width:0.29998;stroke-linejoin:bevel;stroke-dasharray:none;paint-order:stroke fill markers"
   id="rect2"
   height="4390.293"
   x="0.19998971"
   y="0.19998971"
   ry="0.69917101"
   width="4353.8188" /></svg>
