<?xml version="1.0" encoding="UTF-8" standalone="no"?>
<!-- Generator: Adobe Illustrator 22.1.0, SVG Export Plug-In . SVG Version: 6.00 Build 0)  -->

<svg
   version="1.1"
   x="0px"
   y="0px"
   viewBox="0 0 4354.1187 4390.5933"
   enable-background="new 0 0 1995.865 2834.646"
   xml:space="preserve"
   id="svg1596"
   width="4354.1187"
   height="4390.5933"
   xmlns="http://www.w3.org/2000/svg"
   xmlns:svg="http://www.w3.org/2000/svg"><defs
   id="defs1596" />


<path
   id="Flintshire__x2F__Sir_y_Fflint_2_"
   fill="#8D9764"
   d="m 2266.8415,2610.3511 1.665,-0.647 h 0.809 l 2.429,-0.555 c 0,0 1.03,-2.035 2.088,-2.221 1.057,-0.185 3.277,0.186 3.739,0 0.463,-0.185 1.665,-0.924 1.665,-0.924 l 0.74,-0.775 h 0.577 l -0.423,-0.951 c 0,0 0.031,-0.062 0.771,-0.834 0.74,-0.771 1.758,-1.141 2.035,-1.787 0.277,-0.648 0.555,-2.961 0.555,-2.961 0,0 1.203,-0.925 2.035,-1.018 0.833,-0.092 2.035,-0.646 2.96,-0.555 0.926,0.093 1.654,-0.01 1.654,-0.01 l 0.474,0.381 c -0.987,-0.617 -1.233,-1.728 -1.604,-1.975 -0.37,-0.246 -0.616,-1.479 -1.233,-1.727 -0.617,-0.246 -0.986,-0.493 -1.604,-0.863 -0.617,-0.369 -0.617,-0.369 -0.617,-0.369 0,0 1.48,-0.37 1.974,-0.617 0.493,-0.246 2.837,-1.85 3.33,-1.85 0.493,0 3.207,-1.85 3.207,-1.85 0,0 1.15,-1.714 0.76,-2.77 -0.39,-1.055 -0.637,-1.918 -1.13,-2.041 -0.493,-0.123 -0.369,-1.604 -0.986,-2.467 -0.617,-0.863 -2.467,-2.097 -2.96,-2.96 -0.493,-0.863 -2.96,-3.083 -2.96,-3.083 l -1.974,-1.389 c 0,0 -2.59,-1.941 -3.206,-2.312 -0.617,-0.37 -4.688,-1.356 -4.688,-1.356 l -3.946,-0.062 c 0.123,0.494 -0.493,0.309 -1.11,0.309 -0.617,0 -0.678,0.123 -0.678,0.617 0,0.493 0.308,0.555 0.678,0.739 0.37,0.186 0.247,0.493 0.247,0.493 l 0.37,1.572 -1.256,-0.462 -0.501,-0.185 c 0,0 -1.665,-1.388 -2.498,-1.943 -0.832,-0.555 -1.018,-1.295 -1.479,-1.572 -0.463,-0.277 -1.202,-0.555 -2.128,-0.925 -0.925,-0.37 -2.127,-2.312 -2.313,-2.867 -0.185,-0.556 -4.069,-3.33 -4.995,-4.348 -0.926,-1.018 -3.33,-2.498 -3.792,-2.683 -0.463,-0.186 -1.665,-1.203 -3.33,-2.498 -1.665,-1.295 -1.018,-1.479 -1.48,-1.479 -0.462,0 -1.572,-0.647 -3.329,-1.758 -1.758,-1.109 -1.758,-1.202 -2.405,-1.85 -0.647,-0.648 -0.37,-2.405 -0.555,-2.96 -0.185,-0.555 -0.278,-1.11 -1.11,-1.018 -0.833,0.093 -2.035,0.093 -3.237,0.463 -1.203,0.369 -2.035,0.832 -3.7,1.018 l -0.462,0.062 0.609,2.466 c 0,0 -0.517,0.74 -0.609,1.819 -0.092,1.079 -1.264,0.895 -2.621,1.018 -1.357,0.123 0,0.986 0,2.166 0,1.18 1.357,0.909 1.357,0.909 l -0.863,1.342 0.493,1.318 c 0,0 0.986,0.678 1.634,1.421 0.647,0.742 1.696,-0.619 2.066,-0.487 0.37,0.132 0.986,0.487 0.986,0.487 0,0 -0.247,1.971 -0.247,2.834 0,0.863 1.357,0 1.357,0 l 1.11,0.753 0.451,1.344 -1.931,2.22 c 0,0 -2.097,1.48 -2.287,1.665 -0.189,0.186 2.164,1.635 2.164,1.635 l 1.603,1.141 1.768,0.955 1.192,1.635 c 0,0 -0.124,1.727 -0.863,2.22 -0.74,0.494 0,1.851 0,1.851 l 1.425,0.936 c 0,0 0.178,1.037 0.055,1.84 -0.123,0.803 0,1.295 0,1.295 h 0.66 l 1.313,0.912 0.74,1.067 1.233,0.61 v 0.986 1.475 c 0,0 0.617,1.979 0.864,2.719 0.246,0.74 1.603,1.233 3.453,1.356 1.85,0.123 3.577,-0.74 3.577,-0.74 0,0 2.239,0.376 3.7,0.493 1.462,0.118 1.85,0 1.85,0 v 1.604 3.947 c 0,0 0.493,3.699 1.876,4.81 1.383,1.11 2.071,1.11 1.948,1.727 -0.124,0.616 0,2.22 0,2.59 0,0.37 1.603,1.974 1.973,2.59 0.366,0.616 0.891,0.894 0.891,0.894 z"
   style="fill:#677821" /><rect
   style="fill:none;stroke:#000000;stroke-width:0.29998;stroke-linejoin:bevel;stroke-dasharray:none;paint-order:stroke fill markers"
   id="rect2"
   height="4390.293"
   x="0.19998971"
   y="0.19998971"
   ry="0.69917101"
   width="4353.8188" /></svg>
