<?xml version="1.0" encoding="UTF-8" standalone="no"?>
<!-- Generator: Adobe Illustrator 22.1.0, SVG Export Plug-In . SVG Version: 6.00 Build 0)  -->

<svg
   version="1.1"
   x="0px"
   y="0px"
   viewBox="0 0 4354.1187 4390.5933"
   enable-background="new 0 0 1995.865 2834.646"
   xml:space="preserve"
   id="svg1596"
   width="4354.1187"
   height="4390.5933"
   xmlns="http://www.w3.org/2000/svg"
   xmlns:svg="http://www.w3.org/2000/svg"><defs
   id="defs1596" />


<g
   id="Gwynedd__x3C_Group_x3E__2_"
   style="fill:#677821"
   transform="translate(1093.6405,660.66109)">
					<path
   fill="#8D9764"
   d="m 1063.587,2065.038 c -0.555,-0.925 -1.109,-1.11 -2.404,-0.555 -1.295,0.555 -2.59,0.185 -3.516,0.925 -0.925,0.74 -3.699,2.035 -4.81,1.85 -1.11,-0.185 -2.59,1.665 -3.515,1.295 -0.926,-0.369 -2.59,0.926 -2.775,-0.185 -0.185,-1.111 -1.295,-4.625 -2.405,-6.105 -1.109,-1.479 -1.665,-3.145 -2.22,-4.255 -0.555,-1.109 -0.74,-1.665 -1.48,-2.22 -0.74,-0.555 -0.74,-0.555 -0.74,-0.555 0,0 0.925,0.185 2.035,0 1.11,-0.186 2.775,0 2.035,-0.556 -0.74,-0.555 -1.48,-0.74 -2.775,-1.109 -1.295,-0.37 -2.22,0.74 -2.22,-0.186 0,-0.925 0.185,-2.404 0.74,-4.255 0.556,-1.85 1.11,-4.44 2.22,-6.475 1.11,-2.035 2.22,-3.7 3.145,-4.44 0.925,-0.74 2.035,-1.85 2.775,-2.96 0.739,-1.11 0,-2.035 0.37,-3.33 0.37,-1.295 0.74,-2.774 1.11,-2.22 0.37,0.554 0.185,1.665 0.925,1.48 0.74,-0.186 1.85,-1.666 2.405,-1.666 0.555,0 1.11,0.926 1.85,-0.369 0.74,-1.295 2.035,-2.59 2.775,-3.146 0.74,-0.555 2.59,-1.85 2.59,-1.85 l 2.072,-1.48 0.518,-0.37 1.665,-0.74 c 0,0 -4.255,0.556 -4.995,1.296 -0.74,0.739 -1.665,1.479 -2.775,1.665 -1.11,0.185 -2.775,-0.186 -3.145,0.369 -0.37,0.556 -0.74,2.591 -1.665,2.591 -0.925,0 -2.404,0.925 -3.145,0.37 -0.74,-0.556 -0.925,-1.11 -1.85,-2.775 -0.925,-1.665 -2.775,-4.44 -3.33,-5.18 -0.556,-0.74 -5.735,-8.511 -5.735,-8.511 0,0 -1.85,-1.665 -1.665,-2.774 0.185,-1.11 0.74,-2.221 0.74,-2.221 0,0 0.925,-1.295 0.925,-0.369 0,0.925 0,0.925 0,0.925 l 2.22,-1.665 0.556,-1.295 c 0,0 -0.926,0.555 -0.926,-0.555 0,-1.11 0.74,-2.775 0.556,-3.516 -0.186,-0.74 -0.556,-2.96 -1.48,-4.07 -0.925,-1.109 -1.85,-2.404 -2.035,-3.515 -0.185,-1.11 -0.555,-1.479 -0.371,-2.405 0.186,-0.925 0.186,-0.925 1.295,-0.74 1.11,0.186 0,0.556 2.035,0.556 2.035,0 3.886,-0.74 3.886,-0.74 0,0 1.479,-0.185 1.665,-0.925 0.185,-0.74 -0.37,-1.48 -0.185,-2.035 0.185,-0.555 1.295,-0.555 1.85,-0.74 0.555,-0.185 1.665,-1.295 1.665,-1.295 0,0 -1.48,0 -2.22,0 -0.74,0 -1.295,0.37 -2.035,0.926 -0.74,0.555 -1.295,2.034 -1.85,1.664 -0.555,-0.369 -0.925,-2.035 -0.925,-2.035 0,0 0.185,-0.925 -0.74,-1.295 -0.925,-0.369 -0.185,-1.85 -0.925,-0.369 -0.74,1.479 0.37,0.555 -0.74,1.479 -1.11,0.925 -1.665,0.925 -2.035,1.48 -0.37,0.555 0.555,-0.37 -0.37,0.555 -0.925,0.925 -1.295,0.925 -2.775,0.74 -1.48,-0.186 -2.405,-1.11 -3.885,-1.48 -1.48,-0.37 -1.11,-1.11 -2.775,-1.295 -1.665,-0.185 -0.925,0.556 -2.775,0.556 -1.85,0 -1.109,0.739 -2.774,0.925 -1.665,0.185 -6.29,1.109 -7.215,1.295 -0.925,0.185 -2.035,-0.925 -2.035,0.37 0,1.295 0.74,2.035 -0.37,2.404 -1.11,0.37 -2.59,-0.369 -3.885,-0.185 -1.295,0.185 -4.07,-0.185 -4.625,0.185 -0.556,0.37 0,-0.555 -1.665,0.556 -1.665,1.109 -1.665,1.665 -0.74,1.85 0.925,0.185 0.925,0.185 0.925,0.185 0,0 0,0.556 -2.405,0.926 -2.405,0.369 -2.961,0.369 -4.255,1.109 -1.295,0.74 -1.85,2.035 -1.85,2.035 0,0 -2.59,0.925 -2.035,1.48 0.555,0.555 0.74,0.555 0.925,1.479 0.186,0.925 -0.185,0.925 -1.295,1.48 -1.11,0.555 -2.035,1.665 -2.22,2.96 -0.185,1.295 0.37,1.85 0,2.59 -0.37,0.74 -0.925,1.85 0,1.85 0.925,0 2.035,-0.555 1.85,0.556 -0.185,1.109 0,2.034 -0.37,2.59 -0.371,0.555 -0.185,0.925 -1.295,0.555 -1.109,-0.37 -1.85,-0.37 -2.22,0.556 -0.37,0.925 0.185,1.664 -0.925,2.404 -1.11,0.74 -2.035,0.186 -2.405,-1.109 -0.37,-1.295 0.74,-1.851 0.185,-2.961 -0.555,-1.109 -1.11,-2.22 -2.405,-2.959 -1.295,-0.74 -2.035,-1.11 -3.33,-1.851 -1.295,-0.74 -2.775,-1.665 -3.7,-1.11 -0.925,0.556 -1.295,1.665 -2.22,2.775 -0.925,1.11 -1.48,2.59 -2.405,2.775 -0.925,0.185 -0.185,-0.926 -1.665,-0.926 -1.479,0 -2.775,-0.555 -3.144,0.37 -0.37,0.925 1.295,0.925 -0.37,0.925 -1.665,0 -1.85,-0.555 -2.775,-0.925 -0.925,-0.37 -1.85,-1.109 -2.22,-0.185 -0.37,0.924 -1.11,1.479 -0.925,2.404 0.185,0.926 0.185,2.591 -0.925,2.221 -1.11,-0.37 -1.48,-0.74 -2.405,-0.925 -0.925,-0.186 -2.221,-0.925 -2.035,-1.851 0.185,-0.925 1.48,-1.109 1.48,-2.22 0,-1.111 0.185,-2.96 0.74,-3.33 0.555,-0.37 1.665,-1.665 1.665,-1.665 0,0 1.665,-0.74 1.48,-1.85 -0.186,-1.11 -0.37,-2.59 0.185,-3.516 0.555,-0.925 1.11,-1.109 2.22,-1.109 1.11,0 2.405,0.369 2.22,-0.926 -0.186,-1.295 -1.11,-2.034 0.185,-2.774 1.295,-0.74 1.665,1.11 2.59,-0.37 0.925,-1.48 -0.185,-1.665 0.37,-2.775 0.555,-1.109 1.665,-1.295 1.85,-2.22 0.185,-0.925 0.37,-1.295 1.665,-1.479 1.295,-0.186 1.48,0 2.035,-1.295 0.555,-1.295 0.74,-1.48 2.22,-2.591 1.479,-1.109 2.405,-0.185 3.144,-1.479 0.74,-1.295 1.11,-1.665 1.665,-2.221 0.555,-0.555 0.925,-1.85 0.925,-1.85 0,0 -0.555,0.37 0.556,1.295 1.109,0.926 0.74,0.37 2.404,0.555 1.665,0.186 2.775,0.556 4.07,-0.369 1.295,-0.926 3.33,-4.44 4.255,-5.181 0.925,-0.739 1.665,-0.739 2.035,-1.295 0.37,-0.555 1.295,-0.925 1.11,-1.85 -0.185,-0.925 0.925,-0.74 1.665,-1.851 0.74,-1.109 0.925,-1.85 2.035,-2.22 1.11,-0.37 2.22,0.556 2.96,-0.555 0.74,-1.111 1.48,-2.96 2.405,-3.33 0.925,-0.37 1.48,-0.185 2.405,-1.479 0.925,-1.296 1.85,-1.666 2.22,-2.405 0.37,-0.74 0.555,-1.48 0.74,-2.22 0.185,-0.74 -0.74,0.555 0.185,-0.74 0.925,-1.295 0.925,-1.665 1.11,-2.221 0.185,-0.555 0.37,-5.18 0.37,-5.18 0,0 0.925,-1.665 0,-3.33 -0.925,-1.665 -1.11,-2.404 -1.11,-3.885 0,-1.481 0,-2.59 0.925,-2.96 0.925,-0.37 2.405,0.185 2.405,0.185 0,0 -0.37,0.186 -0.74,0.926 -0.37,0.739 0.186,1.109 0.186,2.034 0,0.925 -0.186,2.035 0.555,1.851 0.74,-0.186 1.295,-0.74 1.295,-2.035 0,-1.295 -0.555,-2.96 0.186,-4.07 0.739,-1.109 2.405,-2.404 3.145,-2.59 0.74,-0.185 0.74,-0.185 1.48,-1.295 0.74,-1.11 1.665,-2.405 3.145,-3.885 1.48,-1.48 3.33,-2.775 3.33,-2.775 l 2.59,-1.85 c 0,0 0.74,-3.7 0.186,-3.146 0,0 0.462,-0.925 0.647,-1.572 0.185,-0.647 0.555,-1.11 1.11,-1.665 0.555,-0.555 0.74,-0.925 1.573,-1.202 0.832,-0.278 1.572,-0.463 2.22,-0.647 0.647,-0.186 0.925,0.092 1.48,-0.647 0.555,-0.74 0.833,-1.48 1.295,-1.851 0.463,-0.37 1.11,-0.74 1.666,-0.832 0.555,-0.093 1.665,0.277 2.498,0 0.833,-0.277 2.035,0.34 2.59,-0.016 0.555,-0.354 0.463,-0.873 0.833,-0.059 0.37,0.814 1.203,1.184 1.757,0.722 0.555,-0.463 0.833,-0.37 1.85,-0.556 1.017,-0.185 2.22,-0.367 3.052,-0.6 0.832,-0.233 1.85,-0.695 2.312,-1.157 0.463,-0.463 1.758,-0.37 2.221,-0.833 0.462,-0.462 0.182,-0.188 0.649,-0.832 h 0.861 l 1.48,2.404 c 0,0 1.727,1.758 2.343,1.995 0.616,0.237 3.206,2.105 4.364,2.846 1.157,0.74 -0.171,3.823 -1.28,4.317 -1.108,0.493 -1.728,2.466 -1.975,3.576 -0.247,1.109 -0.493,4.807 -0.493,4.807 l -1.37,0.62 c 0,0 -1.59,0.739 -2.823,1.157 -1.233,0.416 -2.097,2.543 -2.081,3.899 0.015,1.356 0,0.951 0,0.951 h 2.451 c 0,0 3.33,-0.211 3.7,0 0.37,0.211 -0.617,1.886 -0.617,1.886 l -0.63,0.01 h -5.788 l -0.612,1.46 -0.617,1.815 c 0,0 1.233,1.157 2.112,1.651 0.878,0.492 0.509,1.919 0.509,1.919 l 2.559,1.781 0.37,1.603 c 0,0 1.11,1.85 0.956,2.249 -0.153,0.399 -0.462,1.698 -1.202,2.438 -0.74,0.74 -1.11,2.713 -1.11,3.206 0,0.493 0.494,3.7 0.617,4.632 0.124,0.932 -0.123,1.658 1.696,2.028 1.819,0.37 1.758,-0.124 3.237,-0.423 1.481,-0.299 3.7,-1.428 4.403,-1.551 0.704,-0.124 2.997,0 2.997,0 0,0 1.48,2.344 1.356,2.868 -0.124,0.524 0,2.254 0,2.254 0,0 1.11,1.415 1.974,1.908 0.864,0.493 3.453,2.862 3.453,2.862 0,0 2.837,3.798 4.553,4.63 1.715,0.832 1.984,0.154 2.971,0 0.986,-0.154 3.207,-1.449 3.947,-1.695 0.74,-0.246 0.863,-1.604 2.343,-2.935 1.48,-1.332 4.07,-1.876 5.118,-2.488 1.049,-0.611 4.625,-1.361 5.118,-2.282 0.494,-0.921 1.974,-0.806 2.935,-1.13 0.961,-0.325 2.215,-1.062 2.215,-1.062 l 3.723,-0.062 v 0.708 c 0,0 0.132,1.234 0.01,1.546 -0.124,0.312 1.233,3.265 0.894,3.57 -0.339,0.307 1.942,2.778 2.436,3.147 0.493,0.37 4.07,-0.369 4.428,-0.616 0.358,-0.247 2.479,-0.247 3.465,-0.416 0.986,-0.169 1.85,1.032 2.344,1.032 0.493,0 1.231,-1.032 1.231,-1.032 0,0 1.975,-0.201 2.838,-0.915 0.864,-0.715 0.987,-1.317 0.987,-1.317 l 1.348,-0.492 c 0,0 -0.548,0.04 0.653,0.267 1.201,0.226 1.201,0.226 1.201,0.226 l -0.612,1.317 c 0,0 -0.808,-0.148 -0.589,1.578 0.219,1.726 -0.028,1.787 -1.138,3.052 -1.11,1.265 -2.837,3.145 -3.083,3.562 -0.247,0.416 -0.37,1.649 -0.124,2.266 0.247,0.617 1.11,1.11 1.11,1.11 h 1.233 c 0,0 0.37,1.003 0.37,1.611 0,0.608 -1.603,0.856 -2.096,2.706 -0.494,1.85 -0.371,1.295 -0.124,3.607 0.247,2.312 0.617,1.971 0.494,3.189 -0.124,1.219 -0.463,2.233 -0.463,2.233 0,0 -1.388,1.699 -2.006,2.994 -0.619,1.295 -3.174,2.683 -3.174,2.683 l -4.995,1.11 c 0,0 -2.22,1.665 -2.683,1.85 -0.463,0.185 -1.665,0.093 -1.973,0.463 -0.308,0.37 -0.802,2.59 -1.079,3.145 -0.277,0.556 -1.018,3.33 -1.11,4.07 -0.092,0.74 1.11,1.85 1.11,2.683 0,0.832 0.463,2.22 0.37,3.569 -0.092,1.35 0.555,3.368 0.709,3.923 0.154,0.555 0.678,1.942 0.586,2.498 -0.092,0.555 -1.348,1.757 -1.348,1.757 l -0.403,3.053 -0.376,2.405 -2.15,1.295 -4.051,0.462 -3.882,0.74 -1.819,1.356 c 0,0 -0.167,0.842 -0.608,1.727 -0.442,0.886 -1.273,0.432 -1.273,0.432 0,0 -1.572,-0.277 -2.127,-0.739 -0.555,-0.463 -1.758,-0.093 -2.697,0 -0.94,0.093 -2.575,1.572 -3.13,1.938 -0.555,0.364 -2.775,-0.643 -3.608,-0.828 -0.832,-0.185 -1.942,-0.555 -2.22,-0.555 -0.278,0 -1.244,1.018 -1.244,1.018 0,0 -1.161,1.479 -1.77,2.22 -0.609,0.741 -1.704,2.128 -1.704,2.128 0,0 0.278,1.757 0.278,2.22 0,0.463 0.74,1.203 0.74,1.572 0,0.37 -1.018,1.018 -1.202,1.066 -0.185,0.049 -0.277,2.634 -0.37,4.206 -0.093,1.573 -0.304,2.953 -0.894,3.083 -0.591,0.131 -1.884,0.52 -2.284,0.781 -0.399,0.262 -1.17,1.439 -1.988,2.326 -0.818,0.888 -0.939,0.666 -2.388,1.333 -1.449,0.667 -2.628,1.067 -2.797,1.177 -0.17,0.107 -1.966,2.226 -1.966,2.226 z"
   id="path1031"
   style="fill:#677821" />
					<path
   id="Bardsey_Island__x2F__Ynys_Enlli_1_"
   fill="#8D9764"
   d="m 948.58,2022.555 c 0.74,0 0.493,-0.01 0.785,-0.621 0.292,-0.617 0,-0.494 0,-0.494 0,0 1.189,-0.123 1.578,-0.493 0.391,-0.37 0.35,-0.986 -0.02,-1.727 -0.37,-0.74 0.124,-0.74 0,-1.37 -0.123,-0.631 -0.987,0.137 -1.603,0.014 -0.617,-0.123 -0.987,0.616 -0.863,1.356 0.123,0.74 0.123,1.479 -0.617,2.467 -0.74,0.986 0,0.863 0,0.863 0,0 -10e-4,0 0.74,0.01 z"
   style="fill:#677821" />
				</g><rect
   style="fill:none;stroke:#000000;stroke-width:0.29998;stroke-linejoin:bevel;stroke-dasharray:none;paint-order:stroke fill markers"
   id="rect2"
   height="4390.293"
   x="0.19998971"
   y="0.19998971"
   ry="0.69917101"
   width="4353.8188" /></svg>
