<?xml version="1.0" encoding="UTF-8" standalone="no"?>
<!-- Generator: Adobe Illustrator 22.1.0, SVG Export Plug-In . SVG Version: 6.00 Build 0)  -->

<svg
   version="1.1"
   x="0px"
   y="0px"
   viewBox="0 0 4354.1187 4390.5933"
   enable-background="new 0 0 1995.865 2834.646"
   xml:space="preserve"
   id="svg1596"
   width="4354.1187"
   height="4390.5933"
   xmlns="http://www.w3.org/2000/svg"
   xmlns:svg="http://www.w3.org/2000/svg"><defs
   id="defs1596" />


<g
   id="Isle_of_Anglesey__x2F__Ynys_Mon__x3C_Group_x3E__2_"
   style="fill:#677821"
   transform="translate(1093.6405,660.66109)">
					<path
   id="Anglesey__x2F__Ynys_Mon_1_"
   fill="#303B09"
   d="m 1027.719,1918.148 c 0,0 -0.392,0.832 -0.392,1.479 0,0.647 -0.555,1.202 -0.555,2.035 0,0.833 0.185,1.85 0.185,1.85 -0.555,0.556 -0.925,0.925 -2.405,1.48 -1.481,0.555 -2.405,1.11 -3.33,2.035 -0.925,0.925 -2.405,1.479 -2.96,2.59 -0.555,1.11 -1.295,2.22 -2.96,2.96 -1.665,0.74 -2.775,1.85 -3.146,1.295 -0.37,-0.555 -0.74,-2.22 -1.665,-0.925 -0.925,1.295 -0.185,-0.186 -0.925,1.295 -0.74,1.479 0.74,2.035 0,2.405 -0.74,0.369 -2.59,0.739 -3.515,-0.186 -0.926,-0.925 -1.11,-1.85 -2.59,-2.035 -1.48,-0.185 -2.775,0.37 -3.145,-1.109 -0.37,-1.48 -1.295,-2.035 -0.74,-2.775 0.555,-0.74 1.481,-2.035 1.481,-2.035 0,0 1.85,0 2.22,-0.74 0.37,-0.739 0.925,-1.664 0.555,-2.774 -0.37,-1.11 0,-1.665 -1.48,-1.11 -1.481,0.555 -1.665,1.295 -2.035,2.221 -0.37,0.925 0.555,0.555 -0.925,1.85 -1.48,1.295 -0.556,2.035 -1.665,2.405 -1.11,0.37 1.109,2.034 -1.11,0.37 -2.22,-1.666 -1.85,-2.961 -2.59,-3.33 -0.74,-0.37 0.74,-2.59 -0.555,-2.405 -1.295,0.185 -1.48,0.74 -2.96,0.925 -1.48,0.186 0,-1.109 -1.295,-1.295 -1.295,-0.186 -1.48,-1.665 -1.48,-2.59 0,-0.925 0,-2.405 0,-2.405 l -0.555,-1.85 c 0,0 -1.481,-1.11 -1.85,-2.035 -0.37,-0.925 0.555,-1.48 -0.37,-2.22 -0.925,-0.74 -2.035,-1.665 -2.59,-2.405 -0.555,-0.74 -0.555,-0.925 -1.109,-2.22 -0.555,-1.295 0.185,-1.665 -0.74,-2.405 -0.925,-0.74 -1.11,0.74 -2.22,-0.925 -1.11,-1.665 -2.59,-1.295 -1.851,-2.775 0.74,-1.48 1.481,-1.48 2.22,-2.22 0.74,-0.74 1.11,-0.74 1.85,-1.48 0.74,-0.739 1.85,-2.405 0.74,-2.034 -1.11,0.369 -0.555,1.85 -1.11,0.369 -0.555,-1.479 -0.185,-2.22 -0.925,-2.59 -0.74,-0.37 0.185,-0.185 -0.925,-1.295 -1.11,-1.109 -1.851,-2.035 -1.295,-2.22 0.555,-0.186 1.85,0.37 1.85,-0.74 0,-1.11 0,-3.33 0.37,-4.44 0.37,-1.109 1.665,-2.404 1.48,-3.145 -0.185,-0.74 -0.555,-0.37 -0.925,-1.665 -0.37,-1.295 -0.37,-1.295 -0.74,-2.59 -0.37,-1.295 0,-1.48 -0.555,-2.405 -0.555,-0.925 -0.37,-1.85 0.555,-1.665 0.925,0.186 3.145,0.186 3.145,0.186 0,0 0.925,0.925 1.295,-0.186 0.37,-1.111 0.37,-1.665 1.295,-2.035 0.925,-0.37 0.74,-1.85 0.925,-0.37 0.186,1.48 1.11,2.035 1.851,1.48 0.74,-0.555 0.925,-0.74 1.665,-1.48 0.74,-0.739 1.295,-1.664 1.665,-1.109 0.37,0.555 0.185,1.479 1.295,1.295 1.109,-0.186 2.035,0.185 2.035,0.185 h 1.48 l -0.74,-1.479 c 0,0 -0.185,-1.11 0.925,-1.295 1.11,-0.186 2.775,-0.555 2.775,-0.555 0,0 2.035,-0.186 2.035,0.369 0,0.556 -1.295,0 0,0.556 1.295,0.555 1.295,-0.37 2.405,-0.186 1.109,0.186 2.404,0.556 2.404,0.556 0,0 -0.185,1.109 0.925,1.479 1.11,0.37 1.48,0.185 2.96,0 1.48,-0.185 2.775,0.185 4.07,0.37 1.295,0.185 2.22,-0.74 2.775,-0.186 0.555,0.556 0.555,0.926 1.109,1.851 0.556,0.925 1.11,2.59 1.48,3.145 0.37,0.556 -0.37,0.925 -0.37,2.221 0,1.295 -0.74,2.034 -1.11,2.96 -0.369,0.925 0.371,-0.186 1.295,0 0.925,0.185 1.11,0.369 0.925,1.295 -0.186,0.925 0.555,1.109 1.295,1.295 0.74,0.185 0.925,0 1.85,0.37 0.925,0.37 0.37,-0.925 0.925,0.37 0.556,1.295 0.37,1.109 0.74,2.59 0.37,1.479 0.925,0.925 1.11,2.404 0.185,1.48 -0.185,2.405 0.74,3.33 0.925,0.926 1.48,1.11 1.295,2.221 -0.186,1.109 -1.851,2.035 -0.37,2.96 1.48,0.925 2.775,0.739 4.07,-0.186 1.295,-0.925 1.48,-1.665 2.96,-1.665 1.48,0 2.22,0.186 2.775,-0.925 0.555,-1.11 0.185,-1.479 2.405,-1.479 2.22,0 2.96,-0.37 4.625,0.369 1.665,0.74 1.48,0.186 2.775,0.186 1.295,0 2.405,0 2.405,0 0,0 0.555,-0.186 0.185,0.925 -0.37,1.11 -0.556,0.925 -1.665,2.035 -1.11,1.11 -0.925,1.11 -1.665,2.59 -0.74,1.48 -1.48,1.295 -1.665,2.405 -0.186,1.109 0.555,0.925 -0.37,2.775 -0.925,1.85 -0.37,0.739 -1.851,2.034 -1.479,1.295 -1.85,0.925 -3.145,1.851 -1.295,0.925 -2.22,1.479 -3.33,2.404 -1.11,0.926 -0.74,2.035 -1.85,2.59 -1.11,0.556 -2.775,0.74 -3.516,1.296 -0.645,0.483 -1.43,0.405 -1.866,0.988 -0.064,0.087 -0.121,0.187 -0.168,0.307 z"
   style="fill:#677821" />
					<path
   id="Holy_Island__x2F__Ynys_Gybi_1_"
   fill="#303B09"
   d="m 963.133,1896.195 c -0.247,0.062 -0.74,0.061 -1.48,0.369 -0.74,0.309 -0.74,0.309 -0.309,1.48 0.432,1.172 0.679,0.246 1.696,0.74 1.018,0.493 0.77,0.246 1.079,1.048 0.309,0.802 -0.74,0.432 -0.822,1.048 -0.083,0.617 -0.534,0.864 0,1.949 0.534,1.086 1.007,0.148 2.056,0 1.048,-0.146 1.048,0.024 1.727,-0.53 0.678,-0.555 0.493,-0.309 1.356,-0.062 0.864,0.246 0.494,0.74 1.789,0.923 1.295,0.183 0.987,0.249 1.598,1.235 0.611,0.986 -0.303,0.555 -0.611,0.986 -0.309,0.432 0.061,0.802 0.986,1.912 0.925,1.109 0.555,0.432 0.925,1.541 0.37,1.11 0.062,0.987 -0.062,1.789 -0.123,0.802 0.617,0.74 1.665,1.356 1.049,0.616 1.11,0.062 1.789,0.309 0.678,0.247 0.493,0.062 1.357,-0.432 0.863,-0.493 0.863,-0.37 1.727,-0.802 0.863,-0.432 0.802,-0.617 0.678,-1.172 -0.123,-0.555 -0.432,-0.74 -0.493,-1.172 -0.062,-0.432 -0.246,-1.048 -0.432,-1.356 -0.185,-0.309 -0.308,-0.493 -0.616,-0.679 -0.309,-0.185 -0.679,-0.185 -0.987,-0.308 -0.308,-0.124 -0.062,-0.617 -0.308,-1.11 -0.247,-0.493 -0.37,-0.309 -0.873,-0.555 -0.503,-0.246 -0.483,-0.186 -0.854,-0.617 -0.37,-0.432 -0.185,-0.432 -0.247,-0.927 -0.062,-0.495 -0.37,0 -0.863,0 -0.494,0 -0.123,-1.231 -0.123,-1.725 0,-0.494 1.109,-0.247 1.773,-0.616 0.664,-0.371 0.076,-0.863 0,-1.604 -0.075,-0.74 -0.91,-0.987 -1.65,-1.233 -0.74,-0.246 -0.74,0 -1.233,0 -0.493,0 -0.617,-0.37 -0.617,-1.479 0,-1.11 -0.37,0.123 -1.11,0 -0.74,-0.124 -0.247,-0.494 0.37,-0.74 0.616,-0.246 -0.124,-0.494 -0.493,-1.251 -0.37,-0.757 -0.864,0 -0.864,0 0,0 -0.987,-0.106 -1.85,0 -0.863,0.106 -0.616,-0.476 -1.233,-1.098 -0.617,-0.621 -0.986,0.868 -1.727,0.622 -0.74,-0.247 -0.74,-0.622 -0.74,-0.622 0,0 -0.74,0.128 -1.479,0 -0.74,-0.124 0,2.344 0,2.344 0.149,0.58 -0.249,0.372 -0.495,0.434 z"
   style="fill:#677821" />
				</g><rect
   style="fill:none;stroke:#000000;stroke-width:0.29998;stroke-linejoin:bevel;stroke-dasharray:none;paint-order:stroke fill markers"
   id="rect2"
   height="4390.293"
   x="0.19998971"
   y="0.19998971"
   ry="0.69917101"
   width="4353.8188" /></svg>
