<?xml version="1.0" encoding="UTF-8" standalone="no"?>
<!-- Generator: Adobe Illustrator 22.1.0, SVG Export Plug-In . SVG Version: 6.00 Build 0)  -->

<svg
   version="1.1"
   x="0px"
   y="0px"
   viewBox="0 0 4354.1187 4390.5933"
   enable-background="new 0 0 1995.865 2834.646"
   xml:space="preserve"
   id="svg1596"
   width="4354.1187"
   height="4390.5933"
   xmlns="http://www.w3.org/2000/svg"
   xmlns:svg="http://www.w3.org/2000/svg"><defs
   id="defs1596" />


<path
   id="Merthyr_Tydfil__x2F__Merthyr_Tudful_2_"
   fill="#606F38"
   d="m 2242.2125,2924.5481 c 0,0 -2.628,-2.193 -3.568,-3.581 -0.94,-1.388 -2.883,-3.927 -3.068,-4.923 -0.185,-0.997 -2.22,-4.327 -3.052,-5.16 -0.833,-0.832 -3.7,-3.792 -3.7,-3.792 l -2.128,-3.146 -2.59,-4.289 h 2.025 c 0,0 1.12,-0.034 1.583,0 0.463,0.034 0.369,0.515 0.925,-0.016 0.556,-0.529 0.233,-1.031 0.233,-1.031 l -2.362,-3.173 -0.646,-1.45 c 0,0 -0.746,-3.519 -0.805,-3.918 -0.059,-0.398 -0.148,-1.82 -0.148,-1.82 l 1.315,-1.538 c 0,0 0.192,-0.339 1.117,-1.079 0.925,-0.74 1.942,-0.555 2.405,0 0.462,0.555 0.462,1.109 0.462,1.85 0,0.741 0.186,1.203 0.463,1.295 0.277,0.093 1.758,0.093 2.405,0.556 0.647,0.462 2.035,1.85 2.035,1.85 0,0 0.647,0.833 0.647,1.295 0,0.463 -0.093,0.74 0.647,1.018 0.74,0.277 2.594,0 2.594,0 l 1.198,8.365 1.696,2.827 v 2.312 h 2.189 l 1.203,3.7 1.758,4.532 c 0,0 0.277,2.035 0,2.59 -0.278,0.556 -1.079,1.573 -1.079,1.573 v 1.665 l -0.771,1.757 -1.479,1.148 h -0.441 z"
   style="fill:#677821" /><rect
   style="fill:none;stroke:#000000;stroke-width:0.29998;stroke-linejoin:bevel;stroke-dasharray:none;paint-order:stroke fill markers"
   id="rect2"
   height="4390.293"
   x="0.19998971"
   y="0.19998971"
   ry="0.69917101"
   width="4353.8188" /></svg>
