<?xml version="1.0" encoding="UTF-8" standalone="no"?>
<!-- Generator: Adobe Illustrator 22.1.0, SVG Export Plug-In . SVG Version: 6.00 Build 0)  -->

<svg
   version="1.1"
   x="0px"
   y="0px"
   viewBox="0 0 4354.1187 4390.5933"
   enable-background="new 0 0 1995.865 2834.646"
   xml:space="preserve"
   id="svg1596"
   width="4354.1187"
   height="4390.5933"
   xmlns="http://www.w3.org/2000/svg"
   xmlns:svg="http://www.w3.org/2000/svg"><defs
   id="defs1596" />


<path
   id="Monmouthshire__x2F__Sir_Fynwy_2_"
   fill="#606F38"
   d="m 2265.5505,2893.2171 c 0,0 4.662,0 4.733,0 0.072,0 1.672,0.093 2.723,0.74 1.05,0.647 2.715,0.688 3.177,1.177 0.463,0.488 2.22,1.659 2.22,2.184 0,0.525 0.277,2.028 0,2.34 -0.277,0.312 -0.124,0.36 0.123,1.262 0.246,0.9 1.264,1.085 1.635,1.641 0.369,0.555 0.555,2.035 0.555,3.237 0,1.202 -0.833,2.683 -0.647,3.237 0.185,0.555 1.388,1.388 1.388,1.388 l 2.312,0.555 1.865,0.49 v 1.175 c 0,0 -0.94,0.832 -0.94,1.203 0,0.369 -0.74,1.825 -0.186,1.791 0.556,-0.034 2.683,0 2.683,0 h 0.925 v 0.759 c 0,0 -0.185,1.149 -1.017,2.075 -0.833,0.925 -1.371,2.404 -1.148,2.867 0.223,0.462 0.87,2.296 1.056,2.628 0.185,0.332 1.109,1.65 1.109,1.65 0,0 0.463,2.104 0.74,2.382 0.277,0.278 2.312,0.739 2.312,0.739 v 0.833 l 0.36,0.682 0.525,0.15 c 0,0 0.441,1.479 0.8,1.346 0.358,-0.134 2.593,-0.955 2.593,-0.955 0,0 1.631,-0.779 2.037,-1.094 0.406,-0.314 1.27,-1.718 1.27,-1.718 l 1.219,-0.816 c 0,0 2.111,-0.832 2.943,-0.925 0.833,-0.093 2.128,-1.11 2.868,-1.11 0.739,0 0.543,0.093 1.567,1.018 1.024,0.925 1.856,2.498 1.856,2.498 l 1.109,1.572 0.531,1.942 -1.733,-0.093 -1.764,0.186 c 0,0 -0.087,0.647 -0.364,1.202 -0.277,0.555 -1.85,1.85 -1.85,1.85 l -0.647,1.295 0.185,1.131 h -1.109 l -1.48,0.269 0.093,1.673 c 0,0 0.093,0.166 0.555,0.721 0.463,0.555 2.035,1.216 2.035,1.216 0,0 1.665,0.912 1.757,1.282 0.093,0.369 0.359,1.707 0.827,2.287 1.48,-1.295 3.429,-1.732 5.464,-3.027 2.035,-1.295 4.994,-1.851 7.029,-2.59 2.035,-0.74 2.96,-0.556 3.33,-1.295 0.37,-0.74 1.295,-1.666 2.221,-2.961 0.925,-1.295 1.295,-0.739 2.22,-1.664 0.925,-0.926 1.479,-2.035 2.034,-2.221 0,0 0.926,-0.678 0.68,-1.171 -0.247,-0.493 -0.371,-0.616 -0.68,-0.987 -0.308,-0.369 -0.431,-0.616 -0.554,-1.479 -0.124,-0.863 0.493,-1.356 0,-1.85 -0.494,-0.494 -1.11,0.246 -1.233,-0.987 -0.124,-1.232 -1.357,-0.246 -0.124,-1.232 1.233,-0.987 1.233,0.123 1.233,-0.987 0,-1.11 -0.369,-0.37 -0.986,-0.74 -0.617,-0.37 -1.334,-1.233 -0.79,-1.603 0.543,-0.371 0.713,-0.617 1.491,-0.74 0.779,-0.124 0.285,1.479 0.779,-0.124 0.492,-1.603 -0.447,-0.863 -0.779,-1.85 -0.331,-0.986 -0.039,-0.37 0,-1.48 0.039,-1.11 1.272,0.37 0.039,-1.11 -1.234,-1.479 -3.076,-1.726 -1.723,-2.096 1.353,-0.37 1.416,-0.37 1.446,-1.11 0.029,-0.739 1.08,-0.37 0,-1.727 -1.081,-1.356 -0.834,-1.479 -1.327,-2.343 -0.493,-0.864 -1.683,-1.357 -0.595,-1.975 1.088,-0.615 0.83,-0.986 1.699,-1.726 0.869,-0.74 1.239,-0.37 1.239,-1.356 0,-0.987 0.739,-1.48 -0.247,-1.974 -0.987,-0.493 -1.974,-0.864 -2.097,-2.097 -0.123,-1.233 0,-1.233 0.369,-2.221 0.371,-0.986 0.741,-1.356 0.124,-2.22 -0.214,-0.3 -0.353,-0.66 -0.479,-1.007 0,0 0.839,-1.214 1.091,-2.077 0.252,-0.863 1.361,-1.604 1.608,-2.59 0.247,-0.986 1.001,-2.097 1.001,-2.097 l 0.109,-1.232 0.471,-0.178 c -0.162,0.07 -0.324,0.129 -0.471,0.178 -0.74,0.246 -1.604,-1.233 -1.85,-1.974 -0.247,-0.74 -1.48,0 -2.64,0 -0.322,0 -0.48,0.161 -0.549,0.411 0,0 -0.513,-1.398 -1.129,-1.274 -0.616,0.123 -0.74,-0.016 -1.481,-0.01 -0.74,0.01 -1.355,0.13 -1.602,0.624 -0.247,0.493 -0.74,0.986 -1.48,0.617 -0.739,-0.371 -1.85,-0.386 -2.343,-1.242 -0.494,-0.855 -1.029,-1.596 -1.029,-1.596 l -1.068,-1.479 -1.479,-1.783 c 0,0 -0.37,-1.67 0,-2.163 0.37,-0.494 0.739,-0.616 0.493,-1.11 -0.246,-0.493 0.535,-0.246 -0.657,-0.739 -1.192,-0.494 -2.303,-0.494 -2.673,-0.987 -0.37,-0.493 -1.604,-1.727 -1.973,-1.85 -0.37,-0.124 -0.863,-0.987 -1.603,-1.233 -0.74,-0.247 -1.85,-1.974 -1.85,-1.974 0,0 -1.11,-1.48 -1.357,-2.22 -0.246,-0.74 -0.369,-1.246 -1.232,-1.425 -0.864,-0.179 -1.604,0 -1.604,0 l -3.453,-0.079 c 0,0 -0.493,0.764 -1.11,0.764 -0.616,0 -3.805,1.233 -4.061,1.604 -0.256,0.371 -1.859,1.233 -2.599,1.604 -0.74,0.369 0.247,-0.37 -0.74,0.369 -0.987,0.74 0.246,1.357 -0.987,0.74 -1.232,-0.616 -1.232,-0.616 -1.232,-1.356 0,-0.74 0.493,-1.727 0,-2.343 -0.493,-0.617 0.123,-0.863 -0.987,-0.74 -1.11,0.123 -1.109,-0.754 -2.466,-0.562 -1.357,0.191 -1.48,0.068 -1.48,-1.042 0,-1.11 0.74,-1.356 0,-2.22 -0.74,-0.864 -1.233,-2.22 -1.727,-2.344 -0.493,-0.123 -3.7,-4.069 -3.7,-4.069 0,0 -0.987,-0.37 -1.356,-0.987 l -0.482,-0.74 -1.307,1.372 c 0,0 -0.925,0.016 -1.142,0 -0.218,-0.015 -0.893,0.94 -0.796,1.958 0.097,1.018 0.644,1.388 0.796,1.781 0.152,0.395 -0.565,1.393 -0.565,1.393 0.901,2.022 0.536,0.896 1.03,2.787 0.494,1.891 0.37,2.673 2.466,4.029 2.097,1.356 1.85,2.22 2.714,4.317 0.863,2.096 0.493,2.22 0,4.069 -0.493,1.851 -1.48,0.123 -2.96,1.023 -0.503,0.218 -0.883,0.457 -0.883,0.457 l 0.019,0.678 c 0,0 0.247,1.018 0,2.019 -0.247,1.001 -0.586,1.219 -1.141,1.496 -0.555,0.278 -1.018,1.11 -1.476,1.2 -0.458,0.09 -0.374,1.391 -0.376,1.761 0,0.369 -0.707,0.986 -0.707,0.986 l -1.603,0.664 h -1.461 c 0,0 -0.76,0.292 -0.622,0.729 0.138,0.437 -1.247,0.673 -1.482,0.865 -0.234,0.192 -1.152,1.936 -1.152,1.936 l -1.295,0.74 v 3.052 c 0,0 0.45,0.356 0.739,0.647 0.287,0.29 1.297,0.831 1.297,0.831 z"
   style="fill:#677821" /><rect
   style="fill:none;stroke:#000000;stroke-width:0.29998;stroke-linejoin:bevel;stroke-dasharray:none;paint-order:stroke fill markers"
   id="rect2"
   height="4390.293"
   x="0.19998971"
   y="0.19998971"
   ry="0.69917101"
   width="4353.8188" /></svg>
