<?xml version="1.0" encoding="UTF-8" standalone="no"?>
<!-- Generator: Adobe Illustrator 22.1.0, SVG Export Plug-In . SVG Version: 6.00 Build 0)  -->

<svg
   version="1.1"
   x="0px"
   y="0px"
   viewBox="0 0 4354.1187 4390.5933"
   enable-background="new 0 0 1995.865 2834.646"
   xml:space="preserve"
   id="svg1596"
   width="4354.1187"
   height="4390.5933"
   xmlns="http://www.w3.org/2000/svg"
   xmlns:svg="http://www.w3.org/2000/svg"><defs
   id="defs1596" />


<path
   id="Neath_Port_Talbot__x2F__Castell-nedd_Port_Talbot_2_"
   fill="#4B5A26"
   d="m 2181.7405,2949.3151 2.683,0.049 3.7,0.185 1.572,0.647 h 1.48 l 2.59,-1.387 1.995,-0.926 v -1.965 c 0,0 -0.053,-1.643 0,-2.29 0.053,-0.647 -1.308,-1.85 -1.308,-1.85 l -1.385,-1.528 -1.708,-1.986 0.093,-2.775 1.615,-0.925 0.512,-1.388 -0.512,-1.758 v -1.692 l 2.177,-4.111 4.625,0.531 3.7,0.88 1.665,-0.787 h 2.621 v -2.866 l -1.141,-2.036 -0.504,-4.718 v -3.607 -2.22 l 0.504,-2.167 -0.504,-2.674 -0.316,-2.005 v -2.087 l -0.568,-2.202 -0.555,-0.736 -0.734,-1.112 -0.468,-0.491 h -0.647 -1.11 -1.573 l -1.387,-0.863 -1.203,-0.706 -0.832,-0.403 -1.058,-0.803 -3.013,1.206 c 0,0 -2.498,0.521 -3.978,0.521 -1.48,0 -2.59,0.37 -2.59,0.37 v 1.169 c 0,0 -0.833,2.623 -2.431,3.363 -1.598,0.739 -3.212,-0.37 -3.212,-0.37 l -0.432,-1.145 v -0.736 c 0,0 -0.974,-1.245 -1.357,-1.604 -0.383,-0.358 -1.179,-0.724 -1.179,-0.724 l -1.309,-2.591 -0.72,-1.249 -1.018,-0.925 -1.388,-0.37 -2.117,-0.863 -1.583,-0.526 -1.166,0.188 -1.47,0.167 -1.803,0.275 -1.293,0.093 -0.188,0.76 0.556,1.942 0.925,1.758 v 2.065 l -0.555,1.214 -1.388,-0.053 -2.312,-0.67 h -1.203 l -1.073,0.67 0.795,0.053 c 0,0 0.74,1.253 1.018,1.993 0.278,0.74 1.851,2.452 1.851,2.452 0,0 1.942,1.247 2.404,1.896 0.463,0.647 0.556,2.604 0.556,3.753 0,1.149 1.71,2.722 1.71,2.722 v 1.018 c 0,0 0,1.01 0,1.018 0,0.33 1.557,0.297 1.723,0.325 0.749,0.131 1.463,0.481 2.006,1.019 0.953,0.943 0.333,0.941 -0.295,1.655 -0.552,0.628 -0.564,1.438 -0.704,2.273 l -0.647,1.11 -1.387,1.572 -1.387,3.607 -1.295,3.515 c 0,0 -0.665,1.66 -0.287,3.235 l 1.582,0.095 c 1.85,0 1.295,-0.555 2.96,-0.74 1.665,-0.185 0.925,-0.555 1.665,-1.109 0.74,-0.556 1.665,-0.37 1.109,0.37 -0.555,0.739 -0.74,2.404 -0.74,2.404 0,0 0.37,1.11 1.11,2.035 0.74,0.925 2.035,2.59 3.33,3.7 1.295,1.11 1.295,1.479 1.48,2.59 0.185,1.111 2.22,2.22 2.035,3.33 -0.185,1.11 1.48,3.146 2.405,4.44 z"
   style="fill:#677821" /><rect
   style="fill:none;stroke:#000000;stroke-width:0.29998;stroke-linejoin:bevel;stroke-dasharray:none;paint-order:stroke fill markers"
   id="rect2"
   height="4390.293"
   x="0.19998971"
   y="0.19998971"
   ry="0.69917101"
   width="4353.8188" /></svg>
