<?xml version="1.0" encoding="UTF-8" standalone="no"?>
<!-- Generator: Adobe Illustrator 22.1.0, SVG Export Plug-In . SVG Version: 6.00 Build 0)  -->

<svg
   version="1.1"
   x="0px"
   y="0px"
   viewBox="0 0 4354.1187 4390.5933"
   enable-background="new 0 0 1995.865 2834.646"
   xml:space="preserve"
   id="svg1596"
   width="4354.1187"
   height="4390.5933"
   xmlns="http://www.w3.org/2000/svg"
   xmlns:svg="http://www.w3.org/2000/svg"><defs
   id="defs1596" />


<path
   id="Newport__x2F__Casnewydd_2_"
   fill="#6C833C"
   d="m 2307.3495,2945.1771 c -0.468,-0.58 -0.734,-1.918 -0.827,-2.287 -0.092,-0.37 -1.757,-1.282 -1.757,-1.282 0,0 -1.572,-0.661 -2.035,-1.216 -0.462,-0.555 -0.555,-0.721 -0.555,-0.721 l -0.093,-1.673 1.48,-0.269 h 1.109 l -0.185,-1.131 0.647,-1.295 c 0,0 1.572,-1.295 1.85,-1.85 0.278,-0.555 0.364,-1.202 0.364,-1.202 l 1.764,-0.186 1.733,0.093 -0.531,-1.942 -1.109,-1.572 c 0,0 -0.833,-1.573 -1.856,-2.498 -1.023,-0.925 -0.827,-1.018 -1.567,-1.018 -0.74,0 -2.035,1.018 -2.868,1.11 -0.832,0.093 -2.943,0.925 -2.943,0.925 l -1.219,0.816 c 0,0 -0.863,1.403 -1.27,1.718 -0.406,0.314 -2.037,1.094 -2.037,1.094 0,0 -2.234,0.821 -2.593,0.955 -0.358,0.133 -0.8,-1.346 -0.8,-1.346 l -1.94,-0.555 h -1.812 c 0,0 -0.74,-0.555 -2.351,-0.463 -1.609,0.093 -5.605,0.833 -5.605,0.833 l -1.177,0.462 c 0,0 -1.043,0.74 -1.136,1.758 -0.093,1.018 -0.184,1.018 -0.556,1.018 -0.369,0 -1.295,-0.74 -1.85,-1.109 -0.555,-0.371 -1.11,-0.926 -1.11,-0.926 h -1.512 l 0.217,0.802 0.833,1.141 1.572,0.833 v 1.205 l -1.665,0.535 -0.921,0.726 -1.669,0.479 h -1.388 l -1.85,-0.448 -0.696,0.448 -0.641,0.8 1.374,1.196 c 0,0 0.561,0.512 1.187,0.846 0.626,0.333 1.259,0.682 1.517,0.838 0.259,0.156 1.005,0.49 0.957,0.96 -0.048,0.47 -0.117,0.97 -0.213,1.418 -0.097,0.448 -0.368,1.211 -0.832,1.637 -0.464,0.426 -1.31,1.244 -1.31,1.244 h 0.784 c 0,0 1.568,1.806 1.57,1.898 0,0.092 1.02,1.665 1.482,2.22 0.463,0.556 1.202,1.48 1.202,2.035 0,0.555 0,1.049 0,1.049 l -1.018,1.449 0.648,0.925 c 0.74,-0.37 1.85,-1.48 3.33,-2.035 1.48,-0.555 1.851,-1.11 2.775,-1.295 0.924,-0.185 1.48,-1.295 3.7,-2.405 2.22,-1.109 1.479,-3.699 2.405,-4.625 0.925,-0.925 1.109,-0.925 0.74,-1.85 -0.371,-0.925 -0.371,-1.665 -0.371,-1.665 0,0 1.48,1.11 2.221,1.665 0.741,0.555 -0.555,1.85 -1.295,2.404 -0.74,0.556 -0.186,1.48 0.555,2.221 0.741,0.741 3.145,0.74 5.18,0.555 2.035,-0.185 2.221,0 2.405,0.74 0.185,0.74 2.59,-0.37 4.07,-0.925 1.479,-0.556 4.81,-1.11 6.29,-2.405 z"
   style="fill:#677821" /><rect
   style="fill:none;stroke:#000000;stroke-width:0.29998;stroke-linejoin:bevel;stroke-dasharray:none;paint-order:stroke fill markers"
   id="rect2"
   height="4390.293"
   x="0.19998971"
   y="0.19998971"
   ry="0.69917101"
   width="4353.8188" /></svg>
