<?xml version="1.0" encoding="UTF-8" standalone="no"?>
<!-- Generator: Adobe Illustrator 22.1.0, SVG Export Plug-In . SVG Version: 6.00 Build 0)  -->

<svg
   version="1.1"
   x="0px"
   y="0px"
   viewBox="0 0 4354.1187 4390.5933"
   enable-background="new 0 0 1995.865 2834.646"
   xml:space="preserve"
   id="svg1596"
   width="4354.1187"
   height="4390.5933"
   xmlns="http://www.w3.org/2000/svg"
   xmlns:svg="http://www.w3.org/2000/svg"><defs
   id="defs1596" />


<g
   id="Pembrokeshire__x2F__Sir_Benfro__x3C_Group_x3E__2_"
   style="fill:#677821"
   transform="translate(1093.6405,660.66109)">
					<path
   id="Pembrokeshire_2_"
   fill="#606F38"
   d="m 963.997,2168.508 c 0,0 0.04,0.888 0.863,1.179 l -0.432,0.802 -0.56,0.832 c 0,0 -0.146,0.37 -0.81,0.833 -0.665,0.462 -1.775,0.647 -1.312,1.295 0.462,0.647 3.515,0.925 3.515,0.925 h 1.942 l 0.373,-4.077 0.738,0.377 c 1.233,0.863 0.74,0.987 1.85,2.96 1.11,1.974 0.247,2.713 1.974,2.837 1.727,0.123 1.413,-1.851 3.852,-1.233 2.438,0.617 3.426,0.135 3.672,1.239 0.247,1.104 0.092,1.851 0.971,2.002 0,0 1.372,1.353 1.372,1.538 0,0.185 0,2.312 0,2.312 l 1.11,1.541 1.758,1.049 1.295,2.577 2.312,1.678 1.018,0.463 c 0,0 1.202,2.774 0.647,4.625 -0.556,1.85 -1.48,1.695 -2.498,2.188 -1.018,0.494 -4.255,0.863 -4.255,0.863 0,0 -0.832,0.494 -1.479,0.494 -0.647,0 -1.388,0.894 -1.665,1.541 -0.277,0.648 -0.833,2.683 -1.481,2.775 -0.647,0.093 -2.127,0 -2.127,0 l -1.765,-1.363 -1.879,1.172 -1.939,1.64 -1.254,1.243 c 0,0 -1.577,-0.286 -2.227,-0.934 -0.65,-0.648 -2.222,-2.035 -2.222,-2.035 l -1.356,1.758 -1.604,1.211 h -1.908 l -1.545,1.397 v 1.091 c 0,0 -0.216,1.488 0,1.623 0.216,0.135 -0.096,1.152 -0.096,1.152 l 2.161,0.74 v 1.377 l 0.37,2.692 -0.37,1.296 0.185,0.462 v 1.988 l 0.092,1.157 -0.277,1.657 -0.81,1.395 2.863,0.37 1.802,0.37 1.479,-0.123 1.033,0.618 1.026,0.355 c 0,0 0.507,0.127 0.766,0.933 0.258,0.807 0.845,1.985 0.845,1.985 l 0.986,0.425 1.387,0.802 0.185,1.106 c 0,0 -1.11,0.937 -1.48,1.117 -0.369,0.182 -1.572,1.014 -1.572,1.014 l 0.463,1.48 -0.277,1.85 v 1.665 l 1.85,1.06 0.277,2.271 -0.277,1.388 -0.092,1.572 0.14,1.721 -1.25,0.222 c -1.48,-0.185 -1.851,-0.185 -3.885,0.74 -2.035,0.925 -2.775,0.74 -3.515,2.59 -0.74,1.85 -0.37,3.33 0.185,4.255 0.555,0.925 2.035,-1.11 0.555,0.925 -1.48,2.035 -2.22,2.221 -2.035,3.33 0.185,1.11 0.185,1.295 -0.37,2.035 -0.555,0.74 0.37,-1.85 -0.555,0.74 -0.925,2.59 0.555,2.22 -0.925,2.59 -1.481,0.37 -5.365,0.555 -5.92,1.11 -0.555,0.555 -0.74,0.739 -1.85,1.479 -1.11,0.74 -0.555,2.221 -1.665,1.85 -1.11,-0.369 -2.035,-0.555 -2.59,-1.109 -0.555,-0.555 -1.85,-0.74 -2.775,-0.925 -0.925,-0.186 -1.11,0 -2.96,-0.186 -1.85,-0.185 0.185,-2.034 -1.85,-0.185 -2.035,1.849 -2.775,2.59 -3.7,3.33 -0.925,0.74 -2.035,0.555 -1.85,1.665 0.185,1.109 0.185,1.109 0.185,1.109 0,0 1.295,0.74 0.74,1.48 -0.555,0.74 -1.48,0.185 -2.405,0.555 -0.925,0.37 -0.74,1.665 -1.479,2.22 -0.74,0.556 -2.035,0 -2.775,0 -0.74,0 -1.665,0 -2.59,-0.739 -0.925,-0.74 -0.37,-2.035 -2.59,-1.665 -2.22,0.37 -1.851,0.185 -4.07,-0.555 -2.22,-0.74 -2.775,-1.11 -3.885,-1.296 -1.11,-0.185 -1.11,1.296 -2.035,-0.185 -0.925,-1.481 -0.555,-2.59 0.185,-3.145 0.74,-0.556 0.37,-1.666 0.185,-2.591 -0.185,-0.925 -0.185,-2.59 -0.74,-3.145 -0.555,-0.556 -0.555,-1.11 -1.479,-1.11 -0.925,0 -3.516,-0.185 -4.44,-0.74 -0.925,-0.555 -3.144,-2.96 -3.144,-2.96 0,0 2.59,0.74 2.22,-0.37 -0.37,-1.109 -1.665,-2.22 -0.37,-2.22 1.295,0 1.665,0.556 2.775,0.556 1.109,0 1.85,-0.186 2.035,0.739 0.185,0.925 -0.185,1.48 0.925,1.851 1.109,0.369 1.479,0 2.405,0.185 0.925,0.185 2.405,0 1.294,-1.11 -1.109,-1.109 -1.665,-1.664 -0.739,-2.034 0.925,-0.37 0.37,-0.186 2.405,0.37 2.035,0.555 1.665,0.185 3.33,0.369 1.664,0.186 2.035,-0.739 2.775,0.186 0.74,0.925 0.37,1.295 0.74,2.22 0.37,0.925 0.925,0.74 2.22,0.74 1.295,0 2.22,-0.185 3.145,-0.185 0.925,0 3.33,0 2.775,-0.74 -0.555,-0.74 -3.515,-0.926 -4.255,-0.926 -0.74,0 -3.515,-1.295 -2.96,-1.295 0.555,0 1.48,-1.295 2.035,-1.479 0.555,-0.185 2.035,-0.37 2.035,-0.37 l 1.665,-0.925 c 0,0 1.295,-0.74 1.11,0.37 -0.185,1.109 0.186,1.295 1.11,1.109 0.925,-0.185 -0.925,-1.295 0,-1.85 0.925,-0.555 1.295,-0.555 2.22,-0.74 0.925,-0.185 2.59,-0.925 1.85,-1.479 -0.74,-0.556 -1.11,-0.556 -2.405,-0.186 -1.295,0.37 0.185,-0.555 -1.295,0.37 -1.48,0.925 -1.48,0.555 -2.59,0.74 -1.11,0.185 -0.74,0 -2.035,0.555 -1.295,0.555 -2.405,0 -3.33,0.37 -0.925,0.37 -1.11,1.665 -2.405,1.295 -1.295,-0.37 -2.405,-0.925 -3.33,-1.295 -0.925,-0.37 -1.665,-0.925 -2.59,-1.295 -0.925,-0.37 0.74,-1.295 -0.925,-0.37 -1.665,0.925 -0.925,-0.185 -2.775,0.555 -1.85,0.74 -2.405,0.926 -3.145,0.186 -0.74,-0.74 -1.48,-3.516 -2.405,-3.33 -0.925,0.185 1.11,1.295 -0.74,1.48 -1.85,0.185 0.74,0 -1.85,0.185 -2.59,0.185 -2.22,1.11 -3.7,0.555 -1.48,-0.555 -0.925,-0.555 -2.035,-1.479 -1.11,-0.926 -2.59,-2.405 -1.665,0 0.925,2.404 0,1.85 0.925,2.404 0.925,0.556 1.665,0 1.85,1.48 0.185,1.48 -0.74,2.59 -0.74,2.59 0,0 -1.85,0.186 -1.48,1.11 0.37,0.925 2.035,1.295 0.37,0.925 -1.666,-0.37 -2.22,-0.555 -2.59,-1.85 -0.37,-1.295 1.295,-0.556 -0.185,-2.405 -1.481,-1.851 0.555,0.185 -1.481,-1.851 -2.035,-2.035 -1.479,-2.22 -2.96,-2.404 -1.479,-0.186 -3.515,-1.665 -4.069,-2.221 -0.556,-0.555 -0.74,-1.85 0.185,-1.479 0.925,0.37 1.48,0 3.33,0.555 1.85,0.556 2.775,0.186 2.775,-1.11 0,-1.295 0,-2.959 0.555,-2.774 0.555,0.185 2.035,0.37 2.774,-0.925 0.74,-1.295 1.48,-2.405 2.775,-2.775 1.295,-0.37 3.33,-0.37 3.33,-0.37 0,0 0.37,1.11 1.85,0.37 1.48,-0.74 3.145,-1.295 2.59,-2.775 -0.555,-1.479 0.37,-5.18 0,-6.104 -0.37,-0.925 -1.11,-2.59 -1.295,-3.146 -0.185,-0.555 -0.185,-3.329 -0.555,-3.885 -0.37,-0.555 -1.665,-3.515 -2.22,-3.699 -0.555,-0.186 -5.365,0.369 -6.105,-0.556 -0.74,-0.925 -0.925,-0.739 -2.035,-0.925 -1.11,-0.186 -1.48,-0.186 -2.035,-0.555 -0.555,-0.37 -3.7,-0.37 -5.92,-0.37 -2.221,0 -2.405,0 -3.7,0.925 -1.295,0.925 -2.405,1.85 -3.146,1.48 -0.74,-0.37 -2.22,1.109 -2.59,0.555 -0.37,-0.555 1.48,-2.035 1.48,-2.775 0,-0.74 -0.74,-0.74 -0.74,-1.85 0,-1.11 0.925,-0.74 1.48,-1.48 0.555,-0.74 1.85,-0.555 0.925,-1.85 -0.925,-1.295 -0.925,-1.295 -0.925,-1.295 0,0 -2.22,0.555 -1.666,-0.555 0.556,-1.11 2.405,-1.851 3.146,-2.035 0.74,-0.186 1.295,0.925 2.59,0.185 1.295,-0.74 2.96,-1.479 4.07,-2.405 1.11,-0.925 1.11,-1.109 2.405,-1.479 1.295,-0.37 -0.185,0.37 1.295,-0.37 1.479,-0.74 0.925,-1.48 1.85,-2.22 0.925,-0.74 0.37,-2.035 1.665,-1.851 1.295,0.186 1.85,0.556 2.775,0.37 0.925,-0.185 1.11,0 2.22,-0.555 1.11,-0.556 1.295,-1.11 1.48,-1.665 0.185,-0.555 0.555,-1.85 1.85,-0.925 1.295,0.925 0.555,0.37 1.85,0 1.295,-0.37 0,0.37 1.295,-0.37 1.295,-0.74 1.665,-0.37 2.22,-0.925 0.555,-0.556 1.11,1.295 0.555,-0.556 -0.555,-1.85 -0.555,-0.369 -0.555,-1.85 0,-1.481 0.185,-0.186 0,-1.48 -0.185,-1.295 -2.035,0 -0.185,-1.295 1.85,-1.295 1.85,0.37 1.85,-1.295 0,-1.665 1.295,-0.74 0,-1.665 -1.295,-0.925 -1.665,-0.925 -0.925,-1.85 0.74,-0.925 0.37,-1.665 1.48,-2.405 1.109,-0.74 1.295,-0.555 2.035,0 0.74,0.555 2.59,-0.74 3.33,-0.37 0.74,0.37 1.11,0.37 1.665,0.74 0.555,0.37 0.37,0.37 2.035,0.185 1.664,-0.185 2.405,-0.185 2.59,0.37 0.185,0.556 -0.185,2.221 0.74,2.405 0.925,0.186 1.851,-0.185 1.851,0.555 0,0.74 -0.555,0.74 0.185,1.665 0.74,0.925 1.295,-0.185 2.405,-0.37 1.11,-0.185 1.48,-1.85 2.59,-1.664 1.11,0.185 1.48,-0.186 1.665,-0.926 0.185,-0.74 1.85,-0.925 1.11,-1.479 -0.74,-0.556 -1.48,-1.48 -0.37,-1.851 1.11,-0.369 1.479,-0.925 2.22,0 0.74,0.926 -1.11,0.186 0.74,0.926 1.85,0.739 2.405,0.369 4.81,0.925 2.405,0.555 3.885,0.555 3.885,0.555 0,0 0.37,-0.74 -0.74,-1.479 -1.11,-0.74 -0.37,-1.295 -1.295,-1.851 -0.925,-0.555 -0.74,-1.11 0,-2.035 0.74,-0.925 1.295,-1.479 1.85,-2.034 0.555,-0.556 0.185,-1.295 1.665,-0.926 1.48,0.37 2.22,0.74 3.515,-0.185 1.295,-0.925 2.405,-2.96 3.33,-3.885 0.925,-0.925 1.11,-2.035 1.851,-2.775 0.739,-0.74 0.925,-1.665 0.739,-2.405 -0.185,-0.74 0.556,-2.035 1.11,-2.59 0.555,-0.555 0.555,-1.109 1.665,-0.37 1.11,0.74 1.295,1.11 2.59,1.851 1.295,0.74 2.405,0.185 2.405,1.109 0,0.926 0.185,2.96 0.185,2.96 z"
   style="fill:#677821" />
					<path
   id="Ramsey_Island__x2F__Ynys_Dewi_1_"
   fill="#606F38"
   d="m 874.456,2215.443 c 0,0 0.123,0.863 -0.494,0.812 -0.617,-0.05 -0.493,1.284 0,2.023 0.493,0.74 0.987,0.494 1.485,0.617 0.498,0.123 1.229,0 1.432,-0.74 0.203,-0.74 -0.203,-1.232 -0.696,-1.973 -0.494,-0.74 0.37,-0.987 0.617,-1.85 0.247,-0.863 -0.124,-0.864 -0.494,-0.617 -0.37,0.246 -0.863,-0.37 -1.233,0 -0.37,0.37 -1.11,0.617 -1.11,0.617 z"
   style="fill:#677821" />
					<path
   id="Skomer_Island__x2F__Ynys_Skomer_1_"
   fill="#606F38"
   d="m 879.266,2245.783 c 0.37,0.37 0.863,0.246 1.727,0.493 0.863,0.247 1.11,0.247 1.124,0 0.014,-0.247 0.85,-0.616 1.22,-1.11 0.37,-0.492 1.109,0.247 1.48,0 0.37,-0.246 0,-0.739 -0.494,-1.531 -0.493,-0.791 -0.986,-0.071 -1.479,0 -0.494,0.072 -0.74,-0.812 -1.604,-0.564 -0.863,0.246 -1.11,-0.617 -1.48,0 -0.37,0.616 -0.367,1.009 -0.494,1.356 -0.493,1.356 -0.37,0.986 0,1.356 z"
   style="fill:#677821" />
					<path
   id="Skokholm_Island__x2F__Ynys_Sgoc-holm_1_"
   fill="#606F38"
   d="m 883.706,2254.17 c 0.493,0.123 0.863,0.123 1.26,-0.616 0.397,-0.74 0.344,-0.494 0.96,-0.966 0.617,-0.471 0,-0.639 -0.96,-0.885 -0.96,-0.246 -0.767,0.123 -1.63,0.493 -0.863,0.37 -0.863,1.357 -0.863,1.357 0,0 0.74,0.494 1.233,0.617 z"
   style="fill:#677821" />
					<path
   id="Caldey_Island__x2F__Ynys_Byr_1_"
   fill="#606F38"
   d="m 960.296,2265.764 c 0,0 0.616,0.739 0.863,1.356 0.247,0.616 0.986,0.74 1.357,0.863 0.371,0.123 1.48,0 1.48,0 v -1.083 l 0.863,-1.137 c 0,0 -0.371,-0.617 -0.987,-0.617 -0.616,0 -1.85,0 -1.85,0 l -0.986,-0.617 c 0.001,0 -1.188,0.629 -0.74,1.235 z"
   style="fill:#677821" />
				</g><rect
   style="fill:none;stroke:#000000;stroke-width:0.29998;stroke-linejoin:bevel;stroke-dasharray:none;paint-order:stroke fill markers"
   id="rect2"
   height="4390.293"
   x="0.19998971"
   y="0.19998971"
   ry="0.69917101"
   width="4353.8188" /></svg>
