<?xml version="1.0" encoding="UTF-8" standalone="no"?>
<!-- Generator: Adobe Illustrator 22.1.0, SVG Export Plug-In . SVG Version: 6.00 Build 0)  -->

<svg
   version="1.1"
   x="0px"
   y="0px"
   viewBox="0 0 4354.1187 4390.5933"
   enable-background="new 0 0 1995.865 2834.646"
   xml:space="preserve"
   id="svg1596"
   width="4354.1187"
   height="4390.5933"
   xmlns="http://www.w3.org/2000/svg"
   xmlns:svg="http://www.w3.org/2000/svg"><defs
   id="defs1596" />


<path
   id="Powys_2_"
   fill="#303B09"
   d="m 2157.9535,2724.5991 1.679,0.082 c 0,0 7.771,-0.185 8.64,0 0.87,0.185 1.998,1.572 2.553,2.128 0.556,0.555 0.648,3.885 0.463,5.364 -0.185,1.48 -0.463,3.793 -0.463,3.793 l 0.648,1.757 c 0,0 0.74,2.405 1.757,3.793 1.017,1.388 2.313,1.634 2.313,1.634 l 1.58,-1.26 0.146,-1.206 c 0,0 0.771,0.369 1.977,0.462 1.205,0.093 1.015,-1.202 1.199,-1.349 0.186,-0.146 1.11,-1.703 1.11,-1.703 0,0 0.647,-0.833 1.388,-1.018 0.74,-0.186 1.85,-0.71 1.85,-0.71 0,0 0.925,1.265 0.781,2.005 -0.145,0.739 -0.966,1.426 -0.966,1.426 0,0 0.185,1.071 0.185,1.904 0,0.832 -0.833,1.572 -1.109,2.188 -0.277,0.616 -2.036,0.906 -2.036,0.906 0,0 -0.37,0.975 -0.925,2.429 -0.555,1.453 -0.185,2.339 -0.185,2.339 l 0.277,2.22 1.594,0.832 3.165,2.591 v 0.739 l 1.254,0.833 1.912,2.035 0.505,1.849 0.228,4.694 0.896,1.365 0.221,1.095 1.739,2.011 1.591,0.086 c 0,0 0.688,-0.071 1.049,-0.086 0.361,-0.015 0.582,0.272 0.582,0.272 l -0.223,0.736 0.072,0.928 -1.48,0.555 -0.987,0.555 -4.193,1.018 -1.542,1.295 c 0,0 -1.295,1.11 -1.788,1.572 -0.494,0.463 -0.895,1.573 -0.987,2.128 -0.092,0.555 0.74,0.925 1.151,1.202 0.41,0.277 1.161,0.647 0.856,1.038 -0.305,0.39 0.12,0.72 -0.034,0.997 -0.154,0.277 -0.822,1.572 -0.822,1.572 l -0.164,1.833 1.678,0.591 0.456,0.675 1.197,1.587 0.585,0.493 -0.585,0.485 -1.542,0.164 c 0,0 -1.388,-0.37 -1.788,0 -0.401,0.37 -1.357,1.295 -1.66,1.942 -0.303,0.647 -0.252,1.572 0,2.405 0.252,0.832 -0.012,1.695 -0.012,1.695 l 0.012,2.784 -0.12,4.491 0.12,1.759 -0.119,12.857 0.011,1.278 -1.232,1.867 c 0,0 2.199,0.832 3.001,1.479 0.802,0.647 2.158,1.665 2.584,2.59 0.426,0.925 -0.611,1.758 -1.563,2.775 -0.953,1.018 0.12,0.74 0.86,1.572 0.74,0.833 2.035,1.202 2.035,1.202 l 2.96,1.573 c 0,0 1.11,1.295 0.783,1.961 -0.327,0.667 -0.135,1.739 0,2.201 0.136,0.463 1.067,0.463 1.385,0.74 0.316,0.277 1.625,1.572 2.272,2.405 0.647,0.832 -0.647,1.229 -0.647,1.229 0,0 -0.925,1.176 -1.624,1.897 -0.699,0.721 -0.874,1.868 -0.874,1.868 0,0 0.833,0.926 0.873,2.196 0.039,1.271 -0.595,1.504 -1.385,2.521 -0.789,1.018 -1.801,1.758 -2.17,2.22 -0.37,0.463 -0.748,1.503 -0.748,1.503 h 0.748 l -0.37,1.365 -1.203,1.572 c 0,0 -0.37,1.851 -0.462,2.059 -0.093,0.209 -0.093,2.032 -0.093,2.032 l 0.555,0.415 -1.85,1.6 -0.093,2.034 c 0,0 -0.37,1.388 -0.462,2.312 -0.093,0.926 0,1.943 0.648,2.868 0.647,0.925 0.462,1.388 0.462,2.867 0,1.48 -0.74,2.128 -1.572,3.7 -0.832,1.572 -2.775,3.422 -3.885,4.162 -1.11,0.74 -2.467,2.744 -2.467,2.744 -1.233,1.48 -0.616,2.59 -0.863,3.738 -0.246,1.148 -0.123,1.936 -1.213,3.539 -1.089,1.603 -1.007,0.369 -1.768,2.467 l -0.309,1.225 0.309,0.764 v 0 l 1.309,2.591 c 0,0 0.796,0.365 1.179,0.724 0.383,0.358 1.357,1.604 1.357,1.604 v 0.736 l 0.432,1.145 c 0,0 1.614,1.109 3.212,0.37 1.598,-0.74 2.431,-3.363 2.431,-3.363 v -1.169 c 0,0 1.11,-0.37 2.59,-0.37 1.479,0 3.978,-0.521 3.978,-0.521 l 3.013,-1.206 1.058,0.803 0.832,0.403 1.203,0.706 1.387,0.863 h 1.573 1.11 0.647 l 0.468,0.491 0.734,1.112 0.555,0.736 0.568,2.202 c 0,0 0.71,-0.433 1.344,-0.94 0.633,-0.51 0.921,-1.998 0.921,-1.998 l 0.288,-1.604 2.151,-0.4 0.925,-0.926 c 0,0 1.388,-0.925 1.758,-1.264 0.37,-0.34 2.312,-2.251 3.145,-2.898 0.833,-0.647 2.96,-1.388 4.131,-2.22 1.17,-0.833 1.05,-2.898 1.05,-2.898 h 2.158 l 1.144,1.538 1.315,-1.538 c 0,0 0.192,-0.339 1.117,-1.079 0.925,-0.74 1.942,-0.555 2.405,0 0.462,0.555 0.462,1.109 0.462,1.85 0,0.741 0.186,1.203 0.463,1.295 0.277,0.093 1.758,0.093 2.405,0.556 0.647,0.462 2.035,1.85 2.035,1.85 0,0 0.647,0.833 0.647,1.295 0,0.463 -0.093,0.74 0.647,1.018 0.74,0.277 2.594,0 2.594,0 l 0.917,0.202 1.977,-0.923 v -1.776 l 3.484,-4.988 6.845,3.383 3.7,-0.43 1.942,0.43 5.643,-0.707 1.295,-0.74 c 0,0 0.918,-1.743 1.152,-1.936 0.235,-0.192 1.619,-0.429 1.482,-0.865 -0.137,-0.436 0.622,-0.729 0.622,-0.729 h 1.461 l 1.603,-0.664 c 0,0 0.705,-0.617 0.707,-0.986 0,-0.37 -0.082,-1.671 0.376,-1.761 0.458,-0.09 0.921,-0.922 1.476,-1.2 0.555,-0.277 0.895,-0.495 1.141,-1.496 0.246,-1.001 0,-2.019 0,-2.019 l -0.019,-0.678 c 0,0 0.38,-0.239 0.883,-0.457 1.479,-0.9 2.467,0.827 2.96,-1.023 0.493,-1.85 0.863,-1.974 0,-4.069 -0.864,-2.098 -0.617,-2.961 -2.714,-4.317 -2.097,-1.356 -1.973,-2.139 -2.466,-4.029 -0.493,-1.89 -0.128,-0.765 -1.03,-2.787 0,0 0.718,-0.998 0.565,-1.393 -0.153,-0.394 -0.7,-0.764 -0.796,-1.781 -0.096,-1.017 0.579,-1.973 0.796,-1.958 0.217,0.016 1.142,0 1.142,0 l 1.307,-1.372 -0.875,-1.726 c -0.37,-1.111 -1.234,-3.577 -1.234,-3.577 0,0 -1.603,-2.221 -1.603,-2.714 0,-0.493 -0.493,-3.084 0,-3.7 0.493,-0.616 0.986,-1.958 0.37,-3.137 -0.617,-1.18 -2.467,-2.413 -2.467,-3.029 0,-0.617 -2.347,-2.477 -2.096,-2.714 0.251,-0.236 0.411,-1.304 0.411,-1.304 0,0 0.672,-0.595 0.687,-0.786 0.015,-0.191 -0.354,-1.917 -0.358,-2.35 0,-0.433 0.062,-4.872 0.062,-4.872 0,0 -0.37,-0.74 -1.295,-1.233 -0.925,-0.493 -1.789,-1.233 -1.418,-2.035 0.371,-0.802 1.295,-1.109 2.652,-1.603 1.356,-0.493 2.837,-1.11 3.823,-1.727 0.986,-0.617 2.59,-1.356 2.097,-1.974 -0.493,-0.618 -0.37,-0.246 -1.974,0 -1.604,0.246 -3.083,0.617 -3.207,-1.233 -0.123,-1.851 -0.124,-1.85 1.11,-3.206 1.233,-1.357 0.74,-1.48 1.11,-3.7 0.37,-2.22 1.233,-3.206 1.727,-3.7 0.493,-0.494 1.727,-1.85 1.48,-2.96 -0.247,-1.11 -0.124,-1.851 0.494,-2.467 0.616,-0.616 2.836,-0.863 2.836,-0.863 0,0 -0.124,-1.479 0.246,-2.097 0.37,-0.617 0.987,-1.11 2.098,-1.48 1.109,-0.369 1.232,-0.986 2.59,-1.356 1.356,-0.37 1.727,0.247 3.33,0 1.603,-0.246 2.59,-0.863 3.207,-1.233 0.616,-0.369 2.959,-0.863 0.739,-1.109 -2.22,-0.247 -2.467,0.863 -3.946,0 -1.48,-0.863 -2.467,0.123 -2.467,-1.727 0,-1.851 0,-2.358 0.493,-3.522 0.493,-1.165 0.37,-1.403 0.37,-3.011 0,-1.608 -1.48,-1.977 0.37,-2.964 1.85,-0.987 2.59,-0.74 3.576,-1.974 0.987,-1.233 1.727,-2.836 1.727,-2.836 l 0.236,-0.945 c 0,0 -3.241,-0.951 -3.688,-0.781 -0.448,0.169 -4.07,-0.021 -4.07,-0.021 l -3.207,0.883 -1.251,0.558 c 0,0 -0.911,-0.592 -1.495,-1.006 -0.584,-0.414 -0.675,-0.236 -0.877,-0.875 -0.202,-0.639 -4.001,-2.936 -4.875,-3.026 -0.874,-0.09 -0.922,-1.385 -0.922,-1.385 l -1.956,-1.636 -1.079,-0.595 -3.866,-2.519 c 0,0 -0.58,-0.915 -1.101,-1.426 -0.521,-0.51 -2.187,-1.657 -2.187,-1.657 0,0 0,-0.37 -1.11,-0.863 -1.11,-0.493 -2.467,-0.863 -3.207,-1.974 -0.74,-1.109 -0.74,-0.986 -1.604,-2.343 -0.864,-1.357 -1.603,-0.616 -0.863,-2.837 0.74,-2.22 -0.247,-2.467 1.604,-3.823 1.85,-1.356 1.356,-0.863 3.33,-1.85 1.973,-0.987 2.836,-1.851 5.673,-3.084 2.837,-1.233 1.974,-2.22 5.304,-2.343 3.33,-0.123 4.562,-0.617 6.906,-0.617 2.344,0 2.837,0.987 3.577,-0.616 0.74,-1.603 0.37,-3.207 0.74,-3.946 0.369,-0.74 2.59,-1.234 3.206,-1.728 0.616,-0.494 0.863,-1.479 0.987,-1.85 0.123,-0.37 0.123,-4.316 0.123,-4.934 0,-0.616 0.369,-1.604 -0.123,-2.467 -0.494,-0.863 -0.617,-0.739 -1.48,-1.11 -0.863,-0.369 0.617,-0.616 -0.863,-0.369 -1.48,0.246 -1.973,0.493 -2.713,1.233 -0.74,0.739 -0.617,0.739 -1.48,1.727 -0.863,0.986 -0.987,0.739 -1.974,1.356 -0.986,0.617 -1.479,0.123 -2.713,0.74 -1.234,0.617 -1.356,1.232 -0.863,1.85 0.493,0.618 1.85,1.727 0.863,2.467 -0.987,0.74 -0.493,0.617 -1.604,1.11 -1.11,0.493 -1.85,0.986 -2.837,0.986 -0.986,0 -1.603,0.493 -2.343,0 -0.74,-0.493 -1.726,-1.604 -0.74,-2.22 0.986,-0.617 1.11,-0.37 1.974,-1.11 0.863,-0.74 0.739,1.356 0.863,-0.74 0.124,-2.096 0.37,-2.59 -0.123,-3.33 -0.494,-0.739 -0.37,-0.862 -1.233,-2.097 -0.864,-1.232 -2.097,-1.604 -1.357,-2.836 0.74,-1.233 1.357,-1.48 2.467,-1.851 1.11,-0.37 1.727,-0.123 2.96,-1.603 1.233,-1.48 1.604,-3.947 1.851,-4.44 0.247,-0.493 0,-0.493 0.863,-1.727 0.864,-1.234 2.097,-1.604 2.467,-1.851 0.37,-0.246 0.247,-0.698 -1.233,-1.212 -1.48,-0.515 -2.591,-0.391 -0.864,-1.131 1.727,-0.74 2.097,-0.863 2.713,-1.604 0.617,-0.74 0.617,-0.617 0.986,-1.851 0.37,-1.232 0.247,-2.096 0.37,-3.083 0.124,-0.986 0.124,-0.986 0.124,-0.986 0,0 0,-2.22 0.123,-2.714 0.123,-0.492 0.617,-1.232 0.986,-1.603 0.37,-0.37 0.617,-0.493 1.11,-0.987 0.493,-0.493 0,-1.356 0.37,-2.22 0.37,-0.864 0.493,-0.493 0.74,-1.727 0.246,-1.233 1.48,-0.987 1.85,-1.11 0.37,-0.123 1.727,0 1.727,0 0,0 0.246,-1.22 1.109,-0.055 0.864,1.165 0.248,1.658 1.604,1.781 1.357,0.123 2.714,0.494 1.974,-0.863 -0.739,-1.356 0.247,-1.603 -0.739,-2.22 -0.987,-0.616 1.017,0.154 -0.987,-0.616 -2.004,-0.771 -1.291,-0.691 -1.291,-0.691 0,0 0.489,1.369 -0.713,-0.08 -1.202,-1.449 -0.586,-1.572 -1.079,-2.312 -0.493,-0.739 -0.987,-0.369 -1.851,-0.986 -0.862,-0.617 -1.603,0.739 -0.862,-0.617 0.739,-1.355 1.603,-1.85 0.246,-2.22 -1.357,-0.37 1.233,0.493 -1.356,-0.37 -2.591,-0.863 -2.344,-1.479 -3.577,-1.479 -1.233,0 -0.863,0.616 -1.85,0 -0.987,-0.616 -3.083,-1.11 -3.083,-1.11 l -0.37,-2.344 -0.247,-0.986 c 0,0 1.356,-0.986 0.493,-1.233 -0.863,-0.247 -0.37,-1.603 -1.85,0 -1.48,1.604 -1.233,1.974 -2.96,1.851 -1.726,-0.123 -3.207,-0.617 -3.7,-0.987 -0.493,-0.37 -0.948,-1.479 -1.152,-2.343 -0.204,-0.863 -0.328,-0.494 -0.821,-1.357 -0.493,-0.863 -0.863,-1.479 -0.37,-2.343 0.493,-0.864 0.493,-1.356 0.493,-1.356 0,0 0.163,-0.247 0.698,-0.986 0.536,-0.74 0.205,-0.74 0,-1.728 -0.204,-0.986 -0.535,-1.727 0,-2.59 0.536,-0.863 0.412,-1.306 1.152,-1.701 0.74,-0.396 0.986,-0.272 1.727,-1.259 0.741,-0.987 0.863,-1.233 -0.123,-2.22 -0.987,-0.987 -0.864,0.986 -0.987,-0.987 -0.123,-1.973 -0.493,-0.616 -0.123,-1.973 l 0.298,-0.761 -1.408,-0.936 c 0,0 -1.295,-0.647 -2.682,-0.925 -1.388,-0.277 -1.388,-0.186 -1.943,0 -0.555,0.185 -1.35,1.202 -1.35,1.202 l -1.518,1.11 c 0,0 -2.497,3.237 -2.96,3.792 -0.462,0.556 -3.885,1.018 -4.964,0.925 -1.08,-0.092 -2.898,-1.85 -3.546,-2.682 -0.647,-0.833 -1.48,-0.74 -2.775,-1.129 -1.295,-0.388 -2.774,-0.722 -4.348,-1.184 -1.572,-0.463 -3.237,-0.186 -3.607,0 -0.37,0.185 -0.925,2.127 -1.943,3.053 -1.018,0.925 -5.643,1.85 -7.77,2.28 -2.128,0.431 -4.718,0.09 -4.718,0.09 0,0 -1.388,1.699 -2.006,2.994 -0.619,1.295 -3.174,2.683 -3.174,2.683 l -4.995,1.11 c 0,0 -2.22,1.665 -2.683,1.85 -0.463,0.185 -1.665,0.093 -1.973,0.463 -0.308,0.37 -0.802,2.59 -1.079,3.145 -0.277,0.556 -1.018,3.33 -1.11,4.07 -0.092,0.74 1.11,1.85 1.11,2.683 0,0.832 0.463,2.22 0.37,3.569 -0.092,1.35 0.555,3.368 0.709,3.923 0.154,0.555 0.678,1.942 0.586,2.498 -0.092,0.555 -1.348,1.757 -1.348,1.757 l -0.403,3.053 -0.376,2.405 -2.15,1.295 -4.051,0.462 -3.882,0.74 -1.819,1.356 c 0,0 -0.167,0.842 -0.608,1.727 -0.442,0.886 -1.273,0.432 -1.273,0.432 0,0 -1.572,-0.277 -2.127,-0.739 -0.555,-0.463 -1.758,-0.093 -2.697,0 -0.94,0.093 -2.575,1.572 -3.13,1.938 -0.555,0.364 -2.775,-0.643 -3.608,-0.828 -0.832,-0.185 -1.942,-0.555 -2.22,-0.555 -0.278,0 -1.244,1.018 -1.244,1.018 0,0 -1.161,1.479 -1.77,2.22 -0.609,0.741 -1.704,2.128 -1.704,2.128 0,0 0.278,1.757 0.278,2.22 0,0.463 0.74,1.203 0.74,1.572 0,0.37 -1.018,1.018 -1.202,1.066 -0.185,0.049 -0.277,2.634 -0.37,4.206 -0.093,1.573 -0.304,2.953 -0.894,3.083 -0.591,0.131 -1.884,0.52 -2.284,0.781 -0.399,0.262 -1.17,1.439 -1.988,2.326 -0.818,0.888 -0.939,0.666 -2.388,1.333 -1.449,0.667 -2.628,1.067 -2.797,1.177 -0.175,0.112 -1.972,2.23 -1.972,2.23 z"
   style="fill:#677821" /><rect
   style="fill:none;stroke:#000000;stroke-width:0.29998;stroke-linejoin:bevel;stroke-dasharray:none;paint-order:stroke fill markers"
   id="rect2"
   height="4390.293"
   x="0.19998971"
   y="0.19998971"
   ry="0.69917101"
   width="4353.8188" /></svg>
