<?xml version="1.0" encoding="UTF-8" standalone="no"?>
<!-- Generator: Adobe Illustrator 22.1.0, SVG Export Plug-In . SVG Version: 6.00 Build 0)  -->

<svg
   version="1.1"
   x="0px"
   y="0px"
   viewBox="0 0 4354.1187 4390.5933"
   enable-background="new 0 0 1995.865 2834.646"
   xml:space="preserve"
   id="svg1596"
   width="4354.1187"
   height="4390.5933"
   xmlns="http://www.w3.org/2000/svg"
   xmlns:svg="http://www.w3.org/2000/svg"><defs
   id="defs1596" />


<path
   id="Rhondda_Cynon_Taf_2_"
   fill="#6C833C"
   d="m 2252.2255,2946.0781 v -1.616 l -0.555,-1.388 c 0,0 -0.556,-1.665 -0.648,-2.035 -0.092,-0.37 -2.775,-2.774 -2.775,-2.774 h -2.282 l -1.317,-2.33 -0.749,-2.11 v -1.604 -3.206 l -0.626,-1.28 -0.607,-1.192 -0.154,-0.303 -0.616,-1.172 0.315,-0.52 c 0,0 -2.628,-2.193 -3.568,-3.581 -0.94,-1.388 -2.883,-3.927 -3.068,-4.923 -0.185,-0.997 -2.22,-4.327 -3.052,-5.16 -0.833,-0.832 -3.7,-3.792 -3.7,-3.792 l -2.128,-3.146 -2.59,-4.289 h 2.025 c 0,0 1.12,-0.034 1.583,0 0.463,0.034 0.369,0.515 0.925,-0.016 0.556,-0.529 0.233,-1.031 0.233,-1.031 l -2.362,-3.173 -0.646,-1.45 c 0,0 -0.746,-3.519 -0.805,-3.918 -0.059,-0.398 -0.148,-1.82 -0.148,-1.82 l -1.144,-1.538 h -2.158 c 0,0 0.12,2.065 -1.05,2.898 -1.171,0.832 -3.298,1.572 -4.131,2.22 -0.832,0.647 -2.774,2.559 -3.145,2.898 -0.37,0.339 -1.758,1.264 -1.758,1.264 l -0.925,0.926 -2.151,0.4 -0.288,1.604 c 0,0 -0.288,1.488 -0.921,1.998 -0.634,0.508 -1.344,0.94 -1.344,0.94 v 2.087 l 0.316,2.005 0.504,2.674 -0.504,2.167 v 2.22 3.607 l 0.504,4.718 1.141,2.036 v 2.192 h 1.944 l 1.909,0.581 2.491,2.59 1.117,1.48 1.418,2.004 0.596,1.085 0.884,0.765 c 0,0 2.342,1.357 2.774,1.864 0.433,0.508 -0.013,0.761 -0.013,0.761 l -0.375,1.57 c 0,0 -0.044,0.738 -0.128,1.565 -0.084,0.827 -0.825,0.992 -0.825,0.992 l 0.016,0.956 0.185,0.74 1.2,2.683 0.557,1.85 v 1.23 l -1.05,1.267 -1.078,2.185 -1.799,2.659 c 0,0 0.292,0.061 1.832,-0.479 1.54,-0.54 1.289,-0.75 2.095,-0.57 0.806,0.18 1.857,0.817 3.117,0.887 1.261,0.068 2.734,0.962 3.323,1.147 0.589,0.185 1.422,1.07 1.977,0.905 0.555,-0.166 1.677,-0.905 1.677,-0.905 l 1.746,-1.11 0.934,-0.412 1.401,0.937 c 0,0 0.901,0.818 1.922,0.947 l 1.902,0.094 v -1.103 c 0,0 0.177,-0.309 -0.309,-1.449 -0.485,-1.141 -1.031,-1.881 -0.296,-3.084 0.736,-1.202 1.63,-2.497 2.895,-2.96 1.264,-0.462 2.929,-1.114 3.577,-1.158 0.647,-0.044 1.203,0 1.203,0 l 0.555,1.251 0.631,0.446 0.259,1.045 1.607,-0.011 c 0,0 0.833,-1.11 1.11,-1.388 0.277,-0.278 1.388,-1.344 1.388,-1.344"
   style="fill:#677821" /><rect
   style="fill:none;stroke:#000000;stroke-width:0.29998;stroke-linejoin:bevel;stroke-dasharray:none;paint-order:stroke fill markers"
   id="rect2"
   height="4390.293"
   x="0.19998971"
   y="0.19998971"
   ry="0.69917101"
   width="4353.8188" /></svg>
