<?xml version="1.0" encoding="UTF-8" standalone="no"?>
<!-- Generator: Adobe Illustrator 22.1.0, SVG Export Plug-In . SVG Version: 6.00 Build 0)  -->

<svg
   version="1.1"
   x="0px"
   y="0px"
   viewBox="0 0 4354.1187 4390.5933"
   enable-background="new 0 0 1995.865 2834.646"
   xml:space="preserve"
   id="svg1596"
   width="4354.1187"
   height="4390.5933"
   xmlns="http://www.w3.org/2000/svg"
   xmlns:svg="http://www.w3.org/2000/svg"><defs
   id="defs1596" />


<path
   id="Swansea__x2F__Abertawe_2_"
   fill="#303B09"
   d="m 2164.5265,2931.6941 c -0.378,-1.575 0.287,-3.235 0.287,-3.235 l 1.295,-3.515 1.387,-3.607 1.387,-1.572 0.647,-1.11 c 0.14,-0.835 0.152,-1.646 0.704,-2.273 0.628,-0.714 1.248,-0.712 0.295,-1.655 -0.542,-0.537 -1.257,-0.888 -2.006,-1.019 -0.165,-0.028 -1.723,0.01 -1.723,-0.325 0,-0.01 0,-1.018 0,-1.018 v -1.018 c 0,0 -1.71,-1.572 -1.71,-2.722 0,-1.15 -0.093,-3.105 -0.556,-3.753 -0.462,-0.648 -2.404,-1.896 -2.404,-1.896 0,0 -1.573,-1.712 -1.851,-2.452 -0.278,-0.74 -1.018,-1.993 -1.018,-1.993 0,0 -1.387,-0.135 -1.757,0 -0.37,0.134 -1.943,0.883 -2.59,1.16 -0.648,0.278 -2.405,-0.277 -2.405,-0.277 0,0 -1.388,-1.479 -1.665,-1.386 -0.277,0.093 -1.513,-0.537 -1.66,0 -0.148,0.536 -0.546,2.039 -0.827,2.594 -0.281,0.556 -1.325,1.922 -2.394,3.25 -1.068,1.327 -2.71,3.493 -3,4.326 -0.289,0.833 -0.228,2.192 -0.325,3.428 -0.098,1.234 -0.481,1.389 -0.642,1.725 -0.161,0.336 -1.973,2.16 -2.714,2.693 -0.741,0.533 -0.544,1.062 -0.346,1.534 0.197,0.472 0.346,1.692 0.346,2.278 0,0.586 -1.428,2.008 -1.428,2.008 l 1.428,0.675 c 0,0 -1.11,0.556 -2.035,0.556 -0.925,0 -1.85,0.369 -2.775,1.109 -0.925,0.74 -1.11,1.11 -1.85,1.295 -0.74,0.186 -1.48,0.37 -2.22,1.48 -0.74,1.109 -0.555,1.295 -1.665,1.665 -1.11,0.37 -1.11,0.925 -2.035,1.109 -0.925,0.186 -1.48,-0.185 -2.775,0 -1.295,0.186 -2.22,-0.37 -2.96,-0.37 -0.74,0 -1.479,0.37 -2.59,-0.369 -1.11,-0.74 -1.48,0.555 -1.85,-0.186 -0.37,-0.74 0.555,-1.665 1.109,-1.85 0.556,-0.186 0.37,-0.926 0,-1.48 -0.37,-0.555 -1.295,-0.925 -1.664,0.37 -0.37,1.295 -0.185,1.295 -0.925,2.22 -0.74,0.926 -2.22,1.851 -3.885,3.516 -1.665,1.665 -2.59,0.185 -3.515,1.295 -0.925,1.109 0.925,1.665 1.665,3.33 0.74,1.665 0.74,3.885 0.555,4.994 -0.185,1.11 -1.665,1.851 -0.74,2.035 0.925,0.186 2.035,0.186 2.775,0.556 0.74,0.37 1.85,0.925 2.774,2.034 0.925,1.11 2.405,1.666 3.885,2.035 1.48,0.37 2.035,1.11 2.775,1.48 0.74,0.37 0.185,-1.85 0.185,-2.405 0,-0.555 1.11,-0.925 1.665,-0.555 0.555,0.37 2.775,0.37 3.145,0.925 0.37,0.555 1.85,0.74 2.59,0.555 0.74,-0.185 0.555,-1.109 0.37,-1.664 -0.185,-0.556 -1.295,-0.926 -2.035,-1.296 -0.74,-0.37 0.74,-1.479 1.295,-2.034 0.556,-0.556 1.11,-1.11 3.146,-1.295 2.035,-0.186 2.035,-0.186 2.775,0.369 0.74,0.556 1.294,0.74 2.96,0.926 1.665,0.185 2.22,0.925 2.96,1.479 0.74,0.554 0.925,-0.925 1.48,-1.479 0.555,-0.556 1.11,-0.37 1.85,-0.74 0.74,-0.37 2.035,0.555 2.96,0.555 0.925,0 1.295,-0.555 2.035,-0.185 0.74,0.37 1.48,0.925 2.59,0.739 1.11,-0.185 1.48,-0.555 1.11,-1.479 -0.37,-0.924 -1.48,-0.925 -2.405,-1.48 -0.925,-0.555 -0.37,-3.145 0.74,-4.995 1.11,-1.85 1.295,-0.369 2.59,-1.295 1.295,-0.925 1.11,-1.295 2.96,-1.664 1.851,-0.371 1.665,0.185 3.885,-0.556 2.22,-0.74 0,0 2.035,0.74 2.035,0.74 0,0 0.925,-0.556 z"
   style="fill:#677821" /><rect
   style="fill:none;stroke:#000000;stroke-width:0.29998;stroke-linejoin:bevel;stroke-dasharray:none;paint-order:stroke fill markers"
   id="rect2"
   height="4390.293"
   x="0.19998971"
   y="0.19998971"
   ry="0.69917101"
   width="4353.8188" /></svg>
