<?xml version="1.0" encoding="UTF-8" standalone="no"?>
<!-- Generator: Adobe Illustrator 22.1.0, SVG Export Plug-In . SVG Version: 6.00 Build 0)  -->

<svg
   version="1.1"
   x="0px"
   y="0px"
   viewBox="0 0 4354.1187 4390.5933"
   enable-background="new 0 0 1995.865 2834.646"
   xml:space="preserve"
   id="svg1596"
   width="4354.1187"
   height="4390.5933"
   xmlns="http://www.w3.org/2000/svg"
   xmlns:svg="http://www.w3.org/2000/svg"><defs
   id="defs1596" />


<path
   id="Torfaen__x2F__Tor-faen_2_"
   fill="#4B5A26"
   d="m 2291.5285,2930.2511 -0.36,-0.682 v -0.833 c 0,0 -2.035,-0.462 -2.312,-0.739 -0.277,-0.277 -0.74,-2.382 -0.74,-2.382 0,0 -0.925,-1.318 -1.109,-1.65 -0.186,-0.332 -0.833,-2.166 -1.056,-2.628 -0.223,-0.463 0.315,-1.942 1.148,-2.867 0.832,-0.926 1.017,-2.075 1.017,-2.075 v -0.759 h -0.925 c 0,0 -2.127,-0.034 -2.683,0 -0.555,0.034 0.186,-1.422 0.186,-1.791 0,-0.371 0.94,-1.203 0.94,-1.203 v -1.175 l -1.865,-0.49 -2.312,-0.555 c 0,0 -1.203,-0.833 -1.388,-1.388 -0.186,-0.555 0.647,-2.035 0.647,-3.237 0,-1.202 -0.186,-2.683 -0.555,-3.237 -0.371,-0.556 -1.389,-0.74 -1.635,-1.641 -0.247,-0.901 -0.4,-0.949 -0.123,-1.262 0.277,-0.312 0,-1.815 0,-2.34 0,-0.525 -1.758,-1.695 -2.22,-2.184 -0.462,-0.488 -2.127,-0.529 -3.177,-1.177 -1.05,-0.647 -2.65,-0.74 -2.723,-0.74 -0.071,0 -4.733,0 -4.733,0 0,0 0.358,1.429 0.408,1.917 0.05,0.488 0,0.857 0,0.857 l 3.103,3.666 c 0,0 0.833,0.959 0.555,1.699 -0.277,0.74 -0.071,2.59 0.057,3.053 0.128,0.463 0.406,2.405 0.406,3.423 0,1.017 0.462,3.199 0,3.635 -0.463,0.435 -0.647,2.285 -0.647,2.285 l -0.925,2.292 -0.593,1.415 1.148,0.085 1.942,0.01 c 0,0 0.833,-0.837 1.758,-0.375 0.925,0.463 1.757,0.833 1.757,1.48 0,0.647 0.186,2.59 0,3.33 -0.185,0.739 -0.832,2.563 -0.832,2.563 l -1.853,2.07 c 0,0 -0.553,0.576 -0.553,1.116 0,0.54 0.193,1.835 0.929,2.39 0.736,0.555 0.796,1.295 0.796,1.295 h 1.512 c 0,0 0.556,0.555 1.11,0.926 0.555,0.369 1.48,1.109 1.85,1.109 0.371,0 0.463,0 0.556,-1.018 0.093,-1.018 1.136,-1.758 1.136,-1.758 l 1.177,-0.462 c 0,0 3.995,-0.74 5.605,-0.833 1.61,-0.092 2.351,0.463 2.351,0.463 h 1.812 z"
   style="fill:#677821" /><rect
   style="fill:none;stroke:#000000;stroke-width:0.29998;stroke-linejoin:bevel;stroke-dasharray:none;paint-order:stroke fill markers"
   id="rect2"
   height="4390.293"
   x="0.19998971"
   y="0.19998971"
   ry="0.69917101"
   width="4353.8188" /></svg>
