<?xml version="1.0" encoding="UTF-8" standalone="no"?>
<!-- Generator: Adobe Illustrator 22.1.0, SVG Export Plug-In . SVG Version: 6.00 Build 0)  -->

<svg
   version="1.1"
   x="0px"
   y="0px"
   viewBox="0 0 4354.1187 4390.5933"
   enable-background="new 0 0 1995.865 2834.646"
   xml:space="preserve"
   id="svg1596"
   width="4354.1187"
   height="4390.5933"
   xmlns="http://www.w3.org/2000/svg"
   xmlns:svg="http://www.w3.org/2000/svg"><defs
   id="defs1596" />


<path
   id="Vale_of_Glamorgan__x2F__Bro_Morgannwg_2_"
   fill="#4B5A26"
   d="m 2260.3235,2967.1651 -0.544,0.354 -1.098,-0.543 -1.816,-1.046 c 0,0 0,-0.409 0,-1.181 0,-0.772 -0.089,-0.646 -0.089,-0.646 l -1.688,-1.599 -1.476,0.365 c 0,0 -1.48,0.463 -1.851,0.647 -0.37,0.186 -0.647,1.018 -2.127,1.203 -1.48,0.185 -0.926,-0.556 -1.665,-0.617 -0.74,-0.061 -1.295,-1.418 -1.573,-2.621 -0.277,-1.202 -1.11,-1.942 -1.749,-3.515 -0.639,-1.573 -1.519,-2.683 -1.519,-2.683 0,0 -0.464,0.181 -1.233,0.389 -0.769,0.208 -3.172,0.193 -4.192,0.065 -1.021,-0.129 -1.922,-0.947 -1.922,-0.947 l -1.401,-0.937 -0.934,0.412 -1.746,1.11 c 0,0 -1.122,0.739 -1.677,0.905 -0.555,0.165 -1.388,-0.721 -1.977,-0.905 -0.589,-0.186 -2.062,-1.079 -3.323,-1.147 -1.261,-0.069 -2.312,-0.707 -3.117,-0.887 -0.806,-0.18 -0.556,0.03 -2.095,0.57 -1.54,0.54 -1.832,0.479 -1.832,0.479 l -0.791,1.169 -2.689,1.758 -2.213,1.19 -0.925,1.307 -1.203,-0.832 h -2.004 l -1.645,0.739 -1.439,0.556 -2.052,0.601 -1.154,0.447 -1.443,1.073 -2.131,1.702 -0.065,1.356 c -0.185,0.925 1.48,1.11 2.775,2.035 1.295,0.925 2.035,1.479 2.035,2.035 0,0.555 1.11,1.11 2.59,1.85 1.479,0.74 0.74,3.33 1.479,3.33 0.74,0 1.85,2.96 2.59,3.7 0.74,0.74 1.85,0.74 4.07,0.186 2.22,-0.556 1.851,0.555 3.146,0.555 1.295,0 1.85,0.925 3.145,0.74 1.295,-0.186 2.59,0.555 3.146,0.739 0.555,0.186 2.96,0.925 5.364,0.74 2.405,-0.185 1.48,0.74 2.035,0.925 0.556,0.186 3.33,0.37 4.44,0.37 1.11,0 4.44,-0.555 5.92,-1.11 1.48,-0.555 2.59,-1.109 4.625,0 2.035,1.11 0,0 1.85,-0.555 1.851,-0.555 1.295,-0.37 2.775,-1.109 1.48,-0.74 1.665,-0.556 2.96,-1.295 1.295,-0.74 1.11,-0.74 2.59,-0.926 1.48,-0.185 1.85,0.74 2.96,0.74 1.11,0 2.035,-0.37 2.96,-1.48 0.925,-1.109 0.186,-2.404 0.186,-3.699 0,-1.295 0.37,-2.405 0.739,-3.33 0.37,-0.926 -0.185,-1.665 -1.295,-2.035 -1.107,-0.368 -0.502,0.229 -0.687,-0.697 z"
   style="fill:#677821" /><rect
   style="fill:none;stroke:#000000;stroke-width:0.29998;stroke-linejoin:bevel;stroke-dasharray:none;paint-order:stroke fill markers"
   id="rect2"
   height="4390.293"
   x="0.19998971"
   y="0.19998971"
   ry="0.69917101"
   width="4353.8188" /></svg>
