<?xml version="1.0" encoding="UTF-8" standalone="no"?>
<!-- Generator: Adobe Illustrator 22.1.0, SVG Export Plug-In . SVG Version: 6.00 Build 0)  -->

<svg
   version="1.1"
   x="0px"
   y="0px"
   viewBox="0 0 4354.1187 4390.5933"
   enable-background="new 0 0 1995.865 2834.646"
   xml:space="preserve"
   id="svg1596"
   width="4354.1187"
   height="4390.5933"
   xmlns="http://www.w3.org/2000/svg"
   xmlns:svg="http://www.w3.org/2000/svg"><defs
   id="defs1596" />


<path
   id="Wrexham__x2F__Wrecsam_2_"
   fill="#4B5A26"
   d="m 2290.6135,2597.4951 c 0.986,0.616 2.466,1.355 2.836,2.337 0.37,0.981 0.74,-0.364 1.356,0 0.617,0.365 0.494,0.499 1.48,1.239 0.986,0.74 0.617,0.246 1.85,-0.74 1.233,-0.986 0.74,-0.246 1.728,0 0.986,0.246 0,0 0,1.356 0,1.356 -0.534,0.556 -1.062,1.222 -0.527,0.667 -0.172,0.998 0.031,2.107 0.203,1.109 -0.08,0.618 -0.562,1.162 -0.481,0.545 -0.259,0.566 -0.259,0.566 0,0 1.355,1.111 1.851,1.355 0.495,0.244 0.753,0.333 0.986,0.987 0.233,0.653 0,0 -0.341,0.993 -0.34,0.992 0,0 0.094,0.856 0,0 0.867,0.479 1.851,0.863 0,0 0.043,0.727 0.151,1.224 0.107,0.496 -0.128,0.38 -0.128,0.38 0,0 -0.249,0.661 0.128,1.233 0.377,0.572 0,0 0.351,0.429 0.351,0.429 -0.626,0.682 -0.872,1.421 -0.246,0.74 0,0 0.476,0.647 0.476,0.646 1.128,0.956 0.921,1.696 -0.207,0.74 -0.286,1.356 0,2.96 0.286,1.604 0.7,0.247 1.07,1.11 0.37,0.863 0.863,0.246 1.727,0.739 0.864,0.493 0.246,1.974 0.863,3.694 0.616,1.721 1.479,0.623 2.96,0.992 1.479,0.371 1.974,0 3.453,-0.616 1.48,-0.616 1.233,-0.37 2.467,0 1.234,0.37 0.74,0.863 2.599,1.604 1.859,0.741 0.608,0 1.102,0.74 0.493,0.739 0.863,1.479 1.233,2.097 0.37,0.616 0.74,4.563 0.493,5.92 -0.247,1.357 0.123,2.59 -0.247,4.439 -0.37,1.85 -0.986,1.234 -2.581,1.357 -1.595,0.123 -1.365,0.616 -2.352,0.986 -0.987,0.37 -1.357,1.604 -2.59,3.33 -1.233,1.727 -1.974,0.986 -2.714,0.74 -0.739,-0.246 -1.48,-2.221 -1.356,-2.837 0.123,-0.617 -1.974,-2.714 -2.344,-3.33 -0.369,-0.617 -1.356,-1.851 -1.973,-2.467 -0.617,-0.617 -0.74,-1.11 -0.74,-1.11 0,0 -2.221,-0.123 -2.961,-0.246 -0.739,-0.123 -1.85,-0.74 -2.713,-0.74 -0.863,0 -1.85,0.863 -2.22,1.233 -0.37,0.37 -1.727,0.74 -2.713,0.987 -0.987,0.246 -2.344,-1.234 -3.207,-1.728 -0.863,-0.494 -2.256,-1.727 -2.256,-1.727 0,0 0.036,-1.479 0,-2.497 -0.036,-1.018 -0.499,-0.216 -0.499,-0.216 0,0 -0.609,0.435 -0.81,0.795 -0.2,0.359 -0.259,0.763 -0.717,1.548 -0.458,0.785 -0.899,0 -0.899,0 l -2.343,0.092 c 0,0 -0.739,1.512 -0.986,2.375 -0.247,0.863 -1.357,1.727 -2.344,3.453 -0.987,1.726 -2.097,0.247 -3.207,0.494 -1.11,0.246 -2.59,0.246 -3.7,0 -1.11,-0.247 -1.48,-0.494 -1.48,-0.494 0,0 -0.863,0.247 -1.11,1.357 -0.247,1.109 -0.493,1.109 -1.11,2.467 -0.617,1.356 -0.123,1.727 -0.617,3.453 -0.493,1.727 -1.109,0.616 -1.973,0.74 -0.863,0.123 -1.299,0.229 -1.676,1.089 l -1.408,-0.936 c 0,0 -1.295,-0.647 -2.682,-0.925 -1.388,-0.277 -1.388,-0.186 -1.943,0 -0.555,0.185 -1.35,1.202 -1.35,1.202 l -1.518,1.11 c 0,0 -2.497,3.237 -2.96,3.792 -0.462,0.556 -3.885,1.018 -4.964,0.925 -1.08,-0.092 -2.898,-1.85 -3.546,-2.682 -0.647,-0.833 -1.48,-0.74 -2.775,-1.129 -1.295,-0.388 -2.774,-0.722 -4.348,-1.184 -1.572,-0.463 -3.237,-0.186 -3.607,0 0,0 0.386,-1.831 0.609,-2.211 0.224,-0.379 -0.187,-0.563 0.896,-1.396 1.084,-0.833 1.454,-1.018 1.64,-2.128 0.185,-1.11 -0.277,-1.479 1.018,-2.128 1.295,-0.646 2.312,-1.347 2.867,-2.477 0.555,-1.131 0.833,-1.85 1.48,-1.999 0.648,-0.149 2.312,0.242 4.625,0 2.312,-0.241 7.4,-0.889 7.4,-0.889 l 4.625,0.462 3.978,-0.462 5.735,-1.388 2.775,-0.647 0.648,-1.295 v -0.463 h 0.399 1.227 l -0.731,-0.523 -0.96,-0.469 -0.428,-0.156 -0.683,-0.408 1.084,-0.94 v -1.175 c 0,0 -0.516,-0.081 -2.108,-0.609 -1.592,-0.528 -2.333,-0.344 -3.442,-0.898 -1.11,-0.556 -2.035,-1.258 -2.127,-2.062 -0.093,-0.806 0.154,-2.378 0.4,-2.747 0.247,-0.371 1.635,-1.856 1.635,-2.686 0,-0.83 -1.439,-3.42 -1.46,-4.067 -0.021,-0.647 -0.482,-1.233 0.442,-2.651 0.925,-1.419 1.295,-2.621 1.295,-2.621 l 0.093,-2.405 1.665,-0.647 h 0.809 l 2.429,-0.555 c 0,0 1.03,-2.035 2.088,-2.221 1.057,-0.185 3.277,0.186 3.739,0 0.463,-0.185 1.665,-0.924 1.665,-0.924 l 0.74,-0.775 h 0.577 l -0.423,-0.951 c 0,0 0.031,-0.062 0.771,-0.834 0.74,-0.771 1.758,-1.141 2.035,-1.787 0.277,-0.648 0.555,-2.961 0.555,-2.961 0,0 1.203,-0.925 2.035,-1.018 0.833,-0.092 2.035,-0.646 2.96,-0.555 0.926,0.093 1.654,-0.01 1.654,-0.01 z"
   style="fill:#677821" /><rect
   style="fill:none;stroke:#000000;stroke-width:0.29998;stroke-linejoin:bevel;stroke-dasharray:none;paint-order:stroke fill markers"
   id="rect2"
   height="4390.293"
   x="0.19998971"
   y="0.19998971"
   ry="0.69917101"
   width="4353.8188" /></svg>
