<?xml version="1.0" encoding="UTF-8" standalone="no"?>
<!-- Generator: Adobe Illustrator 22.1.0, SVG Export Plug-In . SVG Version: 6.00 Build 0)  -->

<svg
   version="1.1"
   x="0px"
   y="0px"
   viewBox="0 0 4354.1187 4390.5933"
   enable-background="new 0 0 1995.865 2834.646"
   xml:space="preserve"
   id="svg1596"
   width="4354.1187"
   height="4390.5933"
   xmlns="http://www.w3.org/2000/svg"
   xmlns:svg="http://www.w3.org/2000/svg"><defs
   id="defs1596" />


<g
   id="Isle_of_Man_6_"
   style="fill:#677821"
   transform="translate(1093.6405,660.66109)">
				<path
   id="Calf_of_Man_3_"
   fill="#4B5A26"
   d="m 945.743,1729.818 c 0,0 0.925,1.479 1.295,0 0.37,-1.48 2.22,-1.827 1.665,-2.394 -0.555,-0.567 -0.637,-0.937 -1.428,-1.122 -0.792,-0.185 -0.421,-1.109 -1.532,0 -1.11,1.11 -2.035,1.416 -1.479,1.818 0.554,0.403 0.184,1.698 1.479,1.698 z"
   style="fill:#677821" />
				<path
   id="Isle_of_Man_5_"
   fill="#4B5A26"
   d="m 948.703,1725.378 c 0,0 0.925,-0.74 1.11,-1.479 0.185,-0.74 0.37,-1.11 1.11,-1.666 0.74,-0.555 0.74,-1.295 1.48,-1.664 0.74,-0.37 1.295,-2.035 0,-1.851 -1.295,0.186 -2.368,0.186 -1.461,-1.11 0,0 0.721,-0.924 1.461,-1.479 0.74,-0.555 1.85,-0.74 2.405,-1.295 0.555,-0.555 0.37,-1.11 0.925,-2.035 0.555,-0.925 1.11,-1.11 0.925,-2.405 -0.185,-1.295 -0.482,-1.479 0.036,-2.22 0.519,-0.739 -0.518,-1.479 0,-2.035 0.519,-0.555 0.706,-1.109 0.15,-2.22 -0.557,-1.109 -0.741,-0.925 -0.557,-2.22 0.185,-1.295 0.925,-2.035 1.665,-2.775 0.74,-0.739 0.925,-4.44 0.925,-4.44 0,0 -0.555,-0.555 0,-1.664 0.556,-1.11 0.37,-1.665 0.926,-2.59 0.555,-0.926 1.665,-2.775 1.665,-2.775 0,0 0.369,-0.37 1.109,0 0.74,0.37 1.481,-0.37 2.775,-0.925 1.295,-0.556 1.85,-2.22 2.405,-2.591 0.555,-0.369 5.55,-5.364 6.66,-7.215 1.11,-1.85 2.035,-4.81 2.775,-6.845 0.74,-2.035 2.22,-4.995 2.96,-6.104 0.74,-1.11 0.555,-1.295 0.925,-3.7 0.37,-2.405 0.925,-3.7 3.516,-5.735 2.59,-2.035 5.55,-4.625 7.215,-5.55 1.665,-0.925 3.515,-1.479 4.995,-1.665 1.479,-0.186 3.33,-1.48 5.18,-2.035 1.85,-0.555 4.07,-2.22 4.625,-1.48 0.555,0.74 -0.37,6.476 0,7.03 0.37,0.556 -1.665,5.365 -2.035,7.585 -0.37,2.221 0.37,8.141 1.11,8.881 0.74,0.739 1.479,1.295 4.07,2.034 2.59,0.74 5.18,0.74 4.624,1.665 -0.555,0.926 -0.555,0.926 -1.479,2.221 -0.924,1.295 0.185,1.664 -0.925,2.959 -1.11,1.296 -0.74,1.296 -1.851,2.961 -1.109,1.664 -2.59,1.664 -2.96,3.699 -0.37,2.035 0.185,1.851 -1.295,3.7 -1.479,1.851 -1.665,0.37 -2.405,1.851 -0.74,1.479 -2.22,1.664 -1.295,3.145 0.926,1.48 1.666,3.33 0.926,4.811 -0.74,1.479 -2.96,3.885 -4.81,4.81 -1.85,0.925 -3.145,0 -4.255,0.925 -1.11,0.926 -1.85,1.85 -1.295,3.146 0.555,1.295 1.85,2.22 0,2.96 -1.85,0.74 -1.11,1.109 -2.96,2.22 -1.85,1.11 -2.22,-0.925 -3.885,0.37 -1.665,1.295 -0.37,1.109 -1.48,2.404 -1.11,1.296 -1.11,1.296 -1.479,2.405 -0.37,1.11 -0.37,1.11 -2.405,1.11 -2.035,0 -2.405,-0.37 -3.7,0.925 -1.295,1.295 -2.22,2.775 -3.144,3.146 -0.925,0.369 -2.22,1.295 -1.295,2.035 0.925,0.739 2.59,-0.186 2.59,-0.186 0,0 -0.37,1.11 -0.925,1.85 -0.555,0.74 -0.925,2.405 -1.665,2.775 -0.74,0.37 -1.48,0 -1.48,0 l 0.925,-2.22 c 0,0 0.555,-1.11 -0.37,-1.665 -0.925,-0.555 -0.555,-0.555 -2.035,-0.555 -1.48,0 -1.48,-0.556 -1.85,1.109 -0.37,1.665 0,2.035 -1.665,1.48 -1.665,-0.556 -1.479,-0.926 -2.035,-2.221 -0.555,-1.295 1.11,-0.185 -0.555,-1.295 -1.665,-1.109 -3.33,-1.85 -4.44,-1.109 -1.109,0.74 -1.85,0.185 -1.664,1.664 0.185,1.48 0.185,1.666 -0.74,1.851 -0.925,0.185 -0.37,0.185 -1.295,1.11 -0.925,0.925 -2.591,0.369 -2.591,0.925 0,0.555 0.185,1.809 -0.739,1.089 -0.925,-0.719 -1.851,-0.904 -1.851,-0.904 z"
   style="fill:#677821" />
			</g><rect
   style="fill:none;stroke:#000000;stroke-width:0.29998;stroke-linejoin:bevel;stroke-dasharray:none;paint-order:stroke fill markers"
   id="rect2"
   height="4390.293"
   x="0.19998971"
   y="0.19998971"
   ry="0.69917101"
   width="4353.8188" /></svg>
