<?xml version="1.0" encoding="UTF-8" standalone="no"?>
<!-- Generator: Adobe Illustrator 22.1.0, SVG Export Plug-In . SVG Version: 6.00 Build 0)  -->

<svg
   version="1.1"
   x="0px"
   y="0px"
   viewBox="0 0 4354.1187 4390.5933"
   enable-background="new 0 0 1995.865 2834.646"
   xml:space="preserve"
   id="svg1596"
   width="4354.1187"
   height="4390.5933"
   sodipodi:docname="Maproom-Counties12..svg"
   inkscape:version="1.3.2 (091e20e, 2023-11-25, custom)"
   xmlns:inkscape="http://www.inkscape.org/namespaces/inkscape"
   xmlns:sodipodi="http://sodipodi.sourceforge.net/DTD/sodipodi-0.dtd"
   xmlns="http://www.w3.org/2000/svg"
   xmlns:svg="http://www.w3.org/2000/svg"><sodipodi:namedview
   id="namedview1"
   pagecolor="#ffffff"
   bordercolor="#000000"
   borderopacity="0.25"
   inkscape:showpageshadow="2"
   inkscape:pageopacity="0.0"
   inkscape:pagecheckerboard="0"
   inkscape:deskcolor="#d1d1d1"
   inkscape:zoom="0.5"
   inkscape:cx="3916"
   inkscape:cy="217"
   inkscape:window-width="1920"
   inkscape:window-height="991"
   inkscape:window-x="-9"
   inkscape:window-y="-9"
   inkscape:window-maximized="1"
   inkscape:current-layer="svg1596" /><defs
   id="defs1596" />


<g
   id="Channel_Islands"
   transform="translate(1093.6405,660.66109)"
   inkscape:label="Channel_Islands">
				<path
   style="fill:#66a8de;stroke-miterlimit:1"
   d="m 1262.5098,2726.6934 -0.2051,0.08 c 0,0 -0.1297,0.2075 -0.1953,0.4844 -0.066,0.277 -0.067,0.6628 0.2207,0.9512 v 0 c 0.1289,0.1288 0.2365,0.2105 0.377,0.2285 0.1405,0.018 0.2723,-0.076 0.332,-0.1641 0.1194,-0.1762 0.1527,-0.3789 0.207,-0.4707 0.071,-0.1184 0.074,-0.2567 0.043,-0.375 -0.031,-0.1182 -0.092,-0.2259 -0.1699,-0.3222 -0.1556,-0.1928 -0.3729,-0.3498 -0.6113,-0.4121 z m 0.039,0.4492 c 0.102,0.056 0.2108,0.1056 0.2832,0.1953 0.053,0.066 0.089,0.1343 0.1016,0.1836 0.013,0.049 0.01,0.072 0,0.092 -0.1073,0.1812 -0.1543,0.3828 -0.1914,0.4433 -0.01,0 -0.053,-0.018 -0.1445,-0.1093 -0.1743,-0.1747 -0.1749,-0.3933 -0.125,-0.6035 0.027,-0.1127 0.047,-0.1332 0.08,-0.2012 z"
   id="path613" />
				<path
   style="fill:#66a8de;stroke-miterlimit:1"
   d="m 1271.9023,2732.6836 c -0.1166,0.036 -0.2129,0.1056 -0.2968,0.1894 -0.1672,0.1671 -0.2912,0.393 -0.3477,0.6153 -2e-4,8e-4 0,0 0,0 -0.01,0.024 -0.069,0.1542 -0.1055,0.3106 -0.02,0.085 -0.045,0.1637 -0.01,0.2812 0.018,0.059 0.079,0.1415 0.1641,0.166 0.085,0.025 0.1507,0 0.207,-0.023 0.079,-0.036 0.3703,-0.087 0.6563,-0.1582 0.2859,-0.072 0.6,-0.1655 0.7715,-0.4316 0.079,-0.1231 0.1093,-0.2737 0.062,-0.3965 -0.047,-0.1235 -0.1406,-0.1958 -0.2305,-0.252 -0.1799,-0.1124 -0.3928,-0.1842 -0.4942,-0.2519 v 0 c -0.1145,-0.077 -0.2583,-0.088 -0.375,-0.053 z m 0.1075,0.3535 c 0.034,-0.01 0.038,-0.01 0.062,0.01 0.1756,0.1173 0.3885,0.1857 0.5039,0.2578 0.058,0.036 0.079,0.067 0.08,0.07 0,0 0.012,0 -0.027,0.062 v 0 c -0.067,0.1049 -0.2912,0.2085 -0.5508,0.2735 -0.1996,0.05 -0.3804,0.087 -0.5527,0.1367 0.032,-0.1093 0.08,-0.2383 0.08,-0.2383 l 0.01,-0.027 c 0.037,-0.1459 0.1423,-0.3357 0.252,-0.4453 0.055,-0.055 0.109,-0.087 0.1426,-0.098 z"
   id="path614" />
				<path
   style="fill:#66a8de;stroke-miterlimit:1"
   d="m 1300.5488,2671.0996 c -0.7804,0.098 -1.0943,0.4366 -1.2461,0.6895 -0.076,0.1264 -0.1226,0.2148 -0.1504,0.2382 -0.028,0.023 -0.046,0.041 -0.2011,0 -0.74,-0.185 -0.8294,-0.185 -1.5684,0 -0.423,0.1052 -0.8472,0.3975 -1.3379,0.7715 -0.4907,0.374 -1.0429,0.8334 -1.6836,1.291 -1.3724,0.9803 -1.1896,2.7032 -1.1855,2.7402 0,4e-4 0,0.022 0,0.022 l 0.3692,-0.022 -0.3262,0.1211 c 0.3167,0.3697 0.7695,0.5246 1.252,0.5586 0.4824,0.034 1.0066,-0.045 1.5273,-0.1504 0.5207,-0.1053 1.0369,-0.2381 1.4902,-0.3203 0.4534,-0.082 0.8444,-0.1057 1.086,-0.031 v 0 c 0.3543,0.1098 0.6978,0.023 0.9824,-0.1699 0.2847,-0.1925 0.5297,-0.4819 0.7618,-0.8047 0.4641,-0.6457 0.8857,-1.4393 1.3164,-1.8887 0.237,-0.2473 0.3725,-0.4197 0.455,-0.5527 0.083,-0.133 0.1126,-0.2375 0.125,-0.291 0.013,-0.053 -0.014,-0.01 0.01,-0.025 0.02,-0.017 0.1071,-0.071 0.2891,-0.1621 0.4246,-0.2126 0.7972,-0.6456 1.082,-1.0254 0.2848,-0.3799 0.4746,-0.7129 0.4746,-0.7129 l -0.1426,-0.2754 c 0,0 -1.857,-0.1903 -3.3711,0 z m 0.047,0.3672 c 1.3033,-0.1638 2.6549,-0.028 2.9629,0 -0.078,0.1254 -0.1078,0.1853 -0.2676,0.3984 -0.27,0.3602 -0.6368,0.7606 -0.9512,0.918 -0.188,0.094 -0.2849,0.1439 -0.3632,0.2109 -0.078,0.067 -0.1162,0.176 -0.127,0.2227 -0.011,0.047 -0.016,0.079 -0.078,0.1797 -0.062,0.1002 -0.1823,0.2565 -0.4082,0.4922 -0.4943,0.5156 -0.9087,1.3163 -1.3496,1.9297 -0.2205,0.3066 -0.4466,0.5631 -0.668,0.7129 -0.2214,0.1497 -0.4199,0.2006 -0.6641,0.125 v 0 c -0.3574,-0.1101 -0.7865,-0.064 -1.2598,0.021 -0.4733,0.086 -0.9902,0.2195 -1.498,0.3222 -0.5079,0.1028 -1.0055,0.1744 -1.4278,0.1446 -0.4014,-0.028 -0.7116,-0.16 -0.9472,-0.4102 -0.012,-0.1301 -0.1192,-1.5195 1.0293,-2.3398 0.6543,-0.4674 1.2108,-0.9306 1.6914,-1.2969 0.4805,-0.3663 0.8881,-0.6302 1.2051,-0.709 0.739,-0.185 0.6486,-0.185 1.3886,0 0.2149,0.054 0.4067,0.026 0.5293,-0.078 0.1226,-0.1036 0.1676,-0.2234 0.2305,-0.3281 0.1257,-0.2094 0.275,-0.4258 0.9746,-0.5137 z"
   id="St_Anne" />
				<path
   style="fill:#66a8de;stroke-miterlimit:1"
   d="m 1275.4434,2729.334 c -0.098,0.015 -0.1709,0.072 -0.2227,0.1328 -0.1036,0.1215 -0.1627,0.2764 -0.2324,0.4668 -0.1395,0.3808 -0.2915,0.9001 -0.5449,1.3887 -0.1367,0.2638 -0.2079,0.4518 -0.2325,0.6132 -0.024,0.1615 0.01,0.3012 0.057,0.3985 0.096,0.1946 0.1831,0.2139 0.1543,0.5371 -0.013,0.1503 -0.05,0.1997 -0.096,0.2363 -0.046,0.037 -0.1242,0.062 -0.2324,0.084 -0.1083,0.022 -0.24,0.038 -0.375,0.1 -0.1351,0.062 -0.2708,0.1874 -0.3321,0.3711 -0.061,0.1827 -0.036,0.3688 0.041,0.5156 0.077,0.1469 0.1945,0.2598 0.3203,0.3653 0.2518,0.2108 0.5506,0.3951 0.7188,0.5918 0.089,0.1034 0.1162,0.1661 0.123,0.1972 0.01,0.031 0.01,0.048 -0.016,0.1035 -0.042,0.1113 -0.1669,0.3321 -0.1523,0.6954 0,0.1211 -0.01,0.1223 -0.043,0.1425 -0.034,0.02 -0.1345,0.04 -0.2754,0.043 -0.2818,0.01 -0.7003,-0.04 -1.0859,0.1543 -0.1854,0.093 -0.3208,0.2105 -0.3828,0.3652 -0.062,0.1547 -0.034,0.3206 0.031,0.461 0.1302,0.2807 0.3966,0.5308 0.6738,0.8086 0.2885,0.289 0.5673,0.4968 0.8946,0.6015 0.3273,0.1047 0.6892,0.1003 1.125,0 0.4638,-0.1035 0.7069,-0.3862 0.7773,-0.6816 0.07,-0.2954 0.016,-0.5881 0.016,-0.7949 0,-0.1687 0.1078,-0.5425 0.2207,-0.8477 0.113,-0.3052 0.2247,-0.5547 0.2247,-0.5547 l 0.01,-0.01 c 0.082,-0.215 0.1544,-0.2891 0.1758,-0.3008 0.021,-0.012 0.036,-0.012 0.1191,0.022 0.166,0.068 0.4988,0.2774 0.9004,0.1054 0.7255,-0.3106 1.0645,-1.0538 0.8399,-1.6562 -0.055,-0.1483 0.027,-0.4668 0.1113,-0.8125 0.042,-0.1729 0.079,-0.354 0.07,-0.5391 -0.01,-0.1851 -0.071,-0.38 -0.2226,-0.5312 -0.2006,-0.2011 -0.256,-0.3923 -0.3633,-0.666 -0.1074,-0.2737 -0.2672,-0.6095 -0.6563,-0.9981 -0.3918,-0.3923 -0.7909,-0.5925 -1.1269,-0.7246 -0.336,-0.1321 -0.6046,-0.2075 -0.7422,-0.3105 -0.072,-0.053 -0.1679,-0.091 -0.2656,-0.076 z m 0.057,0.3789 c 0.2303,0.1675 0.51,0.2311 0.8164,0.3516 0.3115,0.1224 0.6518,0.2938 1,0.6425 0.3509,0.3505 0.4711,0.6133 0.5723,0.8711 0.1011,0.2578 0.1858,0.531 0.4472,0.793 0.08,0.08 0.1095,0.1656 0.1153,0.2871 0.01,0.1215 -0.022,0.2722 -0.061,0.4336 -0.078,0.3228 -0.2272,0.6826 -0.098,1.0293 0.1453,0.3896 -0.072,0.9441 -0.6407,1.1875 -0.2453,0.1051 -0.3817,-0.013 -0.6132,-0.1074 -0.1158,-0.047 -0.2837,-0.088 -0.4375,0 -0.1539,0.084 -0.2483,0.2421 -0.3438,0.4922 0,0.01 -0.1163,0.2546 -0.2324,0.5683 -0.1181,0.3191 -0.2422,0.6843 -0.2422,0.9766 0,0.2561 0.039,0.5186 -0.01,0.709 -0.045,0.1903 -0.1289,0.3238 -0.498,0.4062 -0.3962,0.088 -0.6807,0.084 -0.9316,0 -0.251,-0.08 -0.4796,-0.2427 -0.7461,-0.5097 -0.2778,-0.2783 -0.5216,-0.5349 -0.5996,-0.7032 -0.039,-0.084 -0.039,-0.1279 -0.024,-0.1679 0.016,-0.04 0.067,-0.1022 0.2051,-0.1719 0.2623,-0.132 0.6113,-0.1088 0.9277,-0.1153 0.1583,0 0.3124,-0.01 0.4571,-0.094 0.1447,-0.086 0.2311,-0.2713 0.2226,-0.4746 -0.011,-0.2827 0.066,-0.3848 0.1289,-0.5508 0.032,-0.083 0.058,-0.1932 0.031,-0.3125 -0.026,-0.1193 -0.093,-0.2313 -0.2032,-0.3594 -0.2278,-0.2663 -0.5442,-0.4526 -0.7617,-0.6347 -0.1087,-0.091 -0.1908,-0.1783 -0.2304,-0.2539 -0.04,-0.076 -0.049,-0.1317 -0.018,-0.2266 0.031,-0.094 0.065,-0.1194 0.1328,-0.1504 0.068,-0.031 0.1735,-0.05 0.2949,-0.074 0.1215,-0.024 0.2653,-0.056 0.3926,-0.1582 0.1272,-0.102 0.2131,-0.273 0.2324,-0.4922 0.037,-0.4168 -0.1391,-0.6282 -0.1914,-0.7344 -0.026,-0.053 -0.038,-0.082 -0.023,-0.1777 0.014,-0.096 0.069,-0.2548 0.1953,-0.4981 v 0 c 0.274,-0.5289 0.4331,-1.0731 0.5644,-1.4317 0.065,-0.1766 0.1292,-0.305 0.1641,-0.3476 z"
   id="Sark" />
				<path
   style="fill:#66a8de;stroke-miterlimit:1"
   d="m 1304.3711,2768.8398 c -1.1596,-0.032 -1.8093,0.4476 -2.1133,1.0567 -0.2511,0.5032 -0.8354,1.106 -1.9765,1.1933 -0.5818,0.045 -1.1929,5e-4 -1.711,-0.09 -0.518,-0.09 -0.9489,-0.2341 -1.1387,-0.3477 -0.1939,-0.116 -0.6032,-0.4681 -1.0742,-0.8203 -0.4709,-0.3521 -1.0169,-0.7129 -1.5742,-0.8632 -1.0789,-0.2908 -1.836,-0.01 -2.6269,-0.01 -0.9015,0 -1.5456,0.5253 -1.75,1.2441 -0.1103,0.387 -0.052,0.895 0.1289,1.4493 0.1806,0.5542 0.49,1.1513 0.9218,1.6796 0.4235,0.5166 0.6589,0.7028 0.877,0.8184 0.218,0.1156 0.3714,0.1465 0.7226,0.4121 0.3422,0.2589 0.4533,0.4704 0.5664,0.7266 0.1132,0.2562 0.2217,0.5643 0.5196,0.9121 0.2312,0.2695 0.3273,0.7155 0.3496,1.1953 0.022,0.4798 -0.024,0.9818 -0.023,1.3672 0,0.3854 0.045,0.9819 0.068,1.6015 0.023,0.6197 0.02,1.2615 -0.066,1.6914 -0.085,0.4259 -0.3008,0.8187 -0.5508,1.1231 -0.25,0.3044 -0.5385,0.5182 -0.7226,0.5918 v 0 c -0.2586,0.1035 -0.6685,0.3354 -1.0293,0.5449 -0.3608,0.2095 -0.6621,0.3945 -0.6621,0.3945 -0.1223,0.072 -0.2141,0.1432 -0.2793,0.2325 -0.066,0.09 -0.097,0.2174 -0.062,0.3242 0.069,0.2136 0.256,0.2958 0.459,0.3848 0.406,0.1779 0.9946,0.3217 1.3848,0.4941 0.8682,0.3871 1.8227,0.4785 3.0351,0.4785 0.6105,0 1.0281,-0.044 1.3672,-0.1875 0.3391,-0.1434 0.5781,-0.387 0.8184,-0.7226 0.2473,-0.3475 0.3318,-0.6237 0.4199,-0.7559 0.044,-0.066 0.077,-0.1003 0.1504,-0.1309 0.073,-0.03 0.1943,-0.053 0.3886,-0.053 0.1843,0 0.2857,0.036 0.3477,0.08 0.062,0.044 0.1012,0.1067 0.1348,0.2168 0.067,0.22 0.073,0.598 0.1699,1.0371 0.084,0.3785 0.021,0.642 0,0.9277 -0.025,0.2858 0.02,0.6098 0.3301,0.9199 0.3175,0.3175 0.6714,0.3334 0.9629,0.2969 0.2914,-0.036 0.5411,-0.096 0.8613,0.024 0.3695,0.1395 0.575,0.2359 0.8105,0.1816 0.1178,-0.027 0.2157,-0.096 0.3047,-0.1816 0.089,-0.086 0.1772,-0.1931 0.293,-0.3321 0.1422,-0.1708 0.2052,-0.3722 0.207,-0.5683 0,-0.1962 -0.048,-0.388 -0.1152,-0.5821 -0.1336,-0.3882 -0.3357,-0.7935 -0.4219,-1.2246 -0.1794,-0.8982 -0.091,-1.5117 0,-2.3476 0.038,-0.3433 0.2407,-0.5106 0.5937,-0.6602 0.353,-0.1496 0.8361,-0.2425 1.3106,-0.3848 0.4197,-0.1258 0.7358,-0.067 1.1406,0.057 0.4048,0.1236 0.8853,0.3159 1.5547,0.4121 0.6083,0.086 1.0021,0.3343 1.3652,0.6973 0.3631,0.3629 0.6861,0.846 1.1094,1.3632 0.3947,0.483 0.5704,0.983 0.9023,1.3789 0.3319,0.396 0.8421,0.6358 1.7559,0.5391 0.4337,-0.046 0.684,-0.046 0.7812,-0.025 0.049,0.01 0.048,0.019 0.039,0.01 -0.01,-0.011 -0.01,-0.021 -0.01,0.01 0,0.1094 -0.1436,0.5774 0.2246,1.0508 0.3357,0.4324 0.6582,0.6803 1.0625,0.7715 0.4049,0.091 0.8632,0.038 1.5137,-0.055 0.6725,-0.096 1.0565,-0.2984 1.3301,-0.4649 0.2736,-0.1665 0.4071,-0.2734 0.6777,-0.2734 0.253,0 0.489,0.1477 0.7422,0.3789 0.2532,0.2312 0.5094,0.5349 0.8047,0.7812 0.3323,0.2762 0.7592,0.2806 1.082,0.084 0.3229,-0.1965 0.5554,-0.5726 0.6075,-1.039 0.044,-0.3971 0.1362,-0.623 0.1738,-0.961 0.038,-0.338 0.01,-0.7583 -0.1777,-1.5097 -0.3621,-1.4473 -0.012,-1.5252 0.1855,-2.3145 0.1815,-0.7259 0.3464,-1.0521 0.7051,-1.5 0.1921,-0.2397 0.3273,-0.4562 0.4062,-0.7383 0.079,-0.2821 0.1043,-0.6184 0.1114,-1.1328 0.01,-0.5501 -0.1828,-0.9039 -0.3418,-1.164 -0.1591,-0.2602 -0.2672,-0.4062 -0.2305,-0.6641 0.042,-0.2866 0.1283,-0.3763 0.25,-0.5586 0.1221,-0.1828 0.2596,-0.4403 0.3086,-0.9277 0.049,-0.4905 -0.027,-0.8837 -0.211,-1.1993 -0.1843,-0.3155 -0.4681,-0.5443 -0.8066,-0.7382 -0.308,-0.1756 -0.5064,-0.351 -0.7559,-0.5411 -0.2495,-0.19 -0.547,-0.3892 -1.0253,-0.58 v 0 c -0.4349,-0.1744 -0.5215,-0.3111 -0.6602,-0.4961 -0.1387,-0.1849 -0.3297,-0.4192 -0.8203,-0.6152 -0.5237,-0.2095 -0.9865,-0.044 -1.3086,0.2266 -0.3221,0.2704 -0.5369,0.6363 -0.6758,0.8671 -0.09,0.1494 -0.32,0.2364 -0.6289,0.2579 -0.3089,0.021 -0.6686,-0.021 -0.9394,-0.066 -0.2102,-0.035 -0.3108,-0.1525 -0.3887,-0.3574 -0.078,-0.2048 -0.1035,-0.4886 -0.1035,-0.7558 0,-0.6587 -0.4995,-1.5025 -1.3575,-2.2657 -0.4492,-0.3991 -0.8762,-0.4465 -1.2148,-0.3242 -0.3386,0.1223 -0.5976,0.3606 -0.8418,0.4824 -0.2922,0.1459 -0.4819,0.2877 -0.6855,0.3946 -0.2037,0.1069 -0.4264,0.1885 -0.8243,0.2324 -0.3591,0.041 -0.6019,-0.09 -0.8672,-0.2773 -0.2652,-0.1878 -0.535,-0.4385 -0.9121,-0.5469 v 0 c -0.685,-0.1948 -1.1491,-0.1041 -1.6562,-0.2734 -0.2156,-0.072 -0.4152,-0.2836 -0.709,-0.5078 -0.2938,-0.2242 -0.6919,-0.441 -1.2871,-0.4571 z m -0.01,0.3692 c 0.5138,0.014 0.8108,0.1832 1.0723,0.3828 0.2615,0.1996 0.478,0.4514 0.8164,0.5645 0.6009,0.2006 1.0629,0.1061 1.6719,0.2792 0.2699,0.078 0.5107,0.2889 0.8008,0.4942 0.29,0.2053 0.6482,0.3972 1.1211,0.3437 0.4351,-0.048 0.7192,-0.1496 0.955,-0.2734 0.2359,-0.1238 0.4169,-0.2595 0.6797,-0.3906 0.3108,-0.1551 0.5614,-0.3804 0.8008,-0.4668 0.2394,-0.087 0.46,-0.089 0.8437,0.2519 0.8061,0.7169 1.2325,1.537 1.2325,1.9903 0,0.2877 0.022,0.606 0.1289,0.8867 0.1068,0.2806 0.329,0.534 0.6738,0.5918 0.2842,0.048 0.664,0.095 1.0254,0.07 0.3614,-0.025 0.7316,-0.1219 0.9199,-0.4356 0.1391,-0.2311 0.3415,-0.5602 0.5977,-0.7753 0.2562,-0.2151 0.5323,-0.3266 0.9336,-0.1661 0.4354,0.174 0.5216,0.3094 0.6601,0.4942 0.1386,0.1848 0.3283,0.4186 0.8184,0.6152 v 0 c 0.4467,0.1782 0.7015,0.3515 0.9375,0.5313 0.236,0.1797 0.4559,0.3739 0.7969,0.5683 v 0 c 0.3075,0.1761 0.532,0.364 0.6719,0.6035 0.1399,0.2394 0.2039,0.541 0.1601,0.9766 -0.044,0.4375 -0.1386,0.5958 -0.248,0.7597 -0.1094,0.1639 -0.2551,0.3535 -0.3066,0.7129 -0.055,0.3881 0.129,0.6594 0.2812,0.9082 0.1522,0.2488 0.2921,0.497 0.2852,0.9649 -0.01,0.5036 -0.034,0.8124 -0.098,1.039 -0.063,0.2267 -0.159,0.3822 -0.3379,0.6055 -0.3813,0.4761 -0.5869,0.8885 -0.7754,1.6426 -0.1727,0.6907 -0.5635,0.9834 -0.1855,2.4941 0.1821,0.7286 0.2018,1.0946 0.1699,1.3809 -0.032,0.2862 -0.1257,0.523 -0.1738,0.9589 -0.041,0.3666 -0.2228,0.6365 -0.4317,0.7637 -0.2089,0.1272 -0.4306,0.1332 -0.6543,-0.053 -0.2597,-0.2167 -0.5122,-0.515 -0.791,-0.7695 -0.2788,-0.2546 -0.5981,-0.4766 -0.9922,-0.4766 -0.3764,0 -0.6126,0.1708 -0.8711,0.3281 -0.2584,0.1573 -0.5669,0.3252 -1.1894,0.4141 -0.6445,0.092 -1.067,0.1308 -1.3789,0.061 -0.3119,-0.07 -0.5437,-0.2371 -0.8535,-0.6367 v 0 c -0.2798,-0.3597 -0.1465,-0.5387 -0.1465,-0.8223 0,-0.071 -0.014,-0.1638 -0.076,-0.2402 -0.063,-0.077 -0.1541,-0.1166 -0.25,-0.1368 -0.1919,-0.04 -0.4512,-0.027 -0.8965,0.02 -0.8442,0.089 -1.1645,-0.087 -1.4336,-0.4082 -0.2691,-0.3211 -0.4631,-0.84 -0.9004,-1.375 -0.4097,-0.5008 -0.7346,-0.9906 -1.1347,-1.3907 -0.4002,-0.4 -0.8846,-0.7051 -1.5723,-0.8027 -0.6256,-0.09 -1.0706,-0.2678 -1.498,-0.3984 -0.4275,-0.1306 -0.8513,-0.2098 -1.3555,-0.059 -0.4495,0.1347 -0.9374,0.2265 -1.3477,0.4004 -0.4102,0.1738 -0.7637,0.4692 -0.8183,0.9589 -0.093,0.8302 -0.1886,1.5072 0,2.461 0.099,0.4939 0.3146,0.9219 0.4356,1.2734 0.06,0.1758 0.097,0.3313 0.096,0.459 0,0.1277 -0.032,0.2268 -0.1211,0.334 -0.1158,0.139 -0.2014,0.2408 -0.2656,0.3027 -0.064,0.062 -0.098,0.078 -0.1309,0.086 -0.065,0.015 -0.2282,-0.027 -0.5977,-0.1661 v 0 c -0.4199,-0.1571 -0.7714,-0.078 -1.0352,-0.045 -0.2638,0.033 -0.4187,0.046 -0.6562,-0.1914 -0.2448,-0.2448 -0.246,-0.3809 -0.2246,-0.6269 0.021,-0.246 0.098,-0.5856 0,-1.0391 -0.087,-0.394 -0.083,-0.7547 -0.1777,-1.0664 -0.048,-0.1559 -0.1299,-0.3053 -0.2735,-0.4082 -0.1435,-0.1029 -0.3303,-0.1504 -0.5625,-0.1504 -0.2216,0 -0.3905,0.023 -0.5312,0.082 -0.1408,0.059 -0.245,0.1604 -0.3164,0.2676 -0.1429,0.2145 -0.1975,0.4446 -0.4121,0.7461 -0.2228,0.3113 -0.3999,0.4848 -0.6621,0.5957 -0.2622,0.1109 -0.6312,0.1602 -1.2227,0.1602 -1.1936,0 -2.0889,-0.092 -2.8847,-0.4473 -0.4429,-0.1956 -1.038,-0.3433 -1.3868,-0.4961 -0.1687,-0.074 -0.2449,-0.1573 -0.2461,-0.1504 0.017,-0.024 0.071,-0.075 0.17,-0.1328 v 0 c 0,0 0.2981,-0.1839 0.6543,-0.3907 0.3561,-0.2068 0.779,-0.44 0.9824,-0.5215 0.2789,-0.1114 0.591,-0.3578 0.873,-0.7011 0.282,-0.3434 0.5271,-0.785 0.627,-1.2852 0.099,-0.495 0.097,-1.1482 0.074,-1.7773 -0.023,-0.6291 -0.07,-1.2333 -0.07,-1.5879 0,-0.3546 0.047,-0.8704 0.023,-1.3848 -0.024,-0.5144 -0.1136,-1.0405 -0.4375,-1.418 -0.2571,-0.3002 -0.3391,-0.5464 -0.4609,-0.8222 -0.1218,-0.2758 -0.2908,-0.574 -0.6836,-0.8711 -0.3828,-0.2894 -0.5978,-0.3513 -0.7715,-0.4434 -0.1737,-0.092 -0.3541,-0.2271 -0.7637,-0.7265 -0.4002,-0.4897 -0.6913,-1.051 -0.8574,-1.5606 -0.1661,-0.5095 -0.1997,-0.9703 -0.125,-1.2324 v 0 c 0.1636,-0.5751 0.63,-0.9746 1.3946,-0.9746 0.873,0 1.5541,-0.2691 2.5312,-0.01 0.4697,0.1267 0.9927,0.4613 1.4492,0.8027 0.4566,0.3414 0.8345,0.6808 1.1035,0.8418 0.2733,0.1635 0.7219,0.2994 1.2676,0.3945 0.5457,0.095 1.1825,0.1418 1.8027,0.094 1.2629,-0.097 1.9765,-0.7897 2.2793,-1.3965 0.25,-0.5009 0.7111,-0.8831 1.7715,-0.8535 z"
   id="Jersey" />
				<path
   style="fill:#66a8de;stroke-miterlimit:1"
   d="m 1264.127,2722.5059 c -0.3084,0 -0.6547,0.071 -0.9278,0.2343 l -0.08,0.1036 c 0,0 -0.1214,0.3819 -0.1816,0.832 -0.06,0.4501 -0.092,0.9855 0.2227,1.3222 0.1904,0.2037 0.3064,0.5408 0.4336,0.9122 0.1271,0.3713 0.2699,0.778 0.582,1.0918 0.1527,0.1537 0.2971,0.2509 0.4687,0.2363 0.1723,-0.015 0.2783,-0.1461 0.3438,-0.2656 0.1309,-0.2392 0.2017,-0.5517 0.3164,-0.7422 0.1719,-0.2874 0.2374,-0.7089 0.1738,-1.1407 -0.063,-0.4317 -0.2708,-0.8802 -0.6972,-1.1464 -0.1601,-0.1 -0.2037,-0.1766 -0.2168,-0.2305 -0.013,-0.054 0,-0.1167 0.041,-0.2012 0.042,-0.084 0.1113,-0.1779 0.1718,-0.2793 0.061,-0.1014 0.1362,-0.2295 0.082,-0.3926 v 0 c -0.05,-0.1482 -0.1774,-0.2266 -0.3047,-0.2714 -0.1273,-0.045 -0.2716,-0.062 -0.4257,-0.062 z m 0,0.3691 c 0.1234,0 0.2332,0.017 0.3027,0.041 0.07,0.024 0.081,0.051 0.078,0.041 -0.01,-0.024 0,0.01 -0.049,0.086 -0.047,0.078 -0.1218,0.181 -0.1836,0.3047 -0.062,0.1236 -0.1141,0.2816 -0.072,0.4531 0.042,0.1714 0.1729,0.3259 0.3828,0.457 0.3136,0.1958 0.4752,0.5322 0.5274,0.8867 0.052,0.3545 -0.022,0.719 -0.127,0.8946 v 0 c -0.1634,0.2714 -0.2414,0.6045 -0.3242,0.7558 -0.042,0.076 -0.058,0.075 -0.051,0.074 0.01,-5e-4 -0.056,-0.01 -0.1758,-0.1289 -0.237,-0.2382 -0.3686,-0.5845 -0.4941,-0.9511 -0.1256,-0.3667 -0.2422,-0.7527 -0.5137,-1.043 -0.147,-0.1572 -0.1803,-0.6081 -0.125,-1.0215 0.049,-0.3662 0.1259,-0.6147 0.1465,-0.6836 0.1893,-0.097 0.4492,-0.166 0.6758,-0.166 z"
   id="Herm" />
				<path
   style="fill:#66a8de;stroke-miterlimit:1"
   d="m 1254.5195,2716.9277 c -0.1063,0.017 -0.1844,0.075 -0.25,0.1387 -0.1311,0.1274 -0.2334,0.3029 -0.3398,0.4922 -0.1064,0.1893 -0.2105,0.3913 -0.3067,0.5508 -0.082,0.1368 -0.1532,0.208 -0.1855,0.2383 -0.01,-0.01 -0.01,0 -0.012,-0.018 -0.045,-0.09 -0.092,-0.2605 -0.125,-0.4375 -0.066,-0.354 -0.09,-0.7403 -0.09,-0.7403 l -0.2089,-0.1718 c 0,0 -0.699,0.092 -1.2754,0.2597 -0.2883,0.084 -0.544,0.1651 -0.709,0.3438 -0.082,0.089 -0.1322,0.2575 -0.07,0.3867 0.062,0.1292 0.1739,0.2051 0.33,0.2832 0.2408,0.1204 0.3662,0.2762 0.4317,0.4512 0.065,0.175 0.066,0.3767 0.025,0.5683 -0.041,0.1916 -0.1241,0.3721 -0.211,0.4922 -0.043,0.06 -0.087,0.1035 -0.1191,0.127 -0.032,0.023 -0.048,0.02 -0.031,0.021 -0.1581,-0.011 -1.1877,-0.7475 -1.8242,0.1 -0.1128,0.1504 -0.218,0.1976 -0.3515,0.2129 -0.1336,0.015 -0.3024,-0.017 -0.4903,-0.072 -0.3758,-0.1107 -0.8173,-0.3241 -1.2754,-0.209 -0.4262,0.1066 -0.8091,0.4018 -1.0976,0.666 -0.2885,0.2642 -0.4824,0.5059 -0.4824,0.5059 l -0.022,0.033 c 0,0 -0.7423,1.4817 -1.1192,2.6152 -0.1577,0.4737 -0.5857,0.67 -1.0156,0.7559 -0.4299,0.086 -0.8223,0.043 -0.8223,0.043 l -0.205,0.205 0.1855,1.6641 c 0.022,0.1982 0.018,0.3394 0,0.418 -0.014,0.079 -0.029,0.078 -0.025,0.076 0,0 -0.017,0.01 -0.084,-0.01 -0.067,-0.018 -0.1641,-0.06 -0.2753,-0.1153 -0.4449,-0.2224 -1.1253,-0.6781 -1.8672,-0.5722 -1.3366,0.1899 -2.1185,0.7735 -2.5547,1.1543 -0.2017,0.1759 -0.5427,0.4195 -0.711,0.8047 -0.1682,0.3851 -0.1124,0.901 0.377,1.4882 0.2079,0.2493 0.2787,0.4746 0.2715,0.7071 -0.01,0.2324 -0.1011,0.4799 -0.2637,0.7402 -0.3252,0.5206 -0.9184,1.0736 -1.4766,1.6328 -0.2486,0.2482 -0.4839,0.3287 -0.7226,0.336 -0.2387,0.01 -0.4857,-0.069 -0.7168,-0.168 -0.2311,-0.099 -0.4376,-0.2188 -0.6289,-0.2891 -0.096,-0.035 -0.1907,-0.065 -0.3047,-0.045 -0.114,0.02 -0.2238,0.125 -0.2617,0.2383 -0.1218,0.3652 0,0.8246 0.3008,1.2519 0.3018,0.4273 0.8005,0.8231 1.4882,1.0196 1.3292,0.3797 1.9489,0.1161 2.4942,0 0.4593,-0.096 0.7055,0.02 0.9062,0.1836 0.2008,0.1632 0.3103,0.388 0.5235,0.5293 0.2618,0.1742 1.6291,1.145 3.7246,0.9863 1.0164,-0.076 1.5476,-0.1032 1.9336,-0.205 0.386,-0.1018 0.6075,-0.2984 0.9062,-0.627 0.2591,-0.2842 0.4824,-0.3245 0.7559,-0.2656 0.2735,0.059 0.5885,0.2511 0.9062,0.4785 0.3216,0.2301 0.6271,0.467 1.0371,0.5078 0.4101,0.041 0.8766,-0.1287 1.4961,-0.6055 0.6029,-0.463 0.8754,-0.6705 0.9786,-0.7148 0.052,-0.022 0.04,-0.019 0.078,-0.01 0.038,0.012 0.1176,0.052 0.2422,0.1015 0.1326,0.053 0.244,0.2716 0.373,0.5528 0.1291,0.2812 0.289,0.6239 0.6543,0.7461 0.1754,0.059 0.3579,0.053 0.5137,-0.016 0.1557,-0.068 0.2801,-0.1913 0.3808,-0.3437 0.2014,-0.3047 0.3189,-0.737 0.3672,-1.25 0.05,-0.5312 -0.08,-0.9277 -0.2109,-1.248 -0.1311,-0.3204 -0.252,-0.5616 -0.252,-0.8321 0,-0.647 0,-1.3824 0.092,-2.0097 0.051,-0.3588 0.047,-1.0194 0.047,-1.7247 0,-0.7052 9e-4,-1.4455 0.045,-1.8886 0.05,-0.4961 -0.046,-0.8842 -0.057,-1.2149 -0.011,-0.3307 0.039,-0.6072 0.3828,-0.9941 0.7237,-0.8158 0.9157,-0.7741 1.5762,-0.9629 0.3687,-0.1053 0.5982,-0.3326 0.7715,-0.5801 0.1732,-0.2475 0.3075,-0.5146 0.5234,-0.7734 0.2698,-0.3254 0.3584,-0.7435 0.4707,-1.0918 0.1123,-0.3484 0.2308,-0.602 0.4766,-0.707 0.2201,-0.094 0.3453,-0.301 0.3828,-0.5098 0.037,-0.2088 0.011,-0.4303 -0.031,-0.6543 -0.085,-0.4481 -0.2402,-0.9293 -0.2402,-1.1348 0,-0.3391 -0.1598,-0.6721 -0.3906,-0.9414 -0.2308,-0.2693 -0.5363,-0.4793 -0.8731,-0.5351 -0.3006,-0.05 -0.6265,-0.049 -0.9121,-0.082 -0.2856,-0.033 -0.5164,-0.1004 -0.6523,-0.2363 -0.076,-0.076 -0.1964,-0.1228 -0.3028,-0.1055 z m 0.051,0.3711 c 0.2334,0.2279 0.5512,0.302 0.8633,0.3379 0.3156,0.036 0.6382,0.037 0.8926,0.08 0.2182,0.036 0.4669,0.1957 0.6523,0.4121 0.1855,0.2164 0.3028,0.4834 0.3028,0.6992 0,0.3495 0.1689,0.7958 0.246,1.2032 0.039,0.2036 0.053,0.3921 0.029,0.5214 -0.023,0.1293 -0.06,0.1881 -0.164,0.2325 -0.4022,0.1719 -0.5627,0.5666 -0.6817,0.9355 -0.1189,0.3689 -0.213,0.7381 -0.4043,0.9688 -0.247,0.2961 -0.3905,0.5819 -0.541,0.7968 -0.1505,0.215 -0.291,0.3578 -0.5703,0.4375 -0.6335,0.1812 -0.9977,0.224 -1.7519,1.0742 -0.3963,0.4461 -0.4869,0.864 -0.4746,1.25 0.012,0.3861 0.1016,0.7381 0.058,1.1661 -0.048,0.4818 -0.047,1.2205 -0.047,1.9257 0,0.7053 0,1.3856 -0.045,1.6739 -0.096,0.6662 -0.094,1.4141 -0.094,2.0605 0,0.3765 0.1557,0.6706 0.2793,0.9727 0.1236,0.3021 0.2266,0.6144 0.1836,1.0722 -0.045,0.475 -0.1611,0.8618 -0.3067,1.0821 -0.073,0.1101 -0.148,0.1771 -0.2207,0.209 -0.073,0.032 -0.1459,0.036 -0.248,0 -0.1907,-0.064 -0.3081,-0.2755 -0.4336,-0.5488 -0.1254,-0.2733 -0.2449,-0.6096 -0.5742,-0.7422 -0.1069,-0.043 -0.1764,-0.084 -0.2715,-0.1133 -0.095,-0.029 -0.2219,-0.024 -0.332,0.024 -0.2203,0.095 -0.4585,0.3007 -1.0586,0.7617 -0.5825,0.4482 -0.9488,0.5575 -1.2324,0.5293 -0.2837,-0.028 -0.532,-0.2066 -0.8575,-0.4395 -0.3292,-0.2356 -0.6734,-0.4591 -1.0449,-0.539 -0.3715,-0.08 -0.7775,0.017 -1.1074,0.3789 v 0 c -0.2903,0.3193 -0.4101,0.4321 -0.7265,0.5156 -0.3165,0.083 -0.8486,0.1187 -1.8672,0.1953 -1.9725,0.1493 -3.1961,-0.73 -3.4902,-0.9258 -0.063,-0.042 -0.2317,-0.2943 -0.4942,-0.5078 -0.2625,-0.2135 -0.6631,-0.3737 -1.2168,-0.2578 -0.6007,0.1258 -1.0555,0.3641 -2.3164,0 -0.6073,-0.1735 -1.0339,-0.5185 -1.2871,-0.877 -0.2484,-0.3517 -0.3074,-0.7114 -0.25,-0.9043 0.015,0 0.032,4e-4 0.084,0.02 0.1384,0.051 0.3587,0.1721 0.6133,0.2812 0.2545,0.1091 0.5508,0.2071 0.873,0.1973 0.3222,-0.01 0.6658,-0.1371 0.9727,-0.4434 0.5508,-0.5518 1.161,-1.1097 1.5293,-1.6992 0.1841,-0.2947 0.3083,-0.6015 0.3183,-0.9238 0.01,-0.3223 -0.1028,-0.6499 -0.3574,-0.9551 -0.4356,-0.5227 -0.4351,-0.8409 -0.3203,-1.1035 0.1147,-0.2627 0.3939,-0.4808 0.6152,-0.6738 0.4138,-0.3613 1.1099,-0.8884 2.3633,-1.0664 0.5541,-0.079 1.1683,0.297 1.6484,0.5371 0.1201,0.06 0.2331,0.1106 0.3457,0.1406 0.1127,0.03 0.2402,0.042 0.3594,-0.023 0.1192,-0.066 0.1852,-0.1944 0.211,-0.334 0.026,-0.1391 0.022,-0.3066 0,-0.5235 v 0 l -0.1641,-1.4707 c 0.1438,0.01 0.3347,0.038 0.711,-0.037 0.4951,-0.099 1.0826,-0.3646 1.2949,-1.002 0.3585,-1.0783 1.0808,-2.5248 1.0918,-2.5469 0.01,-0.013 0.1712,-0.2144 0.4297,-0.4511 0.2665,-0.2441 0.6237,-0.5036 0.9375,-0.5821 0.2819,-0.071 0.6716,0.086 1.082,0.2071 0.2052,0.06 0.4176,0.109 0.6367,0.084 0.2191,-0.025 0.4389,-0.1399 0.6036,-0.3594 0.4755,-0.6329 0.922,0.01 1.5039,0.049 0.1095,0.01 0.1985,-0.037 0.2734,-0.092 0.075,-0.055 0.1405,-0.1251 0.2012,-0.209 0.1212,-0.1677 0.2235,-0.3881 0.2754,-0.6328 0.052,-0.2446 0.053,-0.5156 -0.043,-0.7734 -0.096,-0.2578 -0.2971,-0.4952 -0.6113,-0.6524 -0.1023,-0.051 -0.1255,-0.084 -0.1368,-0.096 0.054,-0.049 0.2655,-0.1571 0.5235,-0.2324 0.4531,-0.1322 0.8775,-0.1878 1.0371,-0.2109 0.01,0.1348 0.017,0.2929 0.07,0.5761 0.036,0.193 0.082,0.3822 0.1582,0.5352 0.038,0.077 0.082,0.1483 0.1641,0.2031 0.082,0.055 0.2178,0.065 0.3125,0.018 0.1721,-0.087 0.261,-0.24 0.3672,-0.416 0.1061,-0.1761 0.2109,-0.3799 0.3125,-0.5606 0.1015,-0.1807 0.2042,-0.339 0.2753,-0.4082 0.03,-0.029 0.043,-0.032 0.043,-0.033 z"
   id="Guernsey" />
			</g><rect
   style="fill:none;stroke:#000000;stroke-width:0.29998;stroke-linejoin:bevel;stroke-dasharray:none;paint-order:stroke fill markers"
   id="rect2"
   height="4390.293"
   x="0.19998971"
   y="0.19998971"
   ry="0.69917101"
   width="4353.8188" /></svg>
