<?xml version="1.0" encoding="UTF-8" standalone="no"?>
<!-- Generator: Adobe Illustrator 22.1.0, SVG Export Plug-In . SVG Version: 6.00 Build 0)  -->

<svg
   version="1.1"
   x="0px"
   y="0px"
   viewBox="0 0 4354.1187 4390.5933"
   enable-background="new 0 0 1995.865 2834.646"
   xml:space="preserve"
   id="svg1596"
   width="4354.1187"
   height="4390.5933"
   xmlns="http://www.w3.org/2000/svg"
   xmlns:svg="http://www.w3.org/2000/svg"><defs
   id="defs1596" />


<g
   id="English_islands"
   transform="translate(1093.6405,660.66109)">
				<g
   id="Essex_islands">
					<path
   style="fill:#66a8de;stroke-miterlimit:1"
   d="m 1758.6328,2213.7773 -0.1406,0.064 -0.6328,0.7246 c -0.036,0.02 -0.2446,0.132 -0.4473,0.3106 -0.1097,0.097 -0.215,0.2004 -0.2656,0.3515 -0.025,0.076 -0.033,0.172 0,0.2598 0.034,0.088 0.1033,0.1557 0.1856,0.2051 v 0 c 0.247,0.1477 0.4364,0.192 0.6192,0.164 0.1827,-0.028 0.3447,-0.094 0.6992,-0.1386 0.3619,-0.045 0.6418,-0.044 0.8848,-0.1524 0.1214,-0.054 0.2335,-0.1484 0.2988,-0.2773 0.065,-0.129 0.09,-0.2812 0.09,-0.4668 0,-0.3709 -0.1064,-0.6279 -0.2207,-0.7891 -0.1142,-0.1611 -0.2519,-0.2363 -0.2519,-0.2363 l -0.084,-0.02 z m 0.082,0.3711 h 0.5938 c 0.012,0.01 0.039,0.014 0.098,0.098 0.071,0.1 0.1503,0.273 0.1503,0.5762 0,0.1518 -0.022,0.2452 -0.049,0.2988 -0.027,0.054 -0.056,0.079 -0.1191,0.1074 -0.1271,0.057 -0.4012,0.076 -0.7793,0.1231 -0.3845,0.048 -0.5912,0.1206 -0.709,0.1386 -0.1178,0.018 -0.159,0.016 -0.375,-0.1132 -0.033,-0.02 -0.033,-0.03 -0.031,-0.025 0,0 0,0.012 0,0 0.01,-0.031 0.071,-0.1167 0.1583,-0.1934 0.1741,-0.1534 0.4179,-0.2891 0.4179,-0.2891 l 0.051,-0.041 z"
   id="path590" />
					<path
   style="fill:#66a8de;stroke-miterlimit:1"
   d="m 1764.4277,2215.9316 c -0.1782,0.026 -0.3526,0.066 -0.4297,0.066 -0.1971,0 -0.3531,0.099 -0.4746,0.1817 -0.1214,0.083 -0.2089,0.166 -0.2089,0.166 l 0.018,0.2813 c 0,0 0.1723,0.1298 0.3672,0.2597 0.098,0.065 0.2004,0.1298 0.2949,0.1817 0.095,0.052 0.1526,0.1015 0.2891,0.1015 -0.018,0 0.056,0.012 0.1348,0.035 0.078,0.024 0.1747,0.054 0.2754,0.076 0.1006,0.022 0.2068,0.04 0.3222,0.016 0.1155,-0.025 0.2455,-0.1359 0.2735,-0.2754 0.076,-0.3778 -0.068,-0.7383 -0.2969,-0.9668 -0.1646,-0.1664 -0.3862,-0.1487 -0.5645,-0.1231 z m 0.051,0.3653 c 0.1455,-0.021 0.2306,0 0.25,0.018 v 0 c 0.1384,0.1376 0.2281,0.3837 0.1894,0.6171 -0.026,0 -0.077,0 -0.1465,-0.012 -0.077,-0.017 -0.1664,-0.044 -0.248,-0.068 -0.082,-0.025 -0.1429,-0.051 -0.2422,-0.051 0.055,0 -0.033,-0.014 -0.1113,-0.057 -0.079,-0.043 -0.1752,-0.1044 -0.2676,-0.166 -0.078,-0.052 -0.088,-0.061 -0.1484,-0.1035 0.09,-0.056 0.1967,-0.1055 0.2421,-0.1055 0.17,0 0.335,-0.051 0.4805,-0.072 z"
   id="path591" />
					<path
   style="fill:#66a8de;stroke-miterlimit:1"
   d="m 1764.8359,2212.4863 c -0.1131,0.061 -0.1673,0.162 -0.2031,0.2617 -0.072,0.1996 -0.08,0.4388 -0.08,0.6622 0,0.2684 0.1096,0.5061 0.2071,0.705 0.097,0.1989 0.1771,0.3774 0.1797,0.4161 v 0 c 0.01,0.1094 0.085,0.186 0.1503,0.2246 0.065,0.039 0.1338,0.059 0.209,0.076 0.1505,0.034 0.3328,0.049 0.5313,0.059 0.3969,0.019 0.8562,0.01 1.1211,0.021 0.3248,0.014 0.5844,-0.1127 0.7285,-0.3106 0.1441,-0.1978 0.1784,-0.4437 0.1406,-0.6699 -0.041,-0.2425 -0.2107,-0.4136 -0.4043,-0.5059 -0.1936,-0.092 -0.4171,-0.1366 -0.6601,-0.1972 -0.2271,-0.057 -0.3374,-0.1199 -0.4551,-0.1934 -0.1177,-0.073 -0.247,-0.1656 -0.4551,-0.2344 -0.3454,-0.1145 -0.6211,-0.291 -0.6211,-0.291 l -0.014,-0.01 c -0.1158,-0.062 -0.2618,-0.078 -0.375,-0.018 z m 0.1758,0.3262 c -0.01,0 0,0 0.022,0.016 0.01,0 0,-6e-4 0,0 0.012,0.01 0.3028,0.1934 0.6914,0.3223 0.1609,0.053 0.2476,0.1145 0.377,0.1953 0.1293,0.081 0.2965,0.1719 0.5625,0.2383 0.2499,0.062 0.4577,0.1118 0.5879,0.1738 0.1301,0.062 0.1778,0.1049 0.1992,0.2324 0.024,0.1449 0,0.2942 -0.076,0.3926 -0.072,0.098 -0.1819,0.1682 -0.4121,0.1582 -0.2911,-0.013 -0.7419,0 -1.1191,-0.021 -0.1887,-0.01 -0.3585,-0.026 -0.4668,-0.051 -0.052,-0.012 -0.087,-0.027 -0.098,-0.033 -0.032,-0.1736 -0.1111,-0.3226 -0.1914,-0.4864 -0.091,-0.1866 -0.168,-0.3804 -0.168,-0.5429 0,-0.2077 0.018,-0.4295 0.057,-0.5372 0.019,-0.054 0.041,-0.066 0.031,-0.061 z"
   id="path592" />
					<path
   style="fill:#66a8de;stroke-miterlimit:1"
   d="m 1761.5391,2209.8809 c -0.226,0.039 -0.3796,0.118 -0.5118,0.08 -0.277,-0.079 -0.5152,0.028 -0.6464,0.1504 -0.1313,0.1224 -0.1875,0.2657 -0.1875,0.2657 l -0.016,0.061 c 0,0 -0.015,0.2963 -0.023,0.6465 -0.01,0.3502 -0.012,0.7452 0.025,0.9941 0.042,0.278 0.2227,0.4971 0.4531,0.6231 0.2304,0.1259 0.5136,0.1691 0.793,0.1113 0.56,-0.1155 0.9301,-0.5785 1.1055,-0.9258 0.1065,-0.2118 0.068,-0.4368 -0.012,-0.6601 -0.079,-0.2234 -0.1988,-0.4784 -0.3183,-0.8379 -0.068,-0.2048 -0.1529,-0.3474 -0.2774,-0.4356 -0.1244,-0.088 -0.2718,-0.092 -0.3847,-0.072 z m 0.062,0.3632 c 0.064,-0.011 0.081,-0.01 0.1093,0.012 0.028,0.02 0.084,0.085 0.1387,0.25 0.1265,0.3805 0.2539,0.6511 0.3223,0.8437 0.068,0.1927 0.078,0.2749 0.029,0.3711 -0.1367,0.2707 -0.4596,0.6481 -0.8496,0.7285 v 0 c -0.1947,0.04 -0.3917,0.01 -0.5391,-0.072 -0.1473,-0.081 -0.2404,-0.1995 -0.2636,-0.3536 -0.028,-0.182 -0.032,-0.5881 -0.024,-0.9316 0.01,-0.3192 0.019,-0.5507 0.022,-0.5879 0.01,-0.014 0.03,-0.065 0.09,-0.1211 0.067,-0.063 0.137,-0.1103 0.291,-0.066 0.2998,0.086 0.5469,-0.05 0.6758,-0.072 z"
   id="path593" />
					<path
   style="fill:#66a8de;stroke-miterlimit:1"
   d="m 1693.6699,2265.8652 c -0.1354,-5e-4 -0.2583,0.01 -0.3769,0.08 -0.026,0.016 -0.1349,0.061 -0.2617,0.098 -0.1269,0.037 -0.2779,0.073 -0.4219,0.1054 -0.2881,0.064 -0.5469,0.1094 -0.5469,0.1094 l -0.025,0.3594 c 0,0 0.056,0.031 0.125,0.084 0.069,0.053 0.1548,0.1258 0.25,0.2011 0.1903,0.1508 0.4174,0.3191 0.6797,0.3946 v 0 c 0.3805,0.1084 0.8034,0.4427 1.4883,0.375 0.6497,-0.065 1.3298,-0.2972 1.6914,-0.5547 0.034,-0.024 0.1436,-0.064 0.2676,-0.094 0.1239,-0.029 0.2615,-0.053 0.3828,-0.086 0.061,-0.016 0.1188,-0.034 0.1758,-0.064 0.057,-0.031 0.135,-0.086 0.1523,-0.1973 0.017,-0.1108 -0.043,-0.196 -0.1,-0.25 -0.056,-0.054 -0.1242,-0.098 -0.2168,-0.1484 v 0 c -0.6956,-0.3791 -1.0244,-0.3923 -1.7675,-0.332 -0.3442,0.029 -0.7194,-0.014 -1.045,-0.049 -0.1628,-0.017 -0.3138,-0.033 -0.4492,-0.033 z m 0,0.3711 c 0.1073,4e-4 0.2492,0.012 0.4102,0.029 0.3213,0.034 0.7181,0.084 1.1133,0.051 0.7304,-0.059 0.9007,-0.066 1.5488,0.2852 -0.087,0.02 -0.1802,0.039 -0.2871,0.064 -0.1383,0.033 -0.2757,0.066 -0.3965,0.1524 -0.2564,0.1825 -0.9333,0.4296 -1.5156,0.4882 -0.5492,0.054 -0.8662,-0.2275 -1.3496,-0.3652 -0.1687,-0.049 -0.3731,-0.1878 -0.5528,-0.3301 -0.033,-0.026 -0.06,-0.049 -0.092,-0.074 0.067,-0.014 0.066,-0.011 0.1407,-0.027 0.1489,-0.033 0.3078,-0.07 0.4472,-0.1114 0.1395,-0.041 0.2539,-0.078 0.3516,-0.1386 0,0 0.074,-0.024 0.1816,-0.023 z"
   id="path594" />
					<path
   style="fill:#66a8de;stroke-miterlimit:1"
   d="m 1700.3047,2269.0938 c -0.076,-0.01 -0.1601,-0.01 -0.2461,0.047 -0.086,0.056 -0.1309,0.1691 -0.1309,0.2598 l 0.016,-0.078 c 0,0 -0.04,0.087 -0.061,0.1972 -0.02,0.1108 -0.029,0.2761 0.09,0.4141 0,0.01 0.043,0.071 0.094,0.1602 0.051,0.091 0.1207,0.2095 0.2188,0.3457 0.196,0.2722 0.5069,0.614 1.0175,0.9648 0.4916,0.338 0.9667,0.6756 1.3496,0.959 0.383,0.2833 0.6796,0.5194 0.7813,0.6211 0.1017,0.1017 0.2906,0.3503 0.5059,0.6426 0.2152,0.2922 0.4646,0.634 0.7148,0.9472 0.2901,0.3619 0.7542,0.5365 1.2578,0.6485 0.5037,0.1119 1.0581,0.1598 1.5567,0.2207 0.494,0.06 1.055,0.1691 1.5664,0.2089 0.5113,0.04 0.9901,0.027 1.3105,-0.2539 0.5695,-0.498 0.8027,-1.4543 0.8027,-2.2363 0,-0.2666 0.2772,-0.6956 0.4454,-1.0742 0.084,-0.1893 0.1585,-0.395 0.055,-0.5977 -0.052,-0.1013 -0.1484,-0.1765 -0.2617,-0.2226 -0.1133,-0.046 -0.2469,-0.07 -0.414,-0.078 -1.2174,-0.061 -3.2237,-0.314 -3.918,-0.4883 -0.745,-0.1893 -2.289,-0.4969 -2.9492,-0.6778 -0.7005,-0.1908 -1.5661,-0.2922 -2.2403,-0.3945 -0.2888,-0.043 -0.7192,-0.2421 -1.0742,-0.3867 -0.1775,-0.072 -0.3342,-0.1327 -0.4863,-0.1484 z m -0.023,0.371 c 0.069,0.01 0.2059,0.055 0.3691,0.1211 0.3378,0.1377 0.7705,0.35 1.1582,0.4082 0.6839,0.1038 1.5417,0.2076 2.1992,0.3868 0.6978,0.1911 2.2381,0.497 2.957,0.6796 0.7717,0.1938 2.7417,0.4354 3.9883,0.4981 0.1411,0.01 0.2396,0.028 0.2949,0.051 0.055,0.023 0.064,0.039 0.07,0.051 0.012,0.023 0.01,0.1216 -0.062,0.2793 -0.1401,0.3154 -0.4786,0.7502 -0.4786,1.2226 0,0.7001 -0.2572,1.5911 -0.6757,1.957 -0.1726,0.1513 -0.5575,0.2015 -1.0371,0.1641 -0.4797,-0.037 -1.0378,-0.1444 -1.5508,-0.207 -0.5085,-0.062 -1.0537,-0.1089 -1.5215,-0.2129 -0.4672,-0.1039 -0.8457,-0.2691 -1.0488,-0.5215 -0.2428,-0.3038 -0.4888,-0.6399 -0.7051,-0.9336 -0.2163,-0.2937 -0.3977,-0.5402 -0.543,-0.6855 -0.1453,-0.1453 -0.4345,-0.3713 -0.8223,-0.6582 -0.3877,-0.287 -0.8668,-0.6268 -1.3613,-0.9668 -0.4764,-0.3273 -0.7519,-0.6336 -0.9258,-0.875 -0.087,-0.1208 -0.1484,-0.2241 -0.1972,-0.3106 -0.049,-0.086 -0.077,-0.1526 -0.1348,-0.2207 v 0 c -0.01,-0.01 -0.015,-0.047 0,-0.1055 0.011,-0.059 0.031,-0.1074 0.031,-0.1074 z"
   id="Wallasea_Island_4_" />
					<path
   style="fill:#66a8de;stroke-miterlimit:1"
   d="m 1706.9746,2275.4551 c -0.3897,0.058 -0.8744,0.2127 -1.2344,0.3027 -0.3594,0.09 -0.4571,0.085 -0.5332,0.068 -0.076,-0.016 -0.201,-0.072 -0.4707,-0.072 -0.3512,0 -0.5758,0.2754 -0.7129,0.5078 -0.1337,0.2268 -0.196,0.4385 -0.1992,0.4492 -0.1354,0.337 -0.3864,1.2877 -0.3203,2.1055 0.033,0.4129 0.1687,0.6852 0.3945,0.8262 0.2259,0.141 0.4814,0.151 0.7559,0.1816 0.097,0.011 0.1295,0.037 0.1602,0.08 0.031,0.043 0.054,0.1213 0.061,0.2246 0.013,0.2066 -0.042,0.4896 -0.074,0.7168 -0.036,0.2539 0,0.5375 0.086,0.7832 0.088,0.2457 0.229,0.4822 0.4922,0.5352 0.097,0.019 0.205,-0.024 0.2656,-0.082 0.061,-0.058 0.093,-0.1238 0.1211,-0.1933 0.056,-0.1391 0.087,-0.3024 0.1114,-0.4746 0.024,-0.1723 0.039,-0.3511 0.053,-0.5 0.013,-0.149 0.029,-0.2783 0.035,-0.3047 0.012,-0.046 0.1202,-0.2084 0.2598,-0.3867 0.1396,-0.1783 0.3047,-0.3885 0.4102,-0.6348 0.1983,-0.4632 0.3175,-1.0712 0.5468,-1.6016 v 0 c 0.2647,-0.6132 0.2746,-1.4132 0.4844,-1.9824 0.036,-0.098 0.054,-0.1953 0.027,-0.295 -0.026,-0.1 -0.1072,-0.1837 -0.1895,-0.2226 -0.1646,-0.078 -0.3345,-0.058 -0.5293,-0.029 z m 0.053,0.3652 c 0.1606,-0.024 0.2778,-0.01 0.3047,0 -2e-4,0.01 0,0.014 -0.014,0.055 -0.2443,0.6627 -0.2613,1.4641 -0.4766,1.9629 -0.2507,0.5796 -0.3772,1.2027 -0.5488,1.6035 -0.079,0.1857 -0.2213,0.3763 -0.3594,0.5527 -0.1382,0.1765 -0.2777,0.3247 -0.3281,0.5254 -0.024,0.097 -0.031,0.2118 -0.045,0.3614 -0.013,0.1495 -0.029,0.3233 -0.051,0.4824 -0.022,0.1591 -0.053,0.306 -0.086,0.3887 0,0 0,0 0,0.01 -0.052,-0.031 -0.1288,-0.095 -0.1855,-0.2539 -0.066,-0.1858 -0.092,-0.4273 -0.066,-0.6055 0.029,-0.2048 0.096,-0.5068 0.078,-0.7929 -0.01,-0.1431 -0.04,-0.2883 -0.1289,-0.4141 -0.089,-0.1258 -0.2417,-0.2146 -0.4219,-0.2344 -0.2815,-0.031 -0.4882,-0.058 -0.6015,-0.1289 -0.1134,-0.071 -0.1926,-0.1869 -0.2208,-0.541 -0.058,-0.7139 0.1981,-1.7037 0.295,-1.9433 l 0.01,-0.016 c 0,0 0.058,-0.1909 0.168,-0.3769 0.1097,-0.1861 0.2527,-0.3282 0.3945,-0.3282 0.2234,0 0.2529,0.035 0.3926,0.064 0.1397,0.03 0.3206,0.025 0.7012,-0.07 0.3801,-0.095 0.8617,-0.247 1.1972,-0.2969 z"
   id="Potton_Island_4_" />
					<path
   style="fill:#66a8de;stroke-miterlimit:1"
   d="m 1696.4395,2246.8086 c -0.2259,0.01 -0.4141,0.023 -0.4141,0.023 l -0.098,0.037 c 0,0 -0.1433,0.1015 -0.2265,0.2774 -0.042,0.088 -0.068,0.2076 -0.029,0.332 0.038,0.1245 0.1358,0.2325 0.2773,0.3145 h 0.01 c 0,0 0.6956,0.3799 0.9863,0.6504 0.3189,0.2985 0.6364,0.6579 1.4785,0.7871 0.4012,0.062 0.6289,0.1011 0.875,0.045 0.2462,-0.056 0.4615,-0.1927 0.8594,-0.4395 0.4288,-0.2659 0.7587,-0.6379 0.8945,-1.0117 0.068,-0.1869 0.087,-0.3841 0.012,-0.5625 -0.076,-0.1784 -0.2483,-0.3108 -0.4726,-0.3672 -0.4097,-0.1024 -0.8293,-0.066 -1.1973,-0.027 -0.368,0.039 -0.691,0.073 -0.8613,0.027 -0.2694,-0.071 -0.5646,-0.066 -0.8281,-0.059 -0.2627,0.01 -0.5033,0.015 -0.5938,0 v 0 c -0.1882,-0.041 -0.4409,-0.035 -0.666,-0.027 z m 0.014,0.3691 c 0.2157,-0.01 0.4766,0 0.5742,0.02 v 0 c 0.1962,0.042 0.4261,0.019 0.6816,0.012 0.2555,-0.01 0.526,0 0.7246,0.049 v 0 c 0.2977,0.079 0.6337,0.021 0.9942,-0.018 0.3605,-0.038 0.7381,-0.063 1.0683,0.019 0.1458,0.037 0.1961,0.09 0.2227,0.1524 0.027,0.063 0.027,0.1617 -0.02,0.291 -0.094,0.2585 -0.376,0.5971 -0.7422,0.8242 -0.3972,0.2463 -0.587,0.3563 -0.7461,0.3926 -0.1591,0.036 -0.3374,0.013 -0.7383,-0.049 -0.7619,-0.1168 -0.9381,-0.3719 -1.2793,-0.6914 v 0 c -0.3713,-0.3455 -1.0645,-0.7051 -1.0645,-0.7051 h 0.01 c -0.088,-0.051 -0.1045,-0.088 -0.1094,-0.1036 0,-0.016 0,-0.032 0.012,-0.064 0.024,-0.05 0.065,-0.084 0.09,-0.1074 0.049,0 0.1487,-0.013 0.3261,-0.02 z"
   id="Osea_Island_4_" />
					<path
   style="fill:#66a8de;stroke-miterlimit:1"
   d="m 1691.3027,2246.3418 c -0.3316,0.067 -0.5051,0.3628 -0.6074,0.6055 -0.1024,0.243 -0.1406,0.4707 -0.1406,0.4707 l 0.01,-0.025 c -0.064,0.2065 -0.1277,0.256 -0.1308,0.2578 0,9e-4 0.01,0 0.022,0 0.012,4e-4 0.043,0.012 0.043,0.012 l -0.1777,0.01 c 0,0 -0.1443,0.09 -0.2793,0.2363 -0.135,0.1464 -0.285,0.376 -0.2168,0.6504 v 0 c 0.1178,0.4685 0.5587,0.681 0.8828,0.7442 v 0 c 0.1854,0.035 0.4537,0.027 0.7734,0.019 0.3197,-0.01 0.6761,-0.021 0.9688,-0.016 0.3305,0 0.5811,-0.074 0.7441,-0.2324 0.163,-0.1583 0.2113,-0.3838 0.1816,-0.5879 -0.037,-0.2575 -0.2341,-0.4281 -0.4394,-0.5625 -0.2053,-0.1345 -0.4355,-0.2295 -0.6172,-0.2813 0,0 0,0 0,0 0,-0.024 0,-0.095 0.021,-0.1739 0.02,-0.079 0.051,-0.1682 0.076,-0.2519 0.013,-0.042 0.024,-0.082 0.031,-0.125 0.01,-0.043 0.018,-0.089 -0.01,-0.1602 -0.029,-0.088 -0.075,-0.1442 -0.1387,-0.2129 -0.063,-0.069 -0.1447,-0.1393 -0.2422,-0.2031 -0.1943,-0.1272 -0.4625,-0.2281 -0.7558,-0.1699 z m 0.074,0.3633 c 0.1687,-0.034 0.34,0.025 0.4804,0.1172 0.07,0.046 0.1298,0.099 0.1719,0.1445 0.036,0.038 0.048,0.063 0.051,0.064 0,0.017 -0.01,0.043 -0.018,0.076 -0.021,0.071 -0.054,0.1657 -0.08,0.2656 -0.026,0.1 -0.049,0.2052 -0.029,0.3243 0.019,0.119 0.1191,0.2583 0.2598,0.2988 v 0 c 0.1414,0.04 0.3507,0.1283 0.5157,0.2363 0.1649,0.1081 0.2679,0.2381 0.2773,0.3047 0.017,0.1199 -0.01,0.203 -0.074,0.2695 -0.069,0.067 -0.21,0.1301 -0.4805,0.127 -0.3084,-0.01 -0.668,0.01 -0.9843,0.016 -0.3164,0.01 -0.6038,0.01 -0.6954,-0.012 -0.2299,-0.045 -0.5274,-0.1991 -0.5957,-0.4707 -0.024,-0.096 0.035,-0.2084 0.1309,-0.3125 0.085,-0.092 0.1612,-0.1389 0.1816,-0.1523 0.041,-0.01 0.081,-0.01 0.125,-0.033 0.1227,-0.072 0.2199,-0.2123 0.2989,-0.4668 l 0.01,-0.023 c 0,0 0.032,-0.1902 0.1153,-0.3867 0.083,-0.1965 0.2115,-0.3608 0.3418,-0.3867 z"
   id="Northey_Island_4_" />
					<path
   style="fill:#66a8de;stroke-miterlimit:1"
   d="m 1723.7754,2229.7715 c -0.4836,0.027 -0.9827,0.053 -1.3652,0.01 -0.912,-0.1027 -1.7209,0.4986 -2.377,1.0625 -0.68,0.5823 -1.4255,1.6071 -1.8613,2.0429 -0.2141,0.2141 -0.6309,0.5396 -1.0352,0.8516 -0.4042,0.3119 -0.7931,0.607 -1,0.8144 -0.1394,0.1391 -0.2242,0.3421 -0.3144,0.586 -0.074,0.2012 -0.138,0.4304 -0.1993,0.6543 h -0.2792 v 1.1718 c 0,2e-4 -1e-4,0.017 0,0.018 0,10e-5 0.016,0.057 0.016,0.057 0,0 0.014,0.01 0.016,0.01 0.01,0.117 0.031,0.2433 0.1172,0.3086 0.1073,0.081 0.2354,0.1158 0.3828,0.1406 0.2948,0.05 0.6792,0.041 1.1055,0.01 0.8526,-0.067 1.8627,-0.2419 2.4629,-0.3437 1.1809,-0.1993 2.3098,-0.1606 3.5449,-0.6387 1.2311,-0.4752 1.6422,-1.0456 2.2324,-1.2988 0.6302,-0.2704 2.2195,-0.8275 3.4492,-1.6153 0.6382,-0.4079 0.8874,-0.9056 0.9512,-1.3652 0.064,-0.4596 -0.033,-0.8797 -0.033,-1.168 0,-0.219 -0.1307,-0.4044 -0.3008,-0.4961 -0.1701,-0.092 -0.3694,-0.1244 -0.5918,-0.1484 -0.4447,-0.048 -0.9868,-0.05 -1.4629,-0.1797 -1.0218,-0.2791 -1.4984,-0.374 -2.1484,-0.4785 -0.3599,-0.057 -0.825,-0.027 -1.3086,0 z m 1.25,0.3652 c 0.6439,0.1035 1.0952,0.1938 2.1094,0.4707 0.5419,0.148 1.1087,0.1452 1.5195,0.1895 0.2054,0.022 0.37,0.059 0.457,0.1054 0.087,0.047 0.1075,0.067 0.1075,0.1719 0,0.3588 0.087,0.7428 0.035,1.1172 -0.052,0.3744 -0.2184,0.7425 -0.7832,1.1035 -1.1742,0.7522 -2.7307,1.3023 -3.3965,1.5879 -0.7058,0.3028 -1.0578,0.8441 -2.2207,1.293 -1.157,0.4479 -2.2476,0.4124 -3.4726,0.6191 -0.6019,0.1022 -1.6051,0.2769 -2.4297,0.3418 -0.4123,0.032 -0.783,0.035 -1.0157,0 -0.1163,-0.02 -0.1939,-0.053 -0.2187,-0.072 -0.025,-0.019 -0.013,0.012 -0.01,-0.014 h -0.014 c 5e-4,0 0,0 0,0 0,-2e-4 0,-0.01 0.01,-0.012 0,-0.01 0,-0.011 0,-0.014 0,-0.011 0,-0.014 0.01,-0.021 0,-0.015 0.01,-0.033 0.012,-0.059 0.011,-0.05 0.027,-0.1241 0.047,-0.2148 0.04,-0.1816 0.097,-0.4322 0.166,-0.6934 0.069,-0.2612 0.1492,-0.5347 0.2324,-0.7598 0.083,-0.225 0.183,-0.4057 0.2285,-0.4511 0.1631,-0.1636 0.5599,-0.4707 0.9649,-0.7832 0.405,-0.3126 0.8214,-0.6339 1.0703,-0.8829 0.4881,-0.4881 1.2238,-1.4958 1.8398,-2.0234 0.6374,-0.5477 1.3723,-1.0548 2.0938,-0.9746 0.4334,0.049 0.9441,0.019 1.4277,-0.01 0.4837,-0.027 0.9433,-0.049 1.2305,0 z"
   id="Mersea_Island_4_" />
					<path
   style="fill:#66a8de;stroke-miterlimit:1"
   d="m 1763.3965,2212.8242 c -0.1612,0.049 -0.3039,0.1434 -0.4414,0.2559 -0.2751,0.225 -0.5315,0.529 -0.7539,0.7519 -0.1579,0.1564 -0.4862,0.1767 -0.7969,0.1231 -0.3115,-0.054 -0.5723,-0.1621 -0.5723,-0.1621 l -0.022,-0.01 c -0.179,-0.051 -0.3494,-0.045 -0.4726,0.053 -0.1232,0.098 -0.1541,0.243 -0.1582,0.3691 -0.01,0.2524 0.081,0.5169 0.1269,0.668 0.043,0.1437 0.1111,0.4138 0.168,0.666 0.057,0.2522 0.1,0.5172 0.1,0.5488 0,0.077 0.04,0.132 0.07,0.1641 0.031,0.032 0.061,0.05 0.092,0.068 0.063,0.036 0.1327,0.064 0.2149,0.092 0.1644,0.055 0.3732,0.1049 0.5898,0.1464 0.2167,0.042 0.4386,0.073 0.627,0.09 0.094,0.01 0.1792,0.013 0.2539,0.012 0.075,0 0.1335,-3e-4 0.2109,-0.031 0.1417,-0.057 0.195,-0.1654 0.2481,-0.2657 0.053,-0.1007 0.099,-0.209 0.1445,-0.3027 0.046,-0.094 0.095,-0.1694 0.125,-0.1973 0.03,-0.028 0.01,-0.025 0.039,-0.012 0.2442,0.097 0.5326,0.086 0.7753,0.066 0.2428,-0.019 0.4375,-0.057 0.4375,-0.057 l 0.1504,-0.1817 v -0.8593 c 0,-0.1151 -0.025,-0.4769 -0.1093,-0.8848 -0.042,-0.204 -0.098,-0.4132 -0.1797,-0.5996 -0.082,-0.1864 -0.1875,-0.3571 -0.3574,-0.459 -0.1607,-0.096 -0.3486,-0.1034 -0.5098,-0.055 z m 0.1074,0.3535 c 0.087,-0.026 0.1425,-0.023 0.2129,0.02 0.061,0.037 0.1414,0.1395 0.207,0.289 0.066,0.1496 0.1194,0.3376 0.1582,0.5254 0.078,0.3756 0.1,0.7686 0.1,0.8106 v 0.6972 c -0.071,0.012 -0.1092,0.02 -0.2461,0.031 -0.2194,0.017 -0.4845,0.01 -0.6113,-0.041 -0.1507,-0.06 -0.3257,-0.01 -0.4238,0.082 -0.098,0.09 -0.1545,0.2008 -0.207,0.3086 -0.053,0.1078 -0.098,0.2161 -0.1387,0.293 -0.041,0.077 -0.086,0.1066 -0.059,0.096 0.02,-0.01 -0.023,0 -0.078,0 -0.055,7e-4 -0.1311,0 -0.2168,-0.01 -0.1715,-0.015 -0.3843,-0.046 -0.5899,-0.086 -0.2056,-0.039 -0.405,-0.089 -0.5429,-0.1348 -0.064,-0.021 -0.11,-0.042 -0.1368,-0.057 -0.011,-0.1479 -0.045,-0.3219 -0.096,-0.5469 -0.059,-0.2595 -0.1271,-0.5301 -0.1757,-0.6914 -0.046,-0.1539 -0.116,-0.404 -0.1114,-0.5469 0,-0.072 0.021,-0.095 0.02,-0.094 0,8e-4 0.022,-0.02 0.1406,0.014 l -0.02,-0.01 c 0,0 0.293,0.1236 0.6523,0.1856 0.3593,0.062 0.8155,0.081 1.1211,-0.2246 v 0 c 0.2396,-0.2402 0.4912,-0.5376 0.7247,-0.7286 0.1167,-0.096 0.2271,-0.1611 0.3144,-0.1875 z"
   id="Horsey_Island_4_" />
					<path
   style="fill:#66a8de;stroke-miterlimit:1"
   d="m 1721.4629,2269.6406 c -0.307,0.043 -0.6225,0.1716 -0.9316,0.3262 -0.3092,0.1546 -0.6121,0.3366 -0.8809,0.4883 -0.2689,0.1516 -0.5096,0.2722 -0.6543,0.3086 -0.1538,0.038 -0.6656,0.1157 -1.3164,0.2011 -0.6518,0.086 -1.4581,0.183 -2.252,0.2793 -0.7938,0.096 -1.5753,0.1915 -2.1836,0.2696 -0.3041,0.039 -0.5641,0.074 -0.7617,0.1035 -0.1975,0.029 -0.3118,0.044 -0.4043,0.074 v 0 c -0.1713,0.057 -0.2611,0.2168 -0.3028,0.3731 -0.042,0.1562 -0.049,0.3333 -0.045,0.5234 0.01,0.3802 0.069,0.8149 0.1,1.1465 0.029,0.32 0.013,0.7187 -0.08,1.0683 -0.093,0.3497 -0.2586,0.64 -0.5097,0.7911 -0.2637,0.1579 -0.6026,0.2058 -0.9903,0.2363 -0.3876,0.03 -0.8188,0.045 -1.25,0.1777 -0.3818,0.1176 -0.5829,0.1099 -0.7871,0.1641 -0.102,0.027 -0.2082,0.08 -0.291,0.1699 -0.083,0.09 -0.1433,0.2043 -0.209,0.3613 -0.2667,0.6394 -0.2093,1.1939 -0.3906,1.6289 v 0 c -0.1986,0.4785 -0.4228,0.82 -0.4883,1.4707 -0.07,0.7055 0.323,1.5136 0.4805,2.1016 0.1695,0.6366 0.3876,0.8964 0.8887,1.2714 0.2776,0.2085 0.6183,0.3349 0.9414,0.4375 0.3231,0.1026 0.6315,0.1814 0.8222,0.2637 v 0 c 0.169,0.072 0.3503,0.052 0.5312,0 0.181,-0.048 0.3679,-0.1301 0.5528,-0.2265 0.3697,-0.193 0.7291,-0.4436 0.9472,-0.5997 0.2558,-0.1821 0.4423,-0.4575 0.625,-0.7011 0.1828,-0.2437 0.3624,-0.4476 0.5118,-0.5117 0.1861,-0.08 0.2958,-0.074 0.3554,-0.061 0.06,0.014 0.057,0.022 0.057,0.022 l 0.248,0.012 c 2.0426,-1.6712 3.5263,-3.1554 4.8125,-4.2578 1.2973,-1.111 2.9796,-2.6 3.9278,-4.3066 0.4732,-0.8524 0.63,-1.4941 0.5527,-2.0352 -0.077,-0.5411 -0.3886,-0.9492 -0.7695,-1.3301 -0.2317,-0.231 -0.5485,-0.2886 -0.8555,-0.2461 z m 0.051,0.3672 c 0.2367,-0.033 0.4041,0 0.5429,0.1406 0.3591,0.3591 0.6046,0.6907 0.6661,1.1211 0.061,0.4304 -0.06,0.9891 -0.5118,1.8028 -0.9018,1.6233 -2.551,3.098 -3.8437,4.205 -1.2819,1.0988 -2.7513,2.5549 -4.7266,4.1797 -0.031,-0.015 -0.027,-0.024 -0.066,-0.033 -0.1406,-0.033 -0.3411,-0.025 -0.5859,0.08 -0.2837,0.1218 -0.4729,0.3793 -0.6602,0.6289 -0.1872,0.2496 -0.3696,0.4982 -0.5449,0.6231 -0.2138,0.1529 -0.5645,0.3949 -0.9043,0.5722 -0.1699,0.089 -0.3374,0.1603 -0.4766,0.1973 -0.1391,0.037 -0.244,0.034 -0.291,0.014 -0.2402,-0.1037 -0.5463,-0.1792 -0.8554,-0.2774 -0.3092,-0.098 -0.6157,-0.2183 -0.8321,-0.3808 -0.4849,-0.363 -0.5954,-0.475 -0.7539,-1.0704 -0.1725,-0.644 -0.521,-1.4402 -0.4687,-1.9687 0.059,-0.5813 0.2495,-0.8577 0.4609,-1.3672 0.2288,-0.549 0.1615,-1.0843 0.3887,-1.6289 0.058,-0.1385 0.1058,-0.2142 0.1406,-0.2519 0.035,-0.038 0.055,-0.049 0.1152,-0.064 0.1197,-0.032 0.3807,-0.039 0.8008,-0.168 0.3709,-0.1137 0.7716,-0.1308 1.1699,-0.1621 0.3984,-0.031 0.8001,-0.076 1.1524,-0.2871 0.3659,-0.22 0.57,-0.608 0.6777,-1.0137 0.1077,-0.4056 0.1221,-0.8392 0.09,-1.1972 -0.032,-0.3474 -0.092,-0.7766 -0.1,-1.1211 0,-0.1723 0.01,-0.3236 0.033,-0.4199 0.026,-0.096 0.051,-0.1128 0.064,-0.1172 0,-4e-4 0.1478,-0.032 0.3399,-0.061 0.1931,-0.029 0.4529,-0.063 0.7558,-0.1015 0.6059,-0.078 1.3876,-0.1732 2.1817,-0.2696 0.794,-0.096 1.5993,-0.1933 2.2539,-0.2793 0.6545,-0.086 1.1448,-0.1547 1.3613,-0.209 0.2253,-0.057 0.4695,-0.1908 0.7441,-0.3457 0.2747,-0.1549 0.5731,-0.3324 0.8653,-0.4785 0.2922,-0.146 0.5797,-0.2582 0.8164,-0.291 z"
   id="Foulness_Island_4_" />
					<path
   style="fill:#66a8de;stroke-miterlimit:1"
   d="m 1669.248,2286.7344 c -0.1172,-0.019 -0.234,-0.013 -0.3339,0.041 -0.1,0.054 -0.1645,0.1448 -0.2051,0.2363 -0.081,0.183 -0.1061,0.3961 -0.166,0.666 -0.068,0.3082 -0.033,0.5459 0,0.7325 0.031,0.1865 0.056,0.313 0.01,0.4882 -0.123,0.4309 -0.2164,0.7908 -0.7266,1.1309 -0.084,0.056 -0.2943,0.1105 -0.5488,0.127 -0.2546,0.016 -0.5543,0.01 -0.8379,-0.018 -0.5672,-0.045 -1.0684,-0.1367 -1.0684,-0.1367 h -0.033 v 0 l -0.166,0.1036 c 0,0 -0.087,0.1739 -0.1309,0.4023 -0.044,0.2284 -0.052,0.5399 0.1543,0.7871 0.1318,0.1578 0.2059,0.3485 0.3496,0.5684 0.1437,0.2199 0.3625,0.4525 0.7578,0.6504 0.7851,0.392 1.3235,0.2692 1.8985,0.3847 0.2661,0.053 0.3457,0.1437 0.4765,0.3106 0.1309,0.1669 0.2905,0.4122 0.625,0.6465 0.602,0.4205 0.9057,0.7661 1.8067,0.8945 0.8752,0.1247 1.519,0.1241 2.5468,0 0.5243,-0.063 0.8178,-0.1628 1.0606,-0.2481 0.2428,-0.085 0.4281,-0.1525 0.8105,-0.1816 0.8615,-0.066 1.4152,-0.5076 2.7051,-0.8711 1.3153,-0.3706 1.2993,-0.4162 1.9668,-1.0273 0.3418,-0.3119 0.5408,-0.5121 0.6152,-0.7715 0.075,-0.2595 -0.01,-0.5043 -0.1308,-0.8477 -0.144,-0.3951 -0.4644,-0.5764 -0.7871,-0.623 -0.3228,-0.047 -0.6636,0 -0.9844,-0.012 -0.6657,-0.02 -1.3106,-0.095 -2.334,-0.5196 -0.2512,-0.1041 -0.3892,-0.1888 -0.459,-0.2461 -0.07,-0.057 -0.073,-0.073 -0.082,-0.1054 -0.01,-0.032 -0.01,-0.1103 -0.068,-0.2071 -0.059,-0.097 -0.1616,-0.1728 -0.3183,-0.2421 -0.5902,-0.2632 -1.227,-0.3244 -1.9961,-0.4004 -0.3525,-0.034 -0.8501,-0.1792 -1.3281,-0.3418 -0.4781,-0.1627 -0.9379,-0.3405 -1.2598,-0.4375 -0.2697,-0.081 -0.6204,-0.2904 -0.9434,-0.4903 -0.3229,-0.1999 -0.5948,-0.3945 -0.8672,-0.4394 z m -0.061,0.3633 c 0.098,0.016 0.4098,0.1897 0.7344,0.3906 0.3245,0.2009 0.683,0.4247 1.0293,0.5293 0.295,0.089 0.7611,0.2679 1.248,0.4336 0.4869,0.1656 0.9936,0.3207 1.4102,0.3613 0.7688,0.076 1.3649,0.1383 1.8828,0.3691 0.1212,0.054 0.1449,0.087 0.1504,0.096 0.01,0.01 0.01,0.034 0.031,0.1172 0.024,0.084 0.085,0.1959 0.2012,0.291 0.1158,0.095 0.2849,0.189 0.5547,0.3008 1.0606,0.4397 1.7746,0.5266 2.4629,0.5469 0.3582,0.011 0.6961,-0.026 0.9433,0.01 0.2467,0.036 0.3873,0.1017 0.4903,0.3828 0.1221,0.3356 0.1611,0.4933 0.125,0.6191 -0.036,0.1258 -0.1766,0.2955 -0.5098,0.5996 -0.6804,0.6229 -0.5057,0.576 -1.8164,0.9453 -1.3361,0.3766 -1.8902,0.801 -2.6328,0.8575 -0.4196,0.032 -0.6631,0.1164 -0.9043,0.2011 -0.2412,0.085 -0.4867,0.1707 -0.9824,0.2305 -1.0102,0.1219 -1.6004,0.1213 -2.4512,0 -0.825,-0.1176 -1.0145,-0.3886 -1.6465,-0.8301 -0.2825,-0.1977 -0.4,-0.3849 -0.5469,-0.5722 -0.1469,-0.1874 -0.3454,-0.3735 -0.6953,-0.4434 -0.659,-0.1324 -1.1078,-0.01 -1.8047,-0.3555 -0.3437,-0.1721 -0.4949,-0.3403 -0.6132,-0.5214 -0.1184,-0.1812 -0.1978,-0.3914 -0.375,-0.6036 -0.1026,-0.1228 -0.1095,-0.3054 -0.076,-0.4785 0.02,-0.1068 0.038,-0.1346 0.061,-0.1894 0.1188,0.021 0.4425,0.083 0.9473,0.123 0.2945,0.024 0.6075,0.036 0.8906,0.018 0.2831,-0.018 0.5365,-0.058 0.7305,-0.1875 0.5998,-0.3999 0.7539,-0.9068 0.8769,-1.3379 0.073,-0.2558 0.034,-0.4672 0,-0.6504 -0.031,-0.1832 -0.057,-0.3459 0,-0.5918 0.063,-0.2841 0.1005,-0.5009 0.1426,-0.5957 0.021,-0.047 0.035,-0.058 0.043,-0.062 0.01,0 0.03,-0.013 0.098,0 z"
   id="Canvey_Island_4_" />
				</g>
				<g
   id="Kent_islands">
					<path
   style="fill:#66a8de;stroke-miterlimit:1"
   d="m 1686.7129,2312.8027 c -0.1353,0.01 -0.2633,0.044 -0.3887,0.08 -0.2507,0.072 -0.4784,0.1155 -0.5605,0.074 -0.273,-0.1368 -0.5667,-0.042 -0.8477,0.062 -0.281,0.1045 -0.5694,0.2383 -0.8164,0.293 -0.6238,0.1396 -0.9778,0.5975 -1.0918,0.7461 -0.08,0.1028 -0.1336,0.1958 -0.1387,0.3125 0,0.1167 0.069,0.2273 0.1426,0.2812 0.1479,0.1079 0.3068,0.1308 0.4414,0.1856 0.2233,0.09 0.4279,0.022 0.6016,-0.023 0.1736,-0.045 0.3308,-0.082 0.5332,-0.031 0.2113,0.053 0.2836,0.1227 0.4062,0.2598 0.1227,0.137 0.278,0.3412 0.5723,0.5703 0.078,0.061 0.146,0.1033 0.2188,0.1308 0.073,0.028 0.1684,0.041 0.2558,-0.01 0.087,-0.047 0.1242,-0.1321 0.1387,-0.1973 0.014,-0.065 0.014,-0.1252 0.01,-0.1875 -0.018,-0.2492 -0.114,-0.5599 -0.1407,-0.7187 -0.011,-0.064 0,-0.09 0,-0.1 0.024,0 0.1492,0 0.3164,0.059 0.1439,0.048 0.2167,0.1222 0.3027,0.2226 0.086,0.1004 0.1786,0.2354 0.3516,0.3223 0.117,0.058 0.2806,0.029 0.3672,-0.049 0.086,-0.078 0.1293,-0.1741 0.1621,-0.2773 0.065,-0.2063 0.08,-0.4527 0.043,-0.6719 -0.065,-0.3862 -0.1871,-0.844 -0.4726,-1.1816 -0.1059,-0.1262 -0.269,-0.1628 -0.4043,-0.1563 z m 0.018,0.3692 c 0.073,0 0.086,0.01 0.1035,0.025 0.2084,0.2464 0.3313,0.652 0.3906,1.0058 0.025,0.1498 0.011,0.3649 -0.031,0.4981 -0.015,0.046 -0.027,0.06 -0.039,0.078 -0.063,-0.042 -0.1202,-0.1017 -0.207,-0.2031 -0.099,-0.1159 -0.2427,-0.2589 -0.4688,-0.334 -0.1967,-0.065 -0.3665,-0.1193 -0.5508,-0.062 -0.092,0.028 -0.1852,0.1075 -0.2246,0.2051 -0.039,0.098 -0.038,0.1983 -0.019,0.3105 0.033,0.1961 0.106,0.4643 0.1269,0.6367 -0.01,-0.01 -0.01,0 -0.018,-0.012 -0.2607,-0.2029 -0.3821,-0.3677 -0.5215,-0.5234 -0.1394,-0.1557 -0.3121,-0.3028 -0.5938,-0.3731 -0.2906,-0.073 -0.5357,-0.014 -0.7168,0.033 -0.1811,0.047 -0.2844,0.071 -0.3691,0.037 -0.1611,-0.065 -0.2961,-0.1084 -0.3379,-0.1308 0,-0.01 0,-0.023 0.047,-0.078 0.11,-0.1434 0.3947,-0.503 0.8789,-0.6114 0.308,-0.068 0.6067,-0.2125 0.8652,-0.3086 0.2585,-0.096 0.4568,-0.1243 0.5528,-0.076 0.2878,0.1447 0.5853,0.019 0.8281,-0.051 0.1214,-0.035 0.2319,-0.063 0.3047,-0.066 z"
   id="path595" />
					<path
   style="fill:#66a8de;stroke-miterlimit:1"
   d="m 1686.6699,2315.4102 -0.207,0.061 c 0,0 -0.1198,0.1502 -0.2676,0.3066 -0.074,0.078 -0.1549,0.1575 -0.2265,0.2168 -0.072,0.059 -0.1419,0.095 -0.1465,0.096 -0.039,0.01 -0.2084,-0.014 -0.377,-0.084 -0.1686,-0.07 -0.3462,-0.1731 -0.4531,-0.2539 -0.055,-0.041 -0.1269,-0.072 -0.2012,-0.072 -0.074,-2e-4 -0.1413,0.028 -0.1914,0.064 -0.1003,0.073 -0.154,0.1702 -0.2031,0.2774 -0.098,0.2143 -0.1605,0.4855 -0.1934,0.7148 -0.033,0.2303 -0.037,0.4451 0.031,0.6446 0.068,0.1994 0.2166,0.3701 0.4316,0.4921 0.3331,0.19 0.7442,0.607 1.4278,0.6758 v 0 c 0.5853,0.058 0.808,0.2342 1.3301,0.3653 0.2852,0.071 0.5486,0.039 0.75,-0.072 0.2013,-0.1109 0.3418,-0.311 0.3418,-0.5391 0,-0.2156 -0.09,-0.4229 -0.1914,-0.6582 -0.1019,-0.2352 -0.2226,-0.4934 -0.3106,-0.7578 -0.1872,-0.5577 -0.2911,-0.8629 -0.4531,-1.0488 -0.061,-0.07 -0.1239,-0.1024 -0.1992,-0.1426 -0.075,-0.04 -0.1611,-0.079 -0.2481,-0.1152 -0.1739,-0.073 -0.353,-0.137 -0.4453,-0.1699 z m -0.01,0.3945 c 0.095,0.034 0.195,0.068 0.3125,0.1172 0.081,0.034 0.1579,0.068 0.2168,0.1 0.059,0.031 0.1009,0.069 0.094,0.061 0.054,0.062 0.1961,0.3716 0.3809,0.9219 0.097,0.2916 0.2238,0.5599 0.3222,0.7871 0.098,0.2273 0.1621,0.4194 0.1621,0.5117 0,0.08 -0.043,0.158 -0.1504,0.2168 -0.1068,0.059 -0.2746,0.087 -0.4824,0.035 -0.4659,-0.117 -0.7361,-0.3089 -1.3847,-0.3731 -0.5484,-0.055 -0.8744,-0.3988 -1.2813,-0.6308 v 0 c -0.155,-0.088 -0.2222,-0.1758 -0.2618,-0.291 -0.04,-0.1153 -0.044,-0.27 -0.016,-0.4707 0.029,-0.2027 0.091,-0.4576 0.1621,-0.6133 0.03,-0.065 0.056,-0.094 0.07,-0.1094 0.1366,0.099 0.3115,0.2027 0.5,0.2813 0.2012,0.084 0.4017,0.1537 0.6094,0.1015 0.1184,-0.03 0.2028,-0.095 0.293,-0.1699 0.09,-0.075 0.1775,-0.163 0.2578,-0.248 0.1096,-0.1161 0.1485,-0.1674 0.1973,-0.2266 z"
   id="path596" />
					<path
   style="fill:#66a8de;stroke-miterlimit:1"
   d="m 1675.1094,2317.4395 c -0.1358,0.032 -0.2648,0.096 -0.3555,0.2089 -0.091,0.113 -0.1296,0.2702 -0.1094,0.4317 0.032,0.2562 0.095,0.6013 0.1856,0.8828 0.045,0.1407 0.096,0.2647 0.1719,0.3672 0.038,0.051 0.084,0.1009 0.1562,0.1328 0.072,0.032 0.1727,0.029 0.2461,-0.01 0.034,-0.017 0.2845,-0.042 0.4902,-0.027 0.2057,0.015 0.3828,0.045 0.3828,0.045 l 0.1485,-0.041 c 0.221,-0.1845 0.3171,-0.3961 0.3867,-0.4785 0.035,-0.041 0.047,-0.049 0.076,-0.055 0.029,-0.01 0.094,0 0.2148,0.043 0.2499,0.096 0.4595,0.2571 0.6856,0.3242 0.057,0.017 0.1195,0.027 0.1914,0.016 0.072,-0.012 0.1482,-0.057 0.1953,-0.1172 0.094,-0.1206 0.1055,-0.2584 0.1055,-0.4532 -10e-5,-0.3256 0.1012,-0.5103 0.076,-0.7539 -0.013,-0.1218 -0.1059,-0.2593 -0.2324,-0.3203 -0.1265,-0.061 -0.2799,-0.087 -0.5039,-0.1094 -0.4542,-0.046 -0.76,0.012 -0.9941,0.049 -0.2342,0.037 -0.3806,0.055 -0.6231,-0.037 -0.3042,-0.1152 -0.6229,-0.1636 -0.8945,-0.1 z m 0.086,0.3613 c 0.1596,-0.038 0.427,-0.011 0.6777,0.084 0.3135,0.1189 0.567,0.095 0.8106,0.057 0.2436,-0.038 0.4916,-0.086 0.9004,-0.045 0.2075,0.021 0.332,0.052 0.3789,0.074 0.047,0.023 0.023,0 0.025,0.023 0.01,0.055 -0.078,0.3274 -0.078,0.7168 0,0.1403 -0.021,0.1835 -0.024,0.1954 -0.1004,-0.032 -0.348,-0.1945 -0.6484,-0.3106 -0.1567,-0.061 -0.2914,-0.086 -0.418,-0.062 -0.1265,0.024 -0.2256,0.1023 -0.291,0.1797 -0.1151,0.1361 -0.1847,0.2673 -0.2988,0.3828 -0.066,-0.01 -0.1428,-0.025 -0.3106,-0.037 -0.2038,-0.015 -0.4188,-0.014 -0.6152,0.061 0,0 0,0 -0.01,-0.01 -0.03,-0.04 -0.078,-0.1405 -0.1172,-0.2617 -0.078,-0.2425 -0.14,-0.5767 -0.1699,-0.8145 -0.011,-0.085 0.01,-0.1215 0.031,-0.1523 0.025,-0.031 0.073,-0.061 0.1523,-0.08 z"
   id="path597" />
					<path
   style="fill:#66a8de;stroke-miterlimit:1"
   d="m 1671.1348,2315.8496 c -0.1185,0.03 -0.2206,0.097 -0.3672,0.2109 -0.2985,0.2324 -0.4524,0.4584 -0.5117,0.668 -0.059,0.2096 -0.018,0.3904 0.016,0.502 0.055,0.1826 0.1891,0.2879 0.3008,0.3769 0.1116,0.089 0.2148,0.1504 0.2148,0.1504 l 0.057,0.022 c 0.4553,0.094 0.8346,0.082 1.3808,0.1172 0.2412,0.016 0.5435,0.1172 0.8203,0.1543 0.1384,0.019 0.279,0.026 0.416,-0.039 0.1371,-0.065 0.2336,-0.2193 0.2539,-0.3926 0.028,-0.2377 0.1218,-0.3852 0.094,-0.6054 -0.014,-0.1101 -0.1028,-0.2303 -0.2129,-0.2832 -0.1101,-0.053 -0.2372,-0.074 -0.416,-0.09 -0.6499,-0.059 -0.8571,-0.2297 -1.3692,-0.4218 -0.1957,-0.073 -0.2151,-0.1652 -0.3496,-0.2872 -0.067,-0.061 -0.2077,-0.112 -0.3261,-0.082 z m 0.084,0.3613 c 0.038,0.037 0.1675,0.2437 0.4609,0.3536 0.474,0.1778 0.7586,0.3787 1.4668,0.4433 0.1601,0.014 0.2567,0.039 0.289,0.055 0.032,0.016 0,-0.012 0.01,0 0,0.02 -0.06,0.2264 -0.094,0.5157 -0.011,0.091 -0.02,0.088 -0.045,0.1 -0.025,0.012 -0.1009,0.022 -0.2089,0.01 -0.2162,-0.029 -0.5309,-0.1359 -0.8458,-0.1563 -0.5502,-0.036 -0.9043,-0.031 -1.3027,-0.1093 -0.022,-0.013 -0.069,-0.041 -0.1426,-0.1 -0.089,-0.071 -0.1699,-0.176 -0.1757,-0.1954 -0.027,-0.09 -0.049,-0.178 -0.016,-0.2949 0.033,-0.1169 0.1263,-0.2749 0.3828,-0.4746 0.1268,-0.098 0.2029,-0.1359 0.2247,-0.1426 z"
   id="path598" />
					<path
   style="fill:#66a8de;stroke-miterlimit:1"
   d="m 1679.7461,2313.0176 c -0.1297,0.038 -0.2207,0.1258 -0.291,0.2148 -0.1407,0.1781 -0.2329,0.3916 -0.3321,0.5156 l -0.021,0.1973 c 0,0 0.098,0.1948 0.25,0.4277 0.152,0.233 0.3549,0.5092 0.6054,0.6895 v 0 c 0.2346,0.1684 0.4317,0.2431 0.6172,0.2188 0.1854,-0.024 0.313,-0.1539 0.3886,-0.2676 0.098,-0.148 0.092,-0.3129 0.076,-0.4824 -0.016,-0.1696 -0.047,-0.3718 -0.047,-0.668 0,-0.1697 -0.018,-0.2982 -0.076,-0.4082 -0.058,-0.1101 -0.1627,-0.1807 -0.2539,-0.2129 -0.1826,-0.064 -0.3255,-0.055 -0.502,-0.1563 -0.1372,-0.078 -0.2864,-0.1061 -0.416,-0.068 z m 0.1035,0.3554 c 0.023,-0.01 0.05,-0.012 0.1289,0.033 0.2555,0.146 0.4831,0.1555 0.5625,0.1835 0.04,0.014 0.038,0.012 0.051,0.037 0.013,0.025 0.033,0.097 0.033,0.2363 0,0.3208 0.032,0.5489 0.047,0.7031 0.015,0.1542 0.01,0.2061 -0.016,0.2441 -0.047,0.071 -0.079,0.097 -0.127,0.1036 -0.048,0.01 -0.1611,-0.013 -0.3555,-0.1524 -0.1774,-0.1277 -0.3717,-0.3753 -0.5117,-0.5898 -0.1091,-0.1673 -0.1489,-0.2494 -0.1777,-0.3047 0.1,-0.1512 0.1887,-0.3164 0.2597,-0.4063 0.045,-0.057 0.083,-0.081 0.1055,-0.088 z"
   id="path599" />
					<path
   style="fill:#66a8de;stroke-miterlimit:1"
   d="m 1695.1758,2307.2969 c -0.1103,0.024 -0.2088,0.1029 -0.2539,0.1933 -0.09,0.1808 -0.04,0.3496 0,0.4825 0.031,0.1023 0.054,0.1496 0.07,0.1836 -0.012,0.058 -0.09,0.3987 -0.09,0.8496 0,0.2435 0.023,0.5048 0.1016,0.7421 0.079,0.2374 0.2227,0.46 0.4629,0.5801 0.069,0.034 0.097,0.065 0.1094,0.088 0.013,0.023 0.017,0.045 0.01,0.092 -0.014,0.093 -0.1009,0.2623 -0.2343,0.4512 -0.2668,0.3778 -0.6937,0.8436 -0.8985,1.3555 l 0.076,-0.09 c 0,0 -0.3663,0.2165 -0.5137,0.6563 -0.079,0.2375 -0.07,0.5239 -0.055,0.8007 0.016,0.2769 0.047,0.5459 0.047,0.6758 0,0.1339 0.052,0.2364 0.1,0.3262 0.048,0.09 0.096,0.1705 0.1192,0.2285 0.023,0.058 0.02,0.075 0.014,0.088 -0.01,0.013 -0.04,0.057 -0.1718,0.1094 -0.2666,0.1057 -0.6005,0.1111 -0.8946,0.1269 -0.147,0.01 -0.2846,0.017 -0.414,0.062 -0.1294,0.045 -0.2643,0.1625 -0.291,0.3223 -0.029,0.1703 -0.085,0.3412 -0.047,0.5762 0.038,0.2349 0.1623,0.5052 0.4472,0.916 0.5887,0.8517 1.3458,1.1035 2.0567,1.8144 0.7247,0.7248 0.9044,1.1644 1.8203,1.9805 0.4456,0.397 0.6889,0.6524 0.8223,0.8633 0.1333,0.2109 0.1711,0.3848 0.2011,0.6836 0.027,0.2694 -0.01,0.8919 0.035,1.4258 0.022,0.2669 0.061,0.5163 0.1621,0.7168 0.051,0.1002 0.1221,0.1921 0.2246,0.2519 0.1025,0.06 0.2314,0.077 0.3555,0.049 0.5228,-0.1167 0.6731,-0.1005 0.9179,-0.1015 0.2449,0 0.5598,-0.021 1.3086,-0.209 0.7387,-0.1851 1.1321,-0.2704 1.5079,-0.2285 0.3757,0.042 0.7724,0.2153 1.5097,0.584 1.5462,0.772 3.0623,0.3935 4.6875,0.5742 1.6516,0.1835 1.624,0.3631 2.5723,0.5527 0.9122,0.1832 1.2173,0.3322 2.5078,1.4375 0.3331,0.2855 0.6045,0.4623 0.8652,0.5547 0.2607,0.092 0.508,0.092 0.75,0.041 0.484,-0.1019 0.9682,-0.3741 1.8711,-0.5547 0.943,-0.1885 1.4506,-0.4371 1.8672,-0.8047 0.4167,-0.3675 0.7349,-0.8266 1.3731,-1.4648 0.6163,-0.6164 1.0428,-0.6402 1.4277,-0.7109 0.1924,-0.035 0.3958,-0.086 0.5527,-0.252 0.157,-0.1664 0.2425,-0.414 0.291,-0.7988 0.1015,-0.8007 -0.2523,-1.5015 -0.7285,-2.125 -0.4761,-0.6236 -1.0799,-1.1875 -1.5312,-1.7285 -0.9198,-1.1038 -2.0382,-2.5938 -4.0801,-4.6368 v 0 c -1.0274,-1.0274 -1.6642,-1.4277 -2.332,-1.5761 -0.6678,-0.1484 -1.3143,-0.051 -2.4082,-0.1426 -2.193,-0.1827 -4.9632,-0.919 -7.1855,-1.4746 -2.1473,-0.5368 -3.0293,-2.1309 -3.0293,-2.1309 l -0.1446,-0.094 c 0,0 -2.1749,-0.1824 -4.3535,-1.6348 -0.5629,-0.375 -0.9402,-0.5689 -1.2187,-0.6484 -0.1393,-0.04 -0.2569,-0.054 -0.3672,-0.029 z m 0.076,0.3594 c 10e-4,0 -0.016,0.01 0,0 0.02,0 0.082,-0.01 0.1855,0.023 0.2069,0.059 0.5681,0.2352 1.1152,0.5997 2.1946,1.463 4.3152,1.6679 4.4434,1.6796 0.077,0.1324 1.0008,1.6829 3.1992,2.2325 2.2177,0.5544 4.9971,1.297 7.2461,1.4843 1.1261,0.094 1.7745,0.01 2.3555,0.1348 0.5809,0.1291 1.1467,0.469 2.1543,1.4766 2.0261,2.027 3.1264,3.497 4.0566,4.6132 0.4737,0.568 1.0724,1.1267 1.5215,1.7149 0.4491,0.5882 0.7428,1.1881 0.6582,1.8555 -0.044,0.3486 -0.121,0.5111 -0.1953,0.5898 -0.074,0.079 -0.1721,0.108 -0.3496,0.1406 -0.3551,0.065 -0.9444,0.1358 -1.6231,0.8145 -0.6568,0.6568 -0.9856,1.123 -1.3554,1.4492 -0.3699,0.3262 -0.7873,0.5392 -1.6953,0.7207 -0.9471,0.1894 -1.4808,0.4716 -1.875,0.5547 -0.1972,0.041 -0.355,0.042 -0.5508,-0.027 -0.1959,-0.069 -0.4337,-0.2188 -0.7481,-0.4882 -1.3015,-1.1148 -1.734,-1.3308 -2.6738,-1.5196 -0.9017,-0.1803 -0.929,-0.3721 -2.6074,-0.5586 -1.7029,-0.1893 -3.1487,0.1709 -4.5625,-0.5351 -0.7427,-0.3714 -1.1763,-0.5702 -1.6328,-0.6211 -0.4566,-0.051 -0.8964,0.05 -1.6387,0.2363 -0.7322,0.1834 -0.9928,0.1983 -1.2207,0.1992 -0.2279,0 -0.4489,-0.013 -0.9961,0.1094 -0.052,0.012 -0.069,0 -0.09,-0.01 -0.021,-0.012 -0.051,-0.042 -0.08,-0.1 -0.059,-0.1163 -0.1026,-0.3322 -0.1231,-0.5781 -0.041,-0.4919 -8e-4,-1.087 -0.035,-1.4336 -0.032,-0.3183 -0.089,-0.5767 -0.2578,-0.8438 -0.1689,-0.267 -0.4353,-0.5374 -0.8887,-0.9414 -0.8842,-0.7879 -1.0494,-1.2115 -1.8047,-1.9668 -0.7691,-0.7691 -1.4924,-1.0094 -2.0137,-1.7637 -0.27,-0.3892 -0.3626,-0.6131 -0.3867,-0.7636 -0.024,-0.1506 0.013,-0.2574 0.047,-0.4571 0,-0.025 -0.01,-0.015 0.049,-0.035 0.058,-0.02 0.1717,-0.034 0.3106,-0.041 0.2776,-0.015 0.6553,-0.011 1.0117,-0.1524 0.1794,-0.071 0.3084,-0.1635 0.3711,-0.2988 0.063,-0.1353 0.035,-0.2751 -0.01,-0.3789 -0.041,-0.1038 -0.097,-0.1915 -0.1367,-0.2656 -0.039,-0.074 -0.057,-0.1318 -0.057,-0.1524 0,-0.179 -0.032,-0.4348 -0.047,-0.6972 -0.015,-0.2625 -0.01,-0.5297 0.037,-0.6622 0.1006,-0.3001 0.3516,-0.457 0.3516,-0.457 l 0.076,-0.09 c 0.1653,-0.4132 0.5709,-0.8709 0.8594,-1.2793 0.1442,-0.2043 0.2645,-0.3944 0.2969,-0.6074 0.016,-0.1066 0.01,-0.2257 -0.051,-0.3282 -0.057,-0.1024 -0.1517,-0.1803 -0.2676,-0.2383 -0.1298,-0.065 -0.2177,-0.1883 -0.2773,-0.3671 -0.06,-0.1789 -0.082,-0.4061 -0.082,-0.625 0,-0.4379 0.088,-0.8379 0.088,-0.8379 l -0.016,-0.1231 c 0,0 -0.041,-0.079 -0.07,-0.1777 -0.03,-0.098 -0.025,-0.2069 -0.023,-0.2109 z"
   id="Isle_of_Sheppey" />
				</g>
				<path
   style="fill:#66a8de;stroke-miterlimit:1"
   d="m 1519.1191,1810.1113 c -0.3347,0.056 -0.5027,0.1237 -0.6113,0.2266 -0.054,0.051 -0.091,0.1183 -0.1,0.1797 -0.01,0.061 0.019,0.1308 0.019,0.1308 l 0.014,0.025 c 0,0 0.1345,0.2032 0.2695,0.4395 0.067,0.1181 0.1357,0.2457 0.1836,0.3535 0.048,0.1078 0.07,0.2074 0.07,0.2148 0,0.1274 0.082,0.2022 0.1504,0.252 0.069,0.05 0.1483,0.087 0.2403,0.1211 0.1839,0.069 0.418,0.1261 0.6718,0.168 0.5077,0.084 1.0685,0.1207 1.4375,0.01 0.2461,-0.077 0.5305,-0.041 0.8633,0.01 0.3329,0.046 0.7123,0.099 1.1231,0 0.1079,-0.027 0.1957,-0.061 0.2695,-0.1192 0.074,-0.058 0.1299,-0.1555 0.1348,-0.25 0.01,-0.1889 -0.1037,-0.3048 -0.2149,-0.416 -0.2224,-0.2223 -0.5574,-0.4405 -0.6601,-0.543 -0.204,-0.2039 -0.5348,-0.2986 -0.9336,-0.416 -0.3988,-0.1174 -0.8593,-0.2338 -1.2656,-0.3691 -0.876,-0.2913 -1.3461,-0.06 -1.6622,-0.01 z m 1.545,0.3575 c 0.4256,0.1417 0.8898,0.257 1.2773,0.371 0.3875,0.1141 0.7043,0.2512 0.7774,0.3243 0.1752,0.1746 0.489,0.372 0.6601,0.5429 0.075,0.075 0.088,0.1227 0.094,0.1211 -0.017,0.011 -0.046,0.026 -0.1114,0.043 -0.3292,0.082 -0.6513,0.042 -0.9824,0 -0.3311,-0.046 -0.6735,-0.1014 -1.0234,0.01 -0.225,0.07 -0.7938,0.061 -1.2676,-0.018 -0.2369,-0.039 -0.4565,-0.093 -0.6035,-0.1484 -0.073,-0.028 -0.1279,-0.057 -0.1524,-0.074 -0.024,-0.018 0,-0.011 0,0.047 0,-0.131 -0.047,-0.2389 -0.1035,-0.3652 -0.056,-0.1263 -0.1279,-0.262 -0.1992,-0.3867 -0.1063,-0.1861 -0.166,-0.2717 -0.2129,-0.3438 0.034,-0.022 0.1015,-0.068 0.3594,-0.1113 v 0 c 0.414,-0.07 0.6924,-0.2686 1.4825,-0.01 z"
   id="Reads_Island_4_" />
				<path
   style="fill:#66a8de;stroke-miterlimit:1"
   d="m 965.72266,2360.4219 c -0.10275,0 -0.18971,0.047 -0.25391,0.1035 -0.0642,0.057 -0.11426,0.1249 -0.1582,0.1992 -0.0879,0.1486 -0.15462,0.3271 -0.21094,0.5039 -0.11264,0.3536 -0.17578,0.7012 -0.17578,0.7012 l -0.002,0.025 -0.0937,1.9726 0.002,0.031 c 0,0 0.0536,0.4593 0.0918,0.9941 0.0382,0.5349 0.0528,1.1609 0.002,1.4141 -0.13137,0.6579 -0.12707,1.7705 -0.002,2.7734 0.0708,0.5588 0.44717,0.9368 0.9375,1.1074 0.49034,0.1707 1.09442,0.1648 1.71875,0.037 h 0.002 c 0.31871,-0.065 0.53238,-0.1521 0.67383,-0.295 0.14144,-0.1428 0.16876,-0.3575 0.10937,-0.5195 -0.11877,-0.3239 -0.44404,-0.5588 -0.71484,-0.75 -0.18539,-0.131 -0.23585,-0.3876 -0.21094,-0.7148 0.0249,-0.3273 0.12812,-0.6878 0.19141,-0.9414 0.0386,-0.1549 0.0586,-0.3841 0.0742,-0.6739 0.0156,-0.2897 0.0234,-0.6326 0.0234,-0.9746 0,-0.342 -0.008,-0.6828 -0.0234,-0.9726 -0.0156,-0.2899 -0.0356,-0.5208 -0.0742,-0.6758 -0.0835,-0.3347 -0.37478,-0.6557 -0.63477,-0.9922 -0.12999,-0.1682 -0.25301,-0.3352 -0.33984,-0.4805 -0.0868,-0.1453 -0.13086,-0.2705 -0.13086,-0.332 0,-0.2773 -0.0641,-0.627 -0.18164,-0.9297 -0.0588,-0.1513 -0.12907,-0.2896 -0.22461,-0.4023 -0.0955,-0.1128 -0.23012,-0.209 -0.39453,-0.209 z m 0,0.3711 c 0.0206,0 0.0567,0.012 0.11132,0.076 0.0547,0.064 0.1151,0.1728 0.16407,0.2989 0.0979,0.2521 0.15625,0.5792 0.15625,0.7949 0,0.185 0.0796,0.3526 0.18164,0.5234 0.10207,0.1708 0.2331,0.3446 0.36523,0.5157 0.26427,0.342 0.52885,0.6971 0.56836,0.8554 0.0229,0.092 0.0493,0.3248 0.0644,0.6055 0.0151,0.2807 0.0215,0.6167 0.0215,0.9531 0,0.3364 -0.006,0.6745 -0.0215,0.9551 -0.0151,0.2806 -0.0416,0.5119 -0.0644,0.6035 -0.0597,0.2393 -0.17208,0.6197 -0.20117,1.002 -0.0291,0.3822 0.0276,0.8049 0.36719,1.0449 0.25319,0.1788 0.52935,0.4378 0.58007,0.5762 0.0254,0.069 0.0297,0.077 -0.0234,0.1308 -0.0529,0.053 -0.20592,0.1354 -0.48633,0.1934 -0.57866,0.1183 -1.12923,0.1144 -1.52539,-0.023 -0.39616,-0.1378 -0.63725,-0.3775 -0.69141,-0.8046 -0.12088,-0.9691 -0.11659,-2.0802 -0.002,-2.6543 0.0728,-0.3641 0.0407,-0.97 0.002,-1.5137 -0.0385,-0.5392 -0.0908,-0.9912 -0.0918,-1 l 0.0937,-1.9434 c 0.002,-0.014 0.059,-0.323 0.16015,-0.6406 0.0517,-0.1622 0.11524,-0.324 0.17774,-0.4297 0.0312,-0.053 0.0639,-0.09 0.084,-0.1074 0.0201,-0.018 0.02,-0.012 0.01,-0.012 z"
   id="Lundy_Island_4_" />
				<g
   id="Isles_of_Scilly">
					<path
   style="fill:#66a8de;stroke-miterlimit:1"
   d="m 746.26758,2628.8008 c -0.47711,0.119 -0.87324,0.1449 -1.20703,0.2676 -0.1669,0.061 -0.32154,0.1533 -0.4375,0.2988 -0.11597,0.1455 -0.18682,0.3342 -0.22071,0.5723 -0.13108,0.9122 -0.002,2.5156 -0.002,2.5156 l 0.01,0.045 c 0,0 0.0441,0.1522 0.0234,0.2754 -0.0104,0.062 -0.0311,0.1057 -0.0723,0.1406 -0.0411,0.035 -0.11503,0.07 -0.26953,0.07 -0.37,0 -0.71586,0 -1.01758,0.049 -0.30172,0.05 -0.57724,0.1601 -0.74024,0.4043 -0.17982,0.2723 -0.15378,0.6316 -0.12109,0.9394 0.0327,0.3078 0.0977,0.5664 0.0977,0.5664 l 0.17968,0.1406 h 0.98633 l 0.11719,-0.043 0.0488,-0.041 c 9.5e-4,0.06 -0.0384,0.1094 -0.0176,0.1718 0.0657,0.1971 0.23375,0.3689 0.50781,0.5059 0.5041,0.2525 0.94528,0.4195 1.30664,0.4375 0.18069,0.01 0.35385,-0.02 0.48828,-0.127 0.13444,-0.1069 0.20118,-0.2833 0.20118,-0.4746 0,-0.2209 0.19001,-0.6096 0.42578,-0.8593 0.11788,-0.1249 0.2462,-0.2155 0.33789,-0.25 0.0917,-0.035 0.11423,-0.031 0.15234,0.01 0.079,0.079 0.16195,0.187 0.25195,0.2929 0.09,0.1059 0.1865,0.2163 0.33204,0.2774 0.14553,0.061 0.34028,0.033 0.49218,-0.086 0.15191,-0.1188 0.29082,-0.3099 0.45118,-0.6093 0.63153,-1.1811 0.63867,-1.9788 0.63867,-2.7188 0,-0.4727 -0.35056,-0.8893 -0.67188,-1.2109 -0.30756,-0.3078 -0.58762,-0.5034 -0.61328,-0.5215 -0.0221,-0.053 -0.11857,-0.3028 -0.36523,-0.5801 -0.27162,-0.3053 -0.72252,-0.5999 -1.29297,-0.457 z m 0.0898,0.3594 c 0.41555,-0.1041 0.7039,0.094 0.92578,0.3437 0.22189,0.2494 0.33789,0.5313 0.33789,0.5313 l 0.0645,0.082 c 0,0 0.29661,0.2085 0.59179,0.5039 0.29518,0.2954 0.5625,0.682 0.5625,0.9492 0,0.74 0.007,1.422 -0.59375,2.5449 -0.14814,0.2766 -0.27225,0.4302 -0.35156,0.4922 -0.0793,0.062 -0.0837,0.052 -0.12305,0.035 -0.0393,-0.017 -0.11389,-0.08 -0.19336,-0.1738 -0.0795,-0.093 -0.16547,-0.2107 -0.27148,-0.3165 -0.14688,-0.1472 -0.37073,-0.1593 -0.54492,-0.094 -0.17419,0.066 -0.33049,0.1911 -0.47461,0.3437 -0.28823,0.3053 -0.5293,0.7193 -0.5293,1.1133 0,0.1172 -0.0252,0.1555 -0.0605,0.1836 -0.0353,0.028 -0.11047,0.053 -0.23829,0.047 -0.25563,-0.013 -0.67825,-0.155 -1.16015,-0.3965 -0.21893,-0.1095 -0.29751,-0.2129 -0.32422,-0.293 -0.0267,-0.08 -0.0107,-0.1641 0.0371,-0.2597 0.0951,-0.1901 0.31001,-0.3613 0.3125,-0.3633 10e-6,0 0.002,0 0.002,0 l 0.008,-0.01 -0.22851,-0.291 c 0,0 -0.006,0.01 -0.006,0.01 h -0.002 l -0.68946,0.5742 h -0.76172 c -0.0186,-0.083 -0.0429,-0.1724 -0.0644,-0.375 -0.0296,-0.2784 -0.005,-0.5966 0.0605,-0.6953 0.084,-0.1258 0.23866,-0.2019 0.49219,-0.2441 0.25352,-0.042 0.58703,-0.043 0.95703,-0.043 0.2155,0 0.38907,-0.056 0.50976,-0.1582 0.12069,-0.1024 0.17687,-0.2419 0.19727,-0.3633 0.0408,-0.2428 -0.0391,-0.455 -0.0391,-0.455 l 0.01,0.045 c 0,0 -0.11887,-1.6199 -0.002,-2.4336 0.0276,-0.194 0.0792,-0.3126 0.14453,-0.3945 0.0653,-0.082 0.15112,-0.1372 0.27734,-0.1836 0.25246,-0.093 0.65908,-0.127 1.16797,-0.2539 z"
   id="path600" />
					<path
   style="fill:#66a8de;stroke-miterlimit:1"
   d="m 745.66016,2620.4727 c -0.0888,0.04 -0.16509,0.1428 -0.17969,0.2441 -0.0146,0.1013 0.008,0.1969 0.0488,0.3086 v 0 c 0.0868,0.235 0.20468,0.4137 0.23828,0.5762 0.0336,0.1625 0.0183,0.3198 -0.20899,0.5996 -0.27348,0.3364 -0.37462,0.6791 -0.29297,0.9805 0.0817,0.3014 0.33132,0.5246 0.6504,0.6621 0.30727,0.1332 0.58371,0.1834 0.76757,0.2559 0.18387,0.072 0.26412,0.1255 0.3125,0.33 0.0745,0.3148 0.28361,0.5941 0.53516,0.7774 0.12577,0.092 0.26411,0.1595 0.41211,0.1855 0.148,0.026 0.30939,0.01 0.44531,-0.084 0.41994,-0.2792 0.60278,-0.6476 1.2793,-0.7363 0.42684,-0.057 0.82046,-0.3016 1.11914,-0.584 0.29868,-0.2824 0.51953,-0.5838 0.51953,-0.8984 0,-0.1856 -0.1197,-0.3212 -0.24609,-0.418 -0.12639,-0.097 -0.27626,-0.171 -0.42383,-0.2304 -0.29514,-0.1189 -0.58399,-0.1817 -0.58399,-0.1817 l -0.16601,0.047 c 0,0 -0.30618,0.2828 -0.66016,0.498 -0.17698,0.1076 -0.36465,0.1957 -0.51367,0.2247 -0.14902,0.029 -0.23283,0.012 -0.30273,-0.064 -0.47295,-0.5173 -0.83823,-1.0049 -1.08008,-1.3672 -0.24687,-0.3698 -0.49219,-0.7402 -0.49219,-0.7402 l -0.0586,-0.057 c 0,0 -0.32143,-0.1967 -0.63282,-0.3027 -0.15569,-0.053 -0.30884,-0.108 -0.48632,-0.027 z m 0.19921,0.3457 c 0.0233,0 0.0698,-3e-4 0.16797,0.033 0.23513,0.08 0.49749,0.2352 0.5293,0.2539 0.0251,0.038 0.23142,0.3495 0.46484,0.6992 0.25194,0.3774 0.62879,0.8779 1.11524,1.4101 0.17009,0.1871 0.42426,0.2228 0.64648,0.1797 0.22223,-0.043 0.43871,-0.1511 0.63672,-0.2715 0.34646,-0.2106 0.56139,-0.415 0.62891,-0.4765 0.061,0.014 0.22741,0.051 0.44922,0.1406 0.12968,0.052 0.25634,0.1172 0.33789,0.1797 0.0815,0.062 0.10156,0.1091 0.10156,0.125 0,0.088 -0.14848,0.387 -0.4043,0.6289 -0.25581,0.2419 -0.6009,0.4449 -0.91406,0.4863 -0.80348,0.1054 -1.11353,0.5822 -1.43359,0.795 -0.0491,0.033 -0.1041,0.043 -0.17969,0.029 -0.0756,-0.013 -0.16771,-0.055 -0.25781,-0.1211 -0.1802,-0.1313 -0.34207,-0.3573 -0.39063,-0.5625 -0.0746,-0.3155 -0.30218,-0.4966 -0.53906,-0.5899 -0.23688,-0.093 -0.49313,-0.1381 -0.75586,-0.2519 -0.25192,-0.1086 -0.39586,-0.2571 -0.43945,-0.418 -0.0436,-0.1609 -0.004,-0.3718 0.22265,-0.6504 0.27377,-0.3371 0.33661,-0.6519 0.28321,-0.9102 -0.0534,-0.2582 -0.18579,-0.4498 -0.25196,-0.6289 -0.0181,-0.049 -0.0149,-0.059 -0.0176,-0.08 z"
   id="path601" />
					<path
   style="fill:#66a8de;stroke-miterlimit:1"
   d="m 743.51172,2621.0293 -0.14258,0.029 c -0.42001,0.2998 -0.77318,0.4765 -1.01367,0.6699 -0.12025,0.097 -0.22593,0.2079 -0.25781,0.3633 -0.0319,0.1554 0.0272,0.3129 0.13281,0.459 0.21892,0.3025 0.55682,0.4034 0.86719,0.4472 0.30964,0.044 0.61362,0.045 0.82031,0.1016 0.14493,0.041 0.27967,0.053 0.40234,0.01 0.12268,-0.045 0.20996,-0.146 0.26172,-0.25 0.10352,-0.208 0.12555,-0.4568 0.18555,-0.7539 0.043,-0.2137 -0.0413,-0.4145 -0.16602,-0.5527 -0.12471,-0.1383 -0.28583,-0.2335 -0.44531,-0.3086 -0.31895,-0.1502 -0.64453,-0.2129 -0.64453,-0.2129 z m -0.006,0.3828 c 0.0571,0.013 0.25702,0.053 0.49219,0.1641 0.1334,0.063 0.25624,0.1429 0.32812,0.2226 0.0719,0.08 0.0966,0.1407 0.0781,0.2325 -0.063,0.3119 -0.10162,0.5601 -0.15235,0.6621 -0.0254,0.051 -0.0385,0.059 -0.0586,0.066 -0.0201,0.01 -0.0718,0.013 -0.17383,-0.016 h -0.002 c -0.28629,-0.079 -0.59726,-0.073 -0.86914,-0.1113 -0.27188,-0.038 -0.48206,-0.1094 -0.61914,-0.2988 -0.0729,-0.101 -0.0737,-0.1421 -0.0684,-0.168 0.005,-0.026 0.0345,-0.078 0.125,-0.1504 0.16687,-0.1342 0.52228,-0.3291 0.91992,-0.6035 z"
   id="path602" />
					<path
   style="fill:#66a8de;stroke-miterlimit:1"
   d="m 740.19531,2621.9102 c 0,0 -0.282,0.1239 -0.61133,0.2929 -0.32932,0.169 -0.70182,0.3729 -0.92382,0.586 v 0 c -0.20294,0.1964 -0.41817,0.4778 -0.64649,0.7539 -0.22831,0.2761 -0.47018,0.5437 -0.6875,0.6953 -0.29335,0.2041 -0.48488,0.5254 -0.61523,0.795 -0.13035,0.2695 -0.19727,0.498 -0.19727,0.498 l 0.0176,0.1406 c 0,0 0.85477,1.5511 1.08984,2.6075 0.0351,0.1582 0.0864,0.2822 0.17969,0.375 0.0933,0.093 0.243,0.1297 0.36133,0.1 0.23665,-0.06 0.39306,-0.2607 0.55078,-0.5098 0.31545,-0.4983 0.57531,-1.2502 0.50586,-1.877 -0.0583,-0.5258 0.0249,-0.8374 0.20312,-1.0957 0.17818,-0.2582 0.47359,-0.4696 0.85743,-0.7285 0.083,-0.056 0.1447,-0.087 0.1875,-0.1035 1.7e-4,0.014 0.002,0.014 0,0.033 -0.0213,0.2054 -0.18527,0.6394 -0.36719,1.0313 -0.10491,0.2259 -0.12959,0.4317 -0.0918,0.6093 0.0378,0.1777 0.1304,0.3156 0.22071,0.4356 0.1806,0.2399 0.34765,0.4057 0.34765,0.7031 0,0.442 0.26596,0.7742 0.59375,1.0469 0.3278,0.2727 0.73133,0.5104 1.0957,0.793 0.10725,0.083 0.20583,0.1392 0.3125,0.164 0.10668,0.025 0.22862,0.01 0.31641,-0.053 0.17558,-0.1213 0.21341,-0.3201 0.23633,-0.5274 0.0458,-0.4146 -0.0272,-0.9556 -0.0898,-1.332 -0.11185,-0.6674 0.1307,-1.9172 0.002,-2.9766 -0.0339,-0.277 -0.11441,-0.4831 -0.24414,-0.6269 -0.12973,-0.1438 -0.29957,-0.2101 -0.46094,-0.2402 -0.32273,-0.06 -0.63961,-0.021 -0.89062,-0.1211 -0.25504,-0.1017 -0.33536,-0.2539 -0.45508,-0.5079 -0.11973,-0.2539 -0.25858,-0.593 -0.59375,-0.9238 z m 0.01,0.4062 c 0.20965,0.2413 0.34069,0.4805 0.45117,0.7149 0.12677,0.2688 0.29233,0.549 0.6543,0.6933 0.36598,0.1465 0.72696,0.099 0.95898,0.1426 0.11601,0.022 0.19287,0.053 0.25586,0.123 0.063,0.07 0.12227,0.1939 0.15039,0.4239 0.11725,0.9646 -0.13616,2.1816 0,2.9941 0.0604,0.3627 0.12456,0.8988 0.0879,1.2305 -0.0183,0.1658 -0.0758,0.2588 -0.0801,0.2617 -0.002,0 0.007,0 -0.0215,0 -0.0288,-0.01 -0.0889,-0.033 -0.16992,-0.096 -0.38863,-0.3014 -0.79349,-0.5419 -1.08594,-0.7852 -0.29245,-0.2433 -0.45898,-0.4637 -0.45898,-0.7617 0,-0.4416 -0.26494,-0.7147 -0.42383,-0.9258 -0.0795,-0.1055 -0.13415,-0.1963 -0.1543,-0.291 -0.0202,-0.095 -0.0137,-0.2044 0.0664,-0.3769 0.18807,-0.4052 0.36519,-0.8272 0.39843,-1.1485 0.008,-0.08 0.009,-0.1558 -0.0156,-0.2363 -0.0248,-0.081 -0.0956,-0.1725 -0.19141,-0.2051 -0.0958,-0.033 -0.18642,-0.016 -0.27343,0.016 -0.087,0.031 -0.17671,0.082 -0.28125,0.1524 -0.38717,0.2611 -0.72476,0.4924 -0.95508,0.8262 -0.23033,0.3337 -0.33035,0.7615 -0.26563,1.3457 0.0536,0.4832 -0.18087,1.2117 -0.45117,1.6386 -0.13515,0.2135 -0.29326,0.3383 -0.33008,0.3477 -0.0184,0 0.004,0.012 -0.01,0 -0.014,-0.014 -0.0517,-0.074 -0.0781,-0.1933 -0.25051,-1.1258 -1.03855,-2.524 -1.0918,-2.6192 0.0123,-0.04 0.05,-0.1731 0.15235,-0.3847 0.1164,-0.2407 0.29449,-0.5154 0.49414,-0.6543 0.27568,-0.1924 0.52778,-0.4789 0.76172,-0.7617 0.23393,-0.2829 0.45013,-0.563 0.61719,-0.7247 0.14999,-0.1439 0.51775,-0.3621 0.83593,-0.5253 0.24352,-0.125 0.36478,-0.1752 0.45313,-0.2149 z"
   id="path603" />
					<path
   style="fill:#66a8de;stroke-miterlimit:1"
   d="m 738.5625,2629.6602 -0.16016,0.062 c -0.40634,0.4733 -0.65297,1.1759 -0.76562,1.7578 -0.0563,0.2909 -0.0791,0.5481 -0.0586,0.75 0.0103,0.1009 0.0254,0.1889 0.084,0.2754 0.0293,0.043 0.0761,0.088 0.13867,0.1113 0.0626,0.023 0.13334,0.017 0.1875,0 -0.008,0 0.0335,0 0.0977,0.01 0.0641,0.011 0.15015,0.035 0.24609,0.064 0.19189,0.06 0.42308,0.1456 0.65039,0.211 0.22731,0.065 0.44669,0.1184 0.6582,0.074 0.10576,-0.022 0.21555,-0.079 0.28516,-0.1797 0.0696,-0.1002 0.0919,-0.2256 0.084,-0.3613 -0.0245,-0.4175 0.0181,-0.7103 0.0469,-0.9942 0.0288,-0.2838 0.0432,-0.5648 -0.0527,-0.9023 -0.11341,-0.4045 -0.49935,-0.6082 -0.82227,-0.7246 -0.32292,-0.1165 -0.61914,-0.1484 -0.61914,-0.1484 z m 0.082,0.3964 c 0.0812,0.012 0.19931,0.023 0.41211,0.1 0.27533,0.099 0.5322,0.2659 0.5918,0.4785 0.0791,0.2784 0.0668,0.4905 0.0391,0.7636 -0.0277,0.2732 -0.0734,0.6003 -0.0469,1.0528 0.005,0.082 -0.009,0.1166 -0.0176,0.1289 -0.009,0.012 -0.0175,0.021 -0.0586,0.029 -0.0821,0.017 -0.2707,-0.01 -0.47851,-0.068 -0.20782,-0.06 -0.43751,-0.1447 -0.64453,-0.209 -0.10351,-0.032 -0.202,-0.059 -0.29493,-0.074 -0.0613,-0.01 -0.12334,-1e-4 -0.18554,0.01 -0.005,-0.016 -0.009,-0.024 -0.0137,-0.07 -0.0141,-0.1382 0.001,-0.3757 0.0527,-0.6426 0.0974,-0.5031 0.33982,-1.0994 0.64453,-1.4942 z"
   id="path604" />
					<path
   style="fill:#66a8de;stroke-miterlimit:1"
   d="m 739.70117,2636.2949 c -0.10242,0.019 -0.20736,0.061 -0.32031,0.1211 -0.22591,0.1208 -0.48003,0.3184 -0.69922,0.584 -0.0714,0.087 -0.21997,0.19 -0.39453,0.2871 -0.17456,0.097 -0.37152,0.1907 -0.54297,0.3008 -0.17145,0.1101 -0.33594,0.2365 -0.38867,0.4453 -0.0264,0.1044 -0.0129,0.2231 0.0371,0.3281 0.05,0.1051 0.12963,0.1994 0.24023,0.2969 0.43552,0.3846 1.04593,0.5889 1.49219,0.7793 0.22313,0.095 0.40441,0.1904 0.48828,0.2676 0.0419,0.039 0.0577,0.067 0.0625,0.086 0.005,0.019 0.007,0.037 -0.0156,0.084 h -0.002 c -0.0521,0.1088 -0.0656,0.2321 -0.0312,0.3398 0.0344,0.1078 0.10807,0.1892 0.18946,0.2481 0.16278,0.1177 0.36839,0.1738 0.57812,0.2148 0.41947,0.082 0.86133,0.08 0.86133,0.08 l 0.14453,-0.068 c 0.21215,-0.2656 0.65918,-0.5472 0.97656,-0.9024 0.15869,-0.1776 0.28987,-0.3861 0.31641,-0.6348 0.0265,-0.2486 -0.0606,-0.5185 -0.27344,-0.791 -0.40499,-0.5179 -0.98042,-0.9862 -1.4707,-1.3457 -0.24514,-0.1797 -0.46996,-0.3312 -0.63867,-0.4453 -0.0844,-0.057 -0.15572,-0.1048 -0.20703,-0.1406 -0.0513,-0.036 -0.0915,-0.071 -0.0762,-0.055 v 0 c -0.10016,-0.1044 -0.22374,-0.097 -0.32617,-0.078 z m 0.0586,0.334 c 0.0448,0.047 0.077,0.066 0.13281,0.1055 0.0558,0.039 0.12687,0.086 0.21094,0.1426 0.16813,0.1136 0.38821,0.2624 0.62695,0.4375 0.47747,0.35 1.03243,0.8073 1.39844,1.2753 0.17267,0.2211 0.21228,0.3828 0.19726,0.5235 -0.015,0.1407 -0.0941,0.2796 -0.22461,0.4258 -0.24,0.2686 -0.62935,0.5316 -0.91015,0.8437 -0.0601,-6e-4 -0.38713,0 -0.72657,-0.068 -0.18476,-0.036 -0.35404,-0.096 -0.43164,-0.1524 -0.0388,-0.028 -0.0513,-0.048 -0.0547,-0.059 -0.003,-0.011 -0.008,-0.023 0.0137,-0.068 0.0517,-0.1071 0.0687,-0.2272 0.041,-0.336 -0.0277,-0.1088 -0.0932,-0.197 -0.16992,-0.2676 -0.15335,-0.1411 -0.3605,-0.2364 -0.59375,-0.3359 -0.46649,-0.1991 -1.03914,-0.4044 -1.39062,-0.7148 -0.0859,-0.076 -0.1327,-0.1384 -0.15235,-0.1797 -0.0196,-0.041 -0.019,-0.057 -0.0137,-0.078 0.0106,-0.042 0.0872,-0.1306 0.23047,-0.2226 0.1433,-0.092 0.33668,-0.1872 0.52344,-0.291 0.18628,-0.1036 0.36847,-0.2136 0.5,-0.3731 0.18681,-0.2264 0.4103,-0.3992 0.58789,-0.4941 0.0888,-0.048 0.16725,-0.076 0.21289,-0.084 0.0456,-0.01 0.0334,0.016 -0.008,-0.027 z"
   id="path605" />
					<path
   style="fill:#66a8de;stroke-miterlimit:1"
   d="m 734.10352,2638.3359 -0.1836,0.2168 c 0,0 0.23588,1.4203 0.50391,2.0899 0.1504,0.3751 0.50331,0.6425 0.91601,0.8242 0.4127,0.1817 0.89551,0.2773 1.35352,0.2773 0.12551,0 0.23048,-0.015 0.32422,-0.064 0.0937,-0.05 0.16531,-0.1483 0.18554,-0.2442 0.0405,-0.1917 -0.0386,-0.3442 -0.11132,-0.5058 -0.0727,-0.1617 -0.15788,-0.3282 -0.20703,-0.4707 -0.0492,-0.1425 -0.0512,-0.2454 -0.0254,-0.2969 0.0515,-0.1031 0.0571,-0.2221 0.0312,-0.3242 -0.0259,-0.1021 -0.0791,-0.1907 -0.14257,-0.2754 -0.12693,-0.1695 -0.3054,-0.3245 -0.4961,-0.4727 -0.19069,-0.1481 -0.39348,-0.2873 -0.56054,-0.4082 -0.16707,-0.1208 -0.3037,-0.2362 -0.33204,-0.2734 l -0.14648,-0.072 z m 0.23242,0.3692 h 0.81445 c 0.0902,0.092 0.18753,0.1785 0.32422,0.2773 0.17218,0.1245 0.37147,0.2611 0.55078,0.4004 0.17931,0.1393 0.33892,0.2818 0.42773,0.4004 0.0444,0.059 0.0694,0.1121 0.0781,0.1465 0.009,0.034 0.006,0.048 -0.004,0.068 -0.0977,0.195 -0.0547,0.4008 0.008,0.5821 0.0625,0.1812 0.15469,0.3533 0.2207,0.5 0.0646,0.1436 0.0848,0.2602 0.084,0.2734 -0.0133,0.01 -0.0585,0.021 -0.14648,0.021 -0.40499,0 -0.84678,-0.088 -1.20508,-0.2461 -0.3583,-0.1578 -0.62411,-0.3841 -0.7207,-0.625 -0.20188,-0.5043 -0.38571,-1.5463 -0.43164,-1.7988 z"
   id="path606" />
				</g>
				<path
   style="fill:#66a8de;stroke-miterlimit:1"
   d="m 1419.0879,2452.5156 c -0.2004,-0.053 -0.3839,0.015 -0.5371,0.094 -0.3066,0.1584 -0.5571,0.3666 -0.9063,0.3164 -0.4954,-0.07 -0.885,0.1554 -1.1289,0.4687 -0.2438,0.3134 -0.3703,0.7066 -0.4355,1.0332 -0.042,0.2131 -0.3006,0.4736 -0.6817,0.6934 -0.381,0.2198 -0.8647,0.4012 -1.2851,0.5215 -0.486,0.1387 -0.7615,0.4921 -0.9102,0.9551 -0.1486,0.4629 -0.2075,1.0489 -0.3301,1.7832 -0.061,0.3634 -0.1228,0.5984 -0.1835,0.7343 -0.061,0.1359 -0.099,0.1643 -0.1582,0.1856 -0.1191,0.043 -0.453,-0.029 -0.9786,0.037 -1.0086,0.1258 -2.4741,0.4787 -3.1562,0.8867 -0.2897,0.1742 -0.8778,0.4548 -1.4629,0.7285 -0.5851,0.2738 -1.1694,0.541 -1.4922,0.7207 -0.09,0.05 -0.1573,0.096 -0.2109,0.1739 -0.027,0.039 -0.049,0.091 -0.051,0.1503 0,0.059 0.022,0.1166 0.051,0.1563 0.058,0.079 0.1249,0.1085 0.1953,0.1367 0.07,0.028 0.1477,0.049 0.2344,0.068 0.3467,0.077 0.8393,0.1202 1.1972,0.1797 0.1496,0.025 0.2377,0.08 0.3164,0.1601 0.079,0.08 0.144,0.1924 0.211,0.3262 0.1338,0.2677 0.2733,0.6257 0.6406,0.8457 0.1403,0.084 0.2291,0.1679 0.2617,0.2168 0.033,0.049 0.024,0.025 0.019,0.031 0,0.01 -0.062,0.057 -0.1972,0.092 -0.1352,0.035 -0.3365,0.057 -0.6035,0.057 -0.5213,0 -0.7719,-0.1302 -1.0489,-0.334 -0.2769,-0.2038 -0.5715,-0.497 -1.0898,-0.7559 -0.1329,-0.067 -0.2384,-0.1078 -0.3438,-0.1211 -0.1053,-0.013 -0.2449,0.026 -0.3105,0.127 -0.066,0.1012 -0.057,0.1971 -0.045,0.2871 0.012,0.09 0.038,0.184 0.07,0.2852 0.1293,0.4047 0.3613,0.9534 0.3613,1.3144 0,0.1805 -0.046,0.2397 -0.08,0.2637 -0.034,0.024 -0.1013,0.035 -0.205,0.01 -0.2076,-0.059 -0.4833,-0.2931 -0.5567,-0.4648 -0.091,-0.2123 -0.072,-0.2976 -0.041,-0.4434 0.031,-0.1457 0.087,-0.3545 0.016,-0.6386 -0.051,-0.2019 -0.027,-0.4605 0,-0.7539 0.031,-0.2935 0.066,-0.622 0,-0.9649 v 0 c -0.04,-0.2005 -0.1807,-0.3552 -0.3437,-0.4004 -0.1631,-0.045 -0.3203,-0.015 -0.4727,0.027 -0.1523,0.042 -0.301,0.1018 -0.4316,0.1484 -0.1307,0.047 -0.2479,0.076 -0.2891,0.076 -0.1747,0 -0.3332,0.076 -0.5488,0.1758 -0.2156,0.1 -0.4637,0.2309 -0.7129,0.3711 -0.4985,0.2802 -0.9923,0.5881 -1.1856,0.7168 -0.1608,0.1072 -0.9158,0.5514 -1.705,1.0468 -0.7893,0.4955 -1.6188,1.0407 -2.0215,1.4434 -0.3191,0.3191 -0.902,0.5062 -1.5,0.5918 -0.598,0.086 -1.205,0.077 -1.5684,0.061 -0.7174,-0.032 -1.7329,-0.2447 -2.4472,0.1836 -0.1154,0.069 -0.2161,0.078 -0.3418,0.061 -0.1258,-0.017 -0.271,-0.068 -0.4278,-0.1231 -0.1567,-0.055 -0.326,-0.1141 -0.5156,-0.1211 -0.1896,-0.01 -0.3994,0.048 -0.5859,0.1973 -0.6975,0.5561 -1.1677,1.8043 -1.42,2.7715 -0.1083,0.4157 -0.4587,0.8771 -0.871,1.3496 -0.4121,0.4721 -0.8798,0.9569 -1.2032,1.4746 -0.2919,0.4666 -0.5492,0.6393 -0.8613,0.7207 -0.3121,0.081 -0.7019,0.057 -1.2031,0.057 -0.1445,0 -0.2692,0.022 -0.3731,0.084 -0.1039,0.062 -0.1765,0.166 -0.2051,0.2715 -0.057,0.211 0.01,0.4173 0.08,0.6289 0.073,0.2117 0.1705,0.4301 0.2383,0.6172 0.068,0.1871 0.09,0.3482 0.08,0.3887 4e-4,0 -0.019,0.037 -0.078,0.084 -0.059,0.047 -0.149,0.1021 -0.2598,0.1562 -0.2216,0.1082 -0.5209,0.2157 -0.8164,0.3067 -0.5909,0.1819 -1.1699,0.3027 -1.1699,0.3027 h -0.01 c -0.049,0.012 -0.092,0.025 -0.1367,0.051 -0.045,0.026 -0.1012,0.072 -0.1211,0.1543 -0.02,0.083 0.016,0.1601 0.049,0.2012 0.033,0.041 0.066,0.065 0.1016,0.088 0.1436,0.091 0.351,0.1567 0.6133,0.2265 0.5244,0.1397 1.2363,0.2603 1.7597,0.2598 1.0466,-7e-4 1.814,-0.5105 2.6407,-0.7461 0.9188,-0.263 2.3446,-1.1069 4.5214,-1.2285 2.1799,-0.1208 4.1262,0.4864 4.9961,0.7344 0.1555,0.044 0.4381,0.2295 0.752,0.5039 0.3138,0.2743 0.6691,0.6343 1.0293,1.0176 0.7203,0.7665 1.457,1.6269 1.9609,2.1308 0.5371,0.5371 1.5619,1.0549 2.6504,1.5059 1.0885,0.4509 2.234,0.8215 2.9863,1.0097 0.6896,0.1724 1.4471,0.6802 2.1153,1.2422 0.6681,0.562 1.2474,1.1733 1.6211,1.5469 0.7327,0.7328 2.2152,2.3417 3.4804,3.2266 1.2088,0.8453 3.559,2.9482 4.7774,4.289 0.6074,0.668 0.8744,1.1167 1.166,1.4727 0.2916,0.356 0.6219,0.6073 1.2617,0.7988 0.6784,0.2041 1.5599,0.1 2.4063,-0.088 0.8463,-0.1879 1.6545,-0.4675 2.1523,-0.6543 0.4722,-0.177 1.4949,-0.4567 2.4824,-0.7343 0.9876,-0.2777 1.9281,-0.5438 2.3457,-0.752 0.7039,-0.3534 2.3166,-0.8526 5.0313,-1.7168 1.4089,-0.4482 1.9948,-1.3572 2.2051,-2.2793 0.2101,-0.9214 0.085,-1.8668 0.1425,-2.4414 v 0 c 0.06,-0.5967 0.3068,-2.0498 0.6289,-3.4765 0.1612,-0.7137 0.3407,-1.4235 0.5254,-2.0195 0.1847,-0.5961 0.3794,-1.0819 0.5411,-1.3243 0.7066,-1.06 1.7926,-1.5481 3.2871,-2.6679 v 0 c 0.7112,-0.5338 1.3076,-0.6734 1.9317,-0.7032 0.624,-0.03 1.2773,0.064 2.041,0 0.7561,-0.063 1.1528,-0.2001 1.4375,-0.4668 0.2847,-0.2666 0.4325,-0.6072 0.7929,-1.0878 0.185,-0.2465 0.279,-0.3706 0.3223,-0.4219 0.01,-0.01 -10e-5,0 0,-0.01 0.018,0 0.029,0 0.049,-0.01 0.045,-0.014 0.089,-0.036 0.1465,-0.072 0.1147,-0.072 0.2815,-0.2012 0.5625,-0.4511 0.5554,-0.4938 0.8774,-0.7754 1.0567,-1.1094 0.1792,-0.334 0.1757,-0.6834 0.1132,-1.2227 -0.067,-0.5789 -0.3486,-0.9841 -0.6992,-1.2695 -0.3505,-0.2853 -0.7651,-0.4643 -1.1289,-0.6465 -0.2217,-0.1109 -0.4418,-0.1158 -0.623,-0.053 -0.1812,0.063 -0.3248,0.1752 -0.461,0.2812 -0.2724,0.2121 -0.4916,0.3984 -0.8847,0.3301 -0.1994,-0.035 -0.2477,-0.089 -0.2657,-0.1289 -0.018,-0.04 -0.013,-0.1234 0.029,-0.2324 0.043,-0.109 0.1155,-0.2313 0.1817,-0.334 0.033,-0.051 0.064,-0.098 0.09,-0.1406 0.013,-0.022 0.024,-0.043 0.035,-0.066 0.011,-0.024 0.027,-0.047 0.027,-0.1094 0,10e-5 0.01,-0.1683 0.018,-0.3867 0.01,-0.2185 0.022,-0.5084 0.029,-0.8262 0.015,-0.6356 0.015,-1.377 -0.049,-1.8926 -0.069,-0.5505 -0.3927,-1.1499 -0.7754,-1.6601 -0.3827,-0.5103 -0.8082,-0.9259 -1.1895,-1.0782 -0.3579,-0.1432 -0.9656,-0.2278 -1.5664,-0.3203 -0.3004,-0.046 -0.5952,-0.092 -0.8418,-0.1406 -0.2465,-0.049 -0.4498,-0.1066 -0.5371,-0.1504 -0.4602,-0.2306 -1.8598,-1.1182 -3.9863,-1.6191 v 0 c -1.067,-0.2505 -1.717,-0.2186 -2.2949,-0.1563 -0.5778,0.062 -1.0732,0.151 -1.914,0.031 -1.6795,-0.2402 -1.9804,-0.9349 -2.8926,-1.4571 v 0 c -0.4715,-0.269 -0.9006,-0.2711 -1.2715,-0.2226 -0.3708,0.048 -0.6875,0.1321 -1.0097,0.078 -0.301,-0.05 -0.4192,-0.2189 -0.5,-0.4883 -0.081,-0.2693 -0.084,-0.6251 -0.084,-0.9336 0,-0.4067 -0.2996,-0.717 -0.6055,-0.9746 -0.3059,-0.2575 -0.6487,-0.4807 -0.8047,-0.6367 -0.3845,-0.3845 -1.3703,-1.2443 -2.3652,-1.9902 -0.2679,-0.2012 -0.5243,-0.3041 -0.7656,-0.3184 -0.2413,-0.014 -0.4615,0.065 -0.6309,0.1973 -0.3388,0.2637 -0.5019,0.7115 -0.5019,1.1328 0,0.6988 -0.2458,2.1927 -0.4864,3.0332 -0.066,0.2314 -0.084,0.4126 -0.086,0.5488 0,0.1266 0,0.2035 0,0.2305 -0.045,0.017 -0.1696,0.044 -0.3808,0.074 -0.061,0.01 -0.055,0 -0.074,-0.018 -0.019,-0.022 -0.049,-0.091 -0.062,-0.1992 -0.026,-0.2158 0.01,-0.5642 0.068,-0.9277 0.061,-0.3635 0.1447,-0.7468 0.2071,-1.0664 0.031,-0.1598 0.056,-0.3023 0.07,-0.4238 0.014,-0.1216 0.03,-0.2093 -0.01,-0.3243 v 0 c -0.1073,-0.3217 -0.2436,-1.2393 -0.8809,-2.2696 -0.1671,-0.27 -0.3368,-0.4289 -0.5371,-0.4824 z m -0.096,0.3574 c 0.07,0.019 0.1764,0.091 0.3183,0.3204 0.5987,0.9677 0.707,1.7751 0.8458,2.1914 -0.01,-0.023 0,0.06 -0.01,0.164 -0.013,0.104 -0.036,0.2422 -0.066,0.3985 -0.061,0.3125 -0.1463,0.6995 -0.209,1.0761 -0.063,0.3767 -0.1058,0.7382 -0.07,1.0313 0.018,0.1465 0.053,0.2819 0.1465,0.3926 0.093,0.1107 0.2555,0.1685 0.4101,0.1465 0.2182,-0.031 0.3525,-0.051 0.4668,-0.096 0.057,-0.022 0.114,-0.054 0.1582,-0.1074 0.044,-0.053 0.064,-0.1194 0.07,-0.1718 0.013,-0.1049 0,-0.1807 0,-0.2911 0,-0.1103 0.015,-0.2511 0.072,-0.4511 0.2534,-0.8855 0.502,-2.3536 0.502,-3.1348 0,-0.3187 0.1434,-0.6737 0.3593,-0.8418 0.108,-0.084 0.2271,-0.1281 0.3789,-0.1191 0.1518,0.01 0.3428,0.075 0.5684,0.2441 v 0 c 0.9791,0.734 1.9687,1.5995 2.3242,1.955 0.2141,0.2141 0.5485,0.4228 0.8281,0.6582 0.2796,0.2355 0.4727,0.4821 0.4727,0.6914 0,0.3085 0,0.6917 0.1016,1.0391 0.1042,0.3474 0.3539,0.6725 0.7929,0.7461 0.4178,0.07 0.781,-0.032 1.1192,-0.076 0.3375,-0.044 0.6476,-0.045 1.039,0.1778 0.8138,0.4658 1.2528,1.2481 3.0274,1.5019 0.8871,0.1263 1.4412,0.031 2.0039,-0.029 0.5626,-0.061 1.1429,-0.091 2.1719,0.1504 2.0675,0.4871 3.3805,1.3264 3.9062,1.5899 0.1592,0.08 0.3726,0.1303 0.6309,0.1816 0.2582,0.051 0.5565,0.096 0.8574,0.1426 0.6017,0.092 1.2272,0.1951 1.4863,0.2988 0.2347,0.094 0.6737,0.4803 1.0313,0.957 0.3575,0.4768 0.6488,1.0489 0.7031,1.4844 0.059,0.4704 0.06,1.2093 0.045,1.8379 -0.01,0.3143 -0.018,0.6013 -0.027,0.8184 -0.01,0.197 -0.014,0.2985 -0.016,0.3652 0,0.01 0,0.012 -0.012,0.023 -0.019,0.031 -0.049,0.075 -0.084,0.1289 -0.069,0.1074 -0.1566,0.2465 -0.2168,0.4004 -0.06,0.1539 -0.1012,0.3362 -0.021,0.5156 0.08,0.1795 0.2724,0.2994 0.539,0.3458 0.5389,0.094 0.9086,-0.1929 1.1778,-0.4024 0.1345,-0.1047 0.2511,-0.1889 0.3535,-0.2246 0.1023,-0.036 0.1896,-0.041 0.3379,0.033 0.3751,0.1878 0.763,0.3614 1.0605,0.6035 0.2975,0.2422 0.5084,0.5384 0.5645,1.0235 0.061,0.5236 0.057,0.7673 -0.072,1.0078 -0.129,0.2404 -0.4219,0.5146 -0.9766,1.0078 -0.2734,0.2431 -0.4301,0.3609 -0.5117,0.4121 -0.041,0.026 -0.062,0.034 -0.064,0.035 -0.016,7e-4 -0.082,0.01 -0.125,0.035 -0.046,0.028 -0.067,0.054 -0.098,0.09 -0.061,0.072 -0.1509,0.1949 -0.3359,0.4415 -0.3796,0.5063 -0.539,0.8432 -0.7481,1.039 -0.209,0.1958 -0.4919,0.307 -1.2168,0.3672 -0.7153,0.059 -1.3564,-0.032 -2.0273,0 -0.6709,0.032 -1.3689,0.1991 -2.1367,0.7754 -1.4656,1.0982 -2.5998,1.5998 -3.3731,2.7598 -0.2083,0.3121 -0.3988,0.8096 -0.5879,1.4199 -0.1891,0.6103 -0.3706,1.3287 -0.5332,2.0488 -0.3252,1.4403 -0.5727,2.8856 -0.6367,3.5215 -0.066,0.6596 0.056,1.5613 -0.1348,2.3965 -0.1904,0.8351 -0.6529,1.5929 -1.957,2.0078 -2.7133,0.8638 -4.3059,1.3476 -5.084,1.7383 -0.3224,0.1607 -1.2936,0.4494 -2.2793,0.7265 -0.9856,0.2771 -1.9969,0.5531 -2.5117,0.7461 -0.4882,0.1832 -1.2846,0.4569 -2.1035,0.6387 -0.8189,0.1818 -1.6641,0.2626 -2.2188,0.096 -0.5932,-0.1775 -0.8183,-0.3577 -1.082,-0.6797 -0.2637,-0.322 -0.5512,-0.7973 -1.1777,-1.4863 -1.2477,-1.3731 -3.5826,-3.4631 -4.8418,-4.3438 -1.2028,-0.8411 -2.6825,-2.4383 -3.4297,-3.1855 -0.3664,-0.3664 -0.9562,-0.9894 -1.6445,-1.5684 -0.6884,-0.579 -1.4733,-1.1207 -2.2637,-1.3183 -0.7266,-0.1818 -1.8636,-0.5489 -2.9336,-0.9922 -1.07,-0.4433 -2.0814,-0.9759 -2.5313,-1.4258 -0.482,-0.4821 -1.2244,-1.3476 -1.9531,-2.123 -0.3643,-0.3878 -0.7248,-0.7527 -1.0547,-1.0411 -0.3299,-0.2883 -0.618,-0.5033 -0.8945,-0.582 -0.8561,-0.244 -2.857,-0.8733 -5.1172,-0.748 -2.2631,0.1264 -3.7983,1.0111 -4.6055,1.2421 -0.8979,0.2564 -1.6153,0.7305 -2.539,0.7305 -0.4646,5e-4 -1.1711,-0.1148 -1.6641,-0.2461 -0.1066,-0.028 -0.1385,-0.049 -0.2207,-0.078 0.1937,-0.044 0.4457,-0.095 0.9063,-0.2363 0.3056,-0.094 0.6168,-0.205 0.8691,-0.3282 0.1261,-0.062 0.2375,-0.1251 0.3301,-0.1992 0.092,-0.074 0.1739,-0.1582 0.2051,-0.2832 0.052,-0.206 -0.017,-0.3995 -0.092,-0.6054 -0.075,-0.206 -0.1709,-0.4202 -0.2364,-0.6094 -0.065,-0.1892 -0.088,-0.3533 -0.072,-0.4121 0.01,-0.03 0.012,-0.036 0.037,-0.051 0.025,-0.015 0.082,-0.033 0.1836,-0.033 0.4858,0 0.8975,0.037 1.2949,-0.066 0.3974,-0.1036 0.757,-0.3634 1.082,-0.8828 0.2926,-0.4689 0.7495,-0.948 1.1699,-1.4297 0.4205,-0.4818 0.8106,-0.9658 0.9493,-1.4981 0.2417,-0.9268 0.7583,-2.1483 1.2949,-2.5761 0.122,-0.098 0.2211,-0.1196 0.3398,-0.1153 0.1188,0 0.2567,0.045 0.4082,0.098 0.1515,0.053 0.3155,0.1173 0.4981,0.1426 0.1826,0.025 0.3889,0 0.582,-0.1114 0.5192,-0.3113 1.478,-0.165 2.2402,-0.1308 0.3766,0.017 1.0032,0.026 1.6387,-0.064 0.6355,-0.091 1.2881,-0.2744 1.709,-0.6953 0.3373,-0.3373 1.1721,-0.901 1.9551,-1.3926 0.783,-0.4915 1.5067,-0.912 1.7148,-1.0508 0.1777,-0.1183 0.6719,-0.4266 1.1602,-0.7011 0.2441,-0.1373 0.4888,-0.2666 0.6894,-0.3594 0.2007,-0.093 0.3823,-0.1406 0.3926,-0.1406 0.1438,0 0.273,-0.048 0.4121,-0.098 0.1391,-0.05 0.2831,-0.1059 0.4082,-0.1406 0.1252,-0.035 0.2302,-0.042 0.2754,-0.029 0.045,0.012 0.059,0.012 0.08,0.1191 0.054,0.2726 0.027,0.56 0,0.8516 -0.031,0.2923 -0.068,0.5897 0.01,0.8828 0.052,0.2088 0.017,0.3085 -0.018,0.4707 -0.035,0.1623 -0.06,0.3854 0.061,0.666 0.1377,0.3223 0.4607,0.5802 0.7988,0.6758 0.1691,0.048 0.3602,0.052 0.5176,-0.059 0.1574,-0.1108 0.2363,-0.3154 0.2364,-0.5664 -10e-5,-0.5019 -0.2618,-1.0612 -0.379,-1.4277 -0.026,-0.08 -0.04,-0.1447 -0.049,-0.1953 0.041,0.012 0.078,0.022 0.1602,0.062 0.4687,0.2341 0.728,0.4952 1.0371,0.7226 0.309,0.2275 0.6779,0.4063 1.2676,0.4063 0.2875,0 0.5145,-0.024 0.6953,-0.07 0.1807,-0.046 0.3237,-0.1117 0.4121,-0.2442 0.088,-0.1325 0.065,-0.3168 -0.018,-0.4414 -0.083,-0.1246 -0.2107,-0.227 -0.3789,-0.3281 -0.2487,-0.149 -0.3563,-0.408 -0.5,-0.6953 -0.072,-0.1437 -0.1537,-0.292 -0.2793,-0.4199 -0.1256,-0.128 -0.2992,-0.229 -0.5195,-0.2657 -0.3821,-0.064 -0.8753,-0.109 -1.1758,-0.1758 -0.032,-0.01 -0.049,-0.014 -0.076,-0.021 0.3014,-0.1647 0.8556,-0.4236 1.4238,-0.6895 0.5862,-0.2742 1.1688,-0.5493 1.4961,-0.7461 0.5519,-0.33 2.0484,-0.7157 3.0118,-0.8359 0.4614,-0.058 0.7441,0.055 1.0566,-0.057 0.1562,-0.056 0.2874,-0.1892 0.373,-0.3808 0.086,-0.1916 0.1481,-0.4496 0.211,-0.8262 0.1244,-0.7458 0.1878,-1.3318 0.3164,-1.7324 0.1286,-0.4006 0.2841,-0.6036 0.6601,-0.711 0.4427,-0.1266 0.9463,-0.3139 1.3672,-0.5566 0.4209,-0.2427 0.7808,-0.5374 0.8614,-0.9414 0.058,-0.2893 0.1773,-0.6355 0.3652,-0.877 0.1879,-0.2414 0.4146,-0.3845 0.7832,-0.332 0.5138,0.074 0.8807,-0.2252 1.1289,-0.3535 0.1241,-0.064 0.2019,-0.083 0.2715,-0.064 z"
   id="Isle_of_Wight_4_" />
				<path
   style="fill:#66a8de;stroke-miterlimit:1"
   d="m 1352.0762,1344.4082 c -0.4562,0.13 -0.7805,0.3248 -1.0801,0.4746 -0.2996,0.1499 -0.5701,0.2578 -0.9668,0.2578 -0.4315,0 -1.1076,-2e-4 -1.7363,-0.016 -0.6288,-0.015 -1.2304,-0.053 -1.4239,-0.1016 -0.3172,-0.079 -0.8038,-0.037 -1.2285,0.061 -0.2123,0.049 -0.4018,0.1109 -0.5488,0.207 -0.073,0.048 -0.1436,0.1053 -0.1836,0.1992 -0.04,0.094 -0.024,0.223 0.033,0.3086 0.092,0.1389 0.1934,0.467 0.3574,0.7871 0.1644,0.3208 0.4216,0.6532 0.8614,0.7696 0.019,0.01 0.3115,0.1258 0.6777,0.1894 0.1889,0.033 0.3944,0.051 0.5918,0.024 0.1974,-0.027 0.398,-0.1049 0.5293,-0.2793 v 0 c 0.1489,-0.1989 0.3715,-0.3023 0.6855,-0.3594 0.3141,-0.057 0.7072,-0.059 1.1387,-0.059 0.4687,0 0.9129,-0.1338 1.2148,-0.1523 0.151,-0.01 0.2539,0.011 0.3145,0.051 0.061,0.04 0.1124,0.1099 0.1387,0.2969 0.061,0.4345 0.1215,0.9676 0.2519,1.4101 0.065,0.2213 0.1481,0.4227 0.2715,0.582 0.1234,0.1594 0.3075,0.2774 0.5234,0.2774 h 1.6993 c 0.044,0.022 0.2325,0.118 0.4941,0.1797 0.1453,0.034 0.301,0.058 0.457,0.025 0.156,-0.033 0.3188,-0.1589 0.3653,-0.3457 0.079,-0.3168 0,-0.6879 -0.041,-1.0528 -0.045,-0.3648 -0.057,-0.7128 0.027,-0.8828 0.2907,-0.5837 0.07,-1.2412 0.045,-1.6953 0,-0.083 -0.01,-0.1753 -0.1113,-0.25 -0.051,-0.037 -0.1186,-0.05 -0.166,-0.045 -0.047,0.01 -0.08,0.021 -0.1094,0.035 -0.1164,0.058 -0.1983,0.1417 -0.2969,0.211 -0.099,0.069 -0.1973,0.1152 -0.2617,0.1172 -0.064,0 -0.1205,-0.012 -0.2207,-0.1621 -0.2597,-0.3898 -0.5881,-0.7204 -0.9785,-0.9239 -0.3904,-0.2035 -0.8475,-0.273 -1.3242,-0.1367 z m 0.1015,0.3555 c 0.3873,-0.1108 0.732,-0.057 1.0508,0.1093 0.3189,0.1663 0.6085,0.4506 0.8418,0.8008 0.1463,0.2196 0.3501,0.3319 0.541,0.3262 0.191,-0.01 0.3422,-0.099 0.4629,-0.1836 0.049,-0.034 0.062,-0.044 0.1016,-0.074 0.047,0.4827 0.1741,0.9901 -0.01,1.3516 -0.1613,0.324 -0.1112,0.7169 -0.064,1.0917 0.047,0.3749 0.095,0.7418 0.051,0.918 -0.015,0.06 -0.02,0.059 -0.084,0.072 -0.064,0.013 -0.18,0.01 -0.2969,-0.022 -0.2338,-0.055 -0.4668,-0.1699 -0.4668,-0.1699 l -0.084,-0.02 h -1.7266 c -0.092,0 -0.1554,-0.035 -0.2324,-0.1347 -0.077,-0.099 -0.149,-0.2622 -0.207,-0.459 -0.116,-0.3935 -0.1783,-0.916 -0.2402,-1.3574 -0.035,-0.2511 -0.1377,-0.4463 -0.3008,-0.5547 -0.1631,-0.1084 -0.3525,-0.1229 -0.541,-0.1113 -0.3771,0.023 -0.7991,0.1503 -1.1934,0.1503 -0.4315,0 -0.8386,2e-4 -1.2031,0.066 -0.3645,0.066 -0.6979,0.2078 -0.918,0.5019 -0.054,0.071 -0.1458,0.1158 -0.2832,0.1348 -0.1382,0.019 -0.3108,0.01 -0.4766,-0.022 -0.3314,-0.058 -0.6269,-0.1738 -0.6269,-0.1738 l -0.022,-0.01 c -0.3083,-0.082 -0.4826,-0.304 -0.625,-0.582 -0.137,-0.2675 -0.2213,-0.5634 -0.3652,-0.793 0,0 0,-0.01 0.029,-0.023 0.077,-0.05 0.2428,-0.1127 0.4316,-0.1562 0.3776,-0.087 0.8779,-0.1066 1.0547,-0.062 0.2996,0.075 0.8687,0.1 1.5039,0.1152 0.6352,0.016 1.3146,0.016 1.7461,0.016 0.4673,0 0.8156,-0.1401 1.1328,-0.2988 0.3172,-0.1587 0.6088,-0.3333 1.0156,-0.4492 z"
   id="Holy_Island__x2F__Lindisfarne_4_" />
				<g
   id="Farne_Islands">
					<path
   style="fill:#66a8de;stroke-miterlimit:1"
   d="m 1372.3281,1362.9512 c -0.1234,-0.014 -0.2464,0 -0.3593,0.012 -0.2259,0.032 -0.4161,0.096 -0.4161,0.096 l -0.1269,0.1758 v 0.6289 c 0,0.1017 0.018,0.1951 0.066,0.2754 0.048,0.08 0.1277,0.1395 0.207,0.166 0.1587,0.053 0.306,0.014 0.4414,-0.031 0.2709,-0.09 0.5157,-0.2558 0.5157,-0.2558 l 0.057,-0.061 c 0,0 0.073,-0.1191 0.1094,-0.2793 0.037,-0.1601 0.039,-0.3983 -0.1368,-0.5742 -0.1025,-0.1025 -0.234,-0.1386 -0.3574,-0.1523 z m -0.041,0.3672 c 0.075,0.01 0.1213,0.031 0.1367,0.047 0.059,0.059 0.059,0.1349 0.037,0.2305 -0.017,0.075 -0.04,0.1108 -0.053,0.1348 -0.039,0.025 -0.2043,0.1331 -0.3848,0.1933 -0.1003,0.034 -0.1888,0.035 -0.207,0.029 -0.01,0 0,0 -0.01,0 0,-0.01 -0.014,-0.03 -0.014,-0.086 v -0.4824 c 0.064,-0.018 0.1037,-0.036 0.2226,-0.053 0.093,-0.013 0.1921,-0.018 0.2676,-0.01 z"
   id="path607" />
					<path
   style="fill:#66a8de;stroke-miterlimit:1"
   d="m 1374.4316,1362.9668 -0.9433,0.5059 -0.059,0.2753 c 0.3011,0.3905 0.8629,0.5368 1.1406,0.5782 0.1393,0.021 0.2379,-0.029 0.3438,-0.082 0.1058,-0.053 0.2126,-0.1207 0.3105,-0.1894 0.1958,-0.1375 0.3574,-0.2793 0.3574,-0.2793 l -0.033,-0.3027 -0.9414,-0.5059 z m 0.088,0.373 0.6055,0.3243 c -0.05,0.039 -0.052,0.045 -0.1133,0.088 -0.089,0.062 -0.1833,0.1211 -0.2617,0.1601 -0.078,0.039 -0.1463,0.046 -0.125,0.049 -0.1415,-0.021 -0.432,-0.179 -0.6641,-0.3222 z"
   id="path608" />
					<path
   style="fill:#66a8de;stroke-miterlimit:1"
   d="m 1373.1465,1361.3242 -0.059,0.022 c 0,0 -0.1929,0.1157 -0.416,0.2305 -0.1116,0.057 -0.2302,0.1155 -0.3321,0.1562 -0.1018,0.041 -0.1951,0.061 -0.205,0.061 l -0.1114,0.037 -0.5234,0.3926 0.062,0.3261 c 0,0 0.2252,0.062 0.4805,0.094 0.1276,0.016 0.2645,0.025 0.3945,0.012 0.13,-0.014 0.2688,-0.044 0.3672,-0.1699 0,0 0.06,-0.045 0.1582,-0.076 0.098,-0.031 0.2284,-0.057 0.3633,-0.08 0.1349,-0.024 0.2739,-0.044 0.4004,-0.07 0.1265,-0.026 0.2364,-0.05 0.3398,-0.1152 0.061,-0.039 0.2102,-0.068 0.3672,-0.062 0.1569,0.01 0.3223,0.04 0.418,0.072 v 0 c 0.019,0.01 0.031,0.011 0.064,0.016 0.01,0 0.017,0 0.033,0 0.01,-3e-4 0.033,0 0.033,0 3e-4,-10e-5 0.051,-0.017 0.051,-0.018 2e-4,-10e-5 0.068,-0.062 0.068,-0.062 10e-5,-10e-5 0.029,-0.099 0.029,-0.1 0,-2e-4 -0.012,-0.07 -0.012,-0.07 -10e-5,-3e-4 -0.019,-0.037 -0.02,-0.037 -5e-4,-7e-4 -0.019,-0.025 -0.025,-0.031 -0.01,-0.01 -0.013,-0.012 -0.018,-0.016 -0.01,-0.01 -0.016,-0.013 -0.023,-0.018 -0.015,-0.01 -0.03,-0.017 -0.047,-0.027 -0.069,-0.04 -0.1755,-0.094 -0.3008,-0.1543 -0.2506,-0.1204 -0.5523,-0.257 -0.752,-0.3066 -0.3777,-0.095 -0.789,0 -0.789,0 z m 0.6992,0.3594 c 0.041,0.01 0.1624,0.069 0.2441,0.1016 -0.073,0.019 -0.154,0 -0.2207,0.045 -0.014,0.01 -0.1044,0.041 -0.2168,0.064 -0.1123,0.023 -0.2505,0.044 -0.3906,0.068 -0.1401,0.024 -0.2821,0.053 -0.4101,0.094 -0.1281,0.04 -0.2476,0.085 -0.3379,0.2012 0.01,-0.01 -0.032,0.021 -0.1153,0.029 -0.084,0.01 -0.1992,0 -0.3105,-0.012 -0.017,0 -0.016,0 -0.033,-0.01 l 0.1738,-0.1308 c 0.082,-0.014 0.1614,-0.03 0.2481,-0.064 0.1194,-0.048 0.2473,-0.1073 0.3652,-0.1679 0.2148,-0.1105 0.365,-0.202 0.3965,-0.2208 0.022,0 0.3649,-0.063 0.6074,0 z"
   id="path609" />
					<path
   style="fill:#66a8de;stroke-miterlimit:1"
   d="m 1377.6973,1358.3125 c -0.2608,-0.1069 -0.5077,0.018 -0.6875,0.1289 -0.1799,0.1108 -0.3125,0.2363 -0.3125,0.2363 v 0.2696 c 0.041,0.038 0.091,0.1849 0.1308,0.3593 0.02,0.087 0.042,0.1794 0.078,0.2696 0.036,0.09 0.09,0.1865 0.1933,0.25 0.1889,0.1156 0.3956,0.094 0.5703,0.076 0.1575,-0.016 0.2625,-0.041 0.2871,-0.047 7e-4,0 0.01,0 0.01,0 10e-5,0 0.01,0 0.01,0 6e-4,-2e-4 0.016,0 0.016,0 v 0 c 0.019,-0.01 0.041,-0.014 0.041,-0.014 0,-7e-4 0.053,-0.041 0.053,-0.041 l -0.1777,-0.3008 c 0,0 0.014,0 0.014,0 -9e-4,10e-5 0.089,0.01 0.088,0.01 -5e-4,-2e-4 0.038,0.022 0.037,0.022 -5e-4,-4e-4 0.02,0.015 0.027,0.023 0.015,0.016 0.022,0.031 0.027,0.041 0.01,0.021 0.012,0.027 0.012,0.027 3e-4,0 -0.01,-0.098 0.02,-0.3203 0.028,-0.2392 0.037,-0.4276 -0.029,-0.6015 -0.066,-0.174 -0.2158,-0.3 -0.4024,-0.377 z m -0.1407,0.3418 c 0.1334,0.055 0.1719,0.094 0.1993,0.166 0.027,0.072 0.034,0.2089 0.01,0.4277 -0.017,0.1481 -0.011,0.1943 -0.012,0.2657 -0.046,0.01 -0.054,0.013 -0.1172,0.02 -0.1458,0.015 -0.3128,-0.01 -0.3379,-0.022 0,0 -0.022,-0.02 -0.043,-0.072 -0.021,-0.052 -0.041,-0.129 -0.06,-0.2149 -0.025,-0.1082 -0.097,-0.2275 -0.1524,-0.3457 0.043,-0.037 0.07,-0.066 0.1621,-0.123 0.1399,-0.086 0.2917,-0.1259 0.3535,-0.1016 z"
   id="path610" />
					<path
   style="fill:#66a8de;stroke-miterlimit:1"
   d="m 1378.3535,1356.5332 c 0,0 -0.151,0.069 -0.3301,0.1621 -0.179,0.093 -0.3826,0.2043 -0.5214,0.332 l -0.061,0.1348 v 0.3965 l 0.2891,0.1543 0.541,-0.3652 h 0.5312 l 0.1446,-0.3008 -0.375,-0.461 z m 0.025,0.4004 0.037,0.045 h -0.1308 c 0.043,-0.021 0.065,-0.031 0.094,-0.045 z"
   id="path611" />
					<path
   style="fill:#66a8de;stroke-miterlimit:1"
   d="m 1379.0449,1355.1719 c -0.104,-0.01 -0.2172,0.01 -0.3164,0.086 -0.099,0.079 -0.143,0.2417 -0.1035,0.375 v 0 c 0.056,0.1883 0.1687,0.3875 0.2773,0.5879 0.1087,0.2003 0.2142,0.3992 0.2579,0.5351 v 0 c 0.041,0.1253 0.1447,0.2287 0.2558,0.2597 0.1112,0.031 0.2091,0.01 0.2891,-0.02 0.16,-0.055 0.2793,-0.1504 0.2793,-0.1504 l 0.043,-0.25 -0.3164,-0.4766 v 0 -0.01 c 0,-0.01 -0.045,-0.081 -0.092,-0.1895 -0.049,-0.1147 -0.092,-0.2617 -0.092,-0.3437 0,-0.14 -0.088,-0.2495 -0.1797,-0.3106 -0.092,-0.061 -0.1928,-0.091 -0.2969,-0.098 z m -0.023,0.3691 c 0.042,0 0.091,0.019 0.1152,0.035 0.024,0.016 0.016,0.012 0.016,0 0,0.182 0.063,0.354 0.1211,0.4902 0.058,0.1363 0.1172,0.2383 0.1172,0.2383 l 0.01,0.01 0.2109,0.3223 c -0.011,0 -0.013,0.01 -0.023,0.012 -0.04,0.014 -0.069,0.012 -0.068,0.012 8e-4,2e-4 0.011,0.022 0,-0.018 -0.062,-0.1941 -0.1766,-0.3994 -0.2852,-0.5996 -0.1049,-0.1934 -0.2007,-0.3776 -0.2402,-0.5 0.011,0 0.01,-0.01 0.033,0 z"
   id="path612" />
					
						<path
   style="fill:#66a8de;stroke-miterlimit:1"
   d="m 1376.0527,1356.6641 -0.1855,0.1855 v 0.7109 l 0.1855,0.1836 h 0.7715 l 0.1856,-0.1836 v -0.7109 l -0.1856,-0.1855 z m 0.1856,0.3691 h 0.4023 v 0.3418 h -0.4023 z"
   id="rect612" />
				</g>
				<path
   style="fill:#66a8de;stroke-miterlimit:1"
   d="m 1327.7051,2467.9688 c -0.8206,0 -1.108,0.7467 -1.1367,0.8242 -0.2277,0.3113 -0.244,0.6125 -0.1836,0.8359 0.061,0.226 0.1484,0.3824 0.1484,0.4981 0,0.1079 0.059,0.2024 0.125,0.2636 0.066,0.061 0.1438,0.1027 0.2305,0.1387 0.1733,0.072 0.3869,0.1182 0.6191,0.1504 0.4644,0.064 0.9878,0.068 1.3301,0 0.2517,-0.052 0.7219,-0.026 1.1484,-0.059 0.2133,-0.016 0.4195,-0.046 0.5996,-0.1269 0.1802,-0.081 0.3413,-0.2352 0.3848,-0.4512 0.1267,-0.6355 0.1327,-1.1595 -0.01,-1.5762 -0.048,-0.142 -0.1687,-0.2499 -0.2949,-0.291 -0.1261,-0.041 -0.2529,-0.035 -0.3828,-0.017 -0.2598,0.035 -0.5391,0.1286 -0.7754,0.1875 -0.1732,0.043 -0.4217,-0.026 -0.7285,-0.1329 -0.3068,-0.1073 -0.6675,-0.2421 -1.0781,-0.2421 z m 0,0.371 c 0.3283,0 0.6471,0.1123 0.957,0.2207 0.31,0.1085 0.6187,0.2225 0.9395,0.1426 0.2577,-0.064 0.5322,-0.1526 0.7343,-0.1797 0.1011,-0.014 0.1813,-0.01 0.2207,0 0.04,0.013 0.042,0.012 0.057,0.055 0.1075,0.3233 0.1134,0.7883 -0.01,1.3868 -0.019,0.091 -0.064,0.136 -0.1738,0.1855 -0.1105,0.05 -0.2812,0.081 -0.4746,0.096 -0.3868,0.029 -0.846,-0.01 -1.1953,0.064 v 0 c -0.2597,0.053 -0.7775,0.057 -1.2031,0 -0.2128,-0.03 -0.4045,-0.074 -0.5273,-0.125 -0.062,-0.026 -0.1041,-0.055 -0.1211,-0.07 -0.017,-0.016 -0.01,-0.01 -0.01,0.01 0,-0.2544 -0.1192,-0.4351 -0.1621,-0.5938 -0.043,-0.1587 -0.056,-0.2875 0.125,-0.5293 l 0.027,-0.051 c 0,0 0.1939,-0.6133 0.8106,-0.6133 z"
   id="Brownsea_Island_4_" />
			</g><rect
   style="fill:none;stroke:#000000;stroke-width:0.29998;stroke-linejoin:bevel;stroke-dasharray:none;paint-order:stroke fill markers"
   id="rect2"
   height="4390.293"
   x="0.19998971"
   y="0.19998971"
   ry="0.69917101"
   width="4353.8188" /></svg>
