<?xml version="1.0" encoding="UTF-8" standalone="no"?>
<!-- Generator: Adobe Illustrator 22.1.0, SVG Export Plug-In . SVG Version: 6.00 Build 0)  -->

<svg
   version="1.1"
   x="0px"
   y="0px"
   viewBox="0 0 4354.1187 4390.5933"
   enable-background="new 0 0 1995.865 2834.646"
   xml:space="preserve"
   id="svg1596"
   width="4354.1187"
   height="4390.5933"
   xmlns="http://www.w3.org/2000/svg"
   xmlns:svg="http://www.w3.org/2000/svg"><defs
   id="defs1596" />


<g
   id="Isle_of_Man_1_"
   transform="translate(1093.6405,660.66109)">
				<path
   style="fill:#66a8de;stroke-miterlimit:1"
   d="m 946.51953,1725.582 c -0.0888,-0.01 -0.1755,0.018 -0.26172,0.061 -0.17242,0.086 -0.36328,0.2466 -0.64648,0.5293 -0.54284,0.5428 -1.03848,0.8859 -1.35547,1.166 -0.1585,0.14 -0.28477,0.2598 -0.33008,0.4394 -0.0226,0.09 -0.0116,0.1961 0.0332,0.2813 0.0448,0.085 0.11339,0.1503 0.19727,0.2109 h -0.002 c 0.0925,0.067 0.16045,0.1841 0.21875,0.3477 0.0583,0.1636 0.10477,0.3642 0.17968,0.5664 0.0749,0.2022 0.18078,0.411 0.37305,0.5684 0.16739,0.1369 0.42124,0.1981 0.71094,0.2187 0.0367,0.059 0.20886,0.3549 0.51172,0.5566 0.16637,0.1109 0.39733,0.188 0.61328,0.08 0.21595,-0.1079 0.35641,-0.3497 0.45508,-0.7441 0.16823,-0.6729 0.67915,-1.0994 1.11523,-1.4395 0.21804,-0.17 0.41433,-0.3096 0.54492,-0.4843 0.0653,-0.087 0.11659,-0.1944 0.11328,-0.3165 -0.003,-0.122 -0.0637,-0.2355 -0.15429,-0.3281 -0.26662,-0.2724 -0.42207,-0.5026 -0.62891,-0.707 -0.20683,-0.2044 -0.46987,-0.3684 -0.89062,-0.4668 -0.32334,-0.076 -0.34838,-0.271 -0.57227,-0.4492 -0.056,-0.045 -0.13583,-0.084 -0.22461,-0.09 z m -0.0254,0.3692 c 0.004,3e-4 0.003,0 0.0195,0.01 0.0664,0.053 0.25009,0.412 0.71875,0.5215 0.37025,0.087 0.54418,0.2005 0.71485,0.3692 0.17066,0.1686 0.33466,0.4065 0.62304,0.7011 0.0481,0.049 0.0505,0.071 0.0508,0.082 3.1e-4,0.011 -0.005,0.036 -0.041,0.084 -0.0717,0.096 -0.25523,0.2414 -0.47656,0.414 -0.44268,0.3452 -1.04237,0.8336 -1.24415,1.6406 -0.0863,0.3451 -0.20016,0.4732 -0.26171,0.5039 -0.0616,0.031 -0.13302,0.015 -0.24414,-0.058 -0.22225,-0.1481 -0.45313,-0.4981 -0.45313,-0.4981 l -0.1582,-0.088 c -0.29292,0 -0.46215,-0.068 -0.58203,-0.166 -0.11988,-0.098 -0.19801,-0.2382 -0.26172,-0.4102 -0.0637,-0.1719 -0.10913,-0.3699 -0.17774,-0.5625 -0.0686,-0.1925 -0.16312,-0.3892 -0.34765,-0.5234 -0.0551,-0.04 -0.0792,-0.071 -0.0859,-0.084 -0.007,-0.013 -0.007,-0.01 -0.004,-0.02 0.006,-0.025 0.0768,-0.1265 0.21875,-0.252 0.28401,-0.2509 0.80394,-0.6144 1.3711,-1.1816 0.2723,-0.2718 0.4536,-0.4117 0.54882,-0.459 0.0476,-0.024 0.0682,-0.024 0.0723,-0.023 z"
   id="Calf_of_Man_4_" />
				<path
   style="fill:#66a8de;stroke-miterlimit:1"
   d="m 1006.3633,1643.2578 c -0.1522,-0.031 -0.3137,-0.022 -0.4863,0.012 -0.3453,0.067 -0.7413,0.2271 -1.1739,0.4258 -0.8651,0.3975 -1.8777,0.9481 -2.7734,1.2168 -1.8933,0.568 -3.75784,1.8542 -5.1504,2.0293 -1.50617,0.1893 -3.37211,0.7495 -5.06055,1.6875 -1.71179,0.951 -4.65635,3.5362 -7.24023,5.5664 -2.61089,2.0506 -3.21128,3.429 -3.58399,5.8516 -0.18581,1.2078 -0.2333,1.863 -0.32226,2.3301 -0.089,0.467 -0.2108,0.7497 -0.57422,1.2949 -0.76115,1.1407 -2.23309,4.0892 -2.98047,6.1445 -0.74277,2.0426 -1.67123,4.9983 -2.75977,6.8125 -0.5298,0.8835 -2.05993,2.6079 -3.51367,4.1309 -0.72687,0.7614 -1.43631,1.4762 -1.99805,2.0234 -0.28086,0.2736 -0.52517,0.5062 -0.71484,0.6797 -0.18967,0.1735 -0.33443,0.294 -0.37695,0.3223 -0.36005,0.2406 -0.61143,0.7513 -0.97461,1.2734 -0.36318,0.5221 -0.80557,1.0454 -1.40039,1.3008 -0.66262,0.2842 -1.17923,0.6125 -1.60157,0.8125 -0.42234,0.2 -0.71379,0.2691 -1.01757,0.1172 -0.40307,-0.2016 -0.7339,-0.2092 -0.96094,-0.1524 -0.22705,0.057 -0.36133,0.1875 -0.36133,0.1875 l -0.0293,0.035 c 0,0 -1.10897,1.8492 -1.66406,2.7754 -0.29111,0.4843 -0.3915,0.8846 -0.48437,1.2793 -0.0929,0.3947 -0.18045,0.7857 -0.44922,1.3222 -0.29408,0.5876 -0.30065,1.0574 -0.22071,1.377 0.062,0.2477 0.14831,0.3268 0.19922,0.3887 -10e-4,0.025 -0.0461,0.9064 -0.18164,1.9003 -0.0687,0.5041 -0.1593,1.0304 -0.27734,1.4688 -0.11804,0.4384 -0.27706,0.789 -0.41016,0.9219 -0.74,0.74 -1.52342,1.5253 -1.71679,2.8789 v 0 c -0.093,0.6548 -0.0977,0.9725 0.01,1.2676 0.10742,0.2952 0.29146,0.517 0.56445,1.0606 0.26878,0.537 0.34664,0.9158 0.31055,1.2128 -0.0361,0.2971 -0.18359,0.5338 -0.42969,0.7969 v 0 c -0.16443,0.1765 -0.21334,0.3963 -0.19336,0.5918 0.02,0.1955 0.0919,0.3747 0.15625,0.5468 0.0643,0.1722 0.12153,0.3371 0.13477,0.4864 0.0132,0.1492 -0.009,0.2805 -0.11328,0.4297 -0.27263,0.39 -0.3506,0.6944 -0.31445,1.0273 0.0361,0.3329 0.15538,0.6892 0.24609,1.3242 0.0887,0.6207 0.006,0.9286 -0.16211,1.2227 -0.16805,0.2941 -0.44958,0.5794 -0.73828,1.0605 -0.29057,0.4843 -0.3912,0.8819 -0.48242,1.2012 -0.0912,0.3193 -0.16564,0.5504 -0.41407,0.7988 -0.24116,0.2412 -0.63698,0.4233 -1.07421,0.6074 -0.43724,0.1841 -0.91292,0.3717 -1.31055,0.67 -0.77271,0.5795 -1.4961,1.5136 -1.4961,1.5136 l -0.006,0.01 c -0.23658,0.338 -0.36197,0.6019 -0.3711,0.8457 -0.009,0.2437 0.14939,0.4516 0.35352,0.541 0.40826,0.1788 1.00163,0.1057 1.65625,0.012 0.2871,-0.041 0.41581,0.021 0.48437,0.1 0.0686,0.079 0.0978,0.2194 0.0684,0.4063 -0.059,0.3736 -0.37484,0.8544 -0.66211,0.998 -0.41419,0.2065 -0.62722,0.5259 -0.81445,0.8301 -0.18723,0.3041 -0.35493,0.5977 -0.69336,0.8515 -0.75967,0.5708 -0.99117,1.0135 -1.17969,1.7676 -0.0784,0.3132 -0.33575,0.6711 -0.58008,0.9375 -0.24432,0.2664 -0.46484,0.4434 -0.46484,0.4434 l 0.008,0.2949 1.29688,0.9277 0.0703,0.031 c 0,0 0.88433,0.177 1.77344,0.8672 0.24917,0.1941 0.45328,0.292 0.66015,0.2461 0.10344,-0.023 0.18956,-0.09 0.24414,-0.1661 0.0546,-0.077 0.0847,-0.1619 0.10547,-0.25 0.0833,-0.3523 0.0293,-0.8075 0.0293,-1.0644 0,-0.023 -0.004,-0.01 0.008,-0.02 0.012,-0.01 0.0546,-0.032 0.125,-0.049 0.14084,-0.033 0.37629,-0.049 0.64649,-0.072 0.5404,-0.047 1.24294,-0.1395 1.75781,-0.6543 0.47558,-0.4756 0.59847,-0.7522 0.66992,-0.8594 0.0357,-0.054 0.0396,-0.061 0.10547,-0.09 0.0658,-0.029 0.19607,-0.064 0.42383,-0.1094 0.23709,-0.047 0.42485,-0.095 0.58203,-0.1778 0.15718,-0.082 0.28111,-0.2138 0.3418,-0.3808 0.12136,-0.3341 0.0575,-0.7552 -0.0352,-1.4961 -0.0448,-0.3561 -0.0281,-0.5746 0.0156,-0.6953 0.0437,-0.1208 0.1,-0.1671 0.2246,-0.2246 0.24932,-0.115 0.75372,-0.176 1.3418,-0.5684 0.49579,-0.331 1.12213,-0.3375 1.85547,-0.1152 0.73334,0.2222 1.55426,0.6753 2.37891,1.2246 0.32743,0.2183 0.44395,0.3005 0.54687,0.375 -0.0533,0.032 -0.10099,0.015 -0.13867,0.084 -0.0972,0.1781 -0.0681,0.4101 0.0801,0.7558 0.27253,0.6348 0.35999,1.056 0.62109,1.4219 0.26111,0.3659 0.67924,0.6178 1.52539,0.9004 0.42015,0.14 0.71429,0.2259 0.95313,0.2461 0.23883,0.02 0.45673,-0.055 0.57422,-0.2227 0.11748,-0.1678 0.15317,-0.3721 0.19726,-0.6367 0.0441,-0.2645 0.0889,-0.5935 0.17969,-1.0019 0.092,-0.4142 0.16139,-0.6879 0.22656,-0.8457 0.0652,-0.1579 0.0972,-0.1783 0.1543,-0.1954 0.0571,-0.017 0.19088,-0.01 0.4043,0.016 0.21341,0.026 0.50318,0.062 0.88476,0.062 1.48,0 0.99579,-0.039 1.93945,0.5273 0.40185,0.2411 0.4617,0.5648 0.44141,0.8692 -0.0203,0.3044 -0.14258,0.5546 -0.14258,0.5546 l -0.004,0.012 -0.92579,2.2207 0.0879,0.2363 c 0,0 0.81628,0.4141 1.64453,0 0.45825,-0.2291 0.73051,-0.7755 0.98828,-1.3379 0.25776,-0.5624 0.49281,-1.1597 0.74219,-1.4922 0.5846,-0.7795 0.95312,-1.9023 0.95312,-1.9023 l -0.26562,-0.2207 c 0,0 -0.39817,0.2213 -0.9043,0.3535 -0.50613,0.1321 -1.08967,0.1618 -1.48047,-0.1504 -0.20011,-0.1601 -0.25202,-0.2927 -0.24805,-0.4277 0.004,-0.1351 0.0816,-0.2972 0.22657,-0.4629 0.28996,-0.3315 0.8289,-0.6524 1.26953,-0.8282 0.52112,-0.2092 0.99089,-0.6921 1.5039,-1.2753 0.51301,-0.5833 1.06497,-1.2721 1.70313,-1.9102 0.63504,-0.635 0.99919,-0.8327 1.46679,-0.8965 0.46761,-0.064 1.07286,0.025 2.10157,0.025 1.0175,0 1.53156,0.016 1.90429,-0.1562 0.18637,-0.086 0.32184,-0.2312 0.41797,-0.4102 0.0961,-0.179 0.16727,-0.3924 0.25977,-0.6699 0.369,-1.109 0.33336,-1.0478 1.44336,-2.3438 0.28764,-0.3356 0.42966,-0.5885 0.5,-0.8027 0.0703,-0.2143 0.0659,-0.3806 0.0762,-0.5039 0.0103,-0.1234 0.0243,-0.2112 0.13672,-0.3711 0.11246,-0.1599 0.33146,-0.3833 0.74023,-0.7012 0.3951,-0.3073 0.68747,-0.4008 0.94141,-0.4082 0.25394,-0.01 0.48538,0.076 0.75,0.1797 0.26462,0.1035 0.55971,0.226 0.91797,0.2422 0.35826,0.016 0.77159,-0.079 1.25781,-0.3711 0.94208,-0.5658 1.25162,-0.9701 1.52344,-1.2871 0.27181,-0.317 0.50094,-0.557 1.4082,-0.9199 0.48175,-0.1927 0.78501,-0.4028 0.94727,-0.6661 0.16225,-0.2632 0.15346,-0.563 0.0625,-0.8359 -0.18194,-0.5458 -0.64495,-1.0869 -0.90821,-1.7012 -0.25952,-0.606 -0.21478,-1.088 0.0195,-1.5566 0.23432,-0.4686 0.67733,-0.9184 1.22461,-1.375 0.50452,-0.4204 1.03868,-0.4199 1.73243,-0.4199 0.69375,0 1.52382,0 2.48632,-0.4824 1.91182,-0.956 4.12222,-3.353 4.89252,-4.8926 0.3948,-0.7901 0.3911,-1.6724 0.1758,-2.5332 -0.2153,-0.8608 -0.6398,-1.7084 -1.1094,-2.459 -0.2186,-0.35 -0.2817,-0.5975 -0.2656,-0.7949 0.016,-0.1975 0.1117,-0.3664 0.2734,-0.5606 0.3236,-0.3882 0.9043,-0.8265 1.295,-1.6074 0.1781,-0.3565 0.3152,-0.5128 0.4199,-0.584 0.1046,-0.071 0.1991,-0.08 0.3672,-0.1035 0.168,-0.024 0.392,-0.066 0.6543,-0.2266 0.2623,-0.16 0.5649,-0.4306 0.9433,-0.9043 0.7452,-0.9309 0.9992,-1.3801 1.0996,-1.8574 0.1005,-0.4773 0.05,-0.9233 0.2324,-1.9258 0.1773,-0.9747 0.596,-1.4268 1.1387,-1.8789 0.5427,-0.452 1.2174,-0.8863 1.793,-1.75 0.5608,-0.8404 0.7551,-1.274 0.9375,-1.6386 0.1824,-0.3647 0.352,-0.6644 0.9004,-1.3047 0.5804,-0.6772 0.5995,-1.1865 0.5762,-1.6094 -0.023,-0.4229 -0.077,-0.751 0.3593,-1.3633 0.924,-1.295 0.9314,-1.3064 1.4864,-2.2324 0.086,-0.1428 0.1249,-0.3 0.088,-0.4473 -0.037,-0.1472 -0.1387,-0.2594 -0.2636,-0.3457 -0.2499,-0.1725 -0.6142,-0.279 -1.0723,-0.3847 -0.9162,-0.2115 -2.2031,-0.3943 -3.4824,-0.7598 -2.5764,-0.7348 -3.261,-1.26 -3.9902,-1.9883 -0.054,-0.054 -0.1484,-0.2117 -0.2344,-0.4375 -0.086,-0.2258 -0.1733,-0.5195 -0.2559,-0.8613 -0.1652,-0.6837 -0.3147,-1.5587 -0.4297,-2.4785 -0.2299,-1.8396 -0.316,-3.8769 -0.1386,-4.9414 0.1795,-1.0772 0.7778,-2.8378 1.2871,-4.3887 0.2546,-0.7755 0.4879,-1.5014 0.6347,-2.0742 0.074,-0.2865 0.1258,-0.5341 0.1485,-0.7383 0.023,-0.2043 0.038,-0.3643 -0.064,-0.5176 0,0.01 -0.042,-0.1371 -0.053,-0.3379 -0.011,-0.2008 -0.01,-0.4687 0.01,-0.7793 0.026,-0.6212 0.089,-1.4121 0.1465,-2.2109 0.058,-0.7988 0.1104,-1.606 0.1133,-2.2656 0,-0.3299 -0.01,-0.6234 -0.039,-0.8653 -0.03,-0.2419 -0.068,-0.4318 -0.1796,-0.5801 -0.097,-0.1295 -0.2404,-0.2088 -0.3926,-0.2402 z m -0.074,0.3613 c 0.083,0.017 0.1302,0.046 0.1718,0.1016 0.028,0.037 0.081,0.1887 0.1075,0.4043 0.027,0.2156 0.038,0.4958 0.037,0.8164 0,0.6413 -0.056,1.4433 -0.1133,2.2402 -0.058,0.797 -0.1202,1.5894 -0.1465,2.2227 -0.013,0.3166 -0.018,0.5926 -0.01,0.8145 0.012,0.2218 0.018,0.378 0.1153,0.5234 v 0 c -0.01,-0.014 0.025,0.098 0.01,0.2715 -0.019,0.1738 -0.069,0.4102 -0.1406,0.6875 -0.1422,0.5545 -0.3729,1.275 -0.627,2.0488 -0.5082,1.5476 -1.1103,3.3024 -1.3008,4.4453 -0.1926,1.1565 -0.096,3.1882 0.1367,5.0488 0.1163,0.9304 0.2674,1.8137 0.4375,2.5176 0.085,0.352 0.175,0.658 0.2696,0.9063 0.095,0.2482 0.1877,0.4377 0.3183,0.5683 0.7508,0.7498 1.5448,1.3389 4.1504,2.0821 1.3107,0.3744 2.6127,0.5608 3.5,0.7656 0.4437,0.1024 0.785,0.2154 0.9453,0.3262 0.08,0.055 0.109,0.1001 0.1172,0.1328 0.01,0.033 0.01,0.078 -0.047,0.166 -0.5549,0.926 -0.5467,0.914 -1.4707,2.209 -0.4871,0.6827 -0.4503,1.1885 -0.4277,1.5976 0.023,0.4092 0.041,0.7318 -0.4883,1.3496 -0.5616,0.6557 -0.7613,1.0033 -0.9492,1.3789 -0.1878,0.3756 -0.3638,0.775 -0.9141,1.5997 -0.5334,0.8003 -1.1551,1.1971 -1.7226,1.6699 -0.5676,0.4727 -1.0729,1.0374 -1.2656,2.0976 -0.1878,1.0326 -0.1459,1.5143 -0.2305,1.916 -0.085,0.4018 -0.2925,0.7832 -1.0273,1.7012 v 0 c -0.3611,0.4518 -0.636,0.6892 -0.8477,0.8183 -0.2117,0.1292 -0.3578,0.1555 -0.5137,0.1778 -0.1558,0.022 -0.3388,0.037 -0.5234,0.1621 -0.1846,0.1255 -0.3491,0.3405 -0.541,0.7246 -0.3493,0.6981 -0.8779,1.0909 -1.2481,1.5351 -0.1851,0.2222 -0.333,0.4696 -0.3574,0.7696 -0.024,0.3 0.074,0.6309 0.3184,1.0215 0.4563,0.7294 0.8652,1.5471 1.0664,2.3515 0.2012,0.8045 0.1967,1.5865 -0.1485,2.2774 -0.7096,1.4183 -2.93835,3.8344 -4.72653,4.7285 -0.88749,0.4437 -1.62851,0.4433 -2.32226,0.4433 -0.69375,0 -1.36327,-6e-4 -1.96875,0.5039 -0.56272,0.4695 -1.04588,0.9453 -1.32032,1.4942 -0.27443,0.5488 -0.32282,1.1772 -0.0273,1.8672 0.29174,0.6807 0.75467,1.2483 0.89648,1.6738 0.0709,0.2127 0.0725,0.3646 -0.0254,0.5234 -0.0979,0.1589 -0.32628,0.3403 -0.76953,0.5176 -0.94274,0.3771 -1.26759,0.6932 -1.55078,1.0235 -0.28318,0.3302 -0.52763,0.6656 -1.43555,1.2109 -0.43878,0.2633 -0.76537,0.3311 -1.04882,0.3183 -0.28346,-0.013 -0.53353,-0.1122 -0.80079,-0.2167 -0.26725,-0.1046 -0.55495,-0.217 -0.89648,-0.2071 -0.34153,0.01 -0.71884,0.1481 -1.15625,0.4883 -0.42373,0.3296 -0.66871,0.5694 -0.81641,0.7793 -0.14769,0.2099 -0.19028,0.3988 -0.20312,0.5527 -0.0128,0.1539 -0.008,0.2644 -0.0586,0.42 -0.0511,0.1555 -0.16234,0.3658 -0.42969,0.6777 -1.11,1.296 -1.14467,1.3578 -1.51367,2.4668 -0.0925,0.2775 -0.16285,0.4781 -0.23438,0.6113 -0.0715,0.1332 -0.13183,0.1973 -0.24609,0.25 -0.22852,0.1055 -0.7325,0.1211 -1.75,0.1211 -1.00629,0 -1.60245,-0.096 -2.15235,-0.021 -0.54989,0.075 -1.01777,0.342 -1.67773,1.002 -0.65684,0.6568 -1.21451,1.3544 -1.71875,1.9277 -0.50424,0.5733 -0.96041,1.014 -1.36328,1.1758 -0.48437,0.1932 -1.05458,0.5209 -1.41211,0.9297 -0.17877,0.2044 -0.30882,0.4351 -0.31641,0.6933 -0.008,0.2582 0.12433,0.5186 0.38672,0.7286 0.5342,0.4267 1.24707,0.3643 1.80469,0.2187 0.29488,-0.077 0.3437,-0.1243 0.52344,-0.2051 -0.12085,0.3232 -0.28761,0.8509 -0.69532,1.3946 -0.30562,0.4074 -0.53222,1.0129 -0.7832,1.5605 -0.25098,0.5476 -0.53466,1.0193 -0.81641,1.1602 -0.55975,0.2798 -0.97973,0.062 -1.1289,0 l 0.82226,-1.9707 0.002,-0.01 c 0.003,-0.01 0.152,-0.3034 0.17773,-0.6895 0.026,-0.3893 -0.0979,-0.897 -0.62109,-1.2109 -0.90634,-0.5438 -0.64891,-0.582 -2.12891,-0.582 -0.35842,0 -0.62544,-0.032 -0.83984,-0.059 -0.2144,-0.026 -0.38052,-0.056 -0.55469,0 -0.17417,0.052 -0.30549,0.2039 -0.39063,0.4101 -0.0851,0.2062 -0.15312,0.4879 -0.24609,0.9063 -0.0942,0.424 -0.14096,0.7657 -0.18359,1.0215 -0.0426,0.2557 -0.0904,0.4209 -0.13477,0.4843 -0.0444,0.064 -0.0686,0.081 -0.24023,0.066 -0.17164,-0.014 -0.45484,-0.091 -0.86719,-0.2285 v 0 c -0.81884,-0.2735 -1.14065,-0.4838 -1.3418,-0.7656 -0.20114,-0.2819 -0.29856,-0.6933 -0.58203,-1.3536 -0.12932,-0.3017 -0.10064,-0.419 -0.0937,-0.4316 0.007,-0.013 0.0244,-0.018 0.0937,-0.029 0.0173,0 0.0342,-0.01 0.0625,-0.014 0.0283,-0.01 0.0883,-0.015 0.13672,-0.1035 0.0242,-0.044 0.0269,-0.104 0.0176,-0.1426 -0.009,-0.039 -0.0244,-0.06 -0.0371,-0.078 -0.0255,-0.035 -0.047,-0.053 -0.0742,-0.076 -0.10908,-0.091 -0.31226,-0.2244 -0.72852,-0.5019 -0.84035,-0.5597 -1.68365,-1.0312 -2.47656,-1.2715 -0.7929,-0.2403 -1.55376,-0.246 -2.16797,0.1641 -0.52091,0.3476 -0.94103,0.3767 -1.29297,0.539 -0.17596,0.081 -0.33844,0.2213 -0.41601,0.4356 -0.0776,0.2143 -0.0834,0.4818 -0.0352,0.8652 0.0924,0.7391 0.11833,1.1491 0.0547,1.3242 -0.0318,0.088 -0.0688,0.1308 -0.16602,0.1817 -0.0972,0.051 -0.25701,0.096 -0.48242,0.1406 -0.23474,0.047 -0.38082,0.081 -0.5,0.1328 -0.11917,0.052 -0.20885,0.1395 -0.26562,0.2246 -0.11355,0.1703 -0.17363,0.3533 -0.62305,0.8028 -0.41013,0.4101 -1.00349,0.5034 -1.52734,0.5488 -0.26193,0.023 -0.50073,0.031 -0.70117,0.078 -0.10023,0.024 -0.19467,0.058 -0.27735,0.127 -0.0827,0.069 -0.14062,0.187 -0.14062,0.3027 0,0.298 0.0376,0.747 -0.0176,0.9805 -0.0138,0.058 -0.0329,0.1 -0.0469,0.1191 -0.014,0.02 -0.0143,0.017 -0.0234,0.019 -0.0183,0 -0.13874,-0.01 -0.35157,-0.1757 -0.96009,-0.7463 -1.92773,-0.9395 -1.92773,-0.9395 l 0.0703,0.031 -1.11719,-0.7989 c 0.0919,-0.079 0.15962,-0.1262 0.33399,-0.3164 0.26443,-0.2883 0.56136,-0.6718 0.66797,-1.0976 0.18148,-0.726 0.32069,-1.0213 1.04101,-1.5625 0.40158,-0.3012 0.60435,-0.6563 0.78711,-0.9532 0.18277,-0.2968 0.34021,-0.5309 0.66602,-0.6933 0.45273,-0.2264 0.78351,-0.7642 0.86328,-1.2696 0.0399,-0.2526 0.0122,-0.5156 -0.15625,-0.7089 -0.16847,-0.1934 -0.45601,-0.272 -0.81641,-0.2207 -0.64038,0.092 -1.22984,0.1123 -1.45508,0.014 -0.11261,-0.049 -0.13516,-0.073 -0.13085,-0.1875 0.004,-0.1142 0.0868,-0.3356 0.30078,-0.6425 0.001,0 6.2e-4,0 0.002,0 0.007,-0.01 0.716,-0.9095 1.41992,-1.4375 0.34238,-0.2567 0.79091,-0.4391 1.23242,-0.625 0.44152,-0.1859 0.87953,-0.3736 1.19336,-0.6875 0.30657,-0.3065 0.41599,-0.6307 0.50977,-0.9589 0.0938,-0.3283 0.17892,-0.6706 0.44336,-1.1114 0.2663,-0.4438 0.53829,-0.7149 0.74023,-1.0683 0.20195,-0.3534 0.30532,-0.7847 0.20899,-1.459 -0.0943,-0.66 -0.21699,-1.0425 -0.2461,-1.3106 -0.029,-0.2674 0.006,-0.426 0.25,-0.7753 v 0 c 0.15373,-0.2199 0.19673,-0.4597 0.17774,-0.6738 -0.0191,-0.2148 -0.091,-0.4074 -0.15625,-0.5821 -0.0653,-0.1747 -0.12222,-0.3323 -0.13477,-0.455 -0.0125,-0.1227 0.003,-0.2013 0.0977,-0.3028 0.2729,-0.2918 0.47723,-0.6094 0.52539,-1.0058 0.0482,-0.3965 -0.0585,-0.8499 -0.3457,-1.4239 -0.28401,-0.5654 -0.471,-0.8056 -0.54883,-1.0195 -0.0778,-0.2138 -0.0812,-0.4516 0.01,-1.0918 0.17663,-1.2364 0.87133,-1.9299 1.61133,-2.6699 0.23691,-0.2366 0.38109,-0.6245 0.50586,-1.0879 0.12477,-0.4634 0.21709,-1.0021 0.28711,-1.5156 0.14003,-1.0271 0.1875,-1.9571 0.1875,-1.9571 l -0.0547,-0.1406 c 0,0 -0.10134,-0.095 -0.16015,-0.3301 -0.0588,-0.2351 -0.0656,-0.5997 0.19531,-1.1211 0.28723,-0.5734 0.38443,-1.0127 0.47656,-1.4043 0.0921,-0.3915 0.17652,-0.7311 0.44141,-1.1718 v 0 c 0.54859,-0.9153 1.6217,-2.7009 1.64648,-2.7422 0.004,0 0.0451,-0.052 0.18164,-0.086 0.14246,-0.036 0.36814,-0.043 0.70508,0.125 0.43622,0.2181 0.88514,0.101 1.3418,-0.1152 0.45666,-0.2163 0.95846,-0.5359 1.58984,-0.8067 0.70018,-0.3006 1.18178,-0.886 1.55859,-1.4277 0.37682,-0.5417 0.68006,-1.0474 0.875,-1.1777 0.0962,-0.064 0.22782,-0.1799 0.42188,-0.3575 0.19406,-0.1775 0.43985,-0.412 0.72266,-0.6875 0.56561,-0.551 1.27976,-1.2684 2.00976,-2.0332 1.46001,-1.5295 2.9823,-3.2297 3.5625,-4.1972 1.13146,-1.8858 2.05183,-4.8496 2.78906,-6.877 0.73262,-2.0147 2.22256,-4.9871 2.94141,-6.0644 0.37658,-0.5649 0.53287,-0.9275 0.62891,-1.4317 0.096,-0.5042 0.14003,-1.1446 0.32422,-2.3418 0.36729,-2.3874 0.87615,-3.5978 3.44726,-5.6172 2.59612,-2.0398 5.57319,-4.6361 7.19141,-5.5351 1.64155,-0.912 3.4739,-1.4599 4.92773,-1.6426 1.56544,-0.1969 3.40425,-1.499 5.21095,-2.041 0.9543,-0.2863 1.9742,-0.8456 2.8203,-1.2344 0.4231,-0.1944 0.805,-0.3455 1.0899,-0.4004 0.1424,-0.027 0.2591,-0.031 0.3418,-0.014 z"
   id="Isle_of_Man_9_" />
			</g><rect
   style="fill:none;stroke:#000000;stroke-width:0.29998;stroke-linejoin:bevel;stroke-dasharray:none;paint-order:stroke fill markers"
   id="rect2"
   height="4390.293"
   x="0.19998971"
   y="0.19998971"
   ry="0.69917101"
   width="4353.8188" /></svg>
