<?xml version="1.0" encoding="UTF-8" standalone="no"?>
<!-- Generator: Adobe Illustrator 22.1.0, SVG Export Plug-In . SVG Version: 6.00 Build 0)  -->

<svg
   version="1.1"
   x="0px"
   y="0px"
   viewBox="0 0 4354.1187 4390.5933"
   enable-background="new 0 0 1995.865 2834.646"
   xml:space="preserve"
   id="svg1596"
   width="4354.1187"
   height="4390.5933"
   xmlns="http://www.w3.org/2000/svg"
   xmlns:svg="http://www.w3.org/2000/svg"><defs
   id="defs1596" />


<g
   id="Welsh_islands"
   transform="translate(1093.6405,660.66109)">
				<path
   style="fill:#66a8de;stroke-miterlimit:1"
   d="m 880.00586,2242.6621 c -0.16036,0.018 -0.29735,0.1361 -0.4043,0.3145 -0.38777,0.6449 -0.39867,1.0823 -0.50976,1.3867 -0.12317,0.3387 -0.20743,0.5697 -0.26172,0.7383 -0.0543,0.1686 -0.0873,0.2745 -0.0723,0.3964 0.008,0.061 0.0362,0.1241 0.0723,0.168 0.036,0.044 0.0732,0.07 0.10547,0.092 0.0645,0.044 0.12097,0.078 0.19922,0.1563 0.22182,0.2212 0.49087,0.2958 0.77929,0.3437 0.28842,0.048 0.61268,0.077 1.02735,0.1953 0.43599,0.1248 0.71582,0.1934 0.93164,0.1934 0.1079,0 0.21172,-0.018 0.29882,-0.088 0.0871,-0.07 0.12367,-0.1791 0.12891,-0.2715 -0.002,0.039 0.01,-0.016 0.084,-0.082 0.0741,-0.066 0.18805,-0.1499 0.3164,-0.2422 0.25671,-0.1847 0.57138,-0.4027 0.7832,-0.6856 0.0613,-0.082 0.10757,-0.097 0.19336,-0.1 0.0858,0 0.20697,0.028 0.33985,0.072 0.13288,0.044 0.27625,0.1012 0.42578,0.1328 0.14953,0.032 0.32481,0.039 0.47656,-0.062 0.12782,-0.085 0.21382,-0.2242 0.22852,-0.3672 0.0147,-0.143 -0.0237,-0.2785 -0.084,-0.4199 -0.12062,-0.2829 -0.33881,-0.603 -0.58398,-0.9961 -0.13724,-0.2202 -0.29229,-0.3596 -0.4668,-0.4199 -0.17451,-0.06 -0.34855,-0.032 -0.49414,0.021 -0.29118,0.1063 -0.53339,0.2883 -0.70117,0.3125 h -0.002 c -0.0679,0.01 -0.12243,-0.01 -0.20899,-0.064 -0.0866,-0.056 -0.18928,-0.1477 -0.3125,-0.2441 -0.24644,-0.1928 -0.61335,-0.3909 -1.10547,-0.25 -0.37217,0.1061 -0.56877,-0.016 -0.79101,-0.127 -0.11113,-0.056 -0.23222,-0.121 -0.39258,-0.1035 z m 0.041,0.3672 c 0.017,0 0.0808,0.016 0.18555,0.068 0.20951,0.1046 0.56777,0.2903 1.0586,0.1503 0.37088,-0.1061 0.55907,0.016 0.77539,0.1856 0.10815,0.085 0.21418,0.1822 0.33984,0.2637 0.12566,0.081 0.28572,0.1475 0.46484,0.1211 0.32522,-0.047 0.57358,-0.2584 0.77539,-0.3321 0.10091,-0.037 0.17411,-0.044 0.2461,-0.019 0.072,0.025 0.16417,0.09 0.27344,0.2656 0.24882,0.3989 0.46151,0.7222 0.55664,0.9453 0.0476,0.1116 0.063,0.1949 0.0586,0.2383 -0.004,0.043 -0.01,0.058 -0.0664,0.096 -0.0337,0.023 -0.0904,0.03 -0.19531,0.01 -0.10493,-0.022 -0.24027,-0.073 -0.38476,-0.1211 -0.1445,-0.048 -0.30033,-0.095 -0.46875,-0.09 -0.16843,0.01 -0.35292,0.082 -0.47657,0.2461 -0.15817,0.2112 -0.44583,0.4243 -0.70312,0.6094 -0.12865,0.093 -0.24951,0.1778 -0.34766,0.2656 -0.0982,0.088 -0.19779,0.1729 -0.20703,0.3359 -0.002,0.031 -1.2e-4,0.012 0.01,0 0.01,-0.01 -0.005,0.01 -0.0684,0.01 -0.12694,0 -0.40307,-0.055 -0.83008,-0.1777 -0.44833,-0.1284 -0.80178,-0.1608 -1.06836,-0.2051 -0.26658,-0.044 -0.42895,-0.091 -0.57813,-0.2403 -0.10725,-0.1069 -0.2046,-0.1665 -0.25195,-0.1992 -0.0138,-0.01 -0.0134,-0.01 -0.0176,-0.012 4.3e-4,-0.01 0.007,-0.078 0.0547,-0.2266 0.0499,-0.1549 0.13448,-0.3853 0.25781,-0.7246 0.14277,-0.3912 0.12572,-0.7384 0.47852,-1.3242 0.0781,-0.1301 0.11192,-0.1348 0.1289,-0.1367 z"
   id="Skomer_Island__x2F__Ynys_Skomer" />
				<path
   style="fill:#66a8de;stroke-miterlimit:1"
   d="m 884.41992,2251.4395 c -0.15916,0.01 -0.29233,0.056 -0.40039,0.121 -0.21611,0.1297 -0.34942,0.2926 -0.75586,0.4668 -0.97251,0.417 -0.97656,1.5274 -0.97656,1.5274 l 0.084,0.1523 c 0,0 0.19039,0.1272 0.44336,0.2696 0.25297,0.1423 0.5642,0.3022 0.84571,0.373 h 0.002 c 0.25707,0.064 0.51588,0.1078 0.77539,0.01 0.25951,-0.098 0.48205,-0.3261 0.69141,-0.7168 0.1966,-0.3656 0.26518,-0.4583 0.34961,-0.5254 0.0844,-0.067 0.2423,-0.137 0.56054,-0.3809 0.17029,-0.13 0.28684,-0.2496 0.31446,-0.4199 0.0138,-0.085 -0.006,-0.177 -0.0488,-0.2461 -0.0426,-0.069 -0.10041,-0.1196 -0.16407,-0.1621 -0.25461,-0.17 -0.64832,-0.2597 -1.1289,-0.3828 -0.24933,-0.064 -0.43264,-0.093 -0.5918,-0.086 z m 0.0156,0.371 c 0.10162,0 0.2537,0.013 0.48437,0.072 0.47942,0.1229 0.87599,0.2408 1.01563,0.334 0.0328,0.022 0.0443,0.038 0.0488,0.045 -0.002,0 -0.0347,0.077 -0.16992,0.1797 -0.29775,0.2282 -0.42238,0.2719 -0.56445,0.3848 -0.14207,0.1129 -0.24587,0.2661 -0.44727,0.6406 -0.18664,0.3483 -0.34785,0.4909 -0.49609,0.5469 -0.14772,0.056 -0.32003,0.037 -0.55469,-0.021 h -0.002 c -0.21143,-0.053 -0.51415,-0.203 -0.75391,-0.3379 -0.1832,-0.1031 -0.2604,-0.1545 -0.32031,-0.1934 0.006,-0.1417 0.0536,-0.8027 0.73242,-1.0937 0.45656,-0.1958 0.65765,-0.4024 0.80078,-0.4883 0.0716,-0.043 0.12495,-0.064 0.22657,-0.068 z"
   id="Skokholm_Island__x2F__Ynys_Sgoc-holm" />
				<path
   style="fill:#66a8de;stroke-miterlimit:1"
   d="m 876.52734,2213.4082 c -0.11352,0.029 -0.21983,0.085 -0.32422,0.1543 -0.0471,0.031 -0.0877,0.036 -0.16406,0.023 -0.0763,-0.013 -0.17553,-0.05 -0.28711,-0.09 -0.11157,-0.04 -0.23615,-0.083 -0.3789,-0.086 -0.14276,0 -0.30647,0.051 -0.43164,0.1757 -0.3119,0.3119 -1.03711,0.5723 -1.03711,0.5723 l -0.11133,0.25 0.48047,1.0801 c 0.002,0.017 0.0214,0.1836 -0.0137,0.3418 -0.0184,0.083 -0.0513,0.1517 -0.0898,0.1894 -0.0385,0.038 -0.0813,0.062 -0.19336,0.053 -0.21976,-0.018 -0.41637,0.1153 -0.50781,0.291 -0.0914,0.1757 -0.1159,0.3856 -0.10742,0.6152 0.017,0.4593 0.17622,0.998 0.44726,1.4043 0.26756,0.4016 0.57544,0.5659 0.85938,0.6192 0.28394,0.053 0.52707,0.023 0.73437,0.074 0.2834,0.07 0.62428,0.071 0.93946,-0.055 0.31518,-0.1258 0.59904,-0.3943 0.71484,-0.8164 0.11256,-0.4109 0.0539,-0.7767 -0.0957,-1.1113 -0.14961,-0.3347 -0.37905,-0.6455 -0.62305,-1.0118 -0.10684,-0.1605 -0.1274,-0.2642 -0.11719,-0.3574 0.0102,-0.093 0.0594,-0.1939 0.14453,-0.3144 0.17019,-0.2412 0.47536,-0.5441 0.61329,-1.0254 0.0648,-0.2276 0.0915,-0.4046 0.084,-0.5547 -0.008,-0.1501 -0.0564,-0.2899 -0.16992,-0.3711 -0.11355,-0.081 -0.25172,-0.08 -0.36524,-0.051 z m 0.14844,0.3516 c -0.006,0 0.0133,0 0.0176,0.088 0.004,0.085 -0.0122,0.2315 -0.0703,0.4355 -0.10908,0.3807 -0.36073,0.6309 -0.56055,0.9141 -0.0999,0.1415 -0.18832,0.2978 -0.20898,0.4863 -0.0207,0.1885 0.0361,0.3936 0.17578,0.6035 0.249,0.3738 0.46785,0.6774 0.59375,0.959 0.12589,0.2816 0.16856,0.5312 0.0781,0.8613 -0.0872,0.3179 -0.27052,0.4823 -0.49609,0.5723 -0.22557,0.09 -0.49829,0.09 -0.71289,0.037 -0.2907,-0.072 -0.54505,-0.039 -0.75586,-0.078 -0.21081,-0.039 -0.39565,-0.1226 -0.6211,-0.461 -0.22195,-0.3327 -0.37073,-0.8329 -0.38476,-1.2129 -0.007,-0.19 0.023,-0.3481 0.0664,-0.4316 0.0434,-0.083 0.0617,-0.099 0.1504,-0.092 0.19643,0.016 0.37047,-0.049 0.48242,-0.1582 0.11194,-0.1097 0.16345,-0.2468 0.1914,-0.373 0.0559,-0.2525 0.0176,-0.4922 0.0176,-0.4922 l -0.0137,-0.049 -0.42578,-0.9589 c 0.17198,-0.059 0.6402,-0.1988 1.0039,-0.5625 0.0598,-0.06 0.0988,-0.068 0.16407,-0.066 0.0653,0 0.15559,0.027 0.25976,0.064 0.10418,0.037 0.21982,0.084 0.35157,0.1055 0.13174,0.022 0.29177,0.012 0.42968,-0.08 0.0806,-0.054 0.15871,-0.09 0.21094,-0.1035 0.0522,-0.013 0.0622,0 0.0566,-0.01 z"
   id="Ramsey_Island__x2F__Ynys_Dewi" />
				<path
   style="fill:#66a8de;stroke-miterlimit:1"
   d="m 967.08203,1893.1055 c -0.18987,0.069 -0.32534,0.2092 -0.45898,0.3437 -0.13365,0.1346 -0.26266,0.2686 -0.38282,0.3457 -0.12015,0.077 -0.20833,0.1049 -0.33593,0.062 -0.34333,-0.1146 -0.49256,-0.2509 -0.5586,-0.3398 -0.033,-0.044 -0.0469,-0.078 -0.0527,-0.098 -0.006,-0.02 -0.004,-0.01 -0.004,-0.01 l -0.21679,-0.1817 c 0,0 -0.71695,0.126 -1.41602,0.01 -0.13935,-0.023 -0.29024,0.025 -0.37891,0.123 -0.0887,0.098 -0.12593,0.2171 -0.14648,0.3438 -0.0411,0.2534 -0.0125,0.5594 0.0352,0.8691 0.0945,0.6145 0.27835,1.2228 0.28125,1.2324 2e-5,1e-4 0.002,0.01 0.002,0.01 0.0254,0.1048 0.0216,0.1581 0.0195,0.1719 -0.0222,0 -0.0667,0.01 -0.13086,0.01 -0.0708,0 -0.15676,-0.01 -0.25391,0.02 -0.19155,0.047 -0.73775,0.057 -1.5039,0.3769 -0.18525,0.077 -0.32876,0.1348 -0.44922,0.211 -0.12046,0.076 -0.2255,0.1925 -0.25586,0.3379 -0.0607,0.2907 0.077,0.58 0.29297,1.166 0.11245,0.3057 0.21509,0.4948 0.35742,0.6172 0.14233,0.1224 0.32199,0.1404 0.46289,0.1269 0.28181,-0.027 0.50589,-0.125 0.96875,0.1 0.51412,0.2492 0.70872,0.3277 0.75781,0.375 0.0245,0.024 0.0391,0.047 0.0723,0.1367 0.0332,0.089 0.0791,0.2303 0.1582,0.4356 0.0663,0.1722 0.0457,0.2243 0.0293,0.25 -0.0165,0.026 -0.0776,0.064 -0.18555,0.1035 -0.10796,0.039 -0.24868,0.077 -0.38476,0.1602 -0.13609,0.083 -0.26534,0.2358 -0.29297,0.4433 -0.036,0.2679 -0.16441,0.475 -0.22852,0.7871 -0.0641,0.3122 -0.0325,0.7016 0.2461,1.2676 0.14292,0.2907 0.29433,0.4772 0.48828,0.5664 0.19395,0.089 0.39715,0.055 0.57617,-0.012 0.35805,-0.1328 0.70882,-0.3862 1.18359,-0.4531 0.51422,-0.072 0.76513,-0.062 1.01367,-0.1133 0.24855,-0.052 0.45845,-0.1736 0.80469,-0.457 0.16751,-0.1372 0.27975,-0.2208 0.34961,-0.2598 0.0699,-0.039 0.0793,-0.037 0.11328,-0.031 0.0679,0.011 0.27413,0.1348 0.72461,0.2637 0.39395,0.1122 0.46173,0.2472 0.6543,0.4395 0.19257,0.1923 0.4874,0.3951 1.16016,0.4902 0.3212,0.045 0.53867,0.083 0.68359,0.125 0.14492,0.042 0.20991,0.081 0.26562,0.1367 0.11144,0.1125 0.20376,0.3803 0.51758,0.8867 0.14531,0.2341 0.17899,0.3748 0.17774,0.4043 0,0 0.002,0 0.002,0 -1.9e-4,2e-4 -0.0141,0.011 -0.0469,0.023 -0.0655,0.024 -0.19067,0.043 -0.32812,0.084 -0.13745,0.041 -0.29931,0.1126 -0.41016,0.2676 -0.0947,0.1324 -0.14851,0.285 -0.14062,0.4414 0.008,0.1564 0.0708,0.306 0.16406,0.4629 0.18646,0.3138 0.51145,0.6809 0.97266,1.2344 0.46659,0.5594 0.61718,0.6911 0.65625,0.7519 0.0391,0.061 0.0471,0.1672 0.23437,0.7285 0.18078,0.5424 0.18609,0.7426 0.14844,0.9121 -0.0376,0.1696 -0.15104,0.3638 -0.2168,0.7891 v 0 c -0.0349,0.2274 -0.009,0.4248 0.084,0.5839 0.0935,0.1592 0.23971,0.2649 0.40429,0.3536 0.32918,0.1772 0.76033,0.3084 1.26563,0.6054 0.54677,0.3216 0.8918,0.3508 1.15039,0.3164 0.25859,-0.034 0.37255,-0.1017 0.66797,0.01 0.17397,0.063 0.30045,0.1044 0.42187,0.1172 0.12143,0.013 0.24127,-0.014 0.33789,-0.064 0.19326,-0.1019 0.33359,-0.2574 0.75196,-0.4961 0.42625,-0.2432 0.62746,-0.3305 0.83984,-0.414 0.21239,-0.083 0.44112,-0.1657 0.87891,-0.3848 0.44303,-0.2215 0.6854,-0.3877 0.79492,-0.6289 0.10951,-0.2413 0.042,-0.4727 -0.0195,-0.7481 -0.0676,-0.3052 -0.1904,-0.5153 -0.29102,-0.6855 -0.10061,-0.1702 -0.17425,-0.2959 -0.19922,-0.4727 -0.0658,-0.4574 -0.2428,-1.0699 -0.45703,-1.4257 -0.18551,-0.3114 -0.34324,-0.5402 -0.67773,-0.7422 -0.36343,-0.2183 -0.75184,-0.2167 -1.01367,-0.3203 -0.0297,-0.012 -0.025,-0.01 -0.0371,-0.045 -0.0121,-0.036 -0.0216,-0.1097 -0.0254,-0.207 -0.008,-0.1945 -0.003,-0.4789 -0.14844,-0.7695 h -0.002 c -0.1331,-0.2657 -0.28013,-0.4016 -0.43946,-0.461 -0.15933,-0.059 -0.2872,-0.065 -0.51758,-0.1777 -0.5131,-0.2504 -0.42837,-0.1423 -0.79492,-0.5703 -0.17514,-0.2045 -0.19025,-0.2576 -0.19531,-0.332 -0.005,-0.075 0.0254,-0.2282 -0.008,-0.4981 -0.009,-0.073 -0.0219,-0.1355 -0.0488,-0.1953 -0.027,-0.06 -0.0737,-0.12 -0.14063,-0.1543 -0.13379,-0.069 -0.24983,-0.019 -0.33593,0.018 -0.17163,0.072 -0.33571,0.1692 -0.51953,0.1699 -0.0233,-10e-5 -0.0175,-2e-4 -0.0215,0 -0.004,0 -0.0179,-0.022 -0.0293,-0.062 -0.0227,-0.081 -0.0284,-0.2368 -0.0137,-0.4121 0.0294,-0.3506 0.125,-0.7677 0.125,-1.0606 0,-0.054 -10e-4,-0.049 0.0762,-0.084 0.0773,-0.035 0.22464,-0.065 0.40039,-0.088 0.35152,-0.045 0.81569,-0.069 1.20118,-0.2832 0.19132,-0.1072 0.32256,-0.2449 0.37695,-0.4063 0.0544,-0.1614 0.0297,-0.321 -0.0117,-0.4687 -0.0829,-0.2955 -0.23801,-0.5843 -0.27148,-0.9102 -0.0442,-0.4365 -0.32542,-0.7397 -0.66407,-0.9414 -0.33864,-0.2017 -0.7435,-0.325 -1.11132,-0.4473 -0.38752,-0.1288 -0.62076,-0.1339 -0.80274,-0.098 -0.18198,0.036 -0.27255,0.088 -0.48828,0.088 -0.10041,0 -0.16154,-0.017 -0.20508,-0.045 -0.0435,-0.028 -0.0809,-0.072 -0.11719,-0.1621 -0.0725,-0.181 -0.10937,-0.5402 -0.10937,-1.0879 0,-0.1438 -0.005,-0.2519 -0.0195,-0.3417 -0.0143,-0.09 -0.0276,-0.1692 -0.10938,-0.2442 -0.0409,-0.037 -0.10582,-0.063 -0.16015,-0.064 -0.0543,0 -0.0952,0.012 -0.12891,0.027 -0.0675,0.031 -0.11431,0.07 -0.16406,0.1113 -0.199,0.1658 -0.41715,0.3744 -0.6836,0.3301 -0.11867,-0.02 -0.1358,-0.037 -0.16406,-0.051 0.077,-0.077 0.29792,-0.2246 0.57227,-0.334 0.0879,-0.035 0.15938,-0.074 0.2207,-0.125 0.0613,-0.051 0.11479,-0.1259 0.12891,-0.2109 0.0282,-0.1701 -0.0665,-0.2842 -0.15235,-0.3887 -0.17164,-0.2088 -0.42463,-0.4373 -0.59179,-0.7793 -0.10498,-0.2147 -0.23518,-0.3565 -0.39453,-0.414 -0.15936,-0.057 -0.31957,-0.015 -0.4336,0.049 -0.17341,0.097 -0.2255,0.196 -0.27148,0.2617 -0.0862,-0.01 -0.94958,-0.1048 -1.80274,0 -0.19647,0.024 -0.30667,0.01 -0.37109,-0.023 -0.0644,-0.029 -0.10393,-0.073 -0.15625,-0.1621 -0.10464,-0.1783 -0.21523,-0.5192 -0.55274,-0.8594 -0.18681,-0.188 -0.43121,-0.243 -0.62109,-0.1738 z m 0.12695,0.3476 c 0.0762,-0.028 0.11075,-0.035 0.23243,0.088 0.27949,0.2818 0.35423,0.5435 0.49609,0.7852 0.0709,0.1208 0.16904,0.2413 0.32031,0.3105 0.15127,0.069 0.33529,0.084 0.57031,0.055 0.83125,-0.1021 1.80665,0 1.80665,0 l 0.17578,-0.082 c 0,0 0.11706,-0.1625 0.22851,-0.2246 0.0557,-0.031 0.0896,-0.035 0.12696,-0.022 0.0373,0.014 0.10747,0.063 0.1875,0.2265 0.20283,0.415 0.50232,0.6877 0.63867,0.8536 0.0625,0.076 0.0622,0.1013 0.0664,0.084 -0.0164,0.013 -0.0525,0.035 -0.11523,0.061 -0.32239,0.1285 -0.60996,0.2649 -0.77149,0.4726 -0.0404,0.052 -0.0751,0.1139 -0.084,0.1934 -0.009,0.08 0.0201,0.1719 0.0723,0.2324 0.10434,0.1212 0.24808,0.1613 0.45117,0.1953 0.45564,0.076 0.76876,-0.2434 0.94531,-0.3945 0.005,0.056 0.01,0.1114 0.01,0.2109 0,0.5614 0.0242,0.9435 0.13671,1.2247 0.0563,0.1405 0.14327,0.2598 0.26172,0.3359 0.11846,0.076 0.25771,0.1035 0.4043,0.1035 0.27727,0 0.43428,-0.071 0.56055,-0.096 0.12627,-0.025 0.2608,-0.029 0.61328,0.088 0.37218,0.1237 0.75645,0.2457 1.03906,0.4141 0.28261,0.1683 0.45557,0.3585 0.48633,0.6621 0.0425,0.4141 0.21908,0.7421 0.2832,0.9707 0.0321,0.1142 0.0354,0.1933 0.0156,0.2519 -0.0197,0.059 -0.0644,0.1224 -0.20508,0.2012 v 0 c -0.27852,0.1548 -0.69937,0.1929 -1.06836,0.2403 -0.18449,0.024 -0.35644,0.048 -0.50781,0.1172 -0.15137,0.069 -0.29102,0.2292 -0.29102,0.4218 0,0.2001 -0.0905,0.6414 -0.12305,1.0293 -0.0163,0.194 -0.0232,0.3771 0.0234,0.543 0.0233,0.083 0.0625,0.1665 0.13281,0.2324 0.0703,0.066 0.17327,0.1049 0.27344,0.1055 0.30842,0 0.54523,-0.1502 0.66602,-0.2012 0.0117,0 -0.004,0 0.004,-0.01 0.004,0.015 0.007,0.018 0.01,0.043 0.0277,0.2251 -0.005,0.3213 0.006,0.4786 0.0107,0.1572 0.0903,0.3193 0.28516,0.5468 0.37345,0.4361 0.4172,0.4225 0.9121,0.6641 0.27363,0.1335 0.46137,0.1581 0.55079,0.1914 0.0894,0.033 0.12437,0.052 0.23828,0.2793 0.101,0.2024 0.10335,0.4109 0.11133,0.6172 0.004,0.1031 0.007,0.2057 0.043,0.3125 0.0361,0.1068 0.12569,0.2195 0.25,0.2695 0.35615,0.1418 0.709,0.1436 0.96094,0.2949 0.28059,0.1695 0.37091,0.3099 0.55274,0.6153 0.15777,0.2621 0.35001,0.8825 0.4082,1.2871 0.036,0.2552 0.14621,0.4384 0.24609,0.6074 0.0999,0.169 0.19269,0.3283 0.24805,0.5781 0.0625,0.2797 0.0894,0.4176 0.0449,0.5156 -0.0445,0.098 -0.20403,0.2407 -0.625,0.4512 -0.42521,0.2129 -0.62829,0.2849 -0.84765,0.3711 -0.21937,0.086 -0.45092,0.1858 -0.88868,0.4356 -0.44563,0.2542 -0.64244,0.4376 -0.74218,0.4902 -0.0499,0.026 -0.0654,0.032 -0.12696,0.025 -0.0616,-0.01 -0.167,-0.038 -0.33203,-0.098 -0.38257,-0.1393 -0.63959,-0.053 -0.84375,-0.025 -0.20416,0.027 -0.41183,0.028 -0.91406,-0.2675 -0.5427,-0.319 -1.00527,-0.4668 -1.27734,-0.6133 -0.13604,-0.073 -0.21829,-0.1409 -0.26172,-0.2149 -0.0434,-0.074 -0.0637,-0.1687 -0.0371,-0.3418 0.0582,-0.3767 0.15804,-0.5186 0.21289,-0.7656 0.0549,-0.247 0.031,-0.5417 -0.15821,-1.1094 -0.18271,-0.5476 -0.1757,-0.6573 -0.27539,-0.8125 -0.0997,-0.1551 -0.22518,-0.2394 -0.68359,-0.789 -0.46379,-0.5566 -0.78691,-0.9289 -0.93945,-1.1856 -0.0763,-0.1283 -0.10589,-0.2219 -0.10938,-0.291 -0.003,-0.069 0.0125,-0.1253 0.0723,-0.209 0.0437,-0.061 0.11118,-0.097 0.21289,-0.1269 0.1017,-0.03 0.22446,-0.046 0.34961,-0.092 0.0626,-0.023 0.12948,-0.055 0.1875,-0.1153 0.058,-0.061 0.0977,-0.152 0.10156,-0.2421 0.008,-0.1804 -0.0737,-0.3564 -0.23437,-0.6153 -0.29718,-0.4796 -0.3573,-0.7381 -0.56836,-0.9511 -0.10554,-0.1066 -0.24514,-0.18 -0.42579,-0.2325 -0.18064,-0.052 -0.41002,-0.091 -0.73632,-0.1367 -0.62225,-0.088 -0.78899,-0.2228 -0.95118,-0.3848 -0.16218,-0.1619 -0.34244,-0.3993 -0.8125,-0.5332 -0.41251,-0.118 -0.54467,-0.2381 -0.76953,-0.2734 -0.11243,-0.018 -0.2365,0.011 -0.34961,0.074 -0.1131,0.063 -0.2328,0.1565 -0.40429,0.2969 -0.33176,0.2716 -0.46108,0.3427 -0.64453,0.3809 -0.18346,0.038 -0.45645,0.035 -0.99024,0.1093 h -0.002 c -0.57423,0.081 -0.98361,0.371 -1.25781,0.4727 -0.13711,0.051 -0.21722,0.057 -0.29493,0.022 -0.0777,-0.036 -0.18647,-0.1403 -0.31054,-0.3926 -0.25543,-0.519 -0.26544,-0.7944 -0.2168,-1.0313 0.0486,-0.2368 0.18741,-0.4633 0.23438,-0.8125 0.0134,-0.1004 0.0451,-0.1323 0.11914,-0.1777 0.074,-0.045 0.19244,-0.081 0.31836,-0.1269 0.12591,-0.046 0.2752,-0.1023 0.37109,-0.252 0.0959,-0.1497 0.0901,-0.3532 0.002,-0.582 -0.0754,-0.1958 -0.11513,-0.3263 -0.15429,-0.4317 -0.0392,-0.1053 -0.0846,-0.1989 -0.16407,-0.2754 -0.1589,-0.1529 -0.34868,-0.1976 -0.85156,-0.4414 -0.55513,-0.2694 -0.96207,-0.1523 -1.16602,-0.1328 -0.10197,0.01 -0.13048,0.01 -0.1875,-0.041 -0.057,-0.049 -0.14694,-0.1827 -0.25,-0.4629 -0.21599,-0.586 -0.29388,-0.8837 -0.27734,-0.9629 0.008,-0.04 0.0154,-0.054 0.0898,-0.1015 0.0744,-0.047 0.20929,-0.1047 0.39454,-0.1817 0.71291,-0.2977 1.15004,-0.2845 1.45312,-0.3594 h 0.002 c 0.0269,-0.01 0.0835,-0.01 0.15235,-0.01 0.0688,0 0.14976,0.01 0.24414,-0.016 0.0944,-0.024 0.21174,-0.1104 0.25,-0.2305 0.0335,-0.1051 0.0129,-0.2205 -0.0176,-0.3535 h 0.004 v 0 h -0.004 c -0.004,-0.018 0.003,-0.028 -0.002,-0.047 l -0.13282,0.018 0.13086,-0.02 c 0,0 -0.18172,-0.6097 -0.27148,-1.1933 -0.0449,-0.2919 -0.0634,-0.5795 -0.0352,-0.7539 0.0141,-0.087 0.0422,-0.1406 0.0547,-0.1543 0.0125,-0.014 -7.3e-4,-0.015 0.0449,-0.01 0.6979,0.116 1.24174,0.015 1.37891,-0.01 0.0193,0.046 0.0338,0.09 0.0742,0.1445 0.11896,0.1603 0.34161,0.3363 0.73828,0.4687 0.24239,0.081 0.47572,0.014 0.65234,-0.1 0.17663,-0.1134 0.31879,-0.2671 0.44727,-0.3965 0.12848,-0.1293 0.24611,-0.2301 0.32226,-0.2578 z"
   id="Holy_Island__x2F__Ynys_Gybi" />
				<path
   style="fill:#66a8de;stroke-miterlimit:1"
   d="m 960.94336,2264.3691 c -0.002,0 -0.005,0 -0.01,0.01 -0.009,0.01 -0.0241,0.012 -0.041,0.021 -0.0339,0.02 -0.0813,0.05 -0.13672,0.086 -0.11076,0.073 -0.25382,0.1763 -0.38672,0.3047 -0.1329,0.1284 -0.25886,0.2801 -0.32227,0.4688 -0.0634,0.1886 -0.0447,0.4219 0.0996,0.6171 l 0.008,0.01 c 0,0 0.60553,0.7409 0.83203,1.3067 0.29125,0.7263 1.1341,0.8571 1.4707,0.9687 0.25525,0.085 0.61697,0.072 0.94727,0.057 0.3303,-0.016 0.61132,-0.049 0.61132,-0.049 l 0.16602,-0.1836 v -1.0195 l 0.82422,-1.0879 0.0117,-0.207 c 0,0 -0.40695,-0.7071 -1.14649,-0.7071 h -1.79687 l -0.93945,-0.5879 -0.0918,0.3165 h -0.0137 c -0.0113,-0.043 -0.0837,-0.3216 -0.0859,-0.3204 z m 0.0898,0.377 0.89063,0.5566 0.0977,0.027 h 1.84961 c 0.43358,0 0.66199,0.3671 0.73047,0.4648 l -0.75195,0.9942 -0.0391,0.1113 v 0.9101 c -0.0972,0.01 -0.19605,0.022 -0.42383,0.033 -0.31695,0.015 -0.69675,0 -0.8125,-0.037 -0.4054,-0.1344 -1.04139,-0.2502 -1.24414,-0.7558 -0.2675,-0.6682 -0.89258,-1.4043 -0.89258,-1.4043 l 0.008,0.01 c -0.0796,-0.1077 -0.0804,-0.1796 -0.0469,-0.2793 0.0335,-0.1 0.12029,-0.2177 0.22851,-0.3223 0.10823,-0.1045 0.23414,-0.1975 0.33203,-0.2617 0.0299,-0.02 0.0509,-0.031 0.0742,-0.045 z"
   id="Caldey_Island__x2F__Ynys_Byr" />
				<path
   style="fill:#66a8de;stroke-miterlimit:1"
   d="m 950.73828,2017.4219 c -0.17024,-0.029 -0.32653,0.017 -0.48828,0.068 -0.3235,0.1026 -0.6753,0.2352 -0.89453,0.1914 -0.3851,-0.077 -0.72264,0.1345 -0.9043,0.4434 -0.18166,0.3089 -0.24577,0.7157 -0.17773,1.125 0.11973,0.7203 0.13134,1.3747 -0.58203,2.3262 -0.19278,0.2568 -0.29857,0.4477 -0.34375,0.6133 -0.0452,0.1655 -0.0131,0.3325 0.084,0.4296 0.0971,0.097 0.21034,0.1138 0.29102,0.1192 0.0634,0 0.0949,0 0.11523,0 l 0.74023,0.01 c 0.18535,0 0.30999,0 0.41602,-0.01 0.10604,-0.012 0.2176,-0.051 0.28711,-0.1328 0.13903,-0.1631 0.11281,-0.2946 0.25,-0.584 0.0771,-0.1629 0.1202,-0.2833 0.13867,-0.3848 0.003,-0.018 -0.0115,-0.033 -0.01,-0.051 0.12311,-0.017 0.17846,-0.018 0.38671,-0.064 0.3575,-0.08 0.76587,-0.1892 1.02149,-0.4317 0.23493,-0.2229 0.34264,-0.5328 0.33398,-0.8652 -0.009,-0.3324 -0.12149,-0.6942 -0.31445,-1.0801 -0.17027,-0.3405 -0.13801,-0.4302 -0.084,-0.5801 0.054,-0.1498 0.1706,-0.3815 0.0996,-0.7421 -0.0201,-0.1023 -0.0591,-0.1944 -0.125,-0.2657 -0.066,-0.071 -0.15512,-0.1122 -0.24024,-0.1269 z m -0.0645,0.3633 c 0.0229,0 0.0258,0.01 0.0332,0.016 0.007,0.01 0.0223,0.029 0.0332,0.084 0.053,0.2693 -0.0145,0.3542 -0.084,0.5468 -0.0695,0.1927 -0.10012,0.4717 0.0996,0.8711 0.17704,0.3541 0.27075,0.6705 0.27734,0.9239 0.007,0.2533 -0.0627,0.4378 -0.21875,0.5859 -0.13438,0.1275 -0.51364,0.2655 -0.84765,0.3398 -0.30778,0.069 -0.53202,0.091 -0.57227,0.096 -10e-4,10e-5 -0.003,0 -0.004,0 -0.0179,0 -0.0172,0 -0.0312,0.01 -2.7e-4,0 -0.0137,0 -0.0137,0 -0.0201,0.01 -0.0527,0.014 -0.0527,0.014 l 0.082,0.3243 c -0.0182,-0.01 -0.0309,0 -0.0469,-0.024 -0.0311,-0.04 -0.0145,-0.057 -0.0234,-0.01 -0.009,0.049 -0.0385,0.1473 -0.10742,0.293 -0.15482,0.3266 -0.20375,0.5072 -0.19922,0.5019 0.002,0 0.018,0 -0.0469,0.01 -0.0649,0.01 -0.18644,0.01 -0.37109,0.01 h -0.74024 -0.0312 c 0,0 -0.0256,0 -0.0605,0 -0.035,0 -0.0613,-0.016 -0.0566,-0.012 0.005,0 -0.0105,0.018 0.0137,-0.07 0.0242,-0.089 0.10403,-0.2521 0.28125,-0.4883 0.76662,-1.0225 0.77861,-1.8497 0.65234,-2.6093 -0.055,-0.3307 0.005,-0.6622 0.13086,-0.877 0.12634,-0.2148 0.28177,-0.3138 0.51367,-0.2676 0.39678,0.079 0.78513,-0.1082 1.07813,-0.2011 0.1465,-0.047 0.2668,-0.067 0.3125,-0.059 z"
   id="Bardsey_Island__x2F__Ynys_Enlli" />
				<path
   style="fill:#66a8de;stroke-miterlimit:1"
   d="m 999.68164,1869.0996 c -0.52552,-0.024 -1.04297,0.023 -1.04297,0.023 h -0.0234 c 0,0 -1.66521,0.3683 -2.76562,0.5527 -0.61537,0.1026 -0.91631,0.498 -1.02344,0.8457 -0.10713,0.3477 -0.0527,0.6621 -0.0527,0.6621 l 0.0176,0.053 0.60546,1.211 h -1.17968 l 0.0684,0.014 c 0,0 -0.96887,-0.3896 -2.13477,-0.1953 -0.25366,0.042 -0.40781,0.017 -0.50781,-0.031 -0.1,-0.048 -0.16236,-0.1216 -0.22071,-0.2383 -0.11668,-0.2334 -0.1636,-0.6165 -0.38281,-0.9453 -0.11749,-0.1763 -0.31671,-0.2759 -0.49804,-0.2442 -0.18134,0.032 -0.32523,0.1425 -0.47461,0.2793 -0.29877,0.2738 -0.61751,0.6864 -0.97657,1.045 -0.74006,0.74 -0.90859,0.9119 -1.64453,1.4629 -0.31672,0.2375 -0.62395,0.2341 -0.91406,0.021 -0.29011,-0.2126 -0.55395,-0.6717 -0.64258,-1.3769 -0.0231,-0.1849 -0.0398,-0.3223 -0.0547,-0.4258 -0.0149,-0.1035 -0.0224,-0.1651 -0.0469,-0.2324 -0.006,-0.017 -0.0143,-0.034 -0.0312,-0.059 -0.008,-0.012 -0.0194,-0.028 -0.0371,-0.043 -0.009,-0.01 -0.0188,-0.014 -0.0312,-0.022 -0.0124,-0.01 -0.0422,-0.017 -0.043,-0.017 -7.7e-4,-3e-4 -0.048,-0.01 -0.0488,-0.01 -7.8e-4,0 -0.0341,4e-4 -0.0488,0 -0.0294,0.01 -0.0521,0.02 -0.0684,0.031 -0.0326,0.023 -0.0459,0.043 -0.0566,0.059 -0.0429,0.062 -0.0511,0.1004 -0.0742,0.1582 -0.0925,0.2311 -0.25709,0.6235 -0.63672,0.7753 -0.49212,0.1969 -0.77354,0.4729 -0.95117,0.8282 -0.17764,0.3552 -0.2691,0.7741 -0.45118,1.3203 -0.0828,0.2482 -0.18197,0.3468 -0.26562,0.3887 -0.0836,0.042 -0.17567,0.038 -0.28516,0 -0.21896,-0.073 -0.4375,-0.2773 -0.4375,-0.2773 l -0.13086,-0.055 c 0,0 -0.55165,-3e-4 -1.21875,-0.024 -0.66709,-0.023 -1.45421,-0.071 -1.88867,-0.1582 -0.26148,-0.052 -0.49436,-0.03 -0.67969,0.07 -0.18533,0.1004 -0.31007,0.2767 -0.36718,0.4766 -0.11424,0.3998 7.1e-4,0.9009 0.29687,1.3945 0.26537,0.4423 0.2979,0.6668 0.32031,0.9805 0.0224,0.3138 0.0247,0.7135 0.21485,1.3789 l 0.74023,2.5899 c 0.19076,0.6676 0.40379,0.9467 0.57813,1.1211 0.17433,0.1743 0.262,0.2042 0.3457,0.539 0.0308,0.1234 -1.2e-4,0.3065 -0.0937,0.5313 -0.0936,0.2247 -0.24429,0.485 -0.41602,0.7597 -0.34344,0.5495 -0.76814,1.1541 -0.96679,1.75 -0.3934,1.1802 -0.37891,3.3881 -0.37891,4.4981 0,0.2415 -0.0612,0.3474 -0.14453,0.416 -0.0834,0.068 -0.22056,0.1067 -0.39844,0.1172 -0.17788,0.01 -0.38738,-0.01 -0.59179,-0.016 -0.20442,-0.01 -0.4043,-0.015 -0.58985,0.047 -0.0972,0.032 -0.1866,0.091 -0.24414,0.1758 -0.0575,0.085 -0.0767,0.1861 -0.0703,0.2813 0.0127,0.1903 0.10504,0.375 0.24023,0.5839 0.27039,0.4179 0.73824,0.9277 1.29688,1.4864 0.26999,0.2702 0.41037,0.4563 0.47851,0.5781 0.0681,0.1218 0.0683,0.1679 0.0684,0.2168 3e-5,0.024 -0.003,0.052 0,0.1 0.003,0.047 0.018,0.115 0.0547,0.1699 0.0733,0.1098 0.17784,0.169 0.37109,0.2657 0.15743,0.079 0.23748,0.1617 0.29883,0.2753 0.0614,0.1137 0.10118,0.2672 0.13477,0.4688 0.0672,0.4031 0.11654,0.982 0.40234,1.7441 0.0694,0.185 0.12068,0.324 0.16211,0.4278 0.0414,0.1037 0.0666,0.1676 0.10938,0.2304 0.0214,0.032 0.0448,0.083 0.14257,0.1036 0.0489,0.01 0.1099,0 0.14649,-0.025 0.0366,-0.023 0.0557,-0.048 0.0684,-0.066 0.0507,-0.075 0.051,-0.1141 0.0684,-0.1719 0.0694,-0.2311 0.16855,-0.5976 0.64453,-0.7559 0.11799,-0.04 0.18991,-0.044 0.21875,-0.041 -7.2e-4,0.015 -0.0154,0.1753 -0.11914,0.3828 -0.21569,0.4316 -0.67579,1.0337 -1.0293,1.3867 -0.3591,0.3591 -0.61898,0.5318 -0.89648,0.7168 -0.2775,0.185 -0.57223,0.3809 -0.95313,0.7618 -0.34818,0.3477 -0.70597,0.525 -1.0918,0.8144 -0.38582,0.2894 -0.78304,0.6925 -1.16406,1.4551 -0.19465,0.3893 -0.25991,0.6906 -0.1914,0.9531 0.0685,0.2626 0.26092,0.4392 0.48046,0.5977 0.4391,0.317 1.04329,0.6125 1.57422,1.4082 0.28559,0.4287 0.51746,0.6706 0.7461,0.8008 0.22864,0.1301 0.45559,0.1259 0.6289,0.086 0.17332,-0.04 0.30461,-0.095 0.42774,-0.1016 0.12313,-0.01 0.24968,0.017 0.45508,0.1817 0.43196,0.3455 0.43945,0.5211 0.43945,0.8515 0,0.3305 -0.0457,0.8017 0.24609,1.4825 0.5525,1.2891 0.56807,1.505 1.13086,2.2578 0.58249,0.7752 1.69565,1.6975 2.62305,2.4394 0.21066,0.1683 0.29699,0.3072 0.33398,0.4356 0.037,0.1283 0.0247,0.2611 -0.008,0.4238 -0.065,0.3253 -0.22121,0.7614 -0.0117,1.2851 0.20712,0.5178 0.68298,1.0289 1.10742,1.4297 0.39767,0.3756 0.70852,0.6078 0.75196,0.6407 l 0.53125,1.7714 v 2.379 c 0,0.4748 0.0437,1.0955 0.26758,1.6425 0.22383,0.547 0.65651,1.0283 1.37109,1.1309 0.28896,0.042 0.36051,0.1187 0.39844,0.2012 0.0379,0.082 0.0333,0.2231 0.0215,0.3886 -0.0118,0.1656 -0.0345,0.3783 0.12109,0.5489 0.1556,0.1705 0.41017,0.2053 0.80274,0.1562 0.76116,-0.095 1.2097,-0.2923 1.60547,-0.4785 0.39576,-0.1862 0.73629,-0.3583 1.35937,-0.4473 0.13868,-0.02 0.21653,0 0.25391,0.018 0.0374,0.019 0.053,0.039 0.0703,0.098 0.0346,0.1183 0.01,0.3766 -0.0469,0.6601 -0.0567,0.2835 -0.13439,0.594 -0.15039,0.8789 -0.008,0.1425 -0.002,0.2796 0.043,0.4102 0.0449,0.1306 0.13877,0.2539 0.2754,0.3222 v 0 c 0.14081,0.07 0.22853,0.1781 0.32421,0.3613 0.0957,0.1833 0.18926,0.4331 0.33204,0.7305 0.28554,0.5949 0.77389,1.369 1.90625,2.2187 v 0 c 0.555,0.416 0.81966,0.6183 0.96875,0.707 0.0373,0.022 0.0587,0.041 0.12695,0.053 0.0171,0 0.0387,0 0.0684,0 0.0148,0 0.0479,-0.013 0.0488,-0.014 8.8e-4,-4e-4 0.0521,-0.035 0.0527,-0.035 6.7e-4,-6e-4 0.0386,-0.048 0.0391,-0.049 4.6e-4,-8e-4 0.0159,-0.032 0.0195,-0.047 0.007,-0.03 0.006,-0.053 0.004,-0.07 -0.007,-0.069 -0.023,-0.086 -0.0371,-0.1152 -0.0141,-0.029 -0.0295,-0.058 -0.0469,-0.09 -0.0694,-0.1271 -0.15805,-0.3031 -0.16993,-0.4277 -0.006,-0.062 0.002,-0.1046 0.0254,-0.1406 0.0231,-0.036 0.0694,-0.079 0.17969,-0.1152 0.30213,-0.1009 0.49785,-0.244 0.61524,-0.4239 0.11739,-0.1798 0.15356,-0.3706 0.19922,-0.5644 0.0913,-0.3876 0.20156,-0.8297 0.91406,-1.4532 0.37365,-0.3271 0.59937,-0.5511 0.74017,-0.7304 0.1408,-0.1793 0.2011,-0.334 0.2012,-0.4727 2e-4,-0.2774 -0.1352,-0.2957 0.033,-0.7168 0.1873,-0.4689 0.3209,-0.8665 0.5762,-1.207 0.2553,-0.3405 0.6345,-0.6413 1.3515,-0.9102 0.3629,-0.136 0.608,-0.1983 0.7481,-0.205 0.1401,-0.01 0.1516,0.01 0.1894,0.066 0.038,0.057 0.077,0.1948 0.1172,0.3925 0.04,0.1977 0.089,0.4516 0.1856,0.7422 0.3427,1.0281 -0.1695,1.8829 -0.545,2.6328 -0.065,0.1299 -0.2124,0.2479 -0.416,0.3418 -0.2036,0.094 -0.4565,0.1606 -0.7012,0.2051 -0.4893,0.089 -0.9375,0.09 -0.9375,0.09 l -0.1503,0.078 c 0,0 -0.92558,1.2953 -1.47851,2.0312 -0.16021,0.2136 -0.22479,0.4438 -0.20703,0.6641 0.0178,0.2203 0.10515,0.4251 0.21289,0.6406 0.21548,0.431 0.52365,0.9169 0.70115,1.627 0.099,0.397 0.2716,0.6813 0.5039,0.8691 0.2323,0.1878 0.5136,0.2715 0.8105,0.3086 0.5939,0.074 1.2774,-0.018 1.9883,0.07 0.7033,0.088 1.0628,0.332 1.3906,0.6817 0.3276,0.3494 0.6121,0.8193 1.0918,1.2988 0.5148,0.5148 1.2626,0.6568 1.9629,0.6328 0.7004,-0.024 1.3623,-0.2093 1.7656,-0.4102 v 0 c 0.1119,-0.056 0.2012,-0.1234 0.2579,-0.2188 0.057,-0.095 0.066,-0.209 0.049,-0.3027 -0.034,-0.1874 -0.1363,-0.3349 -0.2246,-0.5117 -0.1768,-0.3536 -0.3438,-0.7661 0,-1.4531 0.1805,-0.361 0.2705,-0.5387 0.3164,-0.6231 0.057,-0.018 0.099,-0.042 0.1387,-0.078 0.095,-0.087 0.2209,-0.2425 0.455,-0.5703 0.217,-0.3038 0.3808,-0.3936 0.4668,-0.4024 0.086,-0.01 0.1685,0.039 0.2774,0.1778 0.1089,0.1386 0.2164,0.3491 0.3164,0.5605 0.1,0.2114 0.1925,0.4216 0.3008,0.584 0.066,0.099 0.1627,0.1754 0.2714,0.209 0.1088,0.034 0.2209,0.029 0.3321,0.01 0.2224,-0.046 0.4571,-0.163 0.7285,-0.3164 0.5428,-0.3067 1.2274,-0.7647 2.043,-1.1269 1.7091,-0.7596 2.4864,-1.9202 3.0488,-3.0449 0.2536,-0.5072 0.7349,-0.9086 1.2832,-1.2969 0.5482,-0.3884 1.1583,-0.7618 1.6426,-1.2461 0.9075,-0.9076 1.7979,-1.4425 3.2636,-1.9922 1.4947,-0.5619 1.9156,-0.9663 2.4707,-1.5215 l 0.053,-0.164 c 0,0 -0.1817,-1.0128 -0.1817,-1.8184 0,-0.3754 0.1243,-0.6929 0.2618,-1.0137 0.1374,-0.3208 0.2929,-0.6451 0.2929,-1.0215 0,-0.5571 0.3445,-1.3193 0.3633,-1.3613 l 0.4785,-0.332 0.068,-0.084 c 0.041,-0.1052 0.09,-0.1909 0.1445,-0.2656 0.1841,-0.2443 0.442,-0.3538 0.7656,-0.4649 0.3247,-0.1114 0.7078,-0.2183 1.0625,-0.4843 0.3246,-0.2439 0.9132,-0.4329 1.5586,-0.6172 0.6454,-0.1844 1.3484,-0.3712 1.9297,-0.6621 0.606,-0.3033 0.825,-0.7857 1.0117,-1.252 0.1867,-0.4663 0.3537,-0.9281 0.8731,-1.3613 1.0991,-0.9159 2.0179,-1.4656 3.3183,-2.3945 0.6313,-0.4514 1.0214,-0.5791 1.4688,-0.7676 0.4474,-0.1885 0.9391,-0.4375 1.6914,-1.0957 0.7289,-0.6378 0.9082,-0.6467 1.1191,-0.7969 0.1055,-0.075 0.1922,-0.1816 0.2989,-0.3672 0.1066,-0.1856 0.2453,-0.4635 0.4765,-0.9258 0.4702,-0.9409 0.5323,-1.4125 0.4805,-1.7754 -0.052,-0.3628 -0.1799,-0.536 -0.094,-1.0527 0.086,-0.5139 0.2706,-0.6822 0.5683,-0.957 0.2977,-0.2749 0.6977,-0.6297 1.0801,-1.3946 0.3727,-0.745 0.5148,-1.1181 0.6894,-1.4238 0.1747,-0.3057 0.3901,-0.5673 0.9414,-1.1191 0.5473,-0.5477 0.8606,-0.769 1.1094,-1.0176 0.2488,-0.2487 0.4107,-0.5231 0.5996,-1.0899 0.096,-0.2892 0.1368,-0.5003 0.1368,-0.6699 -10e-5,-0.1696 -0.045,-0.3066 -0.1348,-0.3965 -0.1797,-0.1797 -0.4219,-0.092 -0.4219,-0.092 l 0.059,-0.01 h -2.4043 c -0.6739,0 -0.9883,0.1466 -1.2754,0.1875 -0.2871,0.041 -0.6047,0.01 -1.4238,-0.3574 -0.8523,-0.3783 -1.4921,-0.4767 -2.1797,-0.4766 -0.6876,10e-5 -1.4218,0.092 -2.5215,0.092 -1.1202,0 -1.6323,0.082 -1.9512,0.3711 -0.1594,0.1448 -0.2452,0.3257 -0.3261,0.5234 -0.081,0.1977 -0.1598,0.421 -0.293,0.6875 -0.2609,0.5219 -0.5156,0.6958 -0.9121,0.7793 -0.3965,0.083 -0.9496,0.043 -1.6973,0.043 -0.7708,0 -1.248,0.2068 -1.6621,0.5234 -0.4141,0.3167 -0.7724,0.7244 -1.4043,1.1758 -0.6285,0.4489 -1.2429,0.7085 -1.8711,0.752 -0.6281,0.043 -1.2794,-0.1261 -1.9941,-0.5723 -0.345,-0.2156 -0.4736,-0.4056 -0.5098,-0.5781 -0.036,-0.1726 0.019,-0.3643 0.1367,-0.5899 0.2363,-0.4511 0.7222,-0.9703 0.8282,-1.6054 0.098,-0.5863 -0.012,-0.9896 -0.2676,-1.3223 -0.2558,-0.3327 -0.6263,-0.6043 -1.0801,-1.0586 -0.432,-0.432 -0.5493,-0.8325 -0.5937,-1.3418 -0.044,-0.5093 7e-4,-1.1212 -0.094,-1.8809 -0.096,-0.7649 -0.3186,-1.0664 -0.5312,-1.3027 -0.2127,-0.2363 -0.4037,-0.4099 -0.5821,-1.123 -0.1837,-0.7348 -0.2289,-1.0499 -0.3008,-1.3614 -0.072,-0.3114 -0.17,-0.6064 -0.4492,-1.2578 -0.1387,-0.3237 -0.1987,-0.474 -0.2597,-0.5742 -0.015,-0.025 -0.029,-0.05 -0.068,-0.082 -0.02,-0.016 -0.05,-0.035 -0.094,-0.043 -0.044,-0.01 -0.099,0 -0.1329,0.023 -0.068,0.039 -0.077,0.076 -0.088,0.098 -0.011,0.022 -0.018,0.036 -0.023,0.051 -0.023,0.058 -0.039,0.088 -0.062,0.1015 -0.024,0.014 -0.094,0.038 -0.2969,-0.043 -0.4762,-0.1905 -0.7825,-0.2415 -1.0468,-0.2657 -0.2644,-0.024 -0.4751,-0.024 -0.8282,-0.1113 -0.3701,-0.093 -0.7204,-0.1879 -0.9297,-0.3398 -0.2092,-0.152 -0.3116,-0.3247 -0.2285,-0.7383 v 0 c 0.095,-0.4769 0.1121,-0.8163 -0.08,-1.0722 -0.1921,-0.256 -0.5185,-0.3451 -0.9903,-0.4395 -0.5029,-0.1011 -0.9057,0.1324 -1.1679,0.2754 0,-0.012 0,-0.013 0.01,-0.025 v 0 c 0.3521,-0.8788 1.125,-1.6639 1.125,-3.0293 0,-0.6128 0.169,-0.9887 0.3086,-1.3144 0.07,-0.1629 0.1361,-0.3135 0.1582,-0.4825 0.022,-0.1689 -0.015,-0.3548 -0.1289,-0.5253 -0.1614,-0.242 -0.3997,-0.8025 -0.6543,-1.4043 -0.2547,-0.6019 -0.5317,-1.2533 -0.8204,-1.7344 -0.2719,-0.4532 -0.4065,-0.7659 -0.5488,-1.0508 -0.1422,-0.2849 -0.2964,-0.5434 -0.5879,-0.8359 -0.1751,-0.1751 -0.4038,-0.2393 -0.623,-0.2325 -0.2192,0.01 -0.4384,0.071 -0.6719,0.1407 -0.467,0.1402 -0.9878,0.3116 -1.5859,0.2265 -1.2781,-0.1835 -2.5959,-0.5615 -4.1192,-0.3711 -0.7456,0.093 -1.2089,0.185 -1.6054,0.2071 -0.3966,0.022 -0.7312,-0.019 -1.2715,-0.1992 -0.4995,-0.1665 -0.6795,-0.473 -0.7598,-0.754 -0.08,-0.2809 -0.043,-0.5195 -0.043,-0.5195 l -0.1308,-0.207 c 0,0 -1.2985,-0.3718 -2.4238,-0.5606 -0.6044,-0.1007 -0.959,0.1153 -1.2422,0.2461 -0.2832,0.1308 -0.5079,0.2136 -1.1211,-0.049 -0.053,-0.023 -0.041,-0.02 -0.086,-0.039 0.035,-0.022 0.072,-0.032 0.1016,-0.066 0.061,-0.072 0.098,-0.1739 0.098,-0.2793 0,-0.1259 -0.068,-0.2432 -0.1524,-0.3164 -0.085,-0.073 -0.185,-0.1174 -0.2949,-0.1523 -0.2199,-0.07 -0.48525,-0.098 -0.74801,-0.1094 z m -0.0156,0.3692 c 0.24599,0.011 0.48866,0.04 0.65036,0.092 0.081,0.026 0.1396,0.059 0.166,0.082 0.027,0.023 0.024,0.022 0.024,0.035 0,0.034 0,0.035 -0.01,0.041 0,0.01 -0.018,0.017 -0.047,0.027 -0.058,0.02 -0.1632,0.023 -0.2441,0.023 -0.02,0 -0.038,0 -0.059,0 -0.02,8e-4 -0.035,0 -0.084,0.014 -0.012,0 -0.048,0.023 -0.049,0.023 -5e-4,3e-4 -0.0309,0.027 -0.0313,0.027 -3.6e-4,4e-4 -0.033,0.046 -0.0332,0.047 -2.1e-4,4e-4 -0.0175,0.06 -0.0176,0.061 -5e-5,4e-4 0.002,0.06 0.002,0.06 1.1e-4,5e-4 0.0154,0.042 0.0156,0.043 2.7e-4,5e-4 0.012,0.022 0.0176,0.029 0.0444,0.062 0.0631,0.061 0.0859,0.074 0.091,0.052 0.2407,0.1129 0.5645,0.2519 v 0 c 0.6818,0.2917 1.1039,0.1919 1.4219,0.045 0.3175,-0.1467 0.5198,-0.302 1.0235,-0.2188 1.0389,0.1743 2.1503,0.4923 2.2675,0.5254 -0.01,0.1097 -0.04,0.2315 0.037,0.5 0.1047,0.366 0.3876,0.8004 0.9981,1.0039 0.5696,0.1899 0.9742,0.241 1.4101,0.2168 0.436,-0.024 0.8966,-0.1172 1.6309,-0.209 1.4368,-0.1796 2.7076,0.1807 4.0195,0.3692 v 0 c 0.6959,0.099 1.2839,-0.1008 1.7422,-0.2383 0.2291,-0.069 0.4272,-0.1203 0.5781,-0.125 0.1509,0 0.2472,0.023 0.3496,0.125 0.2625,0.2634 0.3846,0.4699 0.5195,0.7402 0.135,0.2704 0.2775,0.6044 0.5606,1.0762 0.2663,0.4438 0.5447,1.0868 0.7988,1.6875 0.2541,0.6007 0.4788,1.1518 0.6875,1.4648 v 0 c 0.072,0.1075 0.083,0.1744 0.07,0.2715 -0.013,0.097 -0.062,0.2239 -0.1309,0.3848 -0.1379,0.3218 -0.3398,0.7777 -0.3398,1.4609 0,1.2246 -0.7058,1.9194 -1.0957,2.8926 -0.048,0.1196 -0.08,0.2076 -0.098,0.2852 -0.01,0.039 -0.016,0.074 -0.014,0.1191 0,0.045 0.017,0.1122 0.074,0.1641 0.057,0.052 0.1313,0.061 0.1757,0.057 0.044,0 0.074,-0.015 0.1036,-0.027 0.059,-0.024 0.1157,-0.055 0.1796,-0.09 0.2557,-0.1396 0.6245,-0.3349 1.0079,-0.2578 0.4532,0.091 0.6821,0.185 0.7675,0.2988 0.085,0.1138 0.1015,0.3283 0.012,0.7774 -0.1029,0.5113 0.073,0.8935 0.373,1.1113 0.2998,0.2178 0.6888,0.3074 1.0586,0.4004 0.388,0.096 0.6406,0.097 0.8848,0.1191 0.2441,0.022 0.4926,0.063 0.9414,0.2422 0.2598,0.104 0.4676,0.1062 0.6172,0.022 0.041,-0.023 0.033,-0.049 0.061,-0.078 0.04,0.087 0.061,0.1274 0.1465,0.3281 0.2758,0.6436 0.3628,0.9055 0.4297,1.1953 0.067,0.2898 0.1144,0.6219 0.3008,1.3672 0.1916,0.7659 0.4624,1.0551 0.666,1.2813 0.2035,0.2261 0.3501,0.3855 0.4394,1.0996 0.09,0.7203 0.043,1.3127 0.092,1.8672 0.048,0.5544 0.2082,1.0792 0.7012,1.5722 0.4712,0.4717 0.8421,0.7547 1.0488,1.0235 0.2067,0.2687 0.2826,0.5113 0.1953,1.0351 -0.079,0.4739 -0.5185,0.9738 -0.791,1.4942 -0.1362,0.2601 -0.232,0.542 -0.1699,0.8378 0.062,0.2959 0.2808,0.5696 0.6758,0.8164 0.7652,0.4778 1.5017,0.6763 2.2148,0.627 0.7131,-0.049 1.3941,-0.3443 2.0606,-0.8203 0.6631,-0.4737 1.0419,-0.8971 1.414,-1.1817 0.3722,-0.2845 0.7284,-0.4492 1.4375,-0.4492 0.7323,0 1.2912,0.053 1.7735,-0.049 0.4822,-0.1015 0.8739,-0.3904 1.1679,-0.9785 0.1443,-0.2885 0.2276,-0.5273 0.3028,-0.711 0.075,-0.1836 0.1394,-0.3044 0.2343,-0.3906 0.1899,-0.1724 0.6015,-0.2754 1.7012,-0.2754 1.1203,0 1.8679,-0.092 2.5215,-0.092 0.6536,-10e-5 1.2165,0.085 2.0293,0.4453 0.8458,0.3765 1.2665,0.4362 1.627,0.3848 0.3604,-0.051 0.6015,-0.1816 1.2226,-0.1816 h 2.4043 l 0.059,-0.01 c 0,0 0.038,0 0.043,0 0,0 0.027,0.027 0.027,0.1347 0,0.1079 -0.031,0.2889 -0.1191,0.5547 -0.1811,0.5433 -0.2958,0.7315 -0.5098,0.9453 -0.214,0.2139 -0.5476,0.4553 -1.1094,1.0176 -0.5586,0.5591 -0.8066,0.8535 -1.0019,1.1953 -0.1954,0.3419 -0.332,0.7074 -0.6992,1.4414 -0.3576,0.7152 -0.6965,1.0089 -1,1.2891 -0.3036,0.2802 -0.5823,0.5719 -0.6817,1.168 -0.099,0.5923 0.051,0.8813 0.092,1.166 0.041,0.2846 0.011,0.6466 -0.4433,1.5566 -0.2313,0.4622 -0.371,0.7395 -0.4668,0.9063 -0.096,0.1668 -0.1367,0.2115 -0.1934,0.2519 -0.1134,0.081 -0.3973,0.1631 -1.1484,0.8203 -0.7277,0.6367 -1.1605,0.8515 -1.5918,1.0332 -0.4314,0.1818 -0.8753,0.332 -1.5391,0.8067 -1.2895,0.9211 -2.2189,1.478 -3.3398,2.4121 -0.5907,0.4927 -0.795,1.0494 -0.9786,1.5078 -0.1835,0.4584 -0.3328,0.8068 -0.8359,1.0586 -0.5297,0.2651 -1.2154,0.4491 -1.8652,0.6348 -0.6499,0.1856 -1.2643,0.3675 -1.6797,0.6796 -0.2893,0.217 -0.6209,0.3117 -0.959,0.4278 -0.3381,0.116 -0.6906,0.2585 -0.9434,0.5957 v 0 c -0.06,0.082 -0.1112,0.1819 -0.1582,0.2871 l -0.4961,0.3438 -0.062,0.074 c 0,0 -0.4102,0.8349 -0.4102,1.5566 0,0.2706 -0.1217,0.5483 -0.2617,0.875 -0.14,0.3267 -0.293,0.7026 -0.293,1.1602 0,0.8034 0.1541,1.638 0.1758,1.7598 -0.5281,0.528 -0.8522,0.8634 -2.2754,1.3984 -1.4942,0.5603 -2.454,1.1337 -3.3965,2.0762 -0.4406,0.4407 -1.032,0.8091 -1.5937,1.207 -0.5617,0.3979 -1.099,0.8288 -1.4004,1.4317 -0.5476,1.0952 -1.2483,2.1526 -2.8691,2.873 -0.8505,0.3777 -1.555,0.848 -2.0762,1.1426 -0.2606,0.1472 -0.4773,0.2481 -0.6191,0.2773 -0.071,0.015 -0.1192,0.011 -0.1485,0 -0.029,-0.01 -0.048,-0.021 -0.074,-0.061 -0.077,-0.115 -0.1691,-0.3206 -0.2715,-0.5371 -0.1024,-0.2164 -0.2159,-0.4457 -0.3613,-0.6308 -0.1455,-0.1852 -0.3504,-0.3443 -0.6055,-0.3184 -0.2551,0.026 -0.4849,0.2129 -0.7305,0.5566 -0.2215,0.3102 -0.3418,0.4459 -0.3945,0.4961 0,-2e-4 -0.01,0 -0.01,0 -8e-4,10e-5 -0.04,0.01 -0.057,0.012 -0.033,0.012 -0.051,0.028 -0.064,0.041 -0.054,0.05 -0.057,0.072 -0.084,0.1211 -0.054,0.098 -0.1451,0.2804 -0.3301,0.6504 -0.3962,0.7919 -0.1933,1.3965 0,1.7832 0.097,0.1933 0.1792,0.3469 0.1914,0.414 0.01,0.034 0,0.035 0,0.047 -0.01,0.012 -0.032,0.042 -0.1055,0.078 -0.3376,0.1681 -0.9706,0.3511 -1.6113,0.3731 -0.6407,0.022 -1.2793,-0.1133 -1.6895,-0.5235 v 0 c -0.4455,-0.4451 -0.7183,-0.899 -1.0839,-1.2891 -0.3657,-0.39 -0.8386,-0.6993 -1.6153,-0.7969 -0.7691,-0.096 -1.4722,-0.01 -1.9883,-0.07 -0.258,-0.032 -0.4622,-0.099 -0.623,-0.2285 -0.1608,-0.13 -0.2913,-0.3294 -0.377,-0.6719 -0.1924,-0.7699 -0.52963,-1.3016 -0.7304,-1.7031 -0.10039,-0.2008 -0.16269,-0.3657 -0.17383,-0.5039 -0.0111,-0.1382 0.0155,-0.2557 0.13281,-0.4121 0.54022,-0.719 1.37472,-1.8883 1.43362,-1.9707 0.081,-8e-4 0.4285,5e-4 0.9043,-0.086 0.264,-0.048 0.5436,-0.1203 0.791,-0.2344 0.2473,-0.1142 0.4697,-0.2716 0.5898,-0.5117 0.3645,-0.7281 0.9618,-1.7242 0.5645,-2.9161 -0.088,-0.2643 -0.1311,-0.496 -0.1719,-0.6972 -0.041,-0.2012 -0.071,-0.3759 -0.1719,-0.5274 -0.1009,-0.1514 -0.2973,-0.239 -0.5156,-0.2285 -0.2184,0.011 -0.4823,0.087 -0.8594,0.2285 -0.7629,0.2861 -1.2179,0.6335 -1.5176,1.0332 -0.2997,0.3998 -0.4423,0.8359 -0.625,1.293 -0.20151,0.5039 -0.06,0.7609 -0.061,0.8535 0,0.046 -0.01,0.1 -0.12108,0.2442 -0.11346,0.1444 -0.32751,0.3613 -0.69336,0.6816 -0.7675,0.6716 -0.93537,1.2459 -1.0293,1.6445 -0.047,0.1994 -0.0809,0.3439 -0.14844,0.4473 -0.0675,0.1034 -0.17145,0.1912 -0.42383,0.2754 -0.16725,0.056 -0.29642,0.1482 -0.37304,0.2676 -0.0766,0.1193 -0.0934,0.2552 -0.082,0.375 0.006,0.065 0.0392,0.096 0.0566,0.1543 -0.15668,-0.1138 -0.22114,-0.1572 -0.54297,-0.3985 -1.08765,-0.8162 -1.52351,-1.5226 -1.79297,-2.084 -0.13473,-0.2806 -0.22545,-0.5268 -0.33789,-0.7421 -0.11245,-0.2154 -0.25715,-0.4073 -0.48633,-0.5215 -0.0484,-0.024 -0.0709,-0.05 -0.0918,-0.1114 -0.0209,-0.061 -0.0299,-0.1566 -0.0234,-0.2714 0.0129,-0.2297 0.0856,-0.5316 0.14453,-0.8262 0.0589,-0.2947 0.11432,-0.5785 0.0391,-0.836 -0.0376,-0.1287 -0.12341,-0.256 -0.25586,-0.3242 -0.13245,-0.068 -0.29149,-0.079 -0.47656,-0.053 -0.67191,0.096 -1.07411,0.2927 -1.46485,0.4766 -0.39073,0.1838 -0.77434,0.3574 -1.49218,0.4472 -0.34743,0.043 -0.46076,-0.013 -0.48438,-0.039 -0.0236,-0.026 -0.0367,-0.1154 -0.0254,-0.2735 0.0113,-0.158 0.0404,-0.3636 -0.0547,-0.5703 -0.095,-0.2067 -0.3231,-0.3606 -0.68164,-0.4121 -0.58042,-0.083 -0.88766,-0.4341 -1.08007,-0.9043 -0.19242,-0.4702 -0.24024,-1.0518 -0.24024,-1.5019 v -2.4043 l -0.008,-0.055 -0.55664,-1.8496 -0.0645,-0.094 c 0,0 -0.36342,-0.2728 -0.77148,-0.6582 -0.40806,-0.3854 -0.85664,-0.8916 -1.01953,-1.2988 -0.16051,-0.4013 -0.0405,-0.7056 0.0332,-1.0742 0.0369,-0.1844 0.0613,-0.387 0,-0.5997 -0.0613,-0.2126 -0.20715,-0.4199 -0.45898,-0.621 -0.9226,-0.7381 -2.02713,-1.6684 -2.55664,-2.3731 -0.54401,-0.7279 -0.53079,-0.8817 -1.08789,-2.1816 -0.26326,-0.6143 -0.21485,-0.9727 -0.21485,-1.336 0,-0.3633 -0.087,-0.7462 -0.58008,-1.1406 -0.2571,-0.2057 -0.49852,-0.2726 -0.70507,-0.2617 -0.20656,0.011 -0.36476,0.082 -0.49219,0.1113 -0.12743,0.029 -0.21428,0.037 -0.36133,-0.047 -0.14705,-0.084 -0.35218,-0.2818 -0.62109,-0.6855 h -0.002 c -0.58006,-0.8693 -1.2704,-1.2197 -1.66406,-1.5039 -0.19683,-0.1421 -0.30426,-0.2543 -0.33984,-0.3906 -0.0356,-0.1364 -0.009,-0.3447 0.16601,-0.6954 0.35898,-0.7184 0.70052,-1.0566 1.05469,-1.3222 0.35417,-0.2656 0.73904,-0.4583 1.13086,-0.8496 0.3591,-0.3591 0.61899,-0.5318 0.89648,-0.7168 0.2775,-0.185 0.57223,-0.3808 0.95313,-0.7617 0.38649,-0.386 0.8511,-0.9891 1.09766,-1.4825 0.12327,-0.2467 0.22272,-0.4583 0.14257,-0.6875 -0.0401,-0.1145 -0.16373,-0.2094 -0.28711,-0.2285 -0.12337,-0.019 -0.24836,0.01 -0.40234,0.057 -0.48296,0.1605 -0.66598,0.4921 -0.77344,0.7578 -0.0318,-0.083 -0.0597,-0.1552 -0.10547,-0.2774 -0.26919,-0.7178 -0.31124,-1.2483 -0.38281,-1.6777 -0.0358,-0.2147 -0.0791,-0.4066 -0.17383,-0.582 -0.0947,-0.1755 -0.2464,-0.3254 -0.45898,-0.4317 -0.17209,-0.086 -0.22322,-0.1371 -0.22266,-0.1347 2.1e-4,-0.011 0.002,-0.03 0.002,-0.068 -8e-5,-0.09 -0.0236,-0.2311 -0.11719,-0.3984 -0.0936,-0.1674 -0.25455,-0.3735 -0.53906,-0.6582 -0.55137,-0.5514 -1.00969,-1.0575 -1.24805,-1.4258 -0.11918,-0.1842 -0.17699,-0.3365 -0.18164,-0.4063 -0.002,-0.035 0.004,-0.045 0.008,-0.051 0.004,-0.01 0.0131,-0.017 0.0547,-0.031 0.0919,-0.031 0.26254,-0.036 0.45703,-0.027 0.19449,0.01 0.41366,0.026 0.62891,0.014 0.21524,-0.013 0.43454,-0.056 0.61132,-0.2011 0.17679,-0.1454 0.2793,-0.3877 0.2793,-0.7012 0,-1.11 0.0147,-3.3411 0.36133,-4.3809 0.17135,-0.514 0.57939,-1.1114 0.92969,-1.6719 0.17515,-0.2802 0.33465,-0.5516 0.44336,-0.8125 0.10871,-0.2609 0.17102,-0.517 0.10937,-0.7636 -0.1013,-0.4052 -0.29199,-0.5615 -0.4414,-0.711 -0.14942,-0.1494 -0.30513,-0.3335 -0.48438,-0.9609 l -0.74023,-2.5898 c -0.17989,-0.6296 -0.17734,-0.969 -0.20118,-1.3028 -0.0238,-0.3337 -0.0834,-0.6637 -0.37304,-1.1465 -0.25884,-0.4314 -0.32858,-0.8539 -0.25782,-1.1015 0.0354,-0.1239 0.0953,-0.204 0.1875,-0.2539 0.0922,-0.05 0.22868,-0.073 0.42969,-0.033 0.49054,0.099 1.27506,0.1446 1.94922,0.1679 0.64959,0.023 1.14889,0.023 1.1875,0.023 0.0589,0.057 0.2098,0.2173 0.49609,0.3125 0.16802,0.056 0.37452,0.076 0.56836,-0.021 0.19385,-0.097 0.34893,-0.2968 0.45118,-0.6035 0.18792,-0.5638 0.28357,-0.9793 0.42968,-1.2715 0.14612,-0.2922 0.32688,-0.4773 0.75977,-0.6504 0.41633,-0.1665 0.52153,-0.4911 0.64258,-0.75 0.01,0.074 0.0166,0.129 0.0293,0.2305 0.0974,0.7748 0.38713,1.3328 0.79102,1.6289 0.40331,0.2956 0.93055,0.2926 1.35352,-0.023 0.74406,-0.557 0.9456,-0.7581 1.68554,-1.498 0.38095,-0.3804 0.70861,-0.7985 0.96485,-1.0332 0.12811,-0.1174 0.23914,-0.1807 0.28906,-0.1895 0.0499,-0.01 0.0595,-0.015 0.12695,0.086 0.1508,0.2262 0.19661,0.5826 0.35742,0.9043 0.0804,0.1608 0.20352,0.3174 0.39258,0.4082 0.18907,0.091 0.42718,0.1127 0.72852,0.062 1.0541,-0.1757 1.93554,0.1738 1.93554,0.1738 l 0.0703,0.014 h 1.47851 l 0.16602,-0.2676 -0.72071,-1.4414 c -0.002,-0.013 -0.0369,-0.2321 0.0391,-0.4785 0.0781,-0.2536 0.23879,-0.5075 0.73242,-0.5899 1.11174,-0.1863 2.74058,-0.5476 2.76367,-0.5527 0.004,-4e-4 0.50018,-0.045 0.99024,-0.023 z m 10.16596,64.1835 c 0,0 0.02,0.015 0.033,0.025 -0.01,-0.01 -0.018,-0.012 -0.023,-0.016 -0.01,-0.01 -0.011,-0.011 -0.01,-0.01 z"
   id="Anglesey__x2F__Ynys_Mon" />
			</g><rect
   style="fill:none;stroke:#000000;stroke-width:0.29998;stroke-linejoin:bevel;stroke-dasharray:none;paint-order:stroke fill markers"
   id="rect2"
   height="4390.293"
   x="0.19998971"
   y="0.19998971"
   ry="0.69917101"
   width="4353.8188" /></svg>
