<?xml version="1.0" encoding="UTF-8" standalone="no"?>
<!-- Generator: Adobe Illustrator 22.1.0, SVG Export Plug-In . SVG Version: 6.00 Build 0)  -->

<svg
   version="1.1"
   x="0px"
   y="0px"
   viewBox="0 0 4354.1187 4390.5933"
   enable-background="new 0 0 1995.865 2834.646"
   xml:space="preserve"
   id="svg1596"
   width="4354.1187"
   height="4390.5933"
   xmlns="http://www.w3.org/2000/svg"
   xmlns:svg="http://www.w3.org/2000/svg"><defs
   id="defs1596" />


<g
   id="Isle_of_Man_and_Channel_Islands_fill"
   transform="translate(1093.6405,660.66109)">
				<path
   fill="#fdfcf7"
   d="m 1262.462,2726.872 c 0.371,0.097 0.792,0.559 0.627,0.836 -0.164,0.277 -0.164,0.833 -0.627,0.37 -0.462,-0.463 0,-1.206 0,-1.206 z"
   id="path1" />
				<path
   fill="#fdfcf7"
   d="m 1271.435,2733.535 c 0.093,-0.369 0.463,-0.832 0.74,-0.646 0.277,0.185 0.849,0.277 0.609,0.646 -0.239,0.371 -1.072,0.396 -1.349,0.521 -0.277,0.128 0,-0.521 0,-0.521 z"
   id="path2" />
				<path
   id="St_Anne_1_"
   fill="#fdfcf7"
   d="m 1293.358,2676.833 c 0,0 -0.185,-1.665 1.11,-2.59 1.295,-0.925 2.22,-1.851 2.96,-2.035 0.739,-0.185 0.739,-0.185 1.479,0 0.74,0.185 0.185,-0.739 1.665,-0.925 1.48,-0.186 3.33,0 3.33,0 0,0 -0.74,1.295 -1.479,1.665 -0.74,0.37 0,0.103 -0.926,1.069 -0.925,0.965 -1.674,3.186 -2.871,2.815 -1.198,-0.369 -4.158,1.296 -5.268,0 z" />
				<path
   id="Sark_1_"
   fill="#fdfcf7"
   d="m 1276.43,2735.756 c 0,0 -0.462,1.018 -0.462,1.479 0,0.463 0.185,1.11 -0.648,1.296 -0.832,0.184 -1.295,0 -1.85,-0.556 -0.555,-0.556 -1.018,-1.013 -0.37,-1.339 0.648,-0.326 1.534,0.137 1.507,-0.512 -0.026,-0.646 0.397,-0.646 0,-1.109 -0.396,-0.463 -1.229,-0.74 -1.044,-1.295 0.185,-0.555 0.979,-0.093 1.044,-0.832 0.066,-0.74 -0.527,-0.463 0,-1.48 0.528,-1.018 0.621,-2.127 0.991,-1.85 0.37,0.277 1.11,0.277 1.85,1.018 0.74,0.739 0.556,1.201 1.018,1.664 0.463,0.463 -0.185,1.321 0,1.816 0.185,0.496 -0.093,1.145 -0.74,1.422 -0.647,0.277 -0.941,-0.652 -1.296,0.278 z" />
				<path
   id="Jersey_1_"
   fill="#fdfcf7"
   d="m 1291.6,2784.873 c 0,0 1.203,-0.74 1.665,-0.925 0.463,-0.185 1.203,-0.925 1.388,-1.851 0.185,-0.925 0,-2.59 0,-3.33 0,-0.74 0.185,-2.035 -0.37,-2.682 -0.555,-0.648 -0.38,-1.11 -1.115,-1.666 -0.734,-0.555 -0.734,-0.185 -1.567,-1.201 -0.832,-1.018 -1.202,-2.312 -1.017,-2.961 0.184,-0.647 0.739,-1.109 1.572,-1.109 0.832,0 1.552,-0.277 2.58,0 1.027,0.277 2.137,1.387 2.6,1.664 0.463,0.277 1.758,0.556 2.96,0.463 1.202,-0.092 1.851,-0.74 2.128,-1.295 0.277,-0.555 0.832,-0.986 1.942,-0.955 1.109,0.03 1.388,0.77 1.942,0.955 0.554,0.185 1.018,0.093 1.665,0.277 0.647,0.186 1.018,0.926 1.85,0.832 0.833,-0.092 1.018,-0.369 1.573,-0.646 0.555,-0.277 1.017,-0.926 1.85,-0.186 0.832,0.74 1.295,1.572 1.295,2.128 0,0.555 0.092,1.202 0.647,1.295 0.555,0.093 1.479,0.185 1.757,-0.278 0.278,-0.462 0.833,-1.387 1.758,-1.017 0.926,0.37 0.555,0.739 1.48,1.11 0.925,0.369 1.109,0.739 1.758,1.109 0.646,0.37 1.018,0.832 0.925,1.758 -0.093,0.925 -0.463,0.832 -0.556,1.48 -0.092,0.646 0.584,0.832 0.569,1.85 -0.014,1.018 -0.106,1.295 -0.477,1.758 -0.37,0.462 -0.555,0.832 -0.74,1.572 -0.185,0.74 -0.555,0.925 -0.185,2.404 0.37,1.48 0.092,1.572 0,2.405 -0.093,0.833 -0.832,1.295 -1.388,0.833 -0.555,-0.463 -1.018,-1.203 -1.665,-1.203 -0.647,0 -0.74,0.555 -2.035,0.74 -1.295,0.185 -1.758,0.186 -2.404,-0.647 -0.648,-0.833 0.555,-1.295 -1.203,-1.11 -1.758,0.186 -1.665,-0.832 -2.497,-1.85 -0.833,-1.018 -1.295,-1.943 -2.591,-2.127 -1.295,-0.186 -1.85,-0.74 -2.774,-0.463 -0.924,0.277 -1.942,0.369 -2.035,1.202 -0.093,0.833 -0.185,1.479 0,2.405 0.185,0.925 0.833,1.664 0.37,2.22 -0.463,0.556 -0.463,0.556 -1.202,0.277 -0.74,-0.277 -1.203,0.278 -1.758,-0.277 -0.555,-0.555 -0.093,-0.925 -0.277,-1.757 -0.184,-0.833 0,-1.48 -0.833,-1.48 -0.832,0 -0.647,0.369 -1.109,1.018 -0.463,0.647 -0.833,0.832 -2.035,0.832 -1.203,0 -2.128,-0.092 -2.96,-0.463 -0.833,-0.368 -2.371,-0.583 -1.481,-1.108 z" />
				<path
   id="Herm_1_"
   fill="#fdfcf7"
   d="m 1263.295,2722.898 c 0.462,-0.277 1.295,-0.277 1.388,0 0.092,0.277 -0.74,0.74 0,1.202 0.74,0.462 0.74,1.572 0.463,2.035 -0.278,0.462 -0.293,1.288 -0.84,0.736 -0.549,-0.552 -0.549,-1.505 -1.011,-1.999 -0.462,-0.494 0,-1.974 0,-1.974 z" />
				<path
   id="Guernsey_1_"
   fill="#fdfcf7"
   d="m 1237.858,2734.923 c -0.573,0.12 -1.11,0.37 -2.405,0 -1.295,-0.37 -1.85,-1.479 -1.665,-2.034 0.186,-0.556 1.48,1.109 2.591,0 1.109,-1.111 2.404,-2.221 1.479,-3.33 -0.925,-1.11 -0.108,-1.666 0.315,-2.035 0.425,-0.371 1.164,-0.926 2.459,-1.11 1.296,-0.185 2.591,1.665 2.405,0 -0.185,-1.665 -0.185,-1.665 -0.185,-1.665 0,0 1.665,0.186 2.035,-0.925 0.369,-1.11 1.109,-2.591 1.109,-2.591 0,0 0.74,-0.924 1.48,-1.109 0.74,-0.186 1.665,0.74 2.22,0 0.556,-0.74 1.295,-0.05 1.665,-0.025 0.37,0.025 1.11,-1.455 0,-2.01 -1.109,-0.555 1.665,-0.925 1.665,-0.925 0,0 0.093,1.572 0.463,1.388 0.37,-0.186 0.832,-1.758 1.202,-1.388 0.37,0.37 1.11,0.277 1.665,0.37 0.555,0.092 1.11,0.74 1.11,1.295 0,0.555 0.648,1.85 0,2.127 -0.648,0.277 -0.556,1.295 -1.017,1.851 -0.463,0.555 -0.555,1.11 -1.203,1.295 -0.647,0.185 -0.925,0.185 -1.664,1.018 -0.74,0.833 -0.278,1.388 -0.371,2.312 -0.092,0.925 0,2.96 -0.092,3.607 -0.093,0.647 -0.093,1.388 -0.093,2.035 0,0.647 0.556,1.074 0.463,2.063 -0.093,0.988 -0.463,1.637 -1.018,1.451 -0.556,-0.186 -0.556,-1.109 -1.018,-1.295 -0.463,-0.186 -0.277,-0.277 -1.48,0.647 -1.202,0.925 -1.665,0.556 -2.312,0.093 -0.647,-0.463 -1.319,-0.832 -1.908,-0.186 -0.589,0.648 -0.682,0.618 -2.717,0.771 -2.034,0.154 -3.329,-0.771 -3.607,-0.956 -0.276,-0.183 -0.558,-0.951 -1.571,-0.739 z" />
				<path
   id="Calf_of_Man_1_"
   fill="#fdfcf7"
   d="m 945.743,1729.818 c 0,0 0.925,1.479 1.295,0 0.37,-1.48 2.22,-1.827 1.665,-2.394 -0.555,-0.567 -0.637,-0.937 -1.428,-1.122 -0.792,-0.185 -0.421,-1.109 -1.532,0 -1.11,1.11 -2.035,1.416 -1.479,1.818 0.554,0.403 0.184,1.698 1.479,1.698 z" />
				<path
   id="Isle_of_Man_2_"
   fill="#fdfcf7"
   d="m 948.703,1725.378 c 0,0 0.925,-0.74 1.11,-1.479 0.185,-0.74 0.37,-1.11 1.11,-1.666 0.74,-0.555 0.74,-1.295 1.48,-1.664 0.74,-0.37 1.295,-2.035 0,-1.851 -1.295,0.186 -2.368,0.186 -1.461,-1.11 0,0 0.721,-0.924 1.461,-1.479 0.74,-0.555 1.85,-0.74 2.405,-1.295 0.555,-0.555 0.37,-1.11 0.925,-2.035 0.555,-0.925 1.11,-1.11 0.925,-2.405 -0.185,-1.295 -0.482,-1.479 0.036,-2.22 0.519,-0.739 -0.518,-1.479 0,-2.035 0.519,-0.555 0.706,-1.109 0.15,-2.22 -0.557,-1.109 -0.741,-0.925 -0.557,-2.22 0.185,-1.295 0.925,-2.035 1.665,-2.775 0.74,-0.739 0.925,-4.44 0.925,-4.44 0,0 -0.555,-0.555 0,-1.664 0.556,-1.11 0.37,-1.665 0.926,-2.59 0.555,-0.926 1.665,-2.775 1.665,-2.775 0,0 0.369,-0.37 1.109,0 0.74,0.37 1.481,-0.37 2.775,-0.925 1.295,-0.556 1.85,-2.22 2.405,-2.591 0.555,-0.369 5.55,-5.364 6.66,-7.215 1.11,-1.85 2.035,-4.81 2.775,-6.845 0.74,-2.035 2.22,-4.995 2.96,-6.104 0.74,-1.11 0.555,-1.295 0.925,-3.7 0.37,-2.405 0.925,-3.7 3.516,-5.735 2.59,-2.035 5.55,-4.625 7.215,-5.55 1.665,-0.925 3.515,-1.479 4.995,-1.665 1.479,-0.186 3.33,-1.48 5.18,-2.035 1.85,-0.555 4.07,-2.22 4.625,-1.48 0.555,0.74 -0.37,6.476 0,7.03 0.37,0.556 -1.665,5.365 -2.035,7.585 -0.37,2.221 0.37,8.141 1.11,8.881 0.74,0.739 1.479,1.295 4.07,2.034 2.59,0.74 5.18,0.74 4.624,1.665 -0.555,0.926 -0.555,0.926 -1.479,2.221 -0.924,1.295 0.185,1.664 -0.925,2.959 -1.11,1.296 -0.74,1.296 -1.851,2.961 -1.109,1.664 -2.59,1.664 -2.96,3.699 -0.37,2.035 0.185,1.851 -1.295,3.7 -1.479,1.851 -1.665,0.37 -2.405,1.851 -0.74,1.479 -2.22,1.664 -1.295,3.145 0.926,1.48 1.666,3.33 0.926,4.811 -0.74,1.479 -2.96,3.885 -4.81,4.81 -1.85,0.925 -3.145,0 -4.255,0.925 -1.11,0.926 -1.85,1.85 -1.295,3.146 0.555,1.295 1.85,2.22 0,2.96 -1.85,0.74 -1.11,1.109 -2.96,2.22 -1.85,1.11 -2.22,-0.925 -3.885,0.37 -1.665,1.295 -0.37,1.109 -1.48,2.404 -1.11,1.296 -1.11,1.296 -1.479,2.405 -0.37,1.11 -0.37,1.11 -2.405,1.11 -2.035,0 -2.405,-0.37 -3.7,0.925 -1.295,1.295 -2.22,2.775 -3.144,3.146 -0.925,0.369 -2.22,1.295 -1.295,2.035 0.925,0.739 2.59,-0.186 2.59,-0.186 0,0 -0.37,1.11 -0.925,1.85 -0.555,0.74 -0.925,2.405 -1.665,2.775 -0.74,0.37 -1.48,0 -1.48,0 l 0.925,-2.22 c 0,0 0.555,-1.11 -0.37,-1.665 -0.925,-0.555 -0.555,-0.555 -2.035,-0.555 -1.48,0 -1.48,-0.556 -1.85,1.109 -0.37,1.665 0,2.035 -1.665,1.48 -1.665,-0.556 -1.479,-0.926 -2.035,-2.221 -0.555,-1.295 1.11,-0.185 -0.555,-1.295 -1.665,-1.109 -3.33,-1.85 -4.44,-1.109 -1.109,0.74 -1.85,0.185 -1.664,1.664 0.185,1.48 0.185,1.666 -0.74,1.851 -0.925,0.185 -0.37,0.185 -1.295,1.11 -0.925,0.925 -2.591,0.369 -2.591,0.925 0,0.555 0.185,1.809 -0.739,1.089 -0.925,-0.719 -1.851,-0.904 -1.851,-0.904 z" />
			</g><rect
   style="fill:none;stroke:#000000;stroke-width:0.29998;stroke-linejoin:bevel;stroke-dasharray:none;paint-order:stroke fill markers"
   id="rect2"
   height="4390.293"
   x="0.19998971"
   y="0.19998971"
   ry="0.69917101"
   width="4353.8188" /></svg>
