<?xml version="1.0" encoding="UTF-8" standalone="no"?>
<!-- Generator: Adobe Illustrator 22.1.0, SVG Export Plug-In . SVG Version: 6.00 Build 0)  -->

<svg
   version="1.1"
   x="0px"
   y="0px"
   viewBox="0 0 4354.1187 4390.5933"
   enable-background="new 0 0 1995.865 2834.646"
   xml:space="preserve"
   id="svg1596"
   width="4354.1187"
   height="4390.5933"
   xmlns="http://www.w3.org/2000/svg"
   xmlns:svg="http://www.w3.org/2000/svg"><defs
   id="defs1596" />


<g
   id="Northern_Ireland_fill"
   transform="translate(1093.6405,660.66109)">
				<path
   id="Rathlin_Island_1_"
   fill="#fdfcf7"
   d="m 748.163,1438.628 c 0,0 -1.109,-1.11 0,-1.757 1.11,-0.648 2.59,-1.203 3.146,-1.573 0.555,-0.37 1.479,-0.555 2.22,-0.925 0.74,-0.37 1.665,-0.925 2.405,0 0.74,0.925 1.85,2.27 3.33,1.875 1.479,-0.395 2.22,-0.716 3.33,0 1.109,0.715 -0.37,1.732 0,2.611 0.37,0.879 0.841,1.793 0.42,2.631 -0.42,0.838 -0.791,-0.445 -0.791,1.491 0,1.936 0.185,2.307 -1.11,3.047 -1.295,0.739 -0.925,-0.186 -1.48,-1.296 -0.555,-1.109 -0.555,-2.97 0,-3.242 0.555,-0.272 1.11,-0.697 0.74,-1.41 -0.37,-0.712 -1.295,-1.452 -2.22,-1.452 -0.925,0 -1.572,-0.37 -2.728,0 -1.156,0.37 -0.047,-0.37 -1.897,0.463 -1.85,0.832 -4.255,0.909 -4.255,0.909 0,0 -1.11,0.386 -1.11,-1.372 z" />
				<path
   fill="#fdfcf7"
   d="m 751.356,1717.006 c 0.19,-0.641 0.877,0.047 0.877,0.047 0,0 1.11,0.186 1.665,-0.185 0.555,-0.371 3.7,0.185 3.7,0.185 0,0 1.665,0.555 2.59,0.74 0.925,0.185 0.925,1.665 0.925,3.145 0,1.48 1.295,2.035 1.85,1.851 0.555,-0.185 1.295,1.665 2.405,1.85 1.11,0.186 3.515,0.186 4.07,0.186 0.555,0 1.665,0.739 2.22,0.739 0.555,0 2.59,0.926 2.59,0.926 l 1.11,1.109 0.74,1.48 -1.665,-0.37 c 0,0 -1.11,0 -0.925,0.555 0.185,0.556 -1.11,1.296 -1.11,1.296 0,0 1.85,0.739 2.405,1.479 0.555,0.74 1.295,1.11 2.22,0.925 0.925,-0.185 0.74,1.665 1.665,1.48 0.925,-0.186 1.479,-0.926 2.22,-2.035 0.74,-1.11 2.035,-1.11 2.775,-1.665 0.74,-0.556 0.925,-0.925 0.925,-1.851 0,-0.925 1.665,-0.925 2.96,-2.22 1.295,-1.295 3.145,-0.739 4.07,-0.925 0.925,-0.186 0.739,-2.59 1.295,-3.516 0.555,-0.924 2.775,-1.85 4.995,-3.699 2.22,-1.85 2.405,-2.221 2.96,-3.7 0.555,-1.479 0.37,-2.035 0.555,-2.96 0.185,-0.925 0.925,-0.186 0.555,-1.11 -0.37,-0.925 -0.74,-1.295 -0.37,-2.405 0.37,-1.109 2.035,-4.994 2.035,-4.994 0.556,-7.03 -0.925,-7.4 -1.665,-8.881 -0.74,-1.479 -0.37,-1.85 -0.37,-2.959 0,-1.11 1.11,-1.11 2.405,-2.405 1.295,-1.295 2.405,-2.405 2.405,-2.405 0,0 2.035,-0.925 2.775,-1.85 0.74,-0.926 -0.555,-2.035 -1.11,-2.221 -0.555,-0.185 -1.665,-0.185 -1.665,-0.185 0,0 1.85,-2.774 2.22,-3.33 0.37,-0.555 1.11,-2.22 1.11,-2.22 l 0.925,-1.85 0.37,1.109 -0.37,2.775 0.37,1.85 -1.665,0.186 0.925,2.404 2.96,0.186 c 0,0 5.735,-0.186 6.66,-0.74 0.925,-0.555 0.555,-1.11 0.555,-1.11 0,0 1.11,0.186 2.405,-0.37 1.295,-0.555 1.48,0.926 1.48,0.926 l 4.81,0.185 c 0,0 1.665,2.035 2.035,3.146 0.37,1.109 0.925,1.479 1.48,2.22 0.555,0.739 1.295,-1.11 1.85,-1.851 0.555,-0.74 0.74,-1.664 0.555,-2.591 -0.185,-0.926 -0.37,-2.403 0.74,-2.959 1.11,-0.555 0,0 1.11,0.74 1.11,0.74 0.925,0.74 0.555,1.665 -0.37,0.925 1.295,0.74 1.85,-0.925 0.555,-1.665 0.37,-1.296 -0.185,-2.035 -0.556,-0.74 0,-0.925 0.925,-1.295 0.925,-0.37 1.11,0.739 1.665,0 0.555,-0.74 1.48,-1.665 3.33,-3.33 1.85,-1.665 1.11,-2.405 1.48,-3.33 0.37,-0.925 1.48,-2.035 2.22,-3.146 0.74,-1.109 1.295,-0.369 1.665,-0.925 0.369,-0.555 -0.74,-1.295 -1.665,-1.85 -0.926,-0.556 -0.37,-1.851 -0.74,-2.528 -0.37,-0.677 -0.37,-4.132 -0.37,-5.797 0,-1.665 -0.74,-1.85 -1.11,-2.775 -0.37,-0.925 -1.11,-0.555 -2.035,-0.925 -0.925,-0.37 0,-1.295 -0.37,-1.85 -0.37,-0.556 -1.295,-0.37 -2.405,-0.74 -1.11,-0.37 -1.85,0.185 -2.59,0.925 -0.74,0.74 -1.11,0 -1.85,0.555 -0.74,0.556 -0.925,0.74 -2.59,1.296 -1.665,0.555 -1.295,0.739 -2.96,1.109 -1.665,0.37 -1.11,-0.185 -2.22,-1.109 -1.11,-0.925 0,0 0.74,-0.925 0.74,-0.926 1.479,-1.295 2.59,-1.851 1.11,-0.555 1.11,-1.85 1.665,-3.146 0.555,-1.295 0.37,-2.034 0.37,-3.885 0,-1.85 0,-1.664 0.739,-3.699 0.74,-2.035 0,0 0.926,-0.926 0.925,-0.925 0.185,-0.925 0,-2.404 -0.185,-1.48 0,0 1.479,-0.556 1.481,-0.555 0,0 0,-1.665 0,-1.664 0,0 -1.479,-1.85 -1.48,-1.85 0,0 -0.74,0.555 -0.74,0.555 -0.74,1.48 -0.74,1.48 0,0 -0.185,-1.665 -0.74,-2.035 -0.555,-0.37 -0.555,-1.48 0.186,-2.035 0.74,-0.555 0,-1.295 -0.74,-2.775 -0.74,-1.479 0.185,-1.479 0.185,-2.59 0,-1.109 -1.295,-0.185 -1.295,-0.185 0,0 -0.925,0.74 -1.85,0.555 -0.925,-0.185 -0.185,-0.925 -0.37,-2.405 -0.185,-1.479 0.37,-1.295 2.035,-1.85 1.665,-0.555 0,0 0.925,-0.74 0.925,-0.74 -0.37,-1.295 -0.37,-1.295 0,0 -1.665,-0.185 -2.22,-0.555 -0.555,-0.37 -1.481,-0.74 -1.665,-1.295 -0.185,-0.555 -1.295,-1.11 -2.405,-1.665 -1.109,-0.556 -1.665,-0.556 -1.665,-0.556 l 0.556,-1.109 c 0,0 1.109,-0.74 1.85,-0.925 0.74,-0.186 0.185,-1.295 0,-2.035 -0.185,-0.74 -0.185,-1.851 0.37,-3.146 0.555,-1.295 1.295,-2.959 1.295,-2.959 l 1.665,-0.186 c 0,0 1.479,2.405 1.665,2.96 0.185,0.555 2.96,1.11 3.515,1.851 0.556,0.739 2.405,0.555 3.33,1.479 0.925,0.925 1.11,1.11 1.11,1.11 0,0 0.74,1.295 0.74,1.85 0,0.555 1.109,1.109 1.479,1.665 0.37,0.555 0.74,2.59 0.74,2.59 l 0.37,-1.665 c 0,0 1.295,-0.555 2.405,-0.555 1.11,0 -0.185,1.109 0.185,2.59 0.37,1.481 0.925,0.74 0.925,1.85 0,1.11 -0.185,1.295 0.555,2.405 0.74,1.11 0.186,1.295 0.926,2.22 0.74,0.926 0,2.035 0,2.035 0,0 0.37,1.48 -0.186,3.516 -0.555,2.035 -1.295,1.479 -0.74,2.22 0.556,0.739 1.666,1.11 1.295,2.96 -0.37,1.85 0,0 -0.185,0.925 -0.185,0.925 0,1.295 0.185,1.851 0.185,0.555 -1.11,1.479 -1.11,1.479 0,0 0,0 -0.37,-1.11 -0.37,-1.109 0,0 -1.48,0.74 0,0 -1.48,0.555 -2.035,1.295 -0.556,0.74 -0.37,0.926 -0.37,1.85 0,0.926 0.185,2.221 -0.186,3.146 -0.37,0.925 0,1.851 0.37,2.405 0.37,0.555 1.295,0.555 2.22,1.479 0.925,0.924 2.405,4.07 2.405,4.07 0,0 1.295,1.851 1.851,2.59 0.555,0.74 0.185,2.405 0,3.33 -0.185,0.925 1.479,0.37 2.035,0.37 0.555,0 0,2.22 0,2.22 0,0 1.11,0.556 1.665,0 0.556,-0.555 0.74,-1.479 0.74,-2.96 0,-1.479 0.185,-2.775 0.185,-2.775 h 1.109 v -1.109 l -1.109,-1.48 c 0,0 0,0 0.555,-1.109 0.555,-1.11 0.925,-1.85 1.85,-2.775 0.925,-0.925 1.481,0.926 1.851,0 0.37,-0.925 -0.37,-2.404 -0.37,-2.404 0,0 -0.37,-2.961 -0.555,-4.07 -0.185,-1.11 -0.74,-1.48 -1.11,-2.405 -0.37,-0.925 -0.186,-1.295 0.555,-2.405 0.74,-1.109 2.405,-0.74 2.405,-1.664 0,-0.926 1.11,-2.775 1.85,-3.516 0.74,-0.74 0.186,-1.295 0.556,-2.035 0.37,-0.74 -0.74,-1.479 -0.925,-2.22 -0.185,-0.741 1.11,-1.295 1.665,-2.405 0.556,-1.109 -1.109,-1.479 -1.109,-1.479 0,0 -1.295,0 -1.85,0 -0.555,0 -0.925,-1.296 -1.48,-3.146 -0.555,-1.85 -0.74,-4.439 -1.423,-4.995 -0.683,-0.555 -0.612,-0.555 -1.167,-1.479 -0.555,-0.926 0,-4.07 0.739,-5.365 0.74,-1.295 0.37,-1.48 0,-2.405 -0.37,-0.925 -1.85,-2.034 -1.85,-2.034 l -1.295,-0.926 c -0.555,-2.774 -2.22,-3.145 -2.775,-4.236 -0.555,-1.092 -1.295,-3.903 -1.295,-5.014 0,-1.109 0.37,-1.85 0,-4.07 -0.37,-2.22 -0.925,-1.85 -1.109,-2.774 -0.186,-0.925 -1.11,-1.479 -2.59,-2.405 -1.48,-0.925 -1.85,-2.774 -2.405,-3.515 -0.555,-0.74 -2.221,-0.37 -4.255,-0.74 -2.035,-0.37 -1.665,-0.37 -1.665,-0.37 0,0 -1.851,-0.369 -2.035,0.555 -0.186,0.926 0.555,2.221 0,2.035 -0.555,-0.185 -2.22,-0.185 -2.96,-0.369 -0.74,-0.186 -1.295,0.925 -2.405,1.295 -1.11,0.369 -2.015,-0.556 -2.015,-0.556 l -2.98,-0.37 -1.665,-0.185 c 0,0 -1.665,-1.479 -2.405,-1.479 -0.74,0 -1.48,0.739 -5.92,2.59 -4.44,1.85 -5.18,3.699 -5.18,3.699 l -1.11,0.37 -2.59,2.775 -1.664,0.37 -2.405,2.59 c 0,0 -1.851,1.48 -2.775,1.48 -0.925,0 -1.48,2.959 -1.48,2.959 0,0 -1.11,1.295 -1.85,1.11 -0.74,-0.185 0.925,-5.364 1.295,-6.845 0.37,-1.48 0.37,-2.775 0.37,-3.516 0,-0.739 1.48,-1.479 2.22,-3.33 0.74,-1.85 0.37,-3.329 0.74,-3.885 0.37,-0.555 2.775,-2.22 3.146,-2.774 0.369,-0.556 2.59,-1.851 3.515,-2.591 0.925,-0.739 0.185,-1.664 0.555,-2.59 0.37,-0.925 1.851,0.37 2.96,0 1.11,-0.369 1.665,-1.479 1.665,-1.479 0,0 1.48,-0.556 3.516,-2.035 2.035,-1.479 2.96,-0.555 4.439,-1.11 1.48,-0.555 2.405,-2.404 2.96,-3.145 0.555,-0.74 1.295,-0.37 1.851,-0.925 0.555,-0.556 1.109,-2.035 1.665,-2.775 0.555,-0.739 1.13,-2.035 1.13,-2.035 v -3.145 c 0,0 -0.205,-5.92 -0.021,-6.66 0.186,-0.74 -0.925,-2.405 -2.774,-5.55 -1.851,-3.146 -1.851,-3.885 -2.775,-4.255 -0.925,-0.37 -1.665,-0.925 -2.59,-1.48 -0.925,-0.555 -1.48,0 -1.48,0.74 0,0.74 -0.925,0.185 -1.666,0.185 -0.739,0 -0.555,-1.664 -1.109,-0.925 -0.555,0.74 -0.555,1.11 -0.74,1.665 -0.185,0.555 0.74,1.48 2.22,2.96 1.48,1.48 0.925,1.11 2.035,1.48 1.11,0.37 1.11,1.295 1.295,2.034 0.186,0.74 1.295,1.295 1.295,1.295 l 0.925,2.035 1.295,2.961 v 4.439 l -1.11,-1.48 c 0,0 -1.48,-2.404 -1.85,-3.699 -0.37,-1.295 -0.925,-2.221 -0.925,-2.221 h 0.925 v -1.109 l -1.48,-1.295 c 0,0 -1.665,0 -2.22,0 -0.556,0 -1.48,0 -1.48,0 l -2.774,-1.11 -1.48,-2.405 c 0,0 -0.185,-2.96 0,-2.96 0.185,0 1.48,0 1.48,0 v -2.22 c 0,0 -1.665,-2.96 -2.591,-4.07 -0.925,-1.109 -1.85,-0.925 -2.034,-2.59 -0.185,-1.665 -0.926,-3.689 -0.926,-3.689 0,0 -2.59,-0.195 -3.145,-0.01 -0.555,0.185 -1.85,-2.035 -1.85,-2.035 l -1.295,-2.405 c 0,0 -0.739,-2.405 -0.925,-3.146 -0.185,-0.74 -0.925,-3.885 -3.885,-6.66 -2.96,-2.774 -2.035,-1.479 -3.33,-1.664 -1.295,-0.186 -1.821,-1.11 -1.821,-1.11 0,0 0.341,-1.665 0,-1.665 -0.341,0 -1.879,0.37 -2.804,0 -0.925,-0.37 -1.295,-1.85 -1.295,-1.85 l 1.665,-4.256 c 0,0 0.925,-3.885 2.035,-6.289 1.109,-2.405 -0.37,-4.256 -1.11,-5.181 -0.74,-0.925 -1.85,-0.555 -2.96,-0.739 -1.11,-0.186 -3.7,0.185 -5.55,0.739 -1.85,0.556 -2.59,-1.295 -2.59,-1.295 0,0 0.185,-1.479 0.37,-2.22 0.185,-0.74 0.555,-4.255 0.739,-4.995 0.186,-0.74 1.48,-2.59 1.666,-5.181 0.185,-2.59 -0.925,-3.145 -0.925,-3.145 0,0 -0.37,-1.109 0.37,-1.665 0.74,-0.555 1.665,-2.774 1.665,-2.774 0.925,-3.7 -1.48,-5.735 -2.405,-6.291 -0.925,-0.555 -1.109,-2.22 -1.479,-3.329 -0.37,-1.11 -1.295,-2.96 -1.295,-2.96 l -1.48,-0.74 c 0,0 -1.479,-0.74 -2.035,-0.74 -0.555,0 -1.109,-1.295 -2.774,-1.665 -1.665,-0.37 -1.11,-0.925 -3.146,-2.774 -2.035,-1.851 -1.85,-1.295 -3.33,-0.74 -1.479,0.555 -1.664,2.404 -2.96,2.594 -1.295,0.189 -2.59,0.736 -3.7,0.921 -1.109,0.185 -2.59,1.48 -3.515,1.48 -0.925,0 -2.035,-1.665 -3.144,-2.401 -1.11,-0.735 -1.11,-1.299 -2.22,-2.224 -1.11,-0.925 -3.7,-1.665 -3.7,-1.665 l -3.7,-1.48 c 0,0 -2.405,-0.74 -3.33,-0.925 -0.925,-0.185 -2.22,-0.555 -2.22,-0.555 0,0 -0.925,0.37 -2.22,1.295 -1.295,0.925 -2.22,1.295 -2.96,1.11 -0.74,-0.186 -1.109,-1.11 -1.85,-1.11 -0.74,0 -3.515,0 -4.255,-0.37 -0.74,-0.37 -1.11,-2.221 -1.11,-2.221 0,0 -1.295,-0.555 -2.405,-0.739 -1.11,-0.185 -2.405,1.665 -2.405,1.665 l -2.22,1.479 c 0,0 -1.11,1.11 -2.405,1.851 -1.295,0.74 0,2.035 0,2.035 l -1.665,0.739 c 0,0 -1.851,0.556 -3.33,1.114 -1.481,0.56 -2.035,1.661 -4.811,2.216 -2.774,0.556 -2.59,-0.555 -4.069,-0.555 -1.481,0 -1.481,0.37 -1.481,0.37 l -1.295,-2.031 h -0.74 l 0.74,3.141 -1.295,0.37 c 0,0 -2.405,0.925 -4.07,1.11 -1.665,0.186 -2.405,1.109 -2.405,1.109 l -1.11,1.48 c 0,0 0.555,1.665 0,2.405 -0.555,0.739 -1.85,1.11 -1.85,1.11 0,0 0.555,1.479 0,1.664 -0.555,0.186 -1.295,0.186 -2.96,-0.185 -1.665,-0.37 -1.85,-1.665 -1.85,-1.665 0,0 -12.025,0.74 -14.06,0.186 -2.035,-0.556 -6.476,-2.591 -8.511,-4.625 -2.035,-2.035 -2.59,-0.926 -2.959,-0.556 -0.37,0.37 0.555,2.59 0.555,4.255 0,1.665 -0.74,5.92 -0.74,5.92 l -1.85,4.44 -1.11,4.625 c 0,0 -1.665,0.555 -3.7,1.85 -2.035,1.296 0.185,4.995 0.37,5.55 0.185,0.556 -2.775,3.886 -2.775,3.886 l -1.11,2.22 c 0,0 -2.59,1.11 -3.885,1.665 -1.295,0.555 -6.475,0.925 -8.695,0 -2.22,-0.925 -1.48,-1.295 -1.665,-2.22 -0.186,-0.926 -0.74,-1.48 -1.979,-1.295 -1.239,0.185 -1.536,-0.556 -4.127,0.185 -2.59,0.74 -2.59,-0.185 -3.515,-0.37 -0.925,-0.185 -1.48,0.555 -1.665,1.665 -0.185,1.11 0,2.035 0,2.035 h -2.405 l -0.37,-3.33 c 0,0 -0.076,-1.441 0.064,-2.673 l -0.019,0.193 c 0,0 -1.413,0.677 -1.722,0.701 -0.31,0.024 -1.547,0.54 -1.856,0.952 -0.31,0.413 0.104,1.444 -0.929,1.857 -1.031,0.412 -2.476,-0.516 -3.094,0 -0.618,0.516 -0.722,1.548 -2.063,1.031 0,0 -0.928,-0.619 -1.856,-0.619 -0.929,0 -1.857,0.828 -2.683,1.601 -0.826,0.773 -2.269,2.526 -2.888,3.351 -0.619,0.825 -1.547,1.237 -2.063,2.372 -0.516,1.135 -1.238,1.96 -1.341,3.198 -0.103,1.237 0.516,2.166 0,3.301 -0.516,1.135 -1.341,2.063 -1.031,3.714 0.31,1.65 -0.238,2.888 -0.067,4.538 0.171,1.65 -0.034,2.579 -0.034,2.579 0,0 0.823,-0.207 -0.414,0 -1.238,0.206 -2.27,-0.207 -3.507,0.825 -1.238,1.031 -1.959,0.618 -2.166,2.166 -0.206,1.547 -0.206,2.062 0,4.126 0.207,2.062 -0.722,3.301 -0.155,4.951 0.567,1.65 1.03,1.238 1.108,3.713 0.079,2.476 -0.5,0.619 -1.294,3.611 -0.793,2.991 -1,5.054 -1.412,5.569 -0.413,0.517 -11.037,10.521 -11.037,10.521 0,0 0.103,1.753 0,4.229 -0.103,2.476 -0.619,4.642 0,5.57 0.619,0.928 2.166,1.855 0.619,2.475 -1.548,0.619 -1.238,0.825 -2.889,0 -1.65,-0.824 -0.825,-1.237 -2.682,-0.722 -1.857,0.516 -2.476,1.238 -4.745,0.206 -2.269,-1.031 -2.579,-1.443 -4.333,0 -1.753,1.444 -2.889,2.889 -4.023,3.302 -1.135,0.413 -3.507,1.444 -4.951,1.96 -1.444,0.516 -0.31,0.516 -2.476,2.372 -2.166,1.856 -2.166,2.683 -4.126,1.65 -1.96,-1.031 -0.516,-2.682 -2.579,-2.991 -2.063,-0.31 -2.888,0.104 -3.61,-1.443 -0.722,-1.548 -2.269,-2.683 -4.023,-1.445 -1.754,1.238 -3.198,2.373 -3.817,3.714 -0.619,1.341 -0.825,2.137 -1.959,2.616 -1.135,0.479 -2.785,0.169 -3.404,0.994 -0.619,0.825 0.206,1.342 0.516,2.579 0.31,1.237 -0.861,1.237 -0.74,3.197 0.122,1.96 1.05,3.713 3.422,4.332 2.373,0.619 3.198,1.032 3.507,2.476 0.31,1.444 0,2.889 2.062,3.095 2.064,0.206 3.404,-1.753 4.126,-1.753 0.723,0 2.579,1.34 4.126,2.682 1.547,1.341 4.229,2.062 5.364,1.856 1.135,-0.206 3.197,-2.372 4.229,-2.269 1.032,0.103 1.651,0.894 1.753,2.303 0.104,1.41 0.516,2.235 -0.309,2.647 -0.826,0.413 -3.198,1.444 -4.229,1.548 -1.032,0.103 -1.754,0 -2.682,0.618 -0.928,0.619 -1.135,1.651 -1.753,2.476 -0.619,0.825 -1.444,1.342 -2.476,1.548 -1.032,0.206 -1.754,0.103 -2.167,0.929 -0.413,0.824 0.207,1.444 -1.134,2.476 -1.341,1.031 -1.96,1.031 -2.579,2.269 -0.619,1.238 0.825,1.547 -0.31,3.301 -1.135,1.754 -1.96,2.166 -3.507,1.96 -1.547,-0.206 -2.785,0.304 -4.332,0.049 -1.548,-0.255 -4.435,0.194 -5.57,0.073 -1.135,-0.121 -3.61,-1.152 -4.848,-1.771 -1.238,-0.619 -3.611,-1.031 -4.849,-0.516 -1.237,0.516 -2.476,3.197 -3.197,4.642 -0.722,1.444 -1.444,3.61 -1.857,5.054 -0.413,1.444 0.103,3.404 -0.928,3.61 -1.032,0.206 -5.157,-0.722 -5.673,0 -0.516,0.722 -3.198,3.198 -3.198,3.198 0,0 -1.031,0.825 -3.095,0.825 -2.062,0 -3.713,-0.722 -4.642,0 -0.928,0.722 -0.825,1.031 0,1.65 0.825,0.618 2.579,1.444 2.372,2.166 -0.206,0.722 -1.238,2.476 -0.928,3.301 0.31,0.825 5.157,4.126 6.498,5.673 1.341,1.548 4.333,5.364 5.055,6.602 0.722,1.238 2.27,5.055 3.816,5.261 1.547,0.206 4.332,0.104 5.055,0.619 0.722,0.516 0.619,2.166 0.825,2.888 0.206,0.723 1.857,1.342 2.888,3.095 1.032,1.754 1.857,4.333 2.269,5.261 0.413,0.928 1.032,1.754 2.579,1.857 1.547,0.103 3.197,0.721 3.404,1.237 0.206,0.516 1.238,0.31 2.167,0 0.928,-0.31 1.443,-0.094 2.269,0.313 0.825,0.408 1.753,2.368 1.547,4.122 -0.207,1.753 1.135,4.95 1.135,5.982 0,1.031 0.31,4.229 0.31,4.849 0,0.618 -0.103,2.784 1.134,3.816 1.238,1.031 3.198,2.888 4.435,2.682 1.238,-0.206 6.086,-0.619 7.118,-0.723 1.031,-0.103 3.3,0.857 4.435,0.738 1.134,-0.119 4.745,-0.272 5.776,0.011 1.032,0.283 1.754,3.067 1.96,3.79 0.206,0.723 0.516,1.444 1.753,1.238 1.238,-0.207 2.372,0.619 3.198,1.65 0.825,1.031 2.269,2.062 2.269,2.785 0,0.722 1.031,2.99 2.166,3.816 1.135,0.825 2.991,1.135 3.817,1.341 0.825,0.206 1.547,1.96 2.682,2.476 1.135,0.516 1.65,0.929 2.682,0 1.032,-0.929 1.753,-0.825 3.198,0 1.444,0.825 2.785,1.959 3.919,1.65 1.135,-0.31 1.754,-1.135 2.579,-2.682 0.825,-1.548 2.166,-2.682 3.404,-3.301 1.237,-0.619 2.269,-1.032 3.507,-1.238 1.237,-0.206 2.372,-0.207 1.444,0.516 -0.928,0.723 -1.959,1.135 -1.857,2.063 0.104,0.928 1.032,1.341 2.27,0.928 1.238,-0.412 2.372,-0.825 3.095,-0.412 0.722,0.412 0.103,0.825 -0.516,1.444 -0.619,0.619 -2.27,1.547 -0.825,1.856 1.444,0.31 1.444,-0.31 2.888,-0.516 1.444,-0.207 1.444,-0.722 2.167,0.206 0.722,0.929 1.856,1.341 2.991,1.187 1.135,-0.154 2.991,-0.774 1.959,-2.012 -1.031,-1.237 -2.475,-0.928 -1.753,-3.197 0.722,-2.27 1.135,-2.991 2.476,-4.332 1.341,-1.341 2.166,-2.476 3.197,-1.444 1.032,1.031 1.238,0.722 0.826,1.96 -0.413,1.237 -0.619,1.547 -1.135,2.682 -0.516,1.135 -0.516,0.516 0.206,1.856 0.722,1.342 0.722,2.063 -0.516,2.27 -1.238,0.206 -2.372,0.104 -2.063,1.238 0.31,1.134 1.238,0.991 2.579,1.012 1.341,0.02 2.063,-1.425 3.094,-3.385 1.032,-1.96 1.65,-4.642 1.753,-6.602 0.103,-1.96 -0.722,-5.776 0.413,-6.602 1.134,-0.825 0.412,-2.372 1.237,-2.785 0.825,-0.412 3.713,-1.754 4.642,-2.27 0.929,-0.516 2.063,-1.547 3.095,-1.135 1.031,0.413 1.341,1.135 2.888,0.207 1.547,-0.929 2.682,-0.516 2.063,-2.476 -0.619,-1.96 -1.444,-2.167 -0.722,-3.095 0.722,-0.928 0.206,-3.713 -0.207,-5.055 -0.413,-1.341 -2.166,-1.753 -2.785,-1.959 -0.619,-0.207 -1.444,-1.135 -1.238,-1.96 0.206,-0.825 -0.206,-0.723 -1.341,-1.651 -1.135,-0.928 -2.27,-2.476 -1.031,-3.403 1.237,-0.929 2.578,-1.031 2.785,-1.856 0.207,-0.826 -1.135,-4.745 -0.206,-5.158 0.929,-0.412 2.889,0.413 3.714,-0.103 0.825,-0.517 2.888,-1.96 4.023,-2.889 1.135,-0.929 2.373,-0.618 2.579,-1.856 0.206,-1.238 1.444,-3.92 2.476,-4.951 1.031,-1.031 2.991,-5.261 3.301,-5.57 0.31,-0.31 2.682,-4.022 3.404,-3.92 0.722,0.104 2.062,-0.206 3.61,0.929 1.547,1.135 6.395,2.991 6.808,4.022 0.413,1.032 3.095,2.785 4.229,4.229 1.134,1.444 2.269,2.786 2.372,3.817 0.103,1.031 -0.104,2.784 0.929,2.784 1.031,0 2.372,-0.515 2.991,0.929 0.619,1.443 1.96,2.888 1.96,4.436 0,1.547 1.341,2.785 1.444,4.229 0.103,1.444 1.134,1.754 0,3.301 -1.134,1.548 -1.65,0.723 -2.063,1.857 -0.413,1.134 -0.619,3.197 0.722,4.125 1.341,0.93 2.579,0.62 3.404,1.136 0.825,0.516 1.547,1.649 1.444,2.682 -0.104,1.031 0.516,2.167 1.031,3.404 0.516,1.237 0.516,2.372 0.619,2.784 0.103,0.413 2.063,0.929 2.27,1.96 0.206,1.032 1.031,2.27 2.888,3.404 1.856,1.135 2.476,1.237 2.991,1.547 0.516,0.31 0.723,2.476 2.167,2.476 1.444,0 2.991,-1.134 3.404,-2.166 0.413,-1.031 0.929,-1.547 2.476,-0.928 1.547,0.618 7.014,4.435 7.53,7.116 0.516,2.683 1.032,4.849 0.413,5.983 -0.619,1.135 -1.753,2.991 -2.476,3.713 -0.722,0.723 -0.929,1.548 -0.413,2.992 0.516,1.443 1.341,2.681 0.516,3.609 -0.825,0.929 -1.547,1.032 -1.238,2.683 0.31,1.649 -0.206,2.991 0.722,4.435 0.928,1.444 1.238,2.373 2.476,3.611 1.238,1.237 2.166,1.856 3.094,1.959 0.929,0.104 2.373,0.723 2.373,-0.619 0,-1.34 0.413,-2.27 2.372,-2.166 1.96,0.104 4.332,0 5.055,-0.309 0.722,-0.311 2.166,-0.929 3.094,-0.517 0.929,0.413 1.444,0 2.683,-0.825 1.237,-0.824 1.547,-2.269 3.094,-2.784 1.547,-0.517 3.404,-0.207 3.713,0.516 0.31,0.722 0.206,1.65 1.341,1.856 1.135,0.206 3.817,-0.31 4.539,-0.516 0.722,-0.207 1.649,0 2.785,-0.619 1.135,-0.619 2.373,1.65 2.269,-1.547 -0.103,-3.198 0.013,-5.57 0.006,-7.324 -0.006,-1.754 -0.831,-3.301 1.128,-2.372 1.96,0.929 2.476,0 2.889,1.96 0.412,1.96 -0.413,2.888 1.237,2.785 1.65,-0.104 2.579,-0.517 3.61,-1.961 1.032,-1.443 2.579,-2.166 2.579,-2.166 l 3.776,3.07 z"
   id="path344" />
			</g><rect
   style="fill:none;stroke:#000000;stroke-width:0.29998;stroke-linejoin:bevel;stroke-dasharray:none;paint-order:stroke fill markers"
   id="rect2"
   height="4390.293"
   x="0.19998971"
   y="0.19998971"
   ry="0.69917101"
   width="4353.8188" /></svg>
