<?xml version="1.0" encoding="UTF-8" standalone="no"?>
<!-- Generator: Adobe Illustrator 22.1.0, SVG Export Plug-In . SVG Version: 6.00 Build 0)  -->

<svg
   version="1.1"
   x="0px"
   y="0px"
   viewBox="0 0 4354.1187 4390.5933"
   enable-background="new 0 0 1995.865 2834.646"
   xml:space="preserve"
   id="svg1596"
   width="4354.1187"
   height="4390.5933"
   xmlns="http://www.w3.org/2000/svg"
   xmlns:svg="http://www.w3.org/2000/svg"><defs
   id="defs1596" />


<g
   id="Wales_fill"
   transform="translate(1093.6405,660.66109)">
				<path
   id="Skomer_Island__x2F__Ynys_Skomer_5_"
   fill="#fdfcf7"
   d="m 879.266,2244.427 c 0.127,-0.348 0.123,-0.74 0.494,-1.356 0.37,-0.617 0.617,0.246 1.48,0 0.863,-0.247 1.11,0.637 1.604,0.564 0.493,-0.071 0.986,-0.791 1.479,0 0.494,0.792 0.863,1.285 0.494,1.531 -0.371,0.247 -1.11,-0.492 -1.48,0 -0.37,0.494 -1.206,0.863 -1.22,1.11 -0.014,0.247 -0.261,0.247 -1.124,0 -0.863,-0.247 -1.356,-0.123 -1.727,-0.493 -0.371,-0.37 -0.493,0 0,-1.356 z" />
				<path
   id="Skokholm_Island__x2F__Ynys_Sgoc-holm_5_"
   fill="#fdfcf7"
   d="m 882.473,2253.554 c 0,0 0,-0.987 0.863,-1.357 0.863,-0.37 0.67,-0.739 1.63,-0.493 0.96,0.246 1.577,0.414 0.96,0.885 -0.616,0.472 -0.562,0.226 -0.96,0.966 -0.396,0.739 -0.767,0.739 -1.26,0.616 -0.493,-0.124 -1.233,-0.617 -1.233,-0.617 z" />
				<path
   id="Ramsey_Island__x2F__Ynys_Dewi_5_"
   fill="#fdfcf7"
   d="m 873.963,2214.334 c 0,0 0.74,-0.247 1.11,-0.617 0.37,-0.37 0.863,0.246 1.233,0 0.37,-0.247 0.74,-0.246 0.494,0.617 -0.247,0.862 -1.11,1.109 -0.617,1.85 0.493,0.74 0.899,1.232 0.696,1.973 -0.203,0.74 -0.934,0.863 -1.432,0.74 -0.498,-0.123 -0.992,0.123 -1.485,-0.617 -0.493,-0.739 -0.617,-2.073 0,-2.023 0.617,0.051 0.494,-0.812 0.494,-0.812 z" />
				<path
   id="Holy_Island__x2F__Ynys_Gybi_5_"
   fill="#fdfcf7"
   d="m 963.626,1895.764 c 0,0 -0.74,-2.468 0,-2.344 0.74,0.123 1.479,-0.01 1.479,-0.01 0,0 0,0.375 0.74,0.622 0.74,0.246 1.11,-1.243 1.727,-0.622 0.617,0.622 0.37,1.204 1.233,1.098 0.863,-0.106 1.85,0 1.85,0 0,0 0.494,-0.757 0.864,0 0.37,0.757 1.109,1.005 0.493,1.251 -0.617,0.246 -1.11,0.616 -0.37,0.74 0.74,0.123 1.11,-1.11 1.11,0 0,1.109 0.123,1.479 0.617,1.479 0.493,0 0.493,-0.246 1.233,0 0.74,0.246 1.575,0.493 1.65,1.233 0.076,0.74 0.664,1.232 0,1.604 -0.664,0.369 -1.773,0.123 -1.773,0.616 0,0.493 -0.371,1.722 0.123,1.725 0.493,0 0.802,-0.495 0.863,0 0.061,0.495 -0.123,0.495 0.247,0.927 0.37,0.432 0.35,0.371 0.854,0.617 0.504,0.246 0.626,0.062 0.873,0.555 0.246,0.493 0,0.986 0.308,1.11 0.309,0.123 0.679,0.123 0.987,0.308 0.308,0.186 0.432,0.37 0.616,0.679 0.186,0.309 0.37,0.925 0.432,1.356 0.061,0.432 0.37,0.617 0.493,1.172 0.124,0.555 0.186,0.74 -0.678,1.172 -0.863,0.432 -0.863,0.309 -1.727,0.802 -0.864,0.493 -0.679,0.679 -1.357,0.432 -0.678,-0.247 -0.74,0.308 -1.789,-0.309 -1.048,-0.616 -1.788,-0.555 -1.665,-1.356 0.124,-0.802 0.432,-0.679 0.062,-1.789 -0.37,-1.109 0,-0.432 -0.925,-1.541 -0.925,-1.11 -1.295,-1.48 -0.986,-1.912 0.309,-0.432 1.223,0 0.611,-0.986 -0.611,-0.986 -0.303,-1.053 -1.598,-1.235 -1.295,-0.183 -0.925,-0.677 -1.789,-0.923 -0.863,-0.247 -0.678,-0.493 -1.356,0.062 -0.678,0.555 -0.679,0.384 -1.727,0.53 -1.049,0.148 -1.522,1.086 -2.056,0 -0.534,-1.085 -0.083,-1.332 0,-1.949 0.082,-0.616 1.131,-0.246 0.822,-1.048 -0.309,-0.802 -0.062,-0.555 -1.079,-1.048 -1.018,-0.494 -1.265,0.432 -1.696,-0.74 -0.432,-1.172 -0.432,-1.172 0.309,-1.48 0.74,-0.309 1.233,-0.308 1.48,-0.369 0.248,-0.065 0.646,0.143 0.495,-0.434 z" />
				<path
   id="Caldey_Island__x2F__Ynys_Byr_5_"
   fill="#fdfcf7"
   d="m 960.296,2265.764 c 0,0 0.616,0.739 0.863,1.356 0.247,0.616 0.986,0.74 1.357,0.863 0.371,0.123 1.48,0 1.48,0 v -1.083 l 0.863,-1.137 c 0,0 -0.371,-0.617 -0.987,-0.617 -0.616,0 -1.85,0 -1.85,0 l -0.986,-0.617 c 0.001,0 -1.188,0.629 -0.74,1.235 z" />
				<path
   id="Bardsey_Island__x2F__Ynys_Enlli_5_"
   fill="#fdfcf7"
   d="m 947.839,2022.55 c 0,0 -0.74,0.123 0,-0.863 0.74,-0.987 0.74,-1.727 0.617,-2.467 -0.123,-0.74 0.246,-1.479 0.863,-1.356 0.616,0.123 1.479,-0.645 1.603,-0.014 0.124,0.63 -0.37,0.63 0,1.37 0.37,0.74 0.411,1.356 0.02,1.727 -0.39,0.37 -1.578,0.493 -1.578,0.493 0,0 0.292,-0.123 0,0.494 -0.292,0.616 -0.045,0.626 -0.785,0.621 z" />
				<path
   id="Anglesey__x2F__Ynys_Mon_5_"
   fill="#fdfcf7"
   d="m 1028.253,1917.778 c 0.047,-0.12 0.104,-0.22 0.168,-0.307 0.437,-0.583 1.222,-0.505 1.866,-0.988 0.74,-0.556 2.405,-0.74 3.516,-1.296 1.109,-0.555 0.74,-1.664 1.85,-2.59 1.11,-0.925 2.035,-1.479 3.33,-2.404 1.295,-0.926 1.665,-0.556 3.145,-1.851 1.48,-1.295 0.926,-0.185 1.851,-2.034 0.925,-1.851 0.185,-1.666 0.37,-2.775 0.185,-1.11 0.925,-0.925 1.665,-2.405 0.74,-1.479 0.555,-1.479 1.665,-2.59 1.109,-1.11 1.295,-0.925 1.665,-2.035 0.37,-1.11 -0.185,-0.925 -0.185,-0.925 0,0 -1.11,0 -2.405,0 -1.295,0 -1.11,0.555 -2.775,-0.186 -1.665,-0.739 -2.405,-0.369 -4.625,-0.369 -2.22,0 -1.85,0.369 -2.405,1.479 -0.555,1.11 -1.295,0.925 -2.775,0.925 -1.48,0 -1.665,0.74 -2.96,1.665 -1.295,0.925 -2.59,1.11 -4.07,0.186 -1.48,-0.925 0.185,-1.851 0.37,-2.96 0.185,-1.11 -0.37,-1.295 -1.295,-2.221 -0.925,-0.925 -0.556,-1.85 -0.74,-3.33 -0.185,-1.479 -0.74,-0.925 -1.11,-2.404 -0.37,-1.48 -0.185,-1.295 -0.74,-2.59 -0.555,-1.295 0,0 -0.925,-0.37 -0.925,-0.37 -1.109,-0.186 -1.85,-0.37 -0.74,-0.186 -1.481,-0.37 -1.295,-1.295 0.185,-0.926 0,-1.11 -0.925,-1.295 -0.925,-0.186 -1.665,0.925 -1.295,0 0.371,-0.926 1.11,-1.665 1.11,-2.96 0,-1.296 0.74,-1.665 0.37,-2.221 -0.37,-0.555 -0.925,-2.22 -1.48,-3.145 -0.555,-0.925 -0.555,-1.295 -1.109,-1.851 -0.555,-0.555 -1.481,0.37 -2.775,0.186 -1.295,-0.186 -2.59,-0.555 -4.07,-0.37 -1.48,0.185 -1.85,0.37 -2.96,0 -1.11,-0.37 -0.925,-1.479 -0.925,-1.479 0,0 -1.295,-0.37 -2.404,-0.556 -1.11,-0.185 -1.11,0.74 -2.405,0.186 -1.295,-0.556 0,0 0,-0.556 0,-0.555 -2.035,-0.369 -2.035,-0.369 0,0 -1.665,0.369 -2.775,0.555 -1.109,0.185 -0.925,1.295 -0.925,1.295 l 0.74,1.479 h -1.48 c 0,0 -0.925,-0.37 -2.035,-0.185 -1.11,0.185 -0.925,-0.74 -1.295,-1.295 -0.37,-0.555 -0.925,0.37 -1.665,1.109 -0.74,0.74 -0.925,0.926 -1.665,1.48 -0.74,0.555 -1.665,0 -1.851,-1.48 -0.185,-1.479 0,0 -0.925,0.37 -0.925,0.37 -0.925,0.925 -1.295,2.035 -0.37,1.11 -1.295,0.186 -1.295,0.186 0,0 -2.22,0 -3.145,-0.186 -0.925,-0.185 -1.11,0.74 -0.555,1.665 0.555,0.925 0.185,1.11 0.555,2.405 0.37,1.295 0.37,1.295 0.74,2.59 0.37,1.295 0.74,0.925 0.925,1.665 0.185,0.74 -1.11,2.035 -1.48,3.145 -0.37,1.11 -0.37,3.33 -0.37,4.44 0,1.11 -1.295,0.555 -1.85,0.74 -0.555,0.185 0.185,1.11 1.295,2.22 1.109,1.11 0.185,0.925 0.925,1.295 0.74,0.37 0.37,1.11 0.925,2.59 0.555,1.48 0,0 1.11,-0.369 1.109,-0.371 0,1.295 -0.74,2.034 -0.74,0.74 -1.11,0.74 -1.85,1.48 -0.74,0.739 -1.48,0.739 -2.22,2.22 -0.74,1.48 0.74,1.11 1.851,2.775 1.109,1.665 1.295,0.185 2.22,0.925 0.925,0.74 0.185,1.11 0.74,2.405 0.555,1.295 0.555,1.479 1.109,2.22 0.556,0.74 1.665,1.665 2.59,2.405 0.925,0.739 0,1.295 0.37,2.22 0.37,0.925 1.85,2.035 1.85,2.035 l 0.555,1.85 c 0,0 0,1.48 0,2.405 0,0.925 0.185,2.404 1.48,2.59 1.295,0.186 -0.185,1.48 1.295,1.295 1.479,-0.185 1.665,-0.74 2.96,-0.925 1.295,-0.185 -0.185,2.035 0.555,2.405 0.74,0.369 0.37,1.664 2.59,3.33 2.22,1.664 0,0 1.11,-0.37 1.109,-0.37 0.185,-1.11 1.665,-2.405 1.479,-1.295 0.555,-0.925 0.925,-1.85 0.37,-0.926 0.555,-1.666 2.035,-2.221 1.48,-0.555 1.11,0 1.48,1.11 0.37,1.11 -0.185,2.035 -0.555,2.774 -0.37,0.74 -2.22,0.74 -2.22,0.74 0,0 -0.925,1.295 -1.481,2.035 -0.555,0.74 0.37,1.295 0.74,2.775 0.37,1.479 1.665,0.925 3.145,1.109 1.48,0.186 1.664,1.11 2.59,2.035 0.925,0.925 2.774,0.555 3.515,0.186 0.74,-0.37 -0.74,-0.926 0,-2.405 0.74,-1.48 0,0 0.925,-1.295 0.925,-1.295 1.295,0.37 1.665,0.925 0.37,0.555 1.48,-0.555 3.146,-1.295 1.665,-0.74 2.405,-1.85 2.96,-2.96 0.555,-1.11 2.035,-1.665 2.96,-2.59 0.925,-0.925 1.85,-1.48 3.33,-2.035 1.479,-0.556 1.85,-0.925 2.405,-1.48 0,0 -0.185,-1.017 -0.185,-1.85 0,-0.833 0.555,-1.388 0.555,-2.035 0,-0.647 0.392,-1.479 0.392,-1.479 z" />
				<path
   id="Mainland_16_"
   fill="#fdfcf7"
   d="m 1235.968,2270.693 c 0.01,-0.01 0.021,-0.014 0.031,-0.021 0.348,-0.224 0.749,-0.479 0.674,-0.955 -0.061,-0.378 -0.424,-0.829 -0.666,-1.118 -0.308,-0.369 -0.431,-0.616 -0.554,-1.479 -0.124,-0.863 0.493,-1.356 0,-1.85 -0.494,-0.494 -1.11,0.246 -1.233,-0.987 -0.124,-1.232 -1.357,-0.246 -0.124,-1.232 1.233,-0.987 1.233,0.123 1.233,-0.987 0,-1.11 -0.369,-0.37 -0.986,-0.74 -0.617,-0.37 -1.334,-1.233 -0.79,-1.603 0.543,-0.371 0.713,-0.617 1.491,-0.74 0.779,-0.124 0.285,1.479 0.779,-0.124 0.492,-1.603 -0.447,-0.863 -0.779,-1.85 -0.331,-0.986 -0.039,-0.37 0,-1.48 0.039,-1.11 1.272,0.37 0.039,-1.11 -1.234,-1.479 -3.076,-1.726 -1.723,-2.096 1.353,-0.37 1.416,-0.37 1.446,-1.11 0.029,-0.739 1.08,-0.37 0,-1.727 -1.081,-1.356 -0.834,-1.479 -1.327,-2.343 -0.493,-0.864 -1.683,-1.357 -0.595,-1.975 1.088,-0.615 0.83,-0.986 1.699,-1.726 0.869,-0.74 1.239,-0.37 1.239,-1.356 0,-0.987 0.739,-1.48 -0.247,-1.974 -0.987,-0.493 -1.974,-0.864 -2.097,-2.097 -0.123,-1.233 0,-1.233 0.369,-2.221 0.371,-0.986 0.741,-1.356 0.124,-2.22 -0.214,-0.3 -0.353,-0.66 -0.479,-1.007 0,0 0.839,-1.214 1.091,-2.077 0.252,-0.863 1.361,-1.604 1.608,-2.59 0.247,-0.986 1.001,-2.097 1.001,-2.097 l 0.109,-1.232 0.471,-0.178 c -0.162,0.07 -0.324,0.129 -0.471,0.178 -0.74,0.246 -1.604,-1.233 -1.85,-1.974 -0.247,-0.74 -1.48,0 -2.64,0 -0.322,0 -0.48,0.161 -0.549,0.411 0,0 -0.513,-1.398 -1.129,-1.274 -0.616,0.123 -0.74,-0.016 -1.481,-0.01 -0.74,0.01 -1.355,0.13 -1.602,0.624 -0.247,0.493 -0.74,0.986 -1.48,0.617 -0.739,-0.371 -1.85,-0.386 -2.343,-1.242 -0.494,-0.855 -1.029,-1.596 -1.029,-1.596 l -1.068,-1.479 -1.479,-1.783 c 0,0 -0.37,-1.67 0,-2.163 0.37,-0.494 0.739,-0.616 0.493,-1.11 -0.246,-0.493 0.535,-0.246 -0.657,-0.739 -1.192,-0.494 -2.303,-0.494 -2.673,-0.987 -0.37,-0.493 -1.604,-1.727 -1.973,-1.85 -0.37,-0.124 -0.863,-0.987 -1.603,-1.233 -0.74,-0.247 -1.85,-1.974 -1.85,-1.974 0,0 -1.11,-1.48 -1.357,-2.22 -0.246,-0.74 -0.369,-1.246 -1.232,-1.425 -0.864,-0.179 -1.604,0 -1.604,0 l -3.453,-0.079 c 0,0 -0.493,0.764 -1.11,0.764 -0.616,0 -3.805,1.233 -4.061,1.604 -0.256,0.371 -1.859,1.233 -2.599,1.604 -0.74,0.369 0.247,-0.37 -0.74,0.369 -0.987,0.74 0.246,1.357 -0.987,0.74 -1.232,-0.616 -1.232,-0.616 -1.232,-1.356 0,-0.74 0.493,-1.727 0,-2.343 -0.493,-0.617 0.123,-0.863 -0.987,-0.74 -1.11,0.123 -1.109,-0.754 -2.466,-0.562 -1.357,0.191 -1.48,0.068 -1.48,-1.042 0,-1.11 0.74,-1.356 0,-2.22 -0.74,-0.864 -1.233,-2.22 -1.727,-2.344 -0.493,-0.123 -3.7,-4.069 -3.7,-4.069 0,0 -0.987,-0.37 -1.356,-0.987 -0.37,-0.616 -0.986,-1.356 -1.356,-2.466 -0.37,-1.111 -1.234,-3.577 -1.234,-3.577 0,0 -1.603,-2.221 -1.603,-2.714 0,-0.493 -0.493,-3.084 0,-3.7 0.493,-0.616 0.986,-1.958 0.37,-3.137 -0.617,-1.18 -2.467,-2.413 -2.467,-3.029 0,-0.617 -2.347,-2.477 -2.096,-2.714 0.251,-0.236 0.411,-1.304 0.411,-1.304 0,0 0.672,-0.595 0.687,-0.786 0.015,-0.191 -0.354,-1.917 -0.358,-2.35 0,-0.433 0.062,-4.872 0.062,-4.872 0,0 -0.37,-0.74 -1.295,-1.233 -0.925,-0.493 -1.789,-1.233 -1.418,-2.035 0.371,-0.802 1.295,-1.109 2.652,-1.603 1.356,-0.493 2.837,-1.11 3.823,-1.727 0.986,-0.617 2.59,-1.356 2.097,-1.974 -0.493,-0.618 -0.37,-0.246 -1.974,0 -1.604,0.246 -3.083,0.617 -3.207,-1.233 -0.123,-1.851 -0.124,-1.85 1.11,-3.206 1.233,-1.357 0.74,-1.48 1.11,-3.7 0.37,-2.22 1.233,-3.206 1.727,-3.7 0.493,-0.494 1.727,-1.85 1.48,-2.96 -0.247,-1.11 -0.124,-1.851 0.494,-2.467 0.616,-0.616 2.836,-0.863 2.836,-0.863 0,0 -0.124,-1.479 0.246,-2.097 0.37,-0.617 0.987,-1.11 2.098,-1.48 1.109,-0.369 1.232,-0.986 2.59,-1.356 1.356,-0.37 1.727,0.247 3.33,0 1.603,-0.246 2.59,-0.863 3.207,-1.233 0.616,-0.369 2.959,-0.863 0.739,-1.109 -2.22,-0.247 -2.467,0.863 -3.946,0 -1.48,-0.863 -2.467,0.123 -2.467,-1.727 0,-1.851 0,-2.358 0.493,-3.522 0.493,-1.165 0.37,-1.403 0.37,-3.011 0,-1.608 -1.48,-1.977 0.37,-2.964 1.85,-0.987 2.59,-0.74 3.576,-1.974 0.987,-1.233 1.727,-2.836 1.727,-2.836 l 0.236,-0.945 c 0,0 -3.241,-0.951 -3.688,-0.781 -0.448,0.169 -4.07,-0.021 -4.07,-0.021 l -3.207,0.883 -1.251,0.558 c 0,0 -0.911,-0.592 -1.495,-1.006 -0.584,-0.414 -0.675,-0.236 -0.877,-0.875 -0.202,-0.639 -4.001,-2.936 -4.875,-3.026 -0.874,-0.09 -0.922,-1.385 -0.922,-1.385 l -1.956,-1.636 -1.079,-0.595 -3.866,-2.519 c 0,0 -0.58,-0.915 -1.101,-1.426 -0.521,-0.51 -2.187,-1.657 -2.187,-1.657 0,0 0,-0.37 -1.11,-0.863 -1.11,-0.493 -2.467,-0.863 -3.207,-1.974 -0.74,-1.109 -0.74,-0.986 -1.604,-2.343 -0.864,-1.357 -1.603,-0.616 -0.863,-2.837 0.74,-2.22 -0.247,-2.467 1.604,-3.823 1.85,-1.356 1.356,-0.863 3.33,-1.85 1.973,-0.987 2.836,-1.851 5.673,-3.084 2.837,-1.233 1.974,-2.22 5.304,-2.343 3.33,-0.123 4.562,-0.617 6.906,-0.617 2.344,0 2.837,0.987 3.577,-0.616 0.74,-1.603 0.37,-3.207 0.74,-3.946 0.369,-0.74 2.59,-1.234 3.206,-1.728 0.616,-0.494 0.863,-1.479 0.987,-1.85 0.123,-0.37 0.123,-4.316 0.123,-4.934 0,-0.616 0.369,-1.604 -0.123,-2.467 -0.494,-0.863 -0.617,-0.739 -1.48,-1.11 -0.863,-0.369 0.617,-0.616 -0.863,-0.369 -1.48,0.246 -1.973,0.493 -2.713,1.233 -0.74,0.739 -0.617,0.739 -1.48,1.727 -0.863,0.986 -0.987,0.739 -1.974,1.356 -0.986,0.617 -1.479,0.123 -2.713,0.74 -1.234,0.617 -1.356,1.232 -0.863,1.85 0.493,0.618 1.85,1.727 0.863,2.467 -0.987,0.74 -0.493,0.617 -1.604,1.11 -1.11,0.493 -1.85,0.986 -2.837,0.986 -0.986,0 -1.603,0.493 -2.343,0 -0.74,-0.493 -1.726,-1.604 -0.74,-2.22 0.986,-0.617 1.11,-0.37 1.974,-1.11 0.863,-0.74 0.739,1.356 0.863,-0.74 0.124,-2.096 0.37,-2.59 -0.123,-3.33 -0.494,-0.739 -0.37,-0.862 -1.233,-2.097 -0.864,-1.232 -2.097,-1.604 -1.357,-2.836 0.74,-1.233 1.357,-1.48 2.467,-1.851 1.11,-0.37 1.727,-0.123 2.96,-1.603 1.233,-1.48 1.604,-3.947 1.851,-4.44 0.247,-0.493 -10e-4,-0.493 0.863,-1.727 0.864,-1.234 2.097,-1.604 2.467,-1.851 0.37,-0.246 0.247,-0.698 -1.233,-1.212 -1.48,-0.515 -2.591,-0.391 -0.864,-1.131 1.727,-0.74 2.097,-0.863 2.713,-1.604 0.617,-0.74 0.617,-0.617 0.986,-1.851 0.37,-1.232 0.247,-2.096 0.37,-3.083 0.124,-0.986 0.124,-0.986 0.124,-0.986 0,0 0,-2.22 0.123,-2.714 0.123,-0.492 0.617,-1.232 0.986,-1.603 0.37,-0.37 0.617,-0.493 1.11,-0.987 0.493,-0.493 0,-1.356 0.37,-2.22 0.37,-0.864 0.493,-0.493 0.74,-1.727 0.246,-1.233 1.48,-0.987 1.85,-1.11 0.37,-0.123 1.727,0 1.727,0 0,0 0.246,-1.22 1.109,-0.055 0.864,1.165 0.248,1.658 1.604,1.781 1.357,0.123 2.714,0.494 1.974,-0.863 -0.739,-1.356 0.247,-1.603 -0.739,-2.22 -0.987,-0.616 1.017,0.154 -0.987,-0.616 -2.004,-0.771 -1.291,-0.691 -1.291,-0.691 0,0 0.489,1.369 -0.713,-0.08 -1.202,-1.449 -0.586,-1.572 -1.079,-2.312 -0.493,-0.739 -0.987,-0.369 -1.851,-0.986 -0.862,-0.617 -1.603,0.739 -0.862,-0.617 0.739,-1.355 1.603,-1.85 0.246,-2.22 -1.357,-0.37 1.233,0.493 -1.356,-0.37 -2.591,-0.863 -2.344,-1.479 -3.577,-1.479 -1.233,0 -0.863,0.616 -1.85,0 -0.987,-0.616 -3.083,-1.11 -3.083,-1.11 l -0.37,-2.344 -0.247,-0.986 c 0,0 1.356,-0.986 0.493,-1.233 -0.863,-0.247 -0.37,-1.603 -1.85,0 -1.48,1.604 -1.233,1.974 -2.96,1.851 -1.726,-0.123 -3.207,-0.617 -3.7,-0.987 -0.493,-0.37 -0.948,-1.479 -1.152,-2.343 -0.204,-0.863 -0.328,-0.494 -0.821,-1.357 -0.493,-0.863 -0.863,-1.479 -0.37,-2.343 0.493,-0.864 0.493,-1.356 0.493,-1.356 0,0 0.163,-0.247 0.698,-0.986 0.536,-0.74 0.205,-0.74 0,-1.728 -0.204,-0.986 -0.535,-1.727 0,-2.59 0.536,-0.863 0.412,-1.306 1.152,-1.701 0.74,-0.396 0.986,-0.272 1.727,-1.259 0.741,-0.987 0.863,-1.233 -0.123,-2.22 -0.987,-0.987 -0.864,0.986 -0.987,-0.987 -0.123,-1.973 -0.493,-0.616 -0.123,-1.973 0.37,-1.357 1.11,-1.727 1.974,-1.85 0.863,-0.124 1.479,0.986 1.973,-0.74 0.494,-1.727 0,-2.097 0.617,-3.453 0.617,-1.357 0.863,-1.357 1.11,-2.467 0.247,-1.11 1.11,-1.357 1.11,-1.357 0,0 0.37,0.247 1.48,0.494 1.109,0.246 2.59,0.246 3.7,0 1.11,-0.247 2.22,1.232 3.207,-0.494 0.987,-1.726 2.097,-2.59 2.344,-3.453 0.247,-0.863 0.986,-2.375 0.986,-2.375 l 2.343,-0.092 c 0,0 0.441,0.785 0.899,0 0.458,-0.785 0.517,-1.188 0.717,-1.548 0.2,-0.36 0.81,-0.795 0.81,-0.795 0,0 0.463,-0.802 0.499,0.216 0.036,1.018 0,2.497 0,2.497 0,0 1.393,1.233 2.256,1.727 0.863,0.494 2.22,1.974 3.207,1.728 0.986,-0.247 2.343,-0.617 2.713,-0.987 0.37,-0.37 1.356,-1.233 2.22,-1.233 0.864,0 1.974,0.617 2.713,0.74 0.74,0.123 2.961,0.246 2.961,0.246 0,0 0.123,0.493 0.74,1.11 0.616,0.616 1.604,1.85 1.973,2.467 0.37,0.616 2.467,2.713 2.344,3.33 -0.123,0.616 0.617,2.591 1.356,2.837 0.74,0.246 1.48,0.986 2.714,-0.74 1.232,-1.727 1.603,-2.96 2.59,-3.33 0.986,-0.37 0.757,-0.863 2.352,-0.986 1.595,-0.123 2.211,0.492 2.581,-1.357 0.37,-1.85 0,-3.083 0.247,-4.439 0.247,-1.356 -0.123,-5.304 -0.493,-5.92 -0.37,-0.617 -0.74,-1.357 -1.233,-2.097 -0.493,-0.74 0.757,0 -1.102,-0.74 -1.859,-0.74 -1.365,-1.233 -2.599,-1.604 -1.234,-0.371 -0.986,-0.616 -2.467,0 -1.479,0.616 -1.974,0.987 -3.453,0.616 -1.48,-0.369 -2.344,0.729 -2.96,-0.992 -0.617,-1.721 0,-3.201 -0.863,-3.694 -0.863,-0.493 -1.356,0.124 -1.727,-0.739 -0.37,-0.863 -0.784,0.493 -1.07,-1.11 -0.286,-1.603 -0.207,-2.22 0,-2.96 0.207,-0.74 -0.445,-1.05 -0.921,-1.696 -0.476,-0.647 -0.722,0.093 -0.476,-0.647 0.246,-0.739 1.223,-0.992 0.872,-1.421 -0.351,-0.429 0.026,0.144 -0.351,-0.429 -0.377,-0.573 -0.128,-1.233 -0.128,-1.233 0,0 0.235,0.116 0.128,-0.38 -0.108,-0.497 -0.151,-1.224 -0.151,-1.224 -0.983,-0.385 -1.851,-0.863 -1.851,-0.863 -0.094,-0.856 -0.434,0.136 -0.094,-0.856 0.341,-0.993 0.574,-0.34 0.341,-0.993 -0.233,-0.654 -0.491,-0.743 -0.986,-0.987 -0.495,-0.244 -1.851,-1.355 -1.851,-1.355 0,0 -0.223,-0.021 0.259,-0.566 0.481,-0.544 0.765,-0.053 0.562,-1.162 -0.203,-1.109 -0.559,-1.44 -0.031,-2.107 0.527,-0.666 1.062,0.135 1.062,-1.222 0,-1.357 0.986,-1.11 0,-1.356 -0.987,-0.246 -0.494,-0.986 -1.728,0 -1.232,0.986 -0.863,1.48 -1.85,0.74 -0.986,-0.74 -0.863,-0.874 -1.48,-1.239 -0.616,-0.364 -0.986,0.981 -1.356,0 -0.37,-0.981 -1.85,-1.721 -2.836,-2.337 -0.987,-0.617 -1.233,-1.728 -1.604,-1.975 -0.37,-0.246 -0.616,-1.479 -1.233,-1.727 -0.617,-0.246 -0.986,-0.493 -1.604,-0.863 -0.617,-0.369 -0.617,-0.369 -0.617,-0.369 0,0 1.48,-0.37 1.974,-0.617 0.493,-0.246 2.837,-1.85 3.33,-1.85 0.493,0 3.207,-1.85 3.207,-1.85 0,0 1.15,-1.714 0.76,-2.77 -0.39,-1.055 -0.637,-1.918 -1.13,-2.041 -0.493,-0.123 -0.369,-1.604 -0.986,-2.467 -0.617,-0.863 -2.467,-2.097 -2.96,-2.96 -0.493,-0.863 -2.96,-3.083 -2.96,-3.083 l -1.974,-1.389 c 0,0 -2.59,-1.941 -3.206,-2.312 -0.617,-0.37 -4.688,-1.356 -4.688,-1.356 -0.713,-0.012 -1.426,-0.018 -2.139,-0.035 -0.997,-0.023 -1.932,0.281 -2.918,0.281 -0.617,0 -0.678,0.123 -0.678,0.617 0,0.493 0.308,0.555 0.678,0.739 0.37,0.186 0.247,0.493 0.247,0.493 l 0.37,1.572 -1.256,-0.462 -0.501,-0.185 c 0,0 -1.665,-1.388 -2.498,-1.943 -0.832,-0.555 -1.018,-1.295 -1.479,-1.572 -0.463,-0.277 -1.202,-0.555 -2.128,-0.925 -0.925,-0.37 -2.127,-2.312 -2.313,-2.867 -0.185,-0.556 -4.069,-3.33 -4.995,-4.348 -0.926,-1.018 -3.33,-2.498 -3.792,-2.683 -0.463,-0.186 -1.665,-1.203 -3.33,-2.498 -1.665,-1.295 -1.018,-1.479 -1.48,-1.479 -0.462,0 -1.572,-0.647 -3.329,-1.758 -1.758,-1.109 -1.758,-1.202 -2.405,-1.85 -0.647,-0.648 -0.37,-2.405 -0.555,-2.96 -0.185,-0.555 -0.278,-1.11 -1.11,-1.018 -0.833,0.093 -2.035,0.093 -3.237,0.463 -1.203,0.369 -2.035,0.832 -3.7,1.018 -1.665,0.185 -2.683,0.646 -3.515,1.41 -0.833,0.763 -3.238,0.347 -3.977,0.717 -0.74,0.37 -3.053,2.22 -3.516,2.312 -0.462,0.093 -2.312,0.647 -3.052,1.018 -0.74,0.371 -2.405,1.295 -2.868,1.758 -0.462,0.462 -1.757,1.387 -2.59,1.387 -0.833,0 -2.683,0.277 -3.146,0.556 -0.462,0.277 -2.497,1.018 -2.96,1.388 -0.462,0.369 -3.144,1.109 -5.18,1.85 -2.036,0.741 -2.96,0 -3.515,-0.093 -0.556,-0.093 -3.423,0.186 -5.273,0.186 -1.85,0 -3.793,-0.186 -5.18,-0.463 -1.387,-0.277 -2.127,-0.462 -2.868,-1.295 -0.74,-0.833 -0.277,-1.388 -0.925,-2.128 -0.647,-0.739 -1.11,-0.647 -2.22,-1.018 -1.11,-0.369 -1.388,-0.555 -2.22,-0.832 -0.832,-0.277 -0.74,-1.018 -1.573,-1.665 -0.832,-0.647 -1.202,-0.093 -2.127,0.093 -0.925,0.185 -1.295,0.647 -2.498,0.37 -1.202,-0.278 -1.85,-0.463 -2.22,-1.296 -0.37,-0.832 0.093,-1.109 -0.37,-1.664 -0.463,-0.556 -1.018,-0.648 -1.85,-0.74 -0.833,-0.093 -1.85,-0.186 -2.868,-0.37 -1.017,-0.185 -1.757,0 -2.405,0.555 -0.647,0.556 -0.277,1.388 0.278,2.035 0.555,0.647 1.202,0.463 2.312,1.018 1.11,0.555 1.295,0.37 1.757,1.202 0.463,0.833 0.74,1.665 0.926,2.128 0.185,0.462 0,2.128 0.185,2.96 0.185,0.832 1.018,0.647 1.665,1.48 0.647,0.832 1.11,1.202 1.85,1.757 0.74,0.556 1.387,0.833 1.665,1.573 0.277,0.739 0.37,1.572 0,2.774 -0.371,1.202 -0.648,1.11 -1.665,2.128 -1.017,1.018 -0.648,1.109 -0.278,1.572 0.37,0.463 -0.185,0.555 -0.647,0.277 -0.462,-0.277 -0.925,-0.647 -0.925,-1.295 0,-0.648 0.647,-0.925 1.11,-1.203 0.462,-0.277 0.832,-0.925 1.109,-1.479 0.278,-0.555 0,-1.11 -0.555,-2.22 -0.555,-1.11 -1.202,-1.11 -1.572,-1.942 -0.37,-0.833 -0.833,-0.833 -1.758,-1.388 -0.925,-0.555 -0.185,-1.203 -0.462,-1.388 -0.278,-0.185 -1.295,0.093 -1.757,0.555 -0.463,0.463 -0.37,0.647 -1.388,0.74 -1.018,0.093 -1.388,-0.37 -2.405,0 -1.017,0.37 -1.202,1.388 -1.665,2.033 -0.462,0.646 -1.387,0.742 -2.405,1.574 -1.017,0.833 -1.757,1.388 -2.96,1.573 -1.203,0.185 -2.127,0.277 -3.238,0.462 -1.109,0.185 -2.127,0.925 -2.774,1.479 -0.647,0.556 -1.388,0.74 -2.035,1.203 -0.647,0.463 -1.11,1.388 -1.572,1.85 -0.463,0.463 -1.758,0.37 -2.221,0.833 -0.462,0.462 -1.479,0.925 -2.312,1.157 -0.833,0.232 -2.035,0.415 -3.052,0.6 -1.017,0.186 -1.295,0.093 -1.85,0.556 -0.555,0.462 -1.387,0.093 -1.757,-0.722 -0.37,-0.814 -0.278,-0.296 -0.833,0.059 -0.555,0.355 -1.757,-0.262 -2.59,0.016 -0.833,0.277 -1.942,-0.093 -2.498,0 -0.555,0.092 -1.203,0.462 -1.666,0.832 -0.462,0.37 -0.739,1.11 -1.295,1.851 -0.555,0.739 -0.832,0.462 -1.48,0.647 -0.647,0.185 -1.388,0.369 -2.22,0.647 -0.833,0.277 -1.017,0.647 -1.573,1.202 -0.556,0.555 -0.925,1.018 -1.11,1.665 -0.186,0.647 -0.647,1.572 -0.647,1.572 0.555,-0.555 -0.186,3.146 -0.186,3.146 l -2.59,1.85 c 0,0 -1.85,1.295 -3.33,2.775 -1.479,1.479 -2.405,2.774 -3.145,3.885 -0.74,1.11 -0.74,1.11 -1.48,1.295 -0.74,0.186 -2.405,1.48 -3.145,2.59 -0.74,1.11 -0.186,2.775 -0.186,4.07 0,1.295 -0.555,1.85 -1.295,2.035 -0.74,0.185 -0.555,-0.926 -0.555,-1.851 0,-0.925 -0.555,-1.295 -0.186,-2.034 0.37,-0.74 0.74,-0.926 0.74,-0.926 0,0 -1.479,-0.555 -2.405,-0.185 -0.925,0.37 -0.925,1.479 -0.925,2.96 0,1.481 0.186,2.22 1.11,3.885 0.924,1.665 0,3.33 0,3.33 0,0 -0.185,4.625 -0.37,5.18 -0.185,0.556 -0.185,0.926 -1.11,2.221 -0.925,1.295 0,0 -0.185,0.74 -0.185,0.739 -0.37,1.479 -0.74,2.22 -0.37,0.739 -1.295,1.109 -2.22,2.405 -0.925,1.295 -1.48,1.109 -2.405,1.479 -0.925,0.37 -1.665,2.22 -2.405,3.33 -0.74,1.11 -1.85,0.185 -2.96,0.555 -1.11,0.37 -1.295,1.11 -2.035,2.22 -0.74,1.11 -1.85,0.926 -1.665,1.851 0.185,0.925 -0.74,1.295 -1.11,1.85 -0.37,0.556 -1.11,0.556 -2.035,1.295 -0.925,0.74 -2.96,4.255 -4.255,5.181 -1.295,0.925 -2.405,0.555 -4.07,0.369 -1.664,-0.185 -1.295,0.371 -2.404,-0.555 -1.11,-0.925 -0.556,-1.295 -0.556,-1.295 0,0 -0.37,1.295 -0.925,1.85 -0.555,0.556 -0.925,0.926 -1.665,2.221 -0.74,1.295 -1.665,0.37 -3.144,1.479 -1.481,1.11 -1.665,1.296 -2.22,2.591 -0.555,1.295 -0.74,1.109 -2.035,1.295 -1.295,0.185 -1.48,0.555 -1.665,1.479 -0.185,0.925 -1.295,1.11 -1.85,2.22 -0.555,1.11 0.555,1.295 -0.37,2.775 -0.925,1.48 -1.295,-0.37 -2.59,0.37 -1.295,0.74 -0.37,1.479 -0.185,2.774 0.185,1.295 -1.11,0.926 -2.22,0.926 -1.11,0 -1.666,0.185 -2.22,1.109 -0.555,0.926 -0.37,2.405 -0.185,3.516 0.185,1.109 -1.48,1.85 -1.48,1.85 0,0 -1.11,1.295 -1.665,1.665 -0.555,0.37 -0.74,2.22 -0.74,3.33 0,1.11 -1.295,1.295 -1.48,2.22 -0.185,0.926 1.11,1.665 2.035,1.851 0.925,0.185 1.295,0.555 2.405,0.925 1.11,0.37 1.11,-1.295 0.925,-2.221 -0.186,-0.925 0.555,-1.479 0.925,-2.404 0.37,-0.925 1.295,-0.186 2.22,0.185 0.925,0.37 1.11,0.925 2.775,0.925 1.665,0 0,0 0.37,-0.925 0.37,-0.925 1.665,-0.37 3.144,-0.37 1.481,0 0.74,1.11 1.665,0.926 0.925,-0.186 1.48,-1.665 2.405,-2.775 0.925,-1.11 1.295,-2.22 2.22,-2.775 0.925,-0.555 2.405,0.37 3.7,1.11 1.295,0.74 2.035,1.11 3.33,1.851 1.295,0.739 1.85,1.85 2.405,2.959 0.555,1.11 -0.555,1.666 -0.185,2.961 0.37,1.295 1.295,1.85 2.405,1.109 1.109,-0.74 0.555,-1.479 0.925,-2.404 0.37,-0.926 1.11,-0.926 2.22,-0.556 1.11,0.37 0.925,0 1.295,-0.555 0.37,-0.556 0.185,-1.48 0.37,-2.59 0.186,-1.11 -0.925,-0.556 -1.85,-0.556 -0.925,0 -0.37,-1.109 0,-1.85 0.37,-0.74 -0.185,-1.295 0,-2.59 0.185,-1.295 1.109,-2.405 2.22,-2.96 1.11,-0.556 1.481,-0.556 1.295,-1.48 -0.185,-0.925 -0.37,-0.925 -0.925,-1.479 -0.555,-0.556 2.035,-1.48 2.035,-1.48 0,0 0.555,-1.295 1.85,-2.035 1.295,-0.74 1.851,-0.74 4.255,-1.109 2.405,-0.37 2.405,-0.926 2.405,-0.926 0,0 0,0 -0.925,-0.185 -0.925,-0.185 -0.925,-0.74 0.74,-1.85 1.665,-1.11 1.109,-0.186 1.665,-0.556 0.555,-0.369 3.33,0 4.625,-0.185 1.295,-0.185 2.774,0.555 3.885,0.185 1.11,-0.369 0.37,-1.109 0.37,-2.404 0,-1.295 1.11,-0.186 2.035,-0.37 0.925,-0.186 5.55,-1.11 7.215,-1.295 1.665,-0.186 0.925,-0.925 2.774,-0.925 1.851,0 1.11,-0.74 2.775,-0.556 1.665,0.184 1.295,0.925 2.775,1.295 1.48,0.37 2.405,1.295 3.885,1.48 1.479,0.185 1.85,0.185 2.775,-0.74 0.925,-0.925 0,0 0.37,-0.555 0.37,-0.556 0.925,-0.556 2.035,-1.48 1.11,-0.925 0,0 0.74,-1.479 0.74,-1.48 0,0 0.925,0.369 0.925,0.37 0.74,1.295 0.74,1.295 0,0 0.37,1.666 0.925,2.035 0.555,0.37 1.11,-1.109 1.85,-1.664 0.74,-0.556 1.295,-0.926 2.035,-0.926 0.74,0 2.22,0 2.22,0 0,0 -1.11,1.11 -1.665,1.295 -0.555,0.186 -1.665,0.186 -1.85,0.74 -0.185,0.555 0.37,1.295 0.185,2.035 -0.185,0.74 -1.665,0.925 -1.665,0.925 0,0 -1.851,0.74 -3.886,0.74 -2.035,0 -0.925,-0.37 -2.035,-0.556 -1.11,-0.185 -1.11,-0.185 -1.295,0.74 -0.185,0.926 0.186,1.295 0.371,2.405 0.185,1.11 1.11,2.405 2.035,3.515 0.925,1.11 1.295,3.33 1.48,4.07 0.185,0.74 -0.556,2.405 -0.556,3.516 0,1.109 0.926,0.555 0.926,0.555 l -0.556,1.295 -2.22,1.665 c 0,0 0,0 0,-0.925 0,-0.926 -0.925,0.369 -0.925,0.369 0,0 -0.556,1.11 -0.74,2.221 -0.185,1.109 1.665,2.774 1.665,2.774 0,0 5.18,7.771 5.735,8.511 0.555,0.739 2.405,3.515 3.33,5.18 0.925,1.665 1.11,2.22 1.85,2.775 0.74,0.555 2.22,-0.37 3.145,-0.37 0.926,0 1.295,-2.035 1.665,-2.591 0.37,-0.555 2.035,-0.185 3.145,-0.369 1.11,-0.186 2.035,-0.926 2.775,-1.665 0.74,-0.74 4.995,-1.296 4.995,-1.296 l -1.665,0.74 -0.518,0.37 -2.072,1.48 c 0,0 -1.85,1.295 -2.59,1.85 -0.74,0.556 -2.035,1.851 -2.775,3.146 -0.739,1.295 -1.295,0.369 -1.85,0.369 -0.555,0 -1.665,1.48 -2.405,1.666 -0.74,0.185 -0.555,-0.926 -0.925,-1.48 -0.37,-0.554 -0.74,0.925 -1.11,2.22 -0.37,1.295 0.37,2.22 -0.37,3.33 -0.74,1.11 -1.851,2.22 -2.775,2.96 -0.924,0.74 -2.035,2.405 -3.145,4.44 -1.11,2.034 -1.665,4.625 -2.22,6.475 -0.555,1.851 -0.74,3.33 -0.74,4.255 0,0.926 0.925,-0.185 2.22,0.186 1.295,0.369 2.035,0.555 2.775,1.109 0.74,0.556 -0.925,0.37 -2.035,0.556 -1.11,0.185 -2.035,0 -2.035,0 0,0 0,0 0.74,0.555 0.74,0.555 0.925,1.11 1.48,2.22 0.555,1.11 1.11,2.775 2.22,4.255 1.11,1.48 2.22,4.995 2.405,6.105 0.185,1.11 1.85,-0.185 2.775,0.185 0.925,0.37 2.404,-1.479 3.515,-1.295 1.11,0.186 3.885,-1.109 4.81,-1.85 0.926,-0.74 2.221,-0.37 3.516,-0.925 1.295,-0.556 1.85,-0.37 2.404,0.555 0.556,0.925 -1.665,1.11 -2.96,1.85 -1.294,0.74 -1.294,2.035 -2.774,2.405 -1.48,0.37 -1.48,1.665 -2.96,2.405 -1.48,0.739 -1.48,0.925 -4.255,0.739 -2.775,-0.185 0,0 -0.555,-0.555 -0.555,-0.555 -0.74,-1.295 -1.48,-1.479 -0.74,-0.186 -0.555,1.109 -0.74,1.665 -0.185,0.555 0.555,2.22 0.74,3.699 0.185,1.48 0,2.405 -0.186,3.886 -0.185,1.479 0,2.22 -0.925,3.33 -0.925,1.109 -0.555,1.479 -1.11,2.774 -0.555,1.295 -1.11,4.255 -1.48,5.735 -0.37,1.479 0,1.665 -0.925,2.96 -0.925,1.295 0,1.665 -0.555,2.405 -0.555,0.739 0.185,2.59 0,4.255 -0.185,1.665 -1.295,2.035 -2.035,3.145 -0.74,1.11 -1.11,3.885 -1.851,6.105 -0.74,2.22 -0.185,2.035 -1.109,3.33 -0.925,1.295 -0.74,1.665 -0.925,2.96 -0.185,1.295 -0.925,1.295 -2.035,2.22 -1.11,0.925 -1.48,2.035 -1.85,3.7 -0.37,1.665 -1.85,0.925 -2.59,1.295 -0.74,0.37 -0.74,2.22 -1.85,3.515 -1.11,1.295 -1.48,2.96 -2.591,3.7 -1.109,0.74 -2.96,2.035 -4.44,2.035 -1.48,0 -2.22,0.925 -2.775,1.665 -0.555,0.74 -1.85,1.85 -3.144,2.59 -1.295,0.74 -2.405,2.775 -3.885,3.33 -1.48,0.555 -1.665,0.37 -2.775,0.555 -1.11,0.186 -1.295,0.186 -2.59,-1.109 -1.295,-1.295 0,0 -1.481,0.369 -1.479,0.37 -1.479,0.74 -1.85,1.851 -0.371,1.111 -0.74,2.035 -2.035,2.774 -1.295,0.74 -2.035,2.035 -2.775,2.405 -0.739,0.37 -2.034,1.11 -2.404,1.851 -0.37,0.739 -1.11,1.109 -2.59,0.925 -1.48,-0.186 -0.926,0.37 -1.11,1.479 -0.185,1.11 -0.925,0.926 -2.405,2.035 -1.479,1.11 -0.185,1.665 -1.479,2.59 -1.295,0.926 -2.96,1.48 -4.07,1.665 -1.11,0.186 -1.85,0 -2.775,0 -0.925,0 -0.925,-1.109 -0.74,-1.665 0.185,-0.555 -1.48,-0.369 -2.775,0.186 -1.295,0.555 -1.48,0.925 -2.775,0.925 -1.295,0 -2.405,0 -4.625,0.37 -2.22,0.37 -2.59,0.74 -3.515,1.109 -0.925,0.37 -3.144,0.37 -4.07,0.556 -0.925,0.185 -0.555,1.11 -0.185,2.59 0.37,1.479 0.185,1.665 1.11,2.035 0.925,0.37 0.555,1.85 0.555,2.59 0,0.74 -1.11,1.85 -1.11,1.85 0,0 -0.185,-2.034 -0.185,-2.96 0,-0.925 -1.11,-0.369 -2.405,-1.109 -1.295,-0.74 -1.479,-1.11 -2.59,-1.851 -1.11,-0.739 -1.11,-0.185 -1.665,0.37 -0.555,0.555 -1.295,1.85 -1.11,2.59 0.186,0.74 0,1.665 -0.739,2.405 -0.74,0.74 -0.925,1.851 -1.851,2.775 -0.925,0.925 -2.035,2.96 -3.33,3.885 -1.295,0.925 -2.035,0.555 -3.515,0.185 -1.48,-0.369 -1.11,0.37 -1.665,0.926 -0.555,0.555 -1.11,1.109 -1.85,2.034 -0.74,0.925 -0.925,1.48 0,2.035 0.925,0.556 0.185,1.11 1.295,1.851 1.109,0.739 0.74,1.479 0.74,1.479 0,0 -1.48,0 -3.885,-0.555 -2.405,-0.556 -2.96,-0.186 -4.81,-0.925 -1.85,-0.74 0,0 -0.74,-0.926 -0.74,-0.925 -1.11,-0.369 -2.22,0 -1.11,0.37 -0.37,1.295 0.37,1.851 0.74,0.555 -0.925,0.739 -1.11,1.479 -0.185,0.74 -0.555,1.11 -1.665,0.926 -1.11,-0.186 -1.48,1.479 -2.59,1.664 -1.11,0.186 -1.665,1.295 -2.405,0.37 -0.74,-0.925 -0.185,-0.925 -0.185,-1.665 0,-0.739 -0.926,-0.369 -1.851,-0.555 -0.925,-0.185 -0.555,-1.85 -0.74,-2.405 -0.185,-0.555 -0.925,-0.555 -2.59,-0.37 -1.666,0.186 -1.48,0.186 -2.035,-0.185 -0.555,-0.37 -0.925,-0.37 -1.665,-0.74 -0.74,-0.37 -2.59,0.925 -3.33,0.37 -0.74,-0.555 -0.926,-0.74 -2.035,0 -1.11,0.74 -0.74,1.48 -1.48,2.405 -0.74,0.925 -0.37,0.925 0.925,1.85 1.295,0.925 0,0 0,1.665 0,1.665 0,0 -1.85,1.295 -1.85,1.295 0,0 0.185,1.295 0.185,1.295 0,0 0,1.48 0,1.48 0,0 0.555,1.85 0.555,1.851 0,0 -0.555,0.556 -0.555,0.555 -0.925,0.185 -2.22,0.925 -1.295,0.74 0,0 -1.295,0.37 -1.295,0.37 -0.555,0.925 -1.85,0 -1.295,-0.925 -1.665,0.37 -1.85,0.925 -0.185,0.555 -0.37,1.109 -1.48,1.665 -1.11,0.555 -1.295,0.37 -2.22,0.555 -0.925,0.186 -1.48,-0.185 -2.775,-0.37 -1.295,-0.185 -0.74,1.11 -1.665,1.851 -0.925,0.739 -0.37,1.479 -1.85,2.22 -1.48,0.74 0,0 -1.295,0.37 -1.295,0.37 -1.295,0.555 -2.405,1.479 -1.11,0.926 -2.775,1.665 -4.07,2.405 -1.295,0.74 -1.85,-0.37 -2.59,-0.185 -0.74,0.185 -2.59,0.925 -3.146,2.035 -0.555,1.109 1.666,0.555 1.666,0.555 0,0 0,0 0.925,1.295 0.925,1.295 -0.37,1.109 -0.925,1.85 -0.555,0.74 -1.48,0.37 -1.48,1.48 0,1.109 0.74,1.109 0.74,1.85 0,0.741 -1.851,2.221 -1.48,2.775 0.37,0.555 1.85,-0.925 2.59,-0.555 0.74,0.369 1.851,-0.556 3.146,-1.48 1.295,-0.925 1.479,-0.925 3.7,-0.925 2.22,0 5.365,0 5.92,0.37 0.555,0.369 0.925,0.369 2.035,0.555 1.11,0.186 1.295,0 2.035,0.925 0.74,0.925 5.55,0.37 6.105,0.556 0.555,0.185 1.85,3.145 2.22,3.699 0.37,0.556 0.37,3.33 0.555,3.885 0.185,0.556 0.926,2.221 1.295,3.146 0.37,0.925 -0.555,4.625 0,6.104 0.555,1.48 -1.11,2.035 -2.59,2.775 -1.48,0.74 -1.85,-0.37 -1.85,-0.37 0,0 -2.035,0 -3.33,0.37 -1.295,0.37 -2.035,1.48 -2.775,2.775 -0.739,1.295 -2.22,1.109 -2.774,0.925 -0.555,-0.185 -0.555,1.479 -0.555,2.774 0,1.296 -0.925,1.666 -2.775,1.11 -1.85,-0.555 -2.405,-0.185 -3.33,-0.555 -0.925,-0.37 -0.74,0.925 -0.185,1.479 0.555,0.556 2.59,2.035 4.069,2.221 1.48,0.185 0.925,0.369 2.96,2.404 2.035,2.035 0,0 1.481,1.851 1.48,1.85 -0.185,1.11 0.185,2.405 0.37,1.295 0.925,1.479 2.59,1.85 1.665,0.37 0,0 -0.37,-0.925 -0.37,-0.925 1.48,-1.11 1.48,-1.11 0,0 0.925,-1.109 0.74,-2.59 -0.186,-1.48 -0.925,-0.925 -1.85,-1.48 -0.925,-0.555 0,0 -0.925,-2.404 -0.925,-2.405 0.555,-0.926 1.665,0 1.11,0.925 0.555,0.925 2.035,1.479 1.48,0.556 1.11,-0.37 3.7,-0.555 2.59,-0.185 0,0 1.85,-0.185 1.851,-0.186 -0.185,-1.296 0.74,-1.48 0.925,-0.186 1.665,2.59 2.405,3.33 0.74,0.74 1.295,0.555 3.145,-0.186 1.851,-0.739 1.11,0.37 2.775,-0.555 1.665,-0.925 0,0 0.925,0.37 0.925,0.37 1.665,0.925 2.59,1.295 0.925,0.37 2.035,0.925 3.33,1.295 1.295,0.37 1.48,-0.925 2.405,-1.295 0.925,-0.37 2.035,0.185 3.33,-0.37 1.295,-0.555 0.925,-0.37 2.035,-0.555 1.11,-0.186 1.11,0.185 2.59,-0.74 1.479,-0.925 0,0 1.295,-0.37 1.295,-0.37 1.665,-0.37 2.405,0.186 0.74,0.555 -0.925,1.295 -1.85,1.479 -0.925,0.186 -1.295,0.186 -2.22,0.74 -0.925,0.555 0.925,1.665 0,1.85 -0.925,0.186 -1.295,0 -1.11,-1.109 0.186,-1.11 -1.11,-0.37 -1.11,-0.37 l -1.665,0.925 c 0,0 -1.48,0.186 -2.035,0.37 -0.555,0.185 -1.481,1.479 -2.035,1.479 -0.554,0 2.22,1.295 2.96,1.295 0.74,0 3.7,0.186 4.255,0.926 0.555,0.74 -1.85,0.74 -2.775,0.74 -0.925,0 -1.85,0.185 -3.145,0.185 -1.295,0 -1.85,0.185 -2.22,-0.74 -0.37,-0.925 0,-1.295 -0.74,-2.22 -0.74,-0.925 -1.11,0 -2.775,-0.186 -1.666,-0.185 -1.295,0.186 -3.33,-0.369 -2.035,-0.556 -1.48,-0.74 -2.405,-0.37 -0.925,0.37 -0.37,0.925 0.739,2.034 1.11,1.11 -0.369,1.295 -1.294,1.11 -0.925,-0.185 -1.295,0.185 -2.405,-0.185 -1.11,-0.37 -0.74,-0.926 -0.925,-1.851 -0.185,-0.925 -0.925,-0.739 -2.035,-0.739 -1.11,0 -1.481,-0.556 -2.775,-0.556 -1.295,0 0,1.11 0.37,2.22 0.37,1.11 -2.22,0.37 -2.22,0.37 0,0 2.22,2.405 3.144,2.96 0.925,0.556 3.515,0.74 4.44,0.74 0.925,0 0.925,0.555 1.479,1.11 0.555,0.555 0.555,2.22 0.74,3.145 0.185,0.925 0.555,2.035 -0.185,2.591 -0.74,0.555 -1.11,1.664 -0.185,3.145 0.925,1.481 0.925,0 2.035,0.185 1.11,0.186 1.665,0.556 3.885,1.296 2.22,0.739 1.85,0.925 4.07,0.555 2.22,-0.37 1.665,0.925 2.59,1.665 0.925,0.739 1.85,0.739 2.59,0.739 0.74,0 2.035,0.556 2.775,0 0.74,-0.555 0.555,-1.85 1.479,-2.22 0.924,-0.37 1.851,0.186 2.405,-0.555 0.555,-0.74 -0.74,-1.48 -0.74,-1.48 0,0 0,0 -0.185,-1.109 -0.185,-1.11 0.925,-0.925 1.85,-1.665 0.925,-0.74 1.665,-1.48 3.7,-3.33 2.035,-1.85 0,0 1.85,0.185 1.85,0.186 2.035,0 2.96,0.186 0.925,0.185 2.22,0.37 2.775,0.925 0.555,0.555 1.48,0.74 2.59,1.109 1.11,0.371 0.555,-1.109 1.665,-1.85 1.11,-0.74 1.295,-0.925 1.85,-1.479 0.555,-0.556 4.44,-0.74 5.92,-1.11 1.479,-0.37 0,0 0.925,-2.59 0.925,-2.59 0,0 0.555,-0.74 0.555,-0.74 0.555,-0.925 0.37,-2.035 -0.185,-1.109 0.555,-1.295 2.035,-3.33 1.479,-2.035 0,0 -0.555,-0.925 -0.555,-0.925 -0.925,-2.405 -0.185,-4.255 0.74,-1.85 1.481,-1.665 3.515,-2.59 2.035,-0.925 2.405,-0.925 3.885,-0.74 1.479,0.186 1.295,-0.74 2.96,-0.925 1.665,-0.185 3.144,0.74 4.439,0.555 1.295,-0.185 2.221,-0.739 3.885,-1.11 1.665,-0.369 5.365,0.74 7.585,1.11 2.22,0.37 5.18,0.925 5.92,0.556 0.739,-0.37 1.85,-0.556 2.96,-1.851 1.11,-1.295 -0.37,-1.295 -1.48,-2.035 -1.11,-0.739 -1.295,-1.479 -2.405,-2.034 -1.11,-0.556 -0.555,-1.48 0.74,-2.775 1.295,-1.295 0,0 -0.37,-1.48 -0.37,-1.479 -1.295,-2.035 -1.295,-2.035 0,0 1.851,0.37 2.59,1.295 0.74,0.926 0.556,1.48 0.186,2.591 -0.37,1.109 0.37,1.109 1.295,1.85 0.925,0.741 1.295,0.556 2.405,0.925 1.109,0.37 1.665,0.556 2.96,-1.665 1.295,-2.22 0,0 1.295,-1.109 1.295,-1.11 0.74,-1.665 1.295,-2.591 0.555,-0.925 1.295,-1.479 1.295,-1.479 0,0 -0.185,2.59 -0.74,3.33 -0.555,0.74 -0.74,2.22 -1.295,3.885 -0.555,1.665 0.74,2.775 1.295,3.886 0.555,1.109 2.035,0.185 3.33,0.185 1.295,0 2.22,0.925 2.775,1.11 0.555,0.185 0.74,1.109 1.11,1.85 0.37,0.74 -1.85,0.37 -2.59,0 -0.74,-0.37 -1.295,-0.925 -1.295,-0.925 0,0 -1.479,0.185 -2.96,0 -1.48,-0.186 -2.22,0.185 -2.96,0.37 -0.74,0.185 1.48,1.85 1.665,2.59 0.185,0.74 2.96,4.07 3.885,4.995 0.925,0.925 4.811,4.625 6.106,4.995 1.295,0.369 1.479,0.555 2.404,0.369 0.926,-0.185 1.666,-0.185 2.591,0 0.925,0.186 -0.556,-1.479 -0.556,-1.479 0,0 0.925,-0.556 2.405,-0.74 1.48,-0.185 1.48,0 3.33,-0.925 1.85,-0.925 1.665,-0.186 3.7,0.185 2.035,0.37 1.295,-0.185 2.22,0.74 0.925,0.925 0.185,2.035 0.74,2.775 0.555,0.739 0.555,-1.851 0.555,-1.851 0,0 0.74,1.11 1.48,1.48 0.74,0.37 -0.37,1.479 -0.37,1.479 0,0 1.295,1.48 2.404,1.665 1.11,0.186 1.666,-1.109 2.775,-1.109 1.11,0 3.885,-0.74 4.625,-0.74 0.74,0 2.405,0.925 2.405,0.925 0,0 -1.11,0.556 -2.035,0.556 -0.925,0 -1.85,0.369 -2.775,1.109 -0.925,0.74 -1.11,1.11 -1.85,1.295 -0.74,0.186 -1.48,0.37 -2.22,1.48 -0.74,1.109 -0.555,1.295 -1.665,1.665 -1.11,0.37 -1.11,0.925 -2.035,1.109 -0.925,0.186 -1.48,-0.185 -2.775,0 -1.295,0.186 -2.22,-0.37 -2.96,-0.37 -0.74,0 -1.479,0.37 -2.59,-0.369 -1.11,-0.74 -1.48,0.555 -1.85,-0.186 -0.37,-0.74 0.555,-1.665 1.109,-1.85 0.556,-0.186 0.37,-0.926 0,-1.48 -0.37,-0.555 -1.295,-0.925 -1.664,0.37 -0.37,1.295 -0.185,1.295 -0.925,2.22 -0.74,0.926 -2.22,1.851 -3.885,3.516 -1.665,1.665 -2.59,0.185 -3.515,1.295 -0.925,1.109 0.925,1.665 1.665,3.33 0.74,1.665 0.74,3.885 0.555,4.994 -0.185,1.11 -1.665,1.851 -0.74,2.035 0.925,0.186 2.035,0.186 2.775,0.556 0.74,0.37 1.85,0.925 2.774,2.034 0.925,1.11 2.405,1.666 3.885,2.035 1.48,0.37 2.035,1.11 2.775,1.48 0.74,0.37 0.185,-1.85 0.185,-2.405 0,-0.555 1.11,-0.925 1.665,-0.555 0.555,0.37 2.775,0.37 3.145,0.925 0.37,0.555 1.85,0.74 2.59,0.555 0.74,-0.185 0.555,-1.109 0.37,-1.664 -0.185,-0.556 -1.295,-0.926 -2.035,-1.296 -0.74,-0.37 0.74,-1.479 1.295,-2.034 0.556,-0.556 1.11,-1.11 3.146,-1.295 2.035,-0.186 2.035,-0.186 2.775,0.369 0.74,0.556 1.294,0.74 2.96,0.926 1.665,0.185 2.22,0.925 2.96,1.479 0.74,0.554 0.925,-0.925 1.48,-1.479 0.555,-0.556 1.11,-0.37 1.85,-0.74 0.74,-0.37 2.035,0.555 2.96,0.555 0.925,0 1.295,-0.555 2.035,-0.185 0.74,0.37 1.48,0.925 2.59,0.739 1.11,-0.185 1.48,-0.555 1.11,-1.479 -0.37,-0.924 -1.48,-0.925 -2.405,-1.48 -0.925,-0.555 -0.37,-3.145 0.74,-4.995 1.11,-1.85 1.295,-0.369 2.59,-1.295 1.295,-0.925 1.11,-1.295 2.96,-1.664 1.851,-0.371 1.665,0.185 3.885,-0.556 2.22,-0.74 0,0 2.035,0.74 2.035,0.74 0,0 0.925,-0.556 0.925,-0.555 1.11,-0.185 2.96,-0.185 1.85,0 1.295,-0.555 2.96,-0.74 1.665,-0.185 0.925,-0.555 1.665,-1.109 0.74,-0.556 1.665,-0.37 1.109,0.37 -0.555,0.739 -0.74,2.404 -0.74,2.404 0,0 0.37,1.11 1.11,2.035 0.74,0.925 2.035,2.59 3.33,3.7 1.295,1.11 1.295,1.479 1.48,2.59 0.185,1.111 2.22,2.22 2.035,3.33 -0.185,1.11 1.48,3.146 2.405,4.44 0.925,1.294 0.37,3.33 1.11,4.625 0.74,1.295 0.555,1.85 0.555,2.59 0,0.74 1.85,1.665 2.59,2.035 0.74,0.369 1.11,2.774 1.48,3.699 0.37,0.926 2.405,0.556 4.255,0.37 1.85,-0.185 1.665,-0.555 2.96,-0.925 1.295,-0.37 1.85,0.37 2.775,1.295 0.925,0.925 0.925,2.035 0.74,2.96 -0.185,0.925 1.48,1.11 2.775,2.035 1.295,0.925 2.035,1.479 2.035,2.035 0,0.555 1.11,1.11 2.59,1.85 1.479,0.74 0.74,3.33 1.479,3.33 0.74,0 1.85,2.96 2.59,3.7 0.74,0.74 1.85,0.74 4.07,0.186 2.22,-0.556 1.851,0.555 3.146,0.555 1.295,0 1.85,0.925 3.145,0.74 1.295,-0.186 2.59,0.555 3.146,0.739 0.555,0.186 2.96,0.925 5.364,0.74 2.405,-0.185 1.48,0.74 2.035,0.925 0.556,0.186 3.33,0.37 4.44,0.37 1.11,0 4.44,-0.555 5.92,-1.11 1.48,-0.555 2.59,-1.109 4.625,0 2.035,1.11 0,0 1.85,-0.555 1.851,-0.555 1.295,-0.37 2.775,-1.109 1.48,-0.74 1.665,-0.556 2.96,-1.295 1.295,-0.74 1.11,-0.74 2.59,-0.926 1.48,-0.185 1.85,0.74 2.96,0.74 1.11,0 2.035,-0.37 2.96,-1.48 0.925,-1.109 0.186,-2.404 0.186,-3.699 0,-1.295 0.37,-2.405 0.739,-3.33 0.37,-0.926 -0.185,-1.665 -1.295,-2.035 -1.109,-0.37 -0.555,-1.295 -0.74,-2.22 -0.185,-0.925 0.185,-1.48 1.295,-1.665 1.109,-0.186 0,1.479 0.739,2.404 0.74,0.926 1.11,0.37 2.035,0 0.925,-0.369 1.295,-1.295 1.665,-2.59 0.37,-1.295 -0.185,-1.109 0.186,-2.404 0.37,-1.295 0.925,-0.556 0.925,-2.405 0,-1.851 0,0 1.109,-0.186 1.11,-0.185 2.221,-0.37 3.516,-0.555 1.295,-0.185 1.665,-2.22 2.405,-2.59 0.74,-0.37 1.85,-1.48 3.33,-2.035 1.48,-0.555 1.851,-1.11 2.775,-1.295 0.924,-0.185 1.48,-1.295 3.7,-2.405 2.22,-1.109 1.479,-3.699 2.405,-4.625 0.925,-0.925 1.109,-0.925 0.74,-1.85 -0.371,-0.925 -0.371,-1.665 -0.371,-1.665 0,0 1.48,1.11 2.221,1.665 0.741,0.555 -0.555,1.85 -1.295,2.404 -0.74,0.556 -0.186,1.48 0.555,2.221 0.741,0.741 3.145,0.74 5.18,0.555 2.035,-0.185 2.221,0 2.405,0.74 0.185,0.74 2.59,-0.37 4.07,-0.925 1.479,-0.556 4.81,-1.11 6.29,-2.405 1.479,-1.295 4.625,-2.59 6.66,-3.885 2.035,-1.295 4.994,-1.851 7.029,-2.59 2.035,-0.74 2.96,-0.556 3.33,-1.295 0.37,-0.74 1.295,-1.666 2.221,-2.961 0.925,-1.295 1.295,-0.739 2.22,-1.664 0.4,-0.401 0.702,-0.879 1.075,-1.291 0.347,-0.382 0.481,-0.704 0.923,-0.998 z" />
			</g><rect
   style="fill:none;stroke:#000000;stroke-width:0.29998;stroke-linejoin:bevel;stroke-dasharray:none;paint-order:stroke fill markers"
   id="rect2"
   height="4390.293"
   x="0.19998971"
   y="0.19998971"
   ry="0.69917101"
   width="4353.8188" /></svg>
