<?xml version="1.0" encoding="UTF-8" standalone="no"?>
<!-- Generator: Adobe Illustrator 22.1.0, SVG Export Plug-In . SVG Version: 6.00 Build 0)  -->

<svg
   version="1.1"
   x="0px"
   y="0px"
   viewBox="0 0 8000.1192 6090.5928"
   enable-background="new 0 0 1995.865 2834.646"
   xml:space="preserve"
   id="svg1596"
   width="8000.1191"
   height="6090.5928"
   xmlns="http://www.w3.org/2000/svg"
   xmlns:svg="http://www.w3.org/2000/svg"><defs
   id="defs1596"><filter
     style="color-interpolation-filters:sRGB"
     id="filter1"
     x="-2.9948451e-05"
     y="-3.9344814e-05"
     width="1.0000599"
     height="1.0000787"><feTurbulence
       type="fractalNoise"
       numOctaves="5"
       seed="1"
       baseFrequency="0.013 0.013"
       result="turbulence"
       id="feTurbulence1" /><feDisplacementMap
       in="SourceGraphic"
       in2="turbulence"
       scale="20.122"
       yChannelSelector="G"
       xChannelSelector="R"
       id="feDisplacementMap1"
       result="fbSourceGraphic" /><feColorMatrix
       result="fbSourceGraphicAlpha"
       in="fbSourceGraphic"
       values="0 0 0 -1 0 0 0 0 -1 0 0 0 0 -1 0 0 0 0 1 0"
       id="feColorMatrix18" /><feTurbulence
       id="feTurbulence18"
       type="fractalNoise"
       baseFrequency="0.04"
       numOctaves="5"
       seed="0"
       result="result4" /><feDisplacementMap
       id="feDisplacementMap18"
       in="fbSourceGraphic"
       in2="result4"
       yChannelSelector="G"
       xChannelSelector="R"
       scale="10"
       result="result3" /><feDiffuseLighting
       id="feDiffuseLighting18"
       lighting-color="#e9e6d7"
       diffuseConstant="1"
       surfaceScale="2"
       result="result1"
       in="result4"><feDistantLight
         id="feDistantLight18"
         azimuth="235"
         elevation="40" /></feDiffuseLighting><feComposite
       id="feComposite18"
       operator="in"
       in="result3"
       in2="result1"
       result="result2" /><feComposite
       id="feComposite19"
       in2="result1"
       result="result5"
       operator="arithmetic"
       k1="1.7"
       k2="0"
       k3="0"
       k4="0" /><feBlend
       id="feBlend19"
       in="result5"
       in2="result3"
       mode="normal" /></filter></defs>


<path
   id="rect2"
   style="fill:#755020;fill-opacity:1;stroke:#000000;stroke-width:0.478914;stroke-linejoin:bevel;stroke-dasharray:none;paint-order:stroke fill markers;filter:url(#filter1)"
   d="m 1.2089844,0.24023438 c -0.5373097,0 -0.96875002,0.43144032 -0.96875002,0.96875002 V 6089.3848 c 0,0.5373 0.43144032,0.9687 0.96875002,0.9687 H 7998.9102 c 0.5373,0 0.9687,-0.4314 0.9687,-0.9687 V 1.2089844 c 0,-0.5373097 -0.4314,-0.96875002 -0.9687,-0.96875002 z M 1801.1914,813.90039 h 4352.4199 c 0.3874,0 0.6992,0.31188 0.6992,0.69922 V 5203.4941 c 0,0.3874 -0.3118,0.6993 -0.6992,0.6993 H 1801.1914 c -0.3873,0 -0.6992,-0.3119 -0.6992,-0.6993 V 814.59961 c 0,-0.38734 0.3119,-0.69922 0.6992,-0.69922 z" /><path
   id="path19"
   style="fill:#292824;fill-opacity:1;stroke:#000000;stroke-width:0.478914;stroke-linejoin:bevel;stroke-dasharray:none;paint-order:stroke fill markers;filter:url(#filter1)"
   d="m 2.2402344,6088.3535 c 2665.2128656,0 5330.4257656,0 7995.6386656,0 0,-2028.7044 0,-4057.4088 0,-6086.1132656 -2665.2129,0 -5330.4258,0 -7995.6386656,0 0,2028.7044656 0,4057.4088656 0,6086.1132656 z M 6153.6113,811.90039 c 1.6081,-0.0367 2.9057,1.52921 2.6992,3.09922 0,1462.83149 0,2925.66299 0,4388.49449 0.037,1.6081 -1.5292,2.9057 -3.0992,2.6993 -1450.6733,0 -2901.3466,0 -4352.0199,0 -1.608,0.037 -2.9056,-1.5293 -2.6992,-3.0993 0,-1462.8315 0,-2925.663 0,-4388.49449 -0.037,-1.60804 1.5292,-2.90563 3.0992,-2.69922 1450.6733,0 2901.3466,0 4352.0199,0 z"
   transform="matrix(1.01,0,0,1.01,-40.000594,-30.452968)" /></svg>
