<?xml version="1.0" encoding="UTF-8" standalone="no"?>
<!-- Generator: Adobe Illustrator 22.1.0, SVG Export Plug-In . SVG Version: 6.00 Build 0)  -->

<svg
   version="1.1"
   x="0px"
   y="0px"
   viewBox="0 0 8000.1192 6090.5928"
   enable-background="new 0 0 1995.865 2834.646"
   xml:space="preserve"
   id="svg1596"
   width="8000.1191"
   height="6090.5928"
   sodipodi:docname="border.svg"
   inkscape:version="1.3.2 (091e20e, 2023-11-25, custom)"
   xmlns:inkscape="http://www.inkscape.org/namespaces/inkscape"
   xmlns:sodipodi="http://sodipodi.sourceforge.net/DTD/sodipodi-0.dtd"
   xmlns="http://www.w3.org/2000/svg"
   xmlns:svg="http://www.w3.org/2000/svg"><sodipodi:namedview
   id="namedview1"
   pagecolor="#ffffff"
   bordercolor="#000000"
   borderopacity="0.25"
   inkscape:showpageshadow="2"
   inkscape:pageopacity="0.0"
   inkscape:pagecheckerboard="0"
   inkscape:deskcolor="#d1d1d1"
   showgrid="false"
   inkscape:zoom="0.062568079"
   inkscape:cx="5609.8894"
   inkscape:cy="1814.0241"
   inkscape:window-width="1259"
   inkscape:window-height="981"
   inkscape:window-x="651"
   inkscape:window-y="0"
   inkscape:window-maximized="0"
   inkscape:current-layer="svg1596" /><defs
   id="defs1596" />


<path
   id="rect2"
   style="fill:#e1e6e4;fill-opacity:1;stroke:#000000;stroke-width:0.478914;stroke-linejoin:bevel;stroke-dasharray:none;paint-order:stroke fill markers"
   d="m 1.2089844,0.24023438 c -0.5373097,0 -0.96875002,0.43144032 -0.96875002,0.96875002 V 6089.3848 c 0,0.5373 0.43144032,0.9687 0.96875002,0.9687 H 7998.9102 c 0.5373,0 0.9687,-0.4314 0.9687,-0.9687 V 1.2089844 c 0,-0.5373097 -0.4314,-0.96875002 -0.9687,-0.96875002 z M 1801.1914,813.90039 h 4352.4199 c 0.3874,0 0.6992,0.31188 0.6992,0.69922 V 5203.4941 c 0,0.3874 -0.3118,0.6993 -0.6992,0.6993 H 1801.1914 c -0.3873,0 -0.6992,-0.3119 -0.6992,-0.6993 V 814.59961 c 0,-0.38734 0.3119,-0.69922 0.6992,-0.69922 z" /></svg>
