<?xml version="1.0" encoding="UTF-8" standalone="no"?>
<!-- Generator: Adobe Illustrator 22.1.0, SVG Export Plug-In . SVG Version: 6.00 Build 0)  -->

<svg
   version="1.1"
   x="0px"
   y="0px"
   viewBox="0 0 4354.1187 4390.5933"
   enable-background="new 0 0 1995.865 2834.646"
   xml:space="preserve"
   id="svg1596"
   width="4354.1187"
   height="4390.5933"
   xmlns="http://www.w3.org/2000/svg"
   xmlns:svg="http://www.w3.org/2000/svg"><defs
   id="defs1596" />


<path
   id="Carlow_2_"
   fill="#606F38"
   d="m 1798.5005,2691.7881 c 0,0 -0.449,-0.776 -1.467,-1.794 -1.018,-1.018 -1.573,-2.774 -2.22,-3.7 -0.647,-0.925 -1.565,0.093 -1.522,-1.665 0.042,-1.757 -0.32,-2.59 0,-3.515 0.32,-0.925 -0.143,-1.601 -1.067,-2.65 -0.925,-1.05 -0.833,-3.055 -2.405,-2.283 -1.573,0.771 -2.683,1.141 -3.33,1.233 -0.647,0.093 -1.355,-1.233 -1.355,-1.233 0,0 0.626,-0.85 0.61,-1.1 -0.016,-0.25 -0.439,-0.36 -0.31,-1.089 0.129,-0.729 0.184,-0.65 0.241,-1.2 0.057,-0.549 -0.136,-1.561 0.131,-2.21 0.267,-0.649 0.708,-1.194 1.357,-1.435 0.649,-0.241 1.607,-0.736 2.286,-0.983 0.678,-0.247 1.281,-0.278 0.962,-0.738 -0.319,-0.459 -0.741,-0.822 -0.513,-1.244 0.229,-0.421 0.661,-1.036 0.8,-1.516 0.139,-0.479 0.62,-0.815 1.119,0 0.499,0.815 0.869,0.355 2.164,1.095 1.295,0.738 2.498,1.201 2.775,1.849 0.277,0.647 1.084,1.572 1.744,1.942 0.661,0.37 1.771,0.74 2.695,0.832 0.925,0.093 2.054,0 3.016,0 0.962,0 0.222,-1.202 0.962,-1.664 0.74,-0.463 2.128,-0.556 3.053,-0.556 0.925,0 1.47,0.556 2.169,-0.647 0.698,-1.202 -0.052,-1.572 0,-2.867 0.051,-1.295 0.732,-1.203 0.299,-3.053 -0.433,-1.85 -0.628,-2.683 -0.299,-3.607 0.329,-0.925 0.606,-0.555 1.346,-1.295 0.74,-0.74 0.925,-0.277 1.018,-1.48 0.093,-1.202 0.74,-1.942 0,-2.96 -0.74,-1.018 -0.925,-1.109 -1.387,-1.109 -0.462,0 -1.509,-0.145 -1.652,0 -0.143,0.145 -1.356,1.316 -1.648,1.756 -0.291,0.438 -0.864,1.759 -0.864,1.759 0,0 -1.201,0 -1.664,-0.463 -0.462,-0.462 -1.11,-0.185 -1.757,0 -0.648,0.186 -1.248,0.494 -1.78,-0.678 -0.533,-1.172 -0.255,-1.485 -0.625,-2.438 -0.37,-0.953 0.37,-1.693 -1.018,-1.693 -1.388,0 -2.035,0.277 -3.238,0 -1.203,-0.277 -1.48,-0.277 -2.22,0 -0.74,0.277 -1.85,0.509 -2.867,-0.208 -1.018,-0.717 -1.572,-1.364 -2.96,-0.994 -1.388,0.369 -1.48,1.172 -2.128,-0.108 -0.647,-1.279 0.278,-1.927 -1.387,-1.835 -1.665,0.093 -3.193,-0.01 -3.193,-0.01 h -1.895 v -0.917 c -0.277,0.278 -0.555,3.607 -0.74,4.44 -0.185,0.832 -1.018,1.295 -1.85,2.051 -0.833,0.757 -1.203,1.557 -2.312,2.852 -1.11,1.295 -1.295,1.11 -2.312,0.925 -1.018,-0.185 -1.85,0.277 -2.683,0.556 -0.833,0.277 -2.035,1.757 -3.237,2.041 -1.203,0.284 -1.203,-0.01 -1.573,-0.469 -0.37,-0.463 -1.665,-1.758 -2.22,-2.721 -0.555,-0.963 -0.37,0.408 -0.462,1.795 -0.092,1.388 -0.555,1.296 -1.295,1.388 -0.74,0.093 -2.035,-0.832 -2.498,-1.295 -0.462,-0.462 -1.85,-1.942 -2.312,-2.867 -0.462,-0.925 -2.39,-2.312 -2.39,-2.204 v 0.446 c 0,0 0.016,1.974 0,2.714 -0.016,0.739 0.509,1.604 0.509,2.467 0,0.863 0.124,2.836 0.247,3.699 0.123,0.863 0,2.467 0,2.467 0,0 -0.74,2.837 -0.756,3.207 -0.016,0.37 -1.234,1.777 -1.795,2.837 -0.379,0.714 -5.805,0.555 -7.932,0 -2.128,-0.556 -2.312,-0.37 -3.977,0 -1.665,0.37 -0.277,2.404 -0.833,3.329 -0.555,0.926 -2.682,1.296 -3.792,2.221 -1.11,0.925 -2.128,0.925 -2.59,1.665 -0.463,0.739 0.37,1.757 0.277,2.867 -0.093,1.11 -0.74,1.851 -1.758,3.121 -1.018,1.271 1.11,2.614 1.11,3.262 0,0.648 -1.295,0.555 -1.573,1.388 -0.278,0.832 1.387,0.925 2.127,0.832 0.74,-0.093 1.572,0.647 1.85,1.48 0.278,0.832 1.018,2.22 1.48,2.59 0.462,0.37 2.867,-0.926 3.977,-0.833 1.11,0.093 2.59,1.942 3.7,3.053 1.11,1.11 1.757,1.479 1.757,2.912 0,1.432 0.185,1.528 0.833,2.101 0.647,0.572 0.555,1.339 0.555,1.339 0.314,0.91 0.062,1.974 0.309,3.946 0.247,1.974 -0.123,1.11 -0.123,2.59 0,1.48 -0.494,0.371 -0.494,1.728 0,1.357 1.604,1.356 1.11,1.727 -0.493,0.37 -0.616,1.85 0.74,2.713 1.357,0.864 0.616,0.74 1.357,1.974 0.74,1.233 0.987,0.986 2.22,1.233 1.233,0.246 0.987,0.863 1.697,1.85 0.71,0.986 1.017,0.864 1.756,1.851 0.74,0.986 0.617,0.863 0.37,1.973 -0.246,1.11 0,0.863 0.247,2.591 0.247,1.727 0,0 -1.11,0.739 -1.11,0.74 -0.74,0.986 -1.496,1.766 -0.756,0.778 -1.711,1.688 -1.711,1.688 0,0 -0.987,0.617 -0.617,1.974 0.37,1.356 1.851,1.11 2.561,1.604 0.71,0.493 0.4,1.233 0,2.22 -0.4,0.987 0.523,1.233 -0.233,2.59 -0.756,1.357 -0.107,1.851 0.233,3.207 0.34,1.356 1.633,0.986 1.51,1.85 -0.123,0.863 0.493,0.617 0.616,1.727 0.124,1.11 -1.603,0.74 -2.126,1.728 -0.523,0.986 1.633,0.123 2.496,1.11 l 0.234,0.32 c 0,0 1.832,0.142 3.219,-0.876 1.388,-1.018 2.775,-2.497 3.7,-3.885 0.925,-1.388 2.127,-3.607 2.775,-4.718 0.647,-1.109 0.925,-1.572 0.833,-3.237 -0.092,-1.665 -0.89,-2.497 0.017,-3.237 0.908,-0.74 1.463,-0.186 2.665,-1.572 1.203,-1.388 1.315,-2.683 1.86,-3.979 0.545,-1.295 1.47,-0.925 2.025,-1.757 0.555,-0.833 0.832,-2.868 1.295,-3.885 0.462,-1.018 -0.093,-3.237 0,-4.255 0.092,-1.018 -0.093,-2.221 -0.37,-3.238 -0.277,-1.018 -0.183,-1.757 0.556,-2.312 0.739,-0.555 2.588,-1.018 3.421,-1.387 0.832,-0.37 2.312,-1.203 3.33,-1.11 1.017,0.093 3.885,0.74 4.532,0.925 0.648,0.186 1.202,0.427 2.035,-0.527 0.832,-0.953 1.202,-2.617 1.665,-3.173 0.462,-0.555 1.973,-1.634 1.973,-1.634 l -0.308,-2.257 c 0,0 -0.584,-0.066 -1.303,0.363 -0.718,0.431 -1.256,0.407 -1.586,-0.367 -0.331,-0.774 -1.208,-0.787 -0.609,-1.915 0.6,-1.128 0.929,-1.327 1.121,-1.658 0.193,-0.331 0.712,-0.826 0.712,-0.826 0,0 -0.123,0.768 1.11,0.384 1.233,-0.384 1.646,-0.804 2.811,-2.521 1.165,-1.717 1.653,-2.42 2.387,-2.823 z"
   style="fill:#677821" /><rect
   style="fill:none;stroke:#000000;stroke-width:0.29998;stroke-linejoin:bevel;stroke-dasharray:none;paint-order:stroke fill markers"
   id="rect2"
   height="4390.293"
   x="0.19998971"
   y="0.19998971"
   ry="0.69917101"
   width="4353.8188" /></svg>
