<?xml version="1.0" encoding="UTF-8" standalone="no"?>
<!-- Generator: Adobe Illustrator 22.1.0, SVG Export Plug-In . SVG Version: 6.00 Build 0)  -->

<svg
   version="1.1"
   x="0px"
   y="0px"
   viewBox="0 0 4354.1187 4390.5933"
   enable-background="new 0 0 1995.865 2834.646"
   xml:space="preserve"
   id="svg1596"
   width="4354.1187"
   height="4390.5933"
   xmlns="http://www.w3.org/2000/svg"
   xmlns:svg="http://www.w3.org/2000/svg"><defs
   id="defs1596" />


<path
   id="Cavan_2_"
   fill="#303B09"
   d="m 1702.4165,2370.4761 c 1.032,1.237 -0.824,1.857 -1.959,2.012 -1.135,0.154 -2.27,-0.258 -2.991,-1.187 -0.723,-0.928 -0.723,-0.413 -2.167,-0.206 -1.444,0.206 -1.444,0.825 -2.888,0.516 -1.444,-0.31 0.206,-1.237 0.825,-1.856 0.619,-0.619 1.237,-1.032 0.516,-1.444 -0.723,-0.413 -1.857,0 -3.095,0.412 -1.237,0.413 -2.166,0 -2.27,-0.928 -0.102,-0.929 0.929,-1.341 1.857,-2.063 0.928,-0.723 -0.207,-0.722 -1.444,-0.516 -1.238,0.206 -2.269,0.619 -3.507,1.238 -1.238,0.619 -2.579,1.753 -3.404,3.301 -0.825,1.547 -1.444,2.372 -2.579,2.682 -1.135,0.309 -2.476,-0.825 -3.919,-1.65 -1.444,-0.825 -2.167,-0.929 -3.198,0 -1.031,0.929 -1.547,0.516 -2.682,0 -1.135,-0.516 -1.857,-2.27 -2.682,-2.476 -0.826,-0.206 -2.682,-0.516 -3.817,-1.341 -1.135,-0.826 -2.166,-3.095 -2.166,-3.816 0,-0.723 -1.444,-1.754 -2.269,-2.785 -0.826,-1.031 -1.96,-1.857 -3.198,-1.65 -1.237,0.206 -1.547,-0.516 -1.753,-1.238 -0.206,-0.722 -0.928,-3.507 -1.96,-3.79 -1.031,-0.283 -4.642,-0.13 -5.776,-0.011 -1.135,0.119 -3.404,-0.841 -4.435,-0.738 -1.032,0.104 -5.88,0.517 -7.118,0.723 -1.238,0.206 -3.198,-1.65 -4.435,-2.682 -1.238,-1.032 -1.134,-3.198 -1.134,-3.816 0,-0.619 -0.31,-3.817 -0.31,-4.849 0,-1.032 -1.341,-4.229 -1.135,-5.982 0.206,-1.754 -0.722,-3.714 -1.547,-4.122 -0.826,-0.407 -1.341,-0.623 -2.269,-0.313 -0.929,0.31 -1.96,0.516 -2.167,0 -0.207,-0.517 -1.857,-1.135 -3.404,-1.237 l 0.166,-0.07 -1.849,3.889 c 0,0 -3.112,4.573 -3.278,5.035 -0.166,0.462 -0.727,2.217 -1.84,2.768 -1.113,0.551 -1.849,-0.285 -2.867,-0.012 -1.019,0.273 -2.125,-0.841 -2.682,-0.195 -0.558,0.646 -1.207,1.105 -1.397,2.307 -0.19,1.202 0.546,2.13 1.005,3.057 0.459,0.928 1.937,1.396 1.654,2.782 -0.283,1.386 -0.654,1.569 -1.305,2.399 -0.65,0.83 -2.099,1.379 -1.424,1.845 0.675,0.465 0.952,0.466 1.042,1.206 0.089,0.74 0.087,1.48 0.087,1.48 0,0 0.455,1.05 0.71,0.85 0.254,-0.2 1.236,-1.951 1.515,-2.229 0.279,-0.276 1.682,-0.046 1.773,0.562 0.092,0.607 1.58,0.561 2.213,0.748 0.633,0.188 0.727,-0.01 2.11,0.974 1.383,0.984 3.57,0.999 4.418,1.322 0.848,0.323 3.706,2.781 4.259,3.317 0.553,0.537 2.146,3.041 2.73,3.506 0.584,0.465 1.504,1.67 1.687,2.227 0.183,0.556 -0.933,2.035 -0.01,1.944 0.926,-0.091 0.723,0.17 0.914,0.826 0.19,0.656 -0.345,1.116 0.662,1.213 1.006,0.097 2.834,0.78 3.166,1.091 0.332,0.311 -0.577,1.484 0.197,1.916 0.774,0.432 2.252,1.178 2.804,1.828 0.552,0.649 1.103,1.669 1.753,1.116 0.65,-0.552 0.56,-1.2 0.657,-2.218 0.096,-1.017 0.928,-0.744 1.302,-1.849 0.375,-1.104 0.562,-1.844 1.208,-1.472 0.646,0.373 0.707,0.84 1.273,1.672 0.567,0.834 1.306,1.299 2.137,1.487 0.832,0.188 1.386,0.376 1.846,1.117 0.46,0.742 0.642,1.668 1.473,1.855 0.832,0.188 0.768,1.113 1.723,1.395 0.954,0.281 1.52,0.469 2.482,1.212 0.962,0.744 1.263,1.855 2.172,2.321 0.91,0.466 1.736,2.082 2.752,2.528 1.016,0.446 1.659,1.5 2.489,1.995 0.831,0.495 1.199,0.793 1.474,1.71 0.273,0.917 0.738,0.326 1.382,1.318 0.644,0.993 -0.375,1.365 -0.01,2.288 0.366,0.924 0.732,1.942 1.655,2.362 0.924,0.42 1.159,-0.227 2.614,0.011 1.455,0.237 0.994,-0.124 1.177,0.519 0.183,0.643 0.365,1.106 -0.01,1.475 -0.372,0.369 -1.525,0.086 -1.182,0.735 0.343,0.649 -0.288,0.618 0.671,1.699 0.96,1.082 1.015,2.261 0.705,2.469 -0.31,0.208 -0.453,1.345 0.158,2.021 0.611,0.676 1.094,1.592 1.091,2.239 -0,0.647 -0.188,0.747 -0.01,1.715 0.181,0.969 0.063,1.153 -0.482,1.798 -0.545,0.646 -0.625,1.479 -1.514,2.122 -0.889,0.644 -1.374,2.307 -1.374,2.307 l 1.014,0.947 c 0.37,0.411 1.942,2.179 2.682,3.196 0.74,1.018 -0.37,1.851 0.514,3.146 0.883,1.295 0.689,-0.647 1.905,-0.925 1.217,-0.277 1.188,1.018 0.727,2.035 -0.463,1.017 0.092,1.664 0.277,1.986 0.185,0.322 -0.336,1.997 -0.336,1.997 0,0 -1.422,2.398 -1.259,3.395 0.163,0.995 -1.832,1.504 -1.832,1.504 0,0 -0.273,1.015 -0.181,1.663 0.092,0.646 1.202,-0.093 2.604,-0.186 1.401,-0.093 1.774,-0.023 2.484,-0.186 0.709,-0.16 1.683,-1.969 2.082,-1.688 0.399,0.28 3.157,1.515 4.35,1.257 1.191,-0.257 0.841,-1.438 1.198,-1.232 0.358,0.204 -0.074,1.616 0.376,2.408 0.45,0.791 0.9,-0.588 1.131,-0.941 0.23,-0.353 0.576,0.383 0.669,0.959 0.092,0.575 0.092,1.273 -0.093,2.199 -0.185,0.925 0.647,1.942 0.987,3.145 0.34,1.203 0.03,1.665 0,2.683 -0.03,1.018 -0.247,1.479 0.867,2.774 1.114,1.296 2.678,1.018 4.065,1.819 1.387,0.801 1.85,0.679 2.158,1.174 0.307,0.495 1.289,1.289 1.654,1.663 v 0.714 c 0,0 1.368,-0.497 1.831,-0.714 0.463,-0.216 1.48,-1.141 2.035,-1.326 0.555,-0.185 1.47,-0.081 2.261,-0.965 0.792,-0.885 2.642,-2.105 2.642,-2.105 0,0 0.833,-0.906 1.295,-1.092 0.463,-0.185 2.128,-1.109 3.237,-0.555 l 1.295,1.646 0.833,0.934 c 0,0 0.11,1.616 0.505,2.746 0.395,1.13 0.538,2.071 0.975,2.26 0.438,0.188 1.938,0.411 3.053,0.445 1.113,0.035 2.069,-0.062 2.497,0.107 0.427,0.17 1.282,0.631 1.772,0.798 0.491,0.167 1.096,-1.175 1.373,-1.68 0.277,-0.505 0.185,-1.044 0.925,-1.931 0.74,-0.887 1.573,-0.99 2.591,-0.938 1.017,0.052 2.774,-0.029 3.422,-0.636 0.648,-0.607 1.202,-0.947 2.035,-0.546 0.833,0.401 1.942,1.222 2.59,1.182 0.648,-0.04 1.295,0.145 1.942,0.422 0.647,0.278 0.74,1.194 1.665,2.447 0.925,1.253 1.19,1.672 2.122,1.694 0.931,0.021 1.415,-1.369 2.283,-0.812 0.868,0.557 1.238,1.161 1.979,0.812 0.74,-0.349 0.848,-0.778 1.942,-0.812 1.095,-0.035 1.667,0.367 1.667,0.367 l 2.091,1.179 c 0,0 0.774,-0.404 1.237,-0.559 0.462,-0.153 0.37,-1.081 1.202,-0.987 0.833,0.094 1.295,0.553 1.85,0 0.555,-0.554 -0.925,-1.51 0,-2.096 0.925,-0.586 1.701,-0.338 2.053,0 0.352,0.34 0.386,0.895 1.895,0.617 1.509,-0.277 1.602,0.076 1.509,-1.118 -0.093,-1.194 -0.829,-1.627 -0.6,-2.336 0.229,-0.709 0.28,-1.3 0.625,-1.56 0.345,-0.26 0.655,0.416 1.471,0.402 0.816,-0.014 1.094,-0.402 1.094,-0.402 0,0 0.555,-0.352 0.647,-0.999 0.093,-0.647 0.74,-2.312 -0.37,-2.867 -1.11,-0.556 -3.234,-1.676 -3.467,-2.966 -0.233,-1.289 -0.292,-2.399 -0.91,-2.77 -0.618,-0.37 -1.436,-1.111 -1.895,-1.459 -0.459,-0.35 -0.659,-1.99 -0.694,-2.237 -0.034,-0.246 2.005,-0.837 2.589,-1.021 0.585,-0.185 1.972,-0.37 1.787,-1.479 -0.185,-1.11 -1.568,-0.845 -0.877,-2.734 0.692,-1.891 1.155,-2.541 2.542,-1.477 1.388,1.065 1.85,2.36 3.607,3.101 1.758,0.74 2.868,0.093 4.533,-0.185 1.665,-0.277 2.745,-2.131 3.176,-2.916 0.432,-0.784 0.709,-2.357 1.541,-1.524 0.833,0.833 0.555,2.208 1.851,3.001 1.295,0.791 0.739,-0.137 2.035,-1.477 1.295,-1.34 0.278,-1.802 1.665,-3.282 1.387,-1.479 2.682,-1.514 2.682,-1.514 l 0.833,-0.799 v -1.079 c 0,0 -0.463,-1.418 -1.11,-1.604 -0.648,-0.185 -1.295,-1.572 -2.035,-1.295 -0.74,0.277 -1.023,1.48 -1.807,1.851 -0.784,0.371 -2.263,1.392 -3.188,0.511 -0.925,-0.881 -0.813,-1.231 -1.517,-2.397 -0.704,-1.166 -0.827,-1.536 -0.95,-2.646 -0.124,-1.11 -0.864,-1.943 -1.141,-3.146 -0.278,-1.202 0.092,-2.56 -0.555,-3.223 -0.647,-0.662 -1.48,-1.495 -2.22,-2.604 -0.74,-1.11 -1.481,-1.387 -1.85,-2.543 -0.37,-1.157 0,-0.841 0,-1.785 0,-0.945 -0.185,-1.793 -1.11,-1.785 -0.925,0.01 -2.683,0.362 -3.238,0 -0.555,-0.362 -1.295,-1.102 -2.127,-1.564 -0.832,-0.462 -1.85,-1.167 -2.128,-2.018 -0.277,-0.85 -1.202,-3.386 -1.85,-3.32 -0.647,0.065 -1.998,-2.154 -2.987,-3.08 -0.99,-0.925 -4.32,-4.099 -4.968,-5.194 -0.648,-1.095 -1.202,-2.761 -0.555,-3.5 0.647,-0.74 2.775,-1.382 1.387,-1.848 -1.387,-0.465 -2.312,1.2 -3.237,0.645 -0.925,-0.555 -2.091,-0.645 -2.091,-0.645 0,0 -1.97,0.947 -2.529,0.75 -0.56,-0.198 -1.207,-0.037 -1.392,0.53 -0.185,0.567 0.092,3.328 -1.017,1.947 -1.11,-1.38 -0.37,-2.213 -1.018,-2.397 -0.647,-0.186 -1.295,0.253 -2.22,0.45 -0.925,0.197 -0.74,0.104 -2.683,1.215 -1.942,1.109 -1.418,1.109 -3.391,1.479 -1.974,0.37 0.093,-0.462 -1.912,-1.295 -2.004,-0.832 -2.558,-0.37 -3.577,-1.018 -1.018,-0.647 -0.926,-1.289 -3.053,-1.662 -2.128,-0.372 -2.498,-1.181 -3.053,-0.083 -0.555,1.098 0,1.721 -1.572,1.363 -1.573,-0.357 -0.74,-1.185 -3.053,-1.28 -2.312,-0.095 -1.942,-0.743 -3.33,-1.112 -1.388,-0.37 -2.967,-2.098 -3.056,-2.591 -0.089,-0.493 0,-1.294 0,-1.294 l 0.31,-1.488 z"
   style="fill:#677821" /><rect
   style="fill:none;stroke:#000000;stroke-width:0.29998;stroke-linejoin:bevel;stroke-dasharray:none;paint-order:stroke fill markers"
   id="rect2"
   height="4390.293"
   x="0.19998971"
   y="0.19998971"
   ry="0.69917101"
   width="4353.8188" /></svg>
