<?xml version="1.0" encoding="UTF-8" standalone="no"?>
<!-- Generator: Adobe Illustrator 22.1.0, SVG Export Plug-In . SVG Version: 6.00 Build 0)  -->

<svg
   version="1.1"
   x="0px"
   y="0px"
   viewBox="0 0 4354.1187 4390.5933"
   enable-background="new 0 0 1995.865 2834.646"
   xml:space="preserve"
   id="svg1596"
   width="4354.1187"
   height="4390.5933"
   xmlns="http://www.w3.org/2000/svg"
   xmlns:svg="http://www.w3.org/2000/svg"><defs
   id="defs1596" />


<g
   id="Clare__x3C_Group_x3E__2_"
   style="fill:#677821"
   transform="translate(1093.6405,660.66109)">
					<path
   fill="#303B09"
   d="m 311.933,2050.671 c -0.493,-0.246 -0.37,2.097 0,3.576 0.37,1.48 0.986,-0.986 1.603,-1.479 0.617,-0.494 0.123,-1.233 0,-2.097 10e-4,0 -1.11,0.246 -1.603,0 z"
   id="path1024"
   style="fill:#677821" />
					<path
   fill="#303B09"
   d="m 310.947,2009.23 c 0.986,0.125 2.343,0.37 2.59,0 0.247,-0.37 1.48,-1.727 0,-1.727 -1.48,0 -2.22,-0.74 -2.59,0 -0.37,0.741 -1.219,1.573 0,1.727 z"
   id="path1025"
   style="fill:#677821" />
					<path
   fill="#303B09"
   d="m 375.203,2040.928 c 0,0.493 1.85,-0.986 2.59,-1.974 0.74,-0.987 0.494,-1.479 0,-1.727 -0.493,-0.247 -1.233,0.616 -1.476,1.11 -0.242,0.492 -0.7,0.775 -1.114,1.232 -1.114,1.236 0,0.865 0,1.359 z"
   id="path1026"
   style="fill:#677821" />
					<path
   fill="#303B09"
   d="m 375.203,2037.967 c 0.493,0.494 0.617,-0.369 1.281,-0.783 0.665,-0.413 0.939,-1.56 0.692,-2.546 -0.246,-0.987 -0.863,0.37 -1.479,1.109 0,0 -0.987,1.728 -0.494,2.22 z"
   id="path1027"
   style="fill:#677821" />
					<path
   fill="#303B09"
   d="m 378.729,2030.444 c 1.183,-0.74 1.654,-0.617 2.394,-1.851 0.74,-1.232 -1.11,-0.246 -2.343,0 -1.233,0.247 -1.974,1.604 -2.614,1.851 -10e-4,0 1.38,0.74 2.563,0 z"
   id="path1028"
   style="fill:#677821" />
					<path
   fill="#303B09"
   d="m 380.63,2031.801 1.233,-1.027 c 0,0 0.987,0.041 1.974,-0.699 0.986,-0.739 -0.863,-0.617 -1.603,-0.694 -0.74,-0.077 -1.603,0.94 -1.603,1.394 v 1.026 z"
   id="path1029"
   style="fill:#677821" />
					<path
   fill="#303B09"
   d="m 385.563,2031.28 c -0.123,0.344 0.493,1.137 1.551,1.137 1.058,0 0.546,-0.616 0.669,-1.644 0.123,-1.028 -0.37,-0.576 -1.357,-0.186 0,10e-4 -0.74,0.351 -0.863,0.693 z"
   id="path1030"
   style="fill:#677821" />
					<path
   id="polygon1030"
   d="m 388.893,2030.773 0.493,0.507 1.481,-0.507 -0.494,-0.629 z" />
					<path
   id="Clare_2_"
   fill="#303B09"
   d="m 421.083,2038.768 c -0.555,-0.185 -2.22,-0.925 -4.625,-1.109 -2.405,-0.186 -5.55,-0.186 -6.475,-0.925 -0.925,-0.74 -1.11,-1.665 -2.035,-1.48 -0.925,0.185 -0.925,1.11 -2.59,0.185 -1.665,-0.925 -3.145,-1.85 -3.885,-2.034 -0.74,-0.186 -2.035,-0.37 -2.775,-0.186 -0.74,0.186 -1.665,1.665 -2.775,1.665 -1.11,0 -2.405,0 -2.22,0.74 0.186,0.74 0.74,2.405 0,1.85 -0.74,-0.555 -2.22,-1.85 -3.515,-1.479 -1.295,0.37 -3.145,1.295 -2.59,0.185 0.555,-1.109 0.185,0.37 0.555,-1.109 0.37,-1.48 -0.37,-2.405 0.37,-2.405 0.74,0 1.48,-0.555 2.22,-0.925 0.74,-0.37 2.59,-0.74 1.85,-1.48 -0.74,-0.74 -1.295,-0.185 -2.035,-1.109 -0.74,-0.926 -1.295,-1.295 -0.74,-2.221 0.555,-0.925 1.665,-0.555 1.48,-1.665 -0.185,-1.109 -1.295,-1.479 -1.665,-2.22 -0.37,-0.74 1.11,0.186 -0.37,-0.74 -1.48,-0.925 -3.146,-0.555 -2.96,-1.479 0.185,-0.925 1.295,-1.11 2.035,-1.48 0.74,-0.37 2.035,-0.925 2.405,-1.479 0.37,-0.555 0.555,-3.7 0.555,-3.7 l -1.48,-0.74 c 0,0 0.185,2.22 -0.37,2.96 -0.555,0.74 -0.74,0.74 -2.22,1.295 -1.48,0.556 -1.48,0.926 -2.59,1.295 -1.11,0.37 -2.221,-0.185 -3.7,0.74 -1.48,0.925 -2.775,1.11 -2.775,3.33 0,2.22 1.295,3.33 0.37,4.625 -0.925,1.295 -2.22,1.665 -3.145,2.405 -0.925,0.739 -0.555,2.59 -0.925,4.069 -0.37,1.48 -1.11,0.926 -1.48,2.221 -0.37,1.295 -0.37,2.96 -0.925,3.885 -0.555,0.925 -1.85,0.37 -2.59,0 -0.74,-0.37 -0.74,0.74 -0.74,1.665 0,0.925 -1.295,0.74 -1.295,1.479 0,0.74 0.185,2.221 -0.925,2.221 -1.11,0 -1.48,0.37 -2.405,1.665 -0.925,1.295 -2.035,4.069 -2.96,3.885 -0.925,-0.185 -2.035,-0.555 -3.146,-0.555 -1.109,0 -5.18,0.37 -6.289,0.185 -1.11,-0.185 -2.775,-0.925 -3.33,0 -0.555,0.925 0,2.405 -0.925,3.7 -0.925,1.295 -2.405,2.405 -3.145,2.96 -0.74,0.555 -3.515,1.109 -4.07,0.74 -0.555,-0.37 -3.515,-2.035 -3.145,-2.775 0.37,-0.74 1.109,-2.035 1.479,-2.59 0.37,-0.555 1.295,-0.37 2.035,-1.295 0.74,-0.925 1.85,-2.221 3.145,-2.96 1.295,-0.74 2.775,-1.295 2.775,-1.295 0,0 -0.74,-0.74 -1.85,-0.74 -1.11,0 -1.48,0 -2.405,0.74 -0.925,0.739 -2.22,1.85 -3.33,1.85 -1.11,0 -1.85,0 -2.035,0.74 -0.185,0.74 -0.37,1.85 -1.11,1.85 -0.74,0 -3.7,-0.185 -4.255,0.556 -0.555,0.739 -1.295,2.22 -3.145,2.035 -1.85,-0.186 -4.44,-0.186 -4.81,-0.926 -0.37,-0.74 -0.555,-1.109 -2.405,-1.109 -1.85,0 -3.146,0.185 -3.515,-1.11 -0.37,-1.295 -1.48,-1.295 -2.22,-2.22 -0.74,-0.926 -0.555,-0.74 -1.85,-0.556 -1.295,0.186 -1.48,0 -2.22,-0.555 -0.74,-0.555 -0.37,-0.74 -1.11,-1.665 -0.74,-0.925 -1.11,-2.775 -0.925,-3.885 0.185,-1.11 0.37,-1.48 -0.74,-1.295 -1.11,0.185 -0.925,0.185 -2.59,-0.186 -1.665,-0.369 -3.146,-0.369 -3.146,-0.369 0,0 0.37,0.555 1.48,1.479 1.11,0.925 1.665,1.11 2.22,1.665 0.555,0.555 2.405,2.775 2.405,2.775 l -0.925,1.479 -3.145,0.37 c 0,0 -0.74,0.185 -2.035,0.74 -1.295,0.555 -0.185,1.665 -1.295,2.035 -1.11,0.369 -1.665,0.369 -2.405,0.185 -0.74,-0.185 -2.59,-0.185 -2.59,-0.185 0,0 0.555,1.109 -1.665,1.109 -2.22,0 -3.33,-0.185 -4.439,0 -1.11,0.186 -2.775,0 -2.96,0.555 -0.186,0.556 -1.11,1.666 -0.37,2.035 0.74,0.37 1.295,0.186 0.925,1.295 -0.37,1.11 -1.48,0 -0.37,1.11 1.11,1.11 1.665,1.479 0.925,2.22 -0.74,0.74 -0.74,0.926 -2.22,0.37 -1.48,-0.555 -2.405,-2.22 -3.145,-1.665 -0.74,0.555 -0.925,1.665 -1.48,2.221 -0.555,0.555 -2.405,0.739 -2.405,0.739 0,0 -0.925,0.925 -2.404,1.11 -1.48,0.185 -2.035,1.109 -3.7,0.925 -1.665,-0.185 -2.405,-1.479 -3.7,-1.295 -1.295,0.185 -2.59,0 -2.775,0.555 -0.185,0.556 -0.555,1.665 -2.035,2.405 -1.48,0.74 -2.405,0.37 -4.07,0.555 -1.665,0.186 -3.515,0.926 -4.07,0.186 -0.555,-0.74 1.665,-2.775 1.665,-2.775 0,0 1.665,-1.85 3.515,-2.22 1.85,-0.37 2.775,-1.479 2.775,-1.479 l -0.555,-1.48 c 0,0 1.85,-1.11 2.775,-1.11 0.925,0 2.59,-0.555 2.59,-0.555 l 2.035,-0.185 2.035,-1.666 c 0,0 0.186,-1.85 0.74,-2.404 0.555,-0.555 2.59,-2.775 3.33,-2.96 0.74,-0.186 3.515,-1.665 4.44,-2.405 0.925,-0.74 1.85,-2.22 2.59,-2.405 0.74,-0.185 0.185,-1.479 0.925,-1.665 0.74,-0.185 1.665,-0.369 2.405,-1.109 0.74,-0.74 0,-1.295 1.11,-1.665 1.11,-0.37 2.035,-1.11 2.035,-1.11 0,0 0.74,-1.665 1.48,-1.479 0.74,0.185 1.295,1.295 2.035,0.925 0.74,-0.37 -0.185,-1.85 0,-2.405 0.185,-0.555 -0.185,-0.925 0,-1.85 0.185,-0.925 0,-1.295 0.74,-2.035 0.74,-0.74 1.665,-1.295 2.405,-1.295 0.74,0 2.22,-0.37 1.48,-1.11 -0.74,-0.74 -1.85,-1.665 -1.85,-1.665 l 0.185,-0.925 c 0,0 0.925,0.186 1.85,0 0.925,-0.186 2.035,-1.11 1.85,-2.035 -0.185,-0.925 0.186,-0.37 1.295,-1.109 1.11,-0.74 2.961,-1.48 3.885,-1.295 0.925,0.185 1.665,0.185 2.22,0.555 0.555,0.37 2.22,2.22 2.22,2.22 0,0 0.925,0.74 0.925,-0.185 0,-0.926 0,-1.295 0.925,-1.48 0.925,-0.185 2.59,0.186 2.96,-1.109 0.37,-1.296 0.185,-2.775 0.185,-2.775 l -0.74,-1.665 2.22,-1.665 c 0,0 0.185,-1.295 -0.185,-1.85 -0.37,-0.556 0.185,-2.591 0.185,-2.591 l -0.925,-2.22 c 0,0 2.035,-0.74 2.59,-0.925 0.555,-0.185 1.85,-1.295 2.22,-2.035 0.37,-0.74 0,-2.22 0.555,-2.405 0.555,-0.185 2.035,-0.369 2.035,-0.369 l -0.185,-2.221 -2.22,-1.109 1.665,-1.851 c 0,0 1.11,-1.11 0.925,-1.665 -0.185,-0.555 0,-3.515 0.925,-4.439 0.925,-0.926 2.96,-0.556 4.81,-2.035 1.85,-1.48 3.33,-3.33 3.33,-3.33 l 1.48,-1.665 c 0,0 1.11,-0.925 1.295,-1.665 0.185,-0.74 -0.74,-2.59 -0.74,-2.59 l -0.925,-1.851 -2.96,0.74 c 0,0 -0.925,1.295 -1.85,1.48 -0.925,0.185 -3.515,0.555 -4.255,0.37 -0.74,-0.186 -2.405,-1.11 -3.33,-0.556 -0.925,0.556 -2.775,1.48 -3.145,0.74 -0.37,-0.74 -0.556,-1.11 0,-2.22 0.555,-1.11 1.665,-2.035 3.145,-3.146 1.48,-1.11 2.59,-1.665 2.775,-2.774 0.184,-1.11 -0.186,-2.221 0.37,-3.33 0.555,-1.11 1.665,-1.851 2.405,-2.96 0.74,-1.11 2.035,-2.221 2.405,-2.775 0.37,-0.555 -0.555,-0.925 -1.11,-1.295 -0.555,-0.37 0.74,-2.96 0.74,-2.96 0,0 1.11,-1.85 2.035,-2.59 0.925,-0.74 2.035,-0.926 2.22,-2.035 0.186,-1.11 0.37,-3.33 0.925,-4.255 0.555,-0.925 1.48,-1.665 2.22,-2.405 0.74,-0.74 1.665,-1.85 2.59,-2.035 0.925,-0.185 2.22,-2.035 2.22,-2.035 0,-1.479 0.37,-2.035 1.295,-2.774 0.925,-0.74 1.665,-1.665 1.295,-3.33 -0.37,-1.665 -0.37,-3.885 0.37,-4.44 0.74,-0.555 2.405,-2.404 2.405,-2.404 0,0 0.74,0.555 2.59,1.295 1.85,0.74 2.59,1.479 3.145,1.665 0.555,0.185 2.035,0.37 3.515,0.925 1.48,0.555 1.295,0 2.59,1.479 1.295,1.48 2.59,2.221 3.33,2.221 0.74,0 1.85,0 2.405,-0.74 0.555,-0.74 2.22,-2.96 2.22,-2.96 0,0 1.85,-1.11 0.925,-1.665 -0.925,-0.556 -2.405,-1.295 -2.405,-1.295 0,0 0.925,-0.74 1.48,-1.11 0.555,-0.37 0.555,-0.925 1.85,-0.925 1.295,0 1.665,-0.185 2.775,0.185 1.11,0.37 0.37,-1.295 0.37,-1.295 l 0.37,-1.665 c 0,0 0.74,-0.555 1.665,-0.185 0.925,0.37 1.665,1.48 1.665,1.48 l -0.925,1.109 c 0,0 0.185,0.925 0.74,0.925 0.555,0 2.59,0.74 2.59,0.74 l 1.665,0.925 -0.185,1.295 0.719,0.502 c 0,0 -0.164,6.898 1.779,8.008 1.942,1.11 2.189,1.758 3.777,2.312 1.588,0.556 2.087,-0.277 3.595,0.74 1.508,1.018 3.451,3.607 4.562,4.533 1.109,0.925 1.85,0.832 2.682,1.387 0.833,0.556 1.11,2.174 0.833,3.168 -0.278,0.995 0.462,3.812 0.555,4.947 0.093,1.135 -0.277,3.632 0,4.928 0.277,1.295 0.37,2.867 0.74,3.7 0.37,0.832 0.925,2.626 2.035,2.654 1.11,0.028 1.255,1.6 1.876,0.675 0.621,-0.924 1.176,-1.146 1.269,-1.914 0.093,-0.768 1.136,-0.539 1.678,-1.023 0.542,-0.484 1.005,0.07 1.282,0.533 0.277,0.463 1.203,1.424 2.498,1.729 1.295,0.306 2.497,1.229 3.33,0.675 0.833,-0.555 1.625,-2.127 2.385,-3.515 0.76,-1.388 2.148,-1.986 2.61,-2.658 0.463,-0.672 1.203,-3.016 2.498,-4.156 1.295,-1.141 1.567,-1.19 3.327,-1.628 1.76,-0.438 1.876,-1.178 4.084,-2.01 2.209,-0.832 4.09,-1.85 5.785,-1.572 1.696,0.277 0.956,0.832 3.361,1.018 2.404,0.185 4.752,-0.74 5.613,-0.463 0.861,0.277 0.491,0.054 0.584,1.368 0.092,1.314 -0.277,2.165 1.202,2.388 1.48,0.222 2.22,-0.056 2.683,0.406 0.463,0.463 2.497,2.035 2.683,2.683 0.185,0.647 -0.55,3.886 0.419,4.718 0.969,0.832 2.449,-0.049 3.559,0.484 1.11,0.533 2.409,2.234 3.841,2.263 1.432,0.028 3.374,-0.287 3.744,-1.239 0.37,-0.953 -0.555,-2.34 0.74,-2.34 1.295,0 3.046,0.414 3.789,1.316 0.743,0.903 2.871,2.938 3.796,2.938 0.925,10e-4 1.956,-0.909 1.735,-1.469 -0.221,-0.559 0.669,-1.028 3.167,-1.306 0,0 1.202,2.312 1.758,2.59 0.555,0.277 2.59,1.018 2.59,1.606 0,0.588 -0.925,3.574 -0.925,3.574 0,0 -3.33,5.087 -3.7,6.058 -0.37,0.972 -2.035,2.637 -2.498,2.637 -0.462,0 -7.77,-0.093 -7.955,0.556 -0.185,0.646 -2.035,7.677 -2.775,8.972 -0.74,1.296 -3.978,4.255 -3.885,8.511 0.092,4.255 1.855,6.622 1.855,6.622 l 0.037,3.83 -1.329,1.776 -3.271,3.34 c 0,0 0.026,-0.677 -0.715,0.557 -0.74,1.233 -0.74,1.233 -1.233,1.48 -0.493,0.246 -1.233,0.74 -1.233,0.74 0,0 -0.951,0.493 -1.092,0.863 -0.142,0.369 -0.512,0.37 -0.512,0.863 0,0.493 -0.123,1.295 0,1.818 0.124,0.524 0.406,0.524 0.512,1.388 0.105,0.864 0.018,0.617 0,1.604 -0.018,0.986 -0.621,0.266 -0.566,1.551 0.055,1.286 0.795,2.274 -0.438,2.273 -1.233,-10e-4 -0.493,-0.738 -1.85,0 -1.357,0.739 -1.604,0.171 -1.85,1.874 -0.246,1.702 -1.284,3.676 -1.284,3.676 0,0 -0.879,0.373 -1.367,0.48 -0.488,0.107 -0.857,0.378 -1.754,0.134 -0.897,-0.245 -0.657,-0.421 -1.332,0.099 -0.675,0.52 0.086,1.073 -1.096,0.797 -1.183,-0.277 -1.309,-0.349 -1.801,-1.361 -0.492,-1.012 -1.725,-1.999 -1.725,-1.999 l -2.004,-0.863 c -0.74,-0.185 -2.868,-0.647 -4.163,-0.462 -1.295,0.185 -2.683,0.327 -3.978,1.412 -1.295,1.085 -2.168,2.557 -2.333,3.347 z"
   style="fill:#677821" />
				</g><rect
   style="fill:none;stroke:#000000;stroke-width:0.29998;stroke-linejoin:bevel;stroke-dasharray:none;paint-order:stroke fill markers"
   id="rect2"
   height="4390.293"
   x="0.19998971"
   y="0.19998971"
   ry="0.69917101"
   width="4353.8188" /></svg>
