<?xml version="1.0" encoding="UTF-8" standalone="no"?>
<!-- Generator: Adobe Illustrator 22.1.0, SVG Export Plug-In . SVG Version: 6.00 Build 0)  -->

<svg
   version="1.1"
   x="0px"
   y="0px"
   viewBox="0 0 4354.1187 4390.5933"
   enable-background="new 0 0 1995.865 2834.646"
   xml:space="preserve"
   id="svg1596"
   width="4354.1187"
   height="4390.5933"
   xmlns="http://www.w3.org/2000/svg"
   xmlns:svg="http://www.w3.org/2000/svg"><defs
   id="defs1596" />


<g
   id="Cork__x3C_Group_x3E__2_"
   style="fill:#677821"
   transform="translate(1093.6405,660.66109)">
					<path
   fill="#4B5A26"
   d="m 313.043,2294.376 c 0.124,0 1.603,-1.356 2.699,-1.233 1.096,0.124 0.261,0.74 -0.849,0.986 -1.11,0.247 0.169,1.402 -0.617,1.48 -1.233,0.123 -1.357,-1.233 -1.233,-1.233 z"
   id="path1021"
   style="fill:#677821" />
					<path
   fill="#4B5A26"
   d="m 317.853,2293.135 c 0.957,0.447 1.424,0.01 2.068,-0.485 0.645,-0.493 1.632,-0.987 0.522,-1.11 -1.11,-0.123 -2.097,-0.123 -2.59,0.37 -0.493,0.493 -1.603,0.477 0,1.225 z"
   id="path1022"
   style="fill:#677821" />
					<path
   fill="#4B5A26"
   d="m 310.577,2256.883 c 0,0 3.083,-0.493 3.453,0 0.37,0.493 1.328,1.014 1.712,-0.109 0.385,-1.124 1.276,-2.48 1.276,-2.48 0,0 1.452,-2.59 0.588,-2.837 -0.863,-0.247 -0.111,0.987 -1.35,1.11 -1.239,0.123 -0.348,0.123 -2.027,1.233 -1.679,1.109 -1.68,1.356 -2.666,1.727 -0.986,0.369 -2.59,0.986 -0.986,1.356 z"
   id="path1023"
   style="fill:#677821" />
					<path
   id="Sherkin_Island_1_"
   fill="#4B5A26"
   d="m 323.28,2306.093 c 0.74,0 2.96,-1.479 2.96,-1.479 0,0 1.974,-0.987 1.974,-2.221 0,-1.232 0,-1.973 0,-2.959 0,-0.987 1.727,-1.233 0,-0.987 -1.727,0.247 -1.48,-1.479 -1.727,0.247 -0.247,1.727 1.48,1.233 -0.247,1.727 -1.726,0.493 -2.22,-0.74 -1.726,0.493 0.493,1.233 0.493,1.974 -0.247,2.467 -0.741,0.492 -0.987,2.712 -0.987,2.712 z"
   style="fill:#677821" />
					<path
   id="Long_Island_1_"
   fill="#4B5A26"
   d="m 305.52,2297.916 h 2.713 c 0,0 0.74,-1.384 1.233,-1.413 0.493,-0.03 0.617,-1.564 0,-1.414 -0.617,0.15 -0.446,0.274 -1.765,0.768 -1.319,0.493 -2.182,0.646 -2.182,0.646 0,0 -2.219,1.413 10e-4,1.413 z"
   style="fill:#677821" />
					<path
   id="Hare__x2F__Heir_Island_1_"
   fill="#4B5A26"
   d="m 321.06,2297.916 h 2.22 l 1.727,-1.196 c 0,0 -1.727,-2.22 -1.727,-1.479 0,0.738 -2.22,2.675 -2.22,2.675 z"
   style="fill:#677821" />
					<path
   id="Dursey_Island_1_"
   fill="#4B5A26"
   d="m 217.089,2279.329 c 0.836,-0.304 0.493,-1.85 2.22,-2.59 1.727,-0.739 2.96,-1.356 4.193,-1.727 1.233,-0.371 3.33,-0.37 3.083,-1.604 -0.247,-1.233 0.616,-1.356 -1.604,-1.356 -2.22,0 -1.727,-0.493 -3.577,0.617 -1.85,1.109 -2.343,1.479 -3.084,2.097 -0.74,0.616 -1.726,1.356 -1.973,2.343 0.003,0 -0.614,2.713 0.742,2.22 z"
   style="fill:#677821" />
					<path
   id="Cléire_Island_1_"
   fill="#4B5A26"
   d="m 313.167,2313 c 0,0 0.247,-1.48 1.48,-1.48 1.233,0 1.48,0.494 2.713,-1.232 1.233,-1.728 2.713,-1.48 2.467,-2.961 -0.247,-1.479 0.986,-2.22 -1.48,-1.233 -2.467,0.987 -2.467,0.247 -3.946,1.974 -1.48,1.727 -2.467,1.256 -2.467,1.256 0,0 -1.398,5.094 1.233,3.676 z"
   style="fill:#677821" />
					<path
   id="Bere_Island_1_"
   fill="#4B5A26"
   d="m 270.247,2270.449 c 0.936,-0.773 1.85,-2.22 1.85,-2.22 0,0 1.727,-0.493 2.713,-1.356 0.987,-0.863 3.823,-2.097 1.85,-2.22 -1.974,-0.124 -2.097,-0.494 -3.7,0.616 -1.604,1.109 -1.85,1.233 -2.713,0.493 -0.864,-0.739 1.109,-0.493 -1.974,-0.493 -3.083,0 -3.823,-0.123 -5.304,0.37 -1.48,0.493 -1.48,-0.493 -2.59,0.739 -1.11,1.234 -1.233,1.48 -1.48,2.591 -0.247,1.109 -0.987,1.974 0.864,2.097 1.85,0.123 2.836,0.617 4.439,0 1.603,-0.617 1.11,-1.109 2.837,-1.233 1.727,-0.124 2.218,1.433 3.208,0.616 z"
   style="fill:#677821" />
					<path
   id="Cork_mainland_2_"
   fill="#4B5A26"
   d="m 493.025,2125.246 c -2.798,1.563 -2.68,1.088 -2.844,0.971 -0.164,-0.117 -0.083,-0.254 -0.347,-1.21 -0.265,-0.957 -2.201,-1.204 -2.645,-1.353 -0.444,-0.148 -2.524,-0.912 -3.084,-1.081 -0.559,-0.169 -1.038,-0.076 -1.322,0.018 -0.284,0.095 -1.761,1.002 -1.761,1.002 l -0.555,-0.649 -2.035,-0.186 c 0,0 0,0 -0.74,-0.925 -0.74,-0.925 -1.853,-3.7 -1.853,-3.7 0,0 -2.957,-2.035 -4.067,-2.344 -1.11,-0.309 -2.405,2.344 -2.59,3.084 -0.186,0.74 -3.7,3.515 -3.7,3.515 0,0 -1.85,1.11 -2.098,1.205 -0.248,0.095 -7.892,1.2 -10.297,2.264 -2.405,1.063 -5.92,-0.509 -7.03,-1.063 -1.11,-0.555 -3.33,-4.255 -4.215,-4.255 -0.885,0 -3,-0.925 -3.37,-1.479 -0.37,-0.556 -3.146,-4.811 -4.44,-5.735 -1.295,-0.925 -2.777,-1.48 -2.777,-1.48 l -2.28,-3.515 -1.418,-3.885 -5.18,0.369 c 0,0 -6.29,-0.185 -6.845,-0.739 -0.555,-0.556 -3.145,-1.295 -3.145,-1.295 l -1.974,2.876 -0.617,-2.876 -2.775,2.876 c 0,0 -2.22,0.269 -2.96,0.824 -0.74,0.555 -1.176,2.959 -1.176,2.959 0,0 -3.634,2.591 -3.304,3.146 0.331,0.555 -2.181,2.22 -2.735,2.251 -0.555,0.03 -2.035,2.189 -1.851,2.744 0.186,0.555 -6.289,0.555 -7.461,0.555 -1.172,0 -1.974,1.48 -1.989,2.035 -0.016,0.555 0,3.516 0,3.516 0,0 -2.76,-2.405 -3.5,-3.516 -0.74,-1.109 -3.885,-1.85 -4.625,-2.22 -0.74,-0.37 -2.96,-1.48 -2.96,-1.48 0,0 -7.03,-1.665 -8.449,-2.405 -1.418,-0.739 -2.281,0.371 -2.836,1.727 -0.556,1.357 -3.33,2.898 -4.81,4.379 -1.479,1.48 -2.775,1.049 -2.775,1.049 l -2.054,1.741 2.054,0.635 -1.85,3.297 c 0,0 -3.576,0 -4.069,0 -0.493,10e-4 -0.37,3.329 -0.37,3.329 0,0 -1.973,1.48 -2.467,2.225 -0.494,0.745 0,3.202 0,3.202 l 1.207,5.495 2.247,3.006 -0.283,2.83 1.147,1.836 -0.987,1.51 v 3.084 l 1.59,2.59 1.493,4.563 2.22,3.453 c 0,0 0.494,2.714 0.494,3.435 0,0.719 3.793,3.451 3.823,3.473 -0.314,-0.226 -1.842,0.071 -2.214,0.191 -0.751,0.242 -1.151,0.682 -1.54,1.342 -0.985,1.674 -1.271,3.631 -1.454,5.529 -0.103,1.062 -0.242,1.765 0.183,2.773 0.228,0.543 0.505,1.696 1.058,2.002 0.624,0.344 1.759,-0.244 2.487,-0.245 0.863,0 1.357,1.604 1.357,1.604 0,0 0.863,1.479 1.48,1.973 0.617,0.493 3.823,0.493 4.564,0.863 0.74,0.37 0,1.85 -0.679,2.344 -0.678,0.493 -2.035,1.356 -2.898,1.356 -0.863,0 -4.81,1.109 -6.166,2.007 -1.357,0.897 -3.577,1.199 -5.427,1.323 -1.851,0.123 -3.083,2.713 -4.44,3.7 -1.357,0.986 -3.33,2.096 -3.807,3.453 -0.477,1.355 0.23,2.836 0.6,3.51 0.37,0.673 2.097,3.396 2.097,4.507 0,1.109 0,3.05 0,3.05 0,0 -3.207,3.98 -3.454,4.739 -0.246,0.76 -2.097,3.681 -3.7,4.298 -1.604,0.616 -4.194,2.343 -5.521,2.343 -1.328,0 -2.249,0.863 -2.742,0.863 -0.494,0 -5.181,1.479 -5.304,1.603 -0.123,0.123 -1.973,5.181 -2.343,5.305 -0.37,0.123 -3.577,1.973 -5.667,2.467 -2.09,0.493 -8.639,0 -9.317,0 -0.679,0 -5.858,0.863 -7.338,1.109 -1.48,0.247 -2.961,2.837 -3.947,3.823 -0.986,0.987 -3.823,4.44 -4.686,4.563 -0.863,0.123 -3.823,0.37 -5.18,0.617 -1.357,0.246 -2.097,2.096 -2.96,3.206 -0.863,1.11 -2.466,2.59 -3.207,3.083 -0.74,0.494 -2.343,2.837 -2.837,3.7 -0.493,0.863 -2.343,1.356 -3.576,1.356 -1.233,0 -1.727,-2.22 -1.11,-2.959 0.617,-0.74 0,-2.467 0,-3.229 0,-0.762 -1.974,-0.966 -2.22,-1.582 -0.247,-0.616 0.616,-1.48 0.616,-1.48 l -0.986,-1.356 -1.563,-1.018 -1.705,-1.572 c -0.74,0.555 -1.11,0.185 -1.85,0.185 -0.74,0 -0.555,1.295 -1.11,0.926 -0.555,-0.37 -0.185,-1.665 -0.185,-1.665 0,0 0,-2.035 0,-2.591 0,-0.555 -1.85,1.666 -1.85,1.666 l -2.22,1.664 -1.665,1.666 h -2.59 c 0,0 -1.665,0.925 -2.59,0.739 -0.925,-0.185 -2.22,1.11 -2.775,1.48 -0.555,0.37 -2.035,2.59 -2.405,3.515 -0.37,0.925 1.295,0.37 2.221,0.186 0.925,-0.186 0.925,0.739 1.665,0.369 0.74,-0.369 1.665,-0.555 2.96,-0.369 1.295,0.185 0,0 0.185,0.555 0.185,0.555 -0.925,1.109 -1.665,1.85 -0.74,0.74 -0.555,1.851 -0.74,2.405 -0.184,0.555 -0.74,1.295 -1.479,1.85 -0.74,0.556 -1.295,0 -2.035,0.186 -0.74,0.185 -1.11,0.555 -1.11,1.11 0,0.555 -1.295,0.369 -2.035,0.555 -0.74,0.185 -1.295,-0.186 -2.405,-0.555 -1.11,-0.371 -0.74,1.109 -1.665,1.295 -0.925,0.185 -1.295,-0.37 -2.405,-0.926 -1.11,-0.555 -0.925,-0.185 -2.035,0.186 -1.109,0.37 0,0 -0.925,0 -0.925,0 -0.925,0.555 -1.11,1.85 -0.185,1.295 -0.37,1.295 0.925,1.665 1.295,0.37 1.109,0.37 2.22,1.295 1.11,0.925 1.85,-0.37 2.775,0.556 0.925,0.925 -0.555,1.664 -0.925,2.22 -0.37,0.555 0,0.925 0,1.665 0,0.74 -0.37,1.665 -1.109,2.22 -0.74,0.555 -1.481,-0.185 -2.035,-0.74 -0.555,-0.555 -1.295,0.186 -1.295,0.74 0,0.554 -0.925,0.555 -1.851,0.555 -0.925,0 -2.035,0.74 -2.59,0.556 -0.555,-0.186 -0.925,-0.926 -1.85,-0.926 -0.925,0 -1.48,1.48 -1.48,1.48 0,0 0.186,1.11 1.295,1.48 1.11,0.369 -0.184,1.664 -0.37,2.22 -0.185,0.555 -1.665,0.555 -1.665,0.555 0,0 -0.555,2.59 0,2.59 0.555,0 1.48,-1.109 2.22,-2.034 0.74,-0.926 1.665,-0.556 2.59,-1.11 0.925,-0.556 0.37,-0.925 2.035,-0.925 1.665,0 1.85,0.185 3.515,0.369 1.665,0.186 0.925,-0.925 2.775,-0.925 1.85,0 1.295,0.74 1.48,1.295 0.186,0.556 0.74,1.48 1.851,1.48 1.109,0 2.22,-0.556 3.515,-1.48 1.295,-0.925 2.405,-2.034 3.145,-2.59 0.74,-0.555 1.665,-0.925 2.775,-1.479 1.11,-0.556 2.22,0 3.515,0 1.295,0 1.11,-0.186 1.464,-0.74 0.354,-0.555 0.201,-2.775 0.016,-3.516 -0.185,-0.739 1.295,-0.555 1.85,-0.925 0.555,-0.37 0.37,-1.85 1.85,-2.404 1.479,-0.556 1.11,0 1.85,0.185 0.74,0.186 1.295,-0.555 2.405,-0.37 1.11,0.186 2.035,-0.37 2.733,-0.555 0.699,-0.185 3.001,-0.185 3.557,0.37 0.555,0.555 2.775,-0.37 2.775,-0.37 0,0 1.48,-0.556 2.22,-0.556 0.74,0 1.665,-0.369 2.405,-0.739 0.74,-0.37 1.85,-1.11 2.59,-1.295 0.74,-0.186 1.295,0 2.404,-0.556 1.11,-0.555 0,-2.22 0,-2.22 l -0.555,-1.479 1.48,0.369 c 0,0 0.555,1.851 1.11,2.035 0.555,0.186 1.295,-0.555 2.405,-0.185 1.11,0.37 1.48,-0.925 2.22,-0.37 0.74,0.555 1.295,1.11 1.85,0.925 0.555,-0.185 2.96,-1.11 3.885,-1.479 0.925,-0.37 2.775,-1.851 2.775,-1.851 0,0 2.22,-0.739 2.96,-1.109 0.74,-0.37 1.48,-1.48 2.035,-2.591 0.556,-1.109 0,0 1.851,-0.739 1.85,-0.74 0,0 1.295,-0.37 1.295,-0.37 0.74,-1.11 1.295,-1.295 0.555,-0.186 0.37,-1.665 -0.37,-2.221 -0.74,-0.555 -0.37,-1.85 -0.185,-2.59 0.185,-0.74 0.37,-2.035 1.11,-1.85 0.74,0.185 1.665,1.295 1.665,1.295 0,0 0.37,2.22 1.11,3.145 0.74,0.926 0,0 1.11,0.37 1.11,0.37 0.74,1.296 1.665,1.665 0.925,0.37 2.405,0 3.7,-0.369 1.295,-0.371 1.11,-1.48 2.035,-2.035 0.925,-0.556 0.74,1.85 0.555,2.404 -0.185,0.556 -0.555,1.11 -0.74,1.851 -0.185,0.739 0.185,1.85 0.74,2.22 0.556,0.37 0,1.85 0,1.85 0,0 -0.74,1.665 -0.74,2.405 0,0.74 -3.145,0.556 -3.885,0.556 -0.74,0 -1.479,1.109 -2.035,1.295 -0.555,0.185 -0.74,1.479 -1.665,1.664 -0.925,0.186 -2.405,1.11 -3.145,1.295 -0.74,0.186 -3.515,1.11 -4.44,1.666 -0.925,0.555 -3.33,1.664 -4.44,2.22 -1.11,0.555 -4.255,2.22 -5.365,2.59 -1.11,0.37 -2.22,0.925 -3.33,1.11 -1.109,0.185 -2.405,1.479 -2.96,1.479 -0.555,0 -2.035,1.295 -2.035,1.295 l -2.22,1.851 c 0,0 -1.295,0.925 -2.96,1.295 -1.665,0.369 -3.145,1.479 -4.07,2.22 -0.925,0.74 -1.48,1.295 -1.85,2.035 -0.37,0.739 -0.37,1.479 -1.48,2.035 -1.11,0.555 -1.85,1.665 -2.775,2.034 -0.925,0.37 -2.22,1.11 -3.145,1.851 -0.925,0.74 0,1.295 0,1.295 0,0 3.145,0.37 3.885,0.185 0.74,-0.185 2.035,-1.479 3.145,-1.664 1.11,-0.186 1.665,-0.371 2.59,-0.74 0.925,-0.37 1.11,-0.74 2.96,-1.48 1.851,-0.74 1.295,0 2.22,0.186 0.925,0.185 0.74,-0.926 1.11,-1.665 0.37,-0.74 1.48,-0.925 2.59,-0.74 1.11,0.185 2.035,-1.11 2.035,-1.11 0,0 1.48,-0.925 2.405,-1.479 0.925,-0.556 1.48,0 3.145,-0.925 1.665,-0.926 1.11,-1.295 2.035,-1.666 0.925,-0.369 1.11,-0.185 2.775,-0.925 1.665,-0.739 0,0 0.925,-0.37 0.925,-0.369 0.925,-0.739 1.48,-1.479 0.555,-0.74 0.925,-0.555 2.405,-0.555 1.48,0 1.851,0 1.851,0 l 1.85,-0.74 c 0,0 0.925,-0.74 1.85,-0.74 0.925,0 -0.925,2.405 -0.925,2.405 l -2.22,0.37 c 0,0 -2.22,0.739 -2.96,1.295 -0.74,0.555 -0.185,1.479 -0.185,1.479 0,0 -1.48,0.556 -2.22,0.926 -0.74,0.369 -2.035,1.295 -2.035,1.295 0,0 -0.555,0.925 -0.37,1.479 0.185,0.556 -2.405,1.11 -3.33,1.665 -0.925,0.555 -0.74,1.48 -1.665,3.145 -0.925,1.666 -1.665,1.296 -2.22,1.851 -0.555,0.555 -1.48,1.479 -3.33,2.22 -1.85,0.741 -2.59,0.926 -4.995,1.295 -2.405,0.37 -2.775,0.926 -3.515,1.851 -0.74,0.925 -2.22,1.85 -2.405,2.59 -0.185,0.74 -1.295,1.11 -2.035,1.665 -0.74,0.555 -2.775,1.109 -4.07,1.665 -1.295,0.555 -1.295,1.479 -1.11,2.22 0.186,0.74 1.665,0.186 2.405,1.11 0.74,0.924 0.185,1.109 -0.555,2.405 -0.74,1.295 -0.37,1.479 0.925,2.59 1.295,1.109 2.775,-0.556 3.7,-1.295 0.925,-0.74 0.925,-2.221 2.035,-1.851 1.11,0.37 0,1.665 0,1.665 0,0 0.185,1.48 0.925,1.48 0.74,0 1.479,-1.851 2.405,-2.221 0.925,-0.369 2.59,-0.555 3.33,-1.131 0.74,-0.575 2.035,-0.534 2.96,-1.273 0.925,-0.74 -1.665,-0.74 -1.295,-2.221 0.37,-1.479 0,0 0.74,-1.295 0.74,-1.295 -0.74,-1.295 0,-1.665 0.74,-0.37 1.665,-0.925 3.885,-0.739 2.22,0.185 0,0 2.035,-0.186 2.035,-0.185 -0.555,-0.74 0,-2.96 0.555,-2.22 0,0 0.925,-0.74 0.925,-0.739 0.925,-0.185 1.11,0.74 0.185,0.925 1.11,0.555 1.665,1.295 0.555,0.74 -0.74,1.665 0,2.22 0.74,0.556 1.665,0.926 2.775,1.295 1.109,0.37 2.404,-1.85 2.404,-1.85 0,0 1.665,-0.925 3.33,-0.925 1.665,0 2.96,-1.48 3.146,-2.96 0.185,-1.48 0.555,-2.221 2.22,-2.221 1.665,0 -0.37,1.851 0,2.405 0.37,0.556 0.925,0 1.665,-0.37 0.74,-0.369 2.035,-0.555 3.145,-1.295 1.11,-0.74 2.405,-0.555 3.515,-0.369 1.11,0.185 2.035,-0.186 3.515,-1.296 1.48,-1.109 0,-1.479 0,-2.59 0,-1.111 0.925,-1.665 2.035,-1.295 1.11,0.37 0,0 0.925,0.556 0.925,0.555 0.555,1.295 1.85,0.925 1.295,-0.37 1.295,0.185 0.925,1.109 -0.37,0.925 -0.74,1.851 -1.295,2.775 -0.555,0.925 -1.48,1.11 -2.035,1.85 -0.555,0.74 -0.925,1.11 0,1.665 0.925,0.555 0,0 1.295,-0.185 1.295,-0.186 0,0 -0.74,1.295 -0.74,1.295 0,0 0.37,1.295 0.37,1.295 0,0 1.48,-0.185 1.479,-0.186 0,-0.926 1.988,-0.37 1.001,0.279 0.416,0.185 0.972,1.295 0.555,1.109 0,0 -0.37,1.295 -0.37,1.295 0,0 0.925,0 0.925,0 1.48,-0.37 2.035,0 0.555,0.37 -1.48,1.11 -1.48,1.11 0,0 -1.109,1.109 -1.665,1.479 -0.555,0.37 -0.555,0.925 0,1.479 0.556,0.556 2.221,0.37 3.33,0.74 1.11,0.37 2.405,0 2.405,0 0,0 2.035,-1.665 3.7,-3.438 1.665,-1.772 2.59,0 2.59,0 0,0 0.37,-2.853 3.145,-3.223 2.775,-0.369 0,0 0.74,0.186 0.74,0.185 -0.185,2.035 0,2.771 0.185,0.737 1.11,-0.182 1.85,-1.292 0.74,-1.109 1.85,-0.739 2.96,-0.555 1.109,0.185 -0.74,2.035 0,1.665 0.74,-0.37 2.035,0.555 2.59,0 0.555,-0.555 -0.186,-1.48 0,-2.775 0.185,-1.295 0.925,-1.109 1.479,-1.85 0.556,-0.74 1.11,0.74 1.665,0 0.555,-0.74 0.37,-2.035 1.11,-3.515 0.74,-1.48 1.295,0.185 1.295,-0.925 0,-1.11 0,1.109 0,2.404 0,1.295 2.035,-1.295 2.035,-1.295 0,0 1.479,0.555 2.035,0 0.555,-0.555 1.85,-0.74 2.504,-1.295 0.654,-0.555 1.011,-1.48 1.565,-1.85 0.556,-0.37 -0.185,-1.48 -0.185,-1.48 0,0 -0.185,-1.665 -0.74,-2.035 -0.555,-0.37 -1.11,-1.85 0,-2.035 1.11,-0.185 1.295,0.74 2.035,1.665 0.74,0.925 2.22,1.48 3.7,1.48 1.479,0 2.22,-0.556 3.33,-1.11 1.109,-0.555 1.665,0 2.774,-0.925 1.11,-0.925 0.925,-0.925 2.22,-1.295 1.295,-0.37 2.59,-0.37 4.995,0.555 2.405,0.925 2.59,1.48 3.7,2.22 1.11,0.74 -0.185,2.775 0,3.7 0.186,0.925 0.925,-0.739 1.295,-1.309 0.37,-0.568 0.74,-1.466 1.48,-1.651 0.74,-0.185 0.925,0.926 0.925,1.48 0,0.554 1.48,-0.37 1.85,-0.925 0.37,-0.556 1.665,-0.556 2.22,-1.296 0.555,-0.739 1.479,-0.925 1.295,-1.295 -0.185,-0.369 -0.925,-2.404 0,-3.515 0.925,-1.11 1.295,-0.74 1.85,-1.665 0.555,-0.925 1.11,-1.85 1.11,-2.59 0,-0.74 0.37,-1.85 1.11,-2.22 0.74,-0.37 0.555,1.479 1.48,1.85 0.925,0.37 3.885,0 5.18,0.37 1.295,0.37 3.33,1.665 4.44,2.22 1.11,0.556 1.48,-1.295 1.804,-1.479 0.324,-0.186 0.971,0.74 0.416,1.479 -0.555,0.74 -0.555,2.22 0,2.405 0.555,0.186 1.295,0 1.48,-0.555 0.184,-0.556 0.925,0 1.85,0.925 0.925,0.925 1.85,0 2.775,0 0.925,0 1.295,-1.665 1.665,-2.22 0.37,-0.556 -0.556,-2.405 -0.37,-3.33 0.185,-0.926 1.11,-0.926 1.85,-1.871 0.74,-0.945 0.37,-1.459 0.37,-1.459 0,0 -0.925,-0.555 -1.48,-1.11 -0.555,-0.555 -0.185,-1.11 0.555,-1.85 0.74,-0.74 0.925,-1.665 1.11,-2.405 0.185,-0.74 -2.59,0.37 -2.59,0.37 0,0 -3.515,-0.37 -4.81,-0.74 -1.295,-0.37 -2.405,-1.295 -2.405,-1.295 0,0 0.925,-0.555 1.85,-0.555 0.925,0 2.405,0.555 3.515,1.109 1.11,0.556 1.295,0 2.775,-1.295 1.48,-1.295 0,0 1.85,0.186 1.85,0.185 1.11,-1.851 1.11,-1.851 l 0.925,1.851 c 0,0 0.925,1.295 1.109,2.405 0.185,1.109 2.96,-0.556 2.96,-0.556 l 3.7,-0.185 3.33,-1.295 c 0,0 2.035,1.109 2.775,1.479 0.74,0.37 0.555,2.035 2.19,2.96 1.636,0.925 0.029,0.74 10e-4,1.85 -0.029,1.11 0.583,1.666 1.508,2.221 0.925,0.555 1.295,-0.37 1.295,-1.665 0,-1.295 -1.295,-0.925 -1.295,-0.925 l 0.555,-1.851 -0.185,-1.109 c 0,0 -1.295,-1.11 -1.665,-1.665 -0.37,-0.556 -0.185,-1.48 0,-2.221 0.185,-0.739 1.85,-1.479 2.59,-2.035 0.739,-0.555 -0.185,-2.22 0,-3.104 0.185,-0.884 0.925,-1.706 0.925,-1.706 l 1.48,0.185 0.925,-1.109 -0.925,-1.665 1.11,-1.479 c 0,0 0.102,0.169 0.239,0.432 0.315,0.604 0.815,1.698 0.686,2.343 -0.185,0.925 0,1.665 0,2.59 0,0.925 1.295,0 2.22,0 0.925,0 1.48,-1.479 2.96,-2.322 1.48,-0.843 -0.185,-1.933 0,-2.673 0.185,-0.74 1.665,-1.479 1.665,-1.479 v 2.035 c 0,0 0,1.85 0,2.034 0,0.186 1.11,0 1.665,0 0.555,0 0.555,-1.85 0.925,-3.486 0.37,-1.637 0.74,-0.583 1.665,-0.213 0.925,0.369 1.85,0.185 2.59,0 0.74,-0.186 1.109,-2.59 2.035,-2.96 0.925,-0.37 3.7,0.185 4.982,0 1.282,-0.186 0.198,-2.221 0.013,-2.775 -0.185,-0.555 1.665,-0.74 2.405,-1.11 0.74,-0.369 1.48,0 1.48,0 l 0.555,-2.22 c 0,0 0.925,-1.85 0.925,-2.774 0,-0.926 -0.185,-2.405 -0.74,-3.33 -0.555,-0.926 0.925,-1.665 0.925,-1.665 0,0 0,0 0.74,-0.893 0.74,-0.892 1.295,0 1.295,0 0,0 0.37,-1.883 0.37,-2.438 0,-0.556 0.185,-1.11 0.37,-1.665 0.186,-0.555 -0.74,-1.295 -0.74,-1.295 l -1.85,-0.74 -1.85,-0.74 c 0,0 -1.11,-0.925 -0.37,-1.109 0.74,-0.186 1.11,-0.74 1.665,-1.11 0.555,-0.37 0.555,-1.665 -0.37,-1.851 -0.925,-0.185 -2.59,0.37 -3.515,0.74 -0.925,0.37 -1.295,-1.665 -1.295,-1.665 0,0 0.185,-2.22 1.11,-1.85 0.925,0.37 2.035,0.185 3.7,-0.37 1.665,-0.555 1.85,-0.186 3.33,-0.555 1.48,-0.37 1.11,-1.11 2.239,-1.295 1.13,-0.186 3.311,0 4.051,-0.186 0.74,-0.185 2.96,0 3.515,0 0.555,0 1.85,0.925 1.85,0.925 0,0 0,0 -0.37,0.74 -0.37,0.74 -0.555,1.665 -1.11,1.665 -0.555,0 -1.665,0 -2.59,0.186 -0.925,0.185 -1.295,1.109 -1.665,2.034 -0.37,0.925 0,0.925 -0.74,2.035 -0.74,1.11 0,0 -0.925,-1.295 0,0 -1.295,1.295 -1.665,2.035 -0.37,0.74 -0.555,2.035 0,2.405 0.555,0.369 0.925,1.109 0.925,1.109 v 2.59 c 0,0 2.775,-0.185 4.44,-0.185 1.665,0 3.33,0 5.734,0.185 2.405,0.186 0,0.926 0,1.48 0,0.554 1.48,0 2.775,-1.11 1.295,-1.109 2.405,-2.59 3.145,-2.96 0.74,-0.369 5.92,-0.74 8.51,-1.109 2.59,-0.37 2.59,-1.11 3.33,-2.221 0.739,-1.109 1.85,0.556 3.034,0 1.184,-0.555 1.96,-1.295 2.331,-2.035 0.37,-0.739 -1.665,0 -2.22,-1.479 -0.555,-1.479 1.11,-2.96 2.035,-4.625 0.925,-1.665 3.7,-2.22 6.105,-2.774 2.405,-0.556 4.07,-0.371 5.202,-1.11 1.132,-0.74 3.678,-0.37 4.973,-0.556 1.295,-0.185 1.665,-0.185 2.22,-1.479 0.555,-1.294 -1.11,-0.74 -2.22,-1.665 -1.11,-0.925 -2.221,-0.925 -2.221,-0.925 l -0.925,-1.851 c 0,0 -1.11,0 -1.665,0 -0.555,0 0.37,-1.109 1.851,-2.22 1.479,-1.11 0,0 0.37,0.74 0.37,0.74 1.85,0 1.85,0 0,0 1.85,-1.665 2.775,-2.775 0.925,-1.109 1.665,-2.034 2.405,-3.188 0.74,-1.153 0.74,-1.621 0.74,-2.546 0,-0.682 -0.375,-1.14 -0.569,-1.741 -0.215,-0.662 -0.193,-1.385 -0.427,-2.052 -0.195,-0.555 -1.255,-1.509 -0.863,-2.155 l -4.369,0.398 c 0,0 -2.775,0.062 -3.33,-0.398 -0.555,-0.459 -1.048,-1.452 -1.048,-1.884 0,-0.432 -0.679,-5.365 -0.74,-5.673 -0.062,-0.309 -3.823,-1.48 -4.193,-1.912 -0.37,-0.432 0.124,-2.898 0,-3.014 -0.123,-0.115 -1.172,-0.069 -1.541,-0.01 -0.37,0.062 -1.912,-0.247 -2.405,-0.679 -0.493,-0.432 -3.515,-3.946 -3.639,-4.748 -0.123,-0.802 0.37,-3.23 0.37,-3.23 0,0 -1.11,-3.677 -1.295,-4.478 -0.185,-0.802 -1.233,-3.146 -1.233,-3.146 0,0 -0.679,-0.863 -1.048,-1.172 -0.37,-0.308 -1.295,-0.555 -1.295,-0.555 0,0 -2.405,-0.617 -2.898,-0.987 -0.494,-0.369 -1.542,-1.973 -1.727,-2.897 -0.185,-0.925 0.617,-0.309 0.617,-0.309 l 1.171,2.035 h 1.171 c 0,0 0.432,-1.851 0.432,-2.29 0,-0.438 -1.105,-1.396 -1.105,-1.396 l -1.249,0.386 c 0,0 -1.904,0.056 -2.147,0 -0.244,-0.054 -0.737,-1.011 -0.737,-1.011 -5.301,2.166 -7.59,2.016 -7.59,2.016 l -0.059,-1.593 c 0,0 -0.247,-0.987 -0.247,-1.851 0,-0.864 0.432,-2.404 0.432,-2.404 0,0 2.282,-0.494 2.898,-1.728 0.617,-1.233 1.542,-4.81 1.603,-5.611 0.062,-0.802 0.011,-1.521 0.011,-1.521 h 1.47 l 1.726,-0.143 v -1.054 c 0,0 -0.247,-4.807 -1.058,-5.3 -0.811,-0.493 -3.753,-0.37 -5.479,-0.663 -1.727,-0.294 -1.356,-2.544 -2.068,-4.517 -0.712,-1.974 0.095,-3.947 0,-4.457 -0.096,-0.51 -2.334,-1.627 -2.334,-1.627"
   style="fill:#677821" />
				</g><rect
   style="fill:none;stroke:#000000;stroke-width:0.29998;stroke-linejoin:bevel;stroke-dasharray:none;paint-order:stroke fill markers"
   id="rect2"
   height="4390.293"
   x="0.19998971"
   y="0.19998971"
   ry="0.69917101"
   width="4353.8188" /></svg>
