<?xml version="1.0" encoding="UTF-8" standalone="no"?>
<!-- Generator: Adobe Illustrator 22.1.0, SVG Export Plug-In . SVG Version: 6.00 Build 0)  -->

<svg
   version="1.1"
   x="0px"
   y="0px"
   viewBox="0 0 4354.1187 4390.5933"
   enable-background="new 0 0 1995.865 2834.646"
   xml:space="preserve"
   id="svg1596"
   width="4354.1187"
   height="4390.5933"
   xmlns="http://www.w3.org/2000/svg"
   xmlns:svg="http://www.w3.org/2000/svg"><defs
   id="defs1596" />


<g
   id="Donegal__x3C_Group_x3E__2_"
   style="fill:#677821"
   transform="translate(1093.6405,660.66109)">
					<path
   fill="#303B09"
   d="m 443.53,1535.631 c 0.733,-0.292 2.59,-0.74 2.713,-0.617 0.124,0.123 0.74,-0.123 0.494,0.617 -0.246,0.74 -0.066,0.986 -1.575,1.11 -1.509,0.123 -2.779,-0.654 -1.632,-1.11 z"
   id="path1008"
   style="fill:#677821" />
					<path
   fill="#303B09"
   d="m 449.573,1518.98 c 0.74,0 0.74,-0.369 0.617,-0.863 -0.124,-0.493 -0.863,-0.123 -1.233,0 0,0 -0.124,0.863 0.616,0.863 z"
   id="path1009"
   style="fill:#677821" />
					<path
   fill="#303B09"
   d="m 452.451,1523.544 c 0.699,0.74 0.699,0.123 0.699,-0.739 0,-0.863 -0.771,-0.232 -1.397,0 -0.61,0.225 -10e-4,0 0.698,0.739 z"
   id="path1010"
   style="fill:#677821" />
					<path
   fill="#303B09"
   d="m 456.726,1518.98 c 0.987,0.124 1.727,0.247 2.097,-0.556 0.37,-0.804 0,-1.171 -1.233,-1.788 -1.233,-0.616 -0.986,0.247 -1.727,1.231 0,10e-4 -0.123,0.99 0.863,1.113 z"
   id="path1011"
   style="fill:#677821" />
					<path
   fill="#303B09"
   d="m 454.629,1514.787 c 0,0 1.851,0 2.779,-0.863 0.93,-0.863 -0.436,-0.616 -1.551,-2.097 -1.114,-1.479 -0.118,-0.986 -0.821,-2.097 -0.703,-1.109 -0.653,-0.986 -1.887,-0.964 -1.234,0.022 -0.37,0.225 0.493,1.458 0.863,1.232 0.863,0.616 1.233,1.479 0.37,0.863 0,0 -0.123,1.11 -0.123,1.109 0,0.665 0,1.109 10e-4,1.112 -0.123,0.865 -0.123,0.865 z"
   id="path1012"
   style="fill:#677821" />
					<path
   fill="#303B09"
   d="m 469.79,1490.799 c 0.237,0.432 0.379,0.802 1.119,0.555 0.74,-0.246 0,-0.862 -0.617,-1.109 0.001,-10e-4 -0.739,0.122 -0.502,0.554 z"
   id="path1013"
   style="fill:#677821" />
					<path
   fill="#303B09"
   d="m 471.961,1484.201 c 1.176,-0.262 -0.104,-2.301 -1.129,-1.211 -0.022,0.023 -0.042,0.046 -0.061,0.068 -0.811,0.936 0.308,1.338 1.19,1.143 z"
   id="path1014"
   style="fill:#677821" />
					<path
   fill="#303B09"
   d="m 470.481,1477.664 c -0.928,0.493 -1.792,-0.37 -0.928,0.493 0.863,0.864 1.225,0.864 1.907,1.604 0.683,0.74 1.382,0.864 0.971,0 -0.411,-0.864 -1.95,-2.097 -1.95,-2.097 z"
   id="path1015"
   style="fill:#677821" />
					<path
   fill="#303B09"
   d="m 492.39,1467.674 c 0,0 0.35,-0.246 1.09,0 0.74,0.247 1.479,0.37 1.85,-0.616 0.37,-0.987 1.356,-2.22 0,-1.727 -1.356,0.493 -0.123,0.739 -1.356,0.493 -1.233,-0.247 -1.932,0.27 -1.583,-0.605 0.35,-0.875 1.198,-1.615 -0.089,-1.244 -1.288,0.369 -2.275,0.37 -1.781,0.986 0.493,0.616 1.603,0.076 1.109,0.901 -0.494,0.826 -0.329,1.812 0.76,1.812 z"
   id="path1016"
   style="fill:#677821" />
					<path
   fill="#303B09"
   d="m 493.207,1462.124 c 0.344,0.37 1.26,-0.123 1.753,-0.74 0.494,-0.616 -0.733,-0.784 -1.753,-0.739 -0.644,0.027 -0.344,1.109 0,1.479 z"
   id="path1017"
   style="fill:#677821" />
					<path
   fill="#303B09"
   d="m 493.951,1458.301 c 0.347,0.494 1.009,-0.37 1.122,-1.356 0.112,-0.987 -0.606,0 -0.606,0 0,0 -0.864,0.863 -0.516,1.356 z"
   id="path1018"
   style="fill:#677821" />
					<path
   fill="#303B09"
   d="m 516.667,1453.367 c 0.617,0.246 1.48,0.37 3.206,0 1.727,-0.37 0.247,-1.233 0,-1.727 -0.247,-0.493 -2.585,-0.101 -3.206,0 -0.862,0.141 -0.617,1.481 0,1.727 z"
   id="path1019"
   style="fill:#677821" />
					<path
   fill="#303B09"
   d="m 619.28,1406.254 c 0,0 2.22,0.37 3.207,0 0.986,-0.37 1.603,-0.246 1.233,-0.74 -0.37,-0.493 -1.481,-0.74 -2.467,-0.74 -0.987,0 -1.974,0.74 -1.974,0.74 v 0.74 z"
   id="path1020"
   style="fill:#677821" />
					<path
   id="Tory__x2F__Toraigh_Island_1_"
   fill="#303B09"
   d="m 483.12,1442.884 c 0,0 -0.37,0.617 0,1.48 0.37,0.863 0.863,0.986 1.974,1.233 1.11,0.246 1.604,-0.617 1.85,0 0.247,0.616 -0.616,1.233 0.74,1.973 1.356,0.74 2.22,-0.123 2.96,0 0.74,0.124 1.11,-0.616 1.357,-1.356 0.247,-0.739 0.74,-2.097 0,-1.85 -0.74,0.247 -0.123,0.55 -1.357,1.015 -1.234,0.465 -3.104,0.712 -2.97,-0.398 0.133,-1.109 0.75,-0.492 0.133,-1.109 -0.616,-0.617 0.123,0 -1.11,-0.247 -1.233,-0.247 -0.247,0.37 -1.233,-0.74 -0.987,-1.109 -2.426,-1.603 -2.508,-1.233 -0.083,0.369 0.164,-0.248 0.164,1.232 z"
   style="fill:#677821" />
					<path
   id="Owey_Island_1_"
   fill="#303B09"
   d="m 455.126,1494.931 c 0.496,0.494 0.244,1.11 1.295,1.11 1.052,0 1.292,0.123 1.296,-1.357 0.004,-1.479 -0.251,-0.863 -1.114,-1.603 -0.863,-0.74 -0.909,0.086 -1.477,0.616 -0.617,0.576 -0.497,0.741 0,1.234 z"
   style="fill:#677821" />
					<path
   id="Inisfree__x2F__Inis_Fraoigh_Island_1_"
   fill="#303B09"
   d="m 464.07,1493.14 c 0.31,0.306 1.283,0.331 1.641,0.156 -0.246,-0.723 -1.112,-1.162 -1.711,-1.532 -0.141,-0.086 -0.172,0.763 -0.032,1.187 0.027,0.082 0.061,0.149 0.102,0.189 z"
   style="fill:#677821" />
					<path
   id="Inch_Island_1_"
   fill="#303B09"
   d="m 581.91,1494.314 c 1.85,0.493 1.357,0.986 2.713,2.343 1.357,1.356 1.357,-0.37 2.96,-0.616 1.603,-0.246 2.097,-0.617 3.454,-1.11 1.356,-0.493 -0.247,-0.986 -0.494,-1.604 -0.247,-0.616 -0.987,-1.974 -1.233,-2.59 -0.247,-0.616 -1.604,-1.11 -2.22,-2.22 -0.617,-1.11 -1.727,-0.986 -3.083,-0.986 -1.356,0 -1.973,0.246 -2.343,0.986 -0.37,0.74 -0.977,0.907 -1.48,2.22 -0.261,0.677 -0.124,3.083 1.726,3.577 z"
   style="fill:#677821" />
					<path
   id="Gola__x2F__Gabhla_Island_1_"
   fill="#303B09"
   d="m 465.607,1485.188 c -0.729,1.567 1.279,0.818 0.971,2.075 -1.433,0.191 -1.78,1.377 -0.357,1.874 0.793,0.277 2.653,-0.252 3.188,-0.924 0.677,-0.851 -0.025,-1.413 -0.225,-2.408 -0.208,-1.041 -1.606,-1.672 -2.633,-1.394 -0.404,0.109 -0.75,0.358 -0.944,0.777 z"
   style="fill:#677821" />
					<path
   id="Cruit_Island_1_"
   fill="#303B09"
   d="m 458.96,1497.274 c 0.138,0.739 -0.013,1.109 0,2.097 0.015,0.986 0.48,0.74 -0.63,1.356 -1.11,0.616 0.124,1.11 1.604,1.479 1.48,0.37 0,0 -0.124,0.539 -0.123,0.539 0.494,0.941 2.015,1.312 1.521,0.371 -0.164,-0.74 -0.04,-1.851 0.124,-1.109 0,-0.863 -0.86,-1.604 -0.86,-0.739 -0.004,-1.356 -0.004,-2.343 0,-0.987 0.124,-1.604 -1.11,-2.218 -0.002,0 -0.988,0.493 -0.851,1.233 z"
   style="fill:#677821" />
					<path
   id="Aran__x2F__Árainn_Mhór_Island_1_"
   fill="#303B09"
   d="m 441.556,1513.061 c 0.653,0.301 1.604,0.74 2.467,0.74 0.863,0 1.357,0.123 2.097,0.616 0.74,0.494 1.233,0.493 1.727,0 0.493,-0.493 1.357,0.124 2.097,-0.493 0.74,-0.616 1.11,0.74 1.233,-0.863 0.124,-1.604 1.233,-2.22 0,-2.59 -1.233,-0.37 -0.863,-0.123 -1.233,-1.85 -0.37,-1.727 0.986,-2.467 -0.616,-2.837 -1.603,-0.37 -2.137,0 -2.672,-0.74 -0.535,-0.739 -0.165,-0.616 -0.905,-1.603 -0.74,-0.987 -0.123,-0.863 -1.233,0 -1.11,0.863 -1.973,-0.371 -2.097,0.863 -0.123,1.232 0,0.986 0.74,1.973 0.74,0.986 0.863,0.986 -0.37,1.727 -1.233,0.741 -1.603,-0.123 -1.233,1.357 0.37,1.479 0.343,0.616 -0.137,1.973 -0.481,1.357 -1.336,1.05 0.135,1.727 z"
   style="fill:#677821" />
					<path
   id="Donegal_2_"
   fill="#303B09"
   d="m 493.867,1631.628 c 0.929,-0.722 2.579,0 4.642,0 2.064,0 3.095,-0.825 3.095,-0.825 0,0 2.682,-2.477 3.198,-3.198 0.516,-0.722 4.642,0.206 5.673,0 1.031,-0.206 0.516,-2.166 0.928,-3.61 0.413,-1.443 1.135,-3.609 1.857,-5.054 0.722,-1.444 1.96,-4.126 3.197,-4.642 1.238,-0.516 3.61,-0.104 4.849,0.516 1.237,0.619 3.713,1.65 4.848,1.771 1.135,0.121 4.023,-0.328 5.57,-0.073 1.547,0.255 2.785,-0.255 4.332,-0.049 1.547,0.206 2.372,-0.206 3.507,-1.96 1.135,-1.754 -0.31,-2.062 0.31,-3.301 0.619,-1.237 1.238,-1.237 2.579,-2.269 1.341,-1.031 0.722,-1.651 1.134,-2.476 0.413,-0.826 1.135,-0.723 2.167,-0.929 1.031,-0.206 1.857,-0.723 2.476,-1.548 0.619,-0.824 0.825,-1.856 1.753,-2.476 0.928,-0.618 1.65,-0.516 2.682,-0.618 1.031,-0.104 3.403,-1.135 4.229,-1.548 0.825,-0.412 0.413,-1.237 0.309,-2.647 -0.103,-1.409 -0.722,-2.2 -1.753,-2.303 -1.032,-0.104 -3.094,2.062 -4.229,2.269 -1.135,0.206 -3.816,-0.516 -5.364,-1.856 -1.547,-1.342 -3.404,-2.682 -4.126,-2.682 -0.722,0 -2.062,1.959 -4.126,1.753 -2.062,-0.206 -1.753,-1.65 -2.062,-3.095 -0.31,-1.443 -1.135,-1.856 -3.507,-2.476 -2.373,-0.619 -3.301,-2.372 -3.422,-4.332 -0.121,-1.96 1.05,-1.96 0.74,-3.197 -0.31,-1.237 -1.135,-1.754 -0.516,-2.579 0.619,-0.825 2.27,-0.516 3.404,-0.994 1.134,-0.479 1.341,-1.275 1.959,-2.616 0.619,-1.341 2.063,-2.476 3.817,-3.714 1.753,-1.237 3.301,-0.103 4.023,1.445 0.723,1.547 1.547,1.134 3.61,1.443 2.064,0.31 0.619,1.96 2.579,2.991 1.96,1.032 1.96,0.206 4.126,-1.65 2.166,-1.856 1.031,-1.856 2.476,-2.372 1.444,-0.516 3.816,-1.547 4.951,-1.96 1.134,-0.413 2.27,-1.857 4.023,-3.302 1.753,-1.443 2.063,-1.031 4.333,0 2.269,1.032 2.888,0.31 4.745,-0.206 1.856,-0.516 1.031,-0.103 2.682,0.722 1.65,0.825 1.341,0.619 2.889,0 1.547,-0.619 0,-1.547 -0.619,-2.475 -0.619,-0.929 -0.103,-3.095 0,-5.57 0.103,-2.477 0,-4.229 0,-4.229 0,0 10.624,-10.005 11.037,-10.521 0.413,-0.516 0.619,-2.578 1.412,-5.569 0.794,-2.992 1.373,-1.136 1.294,-3.611 -0.078,-2.475 -0.541,-2.062 -1.108,-3.713 -0.567,-1.65 0.361,-2.889 0.155,-4.951 -0.206,-2.063 -0.206,-2.579 0,-4.126 0.207,-1.548 0.928,-1.135 2.166,-2.166 1.238,-1.032 2.27,-0.619 3.507,-0.825 1.237,-0.207 0.414,0 0.414,0 0,0 0.205,-0.929 0.034,-2.579 -0.171,-1.65 0.377,-2.888 0.067,-4.538 -0.31,-1.65 0.516,-2.579 1.031,-3.714 0.516,-1.135 -0.103,-2.063 0,-3.301 0.104,-1.238 0.825,-2.063 1.341,-3.198 0.516,-1.135 1.444,-1.547 2.063,-2.372 0.619,-0.824 2.062,-2.578 2.888,-3.351 0.826,-0.773 1.754,-1.601 2.683,-1.601 0.928,0 1.856,0.619 1.856,0.619 1.341,0.517 1.444,-0.516 2.063,-1.031 0.619,-0.515 2.063,0.412 3.094,0 1.032,-0.413 0.619,-1.444 0.929,-1.857 0.31,-0.412 1.547,-0.928 1.856,-0.952 0.31,-0.024 1.722,-0.701 1.722,-0.701 l 0.51,-1.775 c 0.74,-0.74 3.515,-4.811 4.069,-5.365 0.556,-0.555 2.405,-3.885 2.405,-3.885 0,0 1.665,-2.035 1.85,-2.59 0.185,-0.555 3.515,-4.255 4.81,-5.551 1.295,-1.295 4.44,-1.295 5.365,-2.404 0.925,-1.11 4.44,-3.33 6.104,-4.255 1.665,-0.925 4.995,-2.96 9.99,-5.365 4.995,-2.405 7.585,-4.625 8.51,-6.476 0.925,-1.85 -0.555,-2.959 -1.109,-3.699 -0.556,-0.74 -2.035,-2.035 -3.885,-2.775 -1.85,-0.74 -3.7,0.555 -4.995,0 -1.295,-0.555 -0.74,-2.035 -1.665,-2.59 -0.925,-0.555 -1.48,-0.37 -3.145,-1.48 -1.665,-1.109 -0.925,0.186 -3.145,0 -2.22,-0.185 -2.035,-0.925 -2.775,-1.479 -0.74,-0.555 -2.22,-2.035 -4.07,-2.405 -1.85,-0.369 -2.59,-0.74 -4.069,-1.109 -1.48,-0.37 -1.11,-1.665 -1.11,-1.665 0,0 -0.74,-1.665 -1.11,-2.591 -0.37,-0.925 -1.295,-2.959 -1.295,-2.959 0.186,-0.74 -0.185,-2.961 -1.295,-4.44 -1.11,-1.479 -3.7,-1.11 -5.735,-2.035 -2.035,-0.925 -2.96,-1.665 -4.07,-2.035 -1.11,-0.37 -3.33,-0.925 -3.885,-1.479 -0.556,-0.555 -5.365,-0.926 -6.66,-1.11 -1.295,-0.184 -1.295,-0.74 -1.85,-1.11 -0.555,-0.369 -2.22,-0.555 -2.775,-1.109 -0.555,-0.555 -1.11,-0.925 -2.035,-0.925 -0.925,0 -2.775,0.925 -2.775,0.925 -1.099,0.485 0.925,1.109 1.851,2.59 0.925,1.48 1.665,1.295 3.33,1.665 1.665,0.37 1.295,0.37 1.479,1.479 0.185,1.11 0,3.886 -0.185,4.995 -0.185,1.11 0.925,1.11 1.85,1.851 0.925,0.741 0.555,1.295 0.74,2.59 0.185,1.295 1.295,0.925 2.035,1.295 0.74,0.37 1.665,0.74 2.96,1.85 1.295,1.11 2.405,1.295 2.96,2.405 0.555,1.11 1.85,1.479 1.479,3.33 -0.37,1.851 0,0 -1.295,-0.555 -1.295,-0.556 0,0 -0.74,0.185 -0.74,0.186 -1.11,0.925 -2.035,0.37 -0.925,-0.555 -1.851,-0.37 -2.96,-0.925 -1.11,-0.555 -2.035,-0.555 -3.516,-0.555 -1.479,0 -1.85,-0.186 -1.665,-1.11 0.185,-0.925 1.48,-0.556 2.775,-0.556 1.295,0 2.59,-0.185 3.33,-0.739 0.74,-0.556 -0.37,-1.11 -1.295,-1.665 -0.925,-0.555 -1.665,-1.295 -2.96,-2.221 -1.295,-0.925 -1.11,-0.369 -2.405,-1.295 -1.295,-0.925 -1.48,-0.369 -2.035,0.37 -0.555,0.74 -0.37,1.665 -1.11,2.775 -0.74,1.11 -0.555,2.22 -1.85,2.22 -1.295,0 -2.22,0.555 -3.515,1.11 -1.295,0.555 -0.925,1.11 -1.48,1.85 -0.555,0.74 -1.11,-0.185 -1.665,-0.739 -0.555,-0.556 -1.295,0.369 -1.295,-1.295 0,0 -0.925,-0.74 -1.665,-1.296 -0.74,-0.555 -0.74,1.11 -0.925,2.405 -0.185,1.295 -1.295,0.186 -2.405,0 -1.109,-0.186 -1.479,-0.37 -2.405,-0.186 -0.925,0.186 -1.665,0.556 -1.85,1.851 -0.185,1.295 0.37,0.925 0.925,1.479 0.555,0.556 0.555,0.926 0.37,1.666 -0.185,0.739 -0.555,2.034 -0.555,2.774 0,0.74 -1.295,0.925 -2.59,1.479 -1.295,0.556 0.555,0.926 1.85,1.11 1.295,0.186 0.185,1.295 -0.37,2.22 -0.555,0.926 -1.109,0.926 -1.85,1.851 -0.74,0.925 -0.555,1.479 -0.925,2.774 -0.37,1.295 -0.186,1.666 -0.74,2.591 -0.554,0.925 -0.74,1.295 0.37,1.85 1.11,0.556 1.85,0.925 2.96,2.22 1.11,1.295 1.85,1.851 1.85,2.59 0,0.74 1.481,2.591 2.22,3.146 0.74,0.555 1.665,1.665 2.22,2.59 0.555,0.925 0.555,2.035 2.035,2.775 1.479,0.739 0.37,1.665 0.925,4.255 0.555,2.59 -1.295,1.665 -2.775,3.515 -1.479,1.851 -0.185,2.96 0.74,4.625 0.925,1.665 2.405,1.851 2.775,3.33 0.37,1.48 0,2.59 0.555,3.886 0.555,1.295 0,1.664 -1.48,2.59 -1.48,0.925 -1.665,-0.186 -2.775,-0.186 -1.11,0 -1.665,0.925 -2.775,1.295 -1.11,0.37 -2.035,0.186 -2.405,1.295 -0.37,1.11 0.37,2.775 -0.37,3.146 -0.74,0.37 -1.295,-0.37 -3.146,0.185 -1.85,0.555 0,0 -0.925,0.74 -0.925,0.74 -2.035,1.85 -3.515,3.33 -1.48,1.48 -2.035,1.85 -2.59,2.775 -0.555,0.925 -2.405,3.699 -3.145,4.81 -0.74,1.11 -1.48,0.185 -2.96,0.555 -1.48,0.37 -1.665,1.851 -2.405,2.22 -0.74,0.371 -2.96,2.035 -2.96,1.48 0,-0.555 0,-1.48 0.925,-2.405 0.925,-0.925 1.665,-1.295 2.035,-2.405 0.37,-1.109 0.555,-2.034 1.665,-2.774 1.11,-0.74 0.555,-1.665 0.925,-2.405 0.37,-0.74 2.221,-0.925 3.33,-1.85 1.11,-0.925 1.851,-1.48 2.96,-2.59 1.11,-1.11 1.851,-1.665 3.33,-3.516 1.48,-1.85 0.925,-2.59 0.925,-3.515 0,-0.925 -0.925,-1.851 -2.404,-2.22 -1.48,-0.37 -1.295,1.109 -2.96,1.85 -1.665,0.74 -2.775,0.37 -3.886,0.925 -1.109,0.556 -1.85,0.74 -1.295,-0.555 0.556,-1.295 0.925,-0.925 1.665,-2.22 0.74,-1.295 1.295,-0.926 3.33,-1.665 2.035,-0.74 0.555,-1.851 0.925,-3.146 0.37,-1.295 1.48,-1.295 2.96,-2.404 1.48,-1.11 1.85,-1.295 3.33,-1.666 1.48,-0.369 2.22,-1.295 3.145,-2.59 0.925,-1.295 -1.11,-1.295 -0.925,-2.22 0.185,-0.925 0.925,-1.11 1.295,-1.665 0.37,-0.555 -0.185,-2.96 -0.555,-4.255 -0.37,-1.295 -2.405,-2.96 -4.44,-5.18 -2.035,-2.22 -1.665,-2.035 -2.22,-4.44 -0.555,-2.404 -1.48,-1.85 -2.59,-2.035 -1.11,-0.185 -1.295,0 -2.22,-0.74 -0.925,-0.739 -1.479,-2.59 -1.479,-4.069 0,-1.479 0.925,-1.479 1.479,-2.22 0.555,-0.74 0.74,-2.775 0.555,-4.256 -0.185,-1.479 0,0 -0.74,-1.295 -0.74,-1.295 -0.74,-3.885 -1.48,-4.439 -0.74,-0.555 0.37,-2.035 -0.555,-2.96 -0.925,-0.925 -0.37,-1.48 -1.85,-1.851 -1.48,-0.369 -1.85,0.186 -3.515,0.926 -1.665,0.74 -1.295,1.664 -2.775,2.59 -1.48,0.925 -0.925,0.925 -1.48,2.22 -0.555,1.295 -0.925,0.925 -2.405,1.479 -1.479,0.556 -1.295,-0.185 -2.035,-0.739 -0.74,-0.556 -0.925,-0.556 -1.85,-0.925 -0.925,-0.37 -0.74,-0.926 -1.48,0.185 -0.74,1.11 0.37,0.925 0.185,1.851 -0.185,0.925 -0.555,2.034 -1.11,3.145 -0.555,1.109 -1.109,1.48 -2.405,2.405 -1.295,0.925 -1.665,-0.37 -1.48,1.665 0.185,2.035 0.185,1.664 0.37,2.774 0.185,1.11 0.925,0.186 2.035,1.11 1.109,0.925 0.185,1.109 0.925,1.665 0.74,0.555 0.925,-0.185 2.22,-0.74 1.295,-0.555 0.925,-0.74 1.481,0 0.555,0.74 -0.37,0.925 -1.11,1.11 -0.74,0.185 1.665,1.479 2.96,2.774 1.295,1.296 1.85,1.11 2.22,0.37 0.37,-0.74 0.185,-1.85 -0.555,-2.775 -0.74,-0.924 -0.925,-1.85 -0.37,-2.774 0.555,-0.925 -0.185,-2.22 -0.185,-2.22 0,0 0.185,-1.295 -0.185,-2.96 -0.37,-1.665 1.11,-1.11 2.035,-0.37 0.925,0.74 0.186,1.85 0.186,2.404 0,0.556 0.739,1.666 0,2.405 -0.74,0.74 -0.925,0.186 -0.925,0.186 0,0 -0.185,1.295 -0.185,2.034 0,0.74 1.295,0.371 2.405,0.556 1.11,0.185 -0.556,1.479 -0.925,2.59 -0.37,1.11 1.295,0.555 1.85,0.185 0.555,-0.369 0.74,2.035 1.11,3.33 0.37,1.295 1.665,0.556 1.295,1.851 -0.37,1.295 -0.186,2.034 -0.74,3.145 -0.555,1.11 -0.555,2.405 -1.11,2.591 -0.555,0.185 0,2.22 -0.555,2.774 -0.555,0.554 -0.185,2.035 -0.37,4.44 -0.185,2.404 -1.48,-0.186 -1.48,-0.186 0,0 -0.925,-0.37 -0.925,-1.109 0,-0.74 0.37,-2.221 0.74,-3.33 0.37,-1.11 -0.185,-2.221 0.37,-3.146 0.555,-0.925 0,-2.22 -0.185,-3.146 -0.185,-0.924 -0.74,-2.774 -1.665,-4.069 -0.925,-1.295 -2.59,-2.035 -3.145,-2.22 -0.555,-0.186 -1.85,-0.37 -2.22,-0.926 -0.37,-0.555 -0.37,-1.479 -1.665,-1.479 -1.295,0 -1.665,0.555 -3.145,0.74 -1.48,0.185 -0.74,1.109 -1.48,0.925 -0.74,-0.186 -0.37,-1.48 -0.37,-2.59 0,-1.11 -1.295,-1.665 -1.11,-2.59 0.186,-0.926 0.37,-2.035 1.11,-3.33 0.74,-1.295 1.11,-2.035 1.11,-2.035 0,0 0.555,-1.665 0.555,-2.775 0,-1.109 0.185,-1.665 -0.74,-3.515 -0.925,-1.851 0,0 -1.665,0.925 -1.665,0.925 0,0 -0.37,0.925 -0.37,0.925 0,0.925 -0.925,2.035 -0.925,1.11 0,0 -0.185,0.74 -0.186,0.739 0,1.11 -0.925,1.295 -0.925,0.185 -1.48,-0.556 -2.405,-1.11 -0.925,-0.555 -1.11,0.37 -1.85,0.37 -0.74,0 -1.11,0.185 -1.665,1.11 -0.555,0.925 0.185,1.85 -0.185,2.404 -0.37,0.556 -0.555,2.221 0.74,3.886 1.295,1.665 1.295,1.11 2.22,1.85 0.925,0.74 1.11,-0.37 1.85,-0.925 0.74,-0.555 1.11,1.295 0.74,2.035 -0.37,0.74 0.925,1.295 0.555,2.404 -0.37,1.11 -0.37,2.221 -2.035,3.516 -1.665,1.295 -0.556,1.48 -0.186,2.59 0.37,1.11 -1.295,1.11 -2.035,2.22 -0.74,1.11 0.185,2.405 -0.555,2.591 -0.74,0.185 -1.11,0 -0.925,-0.926 0.185,-0.925 -0.185,-1.665 -0.74,-2.035 -0.555,-0.369 -0.925,0.186 -1.85,0.556 -0.925,0.37 -2.035,0.925 -2.221,0.37 -0.185,-0.556 1.295,-1.295 2.405,-2.59 1.11,-1.295 1.11,0 2.405,-0.556 1.295,-0.555 0.74,-1.479 1.48,-2.96 0.74,-1.48 -0.37,-0.925 -1.48,-1.109 -1.11,-0.186 -1.85,0.739 -2.59,1.295 -0.74,0.555 -3.33,1.85 -3.146,1.479 0.186,-0.37 1.11,-1.295 2.405,-2.405 1.295,-1.109 1.295,-0.925 1.11,-1.85 -0.185,-0.925 0,0 -1.11,0.186 -1.11,0.185 -1.48,-0.74 -0.925,-1.851 0.555,-1.11 0.925,-1.11 -0.925,-2.035 -1.85,-0.925 -1.11,0.556 -1.665,0.925 -0.555,0.37 -1.665,1.11 -2.405,0.926 -0.74,-0.186 -0.925,-0.74 -2.035,-0.926 -1.11,-0.185 -1.11,-0.555 -2.035,0 -0.925,0.556 -1.11,0.37 -2.405,1.11 -1.295,0.74 -0.555,1.11 -1.295,2.035 -0.74,0.925 0,0 -0.74,-0.37 -0.74,-0.37 0.37,-1.295 0.74,-2.035 0.37,-0.74 1.295,-1.295 2.405,-1.665 1.11,-0.37 2.035,-0.37 2.96,-1.11 0.925,-0.739 1.295,-1.295 1.665,-2.22 0.37,-0.925 0.185,-1.665 -1.48,-2.034 -1.665,-0.371 -1.85,-0.74 -2.59,-1.11 -0.739,-0.37 -0.925,-1.48 -2.035,-1.851 -1.11,-0.369 -0.925,1.48 -1.665,2.221 -0.74,0.74 -0.925,0.369 -2.035,0.369 -1.11,0 -0.555,1.851 -0.925,3.33 -0.37,1.48 0.185,1.666 -0.185,2.775 -0.37,1.11 0.555,1.11 -0.37,2.775 -0.925,1.664 -1.479,1.109 -1.479,1.109 0,0 -1.48,-0.555 -2.22,0 -0.74,0.555 -1.85,1.48 -2.775,2.405 -0.925,0.925 -2.035,0.185 -2.775,0.37 -0.74,0.185 -2.22,0.555 -3.7,0.555 -1.48,0 0.185,1.665 0.185,1.665 0,0 0,0 -0.37,0.74 -0.37,0.74 -0.185,1.11 -1.11,2.035 -0.925,0.925 0,0 -0.555,-0.186 -0.555,-0.185 -0.37,1.296 -0.185,2.035 0.185,0.74 -1.11,0.556 -1.665,0.556 -0.556,0 -0.925,1.109 -2.035,0.739 -1.11,-0.37 0,-0.925 0.185,-1.665 0.186,-0.74 0.186,-1.479 0.37,-2.035 0.185,-0.555 2.405,-1.85 3.515,-2.774 1.11,-0.925 0.185,-1.11 -0.555,-2.405 -0.74,-1.295 0,0 -1.665,0.37 -1.665,0.37 0,0 0,0.925 0,0.926 -2.035,2.775 -2.96,2.96 -0.925,0.186 -1.295,-0.37 -2.22,-0.739 -0.925,-0.371 -2.405,-0.371 -4.07,-0.371 -1.665,0 -1.479,0.186 -2.96,-0.555 -1.48,-0.74 -1.48,-0.555 -3.33,-1.295 -1.85,-0.74 -1.85,-0.185 -3.33,0.186 -1.479,0.369 0,0 -0.555,0.74 -0.555,0.739 0.185,0.924 -0.37,2.59 -0.555,1.664 -0.555,0.925 0,1.479 0.555,0.556 0,1.295 -0.184,2.405 -0.186,1.109 -0.925,0.74 -1.851,1.479 -0.925,0.74 0,0 -0.555,0.925 -0.555,0.926 -0.37,1.666 -0.37,2.591 0,0.925 0.37,2.034 1.11,2.96 0.74,0.925 0.555,0.185 0.74,1.479 0,0 -1.11,-0.185 -1.85,-0.739 -0.74,-0.556 -0.74,1.109 -0.37,2.22 0.37,1.11 0,1.479 1.11,2.96 1.11,1.479 0,0 -0.185,0.74 -0.185,0.739 -0.185,1.664 -0.739,2.959 -0.556,1.296 0,0 0.185,1.296 0.185,1.295 -0.925,1.109 -0.925,1.109 0,0 0.185,1.296 0.185,2.591 0,1.295 0.556,2.034 -0.185,2.404 -0.74,0.37 -1.11,-1.295 -1.48,-1.85 -0.37,-0.555 0.185,-2.59 0.185,-3.33 0,-0.74 0.37,-1.85 0.74,-2.405 0.37,-0.555 0.37,-2.035 0.37,-2.96 0,-0.925 -1.48,0.37 -1.48,0.37 0,0 -1.48,0.37 -2.035,1.295 -0.555,0.925 0.74,0.925 0.925,2.405 0.186,1.479 -1.665,2.22 -1.665,2.22 0,0 0,0 -1.664,0.37 -1.665,0.37 0,0 -0.555,0.74 -0.555,0.74 -1.295,0 -1.295,0 0,0 -0.74,-1.295 -1.85,-1.48 -1.11,-0.185 -1.11,0.926 -0.925,1.85 0.185,0.926 0.185,1.11 0.555,1.851 0.37,0.74 0.184,1.479 -0.555,2.22 -0.74,0.74 0,1.11 0.37,2.59 0.37,1.48 -1.109,0.186 -1.109,0.186 0,0 -1.295,-0.555 -1.295,-1.11 0,-0.555 -0.925,-0.185 -2.22,0.37 -1.295,0.555 -2.035,0.555 -1.85,1.85 0.185,1.295 0.555,2.035 1.665,3.33 1.11,1.295 0.925,1.11 1.85,3.146 0.925,2.035 0.925,1.295 1.48,2.405 0.555,1.109 1.665,0.925 2.774,1.295 1.11,0.369 2.221,0.555 4.07,1.295 1.85,0.74 -1.11,0.555 -2.59,1.295 -1.48,0.74 0,0 -1.665,0.185 -1.665,0.186 -1.11,0.925 -2.59,1.48 -1.48,0.555 -1.295,0.185 -3.146,0.185 -1.85,0 0,0 0.186,-1.295 0.184,-1.295 0,0 -0.925,-1.109 -0.925,-1.11 0,0 -0.925,0.369 -0.925,0.37 -0.925,0.37 -0.925,0.926 0,0.555 0.37,0.925 0.555,2.22 0.185,1.295 0,0 -0.37,0.74 -0.37,0.739 -0.74,0.925 -0.555,2.034 0.185,1.11 0.555,1.851 1.48,3.146 0.925,1.295 2.405,0.74 3.885,1.479 1.48,0.74 1.665,1.11 2.22,1.48 0.555,0.37 1.48,0.555 2.96,1.48 1.48,0.925 0,0 0.556,-0.74 0.555,-0.74 -0.556,-1.48 -1.11,-2.405 -0.555,-0.925 0.74,-0.925 2.405,-0.37 1.665,0.555 0,0 1.479,-0.74 1.48,-0.739 0,0 1.11,-0.369 1.11,-0.37 1.295,1.295 1.295,1.295 0,0 0,1.664 0.185,2.404 0.185,0.74 1.295,-0.185 2.405,0 1.11,0.186 0.74,1.11 0.185,1.48 -0.555,0.37 -1.11,0.555 -0.925,1.48 0.186,0.924 -1.295,0 -2.035,0.185 -0.74,0.185 -0.74,-1.11 -0.74,-1.11 0,0 -0.925,-0.555 -2.59,-0.37 -1.665,0.186 -0.74,1.296 -1.295,1.296 -0.555,0 -0.925,-0.186 -2.035,0 -1.11,0.185 0.185,1.109 0.37,2.034 0.185,0.925 0,2.405 1.11,3.146 1.11,0.74 0.925,0 2.405,0.74 1.48,0.739 0.74,0.925 1.295,1.295 0.555,0.369 0.925,0.739 1.85,1.109 0.925,0.37 0,0.926 -0.37,1.85 -0.37,0.926 -1.11,-0.185 -2.035,-0.369 -0.925,-0.186 -1.295,-0.555 -1.295,-0.555 0,0 -1.11,0.739 -0.925,0 0.185,-0.74 0.925,0 0.555,-1.296 l -1.48,0.37 c 0,0 -1.295,0.186 -1.85,-0.185 -0.555,-0.37 -1.85,-1.11 -2.775,-1.295 -0.925,-0.186 -1.295,-0.556 -1.295,-0.556 0,0 -1.48,0.74 -2.035,1.665 -0.555,0.925 -2.035,1.11 -3.145,0.925 -1.11,-0.185 -1.11,-0.739 -2.035,-1.479 -0.925,-0.74 -1.11,0 -2.22,-0.185 -1.11,-0.186 -1.665,0.739 -2.405,1.85 -0.74,1.109 0.37,1.85 0.37,1.85 0,0 -1.48,0.186 -3.33,-0.74 -1.85,-0.924 0,0 -0.925,-0.185 -0.925,-0.185 -2.035,0.185 -3.146,0.37 -1.11,0.186 -0.74,1.295 0.555,1.48 1.295,0.185 2.22,0.555 3.515,0.739 1.295,0.186 0.185,1.11 -0.185,2.035 -0.37,0.925 1.295,0.37 2.405,0.556 1.11,0.185 1.48,0.739 2.22,1.295 0.74,0.555 -0.185,1.664 0.74,1.664 0.925,0 1.295,0.371 2.22,0.371 0.925,0 1.85,0 2.405,0.924 0.555,0.926 0.37,1.11 1.48,2.405 1.11,1.296 0,0 0.74,0.74 0.74,0.74 0.74,1.11 1.665,1.479 0.925,0.371 1.11,-0.555 1.11,-0.555 l 0.74,0.926 c 0,0 -1.11,0.739 -1.11,1.85 0,1.109 -1.665,-0.186 -1.665,-0.186 l -1.85,-0.925 c 0,0 -1.48,-0.185 -1.48,-0.739 0,-0.556 -0.37,-1.48 -1.109,-2.221 -0.74,-0.74 -0.925,-0.74 -1.11,-1.295 -0.185,-0.555 -1.48,0 -1.48,0 0,0 -2.035,0.186 -2.775,0.555 -0.74,0.37 -1.665,0.556 -2.035,-0.185 -0.37,-0.74 -1.295,0 -2.22,-0.37 -0.925,-0.37 -1.665,0.555 -0.555,1.295 1.11,0.74 1.48,1.11 2.035,1.85 0.556,0.74 2.405,0.371 2.405,0.371 0,0 1.48,0.555 2.405,0.739 0.925,0.186 2.035,0.556 2.59,0.925 0.555,0.37 0.185,2.035 0.185,2.035 l -2.22,-0.369 c 0,0 -1.85,-0.371 -2.405,-0.371 -0.555,0 -1.295,0.186 -1.295,-1.109 0,-1.295 0,0 -0.37,-0.37 -0.37,-0.37 -1.85,0 -1.85,0 0,0 -1.295,0 -1.85,-0.555 -0.556,-0.556 -2.221,-1.11 -3.516,-1.296 -1.295,-0.185 -2.405,-0.369 -4.255,-0.185 -1.85,0.185 -4.07,0.74 -6.475,1.295 -2.405,0.556 -2.22,1.11 -2.59,1.665 -0.37,0.555 -1.48,0.926 -2.775,1.665 -1.295,0.74 -0.925,2.035 -0.925,2.035 0,0 -1.48,0.37 -2.405,0.925 -0.925,0.555 -2.22,0.74 -2.96,2.035 -0.74,1.295 -1.11,1.48 -1.295,2.59 -0.185,1.11 0.74,1.48 1.295,2.035 0.555,0.555 -1.11,1.11 -2.22,1.295 -1.11,0.186 -1.295,0.74 -2.59,1.11 -1.295,0.37 -1.48,-0.556 -2.035,-0.925 -0.556,-0.37 -1.295,1.295 -1.48,2.774 -0.185,1.48 0.925,1.665 1.85,2.405 0.925,0.74 1.109,2.22 0.925,2.775 -0.185,0.555 -1.48,1.664 -0.555,2.959 0.925,1.295 1.48,-0.369 2.775,1.11 1.295,1.48 0,0 1.665,0.185 1.665,0.186 1.295,0.926 3.515,1.48 2.221,0.555 1.48,1.11 3.33,1.295 1.851,0.186 1.295,0.926 2.221,2.035 0.925,1.11 0.37,1.295 0.925,3.145 0.555,1.851 0,0 0.925,0.371 0.925,0.369 1.85,-0.556 2.59,-0.556 0.74,0 2.22,-0.555 3.145,-0.925 0.925,-0.37 0.925,0.37 0.925,1.48 0,1.109 1.11,0.555 2.59,0.555 1.48,0 2.035,0.185 2.22,0.74 0.186,0.555 -0.925,1.295 -0.74,1.85 0.185,0.555 1.295,-0.186 1.85,-0.555 0.555,-0.37 1.295,-0.37 3.145,-1.851 1.85,-1.479 1.11,0 2.96,-0.739 1.85,-0.74 0.925,-1.11 2.775,-1.296 1.85,-0.185 1.295,-0.185 1.665,-1.109 0.37,-0.925 0.925,-0.925 2.405,-1.11 0,0 -0.186,1.11 0,1.85 0.185,0.74 -0.37,1.666 -0.555,2.59 -0.185,0.926 0.555,1.296 0.555,2.775 0,1.48 1.11,0.37 2.59,-0.185 1.48,-0.556 0.925,-1.295 1.665,-2.775 0.74,-1.479 0,0 0.925,-0.37 0.925,-0.369 -0.185,-2.22 -0.185,-2.22 0,0 0,-1.665 0.74,-1.851 0.74,-0.185 0.555,-0.924 1.11,-2.034 0.555,-1.11 1.11,0.185 1.11,0.925 0,0.74 -0.74,2.035 -1.665,3.7 -0.925,1.665 0.37,2.034 0.37,2.034 0,0 1.11,0.186 1.665,-0.739 0.555,-0.925 1.295,-2.59 2.035,-2.59 0.74,0 1.664,-0.37 2.035,0.739 0.37,1.11 0.925,0.926 1.295,1.48 0.37,0.555 -0.185,2.035 -0.74,2.59 -0.555,0.555 -1.85,2.035 -2.96,3.145 -1.11,1.11 -1.85,1.11 -3.145,1.296 -1.295,0.185 -1.48,0.739 -2.22,1.109 -0.74,0.37 -0.186,1.11 -0.556,1.665 -0.37,0.555 -0.925,1.48 -0.925,2.221 0,0.739 1.11,0.185 2.035,-0.186 0.925,-0.371 0.74,-1.295 0.37,-2.22 -0.37,-0.925 1.48,-1.295 1.48,-1.295 0,0 0,0 0.925,-0.37 0.925,-0.37 1.109,-0.37 2.59,-0.74 1.479,-0.37 1.295,-0.555 1.85,-1.48 0.555,-0.924 1.11,-0.555 1.11,-0.555 0,0 0.74,-1.295 1.85,-2.404 1.11,-1.11 1.665,-1.295 1.851,-2.221 0.185,-0.925 0.555,-1.295 1.295,-2.035 0.74,-0.739 1.11,-1.109 3.515,-1.85 2.405,-0.74 2.22,-1.665 2.22,-1.665 0,0 2.035,-1.11 2.96,-1.11 0.925,0 0.555,1.48 0.555,2.221 0,0.741 -0.37,1.109 -1.665,2.774 -1.295,1.665 0,0 -0.555,1.11 -0.555,1.109 -0.74,2.035 -0.74,2.035 0,0 -0.37,2.59 0.37,2.59 0.74,0 2.59,-1.295 4.81,-2.59 2.22,-1.295 1.295,-1.11 2.775,-1.295 1.479,-0.186 1.479,-1.665 2.404,-2.221 0.925,-0.555 2.221,-0.925 3.516,-1.85 1.295,-0.925 1.665,-0.74 2.404,-0.555 0.74,0.185 1.48,-0.926 1.295,-0.186 -0.185,0.74 0.555,1.665 0.555,1.665 l 1.11,-0.925 c 0,0 0.925,-1.109 1.48,-2.035 0.555,-0.925 1.11,-0.925 1.295,-2.22 0.185,-1.295 1.665,0 2.59,0.74 0.925,0.739 -0.74,1.295 -1.295,2.405 -0.555,1.109 -2.22,1.109 -2.775,1.85 -0.555,0.74 1.665,-0.186 2.96,0 1.295,0.185 -0.185,1.295 -0.925,1.665 -0.74,0.37 -0.74,1.85 -0.74,2.405 0,0.555 0.092,1.018 -0.093,2.034 -0.185,1.018 -0.647,0.37 -1.295,0.37 -0.647,0 -0.277,-0.832 -0.37,-1.202 -0.093,-0.37 -0.647,-0.556 -0.647,-1.018 0,-0.463 0,-1.479 0,-2.22 0,-0.741 -0.647,-0.463 -1.295,-0.37 -0.647,0.093 -0.74,0 -1.018,0.647 -0.277,0.647 -0.093,1.018 0.185,1.85 0.278,0.833 0.37,1.295 0.37,1.85 0,0.556 0.37,1.666 0.093,2.128 -0.277,0.463 -1.295,1.202 -1.665,1.851 -0.37,0.646 -1.11,0.832 -2.035,1.387 -0.925,0.556 -0.647,0.648 -1.017,1.48 -0.37,0.832 -1.018,0.832 -1.85,0.832 -0.833,0 -0.74,0.648 -0.555,1.665 0.185,1.018 0.647,0.833 0.833,2.22 0.185,1.389 -0.37,1.666 -0.74,2.405 -0.37,0.74 -1.018,0.925 -1.665,1.018 -0.647,0.093 -1.757,1.202 -4.07,2.775 -2.312,1.572 -1.017,1.295 -1.11,2.035 -0.093,0.739 1.202,1.109 1.665,2.034 0.462,0.926 1.665,1.203 3.053,1.203 1.387,0 3.052,0.185 3.515,0.463 0.463,0.277 0,0.832 -0.647,1.109 -0.648,0.277 -1.665,0 -2.775,0 -1.11,0 -2.683,0 -2.961,-0.277 -0.277,-0.277 -0.462,-0.463 -0.925,-0.277 -0.462,0.185 -0.37,1.109 -0.37,1.109 0,0 -0.277,1.018 -0.37,1.758 -0.092,0.74 -1.11,0.277 -1.665,0.463 -0.555,0.185 0,1.295 -0.647,2.035 -0.648,0.739 -2.22,0 -3.608,0.185 l -0.779,0.259 h 0.779 l 0.74,0.852 c 0,0 -0.185,0.369 0,0.74 0.185,0.369 0.555,0.535 0.925,0.915 0.37,0.38 0.74,0.842 1.11,0.749 0.37,-0.092 0.647,-0.759 1.295,-0.749 0.647,0.01 1.48,-0.01 1.85,0 0.37,0.01 1.11,0.866 1.387,0.761 0.277,-0.104 1.11,-0.709 2.035,0.01 0.925,0.719 0.912,-0.596 1.52,-0.771 0.607,-0.176 2.273,-0.473 2.92,0 0.647,0.472 4.154,0.325 4.154,0.325 0,0 -0.285,-0.01 0.643,-0.732 z"
   style="fill:#677821" />
				</g><rect
   style="fill:none;stroke:#000000;stroke-width:0.29998;stroke-linejoin:bevel;stroke-dasharray:none;paint-order:stroke fill markers"
   id="rect2"
   height="4390.293"
   x="0.19998971"
   y="0.19998971"
   ry="0.69917101"
   width="4353.8188" /></svg>
