<?xml version="1.0" encoding="UTF-8" standalone="no"?>
<!-- Generator: Adobe Illustrator 22.1.0, SVG Export Plug-In . SVG Version: 6.00 Build 0)  -->

<svg
   version="1.1"
   x="0px"
   y="0px"
   viewBox="0 0 4354.1187 4390.5933"
   enable-background="new 0 0 1995.865 2834.646"
   xml:space="preserve"
   id="svg1596"
   width="4354.1187"
   height="4390.5933"
   xmlns="http://www.w3.org/2000/svg"
   xmlns:svg="http://www.w3.org/2000/svg"><defs
   id="defs1596" />


<g
   id="Dublin__x3C_Group_x3E__2_"
   style="fill:#677821"
   transform="translate(1093.6405,660.66109)">
					<path
   fill="#4B5A26"
   d="m 778.697,1874.766 c 0,0 -0.102,0.925 -0.009,1.665 0.093,0.74 -0.555,0 -0.925,0 -0.37,0 -0.555,-0.463 -0.647,-1.018 -0.093,-0.555 0.451,-0.451 0.647,-0.647 0.648,-0.648 0.934,0 0.934,0 z"
   id="path1006"
   style="fill:#677821" />
					<path
   fill="#4B5A26"
   d="m 762.5,1885.865 1.572,0.833 c 0,0 0.833,-1.942 2.128,-3.053 1.295,-1.11 2.682,-1.665 3.052,-1.85 0.37,-0.186 1.11,-0.556 1.387,-0.74 0.277,-0.185 0.277,-1.018 0,-0.925 -0.277,0.092 -0.37,-0.662 -1.202,-0.01 -0.833,0.655 -1.572,1.025 -2.035,1.303 -0.462,0.277 -1.018,0.74 -1.665,0.74 -0.647,10e-4 -3.237,3.7 -3.237,3.7 z"
   id="path1007"
   style="fill:#677821" />
					<path
   id="Lambay_Island_1_"
   fill="#4B5A26"
   d="m 786.735,1855.916 c 0,0 0.555,-0.482 0.74,-0.854 0.185,-0.369 -0.832,-0.646 -1.572,-1.017 -0.74,-0.37 -0.647,0 -1.202,0.37 -0.556,0.369 -1.388,-0.186 -2.312,0 -0.925,0.185 -1.018,0.925 -0.833,1.295 0.186,0.369 0.647,1.109 1.203,1.387 0.555,0.277 1.757,0.926 2.312,0.833 0.556,-0.093 0.463,-1.11 0.833,-1.665 z"
   style="fill:#677821" />
					<path
   id="Dublin_2_"
   fill="#4B5A26"
   d="m 758.005,1823.539 c -0.259,-0.129 -0.777,0.629 -1.887,0.536 -1.11,-0.092 -2.713,0.37 -3.392,0.647 -0.678,0.277 -1.788,1.018 -1.788,1.758 0,0.74 0,1.942 0,2.867 0,0.926 -0.149,1.758 -0.629,2.405 -0.482,0.647 0.166,-0.093 -2.331,1.572 -2.498,1.665 -3.022,1.48 -4.009,2.405 -0.986,0.925 -0.246,2.405 -1.727,1.295 -1.479,-1.109 -1.018,-1.85 -2.683,-2.312 -1.665,-0.463 -2.22,-1.109 -3.792,-0.647 -1.573,0.463 -1.573,1.11 -2.683,1.942 -1.11,0.833 -1.85,0.926 -2.96,2.683 -1.11,1.758 -1.018,3.053 -0.833,4.07 0.185,1.018 1.11,2.59 2.035,3.792 0.925,1.203 1.851,1.48 3.238,2.221 1.387,0.739 1.565,0.925 2.54,1.942 0.975,1.018 1.714,1.388 2.455,2.774 0.74,1.388 0.699,1.02 1.321,2.822 0.622,1.803 0.303,2.08 0,3.375 -0.303,1.296 -1.043,2.312 -1.321,3.516 -0.277,1.202 -0.185,2.312 -1.572,2.96 -1.387,0.648 -1.85,1.665 -3.515,1.665 -1.665,0 -2.59,-0.647 -3.515,0.555 -0.925,1.203 -0.715,2.379 -1.778,3.978 -1.063,1.599 -2.015,3.803 -2.478,4.399 -0.462,0.596 -0.74,1.983 -1.109,1.799 -0.37,-0.186 -1.665,-0.186 -2.312,0.462 -0.648,0.647 0.092,2.261 0,3.119 -0.093,0.858 1.42,1.354 -0.268,2.061 -1.69,0.708 -3.044,1.296 -3.099,2.498 -0.055,1.202 -0.038,2.132 0,3.009 0.038,0.876 0,2.264 0,2.264 -0.425,1.018 -1.628,1.758 -2.461,2.035 -0.832,0.277 -1.606,0.832 -2.144,1.479 -0.538,0.647 -1.561,-0.34 -0.864,1.587 0.696,1.928 0.847,2.206 0.864,3.038 0.018,0.833 0.202,0.37 -0.445,1.295 -0.648,0.925 -1.85,0.65 -1.018,1.99 0.833,1.34 1.295,1.542 2.22,2.366 0.925,0.824 2.405,1.379 2.127,2.026 -0.278,0.647 -1.792,-0.093 -2.885,1.202 -1.093,1.295 -1.555,2.039 -0.815,2.963 0.74,0.922 2.312,0.279 3.238,0 0.925,-0.28 2.22,-0.426 2.868,0.479 0.648,0.905 2.312,2.293 2.312,2.293 0,0 1.387,-0.093 2.405,0 1.018,0.093 3.052,0.277 3.607,0 0.555,-0.277 1.665,-0.647 1.943,0.833 0.277,1.479 0.185,3.052 1.202,3.329 1.018,0.278 3.269,0.278 3.716,0.463 0.447,0.185 1.341,0.37 1.033,1.572 -0.309,1.202 -0.3,1.942 0.25,2.498 0.551,0.555 1.106,0.925 1.661,1.388 0.555,0.462 1.438,1.972 2.153,1.957 0.714,-0.016 1.177,0.771 1.732,-0.547 0.555,-1.318 0.586,-1.41 1.356,-2.428 0.772,-1.018 0.031,-1.666 0.401,-3.33 0.37,-1.665 -0.277,-2.775 1.11,-3.33 1.387,-0.556 0.833,-0.556 2.128,0.277 1.295,0.832 0.647,2.024 2.405,2.399 1.757,0.376 1.942,1.393 3.237,1.208 1.295,-0.186 1.942,0 3.237,-0.555 1.295,-0.556 0.832,-1.018 2.312,-1.665 1.48,-0.647 1.85,-1.388 3.145,-0.833 1.295,0.555 1.757,0.822 2.59,1.845 0.832,1.022 0.023,1.855 2.139,1.578 2.116,-0.277 2.671,-1.213 2.856,-1.578 0.185,-0.364 3.052,-0.92 3.052,-0.92 -0.74,-1.85 -1.48,-10.915 -0.74,-11.654 0.74,-0.74 1.85,-0.925 2.034,-2.035 0.186,-1.11 -1.109,-1.851 -1.85,-2.775 -0.74,-0.925 -2.22,-1.11 -2.22,-1.11 -1.85,-2.034 -3.33,-1.295 -4.995,-1.85 -1.665,-0.555 -4.81,-2.775 -5.92,-4.439 -1.11,-1.665 -0.925,-4.44 -0.925,-4.44 0,0 2.404,0.37 3.515,0 1.11,-0.37 0.37,-1.11 0.37,-1.11 h -1.85 c 0,0 -1.11,-0.555 -0.555,-1.295 0.555,-0.74 0.185,-1.665 0.185,-1.665 h -1.665 l -2.775,-1.264 c 0,0 5.18,0.339 6.475,0 1.295,-0.339 2.59,-3.546 3.516,-4.471 0.925,-0.925 2.404,-1.295 3.7,-1.665 1.296,-0.37 3.145,0.185 3.7,0.74 0.555,0.555 0.74,1.295 0.37,2.404 -0.37,1.11 0.74,1.295 2.035,2.405 1.295,1.11 1.295,0.37 2.22,0 0.925,-0.37 1.11,0 1.85,0 0.74,0 0.925,-2.035 0.925,-2.035 0,0 0.555,-1.85 0,-2.96 -0.555,-1.109 -3.885,-1.109 -5.55,-1.295 -1.665,-0.186 -4.625,-0.925 -4.625,-0.925 0,0 -1.295,-1.851 -1.85,-1.999 -0.555,-0.148 0.37,-3.182 0.37,-3.182 0,0 0.74,1.666 1.11,2.221 0.37,0.555 1.11,1.109 1.479,0.925 0.37,-0.185 -0.925,-3.33 -0.925,-3.33 0,0 0,-3.885 -0.555,-5.18 -0.555,-1.295 -2.775,-1.48 -4.255,-2.755 -1.481,-1.275 -2.035,0.35 -2.775,0 -0.74,-0.35 -3.33,-2.426 -3.33,-2.426 l 4.07,-0.739 c 0,0 1.85,-0.186 2.96,-0.186 1.11,0 0.185,-1.295 0.185,-1.295 l 1.85,1.11 c 0,0 -0.556,1.295 -1.11,1.479 -0.555,0.186 -0.555,1.851 0.74,2.035 1.295,0.185 1.85,-0.925 2.035,-2.405 0.185,-1.479 1.295,-2.96 1.85,-3.699 0.555,-0.74 0.925,-0.74 1.48,-1.665 0.555,-0.925 -0.925,-1.11 -0.925,-1.11 l -0.37,-1.48 c 0,0 -0.37,-0.925 -1.48,-1.479 -1.11,-0.555 -1.48,-0.185 -1.48,-0.185 l 0.37,1.664 h -2.59 -2.96 c 0,0 1.295,-0.925 2.035,-1.85 0.74,-0.925 2.59,-0.74 4.44,-0.925 1.85,-0.185 2.405,0 2.405,0 l 1.85,-1.48 h 1.479 c 0,0 -0.925,-1.479 -1.109,-2.22 -0.186,-0.74 0.74,-1.85 0.74,-1.85 0,0 0.185,-2.221 0,-3.7 -0.185,-1.48 -1.11,-1.851 -1.85,-2.405 -0.74,-0.555 -0.74,-2.22 -0.925,-3.864 -0.185,-1.644 0.185,-0.945 0.185,-0.945 l -1.109,0.739 c 0,0 0,0 -0.74,0.186 -0.74,0.185 -2.035,-0.925 -2.035,-0.925 h -2.22 l -1.851,-2.035 -1.109,-3.146 c 0,0 -1.48,-0.555 -2.035,-0.925 -0.555,-0.37 -0.555,-2.405 -1.11,-3.33 -0.555,-0.925 -1.479,-0.925 -1.479,-0.925 z"
   style="fill:#677821" />
				</g><rect
   style="fill:none;stroke:#000000;stroke-width:0.29998;stroke-linejoin:bevel;stroke-dasharray:none;paint-order:stroke fill markers"
   id="rect2"
   height="4390.293"
   x="0.19998971"
   y="0.19998971"
   ry="0.69917101"
   width="4353.8188" /></svg>
