<?xml version="1.0" encoding="UTF-8" standalone="no"?>
<!-- Generator: Adobe Illustrator 22.1.0, SVG Export Plug-In . SVG Version: 6.00 Build 0)  -->

<svg
   version="1.1"
   x="0px"
   y="0px"
   viewBox="0 0 4354.1187 4390.5933"
   enable-background="new 0 0 1995.865 2834.646"
   xml:space="preserve"
   id="svg1596"
   width="4354.1187"
   height="4390.5933"
   xmlns="http://www.w3.org/2000/svg"
   xmlns:svg="http://www.w3.org/2000/svg"><defs
   id="defs1596" />


<g
   id="Galway__x3C_Group_x3E__2_"
   style="fill:#677821"
   transform="translate(1093.6405,660.66109)">
					<path
   fill="#606F38"
   d="m 308.356,1952.744 c 0.124,-0.617 0.987,-1.11 2.713,-1.727 1.727,-0.617 1.233,-0.123 3.183,0.74 1.95,0.863 1.134,1.356 0,2.22 -1.134,0.863 -0.716,0.863 -1.528,2.097 -0.813,1.233 -1.654,0.493 -2.411,0 -0.757,-0.493 -1.469,-0.421 -1.957,-0.493 -1.4,-0.208 -0.123,-2.22 0,-2.837 z"
   id="path985"
   style="fill:#677821" />
					<path
   fill="#606F38"
   d="m 299.723,1951.388 c 1.351,-0.13 3.823,-0.863 4.686,-1.356 0.863,-0.494 0.74,-1.48 1.233,-2.098 0.493,-0.616 1.233,0.124 1.48,-1.479 0.247,-1.604 0.124,-2.837 -1.233,-2.96 -1.357,-0.123 -1.255,-0.863 -2.416,0 -1.161,0.863 -1.531,0 -2.024,1.48 -0.493,1.479 -1.604,1.189 -1.727,2.26 -0.122,1.07 -0.85,4.234 0.001,4.153 z"
   id="path986"
   style="fill:#677821" />
					<path
   fill="#606F38"
   d="m 381.37,1915.497 c -0.949,0.295 -0.986,0.494 -2.344,0.617 -1.357,0.123 -2.096,0.247 -2.467,0.739 -0.369,0.494 -0.123,0.247 0.987,0.74 1.11,0.494 0.863,1.357 1.85,1.11 0.987,-0.247 0.617,-0.617 1.233,-0.863 0.617,-0.247 0.74,-0.08 1.233,-0.718 0.494,-0.639 0.494,-1.626 0.494,-1.626 0,0 0.174,-0.359 -0.986,10e-4 z"
   id="path987"
   style="fill:#677821" />
					<path
   fill="#606F38"
   d="m 381.987,1919.563 c 0.74,-0.126 5.426,1.237 6.289,0.867 0.864,-0.37 -1.48,-0.37 -2.343,-0.986 -0.863,-0.616 -1.233,-0.864 -1.974,-0.696 -0.74,0.166 -1.346,-0.072 -2.467,0 -0.739,0.047 -0.245,0.942 0.495,0.815 z"
   id="path988"
   style="fill:#677821" />
					<path
   fill="#606F38"
   d="m 291.336,1915.337 c 0.889,0.347 1.85,0.704 2.837,0 0.986,-0.703 1.727,-0.087 1.727,-1.937 0,-1.85 -0.124,-3.33 0,-4.562 0.123,-1.234 -0.37,-1.357 -0.987,-1.728 -0.617,-0.371 -1.727,-0.863 -0.617,-1.479 1.11,-0.617 1.974,-0.494 0.986,-1.48 -0.986,-0.986 0.513,-1.356 -1.655,-0.986 -2.168,0.37 -2.168,-0.863 -2.908,0.74 -0.74,1.604 -0.37,1.479 -1.727,1.85 -1.357,0.37 -2.097,-0.986 -2.96,0.863 -0.863,1.85 -0.986,2.22 0,2.775 0.987,0.555 1.11,0.185 0.74,1.418 -0.37,1.233 -1.11,1.11 -0.37,2.467 0.74,1.356 1.357,2.023 2.22,2.06 0.865,0.036 1.943,-0.302 2.714,-10e-4 z"
   id="path989"
   style="fill:#677821" />
					<path
   fill="#606F38"
   d="m 280.36,1915.742 c 0,0 0,0.49 0.37,0 0.37,-0.492 1.11,-1.231 1.727,-0.984 0.617,0.246 0.493,0.536 1.357,0.576 0.863,0.04 1.201,1.07 1.525,0 0.324,-1.07 -1.382,-1.688 -0.775,-2.304 0.606,-0.616 1.274,-0.369 0.817,-1.356 -0.458,-0.986 -0.581,-1.604 -1.444,-1.356 -0.863,0.247 -1.356,0.493 -1.85,1.356 -0.494,0.863 -0.987,0.654 -1.727,1.438 -0.74,0.783 -0.37,2.63 0,2.63 z"
   id="path990"
   style="fill:#677821" />
					<path
   fill="#606F38"
   d="m 281.346,1909.383 c 0.123,1.162 0.247,1.058 1.386,0.881 1.139,-0.178 0.218,-0.81 0.588,-0.881 0.37,-0.072 0,-1.162 -0.588,-1.532 -0.588,-0.37 -0.422,-0.726 -0.646,-1.11 -0.646,-1.11 -0.863,1.48 -0.74,2.642 z"
   id="path991"
   style="fill:#677821" />
					<path
   fill="#606F38"
   d="m 286.156,1905.014 c 0.388,-0.043 1.233,0.124 1.233,-0.739 0,-0.864 -0.246,-1.146 -1.233,-1.251 -0.986,-0.106 -2.076,0.493 -1.593,0.995 0.483,0.502 1.015,1.059 1.593,0.995 z"
   id="path992"
   style="fill:#677821" />
					<path
   fill="#606F38"
   d="m 292.155,1901.684 c 1.312,-0.369 1.401,-0.246 2.511,-0.616 1.11,-0.37 1.727,-0.863 3.207,-1.495 1.48,-0.631 -0.493,-0.725 -1.954,-1.465 -1.461,-0.74 -1.499,-0.123 -2.239,-0.247 -0.74,-0.123 -1.727,-0.123 -3.051,-1.233 -1.324,-1.109 -0.772,0 -1.636,0 -0.863,0 -0.74,0.863 -1.604,1.974 -0.863,1.11 -0.123,0.987 0.372,1.85 0.496,0.863 0.615,0.864 -0.372,0.617 -0.986,-0.247 -1.356,0.493 -1.472,0.987 -0.116,0.493 2.585,0.836 3.693,0.956 0.879,0.094 1.233,-0.957 2.545,-1.328 z"
   id="path993"
   style="fill:#677821" />
					<path
   fill="#606F38"
   d="m 290.628,1894.777 c 0.649,0.74 0.708,0.37 1.527,0 0.819,-0.37 1.277,-0.37 2.264,-1.233 0.987,-0.863 -0.617,-0.493 -1.604,-0.493 -0.986,0 -1.269,0.016 -2.188,0.493 -0.843,0.439 -0.648,0.493 10e-4,1.233 z"
   id="path994"
   style="fill:#677821" />
					<path
   fill="#606F38"
   d="m 296.407,1896.75 c 1.001,-0.246 1.22,0.494 1.99,0 0.771,-0.493 -0.525,-0.862 -0.647,-1.546 -0.123,-0.683 -0.123,-0.55 -0.74,-1.116 -0.616,-0.565 -0.616,-0.297 -1.604,0 -0.986,0.298 -0.74,1.43 -1.233,2.046 -10e-4,0 1.233,0.863 2.234,0.616 z"
   id="path995"
   style="fill:#677821" />
					<path
   fill="#606F38"
   d="m 272.343,1901.561 c 0.352,-0.816 0.37,-1.996 1.233,-1.984 0.863,0.012 1.603,-0.605 0.617,-0.976 -0.987,-0.37 -0.987,0.347 -1.85,0.976 -0.863,0.628 -1.357,1.861 -0.987,1.984 0.37,0.123 0.68,0.711 0.987,0 z"
   id="path996"
   style="fill:#677821" />
					<path
   fill="#606F38"
   d="m 269.506,1900.203 c 0.041,-0.985 0.246,-1.603 -0.494,-2.219 -0.74,-0.617 0.494,-1.974 -0.863,-1.851 -1.357,0.124 -1.233,-0.146 -2.343,0.79 -1.11,0.937 -2.22,1.228 -1.11,1.575 1.11,0.349 1.184,1.559 2.195,1.077 1.012,-0.482 0.642,-1.369 1.012,0 0.37,1.368 1.682,2.231 1.643,1.861 -0.04,-0.369 -0.076,-0.368 -0.04,-1.233 z"
   id="path997"
   style="fill:#677821" />
					<path
   fill="#606F38"
   d="m 252.116,1893.757 c 0.37,-0.336 2.097,-1.199 0.863,-1.569 -1.233,-0.37 -2.467,-0.863 -2.467,0 0,0.863 1.604,1.569 1.604,1.569 z"
   id="path998"
   style="fill:#677821" />
					<path
   fill="#606F38"
   d="m 226.833,1853.338 c 0.494,-0.124 0.987,-0.247 1.85,0 0.864,0.246 1.603,0.455 0.987,-0.143 -0.617,-0.598 0.104,-0.845 -1.305,-0.721 -1.409,0.123 -2.025,0.215 -2.148,0.539 -0.124,0.325 0.616,0.325 0.616,0.325 z"
   id="path999"
   style="fill:#677821" />
					<path
   fill="#606F38"
   d="m 226.202,1851.487 c 0.669,0.108 1.585,0.123 1.847,-0.37 0.264,-0.493 1.094,-1.232 0,-1.356 -1.093,-0.123 -1.861,0.74 -1.847,0.925 0.014,0.185 -0.754,0.679 0,0.801 z"
   id="path1000"
   style="fill:#677821" />
					<path
   fill="#606F38"
   d="m 224.736,1848.281 c 1.255,-0.08 2.161,0.369 2.499,-0.864 0.338,-1.233 1.142,-1.85 0,-2.22 -1.142,-0.37 -1.882,-0.617 -2.499,0 -0.616,0.617 -0.493,0.734 -0.493,1.354 0,0.62 -0.49,1.793 0.493,1.73 z"
   id="path1001"
   style="fill:#677821" />
					<path
   fill="#606F38"
   d="m 212.526,1844.821 c -0.123,0.61 1.11,-0.117 2.097,-0.487 0.987,-0.37 0,-0.74 0,-0.74 0,0 -0.986,-0.493 -1.479,0 -0.001,0 -0.495,0.617 -0.618,1.227 z"
   id="path1002"
   style="fill:#677821" />
					<path
   fill="#606F38"
   d="m 218.076,1848.298 c 0.863,-0.601 2.096,0.353 2.343,-0.511 0.247,-0.863 -1.597,-0.077 -2.343,0 -0.864,0.09 -0.864,1.11 0,0.511 z"
   id="path1003"
   style="fill:#677821" />
					<path
   fill="#606F38"
   d="m 226.202,1828.388 c 0.85,-0.159 1.247,-0.333 1.624,-0.95 0.377,-0.617 -0.998,-0.093 -1.956,0 -0.603,0.058 -0.517,1.109 0.332,0.95 z"
   id="path1004"
   style="fill:#677821" />
					<path
   fill="#606F38"
   d="m 229.897,1824.107 c 0.35,-0.37 2.116,0 2.855,0 0.74,0 0.124,-0.863 -0.74,-0.74 -0.863,0.123 -1.203,-0.07 -2.116,0 -0.889,0.07 -0.35,1.111 0.001,0.74 z"
   id="path1005"
   style="fill:#677821" />
					<path
   id="Inishmore__x2F__Ãrainn_Island_1_"
   fill="#606F38"
   d="m 293.556,1946.084 c 0.57,0.267 1.11,0.986 1.974,0 0.863,-0.986 0.74,-0.246 1.11,-1.604 0.37,-1.356 0.493,0.038 0.863,-1.398 0.37,-1.438 0.37,-1.438 0.37,-1.438 0,0 1.85,-0.494 0,0 -1.85,0.493 -1.727,2.258 -2.22,1.438 -0.493,-0.821 0,-2.123 -0.863,-1.657 -0.863,0.466 0,1.452 -1.233,0.589 -1.233,-0.863 -2.836,-0.492 -2.22,-1.479 0.617,-0.987 1.11,-0.74 1.974,-1.479 0.863,-0.74 2.905,-1.11 1.638,-1.851 -1.267,-0.74 -2.65,-0.37 -3.748,-1.11 -1.097,-0.74 -0.604,-1.233 -2.946,-1.356 -2.344,-0.123 -2.59,-0.124 -3.947,0 -1.356,0.124 -0.986,1.11 -2.22,1.233 -1.234,0.123 -0.616,-1.233 -2.097,-2.344 -1.48,-1.109 -0.617,-1.355 -3.577,-1.232 -2.96,0.123 -3.083,-1.045 -4.07,-0.029 -0.987,1.016 -2.59,2.126 -1.604,2.619 0.987,0.493 4.193,1.727 6.66,2.097 2.467,0.37 0.617,0.883 4.07,2.168 3.453,1.285 4.562,2.272 5.673,2.642 1.11,0.37 1.974,0.778 2.713,1.191 0.74,0.41 2.849,2.602 3.7,3 z"
   style="fill:#677821" />
					<path
   id="Inishbofin_Island_1_"
   fill="#606F38"
   d="m 215.061,1824.354 c 0.797,-0.585 -1.483,-1.356 -1.763,0 -0.279,1.357 -0.671,2.714 0.882,2.961 1.553,0.246 3.218,0.543 3.248,1.073 0.031,0.529 0.516,0.653 1.506,1.023 0.991,0.37 2.225,0.739 3.088,0 0.863,-0.74 0.986,-0.073 1.11,-1.023 0.124,-0.95 1.976,-1.725 0.988,-2.14 -0.988,-0.414 -1.605,-0.907 -0.988,-1.4 0.617,-0.494 2.223,-1.028 0.988,-1.378 -1.234,-0.349 -1.728,0.145 -2.098,-0.596 -0.37,-0.741 -0.942,-0.37 -1.581,0 -0.639,0.37 0.594,0.247 -0.639,0.37 -1.233,0.123 -1.665,0.247 -2.374,1.356 -0.71,1.11 -0.832,0.987 -1.45,0.987 -0.615,10e-4 -1.588,-0.739 -0.917,-1.233 z"
   style="fill:#677821" />
					<path
   id="Inishark_Island_1_"
   fill="#606F38"
   d="m 211.91,1830.15 c 1.024,-0.552 2.203,-0.74 0.608,-1.973 -1.595,-1.233 -1.102,-2.221 -2.582,-1.851 -1.48,0.37 -0.987,0.785 -1.727,1.872 -0.74,1.088 -2.22,1.335 -1.233,1.951 0.986,0.617 1.85,0.371 2.467,0 0.616,-0.368 1.789,0.368 2.467,0 z"
   style="fill:#677821" />
					<path
   id="Galway_mainland__x3C_Path_x3E__2_"
   fill="#606F38"
   d="m 288.87,1829.838 c 0.863,0.559 0.74,1.545 0,2.038 -0.74,0.493 -2.36,0.123 -3.338,0 -0.978,-0.123 -5.287,-0.241 -5.599,0.249 -0.312,0.491 -2.401,-0.12 -3.268,0 -0.867,0.121 -0.79,-0.742 -2,-1.236 -1.21,-0.492 -2.197,-1.479 -2.814,-1.603 -0.617,-0.124 -2.287,-1.514 -2.287,-1.514 0,0 -1.06,0.147 -1.475,0.28 0.185,0.556 -2.59,-0.555 -3.145,-0.74 -0.555,-0.185 -1.48,0.371 -2.59,0.556 -1.11,0.185 -0.925,0 -0.925,1.295 0,1.295 -1.295,0.925 -2.59,1.665 -1.295,0.74 -2.405,0.555 -3.145,0.555 -0.74,0 -1.48,-0.185 -2.405,-0.37 -0.925,-0.185 -2.035,-0.555 -3.33,-0.925 -1.295,-0.37 -0.555,-1.479 -2.405,-1.85 -1.851,-0.37 -0.925,0.925 -1.851,0.925 -0.925,0 -1.85,-0.37 -2.96,-0.555 -1.11,-0.186 -1.85,0.185 -1.85,0.925 0,0.74 0.925,1.295 1.11,2.404 0.185,1.11 0.74,1.48 1.11,2.035 0.37,0.556 1.295,0.926 2.035,1.851 0.74,0.925 2.96,1.11 4.995,1.295 2.035,0.185 4.255,0.37 4.255,1.85 0,1.48 -0.925,0 -2.405,-0.37 -1.48,-0.369 -1.295,0.37 -2.035,0.37 -0.74,0 -1.48,0.186 -2.22,0.74 -0.74,0.555 0.37,0.925 2.405,0.555 2.035,-0.37 1.11,0.186 2.22,0 1.11,-0.185 1.11,1.296 -0.185,1.665 -1.295,0.37 -1.481,-0.369 -1.481,-0.369 l -0.925,1.109 c 0,0 -1.11,0.555 -1.665,0.37 -0.555,-0.185 -1.48,0 -1.665,-1.11 -0.185,-1.109 -0.925,0 -0.925,-1.479 0,-1.48 0.74,-1.11 0.555,-1.665 -0.184,-0.555 -1.479,-0.74 -3.144,-1.295 -1.665,-0.555 -2.035,0 -2.035,0 0,0 -0.925,0.185 -2.22,0 -1.295,-0.186 -1.295,-0.186 -2.59,-0.37 -1.295,-0.185 -1.85,-0.37 -3.145,-0.37 -1.295,0 -2.22,-0.186 -2.405,0.555 -0.185,0.74 1.11,0.74 2.035,1.295 0.925,0.556 1.665,2.405 1.665,2.405 0,0 0,0 -1.11,0 -1.109,0 -1.665,-0.925 -2.404,-1.295 -0.74,-0.37 -1.48,-0.185 -2.96,-0.555 -1.48,-0.37 -1.11,0.925 -2.96,0.925 -1.85,0 -2.035,0.37 -2.405,0.925 -0.37,0.556 -1.48,1.11 -2.035,1.48 -0.555,0.37 0.555,1.295 1.665,0.925 1.11,-0.37 1.665,0.74 3.515,0.555 1.851,-0.185 2.405,1.11 2.405,1.11 0,0 0.925,1.479 1.665,2.405 0.74,0.925 0.185,2.404 0,3.885 -0.185,1.479 1.295,-0.186 1.85,0 0.555,0.185 0.74,1.109 0.925,1.665 0.185,0.555 0.925,1.295 2.405,1.665 1.48,0.369 1.665,0 4.07,0.925 2.405,0.925 1.11,0.74 2.96,1.295 1.85,0.555 0.185,0.925 0.37,1.665 0.184,0.74 1.85,0.74 2.405,1.48 0.555,0.739 -1.48,0 -2.221,-0.186 -0.74,-0.186 -1.479,-0.74 -2.035,-1.295 -0.555,-0.555 -1.665,-1.85 -3.145,-2.22 -1.48,-0.37 -1.295,0.739 -1.48,1.295 -0.185,0.555 -1.11,0 -0.555,0.925 0.555,0.925 0.37,0.925 1.85,1.109 1.48,0.186 -1.295,1.11 -0.74,1.48 0.555,0.37 1.479,-0.185 2.405,-0.185 0.925,0 0.37,0.925 1.295,1.109 0.925,0.186 1.665,-0.555 2.59,1.11 0.925,1.665 0,0 -2.035,0.555 -2.035,0.555 0,0 -0.555,0.74 -0.556,0.74 0.37,1.11 -0.925,2.035 -1.295,0.925 -1.295,0.185 -2.405,0 -1.11,-0.186 -0.925,0.555 -1.295,-0.37 -0.37,-0.925 -0.37,-0.925 -1.11,-1.479 -0.74,-0.556 -2.405,-0.371 -2.59,-1.11 -0.185,-0.74 -1.85,0.37 -2.035,0.925 -0.185,0.555 -0.37,1.85 -0.37,1.85 0,0 -1.665,-0.555 -2.22,0 -0.555,0.556 0.555,1.48 0,1.851 -0.555,0.37 -1.48,1.665 -2.035,2.59 -0.555,0.925 -1.85,1.665 -1.48,2.774 0.37,1.11 0.925,0 2.405,-0.555 1.48,-0.555 1.665,-0.74 2.775,-0.74 1.11,0 0.37,1.295 1.295,1.851 0.925,0.555 1.11,1.11 2.035,1.479 0.925,0.37 0,-0.925 0.74,-1.664 0.74,-0.74 1.11,0.185 1.85,-0.186 0.74,-0.371 0.925,-0.74 2.59,-0.74 1.665,0 0,0 0.555,-1.295 0.556,-1.295 1.11,-0.37 1.665,0.186 0.556,0.555 0.925,0.739 2.405,1.295 1.48,0.555 1.48,1.665 1.48,2.96 0,1.295 -0.185,1.665 0.555,2.774 0.74,1.11 1.11,0.37 2.22,0.74 1.11,0.37 1.11,0.555 2.035,0.186 0.925,-0.37 1.48,0.739 3.33,0 1.85,-0.74 0,0 0.74,0.555 0.74,0.555 -0.925,1.109 -0.925,1.109 0,0 1.11,0.926 1.48,1.48 0.37,0.554 0.925,-1.48 0.925,-1.48 0,0 0,0 0.555,-0.739 0.555,-0.74 1.295,-0.37 2.405,-0.186 1.11,0.186 1.295,-1.109 1.85,-2.034 0.555,-0.926 0.74,-3.33 0.37,-4.625 -0.37,-1.296 1.295,-1.11 1.295,-1.11 0,0 2.035,2.96 0.37,4.255 -1.665,1.295 0.37,2.035 0,3.145 -0.37,1.11 0.37,1.11 1.665,0.926 1.295,-0.186 0.555,-1.665 0,-2.59 -0.555,-0.926 0.555,-0.926 0.555,-0.926 0,0 1.11,-1.85 -0.555,-1.85 -0.884,0 -0.881,-0.312 -0.74,-0.8 0.125,-0.431 0.358,-0.997 0.185,-1.605 -0.37,-1.295 -1.11,-1.295 0,-1.85 1.11,-0.556 1.11,0.555 2.22,0.37 1.11,-0.186 1.664,-0.926 2.405,-1.295 0.74,-0.37 0.74,-2.035 1.85,-2.035 1.11,0 1.48,0.555 1.85,1.85 0.37,1.295 -1.295,0.74 -1.295,0.74 0,0 -0.925,1.109 -2.59,1.295 -1.665,0.185 -2.59,0.74 -2.59,0.74 0,0 0,1.479 0.37,2.59 0.37,1.109 0,1.85 0.74,2.035 0.74,0.185 1.295,0.555 1.85,0.185 0.555,-0.37 0.74,-2.405 0.74,-2.405 l 1.665,1.11 c 0,0 0.186,-1.665 0.555,-2.405 0.37,-0.74 3.885,-1.85 3.885,-1.85 0,0 -1.665,1.665 -1.665,2.22 0,0.556 1.11,0.925 2.035,0.925 0.925,0 2.22,-0.925 2.22,-0.925 0,0 -1.11,1.665 -1.295,2.405 -0.185,0.74 1.48,0.925 1.48,0.925 0,0 -1.48,0.556 -2.405,0.925 -0.925,0.37 -0.925,1.665 -1.295,2.775 -0.37,1.109 -1.665,-0.555 -1.665,-0.555 0,0 -1.48,0.185 -1.851,0.739 -0.37,0.556 -1.295,0.37 -2.59,0.556 -1.295,0.185 -1.665,0.925 -3.7,1.85 -2.035,0.925 0,0 0,1.665 0,1.665 1.11,0 1.665,0.37 0.555,0.37 -0.925,1.85 -0.925,1.85 0,0 0,0 0.37,0.74 0.37,0.74 -0.37,0.925 -0.925,1.11 -0.555,0.185 -0.925,0.555 -0.925,0.555 0,0 -0.74,1.665 -0.925,2.405 -0.185,0.74 0.556,1.109 1.665,2.035 1.11,0.925 1.11,0.185 1.851,0.739 0.74,0.556 1.295,0.186 1.479,-0.739 0.185,-0.926 1.11,-1.11 0.74,-2.405 -0.37,-1.295 0.37,1.295 1.11,1.479 0.74,0.186 0.925,0.37 1.665,0.74 0.74,0.37 0,2.221 0,2.221 0,0 1.665,-0.371 2.405,-0.74 0.74,-0.37 0,-2.221 0.556,-2.405 0.555,-0.185 0.37,1.295 0.74,2.59 0.37,1.295 0.74,0.925 2.22,1.665 1.48,0.74 2.405,1.85 2.405,1.85 l 1.11,-1.109 c 0,0 1.295,-1.48 3.145,-1.665 1.85,-0.185 2.035,-0.185 2.22,-0.925 0.185,-0.74 -0.37,-2.59 -0.186,-3.146 0.186,-0.555 2.035,-1.11 2.775,-1.665 0.74,-0.555 -0.185,-1.479 -0.185,-1.479 0,0 1.48,-1.11 2.035,-2.22 0.556,-1.11 0,-2.035 0.37,-2.591 0.37,-0.555 1.295,-0.185 2.405,-1.665 1.11,-1.479 0,0 0.555,-0.369 0.555,-0.371 1.11,-0.74 1.295,-1.296 0.186,-0.555 0.556,-1.479 1.48,-2.96 0.925,-1.479 0,0 1.295,0 1.295,0 0.185,1.295 0.185,1.295 0,0 -0.185,1.11 1.295,1.11 1.48,0 0,0 0.185,1.11 l -0.37,0.925 c 0,0 0,0 -0.185,1.479 -0.185,1.48 0,0 -0.555,0.556 -0.555,0.555 -0.925,1.109 -0.925,1.109 0,0 -0.37,0.925 0.37,1.11 0.74,0.186 0.925,0 1.665,0.37 0.74,0.37 -0.185,1.11 -0.925,1.11 -0.74,0 -1.851,0 -1.851,0 0,0 -1.665,0.555 -2.22,0.555 -0.555,0 0.74,0.925 1.85,1.109 1.11,0.186 0.555,1.11 1.665,1.11 1.11,0 1.295,-0.37 2.035,-0.37 0.74,0 2.22,-0.37 3.146,-0.555 0.925,-0.186 0.555,-1.85 0.37,-2.405 -0.185,-0.555 -1.48,-0.739 -1.48,-0.739 l 1.11,-1.11 c 0,0 0.37,-1.295 1.665,-0.186 1.295,1.11 0.925,0.556 2.405,1.665 1.48,1.11 0,0 0.925,-0.369 0.925,-0.371 1.665,0.369 2.22,1.109 0.555,0.74 -1.295,0.555 -1.295,0.555 l -1.85,-0.185 c 0,0 0,0 0.925,1.11 0.925,1.109 0,0 -1.295,1.109 -1.295,1.11 0,0 -0.925,0 -0.925,0 -0.37,0.926 -0.37,0.926 0,0 -1.665,0.185 -2.405,0.185 -0.74,0 -1.48,0.555 -2.22,0.185 -0.74,-0.369 -0.555,1.48 -0.37,2.221 0.185,0.739 0.185,0.925 0.925,1.664 0.74,0.74 0.37,1.296 0.555,2.405 0.185,1.11 1.11,0.925 1.11,0.925 0,0 0.37,1.11 0.184,1.666 -0.184,0.555 0.37,1.664 -0.184,2.59 -0.555,0.925 -0.925,0.739 -0.925,1.295 0,0.555 -1.11,0.74 -1.85,1.479 -0.74,0.74 -0.555,1.665 -0.74,4.07 -0.185,2.405 0.74,2.035 1.851,2.59 1.11,0.555 1.295,-0.74 2.035,-1.11 0.74,-0.369 0.925,0.926 1.48,0.926 0.555,0 0.925,-1.11 1.295,-2.405 0.37,-1.295 0,0 0.37,-1.851 0.37,-1.85 0.555,-2.22 0,-3.145 -0.555,-0.925 0,-1.295 0.925,-2.775 0.925,-1.479 0,0 1.48,-0.739 1.479,-0.74 1.295,-1.11 1.295,-1.11 0,0 0,0 0.37,0.74 0.37,0.74 0.925,0.555 1.295,1.109 0.37,0.556 -1.11,0.926 -2.405,2.035 -1.295,1.11 0,0 0.185,0.926 0.185,0.925 -1.48,0.185 -1.48,0.185 0,0 0.185,1.11 0.74,2.59 0.555,1.479 0.925,0.555 1.665,1.479 0.74,0.926 -0.186,1.296 -0.74,1.666 -0.555,0.369 -0.185,1.479 1.11,2.034 1.295,0.556 1.665,0.925 2.035,1.48 0.37,0.555 1.665,0.37 2.96,0.185 1.295,-0.185 2.59,-0.369 4.07,-0.369 1.48,0 1.665,0 2.405,-0.556 0.74,-0.555 1.48,-1.11 3.885,-0.925 2.405,0.185 4.255,0 7.215,-0.925 2.96,-0.925 1.665,-0.74 3.885,-0.74 2.22,0 2.96,0.185 5.55,-0.925 2.59,-1.11 0,0 2.59,0.37 2.59,0.37 4.44,-0.74 7.4,-1.11 2.96,-0.37 2.59,-0.555 4.625,-0.37 2.035,0.185 2.96,0.185 4.44,0.74 1.48,0.555 2.59,-0.925 4.625,-1.295 2.035,-0.37 0.74,-0.925 1.295,-1.48 0.555,-0.555 1.665,0.74 1.665,0.74 0,0 1.295,0 2.405,-0.185 0,0 2.59,-0.926 4.995,-1.665 2.405,-0.74 2.22,-1.11 3.885,-1.11 1.665,0 3.33,0.37 4.625,0.74 1.295,0.37 2.96,-0.74 3.885,-0.926 0.925,-0.185 2.22,-0.555 3.885,-0.369 1.665,0.185 -0.739,1.479 -1.109,2.035 -0.37,0.555 -0.555,1.479 -1.665,1.664 -1.11,0.186 -1.85,-0.185 -2.96,0.556 -1.11,0.739 -0.555,1.295 0.37,1.295 0.925,0 3.885,1.479 3.145,2.035 -0.74,0.555 -3.33,-0.74 -3.33,-0.74 l -1.665,0.37 -1.479,0.555 2.22,0.74 -0.925,0.925 c 0,0 -1.11,1.295 -0.555,1.295 0.555,0 0.925,0.74 2.22,1.11 1.295,0.37 0.37,0.925 1.295,1.109 0.925,0.186 1.665,0.74 1.665,0.74 0,0 2.59,-0.555 3.33,-0.925 0.74,-0.37 2.59,-1.665 2.59,-1.665 l 2.96,-1.48 c 0,0 -0.185,1.296 -0.74,1.48 -0.555,0.186 -0.74,1.295 -1.11,2.035 -0.37,0.74 -1.48,0.37 -2.405,0.555 -0.925,0.186 -1.11,1.665 -1.11,1.665 0,0 -0.74,1.295 -0.925,2.035 -0.185,0.74 -0.925,1.479 -0.925,1.479 l -0.925,0.186 c 0,0 -0.185,1.85 0.37,3.145 0.555,1.295 1.295,1.666 1.11,2.961 -0.185,1.295 -0.185,2.959 1.295,2.774 1.48,-0.185 0.74,1.295 0.185,1.665 -0.556,0.37 -1.295,-0.555 -1.665,-1.48 -0.37,-0.925 -1.48,-2.034 -2.035,-2.404 -0.555,-0.37 -1.665,-0.37 -2.405,-0.74 -0.74,-0.37 -1.665,-0.555 -1.665,-0.555 l 0.925,-0.926 1.665,-0.925 -0.185,-1.295 c 0,0 -1.665,0.186 -2.405,0.74 -0.74,0.555 -0.925,0.555 -2.035,0.555 -1.109,0 -2.59,-0.37 -4.625,0 -2.035,0.37 -1.479,0.925 -1.295,1.48 0.185,0.555 1.11,1.11 2.405,1.11 1.295,0 3.515,1.109 4.07,1.109 0.555,0 0.74,1.665 0.185,2.035 -0.555,0.37 -1.295,-0.925 -1.295,-0.925 0,0 -0.185,0.925 -0.555,2.035 -0.37,1.109 -2.405,-0.556 -2.405,-0.556 l 0.719,0.502 c 0,0 -0.164,6.898 1.779,8.008 1.942,1.11 2.189,1.758 3.777,2.312 1.588,0.556 2.087,-0.277 3.595,0.74 1.508,1.018 3.451,3.607 4.562,4.533 1.109,0.925 1.85,0.832 2.682,1.387 0.833,0.556 1.11,2.174 0.833,3.168 -0.278,0.995 0.462,3.812 0.555,4.947 0.093,1.135 -0.277,3.632 0,4.928 0.277,1.295 0.37,2.867 0.74,3.7 0.37,0.832 0.925,2.626 2.035,2.654 1.11,0.028 1.255,1.6 1.876,0.675 0.621,-0.924 1.176,-1.146 1.269,-1.914 0.093,-0.768 1.136,-0.539 1.678,-1.023 0.542,-0.484 1.005,0.07 1.282,0.533 0.277,0.463 1.203,1.424 2.498,1.729 1.295,0.306 2.497,1.229 3.33,0.675 0.833,-0.555 1.625,-2.127 2.385,-3.515 0.76,-1.388 2.148,-1.986 2.61,-2.658 0.463,-0.672 1.203,-3.016 2.498,-4.156 1.295,-1.141 1.567,-1.19 3.327,-1.628 1.76,-0.438 1.876,-1.178 4.084,-2.01 2.209,-0.832 4.09,-1.85 5.785,-1.572 1.696,0.277 0.956,0.832 3.361,1.018 2.404,0.185 4.752,-0.74 5.613,-0.463 0.861,0.277 0.491,0.054 0.584,1.368 0.092,1.314 -0.277,2.165 1.202,2.388 1.48,0.222 2.22,-0.056 2.683,0.406 0.463,0.463 2.497,2.035 2.683,2.683 0.185,0.647 -0.55,3.886 0.419,4.718 0.969,0.832 2.449,-0.049 3.559,0.484 1.11,0.533 2.409,2.234 3.841,2.263 1.432,0.028 3.374,-0.287 3.744,-1.239 0.37,-0.953 -0.555,-2.34 0.74,-2.34 1.295,0 3.046,0.414 3.789,1.316 0.743,0.903 2.871,2.938 3.796,2.938 0.925,10e-4 1.956,-0.909 1.735,-1.469 -0.221,-0.559 0.669,-1.028 3.167,-1.306 0,0 1.665,-1.572 1.994,-2.497 0.33,-0.926 1.336,-2.775 2.223,-3.886 0.887,-1.109 1.888,-1.388 2.721,-2.8 0.833,-1.412 0.277,-3.027 0.462,-4.508 0.185,-1.479 0.185,-1.85 0.833,-2.127 0.647,-0.277 2.312,-1.11 3.515,-1.388 1.203,-0.278 2.96,-0.74 3.145,-1.757 0.185,-1.018 0.236,-1.432 0.236,-1.432 0,0 2.169,-2.731 2.415,-3.225 0.247,-0.494 1.11,-2.467 1.604,-2.961 0.493,-0.492 1.234,-0.739 1.48,-2.22 0.246,-1.479 1.109,-3.329 1.85,-4.316 0.74,-0.986 1.974,-2.96 2.96,-4.069 0.986,-1.11 1.357,-0.986 3.083,-2.221 1.727,-1.233 2.344,-0.986 3.7,-1.974 1.357,-0.986 0.987,-2.29 2.837,-3.427 1.85,-1.136 3.083,-2.941 4.316,-2.409 1.233,0.533 1.357,1.89 3.083,1.52 1.727,-0.37 2.22,-1.109 2.96,-2.22 0.74,-1.109 1.604,-2.597 1.604,-2.597 l -0.74,-1.351 c 0,0 1.233,-1.231 0.74,-1.972 -0.494,-0.74 -0.788,-2.344 -1.627,-2.837 -0.84,-0.493 -1.95,-0.862 -2.69,-1.356 -0.74,-0.493 -2.467,0.124 -2.59,-1.11 -0.123,-1.232 0,-0.862 -0.863,-1.85 -0.863,-0.986 -1.481,-1.85 -1.85,-2.22 -0.37,-0.37 -1.081,-0.526 -1.081,-0.526 l -0.089,-0.454 c 0,0 -2.508,0.074 -2.931,0 -0.423,-0.072 -4.272,-1.158 -4.767,-1.24 -0.494,-0.082 -0.989,-0.205 -1.801,-0.14 -0.811,0.065 -1.542,0.146 -2.157,0.079 -0.616,-0.066 -1.757,-0.129 -2.405,-0.098 -0.647,0.032 -0.957,-0.053 -1.249,-0.319 -0.292,-0.266 -1.68,-2.185 -2.167,-2.839 -0.486,-0.653 -1.021,-1.326 -1.021,-1.326 0,0 -0.212,-4.025 0,-5.135 0.213,-1.11 1.079,-3.053 -0.095,-3.885 -1.173,-0.833 -1.992,-0.527 -3.3,-1.296 -0.705,-0.413 -1.85,-1.942 -2.035,-2.188 -0.186,-0.246 -0.935,-1.791 -0.935,-1.791 l 0.01,-1.786 c 0,-3.083 0.987,-2.097 1.357,-3.7 0.37,-1.603 1.48,-2.466 -0.494,-3.822 -1.973,-1.357 -1.11,-1.11 -2.713,-2.591 -1.604,-1.479 -1.604,-2.96 -1.233,-3.7 0.37,-0.739 0.37,2.098 1.85,0 1.48,-2.096 2.22,-2.219 -0.247,-3.822 -2.467,-1.604 -0.986,-1.419 -2.713,-3.423 -1.727,-2.005 -4.703,-1.758 -2.968,-3.361 1.735,-1.603 4.04,0 1.9,-2.344 -2.139,-2.343 -3.142,-3.375 -1.9,-4.216 1.241,-0.84 -0.254,-1.58 0,-2.443 0.255,-0.863 1.611,-0.123 1.118,-1.604 -0.493,-1.479 -1.592,-2.096 -1.659,-3.33 -0.067,-1.233 -1.178,-1.109 -0.808,-2.59 0.37,-1.48 -1.014,-1.851 -0.075,-3.084 0.939,-1.232 0.923,-0.369 1.424,-1.232 0.502,-0.863 -0.238,-1.908 -0.855,-2.373 0,0 -1.326,0.994 -2.251,0.975 -0.925,-0.021 -2.22,0.575 -2.775,0 -0.555,-0.575 -1.202,-1.102 -0.74,-1.948 0.463,-0.847 -0.038,-0.847 -0.158,-1.864 -0.12,-1.018 -0.674,-0.833 -1.785,-1.203 -1.11,-0.37 -1.11,-0.462 -2.035,0 -0.925,0.463 -2.035,1.687 -1.572,-0.312 0.463,-2 1.48,-1.907 0.832,-2.832 -0.647,-0.926 -1.419,-0.74 -0.941,-1.851 0.478,-1.109 -1.65,0.093 -2.019,-0.739 -0.37,-0.833 0.555,-2.498 1.295,-2.961 0.74,-0.462 2.128,0.463 2.868,0 0.74,-0.462 1.44,-2.034 0.951,-2.959 -0.489,-0.926 -0.859,-1.573 -1.784,-1.388 -0.925,0.185 -1.295,1.323 -1.665,-0.032 -0.37,-1.355 -0.092,-1.171 -1.017,-1.541 -0.925,-0.369 -0.647,-0.739 -1.85,-0.832 -1.202,-0.093 -2.22,-1.018 -2.867,-1.48 -0.647,-0.462 -1.388,-1.387 -1.203,-1.85 0.185,-0.463 -0.029,-2.22 -0.029,-2.22 l -1.728,-1.11 c 0,0 -1.018,-0.277 -1.018,-0.555 0,-0.278 1.327,0.463 2.004,0 0.679,-0.463 0.525,-0.925 0,-1.665 -0.525,-0.74 -1.079,-1.018 -2.004,-1.388 -0.925,-0.37 -1.85,-0.647 -3.607,-0.463 -1.758,0.186 -3.515,0.926 -4.44,0.556 -0.925,-0.37 -2.683,-1.573 -3.885,-1.202 -1.203,0.369 -3.237,0.555 -3.792,0.832 -0.555,0.277 -0.555,1.388 -1.757,1.388 -1.203,0 -3.515,0.093 -3.885,0 -0.37,-0.093 -1.243,1.388 -1.917,2.497 -0.674,1.11 -0.79,2.405 -1.102,3.146 -0.312,0.739 -2.81,1.712 -4.012,2.429 -1.203,0.716 -3.978,1.641 -4.811,1.918 -0.832,0.278 -5.457,0.463 -6.289,0.648 -0.833,0.185 -1.48,0.185 -2.683,0.277 -1.203,0.092 -3.145,0.647 -4.07,0.277 -0.925,-0.37 -2.887,-1.572 -2.887,-1.572 l 0.482,-0.463 c 0,0 -1.757,2.22 -2.536,2.967 -0.779,0.746 0.131,0.918 -1.564,0 -1.696,-0.919 -3.33,0 -3.33,0 l -0.895,1.195 c 0,0 -0.647,0.556 -1.757,1.295 -1.11,0.74 -1.48,0.833 -2.035,0.463 -0.555,-0.37 -1.11,-1.85 -1.85,-3.327 -0.74,-1.478 -1.203,-1.112 -2.128,-0.835 -0.925,0.277 -3.237,1.018 -3.885,1.665 -0.648,0.647 0,2.22 0,3.052 0,0.833 -0.925,3.238 -1.382,4.381 -0.457,1.144 -0.098,1.354 -0.005,2.557 0.092,1.203 -1.018,1.665 -1.665,1.851 -0.647,0.185 -1.942,0.185 -2.775,0.555 -0.832,0.37 -0.185,1.295 0.463,2.128 0.647,0.832 0.74,1.295 0,2.518 -0.74,1.223 -1.295,-0.021 -2.206,0 -0.911,0.02 -1.125,-0.668 -1.776,0 -0.652,0.668 0.652,1.645 0.278,2.477 -0.373,0.833 0.744,1.851 1.299,2.498 0.555,0.647 -0.185,1.202 -0.555,1.758 -0.37,0.555 -0.186,1.572 -0.744,1.437 -0.559,-0.136 -1.754,0.69 -2.239,0.783 -0.486,0.093 -0.254,1.018 -0.023,1.708 0.231,0.689 -1.341,0.697 -1.341,0.697 0,0 -0.74,1.018 -1.48,1.109 -0.739,0.093 -2.775,0.556 -3.145,1.758 -0.37,1.202 0.833,1.758 0.648,3.053 -0.185,1.295 -0.555,1.202 -1.388,1.572 -0.832,0.37 -1.202,0.463 -1.757,1.213 -0.555,0.75 -0.925,0.545 -1.609,1.192 -0.684,0.647 -1.166,1.109 -1.629,0.832 -0.462,-0.277 -1.757,-1.018 -2.59,-0.925 -0.832,0.093 -1.295,1.295 -1.939,1.92 -0.645,0.624 -1.391,-0.162 -2.038,-0.07 -0.648,0.093 -1.202,0.093 -2.035,0 -0.832,-0.092 -2.867,-1.942 -3.977,-3.744 -1.11,-1.802 -1.295,-2.73 -1.91,-3.498 -0.615,-0.768 -3.733,-2.192 -4.517,-4.293 -0.785,-2.1 -0.603,-2.709 -1.516,-4.004 -0.913,-1.296 -1.215,-1.48 -2.14,-1.434 -0.925,0.048 -0.925,1.711 -2.035,2.358 -1.11,0.647 -2.312,-0.186 -2.791,-2.868 -0.479,-2.682 -1.371,-4.532 -1.834,-5.242 -0.462,-0.709 -1.11,-0.678 -2.127,-0.4 -1.018,0.277 -2.96,1.018 -3.807,1.758 -0.847,0.74 -3.13,1.295 -4.517,1.48 -1.388,0.185 -4.312,0.462 -4.312,0.462 0,0 -2.811,-1.295 -3.913,-2.035 -1.103,-0.739 -1.117,-0.647 -1.978,-1.265 -0.861,-0.617 -1.452,-0.955 -2.562,-1.048 -1.109,-0.092 -1.664,0.463 -2.404,-0.462 -0.74,-0.926 0,-2.405 0,-3.146 0,-0.739 -0.278,-2.774 -0.833,-3.607 -0.555,-0.832 -1.017,0.833 -1.202,1.295 -0.186,0.463 -1.203,1.851 -3.33,2.944 -2.128,1.094 -1.85,-0.262 -2.995,-0.354 -1.145,-0.093 -0.983,0.925 -2.042,1.295 -1.059,0.369 -1.439,-0.37 -2.053,-0.941 -0.614,-0.571 -1.143,-2.297 -2.16,-3.249 -1.017,-0.952 -1.516,-0.99 -1.516,-0.99 l -1.058,0.833 -2.78,1.146 z"
   style="fill:#677821" />
				</g><rect
   style="fill:none;stroke:#000000;stroke-width:0.29998;stroke-linejoin:bevel;stroke-dasharray:none;paint-order:stroke fill markers"
   id="rect2"
   height="4390.293"
   x="0.19998971"
   y="0.19998971"
   ry="0.69917101"
   width="4353.8188" /></svg>
