<?xml version="1.0" encoding="UTF-8" standalone="no"?>
<!-- Generator: Adobe Illustrator 22.1.0, SVG Export Plug-In . SVG Version: 6.00 Build 0)  -->

<svg
   version="1.1"
   x="0px"
   y="0px"
   viewBox="0 0 4354.1187 4390.5933"
   enable-background="new 0 0 1995.865 2834.646"
   xml:space="preserve"
   id="svg1596"
   width="4354.1187"
   height="4390.5933"
   xmlns="http://www.w3.org/2000/svg"
   xmlns:svg="http://www.w3.org/2000/svg"><defs
   id="defs1596" />


<g
   id="Kerry__x3C_Group_x3E__2_"
   style="fill:#677821"
   transform="translate(1093.6405,660.66109)">
					<path
   fill="#606F38"
   d="m 218.076,2246.646 c 0,0 0.864,-0.617 1.11,-0.986 0.247,-0.37 0.37,-1.357 0,-1.974 -0.37,-0.616 -0.74,-0.864 -1.11,0 -0.37,0.863 -0.617,1.974 -0.617,1.974 0,0 -0.493,1.973 0.617,0.986 z"
   id="path977"
   style="fill:#677821" />
					<path
   fill="#606F38"
   d="m 214.747,2246.922 c 0.229,-0.178 1.446,-0.769 1.463,-1.139 0.017,-0.37 1.957,-1.109 0,-1.233 -1.957,-0.124 -2.696,-0.283 -2.943,0.476 -0.247,0.758 -2.22,1.557 -1.356,1.896 0.862,0.341 1.372,1.14 2.836,0 z"
   id="path978"
   style="fill:#677821" />
					<path
   fill="#606F38"
   d="m 166.153,2176.1 c 0.546,-0.287 1.356,-0.494 1.48,-1.11 0.124,-0.616 0.74,-1.479 0,-1.356 -0.74,0.123 -0.74,0 -1.48,0.617 -0.74,0.616 -1.603,1.726 -1.356,1.85 0.246,0.122 0.476,0.461 1.356,0 z"
   id="path979"
   style="fill:#677821" />
					<path
   fill="#606F38"
   d="m 164.753,2177.579 c 0,0 0.659,1.11 1.029,1.233 0.37,0.124 1.11,-0.492 1.727,0 0.617,0.494 1.233,0.018 0.987,-0.607 -0.247,-0.626 -1.591,-0.256 -1.844,-0.626 -0.253,-0.37 -1.116,0 -1.116,0 z"
   id="path980"
   style="fill:#677821" />
					<path
   fill="#606F38"
   d="m 168.552,2160.437 c 0.923,0.174 2.287,0.616 2.411,0 0.123,-0.617 0.37,0.247 0.617,-1.48 0.247,-1.727 1.356,-1.974 0.247,-1.727 -1.11,0.247 -1.175,0.74 -1.883,1.11 -0.708,0.369 -2.337,1.918 -1.392,2.097 z"
   id="path981"
   style="fill:#677821" />
					<path
   fill="#606F38"
   d="m 153.527,2239.739 c 0.325,0.124 1.032,-1.479 1.279,-1.973 0.247,-0.493 -0.986,-0.124 -1.604,0 -0.616,0.123 -0.863,1.109 -0.986,1.973 0,0 0.987,-0.123 1.311,0 z"
   id="path982"
   style="fill:#677821" />
					<path
   fill="#606F38"
   d="m 264.573,2125.411 c 0,0 0.124,-0.864 0.617,-1.356 0.493,-0.494 1.727,-0.617 0.863,-1.234 -0.863,-0.616 -0.247,-1.604 -1.48,-1.604 -1.233,0 -1.85,0.247 -1.727,1.11 0.124,0.864 0.74,2.22 0.74,2.22 0,0 -0.143,0.952 0.987,0.864 z"
   id="path983"
   style="fill:#677821" />
					<path
   fill="#606F38"
   d="m 316.25,2060.784 c 1.603,0.247 1.11,0.493 0.494,0 -0.616,-0.493 -0.37,-1.233 -1.48,-1.233 -1.11,0 -1.727,0.616 -1.727,0.616 0,0 1.11,0.37 2.713,0.617 z"
   id="path984"
   style="fill:#677821" />
					<path
   id="Valentia_Island_1_"
   fill="#606F38"
   d="m 191.066,2213.593 c 0.486,-0.26 3.083,-1.727 3.947,-1.85 0.863,-0.123 4.563,-0.37 5.55,-0.74 0.986,-0.37 3.33,-2.22 4.809,-2.713 1.48,-0.494 3.207,-1.48 3.577,-1.974 0.37,-0.493 1.85,-2.713 0.863,-2.837 -0.987,-0.123 -2.837,0.74 -4.07,0 -1.233,-0.739 -2.59,-0.493 -3.083,-1.233 -0.493,-0.74 -1.763,-0.617 -2.053,0 -0.29,0.617 0.82,0.863 -0.784,1.85 -1.604,0.987 -1.973,1.357 -3.823,1.604 -1.85,0.247 -1.85,0.724 -2.837,1.966 -0.986,1.241 -1.973,1.611 -2.096,2.722 -0.123,1.108 -0.966,3.721 0,3.205 z"
   style="fill:#677821" />
					<path
   id="Blasket_Island_1_"
   fill="#606F38"
   d="m 170.839,2172.153 c 0,0 1.727,-0.987 2.344,-1.604 0.617,-0.616 0.863,-0.987 2.343,-1.356 1.48,-0.37 2.22,-0.864 3.207,-1.727 0.987,-0.863 1.11,-2.221 1.11,-2.221 0,0 1.479,-2.221 0,-2.467 -1.48,-0.246 -1.357,-0.123 -1.727,0.987 -0.37,1.109 -1.562,1.479 -2.446,2.097 -0.884,0.616 -1.131,0.017 -2.611,1.55 -1.48,1.533 -2.466,2.273 -2.713,3.013 -0.246,0.741 -0.984,2.653 0.493,1.728 z"
   style="fill:#677821" />
					<path
   id="Beginish_Island_1_"
   fill="#606F38"
   d="m 206.36,2201.736 c 0,0 0.986,-0.14 1.603,0 0.617,0.14 2.466,-0.354 1.48,-0.97 -0.986,-0.616 -1.233,-1.357 -2.343,-1.11 -1.11,0.247 -1.85,0.575 -1.727,1.027 0.124,0.454 -0.617,1.053 0.987,1.053 z"
   style="fill:#677821" />
					<path
   id="Kerry_mainland_2_"
   fill="#606F38"
   d="m 266.793,2239.309 c 0.185,-0.926 0,-2.405 0.555,-2.775 0.555,-0.37 1.665,-1.48 1.665,-0.555 0,0.925 0,2.034 0,2.034 0,0 1.295,0.37 1.85,0.37 0.555,0 0.74,0.186 1.48,0.186 0.74,0 0.925,0 1.665,-0.186 0.74,-0.185 0.925,1.295 0.74,-0.185 -0.185,-1.48 -2.22,-2.035 -2.22,-2.035 0,0 -2.96,-0.185 -2.405,-0.74 0.556,-0.555 3.146,-2.405 3.7,-2.405 0.555,0 2.22,-1.295 2.775,-1.85 0.555,-0.555 0.555,-0.925 0.74,-1.48 0.185,-0.555 1.85,-1.295 2.96,-1.85 1.11,-0.555 1.48,-1.665 1.665,-2.775 0.185,-1.109 1.48,-2.59 2.96,-2.404 1.48,0.185 4.255,0 5.55,-0.186 1.295,-0.185 2.774,-0.739 4.439,-1.295 1.665,-0.555 2.96,-2.774 3.7,-2.774 0.74,0 2.22,-1.48 2.22,-1.48 l 2.405,-0.555 2.22,-0.74 1.48,-1.85 c 0,0 -0.37,-0.556 -1.295,-0.37 -0.925,0.185 -2.405,1.295 -3.146,1.295 -0.74,0 -1.295,0.555 -2.404,1.109 -1.11,0.556 -2.59,1.48 -3.885,1.11 -1.295,-0.37 -3.33,-0.37 -5.18,0.186 -1.85,0.555 -6.475,2.774 -8.14,3.145 -1.665,0.37 -5.365,2.405 -6.105,2.96 -0.74,0.555 -0.925,2.405 -1.665,2.96 -0.74,0.556 -2.035,1.665 -2.035,1.665 0,0 -0.555,-0.925 -0.555,-1.479 0,-0.556 0.37,-1.665 0.37,-1.665 l -2.59,1.109 c 0,0 0,1.48 -0.555,2.405 -0.555,0.925 -1.295,1.295 -2.035,1.479 -0.74,0.186 -0.74,0.186 -0.74,0.186 0,0 -0.555,2.035 -1.11,2.22 -0.555,0.186 -0.925,-1.109 -0.925,-1.665 0,-0.555 0.925,-0.925 0.925,-1.479 0,-0.556 -0.185,-0.74 -1.295,-0.925 -1.11,-0.186 -1.665,-0.74 -2.775,0.185 -1.11,0.925 -0.185,1.11 -2.59,1.851 -2.405,0.739 -3.145,1.295 -3.7,1.479 -0.555,0.184 -1.11,0.185 -1.665,0.185 -0.556,0 -1.48,0.74 -2.96,2.035 -1.48,1.295 -2.96,2.405 -4.07,2.96 -1.11,0.556 -1.11,1.295 -2.59,0.556 -1.48,-0.74 -1.851,-0.186 -3.33,0.185 -1.48,0.37 -0.555,1.665 -0.74,2.22 -0.185,0.556 -1.295,0.37 -2.59,0.74 -1.295,0.37 -1.665,0.37 -2.775,0.37 -1.109,0 -0.74,1.11 -0.74,1.11 0,0 0.555,1.295 0,1.295 -0.555,0 -1.11,-0.37 -1.665,-0.186 -0.555,0.186 -1.85,1.851 -1.85,1.851 l -1.479,-1.48 1.665,-2.774 c 0,0 -0.556,0.185 -1.295,-0.556 -0.74,-0.739 -1.11,-0.739 -2.22,-0.925 -1.109,-0.186 -0.925,-0.555 -2.405,-0.74 -1.48,-0.185 -1.665,-2.59 -2.775,-2.035 -1.11,0.556 -2.405,1.295 -3.145,0.37 -0.74,-0.925 -1.85,-2.034 -1.85,-2.034 h 2.035 l 1.665,0.185 1.85,-1.11 c 0,0 1.295,-0.74 1.295,-1.479 0,-0.74 1.295,-1.851 0.74,-2.035 -0.555,-0.185 -0.74,-1.851 -0.185,-2.775 0.555,-0.925 0.74,-1.665 0,-2.59 -0.74,-0.925 -2.59,-0.555 -3.146,-1.479 -0.555,-0.926 -0.185,-1.11 -2.035,-1.48 -1.85,-0.37 -2.404,-0.37 -3.885,0.37 -1.48,0.74 -0.555,1.665 -1.85,2.405 -1.295,0.74 -1.665,0.555 -1.48,1.665 0.186,1.109 0.836,0.925 -0.044,1.85 -0.88,0.925 -0.695,1.665 -1.621,1.851 -0.925,0.185 -2.035,0.739 -2.775,1.479 -0.74,0.74 -2.775,1.479 -3.885,2.405 -1.11,0.925 -0.555,1.109 -1.295,0 -0.74,-1.11 -1.665,-1.295 -2.035,-2.035 -0.37,-0.74 1.295,-1.295 1.85,-1.665 0.555,-0.37 0.925,-2.775 0.925,-2.775 0,0 0,-1.109 0.185,-2.22 0.185,-1.11 1.11,-0.555 -0.185,-2.22 -1.295,-1.665 0.079,-2.22 -2.828,-1.48 -2.907,0.74 -4.017,0.37 -4.572,0.556 -0.555,0.185 -1.48,0.185 -1.85,0.925 -0.37,0.739 -2.22,1.479 -1.85,0.925 0.37,-0.555 0.925,-2.405 0.925,-2.405 0,0 1.295,-0.185 1.85,-0.739 0.555,-0.556 1.11,-1.296 1.295,-2.405 0.186,-1.11 -0.37,-2.22 -0.925,-3.516 -0.555,-1.295 -0.925,-1.85 0.37,-2.034 1.295,-0.186 1.48,0 3.145,0 1.665,0 3.33,-0.556 4.81,-1.11 1.48,-0.556 2.775,-0.925 4.07,-1.48 1.295,-0.555 2.035,-2.034 2.775,-2.96 0.74,-0.925 1.665,-1.295 2.405,-0.555 0.74,0.74 0.74,0.74 0.74,0.74 v -2.035 c 0,0 -0.37,-2.035 -1.295,-2.035 -0.925,0 -2.221,-1.109 -1.295,-1.295 0.925,-0.186 2.405,-0.74 2.405,-0.74 l 1.851,-1.295 c 0,0 0.37,-1.479 -0.186,-1.479 -0.555,0 -1.48,-0.186 -2.035,0.185 -0.555,0.37 -1.11,1.48 -1.665,1.48 -0.555,0 0.37,1.295 -0.555,0 -0.925,-1.295 0.555,-1.11 -0.925,-1.295 -1.48,-0.186 -3.7,0.555 -4.255,-0.556 -0.555,-1.11 0.555,-1.85 0.555,-1.85 0,0 1.295,-0.556 2.035,-0.925 0.74,-0.37 1.665,-0.926 2.22,-0.926 0.555,0 1.48,1.295 1.85,0.37 0.37,-0.925 -0.186,-3.145 0.555,-3.885 0.74,-0.74 1.295,-1.665 2.775,-1.85 1.48,-0.186 2.405,0.37 2.96,0.555 0.555,0.185 0.925,-0.925 1.11,-1.479 0.186,-0.556 1.85,-1.666 2.59,-2.035 0.74,-0.37 3.145,-0.926 3.885,-1.48 0.74,-0.555 2.035,-2.405 2.775,-2.59 0.74,-0.186 2.59,0.185 4.07,0 1.48,-0.186 2.96,-0.925 3.7,-1.665 0.74,-0.74 2.22,-2.22 3.515,-1.665 1.295,0.555 3.33,0.925 4.44,0.555 1.109,-0.369 4.439,-3.145 4.439,-3.145 0,0 2.035,-0.37 2.035,-2.59 0,-2.221 0.37,-4.44 0.37,-4.995 0,-0.556 1.48,-0.925 1.48,-0.925 0,0 0.37,0.555 0,1.109 -0.37,0.555 -0.555,1.665 -0.555,1.665 l -0.185,2.775 v 1.295 c 0,0 1.109,-0.185 1.665,-0.925 0.555,-0.74 0.925,-2.035 0.925,-2.035 l 1.295,-0.925 c 0,0 -0.185,1.295 0.555,1.85 0.74,0.555 2.405,0.37 2.405,0.37 0,0 0.185,-0.925 -0.74,-1.295 -0.925,-0.37 -0.37,-1.11 -0.925,-2.035 -0.555,-0.925 0.185,-1.665 0.74,-2.59 0.555,-0.925 1.479,-1.11 1.665,-2.035 0.184,-0.925 0.925,-2.22 0.925,-2.22 l 0.37,-5.55 c 0,0 0.37,0.739 0.925,0.925 0.555,0.185 0.74,2.034 0.74,2.034 l -0.37,2.221 c 0,0 0.74,0.555 1.665,0.555 0.925,0 1.85,-0.185 2.405,-0.37 0.555,-0.185 1.665,-0.185 1.665,-0.185 0,0 0,-1.48 0.555,-1.85 0.555,-0.371 1.85,-0.74 1.85,-0.74 l 1.665,0.555 0.74,-1.665 1.295,0.185 1.85,0.37 v -1.295 c 0,0 -2.035,0.186 -1.48,-0.739 0.555,-0.926 0.555,-1.851 1.295,-2.035 0.74,-0.186 2.035,-0.37 2.035,-0.37 l -1.665,-1.11 c 0,0 0.185,-0.74 -0.925,-0.925 -1.11,-0.185 1.295,-1.11 -1.11,-0.185 -2.405,0.925 -2.59,0.739 -3.7,0.555 -1.11,-0.186 -2.59,-0.37 -3.885,-0.37 -1.295,0 -4.255,0.925 -4.255,0.925 0,0 -3.145,0.74 -4.81,1.11 -1.665,0.37 -3.33,0.185 -3.885,0.555 -0.555,0.37 -2.22,1.295 -1.665,1.295 0.555,0 0.555,0.925 1.48,1.295 0.925,0.37 0.74,1.851 1.11,2.591 0.37,0.739 1.665,2.404 1.665,2.404 0,0 0.74,1.11 -0.185,1.295 -0.925,0.186 -1.665,0.186 -2.775,-1.665 -1.109,-1.85 -2.59,-5.734 -3.515,-6.104 -0.925,-0.37 -3.515,0.925 -5.365,1.109 -1.85,0.186 -3.33,0.556 -4.255,0.74 -0.925,0.186 -4.255,2.035 -4.995,2.221 -0.74,0.185 -1.85,0.185 -1.85,0.185 0,0 -1.85,1.295 -2.59,1.665 -0.74,0.37 -2.775,-0.74 -3.33,-0.925 -0.555,-0.186 -2.035,0.739 -2.775,1.109 -0.74,0.37 -2.22,1.665 -2.775,1.295 -0.555,-0.37 -1.48,-2.034 -1.48,-2.034 0,0 -0.925,-1.48 -0.74,-2.035 0.186,-0.556 -0.185,-1.851 -0.185,-1.851 l -1.48,0.37 0.74,2.035 -0.37,1.295 -2.405,-0.185 h -1.85 c 0,0 -1.11,-1.11 -1.11,-1.851 0,-0.741 -0.555,-0.925 -1.295,-1.665 -0.74,-0.739 -2.96,-0.185 -3.515,0 -0.555,0.186 0.185,2.22 0.185,2.22 h 2.59 c 0,0 2.775,0.926 1.85,1.666 -0.925,0.739 -3.515,1.479 -3.515,1.479 l -2.96,-0.925 c 0,0 -1.665,0.74 -1.665,0.185 0,-0.555 -1.48,-1.85 -1.48,-1.85 0,0 -1.295,-1.295 -2.22,-1.48 -0.925,-0.185 -2.22,-0.37 -2.775,0.74 -0.555,1.11 0.186,2.405 1.11,2.59 0.925,0.186 2.96,0.37 2.035,1.295 -0.925,0.925 -1.665,1.11 -2.775,0.74 -1.11,-0.37 -1.85,-0.74 -2.96,-0.37 -1.11,0.37 -2.96,1.48 -4.255,1.665 -1.295,0.186 -3.7,0.74 -3.7,0.74 0,0 0.555,-1.851 -0.74,-2.035 -1.295,-0.185 -2.774,-0.555 -2.774,-0.555 0,0 0.74,-0.556 1.11,-1.295 0.37,-0.74 1.665,-1.11 1.11,-2.22 -0.555,-1.11 -1.48,-0.371 -1.11,-2.221 0.37,-1.85 0.185,-2.775 -0.37,-3.145 -0.555,-0.37 -0.74,-1.11 0,-1.48 0.74,-0.37 1.665,-2.59 1.665,-2.59 l 0.74,-2.405 c 0,0 -1.295,0.37 -1.85,-0.185 -0.555,-0.555 -0.555,-1.48 0.925,-2.035 1.48,-0.555 2.59,-0.555 2.96,-1.295 0.37,-0.74 1.295,-1.85 1.85,-2.035 0.555,-0.185 2.035,-1.85 2.59,-1.48 0.555,0.371 -0.186,1.666 -0.186,1.666 0,0 -0.74,1.295 -0.555,2.034 0.185,0.74 -1.295,1.851 -0.37,2.221 0.925,0.37 2.22,0.185 2.96,0.37 0.74,0.185 1.48,1.295 1.48,1.295 0,0 0.74,0.555 1.295,-0.37 0.555,-0.925 0.74,-1.295 -0.186,-2.22 -0.925,-0.926 -1.479,-2.405 -0.925,-2.775 0.555,-0.37 1.665,-1.85 2.22,-1.85 0.555,0 1.48,-1.48 0.37,-1.851 -1.11,-0.37 -2.59,-0.185 -1.85,-1.295 0.74,-1.11 0.74,-2.775 1.665,-2.96 0.925,-0.186 -0.37,-0.74 0.925,-0.186 1.295,0.556 1.48,0 2.405,0.186 0.925,0.185 2.59,-0.37 3.515,-1.11 0.925,-0.739 1.48,-1.665 1.85,-2.22 0.37,-0.555 0.37,-0.555 0.37,-0.555 l 0.37,-0.926 c 0,0 1.85,0.37 2.405,-0.185 0.555,-0.555 0.555,-2.035 2.22,-2.774 1.665,-0.74 1.665,-1.666 3.146,-1.48 1.479,0.185 1.85,0.74 2.775,0.74 0.925,0 0.37,-1.48 0.37,-1.48 0,0 2.22,-1.665 3.515,-1.85 1.295,-0.186 2.22,-0.37 2.96,-0.186 0.74,0.186 0.555,1.295 0.555,2.221 0,0.925 -0.185,2.404 -0.185,2.96 0,0.555 1.665,0 1.295,1.109 -0.37,1.11 1.295,0 -0.37,1.11 -1.665,1.109 -1.295,2.22 -2.22,2.775 -0.925,0.555 -2.035,2.774 -1.295,2.59 0.74,-0.186 1.48,-1.295 2.775,-1.11 1.295,0.185 2.405,0.185 2.775,-0.37 0.37,-0.555 1.295,-1.109 1.295,-1.109 0,0 3.515,0.185 4.44,-0.556 0.925,-0.739 4.81,-3.515 6.105,-5.364 1.295,-1.851 1.665,-5.551 1.665,-5.551 0,0 -0.37,-1.295 -1.295,-1.479 -0.925,-0.186 -2.775,-0.37 -1.85,-1.11 0.925,-0.74 2.22,-1.109 2.22,-1.109 0,0 0.925,-0.556 1.11,0.555 0.185,1.109 1.295,1.665 1.295,0.925 0,-0.74 -0.185,-1.479 0.37,-2.035 0.555,-0.555 1.11,-0.185 1.48,0.556 0.37,0.739 0.37,1.85 -0.185,2.22 -0.555,0.37 -0.74,2.22 -0.74,3.515 0,1.295 -0.74,0.74 -0.74,2.22 0,1.48 -0.37,1.665 1.11,3.146 1.481,1.479 3.885,2.775 4.625,3.33 0.74,0.555 0,0.74 1.481,1.85 1.479,1.11 2.22,1.295 3.885,1.295 1.665,0 2.22,0.555 4.44,0.555 2.22,0 4.995,-0.739 6.105,-1.85 1.11,-1.109 1.665,-3.515 2.405,-4.07 0.74,-0.555 3.7,-1.295 3.7,-0.555 0,0.74 -0.925,0.925 -1.48,1.11 -0.555,0.185 -1.48,0.925 -1.48,0.925 0,0 0.185,1.295 1.295,1.48 1.11,0.185 2.775,0 3.33,-0.37 0.555,-0.37 1.85,-2.035 2.775,-1.665 0.925,0.369 1.665,1.665 2.59,0.925 0.925,-0.74 2.035,-0.925 2.035,-1.851 0,-0.925 -0.925,-0.555 -1.48,-1.85 -0.555,-1.295 -0.185,-2.22 -2.22,-1.85 -2.035,0.369 -3.7,0.555 -5.734,-0.186 -2.035,-0.74 -2.59,-1.295 -4.07,-0.925 -1.48,0.37 -3.885,1.295 -3.7,0.555 0.185,-0.739 1.11,-1.85 1.85,-2.22 0.74,-0.37 1.11,-1.295 2.035,-1.48 0.925,-0.185 3.145,-1.109 1.85,-1.295 -1.295,-0.185 -2.22,-0.185 -3.146,0 -0.925,0.186 -1.665,-0.369 -1.109,-1.109 0.555,-0.74 -0.556,-0.186 0.555,-0.74 1.11,-0.555 1.85,-1.295 1.85,-2.405 0,-1.109 1.48,-2.774 1.295,-4.069 -0.185,-1.295 0.185,-2.405 0.185,-4.07 0,-1.665 1.11,-2.775 0.555,-4.439 -0.555,-1.666 0,-2.405 -1.295,-2.961 -1.295,-0.555 -4.255,0.37 -5.92,-0.555 -1.665,-0.925 -2.22,-0.74 -4.44,-1.665 -2.22,-0.925 -3.7,0.37 -3.515,-1.479 0.185,-1.851 -0.37,-3.516 0.74,-4.07 1.11,-0.555 1.665,-0.925 3.145,-1.295 1.48,-0.37 3.145,0 5.18,0.185 2.035,0.186 3.145,0 4.439,-0.37 1.295,-0.369 3.7,-2.035 4.811,-2.22 1.109,-0.185 1.85,-1.479 3.145,-1.665 1.295,-0.185 3.145,-0.925 4.255,-2.22 1.11,-1.295 1.48,-2.96 3.33,-3.515 1.85,-0.556 1.665,-1.11 4.07,-1.295 2.405,-0.186 3.515,0 4.255,0 0.74,0 0.925,0.739 1.48,0.925 0.555,0.185 2.035,0.37 2.035,0.37 l 0.74,0.925 c 0,0 0.925,-2.22 0.185,-2.22 -0.74,0 -2.405,0.369 -2.405,-0.371 0,-0.739 1.665,-0.185 0,-0.739 -1.665,-0.556 -1.665,-0.556 -3.33,-0.37 -1.665,0.185 -1.295,0.185 -0.925,-1.665 0.37,-1.851 0.555,-2.59 0.555,-3.7 0,-1.109 -0.185,-1.85 -0.185,-2.404 0,-0.556 -0.74,-0.926 -0.185,-1.666 0.555,-0.739 1.48,-0.185 1.48,-1.109 0,-0.924 -0.37,-0.74 -0.555,-1.85 -0.185,-1.11 0.37,-1.851 0.74,-2.591 0.37,-0.739 1.295,-2.405 2.59,-3.145 1.295,-0.74 3.33,-2.59 3.33,-2.59 0,0 1.11,0 2.96,0.37 1.851,0.369 3.33,0.739 4.07,0.925 0.74,0.185 2.035,1.109 2.59,1.295 0.555,0.185 2.59,0.37 3.145,-0.186 0.555,-0.555 1.295,-1.665 1.85,-1.295 0.555,0.37 1.48,0.37 2.775,1.295 1.295,0.925 2.22,2.221 2.22,2.221 0,0 0.74,1.109 1.295,0 0.555,-1.11 0,-2.035 0,-2.035 0,0 1.11,-2.035 1.85,-2.405 0.74,-0.37 1.851,-0.925 2.59,-0.925 0.74,0 1.48,0.74 2.59,0.74 1.109,0 2.405,-0.186 3.33,-0.556 0.925,-0.369 2.22,-0.74 3.145,-0.555 0.925,0.185 0.925,0.555 0.74,1.295 l 0.568,0.861 0.911,2.099 c 0,0 1.018,4.163 1.504,4.81 0.486,0.648 2.844,3.33 3.491,4.625 0.647,1.296 1.017,5.273 0.833,5.422 -0.186,0.148 -1.388,1.794 -1.573,2.256 -0.185,0.463 0.185,3.844 0.185,3.844 h -1.556 l 0.076,0.68 c 0,0 0.092,1.212 0.462,2.507 0.37,1.295 2.59,3.885 2.867,4.718 0.278,0.832 1.018,1.942 0,2.404 -1.017,0.463 -2.405,2.221 -2.867,3.516 -0.462,1.295 1.587,3.492 1.587,3.492 l 2.599,2.737 -3.538,1.642 c 0,0 -2.369,1.424 -2.543,1.632 -0.174,0.207 0.694,1.042 0.694,1.042 l 2.497,1.85 1.665,2.066 c 0,0 0.37,0.432 0.463,0.802 0.092,0.37 1.109,1.388 1.479,1.788 0.37,0.4 2.035,0.625 2.035,0.625 l 0.694,0.086 4.01,1.953 0.661,1.005 1.158,1.854 1.783,2.601 2.054,0.635 -1.85,3.297 c 0,0 -3.576,-10e-4 -4.069,0 -0.493,0 -0.37,3.329 -0.37,3.329 0,0 -1.973,1.48 -2.467,2.225 -0.494,0.745 0,3.202 0,3.202 l 1.207,5.495 2.247,3.006 -0.283,2.83 1.147,1.836 -0.987,1.51 v 3.084 l 1.59,2.59 1.493,4.563 2.22,3.453 c 0,0 0.494,2.714 0.494,3.435 0,0.719 3.793,3.451 3.823,3.473 -0.314,-0.226 -1.842,0.071 -2.214,0.191 -0.751,0.242 -1.151,0.682 -1.54,1.342 -0.985,1.674 -1.271,3.631 -1.454,5.529 -0.103,1.062 -0.242,1.765 0.183,2.773 0.228,0.543 0.505,1.696 1.058,2.002 0.624,0.344 1.759,-0.244 2.487,-0.245 0.863,0 1.357,1.604 1.357,1.604 0,0 0.863,1.479 1.48,1.973 0.617,0.493 3.823,0.493 4.564,0.863 0.74,0.37 0,1.85 -0.679,2.344 -0.678,0.493 -2.035,1.356 -2.898,1.356 -0.863,0 -4.81,1.109 -6.166,2.007 -1.357,0.897 -3.577,1.199 -5.427,1.323 -1.851,0.123 -3.083,2.713 -4.44,3.7 -1.357,0.986 -3.33,2.096 -3.807,3.453 -0.477,1.355 0.23,2.836 0.6,3.51 0.37,0.673 2.097,3.396 2.097,4.507 0,1.109 0,3.05 0,3.05 0,0 -3.207,3.98 -3.454,4.739 -0.246,0.76 -2.097,3.681 -3.7,4.298 -1.604,0.616 -4.194,2.343 -5.521,2.343 -1.328,0 -2.249,0.863 -2.742,0.863 -0.494,0 -5.181,1.479 -5.304,1.603 -0.123,0.123 -1.973,5.181 -2.343,5.305 -0.37,0.123 -3.577,1.973 -5.667,2.467 -2.09,0.493 -8.639,0 -9.317,0 -0.679,0 -5.858,0.863 -7.338,1.109 -1.48,0.247 -2.961,2.837 -3.947,3.823 -0.986,0.987 -3.823,4.44 -4.686,4.563 -0.863,0.123 -3.823,0.37 -5.18,0.617 -1.357,0.246 -2.097,2.096 -2.96,3.206 -0.863,1.11 -2.466,2.59 -3.207,3.083 -0.74,0.494 -2.343,2.837 -2.837,3.7 -0.493,0.863 -2.343,1.356 -3.576,1.356 -1.233,0 -1.727,-2.22 -1.11,-2.959 0.617,-0.74 0,-2.467 0,-3.229 0,-0.762 -1.974,-0.966 -2.22,-1.582 -0.247,-0.616 0.616,-1.48 0.616,-1.48 l -0.986,-1.356 -1.563,-1.018 -1.705,-1.572 c 0.737,-0.565 0.367,-1.86 0.552,-2.784 z"
   style="fill:#677821" />
				</g><rect
   style="fill:none;stroke:#000000;stroke-width:0.29998;stroke-linejoin:bevel;stroke-dasharray:none;paint-order:stroke fill markers"
   id="rect2"
   height="4390.293"
   x="0.19998971"
   y="0.19998971"
   ry="0.69917101"
   width="4353.8188" /></svg>
