<?xml version="1.0" encoding="UTF-8" standalone="no"?>
<!-- Generator: Adobe Illustrator 22.1.0, SVG Export Plug-In . SVG Version: 6.00 Build 0)  -->

<svg
   version="1.1"
   x="0px"
   y="0px"
   viewBox="0 0 4354.1187 4390.5933"
   enable-background="new 0 0 1995.865 2834.646"
   xml:space="preserve"
   id="svg1596"
   width="4354.1187"
   height="4390.5933"
   xmlns="http://www.w3.org/2000/svg"
   xmlns:svg="http://www.w3.org/2000/svg"><defs
   id="defs1596" />


<path
   id="Kildare_2_"
   fill="#8D9764"
   d="m 1817.2235,2539.4501 c -0.531,0.223 -2.708,0.416 -3.67,0.416 -0.962,0 -2.09,-0.555 -3.848,-1.109 -1.757,-0.555 -1.943,-1.48 -3.145,-1.758 -1.202,-0.277 -1.202,0.833 -2.035,1.665 -0.832,0.833 -0.808,1.312 -1.915,1.126 -1.107,-0.185 -1.911,-1.19 -2.526,-2.01 -0.614,-0.82 -0.014,-0.489 -0.55,-0.56 -0.536,-0.07 -4.087,0.756 -5.454,1.113 -1.367,0.358 -2.038,-0.43 -2.96,-0.554 -0.922,-0.125 -1.315,-0.268 -2.093,-1.14 -0.777,-0.872 -1.886,-2.521 -2.804,-3.195 -0.919,-0.675 -3.499,-2.233 -3.499,-2.233 0,0 0.68,0.211 -0.862,-0.071 -1.542,-0.282 -5.458,-0.246 -6.383,0.586 -0.925,0.833 -1.018,1.388 -1.757,2.868 -0.74,1.479 -0.278,1.85 -1.388,1.85 -1.11,0 -4.07,-0.37 -5.365,-1.203 -1.295,-0.832 -2.868,-2.22 -3.854,-2.858 -0.986,-0.639 -1.973,-1.211 -2.898,-1.767 -0.925,-0.555 -1.202,-1.572 -1.572,-2.497 -0.37,-0.925 -0.277,-1.295 -0.755,-2.312 -0.478,-1.018 -0.17,-0.555 -1.095,-0.093 -0.925,0.463 -0.925,0.647 -2.206,1.203 -1.28,0.555 -0.847,-0.093 -1.417,-0.463 -0.569,-0.37 -0.171,-1.109 -0.015,-1.215 0.156,-0.104 -0.942,0 -1.135,0.33 -0.193,0.33 -0.899,0.515 -0.899,0.515 -1.575,0.617 -1.698,0.739 -2.685,1.356 -0.987,0.617 -0.74,1.11 -1.603,1.11 -0.864,0 -0.494,-0.616 -1.233,0.493 -0.74,1.11 -0.247,0.74 -0.987,2.097 -0.74,1.357 0.494,0 -0.74,1.357 -1.233,1.356 0,1.85 -1.604,2.22 -1.604,0.37 -1.727,0.37 -2.59,0.986 -0.863,0.617 -1.11,0.74 -2.343,1.11 -1.233,0.37 -1.357,1.85 -1.48,2.467 -0.124,0.616 -1.233,1.479 -0.987,3.7 0.247,2.22 1.357,3.946 2.344,4.378 0.986,0.432 3.946,0.925 3.946,0.925 l 1.481,2.344 -0.748,0.559 c 0.454,0.959 3.893,3.48 4.633,4.128 0.74,0.647 1.85,2.034 1.109,2.497 -0.74,0.463 -1.85,1.203 -2.497,1.758 -0.647,0.555 -0.555,1.572 0.277,2.492 0.833,0.92 0.648,1.578 0,1.995 -0.647,0.418 -1.665,-0.048 -3.145,0 -1.48,0.048 -1.11,0.508 -1.573,1.34 -0.462,0.833 0.648,1.388 1.195,2.128 0.547,0.74 0.377,1.018 0.377,2.683 0,1.665 -0.185,1.109 -1.017,1.564 -0.833,0.454 -0.833,0.101 -2.128,0.01 -1.295,-0.093 -0.832,0.647 -1.43,1.757 -0.598,1.11 -0.328,1.11 -0.456,2.128 -0.128,1.018 1.146,0.647 2.903,0.925 1.758,0.277 1.942,0.463 2.867,1.018 0.925,0.555 1.11,1.203 0.648,1.758 -0.462,0.555 -1.11,0.37 -2.59,1.109 -1.479,0.74 0.093,1.388 0,2.868 -0.092,1.479 -0.647,0.925 -2.312,1.531 -1.665,0.606 -2.127,-0.236 -3.586,0 -1.458,0.236 -2.889,0.597 -4.646,0.431 -1.757,-0.166 -1.85,-0.297 -3.515,-0.39 -1.665,-0.093 -1.388,0 -3.053,0 -1.665,0 -0.462,0.74 0,1.572 0.463,0.833 1.665,0.556 2.867,0.394 1.203,-0.162 2.221,0.994 3.053,1.61 0.833,0.616 1.831,0.817 1.831,0.817 0,0 0.111,-0.139 1.036,-0.509 0.925,-0.37 2.181,-0.783 2.56,-0.429 0.378,0.355 1.021,0.9 1.32,1.092 0.298,0.19 0.694,0.262 1.073,0.91 0.379,0.647 -0.379,1.818 -0.523,2.219 -0.143,0.399 -1.327,0.964 -1.327,0.964 l -0.605,-0.747 -0.424,-0.217 -0.501,0.964 c 0,0 0.092,1.072 0.092,1.653 0,0.581 0.277,1.546 0.74,2.102 0.463,0.555 0.093,2.281 0.093,2.281 0,0 0.617,1.48 0.617,1.467 0,-0.013 0.493,2.479 0.493,2.479 0,0 0.864,-0.246 1.684,0 0.821,0.247 0.043,0.987 10e-4,2.097 -0.041,1.11 0.781,1.357 0.781,2.59 0,1.233 0.74,1.48 0.987,2.344 0.246,0.863 -0.124,1.356 -0.617,1.85 -0.494,0.494 0,1.11 -0.124,2.59 -0.123,1.48 -0.493,0.617 -0.863,1.11 -0.37,0.493 0,0.864 0,2.33 l -1.48,0.414 c 0,0 -0.462,1.665 -0.925,2.405 -0.462,0.74 -1.942,3.237 -2.497,3.978 -0.555,0.74 0.277,1.572 0.925,2.683 0.648,1.109 2.867,2.867 3.473,3.053 0.604,0.185 4.482,2.682 5.314,3.053 0.833,0.369 2.498,-0.556 3.793,-1.11 1.295,-0.556 1.757,-0.647 1.757,-0.647 -0.123,0.493 1.11,1.727 1.11,2.22 0,0.493 0.987,2.837 1.48,3.946 0.493,1.11 1.642,3.454 1.642,3.454 0,0 1.318,2.713 1.795,3.329 0.477,0.617 0.016,2.344 0,2.838 -0.016,0.493 0,2.959 0,2.959 v 0.787 c 0,-0.108 1.928,1.279 2.39,2.204 0.463,0.925 1.85,2.405 2.312,2.867 0.463,0.463 1.758,1.388 2.498,1.295 0.74,-0.092 1.203,0 1.295,-1.388 0.092,-1.387 -0.092,-2.758 0.462,-1.795 0.555,0.963 1.85,2.258 2.22,2.721 0.37,0.462 0.37,0.753 1.573,0.469 1.202,-0.284 2.405,-1.764 3.237,-2.041 0.833,-0.278 1.665,-0.74 2.683,-0.556 1.018,0.186 1.202,0.37 2.312,-0.925 1.11,-1.295 1.479,-2.095 2.312,-2.852 0.832,-0.756 1.665,-1.219 1.85,-2.051 0.185,-0.833 0.463,-4.162 0.74,-4.44 0.277,-0.277 0.74,-1.757 0.462,-2.96 -0.277,-1.202 0.37,-2.59 -0.462,-3.515 -0.832,-0.925 -1.018,-1.202 -2.127,-2.312 -1.11,-1.11 -2.59,-2.683 -3.33,-4.255 -0.74,-1.572 -1.382,-1.48 -0.877,-2.775 0.506,-1.295 0.784,-1.572 1.339,-2.96 0.555,-1.388 0.833,-2.128 1.203,-3.423 0.37,-1.295 0.833,-1.387 1.573,-1.85 0.74,-0.463 1.387,-0.925 2.22,-1.85 0.832,-0.926 2.401,-1.758 1.895,-3.516 -0.507,-1.757 -0.603,-2.867 0,-4.255 0.603,-1.388 0.973,-1.11 3.193,-1.572 2.22,-0.463 3.422,-1.018 4.717,-1.665 1.295,-0.647 2.775,-1.665 3.885,-2.22 1.11,-0.556 1.368,-0.37 2.626,-1.203 1.259,-0.832 1.813,-0.555 2.461,-1.295 0.647,-0.739 0.833,-2.634 0.833,-2.634 0,0 0.874,0.68 1.4,-0.102 0.525,-0.782 0.852,-1.612 0.852,-1.612 0,0 0.294,-0.647 -0.331,-1.202 -0.625,-0.555 -0.208,-1.48 0,-2.22 0.207,-0.74 0.762,-1.319 1.41,-1.538 0.647,-0.22 1.573,-0.051 1.943,-0.829 0.37,-0.778 0.973,0.37 0.995,-0.852 0.022,-1.222 0.762,-1.869 0.392,-2.887 -0.37,-1.018 -0.462,-0.832 -0.833,-1.572 -0.371,-0.74 -0.463,-1.018 -0.277,-1.942 0.185,-0.925 0,-0.701 0.74,-0.998 0.74,-0.297 0.74,0.39 1.757,0 1.018,-0.39 1.388,0.698 2.035,-0.077 0.648,-0.774 1.203,-1.885 1.572,-3.365 0.37,-1.479 1.128,-2.59 1.813,-3.7 0.685,-1.109 1.309,-2.312 1.875,-2.867 0.567,-0.555 0.567,-0.555 0.567,-0.555 0,0 -1.11,-0.74 -1.757,-1.646 -0.647,-0.905 -1.942,-0.76 -2.868,-0.479 -0.925,0.279 -2.497,0.922 -3.238,0 -0.74,-0.924 -0.277,-1.668 0.815,-2.963 1.093,-1.295 2.607,-0.555 2.885,-1.202 0.278,-0.647 -1.202,-1.202 -2.127,-2.026 -0.925,-0.824 -1.387,-1.026 -2.22,-2.366 -0.832,-1.34 0.37,-1.065 1.018,-1.99 0.647,-0.925 0.463,-0.462 0.445,-1.295 -0.017,-0.832 -0.168,-1.11 -0.864,-3.038 -0.696,-1.927 0.327,-0.939 0.864,-1.587 0.538,-0.647 1.312,-1.202 2.144,-1.479 0.833,-0.277 2.035,-1.018 2.461,-2.035 0,0 0.038,-1.388 0,-2.264 -0.038,-0.877 -0.055,-1.807 0,-3.009 0.055,-1.202 1.41,-1.79 3.099,-2.498 1.689,-0.707 0.176,-1.202 0.268,-2.061 0.092,-0.858 -0.648,-2.472 0,-3.119 z"
   style="fill:#677821" /><rect
   style="fill:none;stroke:#000000;stroke-width:0.29998;stroke-linejoin:bevel;stroke-dasharray:none;paint-order:stroke fill markers"
   id="rect2"
   height="4390.293"
   x="0.19998971"
   y="0.19998971"
   ry="0.69917101"
   width="4353.8188" /></svg>
