<?xml version="1.0" encoding="UTF-8" standalone="no"?>
<!-- Generator: Adobe Illustrator 22.1.0, SVG Export Plug-In . SVG Version: 6.00 Build 0)  -->

<svg
   version="1.1"
   x="0px"
   y="0px"
   viewBox="0 0 4354.1187 4390.5933"
   enable-background="new 0 0 1995.865 2834.646"
   xml:space="preserve"
   id="svg1596"
   width="4354.1187"
   height="4390.5933"
   xmlns="http://www.w3.org/2000/svg"
   xmlns:svg="http://www.w3.org/2000/svg"><defs
   id="defs1596" />


<path
   id="Kilkenny_2_"
   fill="#4B5A26"
   d="m 1655.9715,2678.4321 c 0.092,1.758 1.11,4.625 1.572,5.272 0.463,0.647 2.128,2.59 2.775,2.559 0.647,-0.031 1.572,0.864 2.312,1.512 0.74,0.647 2.96,2.22 4.069,2.48 1.11,0.26 5.92,5.382 5.92,5.382 0,0 2.96,4.81 3.299,5.735 0.339,0.925 0.4,2.312 0.678,2.553 0.277,0.24 1.942,3.736 2.312,4.199 0.37,0.463 3.052,3.33 3.422,4.162 0.37,0.833 -0.647,2.035 -0.833,2.671 -0.185,0.635 0.462,2.694 0.74,3.527 0.278,0.832 2.22,2.405 2.683,3.607 0.463,1.202 0.185,3.145 -0.092,4.718 -0.278,1.572 -0.37,5.643 0.092,6.845 0.463,1.202 1.85,1.018 2.868,1.388 1.017,0.369 1.11,2.867 0.74,3.699 -0.37,0.833 -1.479,2.035 -1.665,2.498 -0.185,0.463 -2.127,2.405 -2.59,3.422 -0.462,1.018 0.093,1.48 0.463,1.573 0.37,0.093 2.774,1.665 3.052,1.942 0.278,0.277 2.127,3.33 2.127,3.33 l 0.979,1.788 c 0,0 0.426,0.314 2.378,1.967 1.952,1.652 2.271,1.712 2.273,2.219 10e-4,0.507 -0.831,0.618 -1.475,1.288 -0.644,0.67 -0.512,1.716 -0.583,2.639 -0.071,0.923 -0.01,3.049 -0.179,3.943 -0.168,0.895 -0.438,0.859 -0.761,1.868 -0.322,1.009 -0.146,1.491 0,2.169 0.146,0.678 1.146,0.974 1.845,1.517 0.699,0.544 1.383,1.847 1.383,1.847 2.713,0.247 2.097,0.616 2.96,2.22 0.863,1.604 1.85,0.493 3.577,1.48 1.727,0.986 1.603,1.727 2.59,2.59 0.986,0.863 0.493,2.22 0.493,3.206 0,0.986 1.973,0.74 1.973,0.74 0,0 1.357,2.96 1.727,3.891 0.37,0.93 0.493,1.413 0.863,2.77 0.37,1.356 1.479,1.727 3.206,2.344 1.728,0.616 1.357,0.493 1.357,1.356 0,0.863 0.74,1.109 1.727,2.22 0.986,1.11 1.357,-0.123 2.343,-0.616 0.987,-0.493 1.481,-2.097 2.097,-2.96 0.617,-0.863 1.727,-2.96 2.837,-3.947 1.11,-0.986 1.974,-0.493 3.577,0 1.604,0.493 0.987,1.233 2.466,2.344 1.48,1.109 1.357,0.863 2.96,1.604 1.603,0.739 0.494,1.109 2.589,1.232 0.905,0.054 1.693,-0.154 2.595,-0.186 0.872,-0.031 1.803,0.042 2.65,-0.211 1.162,-0.346 1.241,-0.933 1.663,-1.946 0.617,-1.479 0.617,-1.233 1.356,-1.911 0.74,-0.679 1.48,0 1.48,0 v -1.666 l 1.048,-0.426 c -0.432,-0.561 -1.295,-1.547 -1.542,-2.164 -0.247,-0.616 0.555,-1.604 0.771,-1.974 0.216,-0.37 0.709,-0.122 0.771,-1.356 0.062,-1.233 0.801,-1.356 1.295,-1.973 0.493,-0.617 1.11,-0.617 0.617,-1.851 -0.493,-1.233 -0.37,-2.22 -0.493,-4.07 -0.123,-1.85 0.486,-3.7 0.674,-4.562 0.189,-0.863 1.175,-0.74 2.409,-1.233 1.233,-0.494 0.617,-1.974 1.233,-2.96 0.616,-0.987 0.863,-2.22 1.727,-3.7 0.864,-1.48 1.974,-2.714 0.493,-3.084 -1.479,-0.369 -2.96,-0.493 -2.466,-1.479 l 0.359,-0.743 c -0.048,-0.191 0.381,-0.128 1.368,0 0.987,0.127 1.233,1.606 2.097,0.62 0.863,-0.987 1.11,0.615 1.726,-0.741 0.617,-1.355 1.48,-0.862 0.494,-2.096 -0.987,-1.233 -1.604,-0.863 -1.233,-1.974 0.37,-1.109 0,-0.37 0.493,-1.727 0.493,-1.356 1.479,-1.479 0.616,-2.466 -0.863,-0.987 -3.02,-0.124 -2.496,-1.11 0.523,-0.987 2.25,-0.617 2.126,-1.728 -0.123,-1.109 -0.739,-0.863 -0.616,-1.727 0.124,-0.863 -1.17,-0.493 -1.51,-1.85 -0.34,-1.356 -0.989,-1.85 -0.233,-3.207 0.756,-1.356 -0.167,-1.603 0.233,-2.59 0.4,-0.986 0.71,-1.727 0,-2.22 -0.71,-0.493 -2.19,-0.247 -2.561,-1.604 -0.37,-1.356 0.617,-1.974 0.617,-1.974 0,0 0.954,-0.909 1.711,-1.688 0.756,-0.779 0.386,-1.025 1.496,-1.766 1.11,-0.739 1.357,0.987 1.11,-0.739 -0.247,-1.728 -0.493,-1.48 -0.247,-2.591 0.247,-1.109 0.37,-0.986 -0.37,-1.973 -0.74,-0.986 -1.046,-0.864 -1.756,-1.851 -0.71,-0.986 -0.463,-1.604 -1.697,-1.85 -1.233,-0.247 -1.48,0 -2.22,-1.233 -0.74,-1.233 0,-1.109 -1.357,-1.974 -1.356,-0.863 -1.233,-2.343 -0.74,-2.713 0.493,-0.37 -1.11,-0.37 -1.11,-1.727 0,-1.357 0.494,-0.247 0.494,-1.728 0,-1.479 0.37,-0.616 0.123,-2.59 -0.247,-1.973 0.01,-3.036 -0.309,-3.946 0,0 0.093,-0.767 -0.555,-1.339 -0.647,-0.572 -0.833,-0.669 -0.833,-2.101 0,-1.433 -0.647,-1.802 -1.757,-2.912 -1.11,-1.11 -2.59,-2.96 -3.7,-3.053 -1.11,-0.093 -3.515,1.203 -3.977,0.833 -0.462,-0.37 -1.202,-1.758 -1.48,-2.59 -0.278,-0.833 -1.11,-1.573 -1.85,-1.48 -0.74,0.093 -2.405,0 -2.127,-0.832 0.278,-0.833 1.573,-0.74 1.573,-1.388 0,-0.648 -2.128,-1.99 -1.11,-3.262 1.018,-1.271 1.665,-2.011 1.758,-3.121 0.092,-1.11 -0.74,-2.128 -0.277,-2.867 0.462,-0.74 1.479,-0.74 2.59,-1.665 l 1.589,-0.887 c 0,0 -0.479,-1.519 -0.757,-3.313 -0.277,-1.795 -0.555,-1.072 -1.757,-2.46 -1.203,-1.388 -1.757,-2.035 -3.052,-2.22 -1.295,-0.186 -1.573,-0.37 -2.96,-1.295 -1.388,-0.925 -0.833,-1.758 -1.018,-2.591 -0.185,-0.832 -1.11,-0.739 -1.758,-1.942 -0.648,-1.202 0.277,-2.497 -0.555,-3.885 -0.833,-1.388 -1.203,-0.277 -2.312,-1.665 -1.11,-1.388 -0.925,-2.127 -1.942,-2.96 -1.018,-0.832 -1.665,-0.462 -2.868,0 -1.203,0.463 -1.665,1.851 -2.497,2.683 -0.832,0.832 -2.22,1.388 -3.33,2.292 -1.11,0.905 -0.925,2.24 -1.757,2.796 -0.833,0.555 -2.035,0.462 -2.961,-0.093 -0.925,-0.556 -1.664,-1.942 -2.774,-2.497 -1.11,-0.556 -1.942,0.092 -3.075,1.017 -1.133,0.925 -1.088,1.665 -1.779,2.591 -0.692,0.925 -0.233,1.757 -0.048,2.867 0.185,1.109 -0.185,1.202 -0.74,1.85 -0.555,0.647 0,1.665 0,2.221 0,0.555 -0.737,1.666 -0.956,1.557 -0.219,-0.109 -0.913,-0.705 -1.31,-1.242 -0.397,-0.538 0.051,-1.702 0,-2.273 -0.051,-0.57 -0.879,-1.032 -0.879,-1.032 0,0 -1.109,0.493 -1.85,1.233 -0.74,0.74 -0.925,0.647 -1.665,1.942 -0.74,1.295 0.37,1.572 0,3.107 -0.37,1.535 -0.648,1.24 -1.85,1.147 -1.203,-0.093 -2.127,-1.109 -3.052,-1.147 -0.925,-0.038 -0.74,0.407 -1.295,1.795 -0.555,1.388 -1.851,1.388 -3.33,1.665 -1.48,0.277 -2.683,-1.109 -3.146,-1.665 -0.462,-0.555 -2.035,-1.202 -2.654,-1.388 -0.62,-0.185 -1.878,-1.387 -2.433,-1.85 -0.555,-0.463 -1.851,0.463 -3.146,0.37 -1.295,-0.093 -1.479,-1.665 -2.127,-2.775 -0.647,-1.11 -1.758,-1.85 -2.498,-1.572 -0.74,0.277 -1.572,1.665 -2.405,2.22 -0.833,0.555 -1.573,1.018 -1.85,1.942 -0.277,0.925 -0.185,2.128 -0.555,3.423 -0.37,1.295 -3.146,0.925 -3.7,1.018 -0.555,0.093 -3.979,1.11 -3.979,1.11 z"
   style="fill:#677821" /><rect
   style="fill:none;stroke:#000000;stroke-width:0.29998;stroke-linejoin:bevel;stroke-dasharray:none;paint-order:stroke fill markers"
   id="rect2"
   height="4390.293"
   x="0.19998971"
   y="0.19998971"
   ry="0.69917101"
   width="4353.8188" /></svg>
