<?xml version="1.0" encoding="UTF-8" standalone="no"?>
<!-- Generator: Adobe Illustrator 22.1.0, SVG Export Plug-In . SVG Version: 6.00 Build 0)  -->

<svg
   version="1.1"
   x="0px"
   y="0px"
   viewBox="0 0 4354.1187 4390.5933"
   enable-background="new 0 0 1995.865 2834.646"
   xml:space="preserve"
   id="svg1596"
   width="4354.1187"
   height="4390.5933"
   xmlns="http://www.w3.org/2000/svg"
   xmlns:svg="http://www.w3.org/2000/svg"><defs
   id="defs1596" />


<path
   id="Laois_2_"
   fill="#303B09"
   d="m 1740.0535,2672.9731 c 0.558,-1.155 -0.832,-2.959 0.833,-3.329 1.665,-0.37 1.85,-0.556 3.977,0 2.127,0.555 7.553,0.714 7.932,0 0.562,-1.06 1.779,-2.467 1.795,-2.837 0.016,-0.37 0.756,-3.207 0.756,-3.207 0,0 0.123,-1.604 0,-2.467 -0.123,-0.863 -0.247,-2.836 -0.247,-3.699 0,-0.863 -0.525,-1.728 -0.509,-2.467 0.016,-0.74 0,-2.714 0,-2.714 v -1.233 c 0,0 -0.016,-2.466 0,-2.959 0.016,-0.494 0.477,-2.221 0,-2.838 -0.477,-0.616 -1.795,-3.329 -1.795,-3.329 0,0 -1.148,-2.344 -1.642,-3.454 -0.493,-1.109 -1.48,-3.453 -1.48,-3.946 0,-0.493 -1.233,-1.727 -1.11,-2.22 0,0 -0.462,0.092 -1.757,0.647 -1.295,0.555 -2.96,1.479 -3.793,1.11 -0.832,-0.371 -4.71,-2.868 -5.314,-3.053 -0.606,-0.186 -2.825,-1.943 -3.473,-3.053 -0.647,-1.11 -1.48,-1.942 -0.925,-2.683 0.555,-0.74 2.035,-3.237 2.497,-3.978 0.463,-0.74 0.925,-2.405 0.925,-2.405 l 1.48,-0.414 c 0,-1.466 -0.37,-1.837 0,-2.33 0.37,-0.493 0.74,0.37 0.863,-1.11 0.124,-1.479 -0.37,-2.096 0.124,-2.59 0.493,-0.493 0.863,-0.986 0.617,-1.85 -0.247,-0.863 -0.987,-1.11 -0.987,-2.344 0,-1.232 -0.822,-1.479 -0.781,-2.59 0.042,-1.109 0.819,-1.85 -10e-4,-2.097 -0.82,-0.246 -1.684,0 -1.684,0 0,0 -0.493,-2.493 -0.493,-2.479 0,0.014 -0.617,-1.467 -0.617,-1.467 0,0 0.37,-1.727 -0.093,-2.281 -0.462,-0.556 -0.74,-1.521 -0.74,-2.102 0,-0.581 -0.092,-1.653 -0.092,-1.653 l 0.501,-0.964 0.424,0.217 0.605,0.747 c 0,0 1.184,-0.564 1.327,-0.964 0.143,-0.4 0.901,-1.571 0.523,-2.219 -0.379,-0.648 -0.775,-0.72 -1.073,-0.91 -0.299,-0.191 -0.941,-0.736 -1.32,-1.092 -0.378,-0.354 -1.634,0.059 -2.56,0.429 -0.925,0.37 -2.868,1.573 -2.868,1.573 l -1.11,1.202 h -1.912 c 0,0 -1.233,-0.247 -2.467,0 -1.234,0.247 -2.097,0.767 -2.59,-0.11 -0.493,-0.877 -0.617,-0.999 -1.356,-0.753 -0.74,0.246 0,0.37 -1.233,1.233 -1.233,0.863 -1.233,1.356 -2.22,1.479 -0.987,0.124 -0.987,0.247 -1.603,0.987 -0.617,0.74 -0.987,1.85 -1.727,1.604 -0.74,-0.247 -0.987,-1.11 -1.727,-0.74 -0.74,0.37 0.74,-0.37 -0.74,0.37 -1.481,0.739 -1.481,2.238 -2.344,1.489 -0.863,-0.75 -1.356,-0.873 -1.727,-0.503 -0.371,0.37 -2.22,1.356 -2.22,1.356 0,0 -0.647,-0.771 -1.665,-1.973 -1.018,-1.203 -2.035,-2.683 -2.312,-3.979 -0.278,-1.295 -0.093,-2.312 0,-2.682 0.092,-0.37 1.202,-0.389 0.925,-1.535 -0.277,-1.147 -1.018,-0.924 -2.035,-2.516 -1.017,-1.592 -1.572,-3.72 -2.312,-4.367 -0.74,-0.647 -2.22,-0.832 -3.7,-0.925 -1.479,-0.093 -2.774,-0.555 -4.069,0 -1.295,0.555 -1.48,2.683 -1.851,3.423 -0.37,0.739 -0.37,0.925 -0.832,1.387 -0.463,0.463 -0.833,0.316 -1.942,0.482 -1.11,0.166 -2.498,-0.852 -3.516,-1.13 0,0 -0.185,-0.092 -2.96,0.647 -2.774,0.74 -4.532,0.648 -5.272,1.295 -0.74,0.648 -2.497,1.604 -3.33,2.374 -0.832,0.771 -1.479,-0.03 -3.052,0 -1.573,0.031 -2.775,0.309 -3.792,1.049 -1.018,0.74 -2.867,1.942 -3.515,2.683 -0.648,0.74 -1.295,0.832 -1.018,2.127 0.277,1.296 1.85,3.25 2.774,4.262 0.925,1.012 1.665,2.121 2.775,3.231 1.11,1.11 2.683,1.388 2.59,2.59 -0.093,1.202 -0.462,2.567 -0.925,2.579 -0.463,0.011 0.37,1.121 -0.277,2.23 -0.647,1.11 -0.74,1.388 -2.312,2.405 -1.573,1.018 -5.458,3.978 -5.458,3.978 0,0 0.278,1.85 -1.387,3.146 -1.665,1.295 -3.7,2.25 -4.348,3.483 -0.648,1.233 -0.925,3.916 -1.11,6.414 -0.185,2.497 -0.463,4.415 -1.388,5.398 -0.925,0.983 -2.528,2.741 -2.528,2.741 1.504,1.356 1.049,1.665 1.419,2.155 0.37,0.491 2.22,1.359 3.422,2.377 1.203,1.018 3.793,0.926 3.793,0.926 0,0 1.017,0.832 1.202,2.312 0.185,1.479 -1.572,2.127 -3.145,2.867 -1.573,0.741 -2.775,1.109 -3.238,2.404 -0.462,1.296 -1.479,1.851 -2.96,3.423 -1.479,1.573 1.203,2.498 1.018,3.515 -0.185,1.018 -1.202,2.128 -1.018,3.423 0.185,1.295 2.128,2.683 3.33,3.886 1.203,1.202 2.312,4.81 2.59,5.827 0.277,1.018 1.181,3.787 1.755,5.365 0,0 3.425,-1.018 3.979,-1.11 0.555,-0.093 3.33,0.277 3.7,-1.018 0.37,-1.295 0.277,-2.498 0.555,-3.423 0.277,-0.925 1.018,-1.388 1.85,-1.942 0.833,-0.555 1.665,-1.942 2.405,-2.22 0.74,-0.277 1.851,0.462 2.498,1.572 0.647,1.11 0.832,2.683 2.127,2.775 1.295,0.093 2.59,-0.833 3.146,-0.37 0.555,0.463 1.813,1.665 2.433,1.85 0.62,0.186 2.192,0.833 2.654,1.388 0.463,0.556 1.665,1.942 3.146,1.665 1.479,-0.277 2.775,-0.277 3.33,-1.665 0.555,-1.388 0.37,-1.833 1.295,-1.795 0.925,0.038 1.85,1.055 3.052,1.147 1.203,0.093 1.48,0.388 1.85,-1.147 0.37,-1.535 -0.74,-1.812 0,-3.107 0.74,-1.295 0.925,-1.202 1.665,-1.942 0.74,-0.74 1.85,-1.233 1.85,-1.233 0,0 0.828,0.462 0.879,1.032 0.051,0.571 -0.397,1.735 0,2.273 0.398,0.537 1.091,1.133 1.31,1.242 0.219,0.109 0.956,-1.002 0.956,-1.557 0,-0.556 -0.555,-1.573 0,-2.221 0.555,-0.647 0.925,-0.74 0.74,-1.85 -0.185,-1.11 -0.644,-1.942 0.048,-2.867 0.691,-0.926 0.646,-1.666 1.779,-2.591 1.133,-0.925 1.965,-1.572 3.075,-1.017 1.11,0.555 1.85,1.941 2.774,2.497 0.925,0.555 2.128,0.647 2.961,0.093 0.833,-0.556 0.647,-1.891 1.757,-2.796 1.11,-0.904 2.498,-1.46 3.33,-2.292 0.832,-0.832 1.295,-2.22 2.497,-2.683 1.203,-0.462 1.85,-0.832 2.868,0 1.018,0.833 0.832,1.572 1.942,2.96 1.11,1.388 1.48,0.277 2.312,1.665 0.832,1.388 -0.093,2.683 0.555,3.885 0.647,1.203 1.573,1.11 1.758,1.942 0.185,0.833 -0.37,1.666 1.018,2.591 1.387,0.925 1.665,1.109 2.96,1.295 1.295,0.185 1.85,0.832 3.052,2.22 1.203,1.388 1.48,0.665 1.757,2.46 0.278,1.795 0.757,3.313 0.757,3.313 0,0 1.965,-0.827 2.205,-1.326 z"
   style="fill:#677821" /><rect
   style="fill:none;stroke:#000000;stroke-width:0.29998;stroke-linejoin:bevel;stroke-dasharray:none;paint-order:stroke fill markers"
   id="rect2"
   height="4390.293"
   x="0.19998971"
   y="0.19998971"
   ry="0.69917101"
   width="4353.8188" /></svg>
