<?xml version="1.0" encoding="UTF-8" standalone="no"?>
<!-- Generator: Adobe Illustrator 22.1.0, SVG Export Plug-In . SVG Version: 6.00 Build 0)  -->

<svg
   version="1.1"
   x="0px"
   y="0px"
   viewBox="0 0 4354.1187 4390.5933"
   enable-background="new 0 0 1995.865 2834.646"
   xml:space="preserve"
   id="svg1596"
   width="4354.1187"
   height="4390.5933"
   xmlns="http://www.w3.org/2000/svg"
   xmlns:svg="http://www.w3.org/2000/svg"><defs
   id="defs1596" />


<path
   id="Leitrim_2_"
   fill="#6C833C"
   d="m 1589.4565,2374.9971 c -0.01,0.05 -1.935,-1.631 -2.607,-2.926 -0.672,-1.295 -0.9,-1.942 -1.456,-2.682 -0.555,-0.74 -1.295,-0.648 -2.682,-1.203 -1.387,-0.555 -0.463,-1.48 -1.167,-2.25 -0.705,-0.771 -2.349,-1.543 -3.828,-1.541 -1.48,10e-4 -1.665,1.941 -2.59,1.541 -0.925,-0.401 -1.757,-0.525 -3.009,-1.08 -1.253,-0.555 -0.876,-0.647 -1.523,-2.066 -0.647,-1.418 -1.387,-0.246 -2.378,-0.801 -0.991,-0.555 -0.582,-0.555 -0.931,-1.758 -0.348,-1.202 0.441,-0.925 0.811,-1.863 0.37,-0.938 -0.185,-0.727 -0.811,-1.097 -0.626,-0.37 -0.576,-0.925 -1.302,-1.942 -0.726,-1.018 -0.477,-1.202 -0.569,-2.312 -0.093,-1.109 -0.463,-2.035 -0.185,-2.498 0.278,-0.462 0.462,-1.387 0.37,-2.312 -0.092,-0.924 0.092,-1.387 0.277,-2.403 0.185,-1.017 0.092,-1.666 0,-1.943 -0.092,-0.278 -0.459,-0.925 -0.459,-0.925 0,0 -0.466,-6.753 -0.373,-7.853 0.093,-1.101 -0.37,-2.415 -0.733,-3.288 -0.364,-0.873 -0.839,-2.088 -1.856,-3.012 -1.017,-0.926 -2.035,-1.018 -3.053,-1.851 -1.017,-0.833 -0.462,-1.572 -0.184,-3.389 0.277,-1.815 -0.37,-1.329 -0.493,-2.531 -0.123,-1.202 -0.988,-1.665 -1.172,-2.96 -0.186,-1.295 1.295,-0.463 2.867,-0.832 1.572,-0.371 0.925,-0.833 1.48,-2.684 0.555,-1.85 0.925,-1.479 1.018,-2.867 0.092,-1.387 0.185,-0.925 0.647,-2.035 0.462,-1.109 0.648,-1.018 0.74,-1.722 0.093,-0.704 -0.832,-0.591 -1.85,-0.868 -1.017,-0.277 -1.295,-0.185 -2.436,-0.78 -1.141,-0.596 -0.34,-0.237 -0.524,-0.978 -0.185,-0.739 -0.37,-1.018 -0.77,-0.925 -0.4,0.093 -0.155,0.833 -0.89,1.573 -0.735,0.739 -0.56,0.092 -1.393,-0.556 -0.832,-0.647 -0.832,-1.479 -0.764,-2.497 0.068,-1.018 0.579,-1.203 1.227,-0.898 0.647,0.304 1.017,-0.767 1.387,-1.691 0.37,-0.926 -0.37,-1.572 0.433,-2.312 0.803,-0.74 0.955,-1.018 1.232,-1.926 0.278,-0.907 -0.462,-1.127 -0.555,-1.404 -0.093,-0.277 -0.677,-1.952 -0.677,-1.952 0.74,-0.186 1.325,-0.083 2.527,-0.176 1.203,-0.093 1.85,-0.647 2.683,-0.739 0.833,-0.093 1.942,0.092 2.96,-0.371 1.018,-0.462 0.647,-1.295 2.035,-1.479 l -0.779,0.259 h 0.779 l 0.74,0.852 c 0,0 -0.185,0.369 0,0.74 0.185,0.369 0.555,0.535 0.925,0.915 0.37,0.38 0.74,0.842 1.11,0.749 0.37,-0.092 0.647,-0.759 1.295,-0.749 0.647,0.01 1.48,-0.01 1.85,0 0.37,0.01 1.11,0.866 1.387,0.761 0.277,-0.104 1.11,-0.709 2.035,0.01 0.925,0.719 0.912,-0.596 1.52,-0.771 0.607,-0.176 2.273,-0.473 2.92,0 0.647,0.472 4.154,0.325 4.154,0.325 l 0.642,0.917 c 0.825,0.618 2.579,1.444 2.372,2.166 -0.206,0.722 -1.238,2.476 -0.928,3.301 0.31,0.825 5.157,4.126 6.498,5.673 1.341,1.548 4.333,5.364 5.055,6.602 0.722,1.238 2.27,5.055 3.816,5.261 1.547,0.206 4.332,0.104 5.055,0.619 0.722,0.516 0.619,2.166 0.825,2.888 0.206,0.723 1.857,1.342 2.888,3.095 1.032,1.754 1.857,4.333 2.269,5.261 0.413,0.928 1.032,1.754 2.579,1.857 l 0.166,-0.07 -1.849,3.889 c 0,0 -3.112,4.573 -3.278,5.035 -0.166,0.462 -0.727,2.217 -1.84,2.768 -1.113,0.551 -1.849,-0.285 -2.867,-0.012 -1.019,0.273 -2.125,-0.841 -2.682,-0.195 -0.558,0.646 -1.207,1.105 -1.397,2.307 -0.19,1.202 0.546,2.13 1.005,3.057 0.459,0.928 1.937,1.396 1.654,2.782 -0.283,1.386 -0.654,1.569 -1.305,2.399 -0.65,0.83 -2.099,1.379 -1.424,1.845 0.675,0.465 0.952,0.466 1.042,1.206 0.089,0.74 0.087,1.48 0.087,1.48 0,0 0.455,1.05 0.71,0.85 0.254,-0.2 1.236,-1.951 1.515,-2.229 0.279,-0.276 1.682,-0.046 1.773,0.562 0.092,0.607 1.58,0.561 2.213,0.748 0.633,0.188 0.727,-0.01 2.11,0.974 1.383,0.984 3.57,0.999 4.418,1.322 0.848,0.323 3.706,2.781 4.259,3.317 0.553,0.537 2.146,3.041 2.73,3.506 0.584,0.465 1.504,1.67 1.687,2.227 0.183,0.556 -0.933,2.035 -0.01,1.944 0.926,-0.091 0.723,0.17 0.914,0.826 0.19,0.656 -0.345,1.116 0.662,1.213 1.006,0.097 2.834,0.78 3.166,1.091 0.332,0.311 -0.577,1.484 0.197,1.916 0.774,0.432 2.252,1.178 2.804,1.828 0.552,0.649 1.103,1.669 1.753,1.116 0.65,-0.552 0.56,-1.2 0.657,-2.218 0.096,-1.017 0.928,-0.744 1.302,-1.849 0.375,-1.104 0.562,-1.844 1.208,-1.472 0.646,0.373 0.707,0.84 1.273,1.672 0.567,0.834 1.306,1.299 2.137,1.487 0.832,0.188 1.386,0.376 1.846,1.117 0.46,0.742 0.642,1.668 1.473,1.855 0.832,0.188 0.768,1.113 1.723,1.395 0.954,0.281 1.52,0.469 2.482,1.212 0.962,0.744 1.263,1.855 2.172,2.321 0.91,0.466 1.736,2.082 2.752,2.528 1.016,0.446 1.659,1.5 2.489,1.995 0.831,0.495 1.199,0.793 1.474,1.71 0.273,0.917 0.738,0.326 1.382,1.318 0.644,0.993 -0.375,1.365 -0.01,2.288 0.366,0.924 0.732,1.942 1.655,2.362 0.924,0.42 1.159,-0.227 2.614,0.011 1.455,0.237 0.994,-0.124 1.177,0.519 0.183,0.643 0.365,1.106 -0.01,1.475 -0.372,0.369 -1.525,0.086 -1.182,0.735 0.343,0.649 -0.288,0.618 0.671,1.699 0.96,1.082 1.015,2.261 0.705,2.469 -0.31,0.208 -0.453,1.345 0.158,2.021 0.611,0.676 1.094,1.592 1.091,2.239 -0,0.647 -0.188,0.747 -0.01,1.715 0.181,0.969 0.063,1.153 -0.482,1.798 -0.545,0.646 -0.625,1.479 -1.514,2.122 -0.889,0.644 -1.374,2.307 -1.374,2.307 -0.325,0 -1.761,-0.962 -2.038,-0.722 0,0 -1.85,-0.129 -2.343,0.039 -0.493,0.168 -0.863,0.572 -1.604,0 -0.74,-0.572 -0.74,0.941 -2.097,2.545 -1.357,1.604 0.37,1.604 0,1.727 -0.37,0.124 -2.467,0.863 -2.343,1.867 0.124,1.004 -1.233,1.709 -2.22,1.833 -0.986,0.124 -1.11,0.493 -1.089,1.727 0.02,1.233 -0.884,1.479 -2.182,2.22 -1.298,0.74 -1.169,1.48 -1.663,2.732 0,0 -0.74,1.51 -0.925,1.81 -0.185,0.299 -0.37,1.132 -1.11,0.946 -0.74,-0.185 -1.295,-1.109 -1.851,-0.185 -0.555,0.925 -0.739,3.607 -0.647,3.885 0.092,0.278 0.647,3.053 0,4.255 -0.648,1.203 -2.683,2.035 -4.07,2.312 -1.388,0.277 -3.067,2.035 -4.031,0.647 -0.964,-1.388 -1.084,-2.334 -2.203,-2.96 -1.118,-0.626 -0.611,-1.128 -1.118,-0.626 -0.507,0.503 -1.065,0.812 -1.065,0.812 0,0 0.433,0.926 0.494,1.665 0.062,0.739 0.408,2.473 -0.228,2.161 -0.636,-0.312 -0.299,-0.404 -0.653,-1.422 -0.353,-1.018 -0.437,-2.312 -1.089,-2.59 -0.651,-0.277 -0.651,0.646 -1.762,0.647 -1.11,0 -3.791,1.45 -3.791,1.45 -0.372,-1.233 -0.496,-1.67 -0.496,-2.87 0,-1.2 -0.863,-2.804 -0.863,-2.804 h -0.646 c 0,0 -1.049,-0.494 -1.696,-1.65 -0.648,-1.156 -1.06,-2.611 -1.06,-2.611 0,0 -2.742,-0.991 -2.764,-1.535 -0.021,-0.545 -0.247,-2.467 -0.247,-2.467 0,0 -0.54,-1.514 -0.701,-2.047 -0.162,-0.534 -1.077,-4.452 -1.077,-4.452 0,0 -0.233,-0.899 -1.062,-1.851 -0.829,-0.951 -1.105,-1.546 -1.296,-2.247 -0.191,-0.7 -0.656,-1.47 -1.506,-1.295 -0.85,0.175 -1.142,0.097 -1.449,0.911 -0.308,0.814 -1.614,2.878 -1.614,2.878 0,0 -0.667,0.243 -1.407,0.72 -0.74,0.477 -1.488,0.264 -2.101,0 -0.613,-0.263 -2.018,-1.373 -2.018,-1.373 0,0 -0.144,-3.219 -1.061,-4.194 0,0 1.414,-0.334 -0.033,-0.659 -1.447,-0.326 -2.091,-1.312 -2.091,-1.312 l -0.858,-1.419 -0.645,-1.384 c 0,0 0.612,-1.046 1.503,-1.465 0.891,-0.42 0.24,-1.406 0.997,-2.27 0.757,-0.863 1.399,0.319 2.188,-0.58 0.788,-0.9 0.912,-0.973 0.788,-1.676 -0.123,-0.704 -0.714,-0.828 -0.788,-1.691 -0.075,-0.863 0.568,-1.85 0,-2.836 -0.568,-0.986 -0.633,-1.779 -1.094,-3.295 -0.46,-1.516 -0.033,-2.625 0,-4.105 0.033,-1.479 2.728,-4.998 2.728,-4.998 l 1.011,-1.54 c 0,0 1.17,-1.202 0.921,-1.85 -0.249,-0.648 0.434,-2.312 0,-2.96 -0.434,-0.648 0.711,-1.942 0,-3.145 -0.711,-1.203 -2.468,-1.48 -4.041,-1.943 -1.573,-0.462 -3.145,-0.088 -3.978,-1.478 -0.832,-1.39 -2.188,-2.13 -3.036,-2.407 -0.849,-0.277 -1.496,-0.832 -2.329,0.37 -0.833,1.202 -1.215,1.943 -1.115,2.555 z"
   style="fill:#677821" /><rect
   style="fill:none;stroke:#000000;stroke-width:0.29998;stroke-linejoin:bevel;stroke-dasharray:none;paint-order:stroke fill markers"
   id="rect2"
   height="4390.293"
   x="0.19998971"
   y="0.19998971"
   ry="0.69917101"
   width="4353.8188" /></svg>
