<?xml version="1.0" encoding="UTF-8" standalone="no"?>
<!-- Generator: Adobe Illustrator 22.1.0, SVG Export Plug-In . SVG Version: 6.00 Build 0)  -->

<svg
   version="1.1"
   x="0px"
   y="0px"
   viewBox="0 0 4354.1187 4390.5933"
   enable-background="new 0 0 1995.865 2834.646"
   xml:space="preserve"
   id="svg1596"
   width="4354.1187"
   height="4390.5933"
   xmlns="http://www.w3.org/2000/svg"
   xmlns:svg="http://www.w3.org/2000/svg"><defs
   id="defs1596" />


<g
   id="Limerick__x3C_Group_x3E__2_"
   style="fill:#677821"
   transform="translate(1093.6405,660.66109)">
					<path
   fill="#8D9764"
   d="m 366.816,2050.652 c 0,0.969 1.11,0.512 2.836,0.512 1.726,0 0.247,-0.37 0,-1.48 -0.247,-1.109 -0.493,-0.492 -1.233,-0.739 -0.74,-0.247 -1.245,0.321 -1.603,0.739 -0.478,0.558 0,0 0,0.968 z"
   id="path975"
   style="fill:#677821" />
					<path
   fill="#8D9764"
   d="m 372.12,2048.884 c 0.123,0.188 -0.37,1.171 0,2.389 0.37,1.218 0.863,1.372 1.233,1.411 0.37,0.039 3.083,-3.369 2.96,-4.187 -0.123,-0.817 -0.37,-0.786 -1.727,-0.786 -1.356,0 0,0 -0.863,0.616 -0.863,0.616 -1.135,-0.44 -1.604,-0.986 -0.56,-0.653 -0.122,1.356 10e-4,1.543 z"
   id="path976"
   style="fill:#677821" />
					<path
   id="Limerick_2_"
   fill="#8D9764"
   d="m 351.756,2120.357 -1.158,-1.854 -0.661,-1.005 -4.01,-1.953 -0.694,-0.086 c 0,0 -1.665,-0.225 -2.035,-0.625 -0.37,-0.4 -1.388,-1.418 -1.479,-1.788 -0.093,-0.37 -0.463,-0.802 -0.463,-0.802 l -1.665,-2.066 -2.497,-1.85 c 0,0 -0.868,-0.835 -0.694,-1.042 0.174,-0.208 2.543,-1.632 2.543,-1.632 l 3.538,-1.642 -2.599,-2.737 c 0,0 -2.049,-2.197 -1.587,-3.492 0.462,-1.295 1.85,-3.053 2.867,-3.516 1.018,-0.462 0.278,-1.572 0,-2.404 -0.277,-0.833 -2.497,-3.423 -2.867,-4.718 -0.37,-1.295 -0.462,-2.507 -0.462,-2.507 l -0.076,-0.68 h 1.556 c 0,0 -0.37,-3.381 -0.185,-3.844 0.185,-0.462 1.387,-2.107 1.573,-2.256 0.184,-0.148 -0.186,-4.126 -0.833,-5.422 -0.647,-1.295 -3.005,-3.977 -3.491,-4.625 -0.486,-0.646 -1.504,-4.81 -1.504,-4.81 l -0.911,-2.099 -0.568,-0.861 c -0.185,0.74 0.925,1.11 2.22,1.295 1.295,0.186 3.145,0.186 4.255,0.37 1.11,0.185 4.255,-0.555 4.255,-0.555 0,0 2.035,-1.295 3.146,-1.665 1.11,-0.37 2.775,-2.405 3.885,-2.775 1.11,-0.37 1.48,0.555 3.145,0 1.665,-0.555 2.22,0 2.59,-0.555 0.37,-0.555 0.74,-1.11 1.85,-1.295 1.11,-0.186 3.885,-0.74 4.625,-1.11 0.74,-0.37 2.035,-1.85 2.775,-1.665 0.74,0.186 4.625,0.186 4.625,0.186 0,0 2.404,1.479 2.22,2.22 -0.185,0.74 0.74,1.295 0.74,1.295 l 1.665,-0.185 c 0,0 -2.221,-0.926 -1.295,-1.666 0.925,-0.739 2.22,-3.885 2.96,-3.885 0.74,0 2.59,0 3.145,0.37 0.555,0.37 1.48,2.22 1.85,0.925 0.37,-1.295 -1.11,-1.479 0.37,-1.295 1.48,0.186 2.96,1.11 2.59,0.186 -0.37,-0.926 -0.555,-2.035 -0.925,-2.775 -0.37,-0.74 -0.185,-0.925 0.74,-1.665 0.925,-0.739 1.295,-2.22 2.405,-2.405 1.11,-0.185 0.925,-1.664 2.035,-0.925 1.109,0.74 2.22,0.186 3.145,0.186 0.925,0 2.775,-1.11 3.7,-0.925 0.925,0.185 0.925,0.555 1.85,-0.186 0.925,-0.74 0.925,-1.85 3.33,-1.48 2.405,0.371 0.74,-1.479 2.96,-0.925 2.221,0.556 4.255,1.11 4.255,1.11 l 0.185,1.295 c 0,0 0.555,1.11 1.11,1.295 0.555,0.186 0.74,-1.295 0.74,-1.295 0,0 0,-0.555 1.665,-0.74 1.665,-0.185 1.48,-1.479 3.33,-1.295 1.85,0.186 2.59,-0.37 3.885,0.186 1.295,0.555 2.221,2.22 2.405,2.774 0.185,0.556 0.925,1.295 1.48,0.74 0.555,-0.555 -0.185,-2.774 -0.185,-2.774 0,0 -0.39,-0.699 -0.945,-0.884 0.165,-0.79 1.038,-2.262 2.333,-3.347 1.295,-1.085 2.683,-1.228 3.978,-1.412 1.295,-0.186 3.423,0.277 4.163,0.462 l 2.004,0.863 c 0,0 1.233,0.987 1.725,1.999 0.492,1.013 0.618,1.084 1.801,1.361 1.183,0.276 0.421,-0.277 1.096,-0.797 0.675,-0.52 0.435,-0.344 1.332,-0.099 0.897,0.244 1.266,-0.026 1.754,-0.134 0.488,-0.107 1.367,-0.48 1.367,-0.48 0,0 1.038,-1.974 1.284,-3.676 0.247,-1.703 0.494,-1.135 1.85,-1.874 1.357,-0.738 0.616,-10e-4 1.85,0 1.234,10e-4 0.493,-0.987 0.438,-2.273 -0.055,-1.285 0.548,-0.564 0.566,-1.551 0.018,-0.986 0.105,-0.739 0,-1.604 -0.105,-0.863 -0.388,-0.863 -0.512,-1.388 -0.123,-0.523 0,-1.325 0,-1.818 0,-0.493 0.37,-0.494 0.512,-0.863 0.141,-0.37 1.092,-0.863 1.092,-0.863 0,0 0.74,-0.494 1.233,-0.74 0.493,-0.247 0.493,-0.247 1.233,-1.48 0.741,-1.233 0.715,-0.557 0.715,-0.557 l -0.715,3.579 1.665,7.77 1.295,4.033 c 0,0 2.035,1.702 4.132,2.072 2.097,0.37 2.158,-0.925 2.899,-1.851 0.74,-0.925 2.035,1.295 2.124,1.974 0.089,0.678 2.871,0.247 5.531,-0.123 2.66,-0.37 2.89,-1.851 2.89,-1.851 0,0 3.515,0 4.494,0 0.98,0 2.223,1.851 2.223,1.851 l 2.718,1.665 c 0,0 1.048,2.281 1.233,2.652 0.185,0.369 2.146,0.341 2.146,0.341 1.16,-1.694 2.176,-1.423 3.028,-1.237 0.852,0.186 1.856,-0.215 1.856,-0.215 l 0.833,0.863 -0.585,2.461 c 0,0 -0.741,2.72 -1.851,4.14 -1.11,1.421 -1.48,2.465 -1.48,3.575 0,1.109 0.37,4.81 -1.233,6.475 -1.604,1.665 -0.617,3.7 -0.802,4.81 -0.186,1.11 -0.781,2.339 -0.89,2.528 -0.108,0.19 0.016,0.813 0.133,1.354 0.118,0.54 0.859,0.557 0.859,0.557 0,0 0.452,4.626 0.699,5.551 0.247,0.925 -3.577,2.775 -3.577,2.775 l -1.48,-1.11 -1.93,-0.925 -1.656,2.691 c 0,0 -3.074,0.083 -3.567,0.514 -0.493,0.43 0.308,1.42 0.86,2.715 0.552,1.295 -1.847,2.405 -2.587,2.59 -0.74,0.185 -0.74,-3.515 -1.039,-4.44 -0.299,-0.925 -1.365,-1.85 -2.291,-1.109 -0.925,0.74 -1.295,1.665 -1.85,2.22 -0.555,0.556 -1.665,0.925 -2.685,1.295 -1.02,0.37 0.096,2.96 0,3.516 -0.096,0.555 -1.569,3.145 -2.002,4.439 -0.433,1.295 1.543,2.405 2.002,3.33 0.459,0.925 2.871,-0.925 2.871,-0.925 0,0 2.22,0.74 2.661,1.109 0.44,0.371 4.062,1.296 4.062,1.296 l 1.973,2.774 c 0,0 2.775,1.789 4.132,2.899 1.356,1.11 1.371,0.9 1.371,0.9 l 1.362,-0.148 2.356,-0.353 1.016,1.08 v 0.492 c 0,0 0.493,3.639 1.418,5.489 0.925,1.85 2.22,1.11 2.22,1.11 l 4.008,0.185 c 0,0 0.247,1.048 0.54,1.788 0.293,0.74 0.015,2.344 -0.04,2.652 -0.055,0.308 -1.864,3.54 -2.35,4.686 -0.485,1.146 0.208,1.586 0.208,1.586 0.64,0.414 1.133,0.968 1.395,1.375 0.263,0.407 0.65,1.459 0.769,2.651 0.118,1.192 -0.372,2.567 -0.556,2.8 -0.184,0.232 -1.777,1.045 -1.777,1.045 -2.798,1.563 -2.68,1.088 -2.844,0.971 -0.164,-0.117 -0.083,-0.254 -0.347,-1.21 -0.265,-0.957 -2.201,-1.204 -2.645,-1.353 -0.444,-0.148 -2.524,-0.912 -3.084,-1.081 -0.559,-0.169 -1.038,-0.076 -1.322,0.018 -0.284,0.095 -1.761,1.002 -1.761,1.002 l -0.555,-0.649 -2.035,-0.186 c 0,0 0,0 -0.74,-0.925 -0.74,-0.925 -1.853,-3.7 -1.853,-3.7 0,0 -2.957,-2.035 -4.067,-2.344 -1.11,-0.309 -2.405,2.344 -2.59,3.084 -0.186,0.74 -3.7,3.515 -3.7,3.515 0,0 -1.85,1.11 -2.098,1.205 -0.248,0.095 -7.892,1.2 -10.297,2.264 -2.405,1.063 -5.92,-0.509 -7.03,-1.063 -1.11,-0.555 -3.33,-4.255 -4.215,-4.255 -0.885,0 -3,-0.925 -3.37,-1.479 -0.37,-0.556 -3.146,-4.811 -4.44,-5.735 -1.295,-0.925 -2.777,-1.48 -2.777,-1.48 l -2.28,-3.515 -1.418,-3.885 -5.18,0.369 c 0,0 -6.29,-0.185 -6.845,-0.739 -0.555,-0.556 -3.145,-1.295 -3.145,-1.295 l -1.974,2.876 -0.617,-2.876 -2.775,2.876 c 0,0 -2.22,0.269 -2.96,0.824 -0.74,0.555 -1.176,2.959 -1.176,2.959 0,0 -3.634,2.591 -3.304,3.146 0.331,0.555 -2.181,2.22 -2.735,2.251 -0.555,0.03 -2.035,2.189 -1.851,2.744 0.186,0.555 -6.289,0.555 -7.461,0.555 -1.172,0 -1.974,1.48 -1.989,2.035 -0.016,0.555 0,3.516 0,3.516 0,0 -2.76,-2.405 -3.5,-3.516 -0.74,-1.109 -3.885,-1.85 -4.625,-2.22 -0.74,-0.37 -2.96,-1.48 -2.96,-1.48 0,0 -7.03,-1.665 -8.449,-2.405 -1.418,-0.739 -2.281,0.371 -2.836,1.727 -0.556,1.357 -3.33,2.898 -4.81,4.379 -1.479,1.48 -2.775,1.049 -2.775,1.049 l -2.054,1.741 z"
   style="fill:#677821" />
				</g><rect
   style="fill:none;stroke:#000000;stroke-width:0.29998;stroke-linejoin:bevel;stroke-dasharray:none;paint-order:stroke fill markers"
   id="rect2"
   height="4390.293"
   x="0.19998971"
   y="0.19998971"
   ry="0.69917101"
   width="4353.8188" /></svg>
