<?xml version="1.0" encoding="UTF-8" standalone="no"?>
<!-- Generator: Adobe Illustrator 22.1.0, SVG Export Plug-In . SVG Version: 6.00 Build 0)  -->

<svg
   version="1.1"
   x="0px"
   y="0px"
   viewBox="0 0 4354.1187 4390.5933"
   enable-background="new 0 0 1995.865 2834.646"
   xml:space="preserve"
   id="svg1596"
   width="4354.1187"
   height="4390.5933"
   xmlns="http://www.w3.org/2000/svg"
   xmlns:svg="http://www.w3.org/2000/svg"><defs
   id="defs1596" />


<path
   id="Longford_2_"
   fill="#8D9764"
   d="m 1622.3955,2441.9721 c 0.372,1.233 0.122,1.48 0.011,2.344 -0.109,0.863 0.604,1.232 0.604,2.22 0,0.988 0.493,1.356 0.493,1.789 0,0.433 1.11,1.162 1.11,1.162 0,0 1.295,0.285 1.85,0.501 0.555,0.217 0.833,1.357 0.806,3.083 -0.027,1.727 -0.929,1.608 -0.929,1.608 0,0 -0.37,1.229 -0.74,1.477 -0.37,0.247 -1.233,0.74 -1.973,1.424 -0.74,0.683 -1.11,1.043 -1.22,2.029 -0.109,0.986 -0.137,1.11 -1.247,1.974 -1.11,0.862 -1.48,-0.124 -1.603,-0.493 -0.124,-0.37 -1.11,-0.617 -1.357,0.616 -0.246,1.233 0.494,2.097 0,3.33 -0.493,1.233 -0.739,1.479 -1.85,1.604 -1.11,0.123 -1.233,0.986 -1.85,1.85 -0.617,0.863 -0.987,0.863 -1.604,1.851 -0.617,0.986 0.123,1.232 0,2.22 -0.123,0.986 -0.123,1.603 -0.617,1.85 -0.493,0.247 -0.88,1.108 -0.88,1.108 -0.819,1.974 -3.437,3.947 -3.807,4.595 -0.37,0.647 -1.202,4.163 -1.018,5.458 0.186,1.295 1.295,6.104 1.665,7.245 0.37,1.14 1.11,3.854 2.683,4.965 1.573,1.11 2.775,4.995 4.255,9.157 1.48,4.162 0,0 1.395,4.326 0,0 1.658,-1.459 1.843,-1.921 0.185,-0.463 1.172,-1.388 1.974,-2.405 0.801,-1.018 0.616,-2.497 1.818,-2.867 1.203,-0.37 1.665,-0.277 2.035,0 0.37,0.277 0.647,0.832 1.48,0.832 0.833,0 1,-0.951 1.841,-1.076 0.841,-0.126 0.617,0.033 1.839,0 1.222,-0.033 3.473,0.675 3.473,0.675 0,0 0.386,-0.972 0.933,-0.724 0.548,0.247 2.676,2.039 3.215,1.893 0.539,-0.146 2.204,0.25 2.204,0.25 0,0 2.312,0.093 3.515,0.277 1.202,0.186 1.85,0.596 2.59,1.408 0.74,0.812 1.328,0.535 2.468,0.35 1.14,-0.185 1.51,-0.832 2.25,-1.572 0.74,-0.74 0.648,-1.11 2.312,-0.463 1.665,0.647 2.127,1.11 3.792,0.37 1.665,-0.74 0.555,-1.202 1.295,-3.237 0.74,-2.035 1.018,-3.237 2.035,-4.348 1.018,-1.109 3.146,-4.269 3.515,-4.447 0.37,-0.178 1.943,-1.287 1.943,-2.49 0,-1.202 -0.833,-1.14 0,-2.281 0.832,-1.141 1.078,-1.604 1.973,-1.233 0.895,0.37 0.34,1.295 1.727,0.555 1.387,-0.74 0,-1.758 0,-3.237 0,-1.48 -0.488,-1.11 -1.585,-2.312 -1.097,-1.203 -3.779,-2.036 -3.687,-3.053 0.092,-1.018 -0.74,-3.053 1.017,-2.358 1.758,0.693 3.146,1.71 4.07,2.358 0.925,0.647 0.833,1.387 1.295,0 0.463,-1.388 -0.342,-1.85 0.384,-2.96 0.727,-1.11 2.854,-1.108 3.964,-1.757 1.11,-0.648 1.202,-2.313 1.572,-3.793 0.37,-1.48 -0.185,-2.775 1.203,-3.146 1.388,-0.371 2.402,0 3.375,0 0.973,0 2.485,-0.462 3.07,-1.572 0.585,-1.11 0.409,-1.748 0.867,-2.955 0.458,-1.207 1.476,-1.022 2.308,-1.114 0.833,-0.093 2.26,0 2.26,0 l 0.979,1.114 h 0.784 c 0,0 0.949,-1.676 1.546,-2.065 0.597,-0.391 1.432,-0.934 1.814,-1.381 0.382,-0.446 0.911,-0.904 0.911,-1.491 0,-0.586 0,-1.601 0,-1.601 l 0.17,-1.329 -0.354,-1.476 c 0,0 0.26,-0.819 -0.333,-1.028 -0.593,-0.209 -1.235,-0.087 -2.208,-0.163 -0.973,-0.076 -1.939,0.765 -1.345,-0.417 0.595,-1.181 1.172,-2.128 1.172,-2.128 0,0 0.538,-0.58 0.173,-0.955 -0.365,-0.374 -1.347,-1.168 -1.654,-1.663 -0.308,-0.495 -0.77,-0.372 -2.158,-1.174 -1.388,-0.802 -2.951,-0.523 -4.065,-1.819 -1.114,-1.295 -0.897,-1.757 -0.867,-2.774 0.03,-1.018 0.34,-1.479 0,-2.683 -0.34,-1.202 -1.172,-2.22 -0.987,-3.145 0.185,-0.926 0.185,-1.624 0.093,-2.199 -0.093,-0.576 -0.438,-1.312 -0.669,-0.959 -0.23,0.354 -0.681,1.732 -1.131,0.941 -0.45,-0.792 -0.018,-2.204 -0.376,-2.408 -0.357,-0.205 -0.01,0.976 -1.198,1.232 -1.192,0.258 -3.951,-0.977 -4.35,-1.257 -0.399,-0.28 -1.372,1.528 -2.082,1.688 -0.709,0.162 -1.083,0.093 -2.484,0.186 -1.401,0.093 -2.511,0.832 -2.604,0.186 -0.093,-0.648 0.181,-1.663 0.181,-1.663 0,0 1.995,-0.509 1.832,-1.504 -0.163,-0.996 1.259,-3.395 1.259,-3.395 0,0 0.521,-1.675 0.336,-1.997 -0.185,-0.322 -0.74,-0.97 -0.277,-1.986 0.462,-1.018 0.49,-2.312 -0.727,-2.035 -1.216,0.277 -1.022,2.22 -1.905,0.925 -0.883,-1.295 0.227,-2.128 -0.514,-3.146 -0.74,-1.018 -2.312,-2.785 -2.682,-3.196 -0.37,-0.411 -2.775,-1.909 -3.052,-1.669 0,0 -1.85,-0.129 -2.343,0.039 -0.493,0.168 -0.863,0.572 -1.604,0 -0.74,-0.572 -0.74,0.941 -2.097,2.545 -1.357,1.604 0.37,1.604 0,1.727 -0.37,0.124 -2.467,0.863 -2.343,1.867 0.124,1.004 -1.233,1.709 -2.22,1.833 -0.986,0.124 -1.11,0.493 -1.089,1.727 0.02,1.233 -0.884,1.479 -2.182,2.22 -1.298,0.74 -1.169,1.48 -1.663,2.732 0,0 -0.74,1.51 -0.925,1.81 -0.185,0.299 -0.37,1.132 -1.11,0.946 -0.74,-0.185 -1.295,-1.109 -1.851,-0.185 -0.555,0.925 -0.739,3.607 -0.647,3.885 0.092,0.278 0.647,3.053 0,4.255 -0.648,1.203 -2.683,2.035 -4.07,2.312 -1.388,0.277 -3.067,2.035 -4.031,0.647 -0.964,-1.388 -1.084,-2.334 -2.203,-2.96 -1.118,-0.626 -0.611,-1.128 -1.118,-0.626 -0.507,0.503 -1.065,0.812 -1.065,0.812 0,0 0.433,0.926 0.494,1.665 0.062,0.739 0.408,2.473 -0.228,2.161 -0.636,-0.312 -0.299,-0.404 -0.653,-1.422 -0.353,-1.018 -0.437,-2.312 -1.089,-2.59 -0.651,-0.277 -0.651,0.646 -1.762,0.647 -1.109,0 -3.789,1.447 -3.789,1.447 z"
   style="fill:#677821" /><rect
   style="fill:none;stroke:#000000;stroke-width:0.29998;stroke-linejoin:bevel;stroke-dasharray:none;paint-order:stroke fill markers"
   id="rect2"
   height="4390.293"
   x="0.19998971"
   y="0.19998971"
   ry="0.69917101"
   width="4353.8188" /></svg>
