<?xml version="1.0" encoding="UTF-8" standalone="no"?>
<!-- Generator: Adobe Illustrator 22.1.0, SVG Export Plug-In . SVG Version: 6.00 Build 0)  -->

<svg
   version="1.1"
   x="0px"
   y="0px"
   viewBox="0 0 4354.1187 4390.5933"
   enable-background="new 0 0 1995.865 2834.646"
   xml:space="preserve"
   id="svg1596"
   width="4354.1187"
   height="4390.5933"
   xmlns="http://www.w3.org/2000/svg"
   xmlns:svg="http://www.w3.org/2000/svg"><defs
   id="defs1596" />


<path
   id="Louth_2_"
   fill="#6C833C"
   d="m 1798.7905,2391.3391 c 0,0 1.387,-0.027 2.312,0.805 0.925,0.833 2.509,1.943 2.919,3.33 0.411,1.388 2.076,2.498 2.261,3.33 0.185,0.833 -0.555,2.592 0,3.008 0.555,0.415 1.479,1.186 0.555,1.617 -0.924,0.431 -1.85,0.186 -2.035,1.573 -0.185,1.388 1.11,1.942 -0.277,1.942 -1.387,0 -1.942,-1.018 -2.405,0 -0.462,1.018 0.092,1.572 -1.11,0.832 -1.203,-0.74 -0.37,-2.22 -2.22,-2.404 -1.85,-0.186 -1.573,-1.573 -3.052,-0.648 -1.48,0.926 -1.264,0.74 -1.418,2.128 -0.155,1.388 -0.247,1.479 -0.895,1.758 -0.647,0.277 -1.449,0.093 -0.586,1.018 0.863,0.925 0.802,1.202 0,1.388 -0.802,0.185 -1.247,0.185 -0.654,1.018 0.593,0.832 0.654,1.479 0.654,1.479 -0.709,0.74 -0.863,1.572 0,2.035 0.863,0.462 1.969,0.457 2.22,1.11 0.252,0.652 1.165,1.372 0,1.295 -1.164,-0.078 -1.172,0.092 -1.449,0.832 -0.277,0.74 -0.342,0.832 -1.697,1.109 -1.355,0.278 -1.061,1.018 -2.133,0.463 -1.072,-0.555 -0.393,-0.253 -1.565,0.429 -1.172,0.682 -1.698,1.86 -2.56,1.792 -0.86,-0.07 -0.86,-0.07 -0.86,-0.07 l 1.046,1.272 c 0,0 1.387,-0.216 3.422,1.048 2.035,1.265 5.92,2.93 6.938,3.762 1.018,0.833 2.961,2.498 3.238,3.33 0.278,0.833 0.74,3.607 1.573,5.92 0.832,2.312 1.665,3.423 1.572,3.793 -0.093,0.37 -0.818,3.387 0.01,3.959 0.826,0.573 2.86,0.881 3.323,1.56 0.462,0.679 -0.104,3.084 1.289,4.656 1.393,1.572 2.873,1.425 4.261,1.822 1.388,0.397 3.607,-0.952 4.902,0 1.295,0.952 2.775,1.692 2.59,2.618 -0.185,0.925 -1.48,2.867 -1.757,3.792 -0.277,0.925 -1.018,2.104 -0.74,3.318 0.278,1.214 0.463,1.812 2.127,2.299 1.664,0.488 1.203,0.16 3.052,0 1.851,-0.159 0.768,0.44 1.295,-0.584 0.528,-1.024 0.185,-2.628 1.017,-2.351 0.833,0.277 3.837,2.337 4.533,2.56 0.696,0.222 1.634,0.955 1.973,1.88 0.339,0.926 0.787,2.684 1.951,2.961 1.163,0.277 1.81,0.277 2.736,-0.556 0.925,-0.832 2.158,-1.85 2.466,-2.683 0.309,-0.832 -0.863,-1.232 0,-1.603 0.864,-0.37 2.102,-0.053 3.888,-1.26 1.786,-1.207 3.718,-1.805 4.191,-1.022 l 0.74,-3.33 c 0,0 0.74,-4.995 0.925,-6.66 0.185,-1.664 0.555,-3.33 1.295,-3.699 0.74,-0.37 1.85,-1.295 1.48,-2.035 -0.37,-0.74 -1.295,-0.186 -2.22,-0.926 -0.925,-0.739 -2.22,-0.369 -2.59,-1.479 -0.37,-1.11 -0.186,-5.55 -0.186,-5.55 0,0 1.295,-3.33 1.48,-4.44 0.185,-1.11 1.11,-1.11 1.295,-2.034 0.185,-0.926 -0.74,-1.48 -0.74,-1.48 0,0 -1.295,0 -2.22,0 -0.925,0 -1.11,-1.295 -1.11,-1.295 0,0 -2.035,0 -2.59,0 -0.555,0 -1.11,-1.11 -1.665,-1.249 -0.555,-0.139 -2.035,-0.231 -2.775,-0.046 -0.739,0.185 -2.035,-0.186 -3.33,-1.11 -1.295,-0.925 -2.59,-4.255 -3.33,-6.29 -0.74,-2.035 -0.185,-7.029 -0.37,-7.955 -0.186,-0.925 -0.74,-2.035 0,-2.775 0.739,-0.739 1.665,-0.369 1.665,-1.295 0,-0.925 -0.186,-3.33 0.185,-4.065 0.37,-0.736 2.035,-1.854 2.96,-3.149 0.925,-1.295 -1.479,-3.33 -1.479,-3.33 0,0 -1.851,-0.185 -2.775,-0.185 -0.925,0 -4.07,-0.925 -4.07,-0.925 0,0 4.811,0 5.365,0 0.555,0 2.775,-0.37 2.775,-0.37 0,0 2.774,0 3.885,0 1.11,0 2.405,1.665 2.96,2.22 0.555,0.555 2.035,2.221 3.145,3.146 1.11,0.925 2.775,1.295 4.255,1.295 1.48,0 2.405,0.185 4.995,0.925 2.59,0.74 7.215,0.186 7.77,0 0.555,-0.186 1.48,-1.665 2.59,-2.405 1.11,-0.739 1.85,-1.479 1.85,-1.479 0,0 -0.185,-0.926 -0.555,-1.851 -0.37,-0.925 -2.405,-2.96 -2.405,-2.96 l -0.555,-2.96 c 0,0 0,0 -0.555,0 -0.556,0 -0.925,0.186 -2.035,0.186 -1.11,0 -1.295,-0.925 -2.035,-1.665 -0.74,-0.74 -1.665,-0.555 -2.775,-1.851 -1.11,-1.295 -1.665,-3.7 -2.405,-4.439 -0.74,-0.74 -3.885,-2.22 -5.18,-2.96 -1.295,-0.74 -2.405,-3.146 -2.405,-4.44 l 0.085,-0.515 -3.776,-3.07 c 0,0 -1.547,0.723 -2.579,2.166 -1.031,1.444 -1.96,1.857 -3.61,1.961 -1.65,0.103 -0.825,-0.825 -1.237,-2.785 -0.413,-1.96 -0.929,-1.031 -2.889,-1.96 -1.959,-0.929 -1.135,0.618 -1.128,2.372 0.01,1.754 -0.109,4.126 -0.01,7.324 0.104,3.197 -1.134,0.928 -2.269,1.547 -1.135,0.619 -2.063,0.412 -2.785,0.619 -0.722,0.206 -3.404,0.722 -4.539,0.516 -1.134,-0.206 -1.031,-1.135 -1.341,-1.856 -0.309,-0.723 -2.166,-1.032 -3.713,-0.516 -1.547,0.516 -1.857,1.96 -3.094,2.784 -1.238,0.825 -1.754,1.238 -2.683,0.825 -0.928,-0.412 -2.372,0.206 -3.094,0.517 -0.723,0.31 -3.095,0.412 -5.055,0.309 -1.96,-0.104 -2.372,0.826 -2.372,2.166"
   style="fill:#677821" /><rect
   style="fill:none;stroke:#000000;stroke-width:0.29998;stroke-linejoin:bevel;stroke-dasharray:none;paint-order:stroke fill markers"
   id="rect2"
   height="4390.293"
   x="0.19998971"
   y="0.19998971"
   ry="0.69917101"
   width="4353.8188" /></svg>
