<?xml version="1.0" encoding="UTF-8" standalone="no"?>
<!-- Generator: Adobe Illustrator 22.1.0, SVG Export Plug-In . SVG Version: 6.00 Build 0)  -->

<svg
   version="1.1"
   x="0px"
   y="0px"
   viewBox="0 0 4354.1187 4390.5933"
   enable-background="new 0 0 1995.865 2834.646"
   xml:space="preserve"
   id="svg1596"
   width="4354.1187"
   height="4390.5933"
   xmlns="http://www.w3.org/2000/svg"
   xmlns:svg="http://www.w3.org/2000/svg"><defs
   id="defs1596" />


<g
   id="Mayo__x3C_Group_x3E__2_"
   style="fill:#677821"
   transform="translate(1093.6405,660.66109)">
					<path
   fill="#4B5A26"
   d="m 243.359,1805.114 c 0.061,0.44 0.246,1.11 0.863,0.986 0.617,-0.123 0.987,-1.274 0.864,-1.686 -0.124,-0.411 -0.288,-1.151 -0.884,-1.027 -0.596,0.124 -0.932,1.075 -0.843,1.727 z"
   id="path947"
   style="fill:#677821" />
					<path
   fill="#4B5A26"
   d="m 295.406,1777.952 c 0,0 0.74,0.275 0.617,0.755 -0.123,0.479 0.493,0.631 1.48,0 0.987,-0.631 0.37,-0.973 0,-1.59 -0.37,-0.617 -1.116,-0.27 -2.097,0 -0.866,0.238 0,0.835 0,0.835 z"
   id="path948"
   style="fill:#677821" />
					<path
   fill="#4B5A26"
   d="m 291.46,1776.773 c 0.493,-0.222 1.973,-0.396 1.727,-1.137 -0.247,-0.739 -1.248,-0.171 -1.727,0 -0.696,0.25 -0.494,1.358 0,1.137 z"
   id="path949"
   style="fill:#677821" />
					<path
   fill="#4B5A26"
   d="m 294.543,1774.61 c 0,0 0.617,0.287 1.357,0.656 0.74,0.37 0.247,-1.479 -0.878,-1.356 z"
   id="path950"
   style="fill:#677821" />
					<path
   fill="#4B5A26"
   d="m 296,1781.434 c 0,0 0.27,0.987 0.529,1.727 0.259,0.74 0.605,0.37 -0.277,0.508 -0.882,0.138 0.758,0.85 1.785,0.727 1.026,-0.123 0.207,-1.11 0,-1.851 -0.207,-0.739 -0.593,-1.226 -1.507,-1.727 -0.694,-0.38 -0.53,0.616 -0.53,0.616 z"
   id="path951"
   style="fill:#677821" />
					<path
   fill="#4B5A26"
   d="m 298.541,1773.294 c 0.051,0.124 0.812,0.37 1.921,0 1.11,-0.37 -0.116,-0.753 -1.233,-0.739 -0.64,0.01 -0.739,0.616 -0.688,0.739 z"
   id="path952"
   style="fill:#677821" />
					<path
   fill="#4B5A26"
   d="m 299.714,1768.36 c -0.379,0 1.242,0.493 2.229,0 0.986,-0.493 -0.247,-0.863 -1.044,-0.616 0,0 -0.806,0.616 -1.185,0.616 z"
   id="path953"
   style="fill:#677821" />
					<path
   fill="#4B5A26"
   d="m 295.022,1766.836 c -0.376,-0.046 -0.602,0.785 -0.479,1.287 0.123,0.502 1.85,-0.256 1.986,-0.457 0.136,-0.202 -0.382,-1.032 -1.131,-0.785 -0.001,0 -0.001,0 -0.376,-0.045 z"
   id="path954"
   style="fill:#677821" />
					<path
   fill="#4B5A26"
   d="m 286.896,1766.834 c 0.37,0.692 1.233,-0.57 1.604,-1.063 0.37,-0.493 -0.482,0 -1.11,0 -1.11,0 -0.864,0.37 -0.494,1.063 z"
   id="path955"
   style="fill:#677821" />
					<path
   fill="#4B5A26"
   d="m 300.899,1770.95 c 0,0 0.921,0.247 1.41,0 0.489,-0.246 -0.371,-0.522 -1.326,-0.616 -0.723,-0.07 -0.084,0.616 -0.084,0.616 z"
   id="path956"
   style="fill:#677821" />
					<path
   fill="#4B5A26"
   d="m 297.39,1770.585 c 0,0 0.92,0.247 1.41,0 0.49,-0.247 -0.371,-0.522 -1.326,-0.616 -0.724,-0.072 -0.084,0.616 -0.084,0.616 z"
   id="path957"
   style="fill:#677821" />
					<path
   fill="#4B5A26"
   d="m 295.337,1771.401 c 0,0 0.92,0.247 1.41,0 0.489,-0.247 -0.371,-0.522 -1.326,-0.616 -0.723,-0.071 -0.084,0.616 -0.084,0.616 z"
   id="path958"
   style="fill:#677821" />
					<path
   fill="#4B5A26"
   d="m 292.957,1769.234 c 0,0 0.92,0.246 1.41,0 0.489,-0.247 -0.371,-0.523 -1.326,-0.617 -0.723,-0.07 -0.084,0.617 -0.084,0.617 z"
   id="path959"
   style="fill:#677821" />
					<path
   fill="#4B5A26"
   d="m 292.568,1772.857 c 0,0 0.92,0.246 1.41,0 0.489,-0.247 -0.371,-0.523 -1.326,-0.617 -0.723,-0.07 -0.084,0.617 -0.084,0.617 z"
   id="path960"
   style="fill:#677821" />
					<path
   fill="#4B5A26"
   d="m 293.864,1785.456 c 0,0 0.92,0.246 1.41,0 0.489,-0.247 -0.371,-0.523 -1.326,-0.616 -0.724,-0.071 -0.084,0.616 -0.084,0.616 z"
   id="path961"
   style="fill:#677821" />
					<path
   fill="#4B5A26"
   d="m 291.467,1786.748 c 0,0 0.92,0.246 1.41,0 0.489,-0.247 -0.371,-0.523 -1.325,-0.617 -0.725,-0.07 -0.085,0.617 -0.085,0.617 z"
   id="path962"
   style="fill:#677821" />
					<path
   fill="#4B5A26"
   d="m 290.56,1766.184 c 0,0 0.92,0.247 1.41,0 0.489,-0.246 -0.371,-0.522 -1.325,-0.616 -0.724,-0.072 -0.085,0.616 -0.085,0.616 z"
   id="path963"
   style="fill:#677821" />
					<path
   fill="#4B5A26"
   d="m 284.536,1764.779 c 0,0 0.921,0.246 1.41,0 0.489,-0.247 -0.371,-0.523 -1.326,-0.617 -0.723,-0.07 -0.084,0.617 -0.084,0.617 z"
   id="path964"
   style="fill:#677821" />
					<path
   fill="#4B5A26"
   d="m 297.896,1766.55 c 0,0 0.92,0.247 1.409,0 0.49,-0.247 -0.371,-0.523 -1.325,-0.616 -0.724,-0.072 -0.084,0.616 -0.084,0.616 z"
   id="path965"
   style="fill:#677821" />
					<path
   fill="#4B5A26"
   d="m 252.363,1771.152 c 0.123,0.448 1.48,1.155 2.972,1.401 1.492,0.247 -0.135,-0.493 -0.012,-1.493 0.123,-1 -0.74,-0.727 -1.233,-0.731 -0.493,0 -1.353,-0.5 -1.727,-0.612 -0.754,-0.225 -0.123,0.987 0,1.435 z"
   id="path966"
   style="fill:#677821" />
					<path
   fill="#4B5A26"
   d="m 222.146,1722.851 c 0.316,0.192 0.863,0.863 1.604,0.616 0.74,-0.246 2.713,-0.616 2.22,-1.356 -0.493,-0.739 -1.401,-1.356 -1.872,-0.863 -0.472,0.492 -2.681,1.156 -1.952,1.603 z"
   id="path967"
   style="fill:#677821" />
					<path
   fill="#4B5A26"
   d="m 229.272,1721.74 c 0.712,0 0.644,-0.369 1.014,-0.67 0.37,-0.301 -1.014,0 -1.014,0 0,0 -0.713,0.67 0,0.67 z"
   id="path968"
   style="fill:#677821" />
					<path
   fill="#4B5A26"
   d="m 216.35,1715.45 c 0.577,-0.593 0.493,-0.986 1.356,-1.479 0.864,-0.493 1.604,0.616 1.973,-0.617 0.37,-1.232 0.247,-2.343 0,-2.343 -0.247,0 -1.123,-0.863 -1.548,0 -0.425,0.863 -1.658,0.246 -1.782,1.233 -0.123,0.986 -0.987,1.604 -0.864,2.097 0.125,0.493 0.284,1.706 0.865,1.109 z"
   id="path969"
   style="fill:#677821" />
					<path
   fill="#4B5A26"
   d="m 221.406,1710.627 c 0.846,-0.607 1.11,0.014 1.357,-0.973 0.247,-0.987 1.11,-1.48 0,-1.974 -1.11,-0.493 -0.493,-0.616 -1.357,-1.604 -0.863,-0.986 -0.889,-1.974 -1.493,-0.986 -0.604,0.986 0.357,0.863 0,1.603 -0.357,0.74 -0.11,-0.493 -0.357,0.74 -0.247,1.233 -0.37,0.987 0,1.727 0.37,0.74 0.493,2.44 1.85,1.467 z"
   id="path970"
   style="fill:#677821" />
					<path
   fill="#4B5A26"
   d="m 231.643,1689.428 c 1.109,0 1.109,0.493 1.688,0 0.579,-0.494 -0.821,-0.755 -1.688,-0.987 -0.868,-0.233 -1.11,0.987 0,0.987 z"
   id="path971"
   style="fill:#677821" />
					<path
   fill="#4B5A26"
   d="m 229.652,1690.907 c -1.246,-0.74 -0.229,0.863 0,1.356 0.23,0.493 0.881,-0.246 1.247,-0.616 0.366,-0.37 -0.549,-0.74 -0.549,-0.74 0,0 0.548,0.74 -0.698,0 z"
   id="path972"
   style="fill:#677821" />
					<path
   fill="#4B5A26"
   d="m 259.97,1742.768 c -0.005,-0.186 0,-1.85 0,-1.85 h 2.013 c 0,0 0.509,0.047 0.509,0 0,-0.046 0.277,-0.971 0.416,-1.109 0.139,-0.14 0.37,-0.74 0,-0.879 -0.37,-0.139 -0.509,-0.277 -0.786,0 -0.277,0.277 0,0.369 -0.833,0.277 -0.832,-0.093 -0.789,-0.599 -1.319,-0.438 -0.531,0.161 -0.393,0.346 -0.716,0.669 -0.324,0.324 -0.647,0.417 -0.74,0.787 -0.093,0.369 0.139,1.804 0.37,1.988 0.231,0.186 0.324,0.647 0.555,0.555 0.231,-0.092 0.54,0.37 0.531,0 z"
   id="path973"
   style="fill:#677821" />
					<path
   fill="#4B5A26"
   d="m 265.544,1740.825 c -0.093,0.278 -0.463,0.602 -0.787,1.249 -0.324,0.647 0.139,1.48 0.601,1.85 0.463,0.37 0.509,0.648 0.047,1.018 -0.463,0.37 -0.417,1.434 0,1.48 0.416,0.046 0.971,-0.37 1.418,-0.879 0.447,-0.509 0.478,-0.879 0.524,-1.572 0.046,-0.693 0,-1.018 -0.324,-1.758 -0.323,-0.74 -0.433,-1.195 -0.74,-1.896 -0.137,-0.316 -0.646,0.231 -0.739,0.508 z"
   id="path974"
   style="fill:#677821" />
					<path
   id="Inishturk_Island_1_"
   fill="#4B5A26"
   d="m 229.897,1810.294 c 1.246,-0.125 2.732,-0.493 3.596,-0.739 0.863,-0.247 0.863,1.85 1.726,0 0.863,-1.851 0.247,-1.851 1.11,-2.467 0.863,-0.617 1.233,0 0.986,-1.11 -0.247,-1.11 -0.493,-1.974 -1.604,-1.356 -1.109,0.616 -1.3,1.604 -2.068,0.863 -0.768,-0.74 -1.508,-0.863 -2.248,-0.123 -0.74,0.739 0,0.739 -0.863,1.479 -0.863,0.74 -0.285,1.233 -0.636,1.851 -0.35,0.616 -1.211,1.724 0.001,1.602 z"
   style="fill:#677821" />
					<path
   id="Clare_Island_1_"
   fill="#4B5A26"
   d="m 240.523,1788.588 c 0.844,-0.221 2.476,-0.863 3.704,-0.74 1.229,0.123 1.723,0.096 3.449,-0.014 1.727,-0.109 3.823,-0.727 4.81,-1.097 0.987,-0.37 1.48,-0.123 1.974,-1.11 0.493,-0.986 1.974,-0.369 1.48,-1.85 -0.494,-1.48 -1.356,-0.986 -2.59,-1.48 -1.233,-0.492 -0.987,-0.739 -1.48,-1.603 -0.493,-0.864 0.37,-2.467 -0.987,-1.851 -1.357,0.617 -2.491,1.11 -2.602,2.097 -0.111,0.987 0.629,0.493 -1.345,1.233 -1.974,0.74 -2.372,0.37 -3.591,0.986 -1.219,0.617 -1.836,0.37 -1.959,1.357 -0.124,0.986 -0.493,1.356 -0.863,2.097 -0.37,0.741 -1.225,2.294 0,1.975 z"
   style="fill:#677821" />
					<path
   id="Achill_Island_1_"
   fill="#4B5A26"
   d="m 221.53,1737.774 c -0.124,1.479 0.493,0.616 0.74,1.233 0.247,0.616 -0.74,2.467 -0.74,2.467 0,0 -0.987,0.739 -1.974,1.603 -0.986,0.863 -0.986,0.493 -2.127,0.37 -1.141,-0.123 -1.819,-0.247 -3.052,0.37 -1.233,0.616 -1.604,1.356 -1.078,1.974 0.526,0.616 1.324,-0.494 2.558,-0.617 1.234,-0.123 0.494,0.37 2.097,0.493 1.604,0.124 0.37,0.987 0.982,1.357 0.612,0.37 1.855,0.739 2.538,1.356 0.683,0.616 0.92,-0.617 0.18,-1.11 -0.74,-0.493 0.986,-0.616 1.85,-0.493 0.863,0.123 2.96,0.123 4.324,-0.123 1.364,-0.246 1.72,-0.863 2.829,-0.494 1.11,0.37 0.74,1.48 1.851,1.727 1.11,0.247 1.85,-0.616 2.837,-1.232 0.987,-0.617 1.603,-0.987 3.454,-0.617 1.85,0.37 1.233,0.617 2.57,2.097 1.336,1.48 0.267,1.233 0,1.604 -0.266,0.37 -0.597,0.863 -0.597,2.22 0,1.357 0,1.11 -0.247,2.714 -0.247,1.603 -0.617,1.356 -0.636,2.466 -0.02,1.11 0.266,1.357 3.458,1.48 3.192,0.123 0.508,-0.37 1.765,-0.493 1.257,-0.123 1.086,1.479 2.196,2.837 1.11,1.355 0.986,0.986 -0.124,1.604 -1.11,0.616 0.37,0.986 0.78,1.727 0.41,0.739 0.577,0.616 1.811,1.26 1.233,0.645 1.356,1.207 2.226,2.115 0.869,0.908 0.611,0.694 1.985,0.914 1.374,0.219 0.969,-0.713 1.339,-1.543 0.37,-0.831 0.247,-1.267 0.646,-2.253 0.398,-0.986 0.464,-2.344 0.07,-3.454 -0.394,-1.109 -0.716,-0.986 -1.209,-2.096 -0.493,-1.11 0.986,-0.247 2.343,-0.987 1.357,-0.739 0,-0.616 0,-1.356 0,-0.74 0.864,0 0.987,-1.718 0.123,-1.718 -0.987,-0.132 -2.121,-0.01 -1.134,0.123 0.024,-1.109 1.011,-1.974 0.987,-0.863 0.987,0.247 0.987,-0.74 0,-0.986 0.124,-1.973 0.247,-2.836 0.123,-0.863 0.863,-0.74 1.48,-1.604 0.617,-0.864 -0.247,-0.616 -1.233,-0.863 -0.987,-0.247 -0.864,0.616 -1.423,0 -0.56,-0.617 -1.044,0.247 -1.139,0.863 -0.095,0.616 -1.139,1.11 -1.985,2.467 -0.846,1.356 -0.387,0.123 -1.004,-0.493 -0.617,-0.617 0.247,-0.863 1.004,-1.851 0.757,-0.986 0.476,-0.986 0.599,-1.604 0.123,-0.616 -0.246,-1.479 -0.599,-2.59 -0.353,-1.11 -0.017,-1.85 1.093,-2.097 1.11,-0.246 0.863,-0.369 1.603,-1.233 0.74,-0.863 0.37,-0.739 0,-1.425 -0.37,-0.686 -0.616,-1.165 -1.85,-1.905 -1.233,-0.739 -0.863,-1.109 -1.85,-2.22 -0.987,-1.11 0,0 0.493,-1.11 0.493,-1.109 -0.863,-0.862 -2.59,-0.648 -1.727,0.215 0,0.278 -1.11,1.019 -1.11,0.74 -0.124,0.987 -1.11,1.924 -0.986,0.937 -1.603,-0.443 -2.343,0 -0.74,0.443 -2.22,-0.443 -3.947,-1.8 -1.727,-1.356 -0.863,-1.233 -3.083,-0.987 -2.22,0.247 -1.85,0.74 -2.96,2.344 -1.11,1.604 -1.48,0.986 -2.344,2.22 -0.863,1.233 -0.493,1.11 -2.22,1.11 -1.727,0 -1.48,0.123 -2.494,0 -1.015,-0.124 -1.329,-0.986 -2.037,-1.974 -0.708,-0.986 -1.635,0.123 -2.659,0 -1.025,-0.123 -0.376,-0.98 -1.813,-1.356 -0.644,-0.171 -1.112,0.49 -1.235,1.97 z"
   style="fill:#677821" />
					<path
   id="Mayo_mainland_2_"
   fill="#4B5A26"
   d="m 288.87,1829.838 c -0.863,-0.558 -4.933,1.051 -5.402,0.963 -0.469,-0.09 -3.354,-0.281 -5.205,-0.035 -1.85,0.247 -2.467,-0.863 -3.6,-2.361 -1.134,-1.498 -2.567,-0.599 -4.233,-1.263 -1.667,-0.665 -2.404,-1.186 -3.531,-1.556 -1.127,-0.37 -3.045,-1.399 -3.045,-1.399 l 0.163,-1.499 c 0,-0.555 0,0 -0.185,-0.739 -0.185,-0.74 0.925,-1.11 -0.185,-1.665 -1.11,-0.555 -2.035,0 -3.145,-0.74 -1.11,-0.74 -1.11,-1.85 -1.11,-3.145 0,-1.295 1.295,-1.665 0.74,-3.146 -0.555,-1.479 -1.11,-0.74 -1.295,-2.59 -0.185,-1.851 1.11,-1.479 1.11,-2.22 0,-0.741 -0.37,-2.405 0,-2.96 0.37,-0.556 0.925,-2.775 1.48,-3.146 0.555,-0.37 0.74,-4.07 -0.185,-4.439 -0.925,-0.37 -0.555,-2.59 -0.37,-3.33 0.186,-0.74 0.556,-1.11 2.59,-1.11 2.035,0 1.295,-0.37 3.885,-0.74 2.59,-0.37 3.7,-0.739 4.625,-0.739 0.925,0 0.74,-1.48 2.774,-1.666 2.035,-0.185 3.33,-0.925 3.885,-0.555 0.555,0.37 0.185,1.295 0.185,1.295 0,0 1.48,0.186 2.775,0.37 1.295,0.185 2.775,-0.37 4.069,-0.185 1.295,0.185 1.665,0 2.405,-0.74 0.74,-0.74 1.11,-1.295 2.035,-1.295 0.925,0 1.85,-0.37 2.22,-0.925 0.37,-0.556 1.85,-0.925 1.85,-0.186 0,0.74 -1.48,0 0,0.74 1.48,0.74 0.925,-0.74 2.59,-0.555 1.665,0.185 2.035,0.37 2.774,0.555 0.74,0.185 0,1.295 0,1.295 0,0 0.74,0.185 1.48,-0.185 0.74,-0.37 1.479,0.185 2.22,-0.37 0.74,-0.556 1.665,-1.11 1.665,-1.665 0,-0.555 0.37,-0.37 0.925,-1.11 0.555,-0.739 -0.925,0.37 0.555,-0.739 1.48,-1.11 2.775,0 1.48,-1.11 -1.295,-1.11 0,-1.665 -1.295,-1.11 -1.295,0.555 -1.295,1.11 -2.22,0.925 -0.925,-0.185 -1.851,-0.739 -1.851,-0.739 0,0 0.925,-0.926 -0.185,-0.926 -1.11,0 0.37,0 -1.11,0 -1.479,0 -2.59,-1.109 -2.59,-1.109 0.555,-1.11 -0.555,-0.926 -0.37,-1.665 0.185,-0.74 0.185,-1.295 1.11,-0.74 0.925,0.555 1.85,1.11 0.925,0.555 -0.925,-0.555 -0.925,-1.85 -0.925,-1.85 0.74,-1.11 0.74,-1.11 0.74,-1.11 0,0 -0.925,-0.74 -0.74,-1.295 0.185,-0.555 0.185,-0.555 0.185,-0.555 0,0 -2.405,0.925 0,0 2.405,-0.925 0.925,-1.295 2.405,-0.925 1.48,0.37 -0.37,0 1.48,0.37 1.85,0.369 2.22,1.479 1.85,0.369 -0.37,-1.109 -0.925,-2.035 -1.48,-2.035 -0.278,0 -0.278,-0.23 -0.139,-0.346 0.139,-0.116 0.417,-0.116 0.694,0.346 0.555,0.926 0.925,0.186 1.479,0.186 0.555,0 0.555,0 0.555,0 0,0 -2.035,-1.85 -1.295,-1.85 0.74,0 0.74,0 0.74,0 0,0 0.37,1.664 0,0 -0.37,-1.665 -0.37,-1.665 -0.37,-1.665 l 1.095,-0.821 0.385,-0.289 c 0,0 -1.665,-0.925 -2.405,-0.74 l -0.185,-0.925 c 0.37,-1.665 1.665,-2.22 0.37,-1.665 -1.295,0.555 0.37,0.74 -1.295,0.555 -1.665,-0.185 -1.665,-0.185 -1.665,-0.185 0,0 1.85,0.925 0,0 -1.85,-0.925 -0.185,0 -1.85,-0.925 -1.665,-0.926 -1.11,-1.11 -2.775,-0.37 -1.665,0.74 0,1.479 -1.665,0.74 -1.665,-0.74 -1.85,-1.296 -2.775,-1.296 -0.925,0 0.185,1.296 -0.925,0 -1.11,-1.295 0.74,-1.109 -1.11,-1.295 -1.85,-0.185 -0.37,-0.925 -1.85,-0.185 -1.48,0.74 -1.85,0.74 -2.96,0.556 -1.11,-0.186 -1.665,-0.556 -2.59,-0.556 -0.925,0 0.925,2.22 -0.555,2.035 -1.479,-0.185 -2.59,-0.556 -2.96,-1.11 -0.37,-0.555 -0.925,-2.22 -1.665,-1.295 -0.74,0.926 -1.109,1.295 -1.665,1.665 -0.555,0.37 -1.109,1.665 -2.22,2.59 -1.11,0.925 -2.405,1.665 -3.515,2.22 -1.11,0.556 -2.22,1.666 -4.625,2.035 -2.405,0.37 -3.33,0.74 -4.625,0.556 -1.295,-0.186 -1.851,-1.48 -3.33,-1.295 -1.48,0.185 -2.405,0.739 -2.775,0 -0.37,-0.74 0,-1.296 0.555,-1.665 0.555,-0.37 1.11,-2.035 1.11,-2.035 0,0 2.035,-0.186 1.11,-1.295 -0.925,-1.11 -0.555,-2.221 -0.555,-2.96 0,-0.74 -0.74,-1.665 0,-2.22 0.74,-0.556 1.295,-0.74 1.665,-1.666 0.37,-0.925 1.295,-0.925 1.48,-2.034 0.185,-1.11 -0.37,0.185 -0.925,-1.11 -0.555,-1.295 -1.11,-2.22 -0.555,-2.405 0.555,-0.185 0,1.296 0.555,-0.185 0.555,-1.48 -1.295,-0.74 0.555,-1.48 1.85,-0.74 0,-0.185 1.85,-0.74 1.85,-0.555 1.48,-0.739 2.96,-0.924 1.48,-0.186 2.59,-0.186 3.33,0 0.74,0.185 1.48,0.369 1.664,1.109 0.186,0.74 0.74,1.11 2.035,1.295 1.295,0.186 2.59,-0.74 2.405,0 -0.185,0.74 0.185,2.405 0,3.33 -0.185,0.925 -1.665,0.37 -1.11,1.295 0.555,0.925 0.555,3.145 0.555,3.145 0,0 1.11,1.48 1.295,0.556 0.185,-0.925 0,-3.7 0,-3.7 0,0 0.74,-2.035 0.555,-2.775 -0.185,-0.739 -0.37,-2.404 -0.37,-2.404 0,0 -0.185,-1.11 -0.555,-1.665 -0.37,-0.556 -1.295,0.185 -1.295,-0.556 0,-0.555 -0.105,-0.901 0,-1.274 0.034,-0.124 0.092,-0.251 0.184,-0.39 0.37,-0.556 0.74,-2.405 0.555,-1.48 -0.185,0.925 -2.775,2.035 -2.775,2.035 0,0 0.925,0.925 0.925,1.48 0,0.555 0,0.555 0,0.555 0,0 -1.665,-0.37 -1.85,-1.11 -0.185,-0.74 -0.185,-1.11 -1.11,-1.11 -0.925,0 -1.85,0.556 -1.85,-0.739 0,-1.296 0.74,-2.96 0.555,-3.516 -0.185,-0.555 -0.185,-2.034 0.185,-2.034 0.37,0 1.48,0.739 1.48,0.739 0,0 0.185,-0.739 -0.37,-1.665 -0.555,-0.925 -0.74,-2.59 -1.295,-2.774 -0.555,-0.186 0,1.85 -1.665,1.109 -1.665,-0.739 -3.33,-0.925 -2.96,-1.665 0.37,-0.74 1.295,-0.74 0.555,-1.664 -0.74,-0.926 0.74,-2.035 -0.74,-0.926 -1.48,1.11 -1.85,0.186 -2.035,-0.74 -0.185,-0.925 -0.185,-1.109 -0.74,-2.59 -0.555,-1.479 -0.37,-2.59 0.185,-2.96 0.556,-0.37 1.295,-0.37 1.295,-1.479 0,-1.11 1.11,-2.221 1.11,-2.221 l 0.925,1.851 c 0,0 1.665,1.479 1.851,0.37 0.185,-1.11 -0.74,0 0.185,-1.11 0.925,-1.11 1.295,-2.405 0.555,-2.405 -0.74,0 -2.035,-0.369 -2.035,-0.369 0,0 1.11,-1.11 0.74,-1.851 -0.37,-0.74 0.556,-1.479 1.11,-1.295 0.555,0.185 1.665,0 2.035,-0.74 0.37,-0.739 0.37,-0.739 0.37,-0.739 0,0 -0.925,-1.666 -1.665,-2.221 -0.74,-0.555 1.479,-1.295 1.479,-1.295 l 1.665,-0.74 c 0,0 -1.11,-0.369 -2.22,-0.369 -1.11,0 -1.85,-0.74 -2.405,-0.371 -0.555,0.371 -0.925,2.035 -0.925,2.775 0,0.74 0.185,0.926 -0.37,1.665 -0.555,0.74 -1.11,1.665 -1.11,1.665 l -0.555,-1.665 c 0,0 -0.74,-0.555 -1.11,0 -0.37,0.556 -0.185,1.48 0,2.405 0.185,0.925 0,2.22 -0.555,2.96 -0.555,0.74 -1.11,0.555 -2.035,0.925 -0.925,0.37 -0.925,1.11 -2.22,1.11 -1.295,0 -2.59,-0.186 -2.59,-0.186 0,0 -3.515,2.591 -2.775,0.556 0.74,-2.035 0.37,-3.33 0.37,-4.625 0,-1.295 0,-2.035 -0.925,-2.59 -0.925,-0.556 -1.85,0 -1.85,-1.295 0,-1.296 0.555,-1.851 1.479,-2.035 0.925,-0.186 2.22,0.555 3.146,-0.186 0.925,-0.74 1.479,-0.555 1.85,-1.295 0.37,-0.74 0.555,-2.035 1.295,-1.48 0.74,0.556 -0.925,0.371 0.74,0.556 1.665,0.185 2.775,-0.37 2.775,-0.37 0,0 0.185,-0.37 -0.185,-0.925 -0.37,-0.556 0,-1.665 -0.925,-1.665 -0.925,0 -1.11,-0.186 -2.035,0.185 -0.925,0.371 -1.295,-0.37 -2.405,-1.479 -1.109,-1.11 -1.109,-1.851 -1.295,-2.775 -0.185,-0.925 0.37,-0.925 1.295,-0.555 0.925,0.37 2.775,1.665 2.59,0.37 -0.185,-1.296 -0.925,-1.296 -1.665,-1.48 -0.74,-0.185 0.185,-0.925 -0.74,-1.85 -0.925,-0.925 -0.37,-0.925 -2.405,-2.035 -2.035,-1.11 -3.145,-1.295 -3.145,-1.295 0,0 0.37,-1.665 1.295,-1.48 0.925,0.186 0.925,1.11 2.22,1.48 1.295,0.37 2.96,-0.37 2.96,-0.37 0,0 -0.37,-0.186 0,-1.295 0.37,-1.11 -0.74,-0.925 0.37,-1.11 1.11,-0.185 1.85,0.925 2.035,0 0.185,-0.925 0.74,-1.295 -0.925,-1.479 -1.665,-0.186 -2.775,0.555 -3.33,-0.186 -0.555,-0.74 -1.48,-1.665 -2.775,-2.59 -1.295,-0.925 -1.48,-0.925 -1.85,-1.85 -0.37,-0.926 -0.555,-0.926 -0.74,-1.851 -0.186,-0.925 -0.186,-0.925 -0.186,-0.925 0,0 -0.555,0.925 -1.295,0.925 -0.74,0 -2.22,0.556 -1.295,0.925 0.925,0.371 0.74,1.295 0.74,1.295 0,0 -2.59,-0.555 -2.22,0.186 0.37,0.74 1.85,1.295 2.035,2.22 0.185,0.925 0.185,1.851 0,2.405 -0.185,0.555 0.555,2.22 -0.555,2.035 -1.11,-0.186 -1.11,-1.11 -2.035,-1.48 -0.925,-0.369 -0.925,-0.74 -1.85,-0.185 -0.925,0.555 -0.185,1.295 0,2.22 0.184,0.926 0.925,2.405 0.184,2.775 -0.74,0.37 -2.774,0.37 -3.515,0.555 -0.74,0.186 -0.37,0.74 -1.665,1.295 -1.295,0.555 -1.295,-0.74 -1.295,0.555 0,1.295 0.555,1.666 1.665,1.666 1.11,0 1.11,0.555 1.85,1.295 0.74,0.739 -0.37,0 -0.74,1.109 -0.37,1.11 -0.37,2.405 -0.37,2.96 0,0.556 -0.186,0.556 -1.295,0.74 -1.11,0.185 -0.925,0.74 -1.11,1.479 -0.185,0.74 -0.925,-0.369 -0.185,0.74 0.74,1.11 1.85,0.74 2.22,1.48 0.37,0.74 1.11,1.665 1.11,2.59 0,0.925 0.555,1.109 -1.48,2.035 -2.035,0.925 -2.405,0.37 -3.7,-0.186 -1.295,-0.555 -2.775,0.186 -2.96,-0.74 -0.185,-0.924 -0.925,-2.22 -0.925,-2.774 0,-0.554 1.295,-0.185 1.11,-1.665 -0.185,-1.48 0.185,-3.145 0.37,-5.18 0.185,-2.035 0.74,-2.035 1.48,-3.33 0.74,-1.295 0.925,-2.59 1.665,-4.255 0.74,-1.665 1.295,-1.851 0.925,-4.07 -0.37,-2.219 -0.555,-2.59 0,-3.7 0.555,-1.109 0.37,-2.035 1.48,-2.035 1.11,0 1.295,0 2.22,-0.925 0.925,-0.925 1.48,-1.85 0.925,-2.59 -0.555,-0.74 -1.295,-0.555 -2.405,-0.925 -1.109,-0.37 -0.74,-0.555 -2.404,-1.295 -1.665,-0.74 -2.221,-1.851 -2.221,-1.851 h 1.851 l 1.48,0.74 1.851,1.295 -0.186,-1.665 c 0,0 -0.185,-1.85 -1.665,-1.109 -1.48,0.739 -1.295,-0.556 -1.295,-0.556 l 1.11,-1.11 c 0,0 0.185,0.186 0.555,-0.924 0.37,-1.11 0,-1.11 0,-2.221 0,-1.109 -1.11,-0.185 0,-1.109 1.11,-0.926 1.11,-1.295 2.22,-1.295 1.11,0 -0.555,1.109 1.11,0 1.665,-1.11 2.405,-1.48 2.96,-1.48 0.555,0 0.925,-1.11 0.925,-1.11 0,0 0.186,-1.295 0.925,-1.11 0.74,0.186 1.295,0.926 1.665,0.371 0.37,-0.556 -0.555,-0.926 -0.185,-1.666 0.37,-0.739 0.925,-1.479 2.035,-1.109 1.11,0.37 2.035,1.109 1.665,1.85 -0.37,0.74 -0.185,1.11 0.555,2.035 0.74,0.925 1.85,2.221 1.85,2.221 0,0 0.555,1.109 1.11,1.479 0.555,0.37 0.74,0.37 1.85,0.74 1.11,0.37 0.74,-0.925 1.11,0.37 0.37,1.295 1.48,3.885 0.925,2.59 -0.555,-1.295 0.185,-2.775 0.185,-3.33 0,-0.555 -1.295,-1.295 0,-0.555 1.295,0.739 1.11,1.664 1.85,1.664 0.74,0 2.22,-0.369 2.22,-0.369 0,0 0.925,0.185 0.74,1.479 -0.185,1.295 0,2.96 -0.925,4.07 -0.925,1.11 -1.665,0 -2.22,0.925 -0.555,0.925 -0.74,2.59 -0.74,2.59 0,0 -1.11,0.37 -2.405,0.37 -1.295,0 0.186,1.479 -1.479,1.295 -1.665,-0.185 -2.405,-2.22 -2.405,-2.22 0,0 0.185,1.665 -0.37,1.665 -0.555,0 -2.035,-0.186 -1.665,0.37 0.37,0.555 0.555,1.109 2.405,1.479 1.85,0.37 3.145,0.74 4.995,0.556 1.85,-0.186 3.7,0 4.625,-0.186 0.925,-0.186 1.665,-0.37 1.85,-1.109 0.186,-0.74 -0.185,-1.666 -0.74,-1.851 -0.555,-0.185 0.185,-2.22 0.555,-1.479 0.37,0.739 0.74,1.109 1.479,1.479 0.74,0.37 2.035,-0.185 2.035,-0.185 0,0 -1.665,-0.74 -2.22,-1.48 -0.555,-0.74 -0.925,-1.295 -1.11,-2.22 -0.185,-0.925 0.37,-1.851 0.37,-1.851 l -0.37,-1.85 c 0,0 0.555,0.37 0.925,-0.37 0.37,-0.74 -0.37,-1.295 0.555,-2.405 0.925,-1.109 2.22,-1.295 2.96,-1.295 0.74,0 1.665,-1.295 2.405,-1.295 0.74,0 1.665,-0.185 2.22,0.926 0.555,1.109 0.37,2.404 1.85,2.959 1.48,0.556 2.035,0.74 2.96,1.48 0.925,0.74 2.775,0.555 2.775,0.555 l -0.555,-1.295 c 0,0 -1.665,-0.925 -2.59,-1.665 -0.925,-0.739 -2.405,-1.295 -2.405,-1.295 0,0 -0.74,0 -1.11,-1.295 -0.37,-1.295 -0.555,-1.85 0,-2.22 0.555,-0.37 1.295,-0.74 1.665,0 0.124,0.247 0.392,0.474 0.694,0.665 0.603,0.384 1.341,0.63 1.341,0.63 l 1.665,-0.186 c 0,0 -2.775,-2.59 -3.885,-2.59 -1.11,0 -2.405,1.295 -3.145,0.926 -0.74,-0.371 -1.295,-0.926 -2.035,-1.295 -0.74,-0.371 -1.665,-1.666 -1.665,-1.666 0,0 -2.59,0.74 -2.405,0.186 0.185,-0.555 0.925,-0.37 0.74,-1.48 -0.185,-1.109 0,-2.59 0,-2.59 0,0 -0.185,-0.185 1.11,-0.555 1.295,-0.37 1.85,-1.11 2.405,-1.48 0.555,-0.369 1.665,-0.925 1.665,-0.925 0,0 0.37,-1.665 1.109,-1.479 0.74,0.185 2.035,0.555 2.035,0.555 0,0 0.555,-0.37 1.11,-0.37 0.555,0 0.925,0.37 1.479,0.556 0.555,0.185 1.295,-0.186 1.851,0.185 0.555,0.37 1.85,1.295 1.85,1.295 0,0 -0.185,0.74 0.74,1.11 0.925,0.369 1.85,0 2.775,0.369 0.925,0.37 1.295,1.295 2.22,1.295 0.925,0 2.405,0 2.96,0.186 0.555,0.186 2.22,0.37 2.22,0.37 l 0.925,0.555 c 0,0 1.48,0 1.85,-0.739 0.37,-0.74 -0.185,-2.035 0.74,-1.851 0.925,0.185 0.925,0.185 0.925,0.185 0,0 1.665,-0.555 2.405,0 0.74,0.556 1.11,0.37 2.405,0.74 1.295,0.37 2.59,0.555 2.59,0.555 0,0 0.925,-1.295 1.85,-0.925 0.925,0.37 1.295,1.11 1.11,1.851 -0.185,0.74 0.925,1.665 1.295,0.925 0.37,-0.74 1.851,-1.295 1.851,-1.295 0,0 0,0.555 0.184,1.11 0.185,0.555 2.035,0.369 2.035,0.369 0,0 1.11,0.556 1.48,-0.185 0.37,-0.74 -1.295,0.185 0.37,-0.74 1.664,-0.925 2.59,-0.185 3.33,-0.185 0.74,0 2.035,1.665 2.59,1.665 0.555,0 1.85,0 2.59,0 0.74,0 4.255,0.37 4.81,0 0.555,-0.37 1.85,-0.556 2.22,0.185 0.37,0.74 0.556,2.59 0.556,2.59 0,0 0.555,2.221 0.925,0.926 0.37,-1.295 1.48,-2.405 1.665,-3.33 0.185,-0.926 0.37,-0.926 1.11,-1.48 0.74,-0.555 0.185,1.48 0.74,-0.555 0.555,-2.035 -0.74,-1.665 0.555,-2.035 1.295,-0.37 1.665,0.555 2.405,0.74 0.74,0.185 3.7,1.295 4.44,1.664 0.74,0.371 2.22,0.371 2.96,0.556 0.74,0.185 2.035,0.37 2.775,1.665 0.74,1.295 1.48,0.925 1.11,2.404 -0.37,1.48 -0.74,2.221 -0.74,2.775 0,0.554 -0.185,2.035 -0.185,2.035 0,0 0.555,1.295 1.11,0.74 0.555,-0.555 0.185,-1.48 0.74,-1.665 0.556,-0.185 1.295,0.185 1.665,-0.556 0.37,-0.739 0.925,-2.404 1.665,-1.85 0.74,0.555 1.85,1.85 1.665,2.59 -0.185,0.74 0.925,-1.109 -0.185,0.74 -1.11,1.85 -0.74,3.33 -1.11,4.439 -0.37,1.11 -0.925,2.591 -0.925,2.591 0,0 0.37,-0.186 1.665,-0.186 1.295,0 2.035,-0.555 1.85,1.11 -0.185,1.665 0.925,0.925 -0.185,1.665 -1.11,0.74 -1.85,-0.185 -2.035,1.11 -0.185,1.295 -0.37,1.664 -0.37,2.22 0,0.555 -0.74,1.11 0.37,1.479 1.11,0.37 2.59,0.556 3.145,0.556 0.555,0 2.22,1.85 2.775,2.034 0.555,0.186 1.295,0 1.48,0.556 0.185,0.555 -0.925,0.37 -0.555,1.665 0.37,1.295 0.555,0.555 1.295,1.479 0.74,0.925 1.295,3.146 1.295,4.255 0,1.11 0.556,5.735 0.556,5.735 0,0 0.74,-3.7 0.74,-4.255 l -0.042,-0.494 0.745,1.049 c 0,0 0.314,0.74 1.424,0.671 1.11,-0.069 1.11,0.994 1.572,1.995 0.463,1.001 0.37,1.774 1.295,2.329 0.925,0.556 1.203,-0.555 1.573,-1.11 0.37,-0.555 1.017,-0.277 2.775,0 1.758,0.278 0.74,0.371 1.388,-1.219 0.647,-1.589 0.277,-1.094 0.925,-1.995 0.647,-0.901 0.925,0.901 1.85,1.391 0.925,0.489 0.555,-0.951 1.109,-1.391 0.555,-0.439 1.018,0.255 1.48,0.901 0.462,0.648 1.572,0.463 3.237,0.525 1.665,0.062 3.607,1.418 4.625,1.787 1.018,0.371 1.018,0.833 0.424,2.035 -0.594,1.203 1.148,0.648 2.536,1.805 1.388,1.156 2.405,1.525 2.312,2.451 -0.093,0.925 -1.665,1.479 -2.683,2.312 -1.017,0.832 -1.202,1.479 -2.166,2.59 -0.964,1.109 -0.701,1.202 -1.351,2.404 -0.649,1.203 -0.184,1.295 -1.478,2.437 -1.294,1.142 -1.295,1.264 -2.035,1.724 -0.74,0.459 -1.573,1.945 -1.996,2.87 -0.424,0.925 -1.612,1.479 -1.797,2.868 -0.185,1.387 -0.37,2.127 0,3.792 0.37,1.665 1.572,0.74 3.237,0.647 1.665,-0.093 2.683,-0.093 4.068,-0.463 1.386,-0.369 1.204,1.851 1.351,2.128 0.146,0.277 1.982,1.388 3.409,1.388 1.428,0 2.642,-0.555 3.845,-1.203 1.202,-0.647 0.74,-0.277 1.666,-0.185 0.926,0.093 1.202,0.462 1.096,1.177 -0.105,0.714 -0.357,1.413 -0.635,1.969 -0.277,0.555 -0.092,1.664 0,2.28 0.093,0.616 1.018,1.049 2.22,1.162 1.203,0.112 0.832,-0.021 0.771,0.325 -0.061,0.346 -0.031,2.521 0.421,3.28 0.451,0.758 2.601,2.387 3.156,2.571 0.555,0.186 4.07,-0.462 5.46,-0.647 0,0 1.2,-0.832 2.495,-1.924 1.295,-1.093 1.758,-0.389 2.961,-1.128 1.203,-0.74 0,-1.295 0.462,-2.152 0.462,-0.856 0.832,-0.9 1.388,-1.487 0.555,-0.586 1.572,0.124 2.22,1.162 0.647,1.038 0.74,0.35 1.388,-0.483 0.647,-0.832 0.462,-0.832 0.925,-2.22 0.463,-1.388 0.647,-1.11 1.572,-1.81 0.925,-0.701 1.48,-0.78 1.801,-1.133 0.32,-0.352 0.419,-0.665 0,-2.33 -0.42,-1.665 0.419,-1.018 0.789,-1.802 0.37,-0.784 1.85,-0.695 2.96,-1.251 1.11,-0.555 0.647,0.37 2.035,1.251 1.388,0.881 2.128,1.524 3.053,2.542 0.925,1.018 2.497,0.925 3.477,1.59 0.979,0.666 0.316,1.186 0,2.11 -0.315,0.925 -0.517,1.665 -1.01,3.145 -0.493,1.48 0.123,1.851 0.123,2.96 0,1.11 -0.277,1.85 0,2.367 0.277,0.517 0.887,1.61 0.887,1.61 0,0 -0.424,1.11 -0.701,1.851 -0.278,0.739 -0.463,-0.186 -1.665,-0.463 -1.203,-0.277 -1.758,-0.832 -2.388,-1.758 -0.63,-0.925 -2.977,-1.202 -4.088,-2.127 -1.109,-0.926 -1.572,-1.018 -2.867,-0.648 -1.295,0.37 -0.925,1.018 -1.11,2.498 -0.185,1.48 0.832,1.48 1.573,2.683 0.74,1.202 0,1.758 -0.278,2.312 -0.278,0.554 -0.555,0.925 -0.789,2.405 -0.235,1.479 0.512,1.202 1.067,2.682 0.555,1.48 1.757,1.943 3.145,3.516 1.388,1.573 1.388,0.925 2.403,0.905 1.016,-0.02 0.002,2.332 -0.157,2.888 -0.159,0.555 0.422,1.607 0,1.874 -0.422,0.266 -0.809,0.53 -1.499,0.771 -0.689,0.241 -1.5,-0.077 -1.898,-0.087 -0.398,-0.01 -0.794,-0.044 -2.28,-0.252 -1.487,-0.208 -1.184,0.162 -2.105,0.703 -0.921,0.54 -0.88,1.434 -0.599,2.274 0.281,0.841 0.579,1.167 0.74,2.044 0.16,0.876 -0.494,1.345 -0.494,1.345 0,0 -0.494,0.176 -1.327,0 -0.833,-0.175 -1.241,0.153 -2.003,0.763 -0.762,0.61 -0.202,0.645 -0.09,1.043 0.112,0.399 0.799,0.066 0.83,1.947 0.032,1.881 0.563,1.885 0.563,1.885 0,0 -0.595,1.044 -1.335,1.691 -0.74,0.648 -0.832,0.74 -0.647,1.665 0.185,0.925 0.832,1.295 1.942,1.942 1.11,0.647 1.942,0.277 3.145,0.84 1.202,0.562 -0.185,2.027 0.598,3.322 0.783,1.295 2.084,0.463 2.392,1.189 0.309,0.726 -1.511,2.049 -1.881,3.158 -0.37,1.11 -0.092,2.312 -0.512,3.423 -0.42,1.11 -1.061,1.942 -1.615,3.7 -0.555,1.758 0.555,0.832 -0.597,1.479 -1.151,0.647 -0.791,0.093 -1.254,1.226 -0.462,1.133 -0.092,1.087 -0.74,1.734 -0.648,0.648 -1.665,1.295 -2.868,2.312 -1.202,1.018 -2.59,2.59 -2.59,2.59 0,0 -1.202,0 -2.59,0.095 -1.388,0.094 -2.405,-0.557 -2.958,0.635 -0.552,1.191 -1.667,2.231 -2.129,2.971 -0.462,0.74 -1.573,1.11 -1.573,1.11 0,0 -1.757,2.22 -2.536,2.967 -0.779,0.746 0.131,0.918 -1.564,0 -1.696,-0.919 -3.33,0 -3.33,0 l -0.895,1.195 c 0,0 -0.647,0.556 -1.757,1.295 -1.11,0.74 -1.48,0.833 -2.035,0.463 -0.555,-0.37 -1.11,-1.85 -1.85,-3.327 -0.74,-1.478 -1.203,-1.112 -2.128,-0.835 -0.925,0.277 -3.237,1.018 -3.885,1.665 -0.648,0.647 0,2.22 0,3.052 0,0.833 -0.925,3.238 -1.382,4.381 -0.457,1.144 -0.098,1.354 -0.005,2.557 0.092,1.203 -1.018,1.665 -1.665,1.851 -0.647,0.185 -1.942,0.185 -2.775,0.555 -0.832,0.37 -0.185,1.295 0.463,2.128 0.647,0.832 0.74,1.295 0,2.518 -0.74,1.223 -1.295,-0.021 -2.206,0 -0.911,0.02 -1.125,-0.668 -1.776,0 -0.652,0.668 0.652,1.645 0.278,2.477 -0.373,0.833 0.744,1.851 1.299,2.498 0.555,0.647 -0.185,1.202 -0.555,1.758 -0.37,0.555 -0.186,1.572 -0.744,1.437 -0.559,-0.136 -1.754,0.69 -2.239,0.783 -0.486,0.093 -0.254,1.018 -0.023,1.708 0.231,0.689 -1.341,0.697 -1.341,0.697 0,0 -0.74,1.018 -1.48,1.109 -0.739,0.093 -2.775,0.556 -3.145,1.758 -0.37,1.202 0.833,1.758 0.648,3.053 -0.185,1.295 -0.555,1.202 -1.388,1.572 -0.832,0.37 -1.202,0.463 -1.757,1.213 -0.555,0.75 -0.925,0.545 -1.609,1.192 -0.684,0.647 -1.166,1.109 -1.629,0.832 -0.462,-0.277 -1.757,-1.018 -2.59,-0.925 -0.832,0.093 -1.295,1.295 -1.939,1.92 -0.645,0.624 -1.391,-0.162 -2.038,-0.07 -0.648,0.093 -1.202,0.093 -2.035,0 -0.832,-0.092 -2.867,-1.942 -3.977,-3.744 -1.11,-1.802 -1.295,-2.73 -1.91,-3.498 -0.615,-0.768 -3.733,-2.192 -4.517,-4.293 -0.785,-2.1 -0.603,-2.709 -1.516,-4.004 -0.913,-1.296 -1.215,-1.48 -2.14,-1.434 -0.925,0.048 -0.925,1.711 -2.035,2.358 -1.11,0.647 -2.312,-0.186 -2.791,-2.868 -0.479,-2.682 -1.371,-4.532 -1.834,-5.242 -0.462,-0.709 -1.11,-0.678 -2.127,-0.4 -1.018,0.277 -2.96,1.018 -3.807,1.758 -0.847,0.74 -3.13,1.295 -4.517,1.48 -1.388,0.185 -4.312,0.462 -4.312,0.462 0,0 -2.811,-1.295 -3.913,-2.035 -1.103,-0.739 -1.117,-0.647 -1.978,-1.265 -0.861,-0.617 -1.452,-0.955 -2.562,-1.048 -1.109,-0.092 -1.664,0.463 -2.404,-0.462 -0.74,-0.926 0,-2.405 0,-3.146 0,-0.739 -0.278,-2.774 -0.833,-3.607 -0.555,-0.832 -1.017,0.833 -1.202,1.295 -0.186,0.463 -1.203,1.851 -3.33,2.944 -2.128,1.094 -1.85,-0.262 -2.995,-0.354 -1.145,-0.093 -0.983,0.925 -2.042,1.295 -1.059,0.369 -1.439,-0.37 -2.053,-0.941 -0.614,-0.571 -1.143,-2.297 -2.16,-3.249 -1.017,-0.952 -1.516,-0.99 -1.516,-0.99 l -1.058,0.833 -2.78,1.146 z"
   style="fill:#677821" />
				</g><rect
   style="fill:none;stroke:#000000;stroke-width:0.29998;stroke-linejoin:bevel;stroke-dasharray:none;paint-order:stroke fill markers"
   id="rect2"
   height="4390.293"
   x="0.19998971"
   y="0.19998971"
   ry="0.69917101"
   width="4353.8188" /></svg>
