<?xml version="1.0" encoding="UTF-8" standalone="no"?>
<!-- Generator: Adobe Illustrator 22.1.0, SVG Export Plug-In . SVG Version: 6.00 Build 0)  -->

<svg
   version="1.1"
   x="0px"
   y="0px"
   viewBox="0 0 4354.1187 4390.5933"
   enable-background="new 0 0 1995.865 2834.646"
   xml:space="preserve"
   id="svg1596"
   width="4354.1187"
   height="4390.5933"
   xmlns="http://www.w3.org/2000/svg"
   xmlns:svg="http://www.w3.org/2000/svg"><defs
   id="defs1596" />


<path
   id="Meath_2_"
   fill="#606F38"
   d="m 1700.8335,2445.5911 c 0,0 0.833,-0.906 1.295,-1.092 0.463,-0.185 2.128,-1.109 3.237,-0.555 l 1.295,1.646 0.833,0.934 c 0,0 0.11,1.616 0.505,2.746 0.395,1.13 0.538,2.071 0.975,2.26 0.438,0.188 1.938,0.411 3.053,0.445 1.113,0.035 2.069,-0.062 2.497,0.107 0.427,0.17 1.282,0.631 1.772,0.798 0.491,0.167 1.096,-1.175 1.373,-1.68 0.277,-0.505 0.185,-1.044 0.925,-1.931 0.74,-0.887 1.573,-0.99 2.591,-0.938 1.017,0.052 2.774,-0.029 3.422,-0.636 0.648,-0.607 1.202,-0.947 2.035,-0.546 0.833,0.401 1.942,1.222 2.59,1.182 0.648,-0.04 1.295,0.145 1.942,0.422 0.647,0.278 0.74,1.194 1.665,2.447 0.925,1.253 1.19,1.672 2.122,1.694 0.931,0.021 1.415,-1.369 2.283,-0.812 0.868,0.557 1.238,1.161 1.979,0.812 0.74,-0.349 0.848,-0.778 1.942,-0.812 1.095,-0.035 1.667,0.367 1.667,0.367 l 2.091,1.179 c 0,0 0.774,-0.404 1.237,-0.559 0.462,-0.153 0.37,-1.081 1.202,-0.987 0.833,0.094 1.295,0.553 1.85,0 0.555,-0.554 -0.925,-1.51 0,-2.096 0.925,-0.586 1.701,-0.338 2.053,0 0.352,0.34 0.386,0.895 1.895,0.617 1.509,-0.277 1.602,0.076 1.509,-1.118 -0.093,-1.194 -0.829,-1.627 -0.6,-2.336 0.229,-0.709 0.28,-1.3 0.625,-1.56 0.345,-0.26 0.655,0.416 1.471,0.402 0.816,-0.014 1.094,-0.402 1.094,-0.402 0,0 0.555,-0.352 0.647,-0.999 0.093,-0.647 0.74,-2.312 -0.37,-2.867 -1.11,-0.556 -3.234,-1.676 -3.467,-2.966 -0.233,-1.289 -0.292,-2.399 -0.91,-2.77 -0.618,-0.37 -1.436,-1.111 -1.895,-1.459 -0.459,-0.35 -0.659,-1.99 -0.694,-2.237 -0.034,-0.246 2.005,-0.837 2.589,-1.021 0.585,-0.185 1.972,-0.37 1.787,-1.479 -0.185,-1.11 -1.568,-0.845 -0.877,-2.734 0.692,-1.891 1.155,-2.541 2.542,-1.477 1.388,1.065 1.85,2.36 3.607,3.101 1.758,0.74 2.868,0.093 4.533,-0.185 1.665,-0.277 2.745,-2.131 3.176,-2.916 0.432,-0.784 0.709,-2.357 1.541,-1.524 0.833,0.833 0.555,2.208 1.851,3.001 1.295,0.791 0.739,-0.137 2.035,-1.477 1.295,-1.34 0.278,-1.802 1.665,-3.282 1.387,-1.479 2.682,-1.514 2.682,-1.514 l 0.833,-0.799 v -1.079 c 0,0 1.079,1.224 1.479,0.986 0.401,-0.236 0.943,-1.056 1.445,-1.308 0.502,-0.253 1.275,-0.321 1.192,0 -0.083,0.321 -0.252,0.837 0.01,1.245 0.259,0.408 3.185,3.948 3.185,3.948 0,0 1.387,-0.216 3.422,1.048 2.035,1.265 5.92,2.93 6.938,3.762 1.018,0.833 2.961,2.498 3.238,3.33 0.278,0.833 0.74,3.607 1.573,5.92 0.832,2.312 1.665,3.423 1.572,3.793 -0.093,0.37 -0.818,3.387 0.01,3.959 0.826,0.573 2.86,0.881 3.323,1.56 0.462,0.679 -0.104,3.084 1.289,4.656 1.393,1.572 2.873,1.425 4.261,1.822 1.388,0.397 3.607,-0.952 4.902,0 1.295,0.952 2.775,1.692 2.59,2.618 -0.185,0.925 -1.48,2.867 -1.757,3.792 -0.277,0.925 -1.018,2.104 -0.74,3.318 0.278,1.214 0.463,1.812 2.127,2.299 1.664,0.488 1.203,0.16 3.052,0 1.851,-0.159 0.768,0.44 1.295,-0.584 0.528,-1.024 0.185,-2.628 1.017,-2.351 0.833,0.277 3.837,2.337 4.533,2.56 0.696,0.222 1.634,0.955 1.973,1.88 0.339,0.926 0.787,2.684 1.951,2.961 1.163,0.277 1.81,0.277 2.736,-0.556 0.925,-0.832 2.158,-1.85 2.466,-2.683 0.309,-0.832 -0.863,-1.232 0,-1.603 0.864,-0.37 2.102,-0.053 3.888,-1.26 1.786,-1.207 3.718,-1.805 4.191,-1.022 0,0 0.555,0.74 0.925,1.85 0.37,1.11 0.37,6.846 1.11,9.25 0.74,2.405 2.96,9.621 2.96,9.621 l 0.962,0.48 c -0.259,-0.129 -0.777,0.629 -1.887,0.536 -1.11,-0.092 -2.713,0.37 -3.392,0.647 -0.678,0.277 -1.788,1.018 -1.788,1.758 0,0.74 0,1.942 0,2.867 0,0.926 -0.149,1.758 -0.629,2.405 -0.482,0.647 0.166,-0.093 -2.331,1.572 -2.498,1.665 -3.022,1.48 -4.009,2.405 -0.986,0.925 -0.246,2.405 -1.727,1.295 -1.479,-1.109 -1.018,-1.85 -2.683,-2.312 -1.665,-0.463 -2.22,-1.109 -3.792,-0.647 -1.573,0.463 -1.573,1.11 -2.683,1.942 -1.11,0.833 -1.85,0.926 -2.96,2.683 -1.11,1.758 -1.018,3.053 -0.833,4.07 0.185,1.018 1.11,2.59 2.035,3.792 0.925,1.203 1.851,1.48 3.238,2.221 1.387,0.739 1.565,0.925 2.54,1.942 0.975,1.018 1.714,1.388 2.455,2.774 0.74,1.388 0.699,1.02 1.321,2.822 0.622,1.803 0.303,2.08 0,3.375 -0.303,1.296 -1.043,2.312 -1.321,3.516 -0.277,1.202 -0.185,2.312 -1.572,2.96 -1.387,0.648 -1.85,1.665 -3.515,1.665 -1.665,0 -2.59,-0.647 -3.515,0.555 -0.925,1.203 -0.715,2.379 -1.778,3.978 -1.063,1.599 -2.015,3.803 -2.478,4.399 -0.462,0.596 -0.74,1.983 -1.109,1.799 -0.37,-0.186 -1.665,-0.186 -2.312,0.462 l 0.303,-0.231 c -0.531,0.223 -2.708,0.416 -3.67,0.416 -0.962,0 -2.09,-0.555 -3.848,-1.109 -1.757,-0.555 -1.943,-1.48 -3.145,-1.758 -1.202,-0.277 -1.202,0.833 -2.035,1.665 -0.832,0.833 -0.808,1.312 -1.915,1.126 -1.107,-0.185 -1.911,-1.19 -2.526,-2.01 -0.614,-0.82 -0.014,-0.489 -0.55,-0.56 -0.536,-0.07 -4.087,0.756 -5.454,1.113 -1.367,0.358 -2.038,-0.43 -2.96,-0.554 -0.922,-0.125 -1.315,-0.268 -2.093,-1.14 -0.777,-0.872 -1.886,-2.521 -2.804,-3.195 -0.919,-0.675 -3.499,-2.233 -3.499,-2.233 0,0 0.68,0.211 -0.862,-0.071 -1.542,-0.282 -5.458,-0.246 -6.383,0.586 -0.925,0.833 -1.018,1.388 -1.757,2.868 -0.74,1.479 -0.278,1.85 -1.388,1.85 -1.11,0 -4.07,-0.37 -5.365,-1.203 -1.295,-0.832 -2.868,-2.22 -3.854,-2.858 -0.986,-0.639 -1.973,-1.211 -2.898,-1.767 -0.925,-0.555 -1.202,-1.572 -1.572,-2.497 -0.37,-0.925 -0.277,-1.295 -0.755,-2.312 -0.478,-1.018 -0.17,-0.555 -1.095,-0.093 -0.925,0.463 -0.925,0.647 -2.206,1.203 -1.28,0.555 -0.847,-0.093 -1.417,-0.463 -0.569,-0.37 -0.171,-1.109 -0.015,-1.215 0.156,-0.104 -0.942,0 -1.135,0.33 -0.193,0.33 -0.899,0.515 -0.899,0.515 -1.575,0.617 -1.698,0.739 -2.685,1.356 -0.987,0.617 -0.74,1.11 -1.603,1.11 -0.864,0 -0.494,-0.616 -1.233,0.493 -0.74,1.11 -0.247,0.74 -0.987,2.097 -0.74,1.357 0.494,0 -0.74,1.357 -1.233,1.356 0,1.85 -1.604,2.22 -1.604,0.37 -1.727,0.37 -2.59,0.986 -0.863,0.617 -1.11,0.74 -2.343,1.11 -1.233,0.37 -1.357,1.85 -1.48,2.467 l -0.688,1.378 c 0,0 -1.389,0.467 -2.518,0 -1.131,-0.465 -2.713,-1.872 -2.713,-1.872 0,0 -0.399,-1.025 -0.609,-1.003 -0.211,0.021 -1.118,-1.062 -2.043,-1.525 -0.925,-0.462 -2.127,-0.925 -3.515,-1.85 -1.387,-0.925 -1.573,-1.463 -2.127,-2.026 -0.555,-0.563 -1.373,-1.747 -1.373,-1.747 l 0.726,-0.574 c 1.665,-1.388 3.423,-3.33 4.163,-3.7 0.74,-0.37 2.868,-0.185 3.977,0 1.11,0.186 1.758,0.775 3.053,-0.213 1.295,-0.989 1.225,-2.134 2.647,-3.643 1.423,-1.509 2.337,-3.452 2.481,-4.932 0.144,-1.479 -0.374,-2.371 0.379,-2.542 0.752,-0.171 1.468,-0.418 2.513,-1.436 1.045,-1.018 2.34,-4.585 2.247,-5.992 -0.093,-1.408 0.379,-2.888 0.01,-4.09 -0.375,-1.203 -1.408,-2.961 -0.567,-3.886 0.84,-0.925 1.025,-1.448 2.042,-2.157 1.018,-0.71 2.22,-0.248 2.96,-1.357 0.74,-1.11 -0.092,-2.768 0.555,-3.095 0.647,-0.328 1.202,-0.79 1.11,-1.993 -0.092,-1.202 -1.017,-1.479 -0.74,-2.774 0.277,-1.295 2.497,-3.508 2.867,-4.066 0.37,-0.558 0.647,-2.224 0.555,-3.334 -0.092,-1.11 -0.652,-3.855 -1.066,-4.102 -0.414,-0.246 -1.292,-1.119 -2.036,-1.513 -0.744,-0.395 -2.078,-0.064 -3.28,0 -1.203,0.064 -2.051,-0.306 -2.968,0.805 -0.917,1.109 -1.597,2.884 -2.397,3.522 -0.801,0.64 -1.01,1.103 -1.8,1.843 -0.79,0.739 0.044,0.462 -1.391,-0.371 -1.435,-0.832 -2.915,-3.19 -2.915,-3.19 -0.833,-0.231 -4.255,-3.469 -5.365,-4.024 -1.11,-0.555 -3.021,-1.109 -3.021,-1.109 l -3.823,-1.142 c 0,0 -1.388,-1.171 -2.591,-1.634 -1.202,-0.463 -2.774,-0.925 -3.7,-1.942 -0.925,-1.018 -1.11,-2.097 -0.648,-3.083 0.462,-0.987 1.017,-1.912 0.37,-2.93 -0.648,-1.018 -4.255,-6.012 -5.18,-6.66 -0.925,-0.647 -2.366,-3.149 -3.449,-3.887 -1.083,-0.738 -5.121,-3.738 -5.121,-3.738 l -0.68,-1.703 z"
   style="fill:#677821" /><rect
   style="fill:none;stroke:#000000;stroke-width:0.29998;stroke-linejoin:bevel;stroke-dasharray:none;paint-order:stroke fill markers"
   id="rect2"
   height="4390.293"
   x="0.19998971"
   y="0.19998971"
   ry="0.69917101"
   width="4353.8188" /></svg>
