<?xml version="1.0" encoding="UTF-8" standalone="no"?>
<!-- Generator: Adobe Illustrator 22.1.0, SVG Export Plug-In . SVG Version: 6.00 Build 0)  -->

<svg
   version="1.1"
   x="0px"
   y="0px"
   viewBox="0 0 4354.1187 4390.5933"
   enable-background="new 0 0 1995.865 2834.646"
   xml:space="preserve"
   id="svg1596"
   width="4354.1187"
   height="4390.5933"
   xmlns="http://www.w3.org/2000/svg"
   xmlns:svg="http://www.w3.org/2000/svg"><defs
   id="defs1596" />


<path
   id="Monaghan_2_"
   fill="#8D9764"
   d="m 1702.4165,2370.4761 c -1.031,-1.237 -2.475,-0.928 -1.753,-3.197 0.722,-2.27 1.135,-2.991 2.476,-4.332 1.341,-1.341 2.166,-2.476 3.197,-1.444 1.032,1.031 1.238,0.722 0.826,1.96 -0.413,1.237 -0.619,1.547 -1.135,2.682 -0.516,1.135 -0.516,0.516 0.206,1.856 0.722,1.342 0.722,2.063 -0.516,2.27 -1.238,0.206 -2.372,0.104 -2.063,1.238 0.31,1.134 1.238,0.991 2.579,1.012 1.341,0.02 2.063,-1.425 3.094,-3.385 1.032,-1.96 1.65,-4.642 1.753,-6.602 0.103,-1.96 -0.722,-5.776 0.413,-6.602 1.134,-0.825 0.412,-2.372 1.237,-2.785 0.825,-0.412 3.713,-1.754 4.642,-2.27 0.929,-0.516 2.063,-1.547 3.095,-1.135 1.031,0.413 1.341,1.135 2.888,0.207 1.547,-0.929 2.682,-0.516 2.063,-2.476 -0.619,-1.96 -1.444,-2.167 -0.722,-3.095 0.722,-0.928 0.206,-3.713 -0.207,-5.055 -0.413,-1.341 -2.166,-1.753 -2.785,-1.959 -0.619,-0.207 -1.444,-1.135 -1.238,-1.96 0.206,-0.825 -0.206,-0.723 -1.341,-1.651 -1.135,-0.928 -2.27,-2.476 -1.031,-3.403 1.237,-0.929 2.578,-1.031 2.785,-1.856 0.207,-0.826 -1.135,-4.745 -0.206,-5.158 0.929,-0.412 2.889,0.413 3.714,-0.103 0.825,-0.517 2.888,-1.96 4.023,-2.889 1.135,-0.929 2.373,-0.618 2.579,-1.856 0.206,-1.238 1.444,-3.92 2.476,-4.951 1.031,-1.031 2.991,-5.261 3.301,-5.57 0.31,-0.31 2.682,-4.022 3.404,-3.92 0.722,0.104 2.062,-0.206 3.61,0.929 1.547,1.135 6.395,2.991 6.808,4.022 0.413,1.032 3.095,2.785 4.229,4.229 1.134,1.444 2.269,2.786 2.372,3.817 0.103,1.031 -0.104,2.784 0.929,2.784 1.031,0 2.372,-0.515 2.991,0.929 0.619,1.443 1.96,2.888 1.96,4.436 0,1.547 1.341,2.785 1.444,4.229 0.103,1.444 1.134,1.754 0,3.301 -1.134,1.548 -1.65,0.723 -2.063,1.857 -0.413,1.134 -0.619,3.197 0.722,4.125 1.341,0.93 2.579,0.62 3.404,1.136 0.825,0.516 1.547,1.649 1.444,2.682 -0.104,1.031 0.516,2.167 1.031,3.404 0.516,1.237 0.516,2.372 0.619,2.784 0.103,0.413 2.063,0.929 2.27,1.96 0.206,1.032 1.031,2.27 2.888,3.404 1.856,1.135 2.476,1.237 2.991,1.547 0.516,0.31 0.723,2.476 2.167,2.476 1.444,0 2.991,-1.134 3.404,-2.166 0.413,-1.031 0.929,-1.547 2.476,-0.928 1.547,0.618 7.014,4.435 7.53,7.116 0.516,2.683 1.032,4.849 0.413,5.983 -0.619,1.135 -1.753,2.991 -2.476,3.713 -0.722,0.723 -0.929,1.548 -0.413,2.992 0.516,1.443 1.341,2.681 0.516,3.609 -0.825,0.929 -1.547,1.032 -1.238,2.683 0.31,1.649 -0.206,2.991 0.722,4.435 0.928,1.444 1.238,2.373 2.476,3.611 1.238,1.237 2.166,1.856 3.094,1.959 0.929,0.104 1.538,0.232 2.301,0.232 0,0 1.387,-0.027 2.312,0.805 0.925,0.833 2.509,1.943 2.919,3.33 0.411,1.388 2.076,2.498 2.261,3.33 0.185,0.833 -0.555,2.592 0,3.008 0.555,0.415 1.479,1.186 0.555,1.617 -0.924,0.431 -1.85,0.186 -2.035,1.573 -0.185,1.388 1.11,1.942 -0.277,1.942 -1.387,0 -1.942,-1.018 -2.405,0 -0.462,1.018 0.092,1.572 -1.11,0.832 -1.203,-0.74 -0.37,-2.22 -2.22,-2.404 -1.85,-0.186 -1.573,-1.573 -3.052,-0.648 -1.48,0.926 -1.264,0.74 -1.418,2.128 -0.155,1.388 -0.247,1.479 -0.895,1.758 -0.647,0.277 -1.449,0.093 -0.586,1.018 0.863,0.925 0.802,1.202 0,1.388 -0.802,0.185 -1.247,0.185 -0.654,1.018 0.593,0.832 0.654,1.479 0.654,1.479 -0.709,0.74 -0.863,1.572 0,2.035 0.863,0.462 1.969,0.457 2.22,1.11 0.252,0.652 1.165,1.372 0,1.295 -1.164,-0.078 -1.172,0.092 -1.449,0.832 -0.277,0.74 -0.342,0.832 -1.697,1.109 -1.355,0.278 -1.061,1.018 -2.133,0.463 -1.072,-0.555 -0.393,-0.253 -1.565,0.429 -1.172,0.682 -1.698,1.86 -2.56,1.792 -0.86,-0.07 -0.86,-0.07 -0.86,-0.07 0,0 -1.88,-2.268 -2.139,-2.676 -0.258,-0.408 -0.088,-0.924 -0.01,-1.245 0.083,-0.321 -0.69,-0.253 -1.192,0 -0.502,0.252 -1.044,1.071 -1.445,1.308 -0.4,0.237 -1.479,-0.986 -1.479,-0.986 0,0 -0.463,-1.418 -1.11,-1.604 -0.648,-0.185 -1.295,-1.572 -2.035,-1.295 -0.74,0.277 -1.023,1.48 -1.807,1.851 -0.784,0.371 -2.263,1.392 -3.188,0.511 -0.925,-0.881 -0.813,-1.231 -1.517,-2.397 -0.704,-1.166 -0.827,-1.536 -0.95,-2.646 -0.124,-1.11 -0.864,-1.943 -1.141,-3.146 -0.278,-1.202 0.092,-2.56 -0.555,-3.223 -0.647,-0.662 -1.48,-1.495 -2.22,-2.604 -0.74,-1.11 -1.481,-1.387 -1.85,-2.543 -0.37,-1.157 0,-0.841 0,-1.785 0,-0.945 -0.185,-1.793 -1.11,-1.785 -0.925,0.01 -2.683,0.362 -3.238,0 -0.555,-0.362 -1.295,-1.102 -2.127,-1.564 -0.832,-0.462 -1.85,-1.167 -2.128,-2.018 -0.277,-0.85 -1.202,-3.386 -1.85,-3.32 -0.647,0.065 -1.998,-2.154 -2.987,-3.08 -0.99,-0.925 -4.32,-4.099 -4.968,-5.194 -0.648,-1.095 -1.202,-2.761 -0.555,-3.5 0.647,-0.74 2.775,-1.382 1.387,-1.848 -1.387,-0.465 -2.312,1.2 -3.237,0.645 -0.925,-0.555 -2.091,-0.645 -2.091,-0.645 0,0 -1.97,0.947 -2.529,0.75 -0.56,-0.198 -1.207,-0.037 -1.392,0.53 -0.185,0.567 0.092,3.328 -1.017,1.947 -1.11,-1.38 -0.37,-2.213 -1.018,-2.397 -0.647,-0.186 -1.295,0.253 -2.22,0.45 -0.925,0.197 -0.74,0.104 -2.683,1.215 -1.942,1.109 -1.418,1.109 -3.391,1.479 -1.974,0.37 0.093,-0.462 -1.912,-1.295 -2.004,-0.832 -2.558,-0.37 -3.577,-1.018 -1.018,-0.647 -0.926,-1.289 -3.053,-1.662 -2.128,-0.372 -2.498,-1.181 -3.053,-0.083 -0.555,1.098 0,1.721 -1.572,1.363 -1.573,-0.357 -0.74,-1.185 -3.053,-1.28 -2.312,-0.095 -1.942,-0.743 -3.33,-1.112 -1.388,-0.37 -2.967,-2.098 -3.056,-2.591 -0.089,-0.493 0,-1.294 0,-1.294 l 0.31,-1.488 z"
   style="fill:#677821" /><rect
   style="fill:none;stroke:#000000;stroke-width:0.29998;stroke-linejoin:bevel;stroke-dasharray:none;paint-order:stroke fill markers"
   id="rect2"
   height="4390.293"
   x="0.19998971"
   y="0.19998971"
   ry="0.69917101"
   width="4353.8188" /></svg>
