<?xml version="1.0" encoding="UTF-8" standalone="no"?>
<!-- Generator: Adobe Illustrator 22.1.0, SVG Export Plug-In . SVG Version: 6.00 Build 0)  -->

<svg
   version="1.1"
   x="0px"
   y="0px"
   viewBox="0 0 4354.1187 4390.5933"
   enable-background="new 0 0 1995.865 2834.646"
   xml:space="preserve"
   id="svg1596"
   width="4354.1187"
   height="4390.5933"
   xmlns="http://www.w3.org/2000/svg"
   xmlns:svg="http://www.w3.org/2000/svg"><defs
   id="defs1596" />


<path
   id="Offaly_2_"
   fill="#4B5A26"
   d="m 1620.9135,2545.0781 c 0,0 1.48,-0.893 2.683,0 1.202,0.894 2.405,1.634 2.96,2.374 0.555,0.739 2.127,1.664 2.96,1.757 0.833,0.093 2.035,1.202 2.867,0 0.833,-1.202 0.37,-1.937 2.035,-1.985 1.665,-0.05 2.59,0.783 4.532,1.246 1.943,0.462 3.423,0.092 5.273,-0.463 1.85,-0.555 3.63,-0.463 4.914,-1.388 1.284,-0.925 2.116,-0.277 1.654,-2.312 -0.462,-2.035 -0.019,-2.867 0.129,-3.33 0.148,-0.462 2.183,-2.416 3.108,-3.196 0.925,-0.781 3.978,-2.169 4.717,-2.354 0.74,-0.186 2.776,-1.665 3.608,-1.758 0.832,-0.092 1.572,0.093 2.59,1.295 1.017,1.203 2.867,1.84 3.33,2.816 0.463,0.976 1.573,4.214 1.85,6.342 0.277,2.127 -0.093,4.071 1.202,5.643 1.295,1.572 1.665,2.312 1.573,3.052 -0.092,0.74 0.278,1.942 1.018,1.388 0.74,-0.555 0.092,-1.656 0.74,-2.955 0.648,-1.3 -0.324,-2.133 1.503,-1.763 1.827,0.37 3.308,-0.181 3.677,0.882 0.37,1.061 0.37,0.783 1.573,1.339 1.202,0.555 2.405,2.034 2.867,2.22 0.463,0.185 1.851,-0.186 2.868,-0.832 1.017,-0.648 2.127,-0.833 3.33,-0.74 1.203,0.092 1.573,0.185 3.422,-0.556 1.85,-0.739 1.11,-1.942 3.237,-3.607 2.128,-1.665 2.868,-2.746 4.625,-4.194 1.758,-1.448 3.461,-3.113 4.229,-3.668 0.767,-0.555 3.81,-2.96 5.202,-3.422 1.392,-0.463 2.898,-0.648 4.134,-1.758 1.235,-1.11 2.253,-2.203 2.623,-2.767 0.37,-0.563 0.662,-0.36 2.327,-1.747 0,0 0.818,1.184 1.373,1.747 0.555,0.563 0.74,1.102 2.127,2.026 1.388,0.925 2.59,1.388 3.515,1.85 0.925,0.463 1.832,1.547 2.043,1.525 0.21,-0.022 0.609,1.003 0.609,1.003 0,0 1.583,1.407 2.713,1.872 1.13,0.467 2.518,0 2.518,0 -0.123,0.617 -0.545,0.102 -0.299,2.322 0.247,2.22 1.357,3.946 2.344,4.378 0.986,0.432 3.946,0.925 3.946,0.925 l 1.481,2.344 -0.748,0.559 c 0.454,0.959 3.893,3.48 4.633,4.128 0.74,0.647 1.85,2.034 1.109,2.497 -0.74,0.463 -1.85,1.203 -2.497,1.758 -0.647,0.555 -0.555,1.572 0.277,2.492 0.833,0.92 0.648,1.578 0,1.995 -0.647,0.418 -1.665,-0.048 -3.145,0 -1.48,0.048 -1.11,0.508 -1.573,1.34 -0.462,0.833 0.648,1.388 1.195,2.128 0.547,0.74 0.377,1.018 0.377,2.683 0,1.665 -0.185,1.109 -1.017,1.564 -0.833,0.454 -0.833,0.101 -2.128,0.01 -1.295,-0.093 -0.832,0.647 -1.43,1.757 -0.598,1.11 -0.328,1.11 -0.456,2.128 -0.128,1.018 1.146,0.647 2.903,0.925 1.758,0.277 1.942,0.463 2.867,1.018 0.925,0.555 1.11,1.203 0.648,1.758 -0.462,0.555 -1.11,0.37 -2.59,1.109 -1.479,0.74 0.093,1.388 0,2.868 -0.092,1.479 -0.647,0.925 -2.312,1.531 -1.665,0.606 -2.127,-0.236 -3.586,0 -1.458,0.236 -2.889,0.597 -4.646,0.431 -1.757,-0.166 -1.85,-0.297 -3.515,-0.39 -1.665,-0.093 -1.388,0 -3.053,0 -1.665,0 -0.462,0.74 0,1.572 0.463,0.833 1.665,0.556 2.867,0.394 1.203,-0.162 2.221,0.994 3.053,1.61 0.833,0.616 1.831,0.817 1.831,0.817 -0.925,0.369 -1.831,1.064 -1.831,1.064 l -1.11,1.202 h -1.912 c 0,0 -1.233,-0.247 -2.467,0 -1.234,0.247 -2.097,0.767 -2.59,-0.11 -0.493,-0.877 -0.617,-0.999 -1.356,-0.753 -0.74,0.246 0,0.37 -1.233,1.233 -1.233,0.863 -1.233,1.356 -2.22,1.479 -0.987,0.124 -0.987,0.247 -1.603,0.987 -0.617,0.74 -0.987,1.85 -1.727,1.604 -0.74,-0.247 -0.987,-1.11 -1.727,-0.74 -0.74,0.37 0.74,-0.37 -0.74,0.37 -1.481,0.739 -1.481,2.238 -2.344,1.489 -0.863,-0.75 -1.356,-0.873 -1.727,-0.503 -0.371,0.37 -2.22,1.356 -2.22,1.356 0,0 -0.647,-0.771 -1.665,-1.973 -1.018,-1.203 -2.035,-2.683 -2.312,-3.979 -0.278,-1.295 -0.093,-2.312 0,-2.682 0.092,-0.37 1.202,-0.389 0.925,-1.535 -0.277,-1.147 -1.018,-0.924 -2.035,-2.516 -1.017,-1.592 -1.572,-3.72 -2.312,-4.367 -0.74,-0.647 -2.22,-0.832 -3.7,-0.925 -1.479,-0.093 -2.774,-0.555 -4.069,0 -1.295,0.555 -1.48,2.683 -1.851,3.423 -0.37,0.739 -0.37,0.925 -0.832,1.387 -0.463,0.463 -0.833,0.316 -1.942,0.482 -1.11,0.166 -2.498,-0.852 -3.516,-1.13 0,0 -0.185,-0.092 -2.96,0.647 -2.774,0.74 -4.532,0.648 -5.272,1.295 -0.74,0.648 -2.497,1.604 -3.33,2.374 -0.832,0.771 -1.479,-0.03 -3.052,0 -1.573,0.031 -2.775,0.309 -3.792,1.049 -1.018,0.74 -2.867,1.942 -3.515,2.683 -0.648,0.74 -1.295,0.832 -1.018,2.127 0.277,1.296 1.85,3.25 2.774,4.262 0.925,1.012 1.665,2.121 2.775,3.231 1.11,1.11 2.683,1.388 2.59,2.59 -0.093,1.202 -0.462,2.567 -0.925,2.579 -0.463,0.011 0.37,1.121 -0.277,2.23 -0.647,1.11 -0.74,1.388 -2.312,2.405 -1.573,1.018 -5.458,3.978 -5.458,3.978 0,0 0.278,1.85 -1.387,3.146 -1.665,1.295 -3.7,2.25 -4.348,3.483 -0.648,1.233 -0.925,3.916 -1.11,6.414 -0.185,2.497 -0.463,4.415 -1.388,5.398 -0.925,0.983 -2.528,2.741 -2.528,2.741 -0.37,-0.491 1.233,0.37 -1.264,-0.74 -2.498,-1.109 -3.238,-1.597 -3.608,-2.001 -0.37,-0.404 -1.85,-1.051 -2.59,-1.514 -0.74,-0.463 -1.85,0 -2.683,0 -0.833,0 -3.521,1.766 -4.166,2.316 -0.645,0.551 -1.422,1.568 -2.004,2.031 -0.583,0.462 0.12,2.312 0,3.145 -0.12,0.833 1.083,1.572 0.435,1.942 -0.648,0.37 -0.969,0.925 -0.669,1.711 0.299,0.787 0.955,0.324 -0.113,1.619 -1.068,1.295 -2.363,0.925 -3.195,1.851 -0.833,0.925 1.018,1.479 0,2.404 -1.018,0.926 -2.744,2.047 -3.083,1.532 -0.34,-0.515 -0.34,-0.329 -1.08,1.243 -0.74,1.572 -1.295,2.405 -2.312,1.85 0,0 -1.003,-1.079 -1.087,-2.065 -0.084,-0.986 -0.332,-2.591 -1.565,-2.344 -1.233,0.247 0,2.344 0,2.344 0,0 0.99,1.604 0.742,2.467 -0.249,0.863 -0.495,1.603 -0.742,2.713 -0.246,1.11 -0.863,2.465 -1.85,2.897 -0.987,0.433 -1.604,1.05 -2.467,-0.554 -0.863,-1.604 -2.22,-0.986 -1.974,-2.59 0.247,-1.604 0.805,-1.851 -0.029,-2.837 -0.834,-0.987 -2.067,-2.178 -3.424,-3.124 -1.357,-0.946 -1.604,-1.439 -2.22,-2.919 -0.617,-1.48 -1.716,-2.667 -1.233,-4.487 0.482,-1.819 -0.461,-2.79 0.694,-3.16 1.155,-0.37 2.018,0.37 2.759,0.617 0.74,0.246 1.846,2.22 2.342,1.974 0.495,-0.247 0.931,-1.604 2.008,-2.591 1.077,-0.986 1.817,-1.973 1.447,-3.083 -0.37,-1.109 -0.675,-3.947 -1.447,-4.687 -0.772,-0.74 -2.504,-1.604 -2.008,-2.898 0.495,-1.295 0.067,-2.035 2.008,-1.788 1.94,0.246 4.407,0.37 4.9,0.493 0.493,0.123 0.616,-1.37 -0.123,-2.104 -0.74,-0.733 -1.481,-1.473 -1.233,-3.446 0.247,-1.974 1.85,-3.084 1.85,-4.07 0,-0.986 -0.765,-2.016 0,-2.097 0,0 0.691,0.195 0.742,0 0.05,-0.195 0.435,-0.95 0.705,-1.235 0.27,-0.285 0.89,-0.984 0.89,-0.984 0.856,-1.109 0.01,-2.343 0,-4.447 -0.01,-2.104 0.871,-1.596 0.871,-3.18 0,-1.585 -0.37,-0.76 -0.871,-1.467 -1.257,-0.279 0.13,-1.266 0.01,-2.376 -0.124,-1.11 -1.357,-1.85 -1.727,-2.96 -0.37,-1.109 -2.097,-1.727 -3.207,-2.467 -1.11,-0.74 -2.097,-0.986 -4.508,-1.233 -2.411,-0.247 -1.905,-0.739 -4.125,-1.727 -2.22,-0.987 -2.22,-1.356 -3.947,-3.21 -1.727,-1.854 -0.74,-0.366 -1.604,-0.859 -0.863,-0.494 -1.357,-2.222 -1.357,-2.222 1.357,-0.986 0.987,-2.29 2.837,-3.427 1.85,-1.136 3.083,-2.941 4.316,-2.409 1.233,0.533 1.357,1.89 3.083,1.52 1.727,-0.37 2.22,-1.109 2.96,-2.22 0.74,-1.109 1.604,-2.597 1.604,-2.597 l -0.74,-1.351 c 0,0 1.233,-1.231 0.74,-1.972 -0.494,-0.74 -0.788,-2.344 -1.627,-2.837 -0.84,-0.493 -1.95,-0.862 -2.69,-1.356 -0.74,-0.493 -2.467,0.124 -2.59,-1.11 -0.123,-1.232 0,-0.862 -0.863,-1.85 -0.863,-0.986 -1.481,-1.85 -1.85,-2.22 -0.37,-0.37 -1.081,-0.526 -1.081,-0.526 -0.029,-0.584 -0.464,-0.98 0,-1.954 0.464,-0.974 0.957,-1.96 1.328,-2.453 0.371,-0.493 1.973,-0.863 2.097,-2.59 0.123,-1.727 -1.11,-3.206 0,-3.823 1.11,-0.617 2.59,-0.986 3.33,-1.233 0.74,-0.247 1.479,-0.74 1.85,-1.356 0.37,-0.617 1.111,-1.604 2.098,-1.604 0.986,0 1.875,0.247 2.911,-0.74 1.036,-0.986 1.529,-2.59 1.529,-2.59 0,0 0.865,-2.095 1.728,-2.711"
   style="fill:#677821" /><rect
   style="fill:none;stroke:#000000;stroke-width:0.29998;stroke-linejoin:bevel;stroke-dasharray:none;paint-order:stroke fill markers"
   id="rect2"
   height="4390.293"
   x="0.19998971"
   y="0.19998971"
   ry="0.69917101"
   width="4353.8188" /></svg>
