<?xml version="1.0" encoding="UTF-8" standalone="no"?>
<!-- Generator: Adobe Illustrator 22.1.0, SVG Export Plug-In . SVG Version: 6.00 Build 0)  -->

<svg
   version="1.1"
   x="0px"
   y="0px"
   viewBox="0 0 4354.1187 4390.5933"
   enable-background="new 0 0 1995.865 2834.646"
   xml:space="preserve"
   id="svg1596"
   width="4354.1187"
   height="4390.5933"
   xmlns="http://www.w3.org/2000/svg"
   xmlns:svg="http://www.w3.org/2000/svg"><defs
   id="defs1596" />


<path
   id="Roscommon_2_"
   fill="#303B09"
   d="m 1603.9565,2565.6821 c 0,0 -2.508,0.074 -2.931,0 -0.423,-0.072 -4.272,-1.158 -4.767,-1.24 -0.494,-0.082 -0.989,-0.205 -1.801,-0.14 -0.811,0.065 -1.542,0.146 -2.157,0.079 -0.616,-0.066 -1.757,-0.129 -2.405,-0.098 -0.647,0.032 -0.957,-0.053 -1.249,-0.319 -0.292,-0.266 -1.68,-2.185 -2.167,-2.839 -0.486,-0.653 -1.021,-1.326 -1.021,-1.326 0,0 -0.212,-4.025 0,-5.135 0.213,-1.11 1.079,-3.053 -0.095,-3.885 -1.173,-0.833 -1.992,-0.527 -3.3,-1.296 -0.705,-0.413 -1.85,-1.942 -2.035,-2.188 -0.186,-0.246 -0.935,-1.791 -0.935,-1.791 l 0.01,-1.786 c 0,-3.083 0.987,-2.097 1.357,-3.7 0.37,-1.603 1.48,-2.466 -0.494,-3.822 -1.973,-1.357 -1.11,-1.11 -2.713,-2.591 -1.604,-1.479 -1.604,-2.96 -1.233,-3.7 0.37,-0.739 0.37,2.098 1.85,0 1.48,-2.096 2.22,-2.219 -0.247,-3.822 -2.467,-1.604 -0.986,-1.419 -2.713,-3.423 -1.727,-2.005 -4.703,-1.758 -2.968,-3.361 1.735,-1.603 4.04,-0 1.9,-2.344 -2.139,-2.343 -3.142,-3.375 -1.9,-4.216 1.241,-0.84 -0.254,-1.58 0,-2.443 0.255,-0.863 1.611,-0.123 1.118,-1.604 -0.493,-1.479 -1.592,-2.096 -1.659,-3.33 -0.067,-1.233 -1.178,-1.109 -0.808,-2.59 0.37,-1.48 -1.014,-1.851 -0.075,-3.084 0.939,-1.232 0.923,-0.369 1.424,-1.232 0.502,-0.863 -0.238,-1.908 -0.855,-2.373 0,0 -1.326,0.994 -2.251,0.975 -0.925,-0.021 -2.22,0.575 -2.775,0 -0.555,-0.575 -1.202,-1.102 -0.74,-1.948 0.463,-0.847 -0.038,-0.847 -0.158,-1.864 -0.12,-1.018 -0.674,-0.833 -1.785,-1.203 -1.11,-0.37 -1.11,-0.462 -2.035,0 -0.925,0.463 -2.035,1.687 -1.572,-0.312 0.463,-2 1.48,-1.907 0.832,-2.832 -0.647,-0.926 -1.419,-0.74 -0.941,-1.851 0.478,-1.109 -1.65,0.093 -2.019,-0.739 -0.37,-0.833 0.555,-2.498 1.295,-2.961 0.74,-0.462 2.128,0.463 2.868,0 0.74,-0.462 1.44,-2.034 0.951,-2.959 -0.489,-0.926 -0.859,-1.573 -1.784,-1.388 -0.925,0.185 -1.295,1.323 -1.665,-0.032 -0.37,-1.355 -0.092,-1.171 -1.017,-1.541 -0.925,-0.369 -0.647,-0.739 -1.85,-0.832 -1.202,-0.093 -2.22,-1.018 -2.867,-1.48 -0.647,-0.462 -1.388,-1.387 -1.203,-1.85 0.185,-0.463 -0.029,-2.22 -0.029,-2.22 l -1.728,-1.11 c 0,0 -1.018,-0.277 -1.018,-0.555 0,-0.278 1.327,0.463 2.004,0 0.679,-0.463 0.525,-0.925 0,-1.665 -0.525,-0.74 -1.079,-1.018 -2.004,-1.388 -0.925,-0.37 -1.85,-0.647 -3.607,-0.463 -1.758,0.186 -3.515,0.926 -4.44,0.556 -0.925,-0.37 -2.683,-1.573 -3.885,-1.202 -1.203,0.369 -3.237,0.555 -3.792,0.832 -0.555,0.277 -0.555,1.388 -1.757,1.388 -1.203,0 -3.515,0.093 -3.885,0 -0.37,-0.093 -1.243,1.388 -1.917,2.497 -0.674,1.11 -0.79,2.405 -1.102,3.146 -0.312,0.739 -2.81,1.712 -4.012,2.429 -1.203,0.716 -3.978,1.641 -4.811,1.918 -0.832,0.278 -5.457,0.463 -6.289,0.648 -0.833,0.185 -1.48,0.185 -2.683,0.277 -1.203,0.092 -3.145,0.647 -4.07,0.277 -0.925,-0.37 -2.887,-1.572 -2.887,-1.572 l 0.482,-0.463 c 0,0 1.111,-0.37 1.573,-1.11 0.462,-0.739 1.577,-1.779 2.129,-2.971 0.553,-1.191 1.57,-0.541 2.958,-0.635 1.388,-0.095 2.59,-0.095 2.59,-0.095 0,0 1.388,-1.572 2.59,-2.59 1.203,-1.018 2.22,-1.664 2.868,-2.312 0.648,-0.647 0.278,-0.602 0.74,-1.734 0.463,-1.133 0.103,-0.578 1.254,-1.226 1.151,-0.647 0.042,0.278 0.597,-1.479 0.555,-1.758 1.195,-2.59 1.615,-3.7 0.419,-1.11 0.142,-2.312 0.512,-3.423 0.37,-1.109 2.189,-2.433 1.881,-3.158 -0.308,-0.727 -1.61,0.105 -2.392,-1.189 -0.783,-1.295 0.604,-2.76 -0.598,-3.322 -1.203,-0.562 -2.035,-0.192 -3.145,-0.84 -1.11,-0.647 -1.757,-1.018 -1.942,-1.942 -0.185,-0.925 -0.093,-1.017 0.647,-1.665 0.74,-0.647 1.335,-1.691 1.335,-1.691 0,0 -0.532,0 -0.563,-1.885 -0.031,-1.881 -0.718,-1.548 -0.83,-1.947 -0.112,-0.398 -0.672,-0.434 0.09,-1.043 0.762,-0.609 1.17,-0.938 2.003,-0.763 0.833,0.176 1.327,0 1.327,0 0,0 0.654,-0.469 0.494,-1.345 -0.161,-0.877 -0.459,-1.203 -0.74,-2.044 -0.281,-0.841 -0.322,-1.734 0.599,-2.274 0.921,-0.541 0.618,-0.911 2.105,-0.703 1.487,0.208 1.882,0.242 2.28,0.252 0.398,0.01 1.208,0.328 1.898,0.087 0.69,-0.241 1.077,-0.506 1.499,-0.771 0.422,-0.267 -0.159,-1.319 0,-1.874 0.159,-0.556 1.173,-2.907 0.157,-2.888 -1.016,0.02 -1.016,0.667 -2.403,-0.905 -1.387,-1.572 -2.59,-2.035 -3.145,-3.516 -0.556,-1.479 -1.302,-1.202 -1.067,-2.682 0.234,-1.48 0.512,-1.851 0.789,-2.405 0.277,-0.554 1.018,-1.11 0.278,-2.312 -0.74,-1.202 -1.758,-1.202 -1.573,-2.683 0.185,-1.48 -0.185,-2.128 1.11,-2.498 1.295,-0.369 1.758,-0.277 2.867,0.648 1.11,0.925 3.458,1.202 4.088,2.127 0.63,0.926 1.185,1.48 2.388,1.758 1.202,0.277 1.387,1.202 1.665,0.463 0.277,-0.74 0.701,-1.851 0.701,-1.851 1.072,1.665 5.403,1.234 5.403,1.234 1.85,-0.153 2.287,0.339 2.287,0.339 0.622,0.462 1.043,4.902 1.968,5.405 0.925,0.504 1.78,0.036 2.405,0.431 0.625,0.394 1.85,0.546 2.59,0.823 0.74,0.278 1.665,1.573 2.455,1.614 0.79,0.041 0.228,-1.707 0.505,-1.984 0.277,-0.277 1.203,-0.647 2.427,-1.295 1.225,-0.647 1.443,-0.398 1.443,-0.398 0,0 3.253,0.769 3.528,0.81 0.275,0.042 4.811,0.515 6.015,0.431 1.202,-0.084 1.572,-3.154 1.48,-4.079 -0.092,-0.925 -0.74,-1.479 -1.48,-2.096 -0.74,-0.616 -3.423,0.431 -5.181,0 -1.757,-0.431 -2.404,-1.604 -2.867,-1.696 -0.462,-0.093 -1.202,-0.556 -0.647,-1.152 0.555,-0.598 2.22,-0.605 3.792,-0.514 1.573,0.093 1.203,0.093 1.823,-1.018 0.62,-1.11 -0.62,-1.941 -1.268,-3.206 -0.647,-1.264 -0.74,-1.325 0,-2.898 0.74,-1.572 0,0 1.268,0.37 1.268,0.37 1.137,-0.37 2.34,-1.172 1.203,-0.801 2.497,0.895 4.831,0 2.334,-0.894 1.273,-0.31 1.551,-1.315 0.278,-1.007 0.462,-1.121 0.555,-2.596 0.093,-1.474 0,-0.838 0.277,-1.485 0.277,-0.647 0.647,-0.74 0.518,-1.388 -0.13,-0.647 -0.24,-1.388 0,-1.727 0.24,-0.34 0.962,-2.528 0.962,-2.528 0,0 2.22,-0.277 2.646,-0.426 0.426,-0.147 1.609,0.148 2.349,0.964 0.74,0.815 1.11,1.774 1.942,2.515 0.832,0.739 1.018,0.647 1.295,0 0.277,-0.647 0,-1.665 0,-2.515 0,-0.85 0.277,-1.371 0.586,-1.99 0.309,-0.619 0.986,-0.86 1.577,-1.58 0.59,-0.721 0,-1.5 0,-1.5 0,0 -0.128,-1.295 0,-2.59 0.128,-1.295 0.797,-1.203 1.753,-0.926 0.956,0.277 1.911,0.37 2.744,0.093 0.833,-0.277 1.48,-2.405 1.48,-2.405 0,0 1.388,-0.74 1.935,-1.387 0.548,-0.648 0.1,-1.573 0,-2.186 -0.1,-0.611 0.284,-1.793 1.117,-2.995 0.833,-1.202 1.479,-0.647 2.329,-0.37 0.849,0.277 2.204,1.018 3.036,2.407 0.833,1.39 2.405,1.016 3.978,1.478 1.573,0.463 3.33,0.74 4.041,1.943 0.711,1.202 -0.434,2.497 0,3.145 0.434,0.648 -0.249,2.312 0,2.96 0.249,0.648 -0.921,1.85 -0.921,1.85 l -1.011,1.54 c 0,0 -2.695,3.519 -2.728,4.998 -0.033,1.48 -0.46,2.59 0,4.105 0.461,1.516 0.526,2.309 1.094,3.295 0.568,0.986 -0.075,1.973 0,2.836 0.075,0.863 0.665,0.987 0.788,1.691 0.123,0.703 0,0.775 -0.788,1.676 -0.789,0.899 -1.431,-0.283 -2.188,0.58 -0.757,0.863 -0.106,1.85 -0.997,2.27 -0.891,0.419 -1.503,1.465 -1.503,1.465 l 0.645,1.384 0.858,1.419 c 0,0 0.644,0.986 2.091,1.312 1.447,0.325 0.033,0.659 0.033,0.659 0.917,0.976 1.061,4.194 1.061,4.194 0,0 1.405,1.11 2.018,1.373 0.612,0.264 1.36,0.477 2.101,0 0.741,-0.477 1.407,-0.72 1.407,-0.72 0,0 1.307,-2.063 1.614,-2.878 0.307,-0.814 0.6,-0.736 1.449,-0.911 0.85,-0.175 1.315,0.595 1.506,1.295 0.191,0.701 0.468,1.296 1.296,2.247 0.829,0.951 1.062,1.851 1.062,1.851 0,0 0.915,3.918 1.077,4.452 0.162,0.533 0.701,2.047 0.701,2.047 0,0 0.226,1.922 0.247,2.467 0.021,0.544 2.764,1.535 2.764,1.535 0,0 0.412,1.455 1.06,2.611 0.647,1.156 1.696,1.65 1.696,1.65 h 0.646 c 0,0 0.863,1.604 0.863,2.804 0,1.2 0.124,1.637 0.496,2.87 0.372,1.233 0.122,1.48 0.011,2.344 -0.109,0.863 0.604,1.232 0.604,2.22 0,0.988 0.493,1.356 0.493,1.789 0,0.433 1.11,1.162 1.11,1.162 0,0 1.295,0.285 1.85,0.501 0.555,0.217 0.833,1.357 0.806,3.083 -0.027,1.727 -0.929,1.608 -0.929,1.608 0,0 -0.37,1.229 -0.74,1.477 -0.37,0.247 -1.233,0.74 -1.973,1.424 -0.74,0.683 -1.11,1.043 -1.22,2.029 -0.109,0.986 -0.137,1.11 -1.247,1.974 -1.11,0.862 -1.48,-0.124 -1.603,-0.493 -0.124,-0.37 -1.11,-0.617 -1.357,0.616 -0.246,1.233 0.494,2.097 0,3.33 -0.493,1.233 -0.739,1.479 -1.85,1.604 -1.11,0.123 -1.233,0.986 -1.85,1.85 -0.617,0.863 -0.987,0.863 -1.604,1.851 -0.617,0.986 0.123,1.232 0,2.22 -0.123,0.986 -0.123,1.603 -0.617,1.85 -0.493,0.247 -0.88,1.108 -0.88,1.108 -0.819,1.974 -3.437,3.947 -3.807,4.595 -0.37,0.647 -1.202,4.163 -1.018,5.458 0.186,1.295 1.295,6.104 1.665,7.245 0.37,1.14 1.11,3.854 2.683,4.965 1.573,1.11 2.775,4.995 4.255,9.157 1.48,4.162 2.22,6.66 2.277,11.285 0.057,4.625 -1.352,4.348 -1.537,6.475 -0.185,2.128 0.066,3.118 0.066,3.118 -0.285,0.915 1.599,2.218 2.215,3.327 0.617,1.11 0.74,1.604 0.37,2.714 -0.37,1.11 0.124,1.85 1.233,2.59 1.11,0.74 1.357,1.479 1.357,2.22 0,0.741 1.11,2.837 1.233,3.947 0.123,1.109 -0.617,1.85 -1.48,2.466 -0.863,0.616 -1.727,2.714 -1.727,2.714 0,0 -0.493,1.604 -1.529,2.59 -1.036,0.987 -1.924,0.74 -2.911,0.74 -0.986,0 -1.727,0.986 -2.098,1.604 -0.37,0.616 -1.11,1.109 -1.85,1.356 -0.74,0.247 -2.22,0.616 -3.33,1.233 -1.11,0.617 0.123,2.097 0,3.823 -0.124,1.727 -1.727,2.097 -2.097,2.59 -0.37,0.493 -0.863,1.479 -1.328,2.453 -0.464,0.974 -0.029,1.37 0,1.954 z"
   style="fill:#677821" /><rect
   style="fill:none;stroke:#000000;stroke-width:0.29998;stroke-linejoin:bevel;stroke-dasharray:none;paint-order:stroke fill markers"
   id="rect2"
   height="4390.293"
   x="0.19998971"
   y="0.19998971"
   ry="0.69917101"
   width="4353.8188" /></svg>
