<?xml version="1.0" encoding="UTF-8" standalone="no"?>
<!-- Generator: Adobe Illustrator 22.1.0, SVG Export Plug-In . SVG Version: 6.00 Build 0)  -->

<svg
   version="1.1"
   x="0px"
   y="0px"
   viewBox="0 0 4354.1187 4390.5933"
   enable-background="new 0 0 1995.865 2834.646"
   xml:space="preserve"
   id="svg1596"
   width="4354.1187"
   height="4390.5933"
   xmlns="http://www.w3.org/2000/svg"
   xmlns:svg="http://www.w3.org/2000/svg"><defs
   id="defs1596" />


<g
   id="Sligo__x3C_Group_x3E__2_"
   style="fill:#677821"
   transform="translate(1093.6405,660.66109)">
					<path
   fill="#8D9764"
   d="m 437.364,1672.901 c 0.247,0.74 0.986,0.494 1.986,-0.739 1,-1.234 -0.137,-1.233 -0.013,-1.607 0.123,-0.373 -0.617,-0.983 -2.133,-1.477 -1.516,-0.494 -0.334,0.493 -0.087,1.604 0.247,1.109 0.088,0.612 0,1.48 -0.078,0.762 0,0 0.247,0.739 z"
   id="path946"
   style="fill:#677821" />
					<path
   id="Inishmurray_Island_1_"
   fill="#8D9764"
   d="m 426.756,1640.095 c 0.75,0 1.357,0 2.097,0 0.74,0 2.59,-0.616 1.974,-0.863 -0.617,-0.247 -0.863,-0.987 -1.974,-0.864 -1.11,0.124 -2.097,-0.014 -2.097,-0.014 0,0 -2.096,1.741 0,1.741 z"
   style="fill:#677821" />
					<path
   id="Sligo_mainland_2_"
   fill="#8D9764"
   d="m 365.213,1702.623 c 0,-0.555 -0.555,-3.7 0,-4.255 0.555,-0.556 1.48,-1.295 1.11,-1.851 -0.37,-0.555 -0.925,-2.22 -0.184,-2.404 0.74,-0.186 1.109,0.74 0.74,-0.186 -0.37,-0.925 -1.11,-0.369 -1.48,-1.295 -0.37,-0.925 0.185,-1.109 1.295,-1.295 1.11,-0.185 1.11,-0.925 2.22,-0.925 1.11,0 0.74,0 1.295,-2.035 0.555,-2.035 1.664,-4.81 2.405,-5.92 0.74,-1.11 1.48,-1.665 1.48,-2.774 0,-1.11 0,-1.666 0.74,-2.775 0.74,-1.11 0.555,-2.221 0.925,-3.33 0.37,-1.11 -0.185,-1.85 0.925,-2.035 1.11,-0.186 1.479,-0.186 2.59,-0.186 1.11,0 0.925,-0.555 2.405,0.371 1.48,0.925 2.035,-0.556 3.7,-0.186 1.665,0.37 2.96,0.186 4.07,0.37 1.11,0.185 4.81,0.555 6.66,2.59 1.85,2.035 1.11,1.851 2.96,2.775 1.85,0.925 2.405,0.739 3.515,1.479 1.11,0.74 0.925,1.295 3.145,1.665 2.22,0.37 2.775,0.556 3.7,-0.37 0.925,-0.925 2.405,-2.404 2.96,-3.33 0.555,-0.925 1.109,-1.85 2.22,-1.664 1.11,0.185 1.295,1.109 1.48,1.664 0.185,0.556 1.48,0.74 2.405,1.11 0.925,0.37 3.33,0.37 4.255,0 0.925,-0.37 1.11,-1.11 2.775,-1.11 1.665,0 2.59,-0.185 3.33,0.74 0.74,0.925 1.11,2.035 2.035,2.775 0.925,0.74 1.109,1.665 1.109,1.665 0,0 -0.925,1.479 0,1.85 0.925,0.37 0.556,1.665 1.48,1.479 0.925,-0.185 1.48,0.556 1.665,1.48 0.185,0.925 0,1.665 1.11,1.665 1.11,0 1.48,0.556 1.665,1.665 0.185,1.11 0.926,2.22 1.295,1.295 0.37,-0.925 0.185,-1.665 1.295,-1.48 1.11,0.186 7.215,0.556 7.585,0 0.37,-0.555 -0.74,-0.739 -1.48,-1.109 -0.74,-0.37 -1.295,0 -2.035,-0.555 -0.74,-0.556 -0.555,-1.851 -1.295,-1.851 -0.74,0 -3.7,0.556 -3.33,-0.555 0.37,-1.11 -0.185,-2.59 -1.295,-3.146 -1.11,-0.555 -2.22,-2.035 -2.22,-2.035 0,0 -0.185,-1.479 -1.11,-1.295 -0.925,0.186 -2.035,2.405 -2.035,0.926 0,-1.48 0.555,-2.775 1.295,-3.516 0.74,-0.74 -0.185,-2.404 0.555,-2.774 0.74,-0.37 0.74,0.37 1.85,0.555 1.11,0.185 1.85,0.37 2.96,0.74 1.11,0.37 2.405,-0.37 4.44,0 2.035,0.37 3.145,0.185 3.7,-0.185 0.555,-0.371 0.925,-0.926 2.035,-0.371 1.11,0.556 2.405,0.926 2.59,0 0.185,-0.925 -0.185,-1.479 -1.11,-1.85 -0.925,-0.371 -0.925,-0.555 -2.59,-1.665 -1.665,-1.11 -4.07,-1.665 -5.365,-1.85 -1.295,-0.186 -2.59,0.185 -3.33,-0.556 -0.74,-0.739 -0.74,-0.925 -0.555,-2.22 0.185,-1.295 -0.37,-4.255 0.185,-3.885 0.555,0.37 0.37,0.74 1.851,1.665 1.48,0.925 1.48,1.85 3.145,2.035 1.665,0.185 2.96,0.555 3.7,-0.37 0.74,-0.925 0,-2.22 -0.925,-2.59 -0.925,-0.37 -2.96,-0.186 -2.96,-0.186 0,0 -2.22,0 -1.665,-0.555 0.555,-0.556 0.74,-0.74 -0.37,-1.665 -1.11,-0.925 -2.035,-1.11 -3.885,-1.11 -1.85,0 -2.59,1.296 -3.516,1.296 -0.925,0 -1.665,0.555 -2.59,0.555 -0.925,0 -2.035,1.109 -2.035,1.85 0,0.741 1.48,0.186 0,0.74 -1.479,0.555 -2.774,0 -1.85,-0.925 0.924,-0.925 1.11,-1.665 0.74,-2.405 -0.37,-0.74 -1.11,-0.925 -2.221,-1.48 -1.109,-0.555 -1.85,-0.739 -1.295,-1.664 0.555,-0.926 -0.185,-1.666 0.555,-2.221 0.74,-0.555 -0.925,-0.555 0.74,-0.555 1.665,0 2.405,-1.295 3.33,-0.925 0.925,0.37 1.295,0.739 2.22,0.185 0.925,-0.555 -0.555,-0.74 1.11,-1.85 1.665,-1.11 3.33,-1.851 4.625,-2.775 1.295,-0.925 0.74,0.555 1.295,-0.925 0.555,-1.479 0.37,-2.405 0.555,-3.146 0.185,-0.739 0.37,-0.369 1.665,-0.369 1.295,0 2.775,-0.926 2.775,-0.926 0,0 1.295,-2.774 2.035,-2.774 0.74,0 0.37,-0.925 0.74,0 0.37,0.925 0.37,0.925 0.37,0.925 0,0 -0.185,1.109 -1.665,1.48 -1.48,0.369 -1.665,1.85 -2.59,2.034 -0.925,0.186 -2.22,0.37 -2.22,0.37 0,0 -0.555,1.48 0.925,1.295 1.48,-0.185 0,1.295 1.85,-0.369 1.85,-1.666 2.035,-3.146 5.365,-3.701 0,0 1.11,-0.369 1.48,-1.664 0.37,-1.295 1.665,-2.221 1.85,-2.961 0.185,-0.739 0.555,-2.774 0.555,-2.774 l -1.48,-1.295 0.556,-1.479 1.109,-1.296 1.295,-1.295 1.48,0.186 c 0.462,-0.186 0.462,2.405 0.462,2.405 0,0 -0.37,1.295 0.647,1.202 1.018,-0.093 1.85,-0.186 2.127,-0.278 0.277,-0.092 0.925,-0.277 1.665,-0.555 0.74,-0.277 1.295,-1.387 2.035,-1.572 l 1.543,-0.194 c 0,0 0.585,1.675 0.677,1.952 0.093,0.277 0.833,0.497 0.555,1.404 -0.278,0.908 -0.43,1.186 -1.232,1.926 -0.802,0.74 -0.062,1.387 -0.433,2.312 -0.37,0.925 -0.74,1.995 -1.387,1.691 -0.648,-0.305 -1.158,-0.119 -1.227,0.898 -0.068,1.018 -0.068,1.85 0.764,2.497 0.833,0.647 0.658,1.295 1.393,0.556 0.735,-0.74 0.49,-1.48 0.89,-1.573 0.4,-0.093 0.585,0.186 0.77,0.925 0.185,0.74 -0.616,0.382 0.524,0.978 1.141,0.596 1.419,0.503 2.436,0.78 1.018,0.277 1.942,0.164 1.85,0.868 -0.092,0.704 -0.277,0.612 -0.74,1.722 -0.462,1.11 -0.555,0.648 -0.647,2.035 -0.092,1.388 -0.462,1.018 -1.018,2.867 -0.555,1.851 0.092,2.312 -1.48,2.684 -1.572,0.369 -3.053,-0.463 -2.867,0.832 0.185,1.295 1.05,1.758 1.172,2.96 0.122,1.202 0.77,0.716 0.493,2.531 -0.278,1.816 -0.833,2.556 0.184,3.389 1.018,0.833 2.036,0.925 3.053,1.851 1.018,0.924 1.493,2.139 1.856,3.012 0.363,0.873 0.826,2.188 0.733,3.288 -0.093,1.1 0.373,7.853 0.373,7.853 0,0 0.367,0.646 0.459,0.925 0.092,0.277 0.185,0.927 0,1.943 -0.185,1.017 -0.37,1.479 -0.277,2.403 0.092,0.926 -0.092,1.851 -0.37,2.312 -0.278,0.463 0.092,1.389 0.185,2.498 0.093,1.11 -0.156,1.295 0.569,2.312 0.726,1.018 0.676,1.572 1.302,1.942 0.626,0.37 1.182,0.159 0.811,1.097 -0.37,0.938 -1.16,0.661 -0.811,1.863 0.349,1.203 -0.061,1.203 0.931,1.758 0.991,0.555 1.73,-0.617 2.378,0.801 0.647,1.419 0.271,1.512 1.523,2.066 1.252,0.555 2.084,0.679 3.009,1.08 0.925,0.4 1.11,-1.54 2.59,-1.541 1.479,0 3.123,0.77 3.828,1.541 0.704,0.77 -0.22,1.695 1.167,2.25 1.387,0.555 2.127,0.463 2.682,1.203 0.555,0.739 0.784,1.387 1.456,2.682 0.672,1.295 2.602,2.976 2.607,2.926 v 0.439 c 0.1,0.612 0.548,1.537 0,2.186 -0.548,0.646 -1.935,1.387 -1.935,1.387 0,0 -0.647,2.128 -1.48,2.405 -0.832,0.277 -1.788,0.185 -2.744,-0.093 -0.956,-0.277 -1.625,-0.369 -1.753,0.926 -0.128,1.295 0,2.59 0,2.59 0,0 0.59,0.779 0,1.5 -0.591,0.72 -1.269,0.961 -1.577,1.58 -0.308,0.619 -0.586,1.141 -0.586,1.99 0,0.849 0.277,1.867 0,2.515 -0.278,0.647 -0.463,0.739 -1.295,0 -0.833,-0.74 -1.203,-1.699 -1.942,-2.515 -0.74,-0.815 -1.923,-1.111 -2.349,-0.964 -0.426,0.148 -2.646,0.426 -2.646,0.426 0,0 -0.722,2.188 -0.962,2.528 -0.24,0.339 -0.13,1.079 0,1.727 0.13,0.647 -0.24,0.74 -0.518,1.388 -0.277,0.647 -0.185,0.012 -0.277,1.485 -0.093,1.475 -0.277,1.589 -0.555,2.596 -0.278,1.006 0.783,0.422 -1.551,1.315 -2.334,0.894 -3.628,-0.802 -4.831,-10e-4 -1.203,0.802 -1.072,1.542 -2.34,1.172 -1.268,-0.37 -0.528,-1.942 -1.268,-0.37 -0.74,1.573 -0.647,1.635 0,2.898 0.647,1.265 1.888,2.096 1.268,3.206 -0.62,1.11 -0.25,1.11 -1.823,1.018 -1.573,-0.092 -3.238,-0.084 -3.792,0.514 -0.555,0.597 0.185,1.06 0.647,1.152 0.463,0.092 1.11,1.266 2.867,1.696 1.758,0.431 4.44,-0.616 5.181,0 0.74,0.616 1.387,1.171 1.48,2.096 0.093,0.925 -0.277,3.995 -1.48,4.079 -1.203,0.084 -5.74,-0.389 -6.015,-0.431 -0.275,-0.041 -3.528,-0.81 -3.528,-0.81 0,0 -0.219,-0.249 -1.443,0.398 -1.224,0.647 -2.15,1.018 -2.427,1.295 -0.277,0.277 0.285,2.025 -0.505,1.984 -0.79,-0.041 -1.715,-1.336 -2.455,-1.614 -0.74,-0.277 -1.965,-0.43 -2.59,-0.823 -0.625,-0.395 -1.48,0.073 -2.405,-0.431 -0.925,-0.503 -1.346,-4.943 -1.968,-5.405 0,0 -0.437,-0.492 -2.287,-0.339 0,0 -4.331,0.431 -5.403,-1.234 0,0 -0.609,-1.094 -0.887,-1.61 -0.277,-0.518 0,-1.257 0,-2.367 0,-1.109 -0.616,-1.479 -0.123,-2.96 0.493,-1.479 0.694,-2.22 1.01,-3.145 0.316,-0.925 0.979,-1.444 0,-2.11 -0.979,-0.665 -2.552,-0.572 -3.477,-1.59 -0.925,-1.018 -1.665,-1.661 -3.053,-2.542 -1.387,-0.881 -0.925,-1.806 -2.035,-1.251 -1.11,0.556 -2.59,0.467 -2.96,1.251 -0.37,0.784 -1.21,0.137 -0.789,1.802 0.419,1.665 0.32,1.979 0,2.33 -0.32,0.353 -0.876,0.432 -1.801,1.133 -0.925,0.699 -1.109,0.422 -1.572,1.81 -0.462,1.388 -0.277,1.388 -0.925,2.22 -0.647,0.833 -0.74,1.521 -1.388,0.483 -0.647,-1.038 -1.665,-1.748 -2.22,-1.162 -0.555,0.587 -0.925,0.631 -1.388,1.487 -0.462,0.857 0.74,1.412 -0.462,2.152 -1.203,0.739 -1.665,0.035 -2.961,1.128 -1.295,1.092 -2.495,1.924 -2.495,1.924 -1.39,0.186 -4.904,0.833 -5.46,0.647 -0.555,-0.185 -2.704,-1.813 -3.156,-2.571 -0.452,-0.759 -0.482,-2.935 -0.421,-3.28 0.061,-0.346 0.432,-0.213 -0.771,-0.325 -1.203,-0.113 -2.127,-0.546 -2.22,-1.162 -0.092,-0.616 -0.277,-1.726 0,-2.28 0.278,-0.556 0.529,-1.255 0.635,-1.969 0.105,-0.715 -0.17,-1.084 -1.096,-1.177 -0.926,-0.093 -0.463,-0.463 -1.666,0.185 -1.203,0.648 -2.417,1.203 -3.845,1.203 -1.428,0 -3.263,-1.11 -3.409,-1.388 -0.147,-0.277 0.035,-2.497 -1.351,-2.128 -1.386,0.37 -2.403,0.37 -4.068,0.463 -1.665,0.093 -2.867,1.018 -3.237,-0.647 -0.37,-1.665 -0.185,-2.405 0,-3.792 0.185,-1.389 1.373,-1.943 1.797,-2.868 0.423,-0.925 1.256,-2.411 1.996,-2.87 0.74,-0.46 0.74,-0.582 2.035,-1.724 1.295,-1.142 0.829,-1.233 1.478,-2.437 0.649,-1.202 0.387,-1.295 1.351,-2.404 0.964,-1.11 1.148,-1.758 2.166,-2.59 1.018,-0.833 2.59,-1.388 2.683,-2.312 0.093,-0.926 -0.925,-1.295 -2.312,-2.451 -1.388,-1.156 -3.13,-0.602 -2.536,-1.805 0.594,-1.202 0.594,-1.664 -0.424,-2.035 -1.018,-0.369 -2.96,-1.726 -4.625,-1.787 -1.665,-0.062 -2.775,0.123 -3.237,-0.525 -0.463,-0.646 -0.925,-1.341 -1.48,-0.901 -0.555,0.439 -0.185,1.88 -1.109,1.391 -0.925,-0.489 -1.203,-2.292 -1.85,-1.391 -0.647,0.901 -0.277,0.406 -0.925,1.995 -0.647,1.59 0.37,1.497 -1.388,1.219 -1.757,-0.277 -2.405,-0.555 -2.775,0 -0.37,0.556 -0.648,1.666 -1.573,1.11 -0.925,-0.555 -0.833,-1.328 -1.295,-2.329 -0.462,-1.001 -0.462,-2.064 -1.572,-1.995 -1.11,0.069 -1.424,-0.671 -1.424,-0.671 l -0.745,-1.049 z"
   style="fill:#677821" />
				</g><rect
   style="fill:none;stroke:#000000;stroke-width:0.29998;stroke-linejoin:bevel;stroke-dasharray:none;paint-order:stroke fill markers"
   id="rect2"
   height="4390.293"
   x="0.19998971"
   y="0.19998971"
   ry="0.69917101"
   width="4353.8188" /></svg>
