<?xml version="1.0" encoding="UTF-8" standalone="no"?>
<!-- Generator: Adobe Illustrator 22.1.0, SVG Export Plug-In . SVG Version: 6.00 Build 0)  -->

<svg
   version="1.1"
   x="0px"
   y="0px"
   viewBox="0 0 4354.1187 4390.5933"
   enable-background="new 0 0 1995.865 2834.646"
   xml:space="preserve"
   id="svg1596"
   width="4354.1187"
   height="4390.5933"
   xmlns="http://www.w3.org/2000/svg"
   xmlns:svg="http://www.w3.org/2000/svg"><defs
   id="defs1596" />


<path
   id="Tipperary_2_"
   fill="#6C833C"
   d="m 1695.7765,2772.7511 c 0,0 -0.684,-1.303 -1.383,-1.847 -0.699,-0.543 -1.698,-0.839 -1.845,-1.517 -0.147,-0.678 -0.322,-1.16 0,-2.169 0.322,-1.009 0.592,-0.974 0.761,-1.868 0.169,-0.895 0.108,-3.021 0.179,-3.943 0.071,-0.922 -0.061,-1.969 0.583,-2.639 0.644,-0.67 1.476,-0.781 1.475,-1.288 -0,-0.507 -0.321,-0.566 -2.273,-2.219 -1.952,-1.652 -2.378,-1.967 -2.378,-1.967 l -0.979,-1.788 c 0,0 -1.85,-3.053 -2.127,-3.33 -0.278,-0.277 -2.682,-1.85 -3.052,-1.942 -0.37,-0.093 -0.925,-0.556 -0.463,-1.573 0.463,-1.017 2.405,-2.959 2.59,-3.422 0.185,-0.463 1.295,-1.665 1.665,-2.498 0.37,-0.832 0.277,-3.33 -0.74,-3.699 -1.018,-0.37 -2.405,-0.186 -2.868,-1.388 -0.462,-1.202 -0.37,-5.272 -0.092,-6.845 0.278,-1.573 0.555,-3.516 0.092,-4.718 -0.462,-1.202 -2.405,-2.775 -2.683,-3.607 -0.277,-0.833 -0.925,-2.893 -0.74,-3.527 0.185,-0.636 1.203,-1.838 0.833,-2.671 -0.37,-0.832 -3.053,-3.699 -3.422,-4.162 -0.37,-0.463 -2.035,-3.959 -2.312,-4.199 -0.278,-0.24 -0.339,-1.628 -0.678,-2.553 -0.339,-0.926 -3.299,-5.735 -3.299,-5.735 0,0 -4.81,-5.122 -5.92,-5.382 -1.109,-0.261 -3.33,-1.833 -4.069,-2.48 -0.74,-0.647 -1.665,-1.543 -2.312,-1.512 -0.648,0.031 -2.312,-1.911 -2.775,-2.559 -0.462,-0.647 -1.48,-3.515 -1.572,-5.272 -0.093,-1.758 -2.22,-7.492 -2.497,-8.51 -0.278,-1.018 -1.388,-4.625 -2.59,-5.827 -1.202,-1.203 -3.145,-2.591 -3.33,-3.886 -0.185,-1.295 0.833,-2.405 1.018,-3.423 0.186,-1.017 -2.497,-1.941 -1.018,-3.515 1.48,-1.572 2.498,-2.127 2.96,-3.423 0.463,-1.295 1.665,-1.663 3.238,-2.404 1.573,-0.74 3.33,-1.388 3.145,-2.867 -0.185,-1.48 -1.202,-2.312 -1.202,-2.312 0,0 -2.59,0.092 -3.793,-0.926 -1.202,-1.018 -3.052,-1.886 -3.422,-2.377 -0.37,-0.49 -0.185,-1.785 -2.682,-2.896 -2.498,-1.109 -3.238,-1.597 -3.608,-2.001 -0.37,-0.404 -1.85,-1.051 -2.59,-1.514 -0.74,-0.463 -1.85,0 -2.683,0 -0.833,0 -3.521,1.766 -4.166,2.316 -0.645,0.551 -1.422,1.568 -2.004,2.031 -0.583,0.462 0.12,2.312 0,3.145 -0.12,0.833 1.083,1.572 0.435,1.942 -0.648,0.37 -0.969,0.925 -0.669,1.711 0.299,0.787 0.955,0.324 -0.113,1.619 -1.068,1.295 -2.363,0.925 -3.195,1.851 -0.833,0.925 1.018,1.479 0,2.404 -1.018,0.926 -2.744,2.047 -3.083,1.532 -0.34,-0.515 -0.34,-0.329 -1.08,1.243 -0.74,1.572 -1.295,2.405 -2.312,1.85 0,0 -1.003,-1.079 -1.087,-2.065 -0.084,-0.986 -0.332,-2.591 -1.565,-2.344 -1.233,0.247 0,2.344 0,2.344 0,0 0.99,1.604 0.742,2.467 -0.249,0.863 -0.495,1.603 -0.742,2.713 -0.246,1.11 -0.863,2.465 -1.85,2.897 -0.987,0.433 -1.604,1.05 -2.467,-0.554 -0.863,-1.604 -2.22,-0.986 -1.974,-2.59 0.247,-1.604 0.805,-1.851 -0.029,-2.837 -0.834,-0.987 -2.067,-2.178 -3.424,-3.124 -1.357,-0.946 -1.604,-1.439 -2.22,-2.919 -0.617,-1.48 -1.716,-2.667 -1.233,-4.487 0.482,-1.819 -0.461,-2.79 0.694,-3.16 1.155,-0.37 2.018,0.37 2.759,0.617 0.74,0.246 1.846,2.22 2.342,1.974 0.495,-0.247 0.931,-1.604 2.008,-2.591 1.077,-0.986 1.817,-1.973 1.447,-3.083 -0.37,-1.109 -0.675,-3.947 -1.447,-4.687 -0.772,-0.74 -2.504,-1.604 -2.008,-2.898 0.495,-1.295 0.067,-2.035 2.008,-1.788 1.94,0.246 4.407,0.37 4.9,0.493 0.493,0.123 0.616,-1.37 -0.123,-2.104 -0.74,-0.733 -1.481,-1.473 -1.233,-3.446 0.247,-1.974 1.85,-3.084 1.85,-4.07 0,-0.986 -0.765,-2.016 0,-2.097 0,0 0.691,0.195 0.742,0 0.05,-0.195 0.435,-0.95 0.705,-1.235 0.27,-0.285 0.89,-0.984 0.89,-0.984 0.856,-1.109 0.01,-2.343 0,-4.447 -0.01,-2.104 0.871,-1.596 0.871,-3.18 0,-1.585 -0.37,-0.76 -0.871,-1.467 -1.257,-0.279 0.13,-1.266 0.01,-2.376 -0.124,-1.11 -1.357,-1.85 -1.727,-2.96 -0.37,-1.109 -2.097,-1.727 -3.207,-2.467 -1.11,-0.74 -2.097,-0.986 -4.508,-1.233 -2.411,-0.247 -1.905,-0.739 -4.125,-1.727 -2.22,-0.987 -2.22,-1.356 -3.947,-3.21 -1.727,-1.854 -0.74,-0.366 -1.604,-0.859 -0.863,-0.494 -1.357,-2.222 -1.357,-2.222 -1.356,0.987 -1.973,0.74 -3.7,1.974 -1.727,1.234 -2.097,1.11 -3.083,2.221 -0.986,1.109 -2.22,3.083 -2.96,4.069 -0.74,0.987 -1.603,2.837 -1.85,4.316 -0.246,1.48 -0.987,1.728 -1.48,2.22 -0.493,0.494 -1.357,2.467 -1.604,2.961 -0.247,0.493 -2.415,3.225 -2.415,3.225 0,0 -0.052,0.414 -0.236,1.432 -0.185,1.017 -1.942,1.479 -3.145,1.757 -1.203,0.278 -2.868,1.11 -3.515,1.388 -0.647,0.277 -0.647,0.647 -0.833,2.127 -0.185,1.48 0.37,3.096 -0.462,4.508 -0.832,1.412 -1.833,1.69 -2.721,2.8 -0.887,1.11 -1.893,2.96 -2.223,3.886 -0.329,0.925 -1.994,2.497 -1.994,2.497 0,0 1.202,2.312 1.758,2.59 0.555,0.277 2.59,1.018 2.59,1.606 0,0.588 -0.925,3.574 -0.925,3.574 0,0 -3.33,5.087 -3.7,6.058 -0.37,0.972 -2.035,2.637 -2.498,2.637 -0.462,0 -7.77,-0.093 -7.955,0.556 -0.185,0.646 -2.035,7.677 -2.775,8.972 -0.74,1.296 -3.978,4.255 -3.885,8.511 0.092,4.255 1.855,6.622 1.855,6.622 l 0.037,3.83 -1.329,1.776 -3.271,3.34 -0.715,3.579 1.665,7.77 1.295,4.033 c 0,0 2.035,1.702 4.132,2.072 2.097,0.37 2.158,-0.925 2.899,-1.851 0.74,-0.925 2.035,1.295 2.124,1.974 0.089,0.678 2.871,0.247 5.531,-0.123 2.66,-0.37 2.89,-1.851 2.89,-1.851 0,0 3.515,0 4.494,0 0.98,0 2.223,1.851 2.223,1.851 l 2.718,1.665 c 0,0 1.048,2.281 1.233,2.652 0.185,0.369 2.146,0.341 2.146,0.341 1.16,-1.694 2.176,-1.423 3.028,-1.237 0.852,0.186 1.856,-0.215 1.856,-0.215 l 0.833,0.863 -0.585,2.461 c 0,0 -0.741,2.72 -1.851,4.14 -1.11,1.421 -1.48,2.465 -1.48,3.575 0,1.109 0.37,4.81 -1.233,6.475 -1.604,1.665 -0.617,3.7 -0.802,4.81 -0.186,1.11 -0.781,2.339 -0.89,2.528 -0.108,0.19 0.016,0.813 0.133,1.354 0.118,0.54 0.859,0.557 0.859,0.557 0,0 0.452,4.626 0.699,5.551 0.247,0.925 -3.577,2.775 -3.577,2.775 l -1.48,-1.11 -1.93,-0.925 -1.656,2.691 c 0,0 -3.074,0.083 -3.567,0.514 -0.493,0.43 0.308,1.42 0.86,2.715 0.552,1.295 -1.847,2.405 -2.587,2.59 -0.74,0.185 -0.74,-3.515 -1.039,-4.44 -0.299,-0.925 -1.365,-1.85 -2.291,-1.109 -0.925,0.74 -1.295,1.665 -1.85,2.22 -0.555,0.556 -1.665,0.925 -2.685,1.295 -1.02,0.37 0.096,2.96 0,3.516 -0.096,0.555 -1.569,3.145 -2.002,4.439 -0.433,1.295 1.543,2.405 2.002,3.33 0.459,0.925 2.871,-0.925 2.871,-0.925 0,0 2.22,0.74 2.661,1.109 0.44,0.371 4.062,1.296 4.062,1.296 l 1.973,2.774 c 0,0 2.775,1.789 4.132,2.899 1.356,1.11 1.371,0.9 1.371,0.9 l 1.362,-0.148 2.356,-0.353 1.016,1.08 v 0.492 c 0,0 0.493,3.639 1.418,5.489 0.925,1.85 2.22,1.11 2.22,1.11 l 4.008,0.185 c 0,0 0.247,1.048 0.54,1.788 0.293,0.74 0.015,2.344 -0.04,2.652 -0.055,0.308 -1.864,3.54 -2.35,4.686 -0.485,1.146 0.208,1.586 0.208,1.586 0.64,0.414 1.133,0.968 1.395,1.375 0.263,0.407 0.65,1.459 0.769,2.651 0.118,1.192 -0.372,2.567 -0.556,2.8 -0.184,0.232 -1.777,1.045 -1.777,1.045 0,0 2.238,1.117 2.333,1.627 0.095,0.51 -0.712,2.483 0,4.457 0.712,1.973 0.342,4.223 2.068,4.517 1.727,0.293 4.668,0.17 5.479,0.663 0.811,0.493 1.058,5.3 1.058,5.3 v 1.054 c 0,0 0.979,-0.132 1.973,0 0.993,0.132 3.458,-0.449 4.254,-0.565 0.796,-0.116 2.024,-0.025 3.263,0.292 1.239,0.318 2.945,1.313 3.885,0.816 0.939,-0.498 1.792,-0.793 1.366,-2.118 -0.426,-1.325 -0.728,-2.307 -0.634,-3.036 0.093,-0.73 0.432,-1.342 0.747,-2.405 0.316,-1.063 0.687,-1.435 1.549,-1.311 0.863,0.124 1.604,0.864 2.22,0.493 0.616,-0.369 1.356,-0.539 2.713,-0.516 1.357,0.022 1.603,1.996 2.528,2.489 0.925,0.493 3.516,1.851 3.516,1.851 0,0 3.681,-0.74 4.615,-0.617 0.935,0.123 3.154,-0.515 4.388,0.791 1.234,1.306 2.097,2.415 3.453,2.169 1.357,-0.247 3.083,-0 4.07,-0.617 0.986,-0.616 3.207,-0.369 3.947,-0.616 0.74,-0.246 -0.124,-3.176 0,-4.116 0.123,-0.94 1.223,-1.85 0.303,-3.307 -0.92,-1.457 -3.129,-3.779 -3.129,-3.779 0,0 -1.107,0.115 -1.783,-0.538 -0.676,-0.653 -1.099,-1.35 -1.099,-1.35 0,0 0.013,-0.213 0.157,-0.656 0.272,-0.835 0.123,-1.301 -0.863,-2.41 -0.986,-1.11 -0.616,-1.728 -0.493,-2.467 0.123,-0.74 0.493,-1.974 0.493,-2.344 0,-0.37 0.123,-2.96 0.617,-3.576 0.493,-0.617 0,-2.097 0,-2.714 0,-0.616 1.48,-0.616 3.7,-0.123 2.22,0.493 1.604,0.123 3.577,-0.863 1.974,-0.986 2.343,-0.863 4.563,-1.233 2.22,-0.37 2.59,-0.74 4.069,-1.233 1.48,-0.493 1.851,-0.123 3.207,-0.247 1.356,-0.123 1.48,-0.123 3.7,-0.383 2.22,-0.259 2.59,-0.727 3.946,0 1.356,0.729 1.233,0.383 2.59,0.243 1.357,-0.14 1.481,-0.477 3.33,0.017 1.851,0.493 2.22,-0.123 3.577,0 1.356,0.123 3.576,1.604 4.316,2.451 0.74,0.847 2.713,0.139 4.687,0.016 1.974,-0.123 4.317,0.493 5.427,0.74 1.109,0.244 2.712,-0.25 5.425,0 z"
   style="fill:#677821" /><rect
   style="fill:none;stroke:#000000;stroke-width:0.29998;stroke-linejoin:bevel;stroke-dasharray:none;paint-order:stroke fill markers"
   id="rect2"
   height="4390.293"
   x="0.19998971"
   y="0.19998971"
   ry="0.69917101"
   width="4353.8188" /></svg>
