<?xml version="1.0" encoding="UTF-8" standalone="no"?>
<!-- Generator: Adobe Illustrator 22.1.0, SVG Export Plug-In . SVG Version: 6.00 Build 0)  -->

<svg
   version="1.1"
   x="0px"
   y="0px"
   viewBox="0 0 4354.1187 4390.5933"
   enable-background="new 0 0 1995.865 2834.646"
   xml:space="preserve"
   id="svg1596"
   width="4354.1187"
   height="4390.5933"
   xmlns="http://www.w3.org/2000/svg"
   xmlns:svg="http://www.w3.org/2000/svg"><defs
   id="defs1596" />


<path
   id="Waterford_2_"
   fill="#303B09"
   d="m 1744.8635,2788.9701 c 0,0 -0.74,-0.679 -1.48,0 -0.74,0.678 -0.739,0.432 -1.356,1.911 -0.422,1.014 -0.501,1.601 -1.663,1.946 -0.848,0.253 -1.778,0.18 -2.65,0.211 -0.901,0.031 -1.69,0.239 -2.595,0.186 -2.095,-0.123 -0.986,-0.493 -2.589,-1.232 -1.602,-0.74 -1.479,-0.494 -2.96,-1.604 -1.479,-1.11 -0.863,-1.851 -2.466,-2.344 -1.603,-0.493 -2.466,-0.986 -3.577,0 -1.11,0.987 -2.22,3.084 -2.837,3.947 -0.616,0.863 -1.11,2.467 -2.097,2.96 -0.986,0.493 -1.356,1.727 -2.343,0.616 -0.987,-1.11 -1.727,-1.356 -1.727,-2.22 0,-0.864 0.371,-0.74 -1.357,-1.356 -1.727,-0.617 -2.836,-0.987 -3.206,-2.344 -0.37,-1.356 -0.493,-1.84 -0.863,-2.77 -0.37,-0.931 -1.727,-3.891 -1.727,-3.891 0,0 -1.973,0.246 -1.973,-0.74 0,-0.986 0.493,-2.343 -0.493,-3.206 -0.987,-0.863 -0.864,-1.604 -2.59,-2.59 -1.727,-0.987 -2.713,0.123 -3.577,-1.48 -0.864,-1.603 -0.247,-1.973 -2.96,-2.22 -2.713,-0.247 -4.316,0.247 -5.427,0 -1.11,-0.247 -3.453,-0.863 -5.427,-0.74 -1.974,0.123 -3.946,0.831 -4.687,-0.016 -0.74,-0.848 -2.96,-2.328 -4.316,-2.451 -1.357,-0.123 -1.727,0.493 -3.577,0 -1.85,-0.493 -1.973,-0.156 -3.33,-0.017 -1.356,0.14 -1.233,0.485 -2.59,-0.243 -1.357,-0.727 -1.727,-0.259 -3.946,0 -2.22,0.26 -2.344,0.26 -3.7,0.383 -1.356,0.124 -1.727,-0.246 -3.207,0.247 -1.479,0.493 -1.85,0.863 -4.069,1.233 -2.221,0.37 -2.59,0.247 -4.563,1.233 -1.974,0.986 -1.357,1.356 -3.577,0.863 -2.22,-0.493 -3.7,-0.493 -3.7,0.123 0,0.617 0.493,2.097 0,2.714 -0.494,0.616 -0.617,3.206 -0.617,3.576 0,0.37 -0.37,1.604 -0.493,2.344 -0.123,0.739 -0.493,1.356 0.493,2.467 0.986,1.109 1.136,1.575 0.863,2.41 -0.145,0.443 -0.157,0.656 -0.157,0.656 0,0 0.423,0.696 1.099,1.35 0.675,0.653 1.783,0.538 1.783,0.538 0,0 2.21,2.322 3.129,3.779 0.92,1.457 -0.18,2.366 -0.303,3.307 -0.124,0.94 0.74,3.87 0,4.116 -0.74,0.247 -2.961,0 -3.947,0.616 -0.987,0.616 -2.713,0.37 -4.07,0.617 -1.356,0.246 -2.22,-0.863 -3.453,-2.169 -1.233,-1.306 -3.453,-0.668 -4.388,-0.791 -0.935,-0.123 -4.615,0.617 -4.615,0.617 0,0 -2.59,-1.357 -3.516,-1.851 -0.925,-0.493 -1.171,-2.467 -2.528,-2.489 -1.356,-0.023 -2.097,0.146 -2.713,0.516 -0.617,0.371 -1.357,-0.369 -2.22,-0.493 -0.863,-0.124 -1.233,0.247 -1.549,1.311 -0.315,1.063 -0.654,1.675 -0.747,2.405 -0.093,0.729 0.208,1.711 0.634,3.036 0.426,1.325 -0.426,1.62 -1.366,2.118 -0.939,0.497 -2.646,-0.498 -3.885,-0.816 -1.239,-0.317 -2.467,-0.408 -3.263,-0.292 -0.796,0.116 -3.261,0.697 -4.254,0.565 -0.993,-0.132 -1.973,0 -1.973,0 l -1.726,0.143 h -1.47 c 0,0 0.05,0.719 -0.011,1.521 -0.061,0.802 -0.987,4.378 -1.603,5.611 -0.616,1.233 -2.898,1.728 -2.898,1.728 0,0 -0.432,1.541 -0.432,2.404 0,0.863 0.247,1.851 0.247,1.851 l 0.059,1.593 c 0,0 2.289,0.15 7.59,-2.016 0,0 0.493,0.957 0.737,1.011 0.243,0.053 2.147,0 2.147,0 l 1.249,-0.386 c 0,0 1.105,0.957 1.105,1.396 0,0.439 -0.432,2.29 -0.432,2.29 h -1.171 l -1.171,-2.035 c 0,0 -0.802,-0.616 -0.617,0.309 0.185,0.925 1.233,2.528 1.727,2.897 0.494,0.37 2.898,0.987 2.898,0.987 0,0 0.925,0.247 1.295,0.555 0.37,0.309 1.048,1.172 1.048,1.172 0,0 1.048,2.344 1.233,3.146 0.185,0.801 1.295,4.478 1.295,4.478 0,0 -0.493,2.429 -0.37,3.23 0.124,0.802 3.146,4.316 3.639,4.748 0.493,0.432 2.035,0.74 2.405,0.679 0.37,-0.062 1.418,-0.107 1.541,0.01 0.124,0.115 -0.37,2.582 0,3.014 0.37,0.432 4.132,1.604 4.193,1.912 0.062,0.308 0.74,5.241 0.74,5.673 0,0.432 0.493,1.425 1.048,1.884 0.555,0.46 3.33,0.398 3.33,0.398 l 4.369,-0.398 c 0.411,-0.676 1.684,-0.203 2.208,0.051 2.109,1.025 2.615,3.394 1.316,5.342 -0.74,1.11 -0.185,2.59 1.11,2.96 1.295,0.37 1.85,0 2.96,-0.925 1.109,-0.925 1.479,-0.74 3.144,-1.295 1.665,-0.555 1.665,0.74 2.96,1.295 1.295,0.555 1.85,0.925 3.515,0.925 1.665,0 1.665,0 2.405,-1.109 0.74,-1.11 -0.185,-0.925 -1.109,-1.295 -0.925,-0.37 0,-1.48 1.109,-2.775 1.11,-1.295 1.665,-1.85 2.405,-2.755 0.74,-0.904 4.81,-0.205 6.475,-0.02 1.664,0.185 3.885,-0.926 4.995,-1.666 1.11,-0.739 2.59,-1.109 3.516,-2.22 0.925,-1.11 0.37,-3.33 0.37,-4.439 0,-1.11 0.185,-1.665 0.74,-2.405 0.555,-0.74 0.925,-2.59 2.22,-3.33 1.295,-0.74 3.515,-1.665 3.515,-2.322 0,-0.658 -2.59,-0.083 -2.59,-0.083 0,0 -4.07,0.186 -4.995,0 -0.925,-0.185 -1.11,-1.109 -1.481,-1.85 -0.439,-0.879 -0.518,-1.937 -0.542,-2.902 -0.011,-0.458 0.186,-1.79 -0.685,-1.194 -0.381,0.26 -0.247,1.882 -0.25,2.246 -0.014,1.229 0.014,1.242 -1.112,1.296 -0.776,0.037 -1.525,0.252 -2.204,0.075 -0.023,-0.564 0.517,-0.955 0.748,-1.463 0.275,-0.604 0.342,-1.197 0.232,-1.832 -0.094,-0.539 -0.499,-0.898 0.044,-1.383 0.459,-0.409 1.173,0 1.628,-0.416 -0.174,-0.381 -0.303,-0.824 0.106,-1.096 0.474,0.47 0.422,0.764 1.087,0.726 0.357,-0.021 2.613,-1.258 2.613,-1.642 0,0 0,-1.112 0,-2.035 0,-0.925 0.925,0.555 0.925,1.295 0,0.74 0.74,1.295 1.295,1.665 0.555,0.37 0.74,1.851 1.295,2.405 0.555,0.555 1.109,0.37 1.85,0 0.74,-0.37 0.37,-2.221 1.295,-3.33 0.925,-1.11 2.035,-1.11 2.59,-1.665 0.556,-0.556 1.665,0 3.516,0 1.85,0 0.555,-0.925 1.109,-0.925 0.556,0 1.11,-1.851 1.11,-1.851 h 1.48 c 0,0 0.74,-1.479 1.295,-1.988 0.555,-0.509 2.405,0 2.405,0 0,0 2.59,-1.342 5.92,-1.342 3.33,0 2.59,-1.295 3.516,-1.665 0.925,-0.369 3.7,0 5.92,-0.185 2.22,-0.185 3.144,0 4.995,0.185 1.85,0.186 2.774,-0.185 3.885,0.556 1.11,0.739 3.145,0.185 4.995,0.185 1.85,0 2.59,-0.185 4.81,-0.185 2.22,0 2.59,-0.37 3.515,-1.665 0.925,-1.295 1.48,-1.851 1.85,-3.146 0.37,-1.295 1.665,-0.37 2.405,-0.37 0.74,0 2.405,0.926 3.145,1.295 0.74,0.37 2.405,0.926 2.405,0.926 0,0 -0.555,1.109 -0.925,2.404 -0.37,1.295 -1.665,1.665 0,2.035 1.665,0.37 2.404,-1.109 2.59,-1.665 0.185,-0.555 2.405,0 3.7,-0.185 1.295,-0.186 1.85,0.74 4.255,0.925 2.405,0.185 1.479,-1.11 2.405,-2.035 0.926,-0.925 1.665,0 2.22,-0.739 0.555,-0.74 -0.555,-1.851 -0.186,-2.405 0.37,-0.556 1.481,-0.556 1.665,-2.035 0.185,-1.48 1.11,-1.11 2.405,-1.48 1.295,-0.37 0.37,-1.665 0.37,-1.665 0,0 -1.665,0 -2.59,-0.369 -0.925,-0.37 -0.925,-2.035 -0.555,-2.961 0.37,-0.925 0.555,-2.404 0.74,-3.33 0.185,-0.925 0.37,-3.885 0.555,-4.994 0.185,-1.11 -1.295,-2.035 -2.59,-2.775 -1.295,-0.74 -1.109,-2.22 -1.109,-3.33 0,-1.109 0.74,-2.035 0,-2.22 -0.74,-0.187 -1.665,-0.187 -1.665,-0.187 z"
   style="fill:#677821" /><rect
   style="fill:none;stroke:#000000;stroke-width:0.29998;stroke-linejoin:bevel;stroke-dasharray:none;paint-order:stroke fill markers"
   id="rect2"
   height="4390.293"
   x="0.19998971"
   y="0.19998971"
   ry="0.69917101"
   width="4353.8188" /></svg>
