<?xml version="1.0" encoding="UTF-8" standalone="no"?>
<!-- Generator: Adobe Illustrator 22.1.0, SVG Export Plug-In . SVG Version: 6.00 Build 0)  -->

<svg
   version="1.1"
   x="0px"
   y="0px"
   viewBox="0 0 4354.1187 4390.5933"
   enable-background="new 0 0 1995.865 2834.646"
   xml:space="preserve"
   id="svg1596"
   width="4354.1187"
   height="4390.5933"
   xmlns="http://www.w3.org/2000/svg"
   xmlns:svg="http://www.w3.org/2000/svg"><defs
   id="defs1596" />


<path
   id="Westmeath_2_"
   fill="#6C833C"
   d="m 1620.9135,2545.0781 c 0,0 1.48,-0.893 2.683,0 1.202,0.894 2.405,1.634 2.96,2.374 0.555,0.739 2.127,1.664 2.96,1.757 0.833,0.093 2.035,1.202 2.867,0 0.833,-1.202 0.37,-1.937 2.035,-1.985 1.665,-0.05 2.59,0.783 4.532,1.246 1.943,0.462 3.423,0.092 5.273,-0.463 1.85,-0.555 3.63,-0.463 4.914,-1.388 1.284,-0.925 2.116,-0.277 1.654,-2.312 -0.462,-2.035 -0.019,-2.867 0.129,-3.33 0.148,-0.462 2.183,-2.416 3.108,-3.196 0.925,-0.781 3.978,-2.169 4.717,-2.354 0.74,-0.186 2.776,-1.665 3.608,-1.758 0.832,-0.092 1.572,0.093 2.59,1.295 1.017,1.203 2.867,1.84 3.33,2.816 0.463,0.976 1.573,4.214 1.85,6.342 0.277,2.127 -0.093,4.071 1.202,5.643 1.295,1.572 1.665,2.312 1.573,3.052 -0.092,0.74 0.278,1.942 1.018,1.388 0.74,-0.555 0.092,-1.656 0.74,-2.955 0.648,-1.3 -0.324,-2.133 1.503,-1.763 1.827,0.37 3.308,-0.181 3.677,0.882 0.37,1.061 0.37,0.783 1.573,1.339 1.202,0.555 2.405,2.034 2.867,2.22 0.463,0.185 1.851,-0.186 2.868,-0.832 1.017,-0.648 2.127,-0.833 3.33,-0.74 1.203,0.092 1.573,0.185 3.422,-0.556 1.85,-0.739 1.11,-1.942 3.237,-3.607 2.128,-1.665 2.868,-2.746 4.625,-4.194 1.758,-1.448 3.461,-3.113 4.229,-3.668 0.767,-0.555 3.81,-2.96 5.202,-3.422 1.392,-0.463 2.898,-0.648 4.134,-1.758 1.235,-1.11 2.253,-2.203 2.623,-2.767 0.37,-0.563 1.388,-0.934 3.053,-2.321 1.665,-1.388 3.423,-3.33 4.163,-3.7 0.74,-0.37 2.868,-0.185 3.977,0 1.11,0.186 1.758,0.775 3.053,-0.213 1.295,-0.989 1.225,-2.134 2.647,-3.643 1.423,-1.509 2.337,-3.452 2.481,-4.932 0.144,-1.479 -0.374,-2.371 0.379,-2.542 0.752,-0.171 1.468,-0.418 2.513,-1.436 1.045,-1.018 2.34,-4.585 2.247,-5.992 -0.093,-1.408 0.379,-2.888 0.01,-4.09 -0.375,-1.203 -1.408,-2.961 -0.567,-3.886 0.84,-0.925 1.025,-1.448 2.042,-2.157 1.018,-0.71 2.22,-0.248 2.96,-1.357 0.74,-1.11 -0.092,-2.768 0.555,-3.095 0.647,-0.328 1.202,-0.79 1.11,-1.993 -0.092,-1.202 -1.017,-1.479 -0.74,-2.774 0.277,-1.295 2.497,-3.508 2.867,-4.066 0.37,-0.558 0.647,-2.224 0.555,-3.334 -0.092,-1.11 -0.652,-3.855 -1.066,-4.102 -0.414,-0.246 -1.292,-1.119 -2.036,-1.513 -0.744,-0.395 -2.078,-0.064 -3.28,0 -1.203,0.064 -2.051,-0.306 -2.968,0.805 -0.917,1.109 -1.597,2.884 -2.397,3.522 -0.801,0.64 -1.01,1.103 -1.8,1.843 -0.79,0.739 0.044,0.462 -1.391,-0.371 -1.435,-0.832 -2.915,-3.19 -2.915,-3.19 -0.833,-0.231 -4.255,-3.469 -5.365,-4.024 -1.11,-0.555 -3.021,-1.109 -3.021,-1.109 l -3.823,-1.142 c 0,0 -1.388,-1.171 -2.591,-1.634 -1.202,-0.463 -2.774,-0.925 -3.7,-1.942 -0.925,-1.018 -1.11,-2.097 -0.648,-3.083 0.462,-0.987 1.017,-1.912 0.37,-2.93 -0.648,-1.018 -4.255,-6.012 -5.18,-6.66 -0.925,-0.647 -2.366,-3.149 -3.449,-3.887 -1.083,-0.738 -5.121,-3.738 -5.121,-3.738 l -0.68,-1.703 -1.994,1.703 c -0.791,0.884 -1.706,0.78 -2.261,0.965 -0.555,0.186 -1.572,1.11 -2.035,1.326 -0.462,0.217 -1.831,0.714 -1.831,0.714 v -0.714 c 0.365,0.375 -0.173,0.955 -0.173,0.955 0,0 -0.577,0.947 -1.172,2.128 -0.594,1.182 0.372,0.341 1.345,0.417 0.973,0.076 1.616,-0.046 2.208,0.163 0.592,0.209 0.333,1.028 0.333,1.028 l 0.354,1.476 -0.17,1.329 c 0,0 0,1.015 0,1.601 0,0.587 -0.529,1.045 -0.911,1.491 -0.382,0.447 -1.217,0.99 -1.814,1.381 -0.597,0.39 -1.546,2.065 -1.546,2.065 h -0.784 l -0.979,-1.114 c 0,0 -1.428,-0.093 -2.26,0 -0.833,0.092 -1.85,-0.093 -2.308,1.114 -0.458,1.207 -0.282,1.845 -0.867,2.955 -0.585,1.11 -2.097,1.572 -3.07,1.572 -0.973,0 -1.987,-0.37 -3.375,0 -1.388,0.37 -0.833,1.665 -1.203,3.146 -0.37,1.479 -0.462,3.145 -1.572,3.793 -1.11,0.648 -3.237,0.646 -3.964,1.757 -0.726,1.11 0.079,1.572 -0.384,2.96 -0.462,1.387 -0.37,0.647 -1.295,0 -0.925,-0.648 -2.312,-1.665 -4.07,-2.358 -1.757,-0.694 -0.925,1.341 -1.017,2.358 -0.092,1.017 2.59,1.85 3.687,3.053 1.098,1.202 1.585,0.832 1.585,2.312 0,1.479 1.387,2.497 0,3.237 -1.387,0.74 -0.833,-0.185 -1.727,-0.555 -0.895,-0.37 -1.141,0.093 -1.973,1.233 -0.833,1.142 0,1.079 0,2.281 0,1.203 -1.573,2.312 -1.943,2.49 -0.37,0.179 -2.497,3.338 -3.515,4.447 -1.018,1.11 -1.295,2.312 -2.035,4.348 -0.74,2.035 0.37,2.497 -1.295,3.237 -1.665,0.74 -2.127,0.277 -3.792,-0.37 -1.665,-0.647 -1.573,-0.277 -2.312,0.463 -0.74,0.74 -1.11,1.388 -2.25,1.572 -1.14,0.186 -1.727,0.463 -2.468,-0.35 -0.74,-0.812 -1.388,-1.223 -2.59,-1.408 -1.203,-0.185 -3.515,-0.277 -3.515,-0.277 0,0 -1.665,-0.396 -2.204,-0.25 -0.539,0.146 -2.667,-1.646 -3.215,-1.893 -0.547,-0.248 -0.933,0.724 -0.933,0.724 0,0 -2.252,-0.708 -3.473,-0.675 -1.222,0.033 -0.999,-0.126 -1.839,0 -0.841,0.125 -1.009,1.076 -1.841,1.076 -0.832,0 -1.11,-0.555 -1.48,-0.832 -0.37,-0.277 -0.833,-0.37 -2.035,0 -1.202,0.37 -1.018,1.85 -1.818,2.867 -0.802,1.018 -1.789,1.942 -1.974,2.405 -0.185,0.462 -1.843,1.921 -1.843,1.921 0.744,4.17 0.826,2.334 0.883,6.959 0.057,4.625 -1.352,4.348 -1.537,6.475 -0.185,2.128 0.066,3.118 0.066,3.118 -0.285,0.915 1.599,2.218 2.215,3.327 0.617,1.11 0.74,1.604 0.37,2.714 -0.37,1.11 0.124,1.85 1.233,2.59 1.11,0.74 1.357,1.479 1.357,2.22 0,0.741 1.11,2.837 1.233,3.947 0.124,1.11 -0.616,1.85 -1.479,2.466 z"
   style="fill:#677821" /><rect
   style="fill:none;stroke:#000000;stroke-width:0.29998;stroke-linejoin:bevel;stroke-dasharray:none;paint-order:stroke fill markers"
   id="rect2"
   height="4390.293"
   x="0.19998971"
   y="0.19998971"
   ry="0.69917101"
   width="4353.8188" /></svg>
