<?xml version="1.0" encoding="UTF-8" standalone="no"?>
<!-- Generator: Adobe Illustrator 22.1.0, SVG Export Plug-In . SVG Version: 6.00 Build 0)  -->

<svg
   version="1.1"
   x="0px"
   y="0px"
   viewBox="0 0 4354.1187 4390.5933"
   enable-background="new 0 0 1995.865 2834.646"
   xml:space="preserve"
   id="svg1596"
   width="4354.1187"
   height="4390.5933"
   xmlns="http://www.w3.org/2000/svg"
   xmlns:svg="http://www.w3.org/2000/svg"><defs
   id="defs1596" />


<g
   id="Wexford__x3C_Group_x3E__2_"
   style="fill:#677821"
   transform="translate(1093.6405,660.66109)">
					<path
   fill="#6C833C"
   d="m 703.023,2162.348 v 2.221 c 0,0 1.388,-1.203 1.85,-1.295 0.463,-0.093 1.11,-0.556 1.481,-0.648 0.37,-0.092 0,-1.479 0,-1.479 -0.833,-0.094 -3.331,1.201 -3.331,1.201 z"
   id="path945"
   style="fill:#677821" />
					<path
   id="Wexford_2_"
   fill="#6C833C"
   d="m 652.271,2126.217 c -0.432,-0.561 -1.295,-1.547 -1.542,-2.164 -0.247,-0.616 0.555,-1.604 0.771,-1.974 0.216,-0.37 0.709,-0.122 0.771,-1.356 0.062,-1.233 0.801,-1.356 1.295,-1.973 0.493,-0.617 1.11,-0.617 0.617,-1.851 -0.493,-1.233 -0.37,-2.22 -0.493,-4.07 -0.123,-1.85 0.486,-3.7 0.674,-4.562 0.189,-0.863 1.175,-0.74 2.409,-1.233 1.233,-0.494 0.617,-1.974 1.233,-2.96 0.616,-0.987 0.863,-2.22 1.727,-3.7 0.864,-1.48 1.974,-2.714 0.493,-3.084 -1.479,-0.369 -2.96,-0.493 -2.466,-1.479 l 0.359,-0.743 c -0.048,-0.191 0.381,-0.128 1.368,0 0.987,0.127 1.233,1.606 2.097,0.62 0.863,-0.987 1.11,0.615 1.726,-0.741 0.617,-1.355 1.48,-0.862 0.494,-2.096 -0.987,-1.233 -1.604,-0.863 -1.233,-1.974 0.37,-1.109 0,-0.37 0.493,-1.727 0.493,-1.356 1.479,-1.479 0.616,-2.466 l 0.234,0.32 c 0,0 1.832,0.142 3.219,-0.876 1.388,-1.018 2.775,-2.497 3.7,-3.885 0.925,-1.388 2.127,-3.607 2.775,-4.718 0.647,-1.109 0.925,-1.572 0.833,-3.237 -0.092,-1.665 -0.89,-2.497 0.017,-3.237 0.908,-0.74 1.463,-0.186 2.665,-1.572 1.203,-1.388 1.315,-2.683 1.86,-3.979 0.545,-1.295 1.47,-0.925 2.025,-1.757 0.555,-0.833 0.832,-2.868 1.295,-3.885 0.462,-1.018 -0.093,-3.237 0,-4.255 0.092,-1.018 -0.093,-2.221 -0.37,-3.238 -0.277,-1.018 -0.183,-1.757 0.556,-2.312 0.739,-0.555 2.588,-1.018 3.421,-1.387 0.832,-0.37 2.312,-1.203 3.33,-1.11 1.017,0.093 3.885,0.74 4.532,0.925 0.648,0.186 1.202,0.427 2.035,-0.527 0.832,-0.953 1.202,-2.617 1.665,-3.173 0.462,-0.555 1.973,-1.634 1.973,-1.634 l -0.308,-2.257 c 0,0 -0.584,-0.066 -1.303,0.363 -0.718,0.431 -1.256,0.407 -1.586,-0.367 -0.331,-0.774 -1.208,-0.787 -0.609,-1.915 0.6,-1.128 0.929,-1.327 1.121,-1.658 0.193,-0.331 0.712,-0.826 0.712,-0.826 0,0 -0.123,0.768 1.11,0.384 1.233,-0.384 1.646,-0.804 2.811,-2.521 1.165,-1.717 1.653,-2.42 2.387,-2.823 0.734,-0.403 1.337,-0.429 2.031,-0.616 0.693,-0.188 0.546,0.551 1.237,1.29 0.691,0.74 1.708,0.093 2.448,0.925 0.74,0.833 0.679,2.405 1.912,3.053 1.233,0.648 3.176,0.463 4.563,-0.092 1.387,-0.556 3.451,0.462 4.315,-0.648 0.864,-1.109 2.437,-4.069 2.437,-4.069 0,0 2.375,-3.515 3.361,-4.348 0.986,-0.833 1.634,-1.11 2.281,-2.683 0.647,-1.572 0.19,-3.33 1.159,-4.717 0.969,-1.388 0.414,-2.312 1.339,-3.238 0.925,-0.925 2.867,-2.312 4.439,-3.053 1.572,-0.739 3.053,-0.808 3.7,-0.728 0.647,0.081 0.528,0.331 1.883,-0.025 1.355,-0.356 1.54,-2.021 2.927,-1.189 1.387,0.833 2.467,0.74 2.991,1.758 0.524,1.018 0.432,0.925 1.819,0.647 1.387,-0.278 1.85,-1.918 2.96,-1.19 1.11,0.728 0.462,1.868 2.312,2.917 1.85,1.049 2.59,1.233 3.885,1.326 1.295,0.092 4.995,1.202 5.365,1.85 0.37,0.648 0,2.08 0.648,3.491 0.647,1.411 1.48,2.06 1.942,2.244 0.463,0.185 1.952,-0.198 1.952,-0.198 l -0.102,1.216 c -0.555,1.11 -2.034,2.774 -2.034,2.774 0,0 -0.186,1.295 -1.665,2.961 -1.48,1.664 -5.18,7.029 -5.735,8.51 -0.555,1.479 -1.85,4.439 -2.22,6.845 -0.37,2.406 0.555,5.735 1.11,6.66 0.555,0.925 1.11,5.364 1.11,5.735 0,0.369 1.665,2.22 1.295,3.885 0,0 1.481,0.925 0.74,2.404 -0.74,1.48 -3.33,6.476 -5.55,9.436 -2.221,2.96 -8.695,13.135 -9.436,14.8 -0.74,1.665 -2.405,3.7 -2.405,3.7 0,0 -0.74,0.925 -2.22,2.775 -1.479,1.85 -3.7,7.954 -3.144,10.545 0.555,2.59 2.22,5.18 1.665,5.55 -0.555,0.37 -2.775,0 -2.775,0 l -0.925,-2.22 c 0,0 -4.81,-0.186 -5.92,-0.186 -1.11,0 -2.775,0.925 -2.96,1.665 -0.185,0.74 -1.11,0 -1.851,-0.37 -0.739,-0.37 -1.295,-1.295 -1.109,-2.775 0.185,-1.479 0.925,-2.034 0.74,-2.59 -0.185,-0.555 -1.48,0 -2.035,0.37 -0.555,0.37 0,0.74 -0.925,1.851 -0.925,1.109 -1.665,2.22 -1.665,2.22 l 2.59,1.11 c 0,0 1.109,0 2.59,2.774 1.48,2.775 1.295,6.105 2.035,6.29 0.739,0.186 2.59,1.48 2.59,1.48 l 1.537,2.404 c 0,0 1.978,0.37 1.608,0 -0.37,-0.369 -0.185,-2.404 0.186,-3.145 0.371,-0.741 0.925,-1.85 1.479,-1.85 0.556,0 1.851,0.739 1.11,1.479 -0.74,0.74 -1.85,0.925 -1.11,4.44 0.74,3.515 0.556,6.659 2.22,7.215 1.665,0.555 3.7,0.555 4.625,1.109 0.925,0.556 3.33,1.665 3.145,2.221 -0.185,0.555 -0.925,0.555 -1.11,1.85 -0.185,1.295 0.186,0.37 -1.479,2.775 -1.665,2.404 -2.035,4.255 -2.22,5.55 -0.185,1.295 -1.295,2.22 -1.11,2.774 0.185,0.556 0,1.48 -0.925,1.665 -0.925,0.186 -2.59,-0.185 -3.516,-0.925 -0.925,-0.74 0.556,-2.035 0.186,-2.59 -0.37,-0.555 0.555,-2.775 0.555,-2.775 l 0.37,-2.035 -0.74,-1.295 c 0,0 -0.74,0.556 -0.74,1.851 0,1.295 -0.185,1.665 -0.37,2.22 -0.186,0.555 -0.186,0.555 -0.186,0.555 l -1.11,1.295 c 0,0 -0.812,1.851 -0.868,1.666 -0.057,-0.186 -2.277,-0.926 -3.942,-0.926 -1.665,0 -3.7,-0.925 -3.7,-0.925 l 2.775,-0.555 1.295,-0.925 c 0,0 -1.295,0 -2.405,-0.74 -1.109,-0.74 -2.405,-0.925 -2.59,-1.48 -0.185,-0.555 -1.479,-1.479 -1.665,-0.74 -0.185,0.74 0.74,1.851 0.37,2.775 -0.37,0.925 -0.37,1.665 -2.405,2.221 -2.035,0.555 -3.7,-0.371 -4.625,0.369 -0.925,0.74 -1.295,1.665 -2.774,1.851 -1.48,0.185 -2.96,1.204 -3.515,1.157 -0.555,-0.048 -1.666,-2.822 -3.7,-3.748 -2.035,-0.925 -4.44,-3.145 -4.995,-3.329 -0.555,-0.186 -3.516,-0.74 -4.07,-1.11 -0.555,-0.37 -2.22,-1.48 -3.7,-1.295 -1.479,0.185 -2.22,1.109 -3.885,1.109 -1.665,0 -2.035,0 -3.515,0.556 -1.48,0.555 -2.775,0.74 -3.516,0.185 -0.74,-0.555 -2.774,-1.479 -2.405,-2.035 0.37,-0.555 1.295,-1.664 1.295,-1.664 l 0.555,1.479 0.925,0.555 c 0,0 -0.185,-2.404 0.37,-2.96 0.555,-0.555 2.96,-2.59 2.96,-2.59 0,0 2.035,-1.295 1.85,-1.85 -0.185,-0.555 -0.74,-1.48 -1.295,-1.48 -0.555,0 -4.44,3.33 -5.55,4.07 -1.11,0.74 -2.405,1.665 -2.96,1.85 -0.555,0.186 -0.74,1.665 -1.11,2.221 -0.37,0.555 -0.74,1.664 -0.74,1.664 0,0 0.74,-0.925 1.665,-0.185 0.925,0.74 0.37,1.48 -0.37,2.59 -0.74,1.11 0.37,2.591 0.37,2.591 0,0 -0.925,0.185 -0.74,1.109 0.185,0.925 1.11,2.132 0.555,2.269 -0.555,0.137 -0.555,-0.877 -1.85,0 -1.295,0.876 -2.405,1.616 -3.515,1.986 -1.11,0.37 0,-1.11 -1.11,0.37 -1.11,1.48 -2.22,3.33 -2.22,3.33 h -1.48 c 0,0 0.37,1.665 -0.37,2.035 -0.74,0.37 0,0.555 -1.295,1.85 -1.295,1.295 -1.85,1.295 -2.035,0 -0.185,-1.295 0.555,-2.22 1.11,-2.96 0.555,-0.739 1.11,-2.22 1.11,-2.22 l 1.85,-1.295 c 0,0 0.555,-3.885 0,-4.07 -0.555,-0.185 -1.665,-2.404 -1.665,-2.404 0,0 0,-0.556 0.555,-1.296 0.556,-0.739 0.556,-1.109 -0.37,-2.59 -0.925,-1.479 -1.48,-2.59 -2.22,-2.774 -0.74,-0.186 -0.925,-1.665 -1.479,-2.221 -0.556,-0.555 -1.665,-2.59 -2.59,-3.145 -0.925,-0.555 -1.85,-1.11 -2.59,-1.665 -0.74,-0.556 -1.85,-1.851 -0.925,-2.22 0.925,-0.37 2.59,-1.665 1.48,-2.405 -1.11,-0.74 -1.665,-2.035 -2.405,-2.405 z"
   style="fill:#677821" />
				</g><rect
   style="fill:none;stroke:#000000;stroke-width:0.29998;stroke-linejoin:bevel;stroke-dasharray:none;paint-order:stroke fill markers"
   id="rect2"
   height="4390.293"
   x="0.19998971"
   y="0.19998971"
   ry="0.69917101"
   width="4353.8188" /></svg>
