<?xml version="1.0" encoding="UTF-8" standalone="no"?>
<!-- Generator: Adobe Illustrator 22.1.0, SVG Export Plug-In . SVG Version: 6.00 Build 0)  -->

<svg
   version="1.1"
   x="0px"
   y="0px"
   viewBox="0 0 4354.1187 4390.5933"
   enable-background="new 0 0 1995.865 2834.646"
   xml:space="preserve"
   id="svg1596"
   width="4354.1187"
   height="4390.5933"
   xmlns="http://www.w3.org/2000/svg"
   xmlns:svg="http://www.w3.org/2000/svg"><defs
   id="defs1596" />


<path
   id="Wicklow_2_"
   fill="#303B09"
   d="m 1860.8585,2682.9641 c 0.185,-0.555 0.555,-2.22 0,-4.625 -0.556,-2.404 0.925,-7.215 1.665,-8.14 0.74,-0.925 3.33,-6.66 3.515,-7.215 0.185,-0.556 4.995,-3.515 5.735,-4.07 0.74,-0.555 0.185,-2.22 0.185,-3.145 0,-0.925 1.11,-3.33 1.295,-3.886 0.185,-0.555 1.48,-1.85 1.85,-3.515 0.37,-1.665 0.925,-2.96 1.664,-3.7 0.74,-0.74 0.74,-1.665 0.926,-2.404 0.185,-0.74 0.37,-2.591 0.925,-3.886 0.555,-1.295 1.665,-2.034 1.665,-3.33 0,-1.295 -1.665,-1.665 -2.22,-1.665 -0.555,0 -1.85,-1.479 -3.145,-2.59 -1.295,-1.109 -0.925,-3.699 -1.11,-7.399 -0.185,-3.7 1.48,-10.175 1.851,-13.136 0.37,-2.96 -0.74,-9.064 -0.925,-10.175 -0.185,-1.11 -2.775,-5.18 -4.256,-8.14 -1.479,-2.96 -0.369,-3.146 -0.369,-4.255 0,-1.11 -0.37,-2.405 -1.665,-4.255 -1.295,-1.851 -1.481,-2.035 -2.22,-3.886 0,0 -2.868,0.556 -3.052,0.92 -0.185,0.365 -0.74,1.301 -2.856,1.578 -2.115,0.277 -1.307,-0.556 -2.139,-1.578 -0.833,-1.022 -1.295,-1.29 -2.59,-1.845 -1.295,-0.555 -1.665,0.186 -3.145,0.833 -1.48,0.647 -1.018,1.109 -2.312,1.665 -1.295,0.555 -1.942,0.369 -3.237,0.555 -1.295,0.185 -1.48,-0.832 -3.237,-1.208 -1.758,-0.375 -1.11,-1.567 -2.405,-2.399 -1.295,-0.833 -0.74,-0.833 -2.128,-0.277 -1.387,0.555 -0.74,1.665 -1.11,3.33 -0.37,1.664 0.37,2.312 -0.401,3.33 -0.77,1.018 -0.802,1.109 -1.356,2.428 -0.555,1.317 -1.018,0.531 -1.732,0.547 -0.714,0.015 -1.598,-1.495 -2.153,-1.957 -0.555,-0.463 -1.11,-0.833 -1.661,-1.388 -0.55,-0.556 -0.559,-1.296 -0.25,-2.498 0.308,-1.202 -0.586,-1.388 -1.033,-1.572 -0.447,-0.185 -2.698,-0.185 -3.716,-0.463 -1.018,-0.277 -0.925,-1.85 -1.202,-3.329 -0.278,-1.48 -1.388,-1.11 -1.943,-0.833 -0.555,0.277 -2.59,0.093 -3.607,0 -1.018,-0.093 -2.405,0 -2.405,0 l -0.555,-0.647 c 0,0 0,0 -0.567,0.555 -0.566,0.555 -1.19,1.758 -1.875,2.867 -0.685,1.11 -1.443,2.221 -1.813,3.7 -0.37,1.48 -0.925,2.591 -1.572,3.365 -0.647,0.775 -1.018,-0.312 -2.035,0.077 -1.018,0.39 -1.018,-0.297 -1.757,0 -0.74,0.297 -0.555,0.073 -0.74,0.998 -0.186,0.925 -0.093,1.202 0.277,1.942 0.37,0.74 0.462,0.555 0.833,1.572 0.37,1.018 -0.37,1.665 -0.392,2.887 -0.022,1.222 -0.625,0.073 -0.995,0.852 -0.37,0.778 -1.295,0.609 -1.943,0.829 -0.647,0.219 -1.203,0.798 -1.41,1.538 -0.208,0.739 -0.625,1.665 0,2.22 0.625,0.555 0.331,1.202 0.331,1.202 0,0 -0.326,0.83 -0.852,1.612 -0.526,0.781 -1.4,0.102 -1.4,0.102 0,0 -0.185,1.895 -0.833,2.634 -0.648,0.74 -1.202,0.463 -2.461,1.295 -1.259,0.833 -1.517,0.647 -2.626,1.203 -1.11,0.555 -2.59,1.572 -3.885,2.22 -1.295,0.647 -2.497,1.202 -4.717,1.665 -2.22,0.462 -2.59,0.185 -3.193,1.572 -0.603,1.388 -0.507,2.498 0,4.255 0.507,1.758 -1.062,2.59 -1.895,3.516 -0.832,0.925 -1.48,1.387 -2.22,1.85 -0.74,0.463 -1.203,0.555 -1.573,1.85 -0.37,1.295 -0.647,2.035 -1.203,3.423 -0.555,1.388 -0.832,1.665 -1.339,2.96 -0.506,1.295 0.137,1.203 0.877,2.775 0.74,1.572 2.22,3.145 3.33,4.255 1.11,1.11 1.295,1.388 2.127,2.312 0.832,0.925 0.185,2.312 0.462,3.515 0.278,1.203 -0.185,2.683 -0.462,2.96 v 0.917 h 1.895 c 0,0 1.528,0.101 3.193,0.01 1.665,-0.092 0.74,0.556 1.387,1.835 0.648,1.28 0.74,0.478 2.128,0.108 1.388,-0.37 1.942,0.277 2.96,0.994 1.018,0.717 2.128,0.485 2.867,0.208 0.74,-0.277 1.018,-0.277 2.22,0 1.203,0.277 1.85,0 3.238,0 1.387,0 0.648,0.74 1.018,1.693 0.37,0.953 0.092,1.267 0.625,2.438 0.532,1.172 1.132,0.863 1.78,0.678 0.647,-0.185 1.295,-0.462 1.757,0 0.463,0.463 1.664,0.463 1.664,0.463 0,0 0.573,-1.32 0.864,-1.759 0.292,-0.439 1.505,-1.611 1.648,-1.756 0.143,-0.145 1.189,0 1.652,0 0.462,0 0.648,0.092 1.387,1.109 0.74,1.018 0.093,1.758 0,2.96 -0.092,1.203 -0.277,0.74 -1.018,1.48 -0.74,0.74 -1.017,0.37 -1.346,1.295 -0.329,0.925 -0.134,1.758 0.299,3.607 0.433,1.849 -0.249,1.758 -0.299,3.053 -0.052,1.295 0.698,1.665 0,2.867 -0.699,1.203 -1.244,0.647 -2.169,0.647 -0.925,0 -2.312,0.093 -3.053,0.556 -0.74,0.462 0,1.664 -0.962,1.664 -0.962,0 -2.09,0.093 -3.016,0 -0.925,-0.092 -2.035,-0.462 -2.695,-0.832 -0.66,-0.37 -1.467,-1.295 -1.744,-1.942 -0.278,-0.647 -1.481,-1.11 -2.775,-1.849 -1.295,-0.739 -1.665,-0.279 -2.164,-1.095 -0.499,-0.815 -0.98,-0.479 -1.119,0 -0.139,0.479 -0.571,1.095 -0.8,1.516 -0.229,0.422 0.194,0.785 0.513,1.244 0.319,0.46 -0.284,0.491 -0.962,0.738 -0.679,0.247 -1.637,0.742 -2.286,0.983 -0.649,0.24 -1.09,0.785 -1.357,1.435 -0.267,0.649 -0.074,1.661 -0.131,2.21 -0.057,0.55 -0.111,0.472 -0.241,1.2 -0.13,0.729 0.294,0.839 0.31,1.089 0.016,0.25 -0.61,1.1 -0.61,1.1 0,0 0.708,1.326 1.355,1.233 0.648,-0.093 1.757,-0.462 3.33,-1.233 1.572,-0.771 1.479,1.233 2.405,2.283 0.925,1.05 1.387,1.726 1.067,2.65 -0.32,0.925 0.042,1.758 0,3.515 -0.042,1.758 0.875,0.74 1.522,1.665 0.648,0.926 1.203,2.683 2.22,3.7 1.018,1.018 1.467,1.794 1.467,1.794 l 0.952,-0.217 c 0.693,-0.188 0.546,0.551 1.237,1.29 0.691,0.74 1.708,0.093 2.448,0.925 0.74,0.833 0.679,2.405 1.912,3.053 1.233,0.648 3.176,0.463 4.563,-0.092 1.387,-0.556 3.451,0.462 4.315,-0.648 0.864,-1.109 2.437,-4.069 2.437,-4.069 0,0 2.375,-3.515 3.361,-4.348 0.986,-0.833 1.634,-1.11 2.281,-2.683 0.647,-1.572 0.19,-3.33 1.159,-4.717 0.969,-1.388 0.414,-2.312 1.339,-3.238 0.925,-0.925 2.867,-2.312 4.439,-3.053 1.572,-0.739 3.053,-0.808 3.7,-0.728 0.647,0.081 0.528,0.331 1.883,-0.025 1.355,-0.356 1.54,-2.021 2.927,-1.189 1.387,0.833 2.467,0.74 2.991,1.758 0.524,1.018 0.432,0.925 1.819,0.647 1.387,-0.278 1.85,-1.918 2.96,-1.19 1.11,0.728 0.462,1.868 2.312,2.917 1.85,1.049 2.59,1.233 3.885,1.326 1.295,0.092 4.995,1.202 5.365,1.85 0.37,0.648 0,2.08 0.648,3.491 0.647,1.411 1.48,2.06 1.942,2.244 0.463,0.185 1.952,-0.198 1.952,-0.198 z"
   style="fill:#677821" /><rect
   style="fill:none;stroke:#000000;stroke-width:0.29998;stroke-linejoin:bevel;stroke-dasharray:none;paint-order:stroke fill markers"
   id="rect2"
   height="4390.293"
   x="0.19998971"
   y="0.19998971"
   ry="0.69917101"
   width="4353.8188" /></svg>
