<?xml version="1.0" encoding="UTF-8" standalone="no"?>
<!-- Generator: Adobe Illustrator 22.1.0, SVG Export Plug-In . SVG Version: 6.00 Build 0)  -->

<svg
   version="1.1"
   x="0px"
   y="0px"
   viewBox="0 0 4354.1187 4390.5933"
   enable-background="new 0 0 1995.865 2834.646"
   xml:space="preserve"
   id="svg1596"
   width="4354.1187"
   height="4390.5933"
   xmlns="http://www.w3.org/2000/svg"
   xmlns:svg="http://www.w3.org/2000/svg"><defs
   id="defs1596"><clipPath
     clipPathUnits="userSpaceOnUse"
     id="clipPath37"><rect
       style="fill:#666666;fill-opacity:1;stroke:#000000;stroke-width:14.253;stroke-dasharray:none;stroke-opacity:1"
       id="rect38"
       width="4339.458"
       height="4362.7886"
       x="-1093.6404"
       y="-649.87677" /></clipPath></defs>


<g
   id="Major_lakes_on_county_boundaries"
   transform="translate(1093.6405,660.66109)"
   clip-path="url(#clipPath37)"
   style="display:inline">
			<path
   fill="#84d0f0"
   d="m 958.858,1195.448 c 0,0 0.355,1.688 0.575,2.174 0.37,0.814 -0.16,1.308 0.598,2.418 0.758,1.109 2.102,1.233 1.739,1.85 -0.364,0.617 -1.747,0.37 -1.426,1.233 0.322,0.863 1.185,1.727 0.568,3.33 -0.616,1.604 -0.396,1.604 -0.568,3.083 -0.171,1.48 -1.308,0.665 0,2.306 1.309,1.641 1.418,2.011 1.487,3.861 0.068,1.85 1.535,1.727 -0.061,3.33 -1.597,1.604 -1.56,1.85 -1.085,2.343 0.475,0.494 0.955,1.618 1.085,2.536 0.13,0.918 -0.126,1.781 0.742,1.904 0.867,0.123 1.73,1.11 1.607,1.85 -0.123,0.74 -0.839,0.963 0.012,1.283 0.852,0.32 1.963,0.197 2.086,0.938 0.122,0.739 -0.248,0.751 -0.494,1.424 -0.247,0.672 -0.493,1.104 0.123,2.06 0.617,0.956 0.617,0.463 0.987,1.203 0.37,0.74 0.37,2.467 0.617,3.33 0.246,0.863 1.057,4.015 1.576,4.905 0.521,0.891 1.63,2.987 1.261,3.852 -0.37,0.863 -0.494,0.246 -0.494,1.727 0,1.479 1.011,2.096 0.567,3.206 -0.443,1.11 -0.687,0.863 0.113,1.48 0.8,0.616 1.904,1.727 1.044,2.59 -0.861,0.863 -0.984,-0.107 -1.601,1.365 -0.617,1.471 -1.78,2.577 -0.891,2.949 0.891,0.373 2,0.068 1.877,1.393 -0.123,1.324 0.611,1.57 0.614,2.311 0.003,0.74 0.866,2.59 1.729,2.837 0.863,0.246 1.727,1.666 1.727,1.666 h 0.901 c 0,0 0.285,-0.68 0,-1.666 -0.285,-0.987 0.655,-1.604 0,-2.96 -0.655,-1.357 -0.721,-3.212 0.237,-3.58 0.958,-0.367 2.068,-1.106 2.438,-1.478 0.37,-0.369 0.986,-1.34 1.973,-1.471 0.987,-0.131 2.22,-0.501 2.837,-0.749 0.616,-0.246 1.081,-1.062 1.727,-1.479 0.645,-0.417 1.044,0.646 0.645,-0.417 -0.399,-1.063 -0.522,-1.31 -1.139,-2.173 -0.617,-0.863 -1.48,-2.097 -2.097,-2.59 -0.617,-0.494 -0.494,-1.233 -1.233,-1.974 -0.74,-0.74 -0.863,-2.2 -1.357,-2.21 -0.494,-0.01 -1.759,0.824 -2.36,-0.58 -0.601,-1.403 -0.354,-2.514 -0.847,-3.253 -0.493,-0.74 -1.233,-0.747 -1.974,-1.421 -0.74,-0.675 -1.25,0.428 -2.352,0 -1.102,-0.429 -0.614,-1.292 -0.857,-2.278 -0.244,-0.987 -0.984,-1.866 -1.601,-2.783 -0.617,-0.917 -1.04,-0.979 -0.891,-1.75 0.15,-0.771 0.59,-1.88 0,-3.114 -0.59,-1.233 -1.822,-1.356 -2.809,-2.836 -0.987,-1.48 -1.727,-2.453 -1.727,-3.508 0,-1.056 -0.987,-0.933 -0.863,-1.796 0.123,-0.863 0.246,-3.382 0.863,-3.603 0.616,-0.221 0.37,-1.701 0.246,-2.934 -0.123,-1.233 -0.37,-3.775 -0.739,-3.738 0,0 -1.357,-2.182 -1.11,-2.552 0.247,-0.37 0.123,-4.051 0.123,-4.492 0,-0.441 -0.123,-3.525 -0.123,-3.525 0,0 -0.999,0.124 -1.116,-1.726 -0.117,-1.851 -1.757,-2.344 -1.739,-3.084 0.022,-0.741 -1.17,-1.017 -1.17,-1.017 z"
   id="path1280" />
			<path
   fill="#84d0f0"
   d="m 717.7,1568.436 c 0.415,-0.159 0.768,0 1.617,-0.986 0.849,-0.986 1.59,-1.233 2.453,-0.863 0.863,0.37 1.727,0.863 1.973,1.85 0.247,0.987 0,1.974 0,3.453 0,1.48 -0.026,0.74 0.11,2.59 0.137,1.851 1.123,1.851 2.851,2.098 1.727,0.246 2.22,1.11 3.206,1.356 0.987,0.247 4.687,0.493 5.674,0 0.986,-0.493 2.22,-0.493 3.083,-0.987 0.863,-0.492 1.109,-1.232 2.343,-1.603 1.233,-0.37 2.097,-1.727 3.207,-1.48 1.11,0.247 1.357,0.987 2.467,0.37 1.11,-0.616 0.863,-1.11 1.85,-1.233 0.987,-0.123 1.773,-1.234 2.86,-0.679 1.087,0.556 2.937,2.282 3.184,3.022 0.247,0.74 0.863,0.493 0.493,1.974 -0.37,1.479 -0.863,0.863 -1.85,2.467 -0.987,1.603 -0.57,1.355 -1.827,3.453 -1.257,2.097 -0.763,1.479 -2.613,3.33 -1.85,1.85 -2.467,0.616 -2.59,2.959 -0.123,2.344 -0.247,3.331 -0.74,4.688 -0.493,1.356 -1.479,2.467 -1.727,3.33 -0.247,0.863 -1.356,1.479 -0.37,1.973 0.987,0.493 3.083,-0.246 3.823,0 0.74,0.247 1.48,-0.516 2.097,0.174 0.617,0.689 1.233,0.196 1.357,2.047 0.124,1.85 0.37,2.713 -0.124,3.822 -0.493,1.11 -1.11,1.357 -2.837,1.975 -1.726,0.616 -2.343,0.616 -2.713,1.109 -0.37,0.493 -0.247,1.357 -0.493,1.85 -0.247,0.494 -0.987,-0.015 -1.604,0.671 -0.617,0.687 -0.863,0.316 -1.604,0.81 -0.74,0.493 -0.986,1.727 -0.37,1.727 0.617,0 1.603,-0.37 1.974,0 0.37,0.37 0.493,0.987 -0.247,1.233 -0.74,0.247 -0.247,-0.247 -0.74,1.356 -0.494,1.604 -1.233,1.728 -1.851,1.604 -0.616,-0.123 -1.48,-0.545 -1.356,0.036 0.123,0.58 0.494,0.828 0.617,2.185 0.123,1.355 -1.233,0.986 0.123,1.355 1.357,0.37 2.22,0.756 2.343,1.057 0.124,0.301 0.37,3.167 -0.123,2.412 -0.493,-0.755 -0.493,-1.495 -1.233,-0.755 -0.74,0.74 -2.467,0.881 -2.467,0.881 l -0.863,-0.126 c 0,0 0.247,1.656 0.37,1.746 0.123,0.089 0.493,1.271 -0.493,0.742 -0.986,-0.529 -1.603,-0.742 -1.603,-0.742 0.123,-0.897 -0.616,-1.746 -0.616,-1.746 0,0 -0.247,0.423 -0.74,1.746 -0.493,1.322 0.123,0.901 -0.987,0.742 -1.109,-0.16 -1.109,-0.16 -1.109,-0.16 0,0 -0.863,-2.466 -1.233,-3.453 -0.37,-0.986 -0.247,-2.96 -0.74,-2.467 -0.493,0.493 -0.986,1.249 -2.713,1.18 -1.727,-0.069 -3.207,0 -3.207,0 0,0 0.247,-1.18 -0.74,-1.426 -0.986,-0.247 -2.809,-0.494 -3.933,-0.124 -1.124,0.37 -0.754,0.879 -1.617,1.55 -0.863,0.67 -0.863,1.041 -1.479,1.041 -0.617,0 -1.11,-0.247 -1.11,-0.247 0,0 -1.11,-0.74 -1.356,-0.124 -0.247,0.617 -1.728,0.494 -1.728,0.494 0,0 -0.246,-1.342 -0.616,-1.164 -0.37,0.178 -1.48,0.81 -1.604,0 -0.123,-0.81 0.864,-0.933 0.864,-0.933 l -0.124,-1.479 h -1.85 c 0,0 -1.727,-0.987 -1.851,-1.728 -0.123,-0.739 -1.233,-0.616 -1.85,-0.863 -0.617,-0.247 0,-1.233 0.493,-2.714 0.493,-1.479 0.987,-4.316 1.11,-4.81 0.123,-0.493 2.713,-0.74 2.713,-0.74 l 1.11,-1.233 h 0.863 c 0,0 -0.863,-1.109 0.739,-2.343 1.604,-1.233 2.961,-2.22 2.961,-2.22 l 2.59,-3.33 0.74,-2.467 c 0,0 1.261,-0.059 1,-0.646 -0.261,-0.587 -1,-0.094 -0.754,-1.45 0.247,-1.356 0,-2.714 0.124,-3.33 0.123,-0.616 0.247,-1.11 -0.247,-1.727 -0.493,-0.616 -1.11,-2.097 -1.48,-2.96 -0.37,-0.863 -0.493,-1.48 -0.863,-2.59 -0.37,-1.11 -0.37,-3.207 -0.493,-3.7 -0.123,-0.493 -0.74,-1.233 -0.616,-1.851 0.123,-0.616 0.616,-1.109 0.37,-1.479 -0.247,-0.37 -0.37,-0.863 -0.247,-1.479 0.123,-0.617 0.37,-2.467 0.37,-2.467 l 1.604,-0.247 c -0.002,0 -0.283,-4.962 0.615,-5.307 z"
   id="path1281" />
			<path
   fill="#84d0f0"
   d="m 514.57,1814.855 0.74,1.604 c 0,0 0.247,1.233 0.616,0.617 0.37,-0.617 1.322,-2.344 1.833,-2.221 0.511,0.123 1.004,0.043 0.511,1.193 -0.493,1.15 -1.399,1.027 -1.748,1.768 -0.349,0.739 0.718,1.355 0,1.603 -0.719,0.247 -0.965,-0.493 -1.335,0.617 -0.37,1.11 -1.11,0.986 -0.617,1.973 0.493,0.987 0.863,1.11 0.987,2.22 0.124,1.11 0,0.864 -0.247,1.604 -0.247,0.739 0.37,0.739 0.123,1.603 -0.246,0.863 -1.809,-0.493 -1.027,0.987 0.781,1.479 1.398,2.467 2.631,3.33 1.233,0.863 1.357,1.233 2.59,2.22 1.233,0.986 1.727,1.109 2.344,2.097 0.616,0.986 2.097,2.343 0.986,2.097 -1.11,-0.247 -0.986,-0.986 -1.727,-0.617 -0.74,0.37 -0.987,0.371 -0.74,1.604 0.247,1.233 0,1.727 0.74,2.344 0.74,0.617 0.616,0.369 1.11,1.604 0.494,1.233 0.433,1.85 1.018,1.85 0.585,0 0.709,-1.356 1.695,-0.986 0.986,0.37 1.542,0 1.696,-0.494 0.154,-0.493 0.154,-1.604 0.647,-1.479 0.493,0.124 0.616,-0.616 1.233,-0.493 0.617,0.123 -0.247,0.493 0.617,0.123 0.863,-0.37 0.37,-1.356 1.727,-1.727 1.357,-0.37 1.604,0.493 1.233,1.233 -0.37,0.74 -0.863,0.987 -0.493,1.727 0.37,0.74 -0.183,1.11 0.648,0.247 0.831,-0.863 1.945,-3.084 1.945,-3.084 0.119,-0.986 0.119,-2.836 0.613,-1.604 0.494,1.234 0.844,3.454 0.844,3.454 0,0 1.516,-0.37 1.878,-0.247 0.362,0.123 -0.329,1.109 0.325,1.356 0.654,0.247 2.504,0.616 1.271,0.863 -1.233,0.247 -3.577,1.233 -4.317,1.11 -0.74,-0.123 -1.357,-0.247 -1.357,0.74 0,0.986 0,-0.37 -1.233,0 -1.233,0.369 -0.616,-0.864 -2.097,1.109 -1.479,1.974 -1.727,2.221 -1.85,3.33 -0.124,1.11 -0.617,2.299 0.247,1.951 0.863,-0.348 1.973,0.022 0.863,0.639 -1.109,0.617 -1.232,2.405 -1.356,2.066 -0.124,-0.34 -1.217,-0.586 -1.217,-0.586 0,0 -0.695,1.604 -0.17,2.097 0.523,0.493 0.771,-1.11 1.387,0 0.616,1.11 1.357,1.11 0.74,2.22 -0.617,1.11 -0.74,1.357 -0.986,1.851 -0.247,0.493 1.109,1.635 1.109,1.635 0,0 1.234,1.202 1.357,0.832 0.123,-0.37 -0.987,-2.837 0.616,-2.837 1.604,0 1.85,0.68 1.727,2.005 -0.123,1.325 -0.616,3.175 -0.986,3.422 -0.37,0.246 -0.74,-1.356 -0.74,-1.356 l -2.22,-0.247 c 0,0 0.246,1.778 -0.37,1.629 -0.617,-0.149 -1.817,-0.889 -1.463,-1.506 0.353,-0.616 0.292,-2.649 -0.17,-1.941 -0.463,0.708 -0.216,1.325 -1.326,1.571 -1.11,0.247 -2.467,-0.739 -2.59,0.863 -0.124,1.604 -0.37,3.947 -1.233,2.344 -0.863,-1.603 0.493,-3.207 -0.493,-3.453 -0.987,-0.247 -2.097,0.062 -1.603,-1.325 0.493,-1.388 1.973,-2.622 1.727,-3.362 -0.247,-0.739 0.493,-3.576 -0.37,-2.343 -0.863,1.233 -1.356,2.96 -2.22,3.083 -0.863,0.124 -1.727,1.233 -1.727,-0.37 0,-1.603 1.444,-2.097 0.846,-2.713 -0.6,-0.616 -0.846,-0.556 -0.846,-1.511 0,-0.956 0,-1.987 0.123,-2.705 0.123,-0.717 0,-1.211 0,-1.704 0,-0.493 0.951,-0.123 0.723,-0.863 -0.229,-0.74 -0.476,-1.11 -0.6,-2.097 -0.123,-0.986 0.493,-0.863 0,-1.85 -0.493,-0.987 0.458,-0.371 0.6,0 0.141,0.369 1.352,1.348 1.25,0.739 -0.247,-1.479 -1.392,-0.739 -1.25,-2.343 0.141,-1.604 1.25,-1.48 0.634,-1.974 -0.616,-0.493 -1.727,-0.456 -1.85,-0.906 -0.123,-0.45 -0.37,-0.574 -0.987,-0.944 -0.617,-0.369 -1.625,-0.123 -1.368,0.37 0.258,0.494 -0.359,0.654 -1.099,0.574 -0.74,-0.08 0,-1.19 0,-1.684 0,-0.494 0.987,-0.74 0.37,-1.356 -0.616,-0.617 -0.739,-0.494 -1.973,-0.617 -1.233,-0.123 -2.352,0.247 -2.718,-0.74 -0.366,-0.986 0.004,-1.973 0.621,-1.85 0.616,0.123 1.357,0.247 1.357,0.247 0,0 0,0.246 -0.37,-0.864 -0.37,-1.109 -0.617,-1.727 -0.246,-1.85 0.37,-0.123 0.863,0.37 1.48,0.247 0.617,-0.124 1.233,1.851 0.617,-0.124 -0.617,-1.973 -0.617,-1.973 -0.617,-1.973 0,0 0.247,-0.123 -0.123,-1.357 -0.37,-1.232 -0.74,-2.959 -1.233,-3.206 -0.494,-0.247 -1.489,0.616 -1.484,-0.247 0.004,-0.863 -0.868,-2.096 0,-2.343 0.868,-0.247 1.607,-0.864 1.607,-1.357 0,-0.493 -0.493,-0.863 0.247,-1.479 0.74,-0.617 0.863,-0.617 1.357,-0.986 0.493,-0.37 1.233,-2.098 1.233,-2.098 0,0 0.242,-2.098 1.353,-2.593 z"
   id="path1282" />
			<path
   fill="#84d0f0"
   d="m 476.83,1949.536 c 1.255,-0.08 1.85,0.37 2.343,0 0.493,-0.37 1.48,-0.244 1.85,-0.061 0.37,0.184 1.358,1.664 1.358,1.664 0,0 0.616,-0.608 1.603,-0.921 0.987,-0.312 1.974,0.188 2.467,0 0.494,-0.189 0.124,-1.299 0.863,-1.916 0.74,-0.617 1.851,-0.247 2.097,0 0.247,0.247 -0.74,0.649 0,1.25 0.74,0.6 1.48,0.51 2.343,0 0.863,-0.51 2.96,-0.601 2.96,0 0,0.6 -1.48,0.847 -1.48,1.587 0,0.739 -1.48,0.986 -2.466,1.11 -0.987,0.123 -1.357,1.109 -1.357,1.109 0,0 -1.357,0.123 -1.727,0.863 -0.37,0.74 -0.37,-0.493 -1.357,0 -0.986,0.493 -0.74,1.11 -1.727,1.727 -0.987,0.617 -0.74,1.727 -1.48,1.851 -0.74,0.123 -0.987,0.616 -0.247,1.233 0.74,0.616 1.603,0.863 0.863,1.356 -0.74,0.493 -1.11,0.246 -0.987,1.727 0.124,1.479 1.11,0.246 -0.494,1.479 -1.603,1.233 -1.603,1.233 -1.603,1.233 0,0 1.603,-0.739 0,0 -1.603,0.74 -2.59,1.851 -2.713,2.96 -0.123,1.11 -0.493,2.097 0.123,2.467 0.617,0.37 1.234,0.123 1.727,0.986 0.493,0.863 0.37,0.247 0.863,1.604 0.494,1.357 1.727,0.37 0.494,1.357 -1.233,0.986 -0.74,0.986 -0.494,1.603 0.247,0.617 1.357,1.48 0.247,1.851 -1.11,0.369 -2.22,0.617 -2.343,1.604 -0.124,0.986 -0.617,1.356 0.124,1.604 0.74,0.246 1.603,0.123 1.727,0.862 0.123,0.74 0,1.974 -0.74,2.344 -0.74,0.37 -0.986,-0.74 -1.604,0 -0.616,0.74 -1.233,1.356 -1.85,1.233 -0.617,-0.123 -1.974,-1.325 -1.604,0.016 0.37,1.341 1.48,2.574 1.48,2.574 0,0 1.973,-0.369 1.85,0.617 -0.123,0.986 0.863,1.604 -1.233,1.232 -2.097,-0.369 -3.207,-1.479 -3.207,-1.479 l -8.387,-0.493 c 0,0 0,-0.74 0,0.74 0,1.479 -0.617,2.096 -0.617,2.096 0,0 -0.123,2.097 -0.616,2.961 -0.494,0.863 -1.974,1.727 -2.467,2.713 -0.493,0.986 -1.85,2.221 -2.344,3.453 -0.493,1.233 -0.986,1.727 -1.233,2.344 -0.246,0.616 0,3.453 0,3.453 0,0 0.891,3.33 -0.109,3.33 -1,0 -1.864,-3.576 -1.864,-3.576 0,0 0.123,-2.221 -0.74,-3.207 -0.863,-0.986 -0.124,-1.234 0,-2.59 0.123,-1.357 0.74,-2.097 1.233,-2.467 0.493,-0.37 0.493,-2.097 1.357,-2.097 0.863,0 0.246,1.479 1.356,0 1.11,-1.48 1.233,-1.974 1.233,-2.837 0,-0.863 1.233,-1.973 -0.493,-1.973 -1.727,0 -1.85,-0.987 -3.453,-0.617 -1.604,0.37 -2.22,0.863 -3.577,0.37 -1.356,-0.493 -3.576,-0.863 -2.96,-1.727 0.617,-0.864 3.454,-1.233 3.7,-1.604 0.247,-0.37 1.11,-2.344 1.973,-2.344 0.864,0 1.48,-0.616 2.467,-0.493 0.987,0.123 1.728,-0.37 2.467,-0.493 0.74,-0.123 1.727,0.37 2.343,0.37 0.617,0 0.863,0.123 2.22,-0.37 1.357,-0.493 0.987,-0.863 2.344,-0.247 1.356,0.617 1.974,0.123 2.837,0.247 0.863,0.123 0.369,1.851 0.863,0.123 0.494,-1.727 0.511,-2.96 1.18,-3.576 0.67,-0.617 1.286,-0.214 1.41,-1.341 0.123,-1.126 0.247,-1.619 0.247,-2.482 0,-0.863 0.493,-1.357 -0.494,-1.727 -0.986,-0.37 -0.229,-1.234 -1.163,-2.467 -0.934,-1.233 0.177,-0.37 -0.934,-1.233 -1.109,-0.863 -1.109,-1.48 -1.233,-3.207 -0.123,-1.727 1.375,-2.343 2.167,-1.604 0.793,0.74 1.779,0.863 2.52,0 0.741,-0.863 0.617,-0.986 0.74,-2.097 0.124,-1.109 0.37,-0.246 1.357,-0.863 0.987,-0.616 0.863,-0.986 1.603,-1.604 0.74,-0.616 0.247,-0.492 0.617,-1.479 0.37,-0.987 0.493,-2.22 -0.617,-2.714 -1.11,-0.493 -1.727,-0.369 -1.357,-1.479 0.37,-1.11 0.37,-2.59 -0.246,-3.33 -0.616,-0.74 -0.816,-2.536 10e-4,-2.588 z"
   id="path1283" />
		</g><rect
   style="fill:none;stroke:#000000;stroke-width:0.29998;stroke-linejoin:bevel;stroke-dasharray:none;paint-order:stroke fill markers"
   id="rect2"
   height="4390.293"
   x="0.19998971"
   y="0.19998971"
   ry="0.69917101"
   width="4353.8188" /></svg>
